<?xml version="1.0" encoding="UTF-8"?>
<svg xmlns="http://www.w3.org/2000/svg" xmlns:xlink="http://www.w3.org/1999/xlink" version="1.2" >
<font id="Luiss Serif Bold Italic">
<font-face  font-family="Luiss Serif" units-per-em="2000" ascent="1480" descent="-520" font-style="italic" font-weight="700" font-stretch="normal" cap-height="1338" x-height="848" underline-position="-175" underline-thickness="50" />
<missing-glyph  horiz-adv-x="1341" d="M918 102 L243 102 L659 598 L918 102 Z M422 1236 L1098 1236 L682 740 L422 1236 Z M720 669 L1147 1179 L986 158 L720 669 Z M356 1181 L622 669 L194 159 L356 1181 Z M971 0 C1022 0 1068 41 1076 91 L1259 1247 C1260 1252 1260 1256 1260 1261 C1260 1304 1228 1338 1182 1338 L370 1338 C319 1338 273 1297 265 1247 L82 91 C81 86 81 82 81 77 C81 34 113 0 159 0 L971 0 Z " />
<glyph glyph-name="space" unicode="&#x20;" horiz-adv-x="330" d="" />
<glyph glyph-name="exclam" unicode="&#x21;" horiz-adv-x="570" d="M293 387 C313 493 342 585 362 670 C421 919 530 1086 530 1221 C530 1297 473 1358 400 1358 C252 1358 218 1212 218 1098 C218 1015 229 928 229 851 C229 725 223 573 199 387 L293 387 Z M341 94 C341 161 284 217 218 217 C151 217 94 161 94 94 C94 27 151 -30 218 -30 C284 -30 341 27 341 94 L341 94 Z " />
<glyph glyph-name="quotedbl" unicode="&#x22;" horiz-adv-x="583" d="M106 822 C145 963 189 1061 247 1172 C264 1204 283 1248 283 1286 C283 1339 237 1369 190 1369 C83 1369 70 1266 66 1172 C61 1051 55 934 32 822 L106 822 Z M386 822 C425 963 469 1061 527 1172 C544 1204 563 1248 563 1286 C563 1339 517 1369 470 1369 C363 1369 350 1266 346 1172 C341 1051 335 934 312 822 L386 822 Z " />
<glyph glyph-name="numbersign" unicode="&#x23;" horiz-adv-x="1112" d="M141 850 L397 850 L287 492 L30 492 L10 420 L265 420 L154 58 L245 58 L356 420 L617 420 L506 58 L597 58 L708 420 L950 420 L970 492 L730 492 L841 850 L1081 850 L1101 922 L863 922 L975 1286 L884 1286 L771 922 L511 922 L623 1286 L532 1286 L419 922 L161 922 L141 850 Z M489 850 L749 850 L639 492 L378 492 L489 850 Z " />
<glyph glyph-name="dollar" unicode="&#x24;" horiz-adv-x="1106" d="M492 -282 L528 -23 C783 -4 993 142 993 380 C993 533 895 668 751 739 L549 839 C452 887 413 964 413 1050 C413 1195 543 1300 679 1300 C847 1300 941 1140 941 994 C941 980 940 966 938 952 L1003 952 L1031 1218 C941 1298 834 1344 723 1359 L757 1605 L654 1700 L606 1362 C390 1349 177 1223 177 991 C177 827 265 698 415 622 L612 523 C703 478 744 396 744 306 C744 143 613 38 459 38 C247 38 159 219 159 401 C159 422 159 444 161 468 L96 468 L55 107 C155 37 266 -11 411 -22 L375 -282 L492 -282 Z " />
<glyph glyph-name="percent" unicode="&#x25;" horiz-adv-x="1334" d="M157 0 L1254 1338 L1168 1338 L71 0 L157 0 Z M296 589 C480 589 601 777 601 1027 C601 1191 521 1351 349 1351 C158 1351 45 1176 45 918 C45 751 123 589 296 589 L296 589 Z M433 1106 C433 1068 430 1017 424 964 C408 820 385 633 292 633 C213 633 213 766 213 830 C213 869 216 927 221 977 C237 1125 258 1307 352 1307 C432 1307 433 1171 433 1106 L433 1106 Z M984 -14 C1168 -14 1289 174 1289 424 C1289 588 1209 748 1037 748 C846 748 733 573 733 315 C733 148 811 -14 984 -14 L984 -14 Z M1121 503 C1121 465 1118 414 1112 361 C1096 217 1073 30 980 30 C901 30 901 163 901 227 C901 266 904 324 909 374 C925 522 946 704 1040 704 C1120 704 1121 568 1121 503 L1121 503 Z " />
<glyph glyph-name="ampersand" unicode="&#x26;" horiz-adv-x="1267" d="M226 961 C226 810 365 721 502 698 C292 685 74 569 74 330 C74 81 315 -29 518 -29 C739 -29 955 88 955 322 C955 387 933 455 891 499 C910 497 929 495 949 495 C1105 495 1203 594 1239 731 L1185 789 C1166 710 1121 661 1069 637 C916 569 716 633 571 545 C526 517 489 473 467 419 L511 363 C551 453 622 512 713 512 C818 512 889 415 889 320 C889 150 726 32 578 32 C420 32 307 171 307 318 C307 537 492 650 680 661 L689 714 C547 737 456 828 456 965 C456 1085 543 1198 662 1198 C821 1198 860 1068 860 944 C860 916 858 891 856 868 L916 864 L953 1123 C852 1213 737 1254 611 1254 C435 1254 226 1168 226 961 L226 961 Z " />
<glyph glyph-name="quotesingle" unicode="&#x27;" horiz-adv-x="303" d="M106 822 C145 963 189 1061 247 1172 C264 1204 283 1248 283 1286 C283 1339 237 1369 190 1369 C83 1369 70 1266 66 1172 C61 1051 55 934 32 822 L106 822 Z " />
<glyph glyph-name="parenleft" unicode="&#x28;" horiz-adv-x="517" d="M340 -450 C223 -209 156 45 156 290 C156 683 309 1023 557 1301 L497 1353 C226 1072 70 687 70 308 C70 26 139 -251 267 -483 L340 -450 Z " />
<glyph glyph-name="parenright" unicode="&#x29;" horiz-adv-x="447" d="M107 1319 C224 1078 291 824 291 579 C291 186 138 -154 -110 -432 L-50 -484 C221 -203 377 182 377 561 C377 843 308 1120 180 1352 L107 1319 Z " />
<glyph glyph-name="asterisk" unicode="&#x2a;" horiz-adv-x="727" d="M80 1162 C80 1095 149 1062 201 1062 C209 1062 218 1064 249 1064 C284 1064 313 1057 339 1048 C297 1016 264 1007 235 999 C210 993 180 982 156 958 C137 939 125 911 125 886 C125 836 170 792 217 792 C247 792 272 806 289 824 C315 850 323 876 330 903 C338 933 346 964 380 1008 C393 972 396 945 396 921 C396 897 394 883 394 868 C394 809 433 748 495 748 C550 748 589 794 589 843 C589 860 585 877 578 890 C560 925 538 939 514 954 C488 970 460 990 430 1033 C454 1033 467 1032 479 1030 C504 1026 521 1019 539 1013 C562 1004 585 996 608 996 C667 996 717 1037 717 1091 C717 1151 664 1188 615 1188 C576 1188 554 1170 527 1147 C502 1126 471 1101 419 1089 C433 1140 456 1166 476 1189 C500 1216 519 1239 519 1287 C519 1345 476 1384 422 1384 C362 1384 328 1328 328 1278 C328 1253 335 1233 344 1210 C354 1185 365 1156 365 1096 C321 1123 302 1157 286 1185 C262 1226 238 1258 175 1258 C119 1258 80 1208 80 1162 L80 1162 Z " />
<glyph glyph-name="plus" unicode="&#x2b;" horiz-adv-x="1082" d="M91 415 L476 415 L413 26 L508 26 C529 154 549 287 570 415 L955 415 L970 503 L585 503 L648 890 L553 890 L491 503 L105 503 L91 415 Z " />
<glyph glyph-name="comma" unicode="&#x2c;" horiz-adv-x="353" d="M-28 -330 C140 -280 293 -154 293 38 C293 130 251 218 150 218 C81 218 21 161 21 88 C21 29 68 -28 135 -28 C166 -28 203 -10 223 17 C223 -130 92 -232 -45 -275 L-28 -330 Z " />
<glyph glyph-name="hyphen" unicode="&#x2d;" horiz-adv-x="672" d="M79 390 L501 390 L526 547 L104 547 L79 390 Z " />
<glyph glyph-name="period" unicode="&#x2e;" horiz-adv-x="339" d="M279 101 C279 172 219 231 150 231 C79 231 20 172 20 101 C20 31 79 -30 150 -30 C219 -30 279 31 279 101 L279 101 Z " />
<glyph glyph-name="slash" unicode="&#x2f;" horiz-adv-x="772" d="M45 -89 L848 1407 L746 1407 L-56 -89 L45 -89 Z " />
<glyph glyph-name="zero" unicode="0" horiz-adv-x="1029" d="M488 -23 C789 -23 986 291 986 712 C986 986 857 1254 577 1254 C265 1254 80 959 80 526 C80 247 206 -23 488 -23 L488 -23 Z M741 846 C741 778 736 696 726 603 C697 346 667 31 481 31 C325 31 325 264 325 377 C325 446 330 542 339 628 C367 888 398 1199 583 1199 C740 1199 741 960 741 846 L741 846 Z " />
<glyph glyph-name="one" unicode="1" horiz-adv-x="682" d="M23 0 L563 0 L569 41 L493 41 C449 41 428 52 428 100 C428 98 431 132 432 142 L585 1242 C585 1242 302 1209 142 1202 L134 1153 L292 1153 C327 1153 334 1138 334 1117 C334 1111 331 1086 330 1079 L196 121 C186 52 155 41 93 41 L29 41 L23 0 Z " />
<glyph glyph-name="two" unicode="2" horiz-adv-x="965" d="M799 362 L757 139 L256 139 C329 228 435 318 541 405 C651 495 742 577 814 696 C854 763 878 838 878 938 C878 1139 706 1254 511 1254 C385 1254 275 1212 165 1149 L122 878 L182 878 C204 1006 268 1203 464 1203 C602 1203 654 1075 654 949 C654 876 639 802 619 745 C578 625 497 533 397 445 C296 356 134 191 67 112 L32 0 L824 0 L858 362 L799 362 Z " />
<glyph glyph-name="three" unicode="3" horiz-adv-x="945" d="M406 -23 C632 -23 843 109 843 341 C843 544 690 649 521 662 L521 666 C690 695 876 784 876 986 C876 1170 706 1254 530 1254 C400 1254 295 1213 190 1156 L151 888 L210 888 C227 1036 309 1198 467 1198 C590 1198 654 1099 654 979 C654 831 561 722 417 700 C398 697 383 696 305 696 L297 642 L339 640 C537 632 602 487 602 346 C602 197 531 29 365 29 C199 29 147 187 147 314 C147 327 147 339 149 352 L89 352 L51 83 C165 6 284 -23 406 -23 L406 -23 Z " />
<glyph glyph-name="four" unicode="4" horiz-adv-x="1002" d="M361 0 L900 0 L905 41 L877 41 C804 41 763 48 763 110 C763 119 765 144 766 155 L874 886 L636 848 L586 496 L165 496 L715 1231 L624 1231 L24 432 L14 358 L512 358 C553 358 561 339 561 319 C561 316 558 287 557 283 L534 122 C524 54 480 42 395 41 L366 41 L361 0 Z " />
<glyph glyph-name="five" unicode="5" horiz-adv-x="935" d="M89 374 L51 101 C130 21 240 -23 367 -23 C641 -23 851 147 851 432 C851 656 692 787 485 787 C381 787 280 755 207 688 L299 1076 L831 1076 L866 1230 L261 1230 L123 641 L187 596 C259 661 350 719 443 719 C580 719 611 548 611 446 C611 279 553 27 362 27 C212 27 143 164 143 301 C143 326 144 351 149 374 L89 374 Z " />
<glyph glyph-name="six" unicode="6" horiz-adv-x="997" d="M291 295 C291 488 334 770 550 770 C684 770 693 603 693 509 C693 353 659 28 448 28 C316 28 291 199 291 295 L291 295 Z M919 1271 C327 1214 78 858 78 448 C78 221 162 -23 460 -23 C722 -23 914 201 914 439 C914 696 760 830 569 831 C500 831 430 812 369 759 C450 1053 629 1183 913 1224 L919 1271 Z " />
<glyph glyph-name="seven" unicode="7" horiz-adv-x="771" d="M263 0 L812 1195 L812 1231 L90 1231 L59 1076 L660 1076 L33 0 L263 0 Z " />
<glyph glyph-name="eight" unicode="8" horiz-adv-x="920" d="M535 1254 C328 1254 155 1115 155 928 C155 822 204 730 303 638 C158 569 41 458 41 294 C41 95 221 -23 401 -23 C610 -23 842 96 842 315 C842 483 693 608 584 696 C712 760 838 853 838 1005 C838 1174 674 1254 535 1254 L535 1254 Z M352 590 C454 505 661 365 661 224 C661 94 515 35 411 35 C259 35 118 144 118 297 C118 446 235 543 352 590 L352 590 Z M533 743 C397 845 314 921 314 1014 C314 1132 435 1198 538 1198 C649 1198 768 1119 768 1004 C768 871 638 783 533 743 L533 743 Z " />
<glyph glyph-name="nine" unicode="9" horiz-adv-x="997" d="M707 936 C707 743 663 461 447 461 C314 461 305 628 305 722 C305 878 339 1203 549 1203 C681 1203 707 1032 707 936 L707 936 Z M78 -40 C671 17 919 373 919 783 C919 1010 835 1254 537 1254 C275 1254 83 1029 83 792 C83 535 237 401 428 400 C497 400 568 419 628 472 C547 178 368 48 85 7 L78 -40 Z " />
<glyph glyph-name="colon" unicode="&#x3a;" horiz-adv-x="458" d="M408 718 C408 789 348 848 279 848 C208 848 149 789 149 718 C149 648 208 587 279 587 C348 587 408 648 408 718 L408 718 Z M322 101 C322 172 262 231 193 231 C122 231 63 172 63 101 C63 31 122 -30 193 -30 C262 -30 322 31 322 101 L322 101 Z " />
<glyph glyph-name="semicolon" unicode="&#x3b;" horiz-adv-x="458" d="M-6 -275 C131 -232 262 -130 262 17 C242 -10 205 -28 174 -28 C107 -28 60 29 60 88 C60 161 120 218 189 218 C290 218 332 130 332 38 C332 -154 179 -280 11 -330 L-6 -275 Z M408 718 C408 789 348 848 279 848 C208 848 149 789 149 718 C149 648 208 587 279 587 C348 587 408 648 408 718 L408 718 Z " />
<glyph glyph-name="less" unicode="&#x3c;" horiz-adv-x="823" d="M622 2 L681 73 C681 73 309 357 183 455 L789 840 L737 914 L105 511 C83 497 65 477 65 453 C65 438 76 421 92 408 L622 2 Z " />
<glyph glyph-name="equal" unicode="&#x3d;" horiz-adv-x="1042" d="M120 535 L945 535 L959 623 L134 623 L120 535 Z M81 295 L906 295 L920 383 L95 383 L81 295 Z " />
<glyph glyph-name="greater" unicode="&#x3e;" horiz-adv-x="823" d="M206 914 L147 843 C147 843 519 559 645 461 L39 76 L91 2 L723 405 C745 419 763 439 763 463 C763 478 752 495 736 508 L206 914 Z " />
<glyph glyph-name="question" unicode="&#x3f;" horiz-adv-x="823" d="M203 387 L297 387 C313 514 387 555 460 616 L632 761 C740 852 803 970 803 1105 C803 1272 665 1364 513 1364 C379 1364 260 1309 156 1239 L109 944 L175 944 C208 1113 293 1306 485 1306 C577 1306 648 1238 648 1149 C648 1079 609 1026 559 985 L380 835 C284 755 243 640 224 518 L203 387 Z M353 94 C353 161 296 217 230 217 C163 217 106 161 106 94 C106 27 163 -30 230 -30 C296 -30 353 27 353 94 L353 94 Z " />
<glyph glyph-name="at" unicode="&#x40;" horiz-adv-x="1551" d="M894 840 C894 664 824 291 653 291 C569 291 559 435 559 488 C559 621 592 1032 785 1032 C873 1032 894 903 894 840 L894 840 Z M1154 1065 L944 1065 L925 963 C900 1057 816 1093 732 1093 C470 1093 353 822 353 606 C353 435 423 231 618 231 C693 231 776 264 825 351 C869 245 960 207 1053 207 C1314 207 1437 432 1437 669 C1437 1052 1140 1363 775 1363 C410 1363 114 1052 114 669 C114 286 410 -25 775 -25 C913 -25 1040 18 1146 94 L1101 153 C1007 84 901 46 775 46 C451 46 188 326 188 669 C188 1012 451 1292 775 1292 C1099 1292 1363 1012 1363 669 C1363 509 1277 287 1110 287 C1065 287 1038 318 1038 377 C1038 390 1041 416 1044 432 L1154 1065 Z " />
<glyph glyph-name="A" unicode="A" horiz-adv-x="1204" d="M742 170 C744 158 748 130 748 120 C748 57 711 45 671 45 L602 45 L595 0 L1163 0 L1169 45 L1113 45 C1063 45 1014 76 997 186 L817 1338 L633 1338 L119 170 C74 67 -5 45 -39 45 L-78 45 L-85 0 L280 0 L287 45 L222 45 C188 45 163 64 163 100 C163 114 167 131 176 151 L302 435 L702 435 L742 170 Z M601 1117 L694 491 L327 491 L601 1117 Z " />
<glyph glyph-name="B" unicode="B" horiz-adv-x="1238" d="M5 0 L504 0 C766 0 1112 59 1112 389 C1112 586 948 698 774 710 L774 717 C950 746 1138 832 1138 1042 C1138 1302 838 1338 655 1338 L196 1338 L190 1293 C271 1293 317 1287 317 1218 C317 1209 313 1168 311 1157 L165 133 C154 59 107 46 13 45 L5 0 Z M404 55 L493 677 L571 677 C730 677 849 609 849 438 C849 201 707 55 487 55 L404 55 Z M500 735 L577 1282 L640 1282 C781 1282 876 1215 876 1067 C876 872 741 735 560 735 L500 735 Z " />
<glyph glyph-name="C" unicode="C" horiz-adv-x="1196" d="M621 -25 C758 -25 873 12 1003 92 L1044 386 L979 386 C929 217 837 37 633 37 C404 37 368 308 368 476 C368 761 440 1303 829 1303 C1013 1303 1060 1134 1060 992 C1060 978 1060 965 1059 952 L1124 952 L1166 1248 C1056 1321 949 1363 808 1363 C326 1363 100 998 100 575 C100 265 256 -25 621 -25 L621 -25 Z " />
<glyph glyph-name="D" unicode="D" horiz-adv-x="1379" d="M404 55 C460 459 521 878 577 1282 L636 1282 C910 1282 1016 1110 1016 814 C1016 437 888 55 505 55 L404 55 Z M539 0 C1041 0 1289 329 1289 777 C1289 1117 1073 1338 698 1338 L196 1338 L190 1293 C271 1293 317 1287 317 1218 C317 1209 313 1168 311 1157 L165 133 C154 59 107 46 13 45 L5 0 L539 0 Z " />
<glyph glyph-name="E" unicode="E" horiz-adv-x="1128" d="M933 0 L1019 332 L952 332 C895 128 848 55 739 55 L401 55 L489 678 L604 678 C682 678 708 658 708 587 C708 562 704 531 699 492 L763 492 L823 920 L758 920 C737 771 716 734 611 734 L497 734 L574 1283 L865 1283 C1016 1283 1031 1238 1031 1098 L1096 1098 L1096 1338 L196 1338 L190 1293 C271 1293 317 1287 317 1218 C317 1209 313 1168 311 1157 L165 133 C154 59 107 46 13 45 L5 0 L933 0 Z " />
<glyph glyph-name="F" unicode="F" horiz-adv-x="1036" d="M5 0 L580 0 L580 45 L541 45 C460 45 414 51 414 120 C414 129 416 157 418 168 L489 678 L604 678 C682 678 708 658 708 587 C708 562 704 531 699 492 L763 492 L823 920 L758 920 C737 771 716 734 611 734 L497 734 L574 1283 L865 1283 C1016 1283 1031 1238 1031 1098 L1096 1098 L1096 1338 L196 1338 L190 1293 C271 1293 317 1287 317 1218 C317 1209 313 1168 311 1157 L165 133 C154 59 107 46 13 45 L5 0 Z " />
<glyph glyph-name="G" unicode="G" horiz-adv-x="1316" d="M1113 185 L1177 638 L791 638 L783 585 L848 585 C900 585 913 557 913 523 C913 513 912 502 910 491 L874 237 C856 108 751 37 633 37 C404 37 368 308 368 476 C368 743 434 1302 820 1302 C995 1302 1100 1148 1100 992 C1100 978 1100 965 1099 952 L1164 952 L1206 1248 C1098 1321 945 1363 811 1363 C334 1363 100 1004 100 575 C100 244 274 -25 626 -25 C806 -25 997 52 1113 185 L1113 185 Z " />
<glyph glyph-name="H" unicode="H" horiz-adv-x="1449" d="M1479 1338 L949 1338 L943 1293 C1024 1293 1070 1287 1070 1218 C1070 1209 1066 1168 1064 1157 L1004 735 L499 735 L566 1205 C577 1279 624 1292 718 1293 L726 1338 L196 1338 L190 1293 C271 1293 317 1287 317 1218 C317 1209 313 1168 311 1157 L165 133 C154 59 107 46 13 45 L5 0 L535 0 L541 45 C460 45 414 51 414 120 C414 129 416 157 418 168 L491 679 L996 679 L918 133 C907 59 860 46 766 45 L758 0 L1288 0 L1294 45 C1213 45 1167 51 1167 120 C1167 129 1169 157 1171 168 L1319 1205 C1330 1279 1377 1292 1471 1293 L1479 1338 Z " />
<glyph glyph-name="I" unicode="I" horiz-adv-x="696" d="M726 1338 L196 1338 L190 1293 C271 1293 317 1287 317 1218 C317 1209 313 1168 311 1157 L165 133 C154 59 107 46 13 45 L5 0 L535 0 L541 45 C460 45 414 51 414 120 C414 129 416 157 418 168 L566 1205 C577 1279 624 1292 718 1293 L726 1338 Z " />
<glyph glyph-name="J" unicode="J" horiz-adv-x="832" d="M872 1338 L342 1338 L336 1293 C417 1293 463 1287 463 1218 C463 1209 459 1168 457 1157 L320 194 C308 109 245 39 166 39 C64 39 39 137 39 233 C39 254 40 275 42 294 L-18 294 L-50 72 C24 17 103 -25 225 -25 C446 -25 557 114 581 281 L712 1205 C723 1279 770 1292 864 1293 L872 1338 Z " />
<glyph glyph-name="K" unicode="K" horiz-adv-x="1292" d="M726 1338 L196 1338 L190 1293 C271 1293 317 1287 317 1218 C317 1209 313 1168 311 1157 L165 133 C154 59 107 46 13 45 L5 0 L535 0 L541 45 C460 45 414 51 414 120 C414 129 416 157 418 168 L486 649 L513 675 L815 148 C825 131 834 110 834 92 C834 66 816 45 759 45 L714 45 L708 0 L1249 0 L1255 45 L1221 45 C1148 45 1122 84 1089 141 L677 838 L1135 1293 L1281 1293 L1287 1338 L883 1338 L877 1293 L1036 1293 L502 758 L566 1205 C577 1279 624 1292 718 1293 L726 1338 Z " />
<glyph glyph-name="L" unicode="L" horiz-adv-x="1078" d="M5 0 L977 0 L1028 356 L962 356 C921 144 855 65 746 65 L404 65 L566 1205 C577 1279 624 1292 718 1293 L726 1338 L196 1338 L190 1293 C271 1293 317 1287 317 1218 C317 1209 313 1168 311 1157 L165 133 C154 59 107 46 13 45 L5 0 Z " />
<glyph glyph-name="M" unicode="M" horiz-adv-x="1570" d="M5 0 L406 0 L412 45 L368 45 C288 45 243 51 243 120 C243 129 245 157 247 168 L376 1082 L626 40 L655 40 L1181 1099 L1038 131 C1027 57 980 46 886 45 L880 0 L1408 0 L1414 45 C1330 46 1285 55 1285 110 C1285 115 1286 121 1287 128 L1439 1207 C1449 1281 1497 1292 1591 1293 L1597 1338 L1214 1338 L764 426 L549 1338 L196 1338 L190 1293 C271 1293 317 1287 317 1218 C317 1209 313 1168 311 1157 L165 133 C154 59 107 46 13 45 L5 0 Z " />
<glyph glyph-name="N" unicode="N" horiz-adv-x="1340" d="M964 1293 L1008 1293 C1087 1293 1132 1286 1132 1218 C1132 1209 1130 1181 1128 1170 L999 256 L552 1338 L196 1338 L190 1293 C271 1293 317 1287 317 1218 C317 1209 313 1168 311 1157 L165 133 C154 59 107 46 13 45 L5 0 L406 0 L412 45 L368 45 C288 45 243 51 243 120 C243 129 245 157 247 168 L376 1082 L828 0 L1037 0 L1210 1205 C1221 1279 1268 1292 1362 1293 L1370 1338 L970 1338 L964 1293 Z " />
<glyph glyph-name="O" unicode="O" horiz-adv-x="1328" d="M1236 785 C1231 1095 1091 1363 753 1363 C364 1363 95 1028 95 560 C95 227 256 -25 580 -25 C969 -25 1236 286 1236 785 L1236 785 Z M941 636 C911 338 844 36 568 36 C400 36 359 189 359 317 C359 438 375 565 393 702 C430 995 491 1302 765 1302 C925 1302 970 1162 970 1002 C970 864 951 750 941 636 L941 636 Z " />
<glyph glyph-name="P" unicode="P" horiz-adv-x="1147" d="M484 644 L575 1285 L662 1285 C806 1285 887 1193 887 1037 C887 770 715 644 525 644 L484 644 Z M5 0 L596 0 L602 45 L537 45 C458 45 414 52 414 120 C414 129 416 157 418 168 L476 584 C505 583 537 582 565 582 C838 582 1147 698 1147 1010 C1147 1266 884 1338 683 1338 L196 1338 L190 1293 C271 1293 317 1287 317 1218 C317 1209 313 1168 311 1157 L165 133 C154 59 107 46 13 45 L5 0 Z " />
<glyph glyph-name="Q" unicode="Q" horiz-adv-x="1328" d="M517 -85 L1051 -85 L941 -207 L502 -207 L517 -85 Z M1236 785 C1231 1095 1091 1363 753 1363 C364 1363 95 1028 95 560 C95 227 256 -25 580 -25 C969 -25 1236 286 1236 785 L1236 785 Z M941 636 C911 338 844 36 568 36 C400 36 359 189 359 317 C359 438 375 565 393 702 C430 995 491 1302 765 1302 C925 1302 970 1162 970 1002 C970 864 951 750 941 636 L941 636 Z " />
<glyph glyph-name="R" unicode="R" horiz-adv-x="1227" d="M489 650 L550 650 L833 0 L1185 0 L1192 45 L1082 45 L780 679 C994 750 1118 873 1118 1040 C1118 1195 1004 1338 706 1338 L196 1338 L190 1293 C271 1293 317 1287 317 1218 C317 1209 313 1168 311 1157 L165 133 C154 59 107 46 13 45 L5 0 L586 0 L592 45 L537 45 C458 45 414 52 414 120 C414 129 416 157 418 168 L489 650 Z M632 1284 C837 1284 866 1165 866 1044 C865 885 744 709 546 709 L496 709 L577 1284 L632 1284 Z " />
<glyph glyph-name="S" unicode="S" horiz-adv-x="1106" d="M1031 1218 C921 1316 785 1364 646 1364 C417 1364 177 1237 177 991 C177 827 265 698 415 622 L612 523 C703 478 744 396 744 306 C744 143 613 38 459 38 C247 38 159 219 159 401 C159 422 159 444 161 468 L96 468 L55 107 C169 27 297 -25 474 -25 C752 -25 993 125 993 380 C993 533 895 668 751 739 L549 839 C452 887 413 964 413 1050 C413 1195 543 1300 679 1300 C847 1300 941 1140 941 994 C941 980 940 966 938 952 L1003 952 L1031 1218 Z " />
<glyph glyph-name="T" unicode="T" horiz-adv-x="1009" d="M1119 1338 L129 1338 L40 1022 L105 1022 C165 1226 224 1283 333 1283 L478 1283 L315 133 C304 59 257 46 163 45 L155 0 L685 0 L691 45 C610 45 564 51 564 120 C564 129 566 157 568 168 L725 1283 L898 1283 C1020 1283 1043 1226 1043 1022 L1107 1022 L1119 1338 Z " />
<glyph glyph-name="U" unicode="U" horiz-adv-x="1327" d="M724 1338 L194 1338 L188 1293 C269 1293 315 1287 315 1218 C315 1209 311 1168 309 1157 L211 462 C205 420 202 379 202 341 C202 120 312 -19 633 -25 C883 -30 1057 143 1097 432 L1205 1205 C1215 1279 1263 1292 1357 1293 L1365 1338 L965 1338 L959 1293 L1003 1293 C1082 1293 1127 1286 1127 1218 C1127 1209 1125 1181 1123 1170 L1026 487 C992 249 878 45 654 45 C490 45 449 186 449 320 C449 365 453 409 458 446 L564 1205 C574 1279 622 1292 716 1293 L724 1338 Z " />
<glyph glyph-name="V" unicode="V" horiz-adv-x="1233" d="M635 215 L503 1164 C502 1176 501 1188 501 1198 C504 1269 548 1289 590 1291 L648 1293 L655 1338 L97 1338 L90 1293 L118 1291 C179 1286 235 1263 252 1154 L434 0 L611 0 L1149 1163 C1191 1255 1237 1293 1309 1293 L1349 1293 L1358 1338 L962 1338 L953 1293 L1022 1293 C1074 1293 1091 1271 1091 1241 C1091 1220 1082 1194 1071 1170 L635 215 Z " />
<glyph glyph-name="W" unicode="W" horiz-adv-x="1890" d="M1292 215 L1160 1164 C1159 1176 1158 1188 1158 1198 C1161 1269 1205 1289 1247 1291 L1305 1293 L1312 1338 L759 1338 L752 1293 L775 1291 C836 1286 892 1263 909 1154 L948 902 L635 215 L503 1164 C502 1176 501 1188 501 1198 C504 1269 548 1289 590 1291 L638 1293 L645 1338 L97 1338 L90 1293 L118 1291 C179 1286 235 1263 252 1154 L434 0 L611 0 L968 774 L1091 0 L1268 0 L1806 1163 C1848 1255 1894 1293 1966 1293 L2006 1293 L2015 1338 L1619 1338 L1610 1293 L1679 1293 C1731 1293 1748 1271 1748 1241 C1748 1220 1739 1194 1728 1170 L1292 215 Z " />
<glyph glyph-name="X" unicode="X" horiz-adv-x="1239" d="M715 835 L561 1189 C555 1203 551 1217 551 1228 C551 1274 578 1293 624 1293 L698 1293 L705 1338 L106 1338 L99 1293 L127 1293 C223 1293 256 1270 306 1156 L538 623 L54 45 L-78 45 L-85 0 L317 0 L324 45 L150 45 L570 548 L744 151 C752 133 755 116 755 103 C755 65 720 45 674 45 L607 45 L601 0 L1200 0 L1206 45 L1178 47 C1082 54 1049 69 999 184 L748 760 L1193 1293 L1327 1293 L1334 1338 L931 1338 L924 1293 L1099 1293 L715 835 Z " />
<glyph glyph-name="Y" unicode="Y" horiz-adv-x="1180" d="M1164 1293 L1298 1293 L1305 1338 L908 1338 L902 1293 L1075 1293 L659 599 L517 1175 C511 1198 508 1217 508 1232 C508 1286 542 1293 573 1293 L647 1293 L653 1338 L97 1338 L90 1293 L119 1293 C200 1293 240 1261 267 1156 L433 497 L382 133 C372 59 324 46 230 45 L222 0 L752 0 L758 45 C677 45 631 51 631 120 C631 129 633 157 635 168 L682 502 L1164 1293 Z " />
<glyph glyph-name="Z" unicode="Z" horiz-adv-x="1120" d="M967 0 L1050 356 L984 356 C944 200 867 65 692 65 L299 65 L1146 1299 L1150 1338 L215 1338 L132 981 L198 981 C243 1160 321 1274 501 1274 L841 1274 L-10 37 L-15 0 L967 0 Z " />
<glyph glyph-name="bracketleft" unicode="&#x5b;" horiz-adv-x="480" d="M542 1363 L286 1363 L30 -450 L287 -450 L295 -394 L122 -394 L362 1306 L534 1306 L542 1363 Z " />
<glyph glyph-name="backslash" unicode="&#x5c;" horiz-adv-x="796" d="M854 -89 L52 1407 L-50 1407 L753 -89 L854 -89 Z " />
<glyph glyph-name="bracketright" unicode="&#x5d;" horiz-adv-x="480" d="M-92 -451 L164 -451 L420 1362 L163 1362 L155 1306 L328 1306 L88 -394 L-84 -394 L-92 -451 Z " />
<glyph glyph-name="asciicircum" unicode="&#x5e;" horiz-adv-x="1294" d="M894 102 L219 102 L635 598 L894 102 Z M398 1236 L1074 1236 L658 740 L398 1236 Z M696 669 L1123 1179 L962 158 L696 669 Z M332 1181 L598 669 L170 159 L332 1181 Z M947 0 C998 0 1044 41 1052 91 L1235 1247 C1236 1252 1236 1256 1236 1261 C1236 1304 1204 1338 1158 1338 L346 1338 C295 1338 249 1297 241 1247 L58 91 C57 86 57 82 57 77 C57 34 89 0 135 0 L947 0 Z " />
<glyph glyph-name="underscore" unicode="&#x5f;" horiz-adv-x="1100" d="M94 -214 L993 -214 L1005 -129 L106 -129 L94 -214 Z " />
<glyph glyph-name="grave" unicode="&#x60;" horiz-adv-x="523" d="M463 996 L60 1397 L60 1170 L334 996 L463 996 Z " />
<glyph glyph-name="a" unicode="a" horiz-adv-x="1047" d="M617 611 C617 426 543 33 363 33 C275 33 264 185 264 241 C264 381 299 814 502 814 C595 814 617 678 617 611 L617 611 Z M896 848 L669 848 L650 741 C623 840 535 878 446 878 C171 878 47 592 47 365 C47 185 121 -30 326 -30 C405 -30 493 5 544 97 C563 10 633 -30 713 -30 C864 -29 942 63 992 202 L932 202 C909 124 843 45 806 45 C778 45 770 72 770 102 C770 125 776 157 778 169 L896 848 Z " />
<glyph glyph-name="b" unicode="b" horiz-adv-x="987" d="M400 19 C315 19 305 146 305 205 C305 390 384 815 564 815 C645 815 662 713 662 648 C662 481 601 19 400 19 L400 19 Z M159 1338 L152 1302 L197 1302 C235 1302 244 1275 244 1246 C244 1230 241 1214 239 1201 L106 428 C100 391 90 328 90 290 C90 54 237 -30 415 -30 C730 -30 872 244 872 535 C872 704 791 878 599 878 C519 878 436 834 385 740 L489 1338 L159 1338 Z " />
<glyph glyph-name="c" unicode="c" horiz-adv-x="832" d="M516 878 C199 878 48 640 48 380 C48 163 167 -31 388 -31 C553 -31 678 64 738 202 L674 202 C627 111 531 24 428 24 C291 24 278 198 278 295 C278 443 301 832 549 832 C661 832 700 732 700 645 C700 633 699 620 698 609 L745 609 L777 799 C701 854 606 878 516 878 L516 878 Z " />
<glyph glyph-name="d" unicode="d" horiz-adv-x="1047" d="M617 611 C617 426 543 33 363 33 C275 33 264 185 264 241 C264 381 299 814 502 814 C595 814 617 678 617 611 L617 611 Z M979 1338 L649 1338 L642 1302 L687 1302 C725 1302 734 1275 734 1246 C734 1230 731 1214 729 1201 L650 741 C623 840 535 878 446 878 C171 878 47 592 47 365 C47 185 121 -30 326 -30 C405 -30 493 5 544 97 C557 20 613 -30 714 -30 C864 -30 934 91 970 202 L910 202 C887 124 829 45 792 45 C773 45 768 65 768 88 C768 109 774 145 777 161 L979 1338 Z " />
<glyph glyph-name="e" unicode="e" horiz-adv-x="870" d="M689 202 C634 107 533 22 427 22 C295 22 276 187 276 280 C276 332 280 380 286 418 C328 406 379 396 427 396 C595 396 783 470 783 647 C783 802 629 879 497 879 C210 879 48 635 48 370 C48 145 178 -30 389 -30 C553 -30 675 56 753 202 L689 202 Z M573 701 C573 584 524 450 394 450 C366 450 325 458 295 479 C316 623 367 742 420 799 C441 822 468 834 493 834 C562 834 573 751 573 701 L573 701 Z " />
<glyph glyph-name="f" unicode="f" horiz-adv-x="564" d="M7 -219 C-14 -345 -80 -405 -150 -412 L-155 -451 C13 -449 197 -379 243 -126 L412 812 L611 812 L617 848 L418 848 L449 1016 C463 1089 479 1304 599 1304 C661 1304 679 1241 679 1183 C679 1164 677 1144 674 1127 L729 1127 L754 1273 C722 1314 660 1350 581 1350 C408 1350 264 1225 205 928 L189 848 L47 848 L42 812 L133 812 C165 812 175 790 175 771 C175 766 167 724 166 719 L7 -219 Z " />
<glyph glyph-name="g" unicode="g" horiz-adv-x="892" d="M0 -317 C106 -414 246 -452 383 -452 C578 -452 806 -359 806 -143 C806 9 667 68 539 89 L355 119 C296 129 225 139 225 203 C225 232 241 260 276 273 C310 259 355 253 404 253 C596 253 772 386 772 586 C772 634 760 680 736 722 C747 788 814 813 874 813 L916 813 L922 848 L702 848 L673 779 C631 835 535 878 447 878 C244 878 75 746 75 560 C75 444 133 362 218 302 C132 281 37 225 37 128 C37 23 146 -26 231 -40 L494 -83 C592 -99 646 -151 646 -216 C646 -351 487 -404 379 -404 C207 -404 82 -319 82 -159 C82 -143 83 -126 86 -109 L36 -109 L0 -317 Z M452 837 C511 837 553 797 553 623 C553 510 514 294 405 294 C343 294 298 332 298 488 C298 611 325 837 452 837 L452 837 Z " />
<glyph glyph-name="h" unicode="h" horiz-adv-x="1069" d="M502 1338 L172 1338 L165 1302 L210 1302 C248 1302 257 1275 257 1246 C257 1230 254 1214 252 1201 L45 0 L269 0 L339 382 C351 450 375 582 419 670 C456 745 530 813 606 813 C661 813 686 765 686 722 C686 678 679 646 674 616 L613 269 C604 221 598 175 598 134 C598 37 642 -30 757 -30 C907 -30 977 91 1013 202 L953 202 C930 124 872 45 835 45 C814 45 808 66 808 97 C808 127 818 175 820 186 L884 536 C890 571 894 604 894 635 C894 781 821 878 648 878 C543 878 442 822 398 740 L502 1338 Z " />
<glyph glyph-name="i" unicode="i" horiz-adv-x="573" d="M420 848 L90 848 L83 812 L128 812 C166 812 175 785 175 756 C175 740 172 724 170 711 L93 269 C86 229 80 187 80 149 C80 40 130 -30 239 -30 C390 -30 468 63 518 202 L458 202 C435 124 369 45 332 45 C302 45 295 74 295 103 C295 127 300 152 302 161 L420 848 Z M357 1338 C272 1338 225 1262 225 1207 C225 1140 279 1100 336 1100 C421 1100 468 1176 468 1231 C468 1298 414 1338 357 1338 L357 1338 Z " />
<glyph glyph-name="j" unicode="j" horiz-adv-x="534" d="M437 848 L107 848 L100 812 L145 812 C183 812 192 785 192 756 C192 740 189 724 187 711 L44 -103 C30 -185 16 -405 -101 -405 C-170 -405 -187 -335 -187 -274 C-187 -257 -186 -241 -184 -227 L-234 -227 L-255 -373 C-223 -414 -159 -450 -80 -450 C79 -450 229 -340 276 -71 L437 848 Z M374 1338 C289 1338 242 1262 242 1207 C242 1140 296 1100 353 1100 C438 1100 485 1176 485 1231 C485 1298 431 1338 374 1338 L374 1338 Z " />
<glyph glyph-name="k" unicode="k" horiz-adv-x="938" d="M502 1338 L172 1338 L165 1302 L210 1302 C248 1302 257 1275 257 1246 C257 1230 254 1214 252 1201 L45 0 L269 0 L356 502 L362 502 C413 502 429 444 450 349 L498 128 C512 64 545 -30 669 -30 C820 -30 892 85 923 202 L873 202 C838 105 801 56 768 56 C722 56 708 105 690 204 L670 317 C646 451 602 518 432 524 L432 528 C528 541 588 609 641 670 C702 740 744 813 840 813 L884 813 L891 848 L627 848 C593 749 495 560 377 560 L366 560 L502 1338 Z " />
<glyph glyph-name="l" unicode="l" horiz-adv-x="548" d="M501 1338 L171 1338 L164 1302 L209 1302 C247 1302 256 1275 256 1246 C256 1230 253 1214 251 1201 L88 269 C81 229 75 187 75 149 C75 40 125 -30 234 -30 C385 -30 463 63 513 202 L453 202 C430 124 364 45 327 45 C297 45 290 74 290 103 C290 127 295 152 297 161 L501 1338 Z " />
<glyph glyph-name="m" unicode="m" horiz-adv-x="1489" d="M740 0 L809 382 C840 552 857 595 887 670 C917 744 967 813 1043 813 C1094 813 1107 768 1107 720 C1107 681 1095 612 1091 590 L1034 269 C1025 221 1019 175 1019 134 C1019 37 1063 -30 1178 -30 C1328 -30 1398 91 1434 202 L1374 202 C1351 124 1293 45 1256 45 C1235 45 1229 66 1229 97 C1229 127 1239 175 1241 186 L1304 532 C1312 576 1314 611 1314 645 C1314 784 1235 878 1091 878 C979 878 885 810 846 711 C826 808 762 878 634 878 C528 878 449 827 403 740 L421 848 L91 848 L84 812 L129 812 C167 812 176 785 176 756 C176 740 173 724 171 711 L50 0 L274 0 L344 382 C356 450 378 572 424 670 C456 738 505 813 576 813 C628 813 641 770 641 722 C641 684 629 619 624 592 L517 0 L740 0 Z " />
<glyph glyph-name="n" unicode="n" horiz-adv-x="1069" d="M417 848 L87 848 L80 812 L125 812 C163 812 172 785 172 756 C172 740 169 724 167 711 L45 0 L269 0 L339 382 C351 450 375 582 419 670 C456 745 530 813 606 813 C661 813 686 765 686 722 C686 678 679 646 674 616 L613 269 C604 221 598 175 598 134 C598 37 642 -30 757 -30 C907 -30 977 91 1013 202 L953 202 C930 124 872 45 835 45 C814 45 808 66 808 97 C808 127 818 175 820 186 L884 536 C890 571 894 604 894 635 C894 781 821 878 648 878 C543 878 442 822 398 740 L417 848 Z " />
<glyph glyph-name="o" unicode="o" horiz-adv-x="944" d="M502 878 C187 878 50 598 50 340 C50 152 167 -30 401 -30 C691 -30 844 254 844 485 C844 680 744 878 502 878 L502 878 Z M616 616 C616 519 602 15 388 15 C288 15 277 153 277 223 C277 317 286 832 505 832 C609 832 616 688 616 616 L616 616 Z " />
<glyph glyph-name="p" unicode="p" horiz-adv-x="995" d="M84 848 L78 812 L123 812 C161 812 170 785 170 756 C170 740 167 724 165 711 L-12 -334 C-23 -401 -50 -414 -110 -414 L-132 -414 L-138 -450 L290 -450 L297 -414 L252 -414 C214 -414 205 -387 205 -358 C205 -342 208 -326 210 -313 L286 95 C303 25 367 -30 458 -30 C755 -30 881 266 881 535 C881 700 792 878 616 878 C518 878 437 821 394 740 L415 848 L84 848 Z M671 648 C671 566 655 39 425 39 C336 39 315 155 315 226 C315 291 330 410 360 525 C398 669 469 813 572 813 C656 813 671 709 671 648 L671 648 Z " />
<glyph glyph-name="q" unicode="q" horiz-adv-x="1022" d="M630 611 C630 426 556 33 376 33 C288 33 277 185 277 241 C277 381 312 814 515 814 C608 814 630 678 630 611 L630 611 Z M907 848 L681 848 L663 741 C636 840 548 878 459 878 C184 878 60 592 60 365 C60 185 134 -30 339 -30 C417 -30 503 4 555 93 L488 -334 C477 -401 450 -414 390 -414 L368 -414 L362 -450 L789 -450 L796 -414 L751 -414 C713 -414 704 -387 704 -358 C704 -342 707 -326 709 -313 L907 848 Z " />
<glyph glyph-name="r" unicode="r" horiz-adv-x="773" d="M400 739 L417 848 L90 848 L83 812 L128 812 C166 812 175 785 175 756 C175 740 172 724 170 711 L50 0 L269 0 L355 481 C380 622 438 785 593 785 C697 785 710 677 710 609 L755 609 L788 801 C752 854 689 878 630 878 C534 878 444 819 400 739 L400 739 Z " />
<glyph glyph-name="s" unicode="s" horiz-adv-x="757" d="M33 289 L-5 65 C95 0 192 -31 305 -31 C461 -31 639 43 639 217 C639 333 559 416 475 479 L354 569 C317 596 298 638 298 680 C298 765 370 832 451 832 C564 832 614 729 614 639 C614 630 613 621 612 612 L660 612 L692 794 C610 852 514 879 417 879 C267 879 115 793 115 635 C115 542 164 456 236 404 L355 317 C407 278 435 216 435 158 C435 73 362 14 283 14 C147 14 78 129 78 245 C78 260 79 274 81 289 L33 289 Z " />
<glyph glyph-name="t" unicode="t" horiz-adv-x="605" d="M55 812 L184 812 L95 290 C89 254 79 191 79 164 C79 38 161 -30 273 -30 C424 -30 541 72 597 202 L536 202 C505 119 416 45 356 45 C311 45 294 64 294 111 C294 134 298 162 304 199 L410 812 L619 812 L625 849 L416 849 L469 1151 L243 1151 L191 849 L62 849 L55 812 Z " />
<glyph glyph-name="u" unicode="u" horiz-adv-x="1054" d="M412 848 L82 848 L75 812 L120 812 C158 812 167 785 167 756 C167 740 164 724 162 711 L90 315 C85 289 78 235 78 211 C78 74 151 -30 310 -30 C411 -30 512 16 562 108 C574 23 624 -30 719 -30 C870 -30 948 63 998 202 L938 202 C915 124 849 45 812 45 C782 45 775 78 775 110 C775 130 778 150 780 161 L900 848 L674 848 L588 343 C579 289 562 230 538 178 C503 103 439 35 363 35 C308 35 288 83 288 126 C288 170 296 202 301 232 L412 848 Z " />
<glyph glyph-name="v" unicode="v" horiz-adv-x="923" d="M420 848 L90 848 L83 812 L128 812 C166 812 175 785 175 756 C175 740 172 724 170 711 L86 229 C82 206 80 184 80 164 C80 41 144 -30 286 -30 C396 -30 474 3 558 66 C761 219 848 476 848 700 C848 746 842 794 827 848 L588 848 L584 812 C687 812 762 783 762 616 C762 346 604 170 510 98 C456 57 404 34 364 34 C309 34 298 75 298 118 C298 137 302 166 305 182 L420 848 Z " />
<glyph glyph-name="w" unicode="w" horiz-adv-x="1424" d="M921 848 L591 848 L584 812 L629 812 C667 812 676 785 676 756 C676 740 673 724 671 711 L587 229 C586 225 585 220 585 216 C564 123 444 34 362 34 C307 34 298 75 298 118 C298 137 302 166 305 182 L420 848 L90 848 L83 812 L128 812 C166 812 175 785 175 756 C175 740 172 724 170 711 L86 229 C82 206 80 184 80 164 C80 41 146 -30 288 -30 C413 -30 517 13 588 99 C608 16 672 -30 787 -30 C897 -30 975 3 1059 66 C1262 219 1349 476 1349 700 C1349 746 1343 794 1328 848 L1089 848 L1085 812 C1188 812 1263 783 1263 616 C1263 346 1105 170 1011 98 C957 57 905 34 865 34 C810 34 799 75 799 118 C799 137 803 166 806 182 L921 848 Z " />
<glyph glyph-name="x" unicode="x" horiz-adv-x="823" d="M359 848 L44 848 L40 812 L74 812 C133 812 143 793 156 743 L259 348 L124 153 C61 63 12 35 -55 35 L-84 35 L-90 0 L89 0 L277 276 L316 130 C334 60 360 -30 484 -30 C642 -30 721 67 788 202 L728 202 C709 160 642 51 591 51 C571 51 553 69 542 114 L440 523 L540 669 C602 760 670 813 773 813 L781 848 L590 848 L421 598 L359 848 Z " />
<glyph glyph-name="y" unicode="y" horiz-adv-x="856" d="M-37 -290 L-65 -317 L62 -450 C470 -228 771 272 771 747 C771 781 768 821 762 848 L523 848 L517 813 C654 813 683 723 683 622 C683 458 623 274 530 108 L310 848 L-5 848 L-9 812 L25 812 C84 812 91 793 107 743 L347 0 L463 0 C380 -122 281 -228 179 -300 C141 -327 103 -342 67 -342 C25 -342 -13 -320 -37 -290 L-37 -290 Z " />
<glyph glyph-name="z" unicode="z" horiz-adv-x="726" d="M706 126 C685 122 664 121 644 121 C605 121 575 126 542 138 C443 174 365 202 270 202 C240 202 215 197 188 186 L703 805 L692 848 L108 848 L83 688 L510 688 L72 159 C44 125 -10 73 -10 34 C-10 11 3 0 21 0 C65 0 105 44 202 44 C227 44 255 39 297 27 C374 5 451 -30 532 -30 C632 -30 682 57 706 126 L706 126 Z " />
<glyph glyph-name="braceleft" unicode="&#x7b;" horiz-adv-x="555" d="M57 420 C135 420 175 371 177 285 C177 267 175 244 172 221 L113 -192 C110 -215 108 -240 108 -260 C110 -404 200 -451 306 -451 L366 -451 L377 -382 L320 -382 C245 -382 191 -348 189 -248 C189 -233 190 -216 193 -196 L252 219 C255 244 257 268 257 291 C255 366 230 419 190 451 C257 485 302 581 318 693 L377 1108 C396 1242 477 1296 557 1296 L613 1296 L624 1365 L562 1365 C442 1365 325 1306 297 1110 L238 695 C220 571 160 494 66 494 L57 420 Z " />
<glyph glyph-name="bar" unicode="&#x7c;" horiz-adv-x="470" d="M278 -450 L278 1337 L192 1337 L192 -450 L278 -450 Z " />
<glyph glyph-name="braceright" unicode="&#x7d;" horiz-adv-x="555" d="M468 494 C390 494 350 543 348 629 C348 647 350 670 353 693 L412 1106 C415 1129 417 1154 417 1174 C415 1318 325 1365 219 1365 L159 1365 L148 1296 L205 1296 C280 1296 334 1262 336 1162 C336 1147 335 1130 332 1110 L273 695 C270 670 268 646 268 623 C270 548 295 495 335 463 C268 429 223 333 207 221 L148 -194 C129 -328 48 -382 -32 -382 L-88 -382 L-99 -451 L-37 -451 C83 -451 200 -392 228 -196 L287 219 C305 343 365 420 459 420 L468 494 Z " />
<glyph glyph-name="asciitilde" unicode="&#x7e;" horiz-adv-x="1294" d="M894 102 L219 102 L635 598 L894 102 Z M398 1236 L1074 1236 L658 740 L398 1236 Z M696 669 L1123 1179 L962 158 L696 669 Z M332 1181 L598 669 L170 159 L332 1181 Z M947 0 C998 0 1044 41 1052 91 L1235 1247 C1236 1252 1236 1256 1236 1261 C1236 1304 1204 1338 1158 1338 L346 1338 C295 1338 249 1297 241 1247 L58 91 C57 86 57 82 57 77 C57 34 89 0 135 0 L947 0 Z " />
<glyph glyph-name="exclamdown" unicode="&#xa1;" horiz-adv-x="570" d="M327 951 C307 845 278 753 258 668 C199 419 90 252 90 117 C90 41 147 -20 220 -20 C368 -20 402 126 402 240 C402 323 391 410 391 487 C391 613 397 765 421 951 L327 951 Z M279 1244 C279 1177 336 1121 402 1121 C469 1121 526 1177 526 1244 C526 1311 469 1368 402 1368 C336 1368 279 1311 279 1244 L279 1244 Z " />
<glyph glyph-name="cent" unicode="&#xa2;" horiz-adv-x="832" d="M406 -282 L442 -27 C580 -9 684 79 738 202 L674 202 C627 111 531 24 428 24 C291 24 278 198 278 295 C278 443 301 832 549 832 C661 832 700 732 700 645 C700 633 699 620 698 609 L745 609 L777 799 C718 841 648 866 577 874 L611 1113 L511 1208 L464 875 C182 851 48 625 48 380 C48 183 146 5 329 -26 L293 -282 L406 -282 Z " />
<glyph glyph-name="sterling" unicode="&#xa3;" horiz-adv-x="1088" d="M109 668 L246 668 L170 133 C159 59 112 46 18 45 L10 0 L982 0 L1033 356 L967 356 C926 144 860 65 751 65 L409 65 L494 668 L769 668 L864 785 L511 785 L571 1205 C582 1279 629 1292 723 1293 L731 1338 L201 1338 L195 1293 C276 1293 322 1287 322 1218 C322 1209 318 1168 316 1157 L263 785 L122 785 L109 668 Z " />
<glyph glyph-name="yen" unicode="&#xa5;" horiz-adv-x="1140" d="M182 414 L382 414 L342 133 C332 59 284 46 190 45 L182 0 L712 0 L718 45 C637 45 591 51 591 120 C591 129 593 157 595 168 L629 414 L799 414 L895 531 L659 531 L1124 1293 L1258 1293 L1265 1338 L868 1338 L862 1293 L1035 1293 L619 599 L477 1175 C471 1198 468 1217 468 1232 C468 1286 502 1293 533 1293 L607 1293 L613 1338 L57 1338 L50 1293 L79 1293 C160 1293 200 1261 227 1156 L385 531 L197 531 L182 414 Z " />
<glyph glyph-name="brokenbar" unicode="&#xa6;" horiz-adv-x="478" d="M278 498 L278 1337 L192 1337 L192 498 L278 498 Z M192 389 L192 -450 L278 -450 L278 389 L192 389 Z " />
<glyph glyph-name="section" unicode="&#xa7;" horiz-adv-x="1028" d="M66 406 C66 310 122 226 258 145 L455 27 C530 -17 602 -80 602 -172 C602 -297 485 -389 357 -389 C206 -389 130 -274 130 -122 C130 -99 132 -76 135 -53 L70 -53 L30 -334 C138 -412 256 -450 364 -450 C581 -450 818 -321 818 -102 C818 -14 777 85 687 146 C804 244 946 359 946 511 C946 605 890 690 754 771 L556 889 C479 935 412 995 412 1084 C412 1215 518 1304 657 1304 C820 1304 877 1169 877 1032 C877 1011 876 989 873 969 L938 969 L978 1250 C878 1327 757 1363 643 1363 C427 1363 193 1238 193 1020 C193 933 234 834 323 768 C207 673 66 558 66 406 L66 406 Z M383 733 L658 562 C715 526 738 471 738 412 C738 326 691 232 636 179 L356 352 C299 387 277 441 277 499 C277 585 327 680 383 733 L383 733 Z " />
<glyph glyph-name="dieresis" unicode="&#xa8;" horiz-adv-x="681" d="M297 1201 C297 1259 254 1302 198 1302 C122 1302 60 1231 60 1162 C60 1105 101 1061 159 1061 C234 1061 297 1133 297 1201 L297 1201 Z M621 1201 C621 1258 579 1302 523 1302 C448 1302 384 1232 384 1163 C384 1106 426 1061 484 1061 C559 1061 621 1133 621 1201 L621 1201 Z " />
<glyph glyph-name="copyright" unicode="&#xa9;" horiz-adv-x="1618" d="M782 196 C881 196 949 220 1040 277 L1068 483 L1015 483 C981 369 933 247 791 247 C632 247 609 428 609 539 C609 730 658 1092 929 1092 C1055 1092 1068 981 1068 887 L1068 855 L1121 855 L1150 1062 C1073 1113 1017 1142 915 1142 C570 1142 409 894 409 605 C409 393 527 196 777 196 L782 196 Z M120 669 C120 289 429 -20 809 -20 C1189 -20 1498 289 1498 669 C1498 1049 1189 1358 809 1358 C429 1358 120 1049 120 669 L120 669 Z M196 669 C196 1006 471 1281 809 1281 C1146 1281 1421 1006 1421 669 C1421 331 1146 56 809 56 C471 56 196 331 196 669 L196 669 Z " />
<glyph glyph-name="ordfeminine" unicode="&#xaa;" horiz-adv-x="750" d="M490 1164 C490 1033 433 756 297 756 C230 756 223 863 223 903 C223 1002 249 1307 402 1307 C473 1307 490 1211 490 1164 L490 1164 Z M701 1337 L528 1337 L514 1260 C494 1332 428 1359 360 1359 C152 1359 58 1153 58 990 C58 860 115 705 269 705 C329 705 395 730 434 797 C449 734 501 705 562 705 C676 706 735 772 773 872 L727 872 C710 816 660 759 632 759 C611 759 605 779 605 800 C605 817 609 840 611 848 L701 1337 Z " />
<glyph glyph-name="guillemotleft" unicode="&#xab;" horiz-adv-x="782" d="M364 92 L142 452 L447 761 L386 822 L30 462 L287 44 L364 92 Z M607 92 L386 436 L712 761 L651 822 L274 446 L530 44 L607 92 Z " />
<glyph glyph-name="logicalnot" unicode="&#xac;" horiz-adv-x="1074" d="M112 665 L917 665 L877 415 L969 415 L1008 667 C1009 675 1010 683 1010 691 C1010 737 983 752 935 752 L126 752 L112 665 Z " />
<glyph glyph-name="registered" unicode="&#xae;" horiz-adv-x="1618" d="M737 676 L769 676 L954 250 L1192 250 L1199 289 L1125 289 L930 697 C1070 744 1149 825 1149 935 C1149 1040 1074 1135 875 1135 L536 1135 L531 1097 C586 1097 615 1093 615 1052 C615 1046 612 1020 611 1013 L516 344 C509 297 478 289 416 289 L410 250 L800 250 L806 289 L764 289 C716 289 689 293 689 334 C689 340 690 356 691 363 L737 676 Z M826 1091 C957 1091 975 1014 975 938 C975 837 896 724 770 724 L743 724 L795 1091 L826 1091 Z M120 669 C120 289 429 -20 809 -20 C1189 -20 1498 289 1498 669 C1498 1049 1189 1358 809 1358 C429 1358 120 1049 120 669 L120 669 Z M196 669 C196 1006 471 1281 809 1281 C1146 1281 1421 1006 1421 669 C1421 331 1146 56 809 56 C471 56 196 331 196 669 L196 669 Z " />
<glyph glyph-name="macron" unicode="&#xaf;" horiz-adv-x="606" d="M60 1118 L526 1118 L546 1246 L80 1246 L60 1118 Z " />
<glyph glyph-name="degree" unicode="&#xb0;" horiz-adv-x="707" d="M80 1090 C80 938 202 816 354 816 C505 816 627 938 627 1090 C627 1241 505 1363 354 1363 C202 1363 80 1241 80 1090 L80 1090 Z M160 1090 C160 1198 245 1283 354 1283 C462 1283 547 1198 547 1090 C547 981 462 896 354 896 C245 896 160 981 160 1090 L160 1090 Z " />
<glyph glyph-name="plusminus" unicode="&#xb1;" horiz-adv-x="1042" d="M128 605 L496 605 L437 236 L526 236 L585 603 L953 603 L967 690 L599 690 L660 1060 L571 1060 L510 691 L142 691 L128 605 Z M43 66 L868 66 L881 151 L56 151 L43 66 Z " />
<glyph glyph-name="twosuperior" unicode="&#xb2;" horiz-adv-x="586" d="M473 823 L448 697 L177 697 C219 745 279 795 336 842 C401 896 456 945 498 1015 C522 1056 537 1101 537 1160 C537 1282 430 1351 310 1351 C232 1351 163 1324 95 1285 L69 1118 L123 1118 C135 1199 178 1309 280 1309 C354 1309 383 1228 383 1163 C383 1123 374 1083 362 1048 C338 978 292 925 235 875 C175 821 77 722 36 675 L15 603 L506 603 L527 823 L473 823 Z " />
<glyph glyph-name="threesuperior" unicode="&#xb3;" horiz-adv-x="575" d="M248 589 C387 589 517 669 517 809 C517 918 442 981 351 999 C444 1024 534 1079 534 1188 C534 1300 430 1351 321 1351 C242 1351 176 1325 109 1290 L86 1124 L139 1124 C149 1221 199 1306 284 1306 C349 1306 387 1243 387 1186 C387 1106 328 1038 253 1026 C242 1024 231 1024 177 1024 L171 980 C177 980 198 979 208 978 C301 971 358 891 358 806 C358 728 309 632 224 632 C136 632 103 710 103 793 C103 808 104 819 104 823 L51 823 L28 657 C100 607 174 589 248 589 L248 589 Z " />
<glyph glyph-name="acute" unicode="&#xb4;" horiz-adv-x="523" d="M189 996 L463 1170 L463 1397 L60 996 L189 996 Z " />
<glyph glyph-name="mu" unicode="&#xb5;" horiz-adv-x="990" d="M-7 -350 L310 -350 L317 -314 L272 -314 C234 -314 225 -287 225 -258 C225 -242 228 -226 230 -213 L277 43 C299 -4 345 -20 391 -20 C473 -20 540 38 575 104 C590 20 637 -30 732 -30 C883 -30 961 63 1011 202 L951 202 C928 124 862 45 825 45 C795 45 788 78 788 110 C788 130 791 150 793 161 L913 848 L687 848 L601 343 C584 243 516 37 393 37 C322 37 309 114 309 167 C309 195 314 234 317 251 L420 848 L95 848 L88 812 L133 812 C171 812 180 785 180 756 C180 740 177 724 175 711 L-7 -350 Z " />
<glyph glyph-name="paragraph" unicode="&#xb6;" horiz-adv-x="1250" d="M1290 1338 L771 1338 C452 1338 141 1222 141 861 C141 604 349 448 585 448 L619 448 L557 6 C535 -148 455 -375 283 -375 C144 -375 107 -223 107 -111 C107 -80 109 -49 113 -22 L45 -22 L0 -340 C110 -411 223 -450 348 -450 C727 -450 887 -206 940 168 L1081 1166 C1095 1267 1141 1280 1282 1280 L1290 1338 Z M431 -386 C581 -317 652 -120 672 21 L814 1029 C826 1118 846 1236 894 1280 L1001 1280 C964 1238 947 1157 932 1054 L827 309 C779 -36 719 -210 614 -300 C561 -346 492 -380 431 -390 L431 -386 Z " />
<glyph glyph-name="periodcentered" unicode="&#xb7;" horiz-adv-x="445" d="M333 479 C333 550 273 609 204 609 C133 609 74 550 74 479 C74 409 133 348 204 348 C273 348 333 409 333 479 L333 479 Z " />
<glyph glyph-name="cedilla" unicode="&#xb8;" horiz-adv-x="477" d="M288 0 L135 -140 L172 -187 C191 -173 215 -164 237 -164 C277 -164 290 -205 290 -236 C290 -288 258 -359 201 -359 C168 -359 135 -335 105 -311 L60 -366 C101 -401 146 -423 199 -423 C314 -423 417 -335 417 -225 C417 -129 334 -101 293 -101 C290 -101 277 -101 268 -103 L385 0 L288 0 Z " />
<glyph glyph-name="onesuperior" unicode="&#xb9;" horiz-adv-x="420" d="M10 603 L351 603 L357 638 L301 638 C279 638 274 653 274 669 C274 676 276 689 277 696 L366 1346 C366 1346 175 1324 81 1319 L76 1280 L172 1280 C190 1280 193 1270 193 1258 C193 1253 191 1233 190 1229 L113 680 C108 644 94 638 65 638 L16 638 L10 603 Z " />
<glyph glyph-name="ordmasculine" unicode="&#xba;" horiz-adv-x="628" d="M383 1361 C145 1361 41 1159 41 974 C41 838 129 707 306 707 C526 707 641 912 641 1078 C641 1218 566 1361 383 1361 L383 1361 Z M469 1169 C469 1101 459 746 297 746 C221 746 213 843 213 892 C213 959 219 1322 385 1322 C464 1322 469 1220 469 1169 L469 1169 Z " />
<glyph glyph-name="guillemotright" unicode="&#xbb;" horiz-adv-x="782" d="M378 765 L600 405 L295 96 L356 35 L712 395 L455 813 L378 765 Z M135 765 L356 421 L30 96 L91 35 L468 411 L212 813 L135 765 Z " />
<glyph glyph-name="onequarter" unicode="&#xbc;" horiz-adv-x="1213" d="M78 603 L419 603 L425 638 L369 638 C347 638 342 653 342 669 C342 676 344 689 345 696 L434 1346 C434 1346 243 1324 149 1319 L144 1280 L240 1280 C258 1280 261 1270 261 1258 C261 1253 259 1233 258 1229 L181 680 C176 644 162 638 133 638 L84 638 L78 603 Z M116 0 L1213 1338 L1127 1338 L30 0 L116 0 Z M766 0 L1102 0 L1107 35 L1078 35 C1038 35 1024 50 1024 78 C1024 83 1025 95 1026 101 L1089 534 L928 509 C919 441 908 371 899 303 L681 303 L1004 735 L924 735 L569 261 L562 210 L858 210 C878 210 883 198 883 184 C883 180 881 169 881 166 L868 79 C863 43 842 36 799 35 L771 35 L766 0 Z " />
<glyph glyph-name="onehalf" unicode="&#xbd;" horiz-adv-x="1285" d="M116 0 L1213 1338 L1127 1338 L30 0 L116 0 Z M78 603 L419 603 L425 638 L369 638 C347 638 342 653 342 669 C342 676 344 689 345 696 L434 1346 C434 1346 243 1324 149 1319 L144 1280 L240 1280 C258 1280 261 1270 261 1258 C261 1253 259 1233 258 1229 L181 680 C176 644 162 638 133 638 L84 638 L78 603 Z M1215 220 L1194 0 L703 0 L724 72 C765 119 863 218 923 272 C980 322 1026 375 1050 445 C1062 480 1071 520 1071 560 C1071 625 1042 706 968 706 C866 706 823 596 811 515 L757 515 L783 682 C851 721 920 748 998 748 C1118 748 1225 679 1225 557 C1225 498 1210 453 1186 412 C1144 342 1089 293 1024 239 C967 192 907 142 865 94 L1136 94 L1161 220 L1215 220 Z " />
<glyph glyph-name="threequarters" unicode="&#xbe;" horiz-adv-x="1277" d="M180 0 L1277 1338 L1191 1338 L94 0 L180 0 Z M290 589 C429 589 559 669 559 809 C559 918 484 981 393 999 C486 1024 576 1079 576 1188 C576 1300 472 1351 363 1351 C284 1351 218 1325 151 1290 L128 1124 L181 1124 C191 1221 241 1306 326 1306 C391 1306 429 1243 429 1186 C429 1106 370 1038 295 1026 C284 1024 273 1024 219 1024 L213 980 C219 980 240 979 250 978 C343 971 400 891 400 806 C400 728 351 632 266 632 C178 632 145 710 145 793 C145 808 146 819 146 823 L93 823 L70 657 C142 607 216 589 290 589 L290 589 Z M838 0 L1174 0 L1179 35 L1150 35 C1110 35 1096 50 1096 78 C1096 83 1097 95 1098 101 L1161 534 L1000 509 C991 441 980 371 971 303 L753 303 L1076 735 L996 735 L641 261 L634 210 L930 210 C950 210 955 198 955 184 C955 180 953 169 953 166 L940 79 C935 43 914 36 871 35 L843 35 L838 0 Z " />
<glyph glyph-name="questiondown" unicode="&#xbf;" horiz-adv-x="827" d="M650 948 L556 948 C540 821 466 780 393 719 L221 574 C113 483 50 365 50 230 C50 63 188 -29 340 -29 C474 -29 593 26 697 96 L744 391 L678 391 C645 222 560 29 368 29 C276 29 205 97 205 186 C205 256 244 309 294 350 L473 500 C569 580 610 695 629 817 L650 948 Z M500 1241 C500 1174 557 1118 623 1118 C690 1118 747 1174 747 1241 C747 1308 690 1365 623 1365 C557 1365 500 1308 500 1241 L500 1241 Z " />
<glyph glyph-name="Agrave" unicode="&#xc0;" horiz-adv-x="1204" d="M742 170 C744 158 748 130 748 120 C748 57 711 45 671 45 L602 45 L595 0 L1163 0 L1169 45 L1113 45 C1063 45 1014 76 997 186 L817 1338 L633 1338 L119 170 C74 67 -5 45 -39 45 L-78 45 L-85 0 L280 0 L287 45 L222 45 C188 45 163 64 163 100 C163 114 167 131 176 151 L302 435 L702 435 L742 170 Z M601 1117 L694 491 L327 491 L601 1117 Z M823 1425 L420 1805 L420 1578 L694 1425 L823 1425 Z " />
<glyph glyph-name="Aacute" unicode="&#xc1;" horiz-adv-x="1204" d="M742 170 C744 158 748 130 748 120 C748 57 711 45 671 45 L602 45 L595 0 L1163 0 L1169 45 L1113 45 C1063 45 1014 76 997 186 L817 1338 L633 1338 L119 170 C74 67 -5 45 -39 45 L-78 45 L-85 0 L280 0 L287 45 L222 45 C188 45 163 64 163 100 C163 114 167 131 176 151 L302 435 L702 435 L742 170 Z M601 1117 L694 491 L327 491 L601 1117 Z M754 1425 L1028 1578 L1028 1805 L625 1425 L754 1425 Z " />
<glyph glyph-name="Acircumflex" unicode="&#xc2;" horiz-adv-x="1204" d="M742 170 C744 158 748 130 748 120 C748 57 711 45 671 45 L602 45 L595 0 L1163 0 L1169 45 L1113 45 C1063 45 1014 76 997 186 L817 1338 L633 1338 L119 170 C74 67 -5 45 -39 45 L-78 45 L-85 0 L280 0 L287 45 L222 45 C188 45 163 64 163 100 C163 114 167 131 176 151 L302 435 L702 435 L742 170 Z M601 1117 L694 491 L327 491 L601 1117 Z M755 1584 L922 1425 L1051 1425 L827 1747 L735 1747 L410 1425 L538 1425 L755 1584 Z " />
<glyph glyph-name="Atilde" unicode="&#xc3;" horiz-adv-x="1204" d="M742 170 C744 158 748 130 748 120 C748 57 711 45 671 45 L602 45 L595 0 L1163 0 L1169 45 L1113 45 C1063 45 1014 76 997 186 L817 1338 L633 1338 L119 170 C74 67 -5 45 -39 45 L-78 45 L-85 0 L280 0 L287 45 L222 45 C188 45 163 64 163 100 C163 114 167 131 176 151 L302 435 L702 435 L742 170 Z M601 1117 L694 491 L327 491 L601 1117 Z M982 1718 C948 1656 892 1610 852 1610 C766 1610 721 1722 606 1722 C508 1722 430 1638 375 1554 L434 1464 C466 1529 521 1577 564 1577 C652 1577 695 1466 809 1466 C902 1466 978 1542 1032 1618 L982 1718 Z " />
<glyph glyph-name="Adieresis" unicode="&#xc4;" horiz-adv-x="1204" d="M742 170 C744 158 748 130 748 120 C748 57 711 45 671 45 L602 45 L595 0 L1163 0 L1169 45 L1113 45 C1063 45 1014 76 997 186 L817 1338 L633 1338 L119 170 C74 67 -5 45 -39 45 L-78 45 L-85 0 L280 0 L287 45 L222 45 C188 45 163 64 163 100 C163 114 167 131 176 151 L302 435 L702 435 L742 170 Z M601 1117 L694 491 L327 491 L601 1117 Z M1041 1624 C1038 1688 994 1732 938 1732 C865 1732 806 1665 806 1598 C806 1536 854 1491 912 1491 C985 1491 1041 1558 1041 1624 L1041 1624 Z M677 1624 C674 1689 629 1732 573 1732 C499 1732 443 1666 443 1599 C443 1535 489 1491 547 1491 C620 1491 677 1558 677 1624 L677 1624 Z " />
<glyph glyph-name="Aring" unicode="&#xc5;" horiz-adv-x="1204" d="M742 170 C744 158 748 130 748 120 C748 57 711 45 671 45 L602 45 L595 0 L1163 0 L1169 45 L1113 45 C1063 45 1014 76 997 186 L817 1338 L633 1338 L119 170 C74 67 -5 45 -39 45 L-78 45 L-85 0 L280 0 L287 45 L222 45 C188 45 163 64 163 100 C163 114 167 131 176 151 L302 435 L702 435 L742 170 Z M724 1425 C842 1425 936 1510 936 1626 C936 1729 843 1805 751 1805 C635 1805 540 1718 540 1602 C540 1499 633 1425 724 1425 L724 1425 Z M601 1117 L694 491 L327 491 L601 1117 Z M756 1756 C812 1756 815 1698 815 1658 C815 1586 797 1474 721 1474 C666 1474 662 1531 662 1571 C662 1643 681 1756 756 1756 L756 1756 Z " />
<glyph glyph-name="AE" unicode="&#xc6;" horiz-adv-x="1665" d="M1470 0 L1556 332 L1489 332 C1432 128 1385 55 1276 55 L958 55 L1046 678 L1151 678 C1229 678 1255 658 1255 587 C1255 562 1251 531 1246 492 L1310 492 L1370 920 L1305 920 C1284 771 1263 734 1158 734 L1054 734 L1131 1283 L1402 1283 C1553 1283 1568 1238 1568 1098 L1633 1098 L1633 1338 L753 1338 L747 1293 L772 1293 C826 1293 853 1280 853 1254 C853 1242 847 1226 835 1208 L133 170 C70 77 -5 45 -39 45 L-78 45 L-85 0 L290 0 L297 45 L232 45 C190 45 175 63 175 86 C175 107 186 131 200 151 L395 435 L765 435 L722 133 C711 59 664 46 570 45 L562 0 L1470 0 Z M867 1140 L773 491 L434 491 L867 1140 Z " />
<glyph glyph-name="Ccedilla" unicode="&#xc7;" horiz-adv-x="1196" d="M1003 92 L1044 386 L979 386 C929 217 837 37 633 37 C404 37 368 308 368 476 C368 761 440 1303 829 1303 C1013 1303 1060 1134 1060 992 C1060 978 1060 965 1059 952 L1124 952 L1166 1248 C1056 1321 949 1363 808 1363 C326 1363 100 998 100 575 C100 277 243 -1 577 -23 L439 -150 L479 -200 C500 -185 523 -175 547 -175 C591 -175 605 -218 605 -253 C605 -308 571 -384 510 -384 C475 -384 439 -358 407 -333 L359 -392 C403 -429 451 -453 508 -453 C631 -453 741 -358 741 -241 C741 -138 652 -108 609 -108 C605 -108 591 -108 582 -110 L681 -22 C793 -13 892 24 1003 92 L1003 92 Z " />
<glyph glyph-name="Egrave" unicode="&#xc8;" horiz-adv-x="1128" d="M933 0 L1019 332 L952 332 C895 128 848 55 739 55 L401 55 L489 678 L604 678 C682 678 708 658 708 587 C708 562 704 531 699 492 L763 492 L823 920 L758 920 C737 771 716 734 611 734 L497 734 L574 1283 L865 1283 C1016 1283 1031 1238 1031 1098 L1096 1098 L1096 1338 L196 1338 L190 1293 C271 1293 317 1287 317 1218 C317 1209 313 1168 311 1157 L165 133 C154 59 107 46 13 45 L5 0 L933 0 Z M904 1425 L501 1805 L501 1578 L775 1425 L904 1425 Z " />
<glyph glyph-name="Eacute" unicode="&#xc9;" horiz-adv-x="1128" d="M933 0 L1019 332 L952 332 C895 128 848 55 739 55 L401 55 L489 678 L604 678 C682 678 708 658 708 587 C708 562 704 531 699 492 L763 492 L823 920 L758 920 C737 771 716 734 611 734 L497 734 L574 1283 L865 1283 C1016 1283 1031 1238 1031 1098 L1096 1098 L1096 1338 L196 1338 L190 1293 C271 1293 317 1287 317 1218 C317 1209 313 1168 311 1157 L165 133 C154 59 107 46 13 45 L5 0 L933 0 Z M639 1425 L913 1578 L913 1805 L510 1425 L639 1425 Z " />
<glyph glyph-name="Ecircumflex" unicode="&#xca;" horiz-adv-x="1128" d="M933 0 L1019 332 L952 332 C895 128 848 55 739 55 L401 55 L489 678 L604 678 C682 678 708 658 708 587 C708 562 704 531 699 492 L763 492 L823 920 L758 920 C737 771 716 734 611 734 L497 734 L574 1283 L865 1283 C1016 1283 1031 1238 1031 1098 L1096 1098 L1096 1338 L196 1338 L190 1293 C271 1293 317 1287 317 1218 C317 1209 313 1168 311 1157 L165 133 C154 59 107 46 13 45 L5 0 L933 0 Z M718 1584 L885 1425 L1014 1425 L790 1747 L698 1747 L373 1425 L501 1425 L718 1584 Z " />
<glyph glyph-name="Edieresis" unicode="&#xcb;" horiz-adv-x="1128" d="M933 0 L1019 332 L952 332 C895 128 848 55 739 55 L401 55 L489 678 L604 678 C682 678 708 658 708 587 C708 562 704 531 699 492 L763 492 L823 920 L758 920 C737 771 716 734 611 734 L497 734 L574 1283 L865 1283 C1016 1283 1031 1238 1031 1098 L1096 1098 L1096 1338 L196 1338 L190 1293 C271 1293 317 1287 317 1218 C317 1209 313 1168 311 1157 L165 133 C154 59 107 46 13 45 L5 0 L933 0 Z M633 1624 C630 1689 585 1732 529 1732 C455 1732 399 1666 399 1599 C399 1535 445 1491 503 1491 C576 1491 633 1558 633 1624 L633 1624 Z M997 1624 C994 1688 950 1732 894 1732 C821 1732 762 1665 762 1598 C762 1536 810 1491 868 1491 C941 1491 997 1558 997 1624 L997 1624 Z " />
<glyph glyph-name="Igrave" unicode="&#xcc;" horiz-adv-x="696" d="M726 1338 L196 1338 L190 1293 C271 1293 317 1287 317 1218 C317 1209 313 1168 311 1157 L165 133 C154 59 107 46 13 45 L5 0 L535 0 L541 45 C460 45 414 51 414 120 C414 129 416 157 418 168 L566 1205 C577 1279 624 1292 718 1293 L726 1338 Z M645 1425 L242 1805 L242 1578 L516 1425 L645 1425 Z " />
<glyph glyph-name="Iacute" unicode="&#xcd;" horiz-adv-x="696" d="M726 1338 L196 1338 L190 1293 C271 1293 317 1287 317 1218 C317 1209 313 1168 311 1157 L165 133 C154 59 107 46 13 45 L5 0 L535 0 L541 45 C460 45 414 51 414 120 C414 129 416 157 418 168 L566 1205 C577 1279 624 1292 718 1293 L726 1338 Z M431 1425 L705 1578 L705 1805 L302 1425 L431 1425 Z " />
<glyph glyph-name="Icircumflex" unicode="&#xce;" horiz-adv-x="696" d="M726 1338 L196 1338 L190 1293 C271 1293 317 1287 317 1218 C317 1209 313 1168 311 1157 L165 133 C154 59 107 46 13 45 L5 0 L535 0 L541 45 C460 45 414 51 414 120 C414 129 416 157 418 168 L566 1205 C577 1279 624 1292 718 1293 L726 1338 Z M493 1584 L660 1425 L789 1425 L565 1747 L473 1747 L148 1425 L276 1425 L493 1584 Z " />
<glyph glyph-name="Idieresis" unicode="&#xcf;" horiz-adv-x="696" d="M726 1338 L196 1338 L190 1293 C271 1293 317 1287 317 1218 C317 1209 313 1168 311 1157 L165 133 C154 59 107 46 13 45 L5 0 L535 0 L541 45 C460 45 414 51 414 120 C414 129 416 157 418 168 L566 1205 C577 1279 624 1292 718 1293 L726 1338 Z M410 1624 C407 1689 362 1732 306 1732 C232 1732 176 1666 176 1599 C176 1535 222 1491 280 1491 C353 1491 410 1558 410 1624 L410 1624 Z M774 1624 C771 1688 727 1732 671 1732 C598 1732 539 1665 539 1598 C539 1536 587 1491 645 1491 C718 1491 774 1558 774 1624 L774 1624 Z " />
<glyph glyph-name="Eth" unicode="&#xd0;" horiz-adv-x="1294" d="M894 102 L219 102 L635 598 L894 102 Z M398 1236 L1074 1236 L658 740 L398 1236 Z M696 669 L1123 1179 L962 158 L696 669 Z M332 1181 L598 669 L170 159 L332 1181 Z M947 0 C998 0 1044 41 1052 91 L1235 1247 C1236 1252 1236 1256 1236 1261 C1236 1304 1204 1338 1158 1338 L346 1338 C295 1338 249 1297 241 1247 L58 91 C57 86 57 82 57 77 C57 34 89 0 135 0 L947 0 Z " />
<glyph glyph-name="Ntilde" unicode="&#xd1;" horiz-adv-x="1340" d="M964 1293 L1008 1293 C1087 1293 1132 1286 1132 1218 C1132 1209 1130 1181 1128 1170 L999 256 L552 1338 L196 1338 L190 1293 C271 1293 317 1287 317 1218 C317 1209 313 1168 311 1157 L165 133 C154 59 107 46 13 45 L5 0 L406 0 L412 45 L368 45 C288 45 243 51 243 120 C243 129 245 157 247 168 L376 1082 L828 0 L1037 0 L1210 1205 C1221 1279 1268 1292 1362 1293 L1370 1338 L970 1338 L964 1293 Z M1112 1718 C1078 1656 1022 1610 982 1610 C896 1610 851 1722 736 1722 C638 1722 560 1638 505 1554 L564 1464 C596 1529 651 1577 694 1577 C782 1577 825 1466 939 1466 C1032 1466 1108 1542 1162 1618 L1112 1718 Z " />
<glyph glyph-name="Ograve" unicode="&#xd2;" horiz-adv-x="1328" d="M1236 785 C1231 1095 1091 1363 753 1363 C364 1363 95 1028 95 560 C95 227 256 -25 580 -25 C969 -25 1236 286 1236 785 L1236 785 Z M941 636 C911 338 844 36 568 36 C400 36 359 189 359 317 C359 438 375 565 393 702 C430 995 491 1302 765 1302 C925 1302 970 1162 970 1002 C970 864 951 750 941 636 L941 636 Z M923 1425 L520 1805 L520 1578 L794 1425 L923 1425 Z " />
<glyph glyph-name="Oacute" unicode="&#xd3;" horiz-adv-x="1328" d="M1236 785 C1231 1095 1091 1363 753 1363 C364 1363 95 1028 95 560 C95 227 256 -25 580 -25 C969 -25 1236 286 1236 785 L1236 785 Z M941 636 C911 338 844 36 568 36 C400 36 359 189 359 317 C359 438 375 565 393 702 C430 995 491 1302 765 1302 C925 1302 970 1162 970 1002 C970 864 951 750 941 636 L941 636 Z M793 1425 L1067 1578 L1067 1805 L664 1425 L793 1425 Z " />
<glyph glyph-name="Ocircumflex" unicode="&#xd4;" horiz-adv-x="1328" d="M1236 785 C1231 1095 1091 1363 753 1363 C364 1363 95 1028 95 560 C95 227 256 -25 580 -25 C969 -25 1236 286 1236 785 L1236 785 Z M941 636 C911 338 844 36 568 36 C400 36 359 189 359 317 C359 438 375 565 393 702 C430 995 491 1302 765 1302 C925 1302 970 1162 970 1002 C970 864 951 750 941 636 L941 636 Z M780 1584 L947 1425 L1076 1425 L852 1747 L760 1747 L435 1425 L563 1425 L780 1584 Z " />
<glyph glyph-name="Otilde" unicode="&#xd5;" horiz-adv-x="1328" d="M1236 785 C1231 1095 1091 1363 753 1363 C364 1363 95 1028 95 560 C95 227 256 -25 580 -25 C969 -25 1236 286 1236 785 L1236 785 Z M941 636 C911 338 844 36 568 36 C400 36 359 189 359 317 C359 438 375 565 393 702 C430 995 491 1302 765 1302 C925 1302 970 1162 970 1002 C970 864 951 750 941 636 L941 636 Z M1076 1718 C1042 1656 986 1610 946 1610 C860 1610 815 1722 700 1722 C602 1722 524 1638 469 1554 L528 1464 C560 1529 615 1577 658 1577 C746 1577 789 1466 903 1466 C996 1466 1072 1542 1126 1618 L1076 1718 Z " />
<glyph glyph-name="Odieresis" unicode="&#xd6;" horiz-adv-x="1328" d="M1236 785 C1231 1095 1091 1363 753 1363 C364 1363 95 1028 95 560 C95 227 256 -25 580 -25 C969 -25 1236 286 1236 785 L1236 785 Z M941 636 C911 338 844 36 568 36 C400 36 359 189 359 317 C359 438 375 565 393 702 C430 995 491 1302 765 1302 C925 1302 970 1162 970 1002 C970 864 951 750 941 636 L941 636 Z M744 1624 C741 1689 696 1732 640 1732 C566 1732 510 1666 510 1599 C510 1535 556 1491 614 1491 C687 1491 744 1558 744 1624 L744 1624 Z M1108 1624 C1105 1688 1061 1732 1005 1732 C932 1732 873 1665 873 1598 C873 1536 921 1491 979 1491 C1052 1491 1108 1558 1108 1624 L1108 1624 Z " />
<glyph glyph-name="multiply" unicode="&#xd7;" horiz-adv-x="873" d="M133 757 C213 661 298 559 379 463 L34 165 L92 99 L435 395 L682 101 L750 159 L505 452 L850 750 L792 817 L449 521 L202 816 L133 757 Z " />
<glyph glyph-name="Oslash" unicode="&#xd8;" horiz-adv-x="1328" d="M98 -36 L236 118 C316 28 431 -25 580 -25 C969 -25 1236 286 1236 785 C1234 915 1207 1038 1153 1137 L1235 1228 L1235 1363 L1101 1214 C1023 1306 909 1363 753 1363 C364 1363 95 1028 95 560 C95 419 124 292 182 193 L97 99 L98 -36 Z M393 702 C430 995 491 1302 765 1302 C903 1302 956 1197 967 1066 L361 392 C366 490 378 593 393 702 L393 702 Z M941 636 C911 338 844 36 568 36 C425 36 374 146 362 257 L968 932 C963 824 949 730 941 636 L941 636 Z " />
<glyph glyph-name="Ugrave" unicode="&#xd9;" horiz-adv-x="1327" d="M724 1338 L194 1338 L188 1293 C269 1293 315 1287 315 1218 C315 1209 311 1168 309 1157 L211 462 C205 420 202 379 202 341 C202 120 312 -19 633 -25 C883 -30 1057 143 1097 432 L1205 1205 C1215 1279 1263 1292 1357 1293 L1365 1338 L965 1338 L959 1293 L1003 1293 C1082 1293 1127 1286 1127 1218 C1127 1209 1125 1181 1123 1170 L1026 487 C992 249 878 45 654 45 C490 45 449 186 449 320 C449 365 453 409 458 446 L564 1205 C574 1279 622 1292 716 1293 L724 1338 Z M993 1425 L590 1805 L590 1578 L864 1425 L993 1425 Z " />
<glyph glyph-name="Uacute" unicode="&#xda;" horiz-adv-x="1327" d="M724 1338 L194 1338 L188 1293 C269 1293 315 1287 315 1218 C315 1209 311 1168 309 1157 L211 462 C205 420 202 379 202 341 C202 120 312 -19 633 -25 C883 -30 1057 143 1097 432 L1205 1205 C1215 1279 1263 1292 1357 1293 L1365 1338 L965 1338 L959 1293 L1003 1293 C1082 1293 1127 1286 1127 1218 C1127 1209 1125 1181 1123 1170 L1026 487 C992 249 878 45 654 45 C490 45 449 186 449 320 C449 365 453 409 458 446 L564 1205 C574 1279 622 1292 716 1293 L724 1338 Z M770 1425 L1044 1578 L1044 1805 L641 1425 L770 1425 Z " />
<glyph glyph-name="Ucircumflex" unicode="&#xdb;" horiz-adv-x="1327" d="M724 1338 L194 1338 L188 1293 C269 1293 315 1287 315 1218 C315 1209 311 1168 309 1157 L211 462 C205 420 202 379 202 341 C202 120 312 -19 633 -25 C883 -30 1057 143 1097 432 L1205 1205 C1215 1279 1263 1292 1357 1293 L1365 1338 L965 1338 L959 1293 L1003 1293 C1082 1293 1127 1286 1127 1218 C1127 1209 1125 1181 1123 1170 L1026 487 C992 249 878 45 654 45 C490 45 449 186 449 320 C449 365 453 409 458 446 L564 1205 C574 1279 622 1292 716 1293 L724 1338 Z M855 1584 L1022 1425 L1151 1425 L927 1747 L835 1747 L510 1425 L638 1425 L855 1584 Z " />
<glyph glyph-name="Udieresis" unicode="&#xdc;" horiz-adv-x="1327" d="M724 1338 L194 1338 L188 1293 C269 1293 315 1287 315 1218 C315 1209 311 1168 309 1157 L211 462 C205 420 202 379 202 341 C202 120 312 -19 633 -25 C883 -30 1057 143 1097 432 L1205 1205 C1215 1279 1263 1292 1357 1293 L1365 1338 L965 1338 L959 1293 L1003 1293 C1082 1293 1127 1286 1127 1218 C1127 1209 1125 1181 1123 1170 L1026 487 C992 249 878 45 654 45 C490 45 449 186 449 320 C449 365 453 409 458 446 L564 1205 C574 1279 622 1292 716 1293 L724 1338 Z M785 1624 C782 1689 737 1732 681 1732 C607 1732 551 1666 551 1599 C551 1535 597 1491 655 1491 C728 1491 785 1558 785 1624 L785 1624 Z M1149 1624 C1146 1688 1102 1732 1046 1732 C973 1732 914 1665 914 1598 C914 1536 962 1491 1020 1491 C1093 1491 1149 1558 1149 1624 L1149 1624 Z " />
<glyph glyph-name="Yacute" unicode="&#xdd;" horiz-adv-x="1180" d="M1164 1293 L1298 1293 L1305 1338 L908 1338 L902 1293 L1075 1293 L659 599 L517 1175 C511 1198 508 1217 508 1232 C508 1286 542 1293 573 1293 L647 1293 L653 1338 L97 1338 L90 1293 L119 1293 C200 1293 240 1261 267 1156 L433 497 L382 133 C372 59 324 46 230 45 L222 0 L752 0 L758 45 C677 45 631 51 631 120 C631 129 633 157 635 168 L682 502 L1164 1293 Z M702 1425 L976 1578 L976 1805 L573 1425 L702 1425 Z " />
<glyph glyph-name="Thorn" unicode="&#xde;" horiz-adv-x="1294" d="M894 102 L219 102 L635 598 L894 102 Z M398 1236 L1074 1236 L658 740 L398 1236 Z M696 669 L1123 1179 L962 158 L696 669 Z M332 1181 L598 669 L170 159 L332 1181 Z M947 0 C998 0 1044 41 1052 91 L1235 1247 C1236 1252 1236 1256 1236 1261 C1236 1304 1204 1338 1158 1338 L346 1338 C295 1338 249 1297 241 1247 L58 91 C57 86 57 82 57 77 C57 34 89 0 135 0 L947 0 Z " />
<glyph glyph-name="germandbls" unicode="&#xdf;" horiz-adv-x="1032" d="M433 295 L394 65 C476 7 553 -30 650 -30 C819 -30 977 71 977 247 C977 362 899 445 811 503 L689 584 C606 638 574 669 574 719 C574 755 594 784 624 812 C648 835 679 857 710 879 C801 946 881 1019 881 1149 C881 1294 735 1360 612 1360 C369 1360 249 1214 209 981 L3 -220 C-19 -348 -93 -413 -162 -418 L-165 -451 C1 -449 197 -373 241 -122 L464 1151 C479 1234 508 1312 587 1312 C670 1312 691 1218 691 1154 C691 1032 635 940 558 855 L519 812 C471 759 434 692 434 625 C434 520 526 463 597 417 L701 349 C763 309 793 249 793 186 C793 96 734 18 642 18 C514 18 478 126 478 229 C478 252 480 274 483 295 L433 295 Z " />
<glyph glyph-name="agrave" unicode="&#xe0;" horiz-adv-x="1047" d="M617 611 C617 426 543 33 363 33 C275 33 264 185 264 241 C264 381 299 814 502 814 C595 814 617 678 617 611 L617 611 Z M896 848 L669 848 L650 741 C623 840 535 878 446 878 C171 878 47 592 47 365 C47 185 121 -30 326 -30 C405 -30 493 5 544 97 C563 10 633 -30 713 -30 C864 -29 942 63 992 202 L932 202 C909 124 843 45 806 45 C778 45 770 72 770 102 C770 125 776 157 778 169 L896 848 Z M752 996 L349 1397 L349 1170 L623 996 L752 996 Z " />
<glyph glyph-name="aacute" unicode="&#xe1;" horiz-adv-x="1047" d="M617 611 C617 426 543 33 363 33 C275 33 264 185 264 241 C264 381 299 814 502 814 C595 814 617 678 617 611 L617 611 Z M896 848 L669 848 L650 741 C623 840 535 878 446 878 C171 878 47 592 47 365 C47 185 121 -30 326 -30 C405 -30 493 5 544 97 C563 10 633 -30 713 -30 C864 -29 942 63 992 202 L932 202 C909 124 843 45 806 45 C778 45 770 72 770 102 C770 125 776 157 778 169 L896 848 Z M532 996 L806 1170 L806 1397 L403 996 L532 996 Z " />
<glyph glyph-name="acircumflex" unicode="&#xe2;" horiz-adv-x="1047" d="M617 611 C617 426 543 33 363 33 C275 33 264 185 264 241 C264 381 299 814 502 814 C595 814 617 678 617 611 L617 611 Z M896 848 L669 848 L650 741 C623 840 535 878 446 878 C171 878 47 592 47 365 C47 185 121 -30 326 -30 C405 -30 493 5 544 97 C563 10 633 -30 713 -30 C864 -29 942 63 992 202 L932 202 C909 124 843 45 806 45 C778 45 770 72 770 102 C770 125 776 157 778 169 L896 848 Z M559 1155 L726 996 L855 996 L631 1318 L539 1318 L214 996 L342 996 L559 1155 Z " />
<glyph glyph-name="atilde" unicode="&#xe3;" horiz-adv-x="1047" d="M617 611 C617 426 543 33 363 33 C275 33 264 185 264 241 C264 381 299 814 502 814 C595 814 617 678 617 611 L617 611 Z M896 848 L669 848 L650 741 C623 840 535 878 446 878 C171 878 47 592 47 365 C47 185 121 -30 326 -30 C405 -30 493 5 544 97 C563 10 633 -30 713 -30 C864 -29 942 63 992 202 L932 202 C909 124 843 45 806 45 C778 45 770 72 770 102 C770 125 776 157 778 169 L896 848 Z M806 1293 C772 1231 716 1185 676 1185 C590 1185 545 1297 430 1297 C332 1297 254 1213 199 1129 L258 1039 C290 1104 345 1152 388 1152 C476 1152 519 1041 633 1041 C726 1041 802 1117 856 1193 L806 1293 Z " />
<glyph glyph-name="adieresis" unicode="&#xe4;" horiz-adv-x="1047" d="M617 611 C617 426 543 33 363 33 C275 33 264 185 264 241 C264 381 299 814 502 814 C595 814 617 678 617 611 L617 611 Z M896 848 L669 848 L650 741 C623 840 535 878 446 878 C171 878 47 592 47 365 C47 185 121 -30 326 -30 C405 -30 493 5 544 97 C563 10 633 -30 713 -30 C864 -29 942 63 992 202 L932 202 C909 124 843 45 806 45 C778 45 770 72 770 102 C770 125 776 157 778 169 L896 848 Z M524 1201 C524 1259 481 1302 425 1302 C349 1302 287 1231 287 1162 C287 1105 328 1061 386 1061 C461 1061 524 1133 524 1201 L524 1201 Z M848 1201 C848 1258 806 1302 750 1302 C675 1302 611 1232 611 1163 C611 1106 653 1061 711 1061 C786 1061 848 1133 848 1201 L848 1201 Z " />
<glyph glyph-name="aring" unicode="&#xe5;" horiz-adv-x="1047" d="M617 611 C617 426 543 33 363 33 C275 33 264 185 264 241 C264 381 299 814 502 814 C595 814 617 678 617 611 L617 611 Z M896 848 L669 848 L650 741 C623 840 535 878 446 878 C171 878 47 592 47 365 C47 185 121 -30 326 -30 C405 -30 493 5 544 97 C563 10 633 -30 713 -30 C864 -29 942 63 992 202 L932 202 C909 124 843 45 806 45 C778 45 770 72 770 102 C770 125 776 157 778 169 L896 848 Z M579 1337 C622 1337 635 1305 635 1263 C635 1195 619 1055 534 1055 C497 1055 478 1075 478 1130 C478 1197 495 1337 579 1337 L579 1337 Z M535 1006 C655 1006 755 1094 755 1214 C755 1318 664 1386 576 1386 C458 1386 357 1296 357 1176 C357 1073 447 1006 535 1006 L535 1006 Z " />
<glyph glyph-name="ae" unicode="&#xe6;" horiz-adv-x="1345" d="M552 503 C525 507 497 508 468 508 C272 508 40 426 40 209 C40 55 190 -30 318 -30 C413 -30 518 -18 624 85 C683 13 768 -30 874 -30 C1038 -30 1160 56 1238 202 L1174 202 C1119 107 1018 22 912 22 C780 22 761 187 761 280 C761 332 763 380 769 418 C816 406 860 402 905 402 C1059 402 1268 467 1268 647 C1268 802 1114 879 982 879 C880 879 794 848 725 796 C647 863 557 878 479 878 C368 878 266 844 177 785 L148 609 L196 609 C215 726 316 823 433 823 C527 823 572 742 572 660 C572 644 571 628 568 610 L552 503 Z M542 448 L509 238 C498 168 463 23 373 23 C285 23 256 115 256 189 C256 352 360 449 510 449 C521 449 531 449 542 448 L542 448 Z M874 462 C842 462 809 469 780 479 L786 512 C808 631 847 832 976 832 C1044 832 1060 747 1060 696 C1060 578 997 462 874 462 L874 462 Z " />
<glyph glyph-name="ccedilla" unicode="&#xe7;" horiz-adv-x="832" d="M516 878 C199 878 48 640 48 380 C48 171 158 -16 363 -30 L243 -140 L280 -187 C299 -173 323 -164 345 -164 C385 -164 398 -205 398 -236 C398 -288 366 -359 309 -359 C276 -359 243 -335 213 -311 L168 -366 C209 -401 254 -423 307 -423 C422 -423 525 -335 525 -225 C525 -129 442 -101 401 -101 C398 -101 385 -101 376 -103 L466 -23 C592 1 688 87 738 202 L674 202 C627 111 531 24 428 24 C291 24 278 198 278 295 C278 443 301 832 549 832 C661 832 700 732 700 645 C700 633 699 620 698 609 L745 609 L777 799 C701 854 606 878 516 878 L516 878 Z " />
<glyph glyph-name="egrave" unicode="&#xe8;" horiz-adv-x="870" d="M689 202 C634 107 533 22 427 22 C295 22 276 187 276 280 C276 332 280 380 286 418 C328 406 379 396 427 396 C595 396 783 470 783 647 C783 802 629 879 497 879 C210 879 48 635 48 370 C48 145 178 -30 389 -30 C553 -30 675 56 753 202 L689 202 Z M573 701 C573 584 524 450 394 450 C366 450 325 458 295 479 C316 623 367 742 420 799 C441 822 468 834 493 834 C562 834 573 751 573 701 L573 701 Z M678 996 L275 1397 L275 1170 L549 996 L678 996 Z " />
<glyph glyph-name="eacute" unicode="&#xe9;" horiz-adv-x="870" d="M689 202 C634 107 533 22 427 22 C295 22 276 187 276 280 C276 332 280 380 286 418 C328 406 379 396 427 396 C595 396 783 470 783 647 C783 802 629 879 497 879 C210 879 48 635 48 370 C48 145 178 -30 389 -30 C553 -30 675 56 753 202 L689 202 Z M573 701 C573 584 524 450 394 450 C366 450 325 458 295 479 C316 623 367 742 420 799 C441 822 468 834 493 834 C562 834 573 751 573 701 L573 701 Z M497 996 L771 1170 L771 1397 L368 996 L497 996 Z " />
<glyph glyph-name="ecircumflex" unicode="&#xea;" horiz-adv-x="890" d="M689 202 C634 107 533 22 427 22 C295 22 276 187 276 280 C276 332 280 380 286 418 C328 406 379 396 427 396 C595 396 783 470 783 647 C783 802 629 879 497 879 C210 879 48 635 48 370 C48 145 178 -30 389 -30 C553 -30 675 56 753 202 L689 202 Z M573 701 C573 584 524 450 394 450 C366 450 325 458 295 479 C316 623 367 742 420 799 C441 822 468 834 493 834 C562 834 573 751 573 701 L573 701 Z M515 1155 L682 996 L811 996 L587 1318 L495 1318 L170 996 L298 996 L515 1155 Z " />
<glyph glyph-name="edieresis" unicode="&#xeb;" horiz-adv-x="907" d="M689 202 C634 107 533 22 427 22 C295 22 276 187 276 280 C276 332 280 380 286 418 C328 406 379 396 427 396 C595 396 783 470 783 647 C783 802 629 879 497 879 C210 879 48 635 48 370 C48 145 178 -30 389 -30 C553 -30 675 56 753 202 L689 202 Z M573 701 C573 584 524 450 394 450 C366 450 325 458 295 479 C316 623 367 742 420 799 C441 822 468 834 493 834 C562 834 573 751 573 701 L573 701 Z M485 1201 C485 1259 442 1302 386 1302 C310 1302 248 1231 248 1162 C248 1105 289 1061 347 1061 C422 1061 485 1133 485 1201 L485 1201 Z M809 1201 C809 1258 767 1302 711 1302 C636 1302 572 1232 572 1163 C572 1106 614 1061 672 1061 C747 1061 809 1133 809 1201 L809 1201 Z " />
<glyph glyph-name="igrave" unicode="&#xec;" horiz-adv-x="520" d="M420 848 L90 848 L83 812 L128 812 C166 812 175 785 175 756 C175 740 172 724 170 711 L93 269 C86 229 80 187 80 149 C80 40 130 -30 239 -30 C390 -30 468 63 518 202 L458 202 C435 124 369 45 332 45 C302 45 295 74 295 103 C295 127 300 152 302 161 L420 848 Z M463 996 L60 1397 L60 1170 L334 996 L463 996 Z " />
<glyph glyph-name="iacute" unicode="&#xed;" horiz-adv-x="520" d="M420 848 L90 848 L83 812 L128 812 C166 812 175 785 175 756 C175 740 172 724 170 711 L93 269 C86 229 80 187 80 149 C80 40 130 -30 239 -30 C390 -30 468 63 518 202 L458 202 C435 124 369 45 332 45 C302 45 295 74 295 103 C295 127 300 152 302 161 L420 848 Z M248 996 L522 1170 L522 1397 L119 996 L248 996 Z " />
<glyph glyph-name="icircumflex" unicode="&#xee;" horiz-adv-x="520" d="M420 848 L90 848 L83 812 L128 812 C166 812 175 785 175 756 C175 740 172 724 170 711 L93 269 C86 229 80 187 80 149 C80 40 130 -30 239 -30 C390 -30 468 63 518 202 L458 202 C435 124 369 45 332 45 C302 45 295 74 295 103 C295 127 300 152 302 161 L420 848 Z M320 1155 L487 996 L616 996 L392 1318 L300 1318 L-25 996 L103 996 L320 1155 Z " />
<glyph glyph-name="idieresis" unicode="&#xef;" horiz-adv-x="520" d="M420 848 L90 848 L83 812 L128 812 C166 812 175 785 175 756 C175 740 172 724 170 711 L93 269 C86 229 80 187 80 149 C80 40 130 -30 239 -30 C390 -30 468 63 518 202 L458 202 C435 124 369 45 332 45 C302 45 295 74 295 103 C295 127 300 152 302 161 L420 848 Z M272 1201 C272 1259 229 1302 173 1302 C97 1302 35 1231 35 1162 C35 1105 76 1061 134 1061 C209 1061 272 1133 272 1201 L272 1201 Z M596 1201 C596 1258 554 1302 498 1302 C423 1302 359 1232 359 1163 C359 1106 401 1061 459 1061 C534 1061 596 1133 596 1201 L596 1201 Z " />
<glyph glyph-name="eth" unicode="&#xf0;" horiz-adv-x="1294" d="M894 102 L219 102 L635 598 L894 102 Z M398 1236 L1074 1236 L658 740 L398 1236 Z M696 669 L1123 1179 L962 158 L696 669 Z M332 1181 L598 669 L170 159 L332 1181 Z M947 0 C998 0 1044 41 1052 91 L1235 1247 C1236 1252 1236 1256 1236 1261 C1236 1304 1204 1338 1158 1338 L346 1338 C295 1338 249 1297 241 1247 L58 91 C57 86 57 82 57 77 C57 34 89 0 135 0 L947 0 Z " />
<glyph glyph-name="ntilde" unicode="&#xf1;" horiz-adv-x="1069" d="M417 848 L87 848 L80 812 L125 812 C163 812 172 785 172 756 C172 740 169 724 167 711 L45 0 L269 0 L339 382 C351 450 375 582 419 670 C456 745 530 813 606 813 C661 813 686 765 686 722 C686 678 679 646 674 616 L613 269 C604 221 598 175 598 134 C598 37 642 -30 757 -30 C907 -30 977 91 1013 202 L953 202 C930 124 872 45 835 45 C814 45 808 66 808 97 C808 127 818 175 820 186 L884 536 C890 571 894 604 894 635 C894 781 821 878 648 878 C543 878 442 822 398 740 L417 848 Z M845 1293 C811 1231 755 1185 715 1185 C629 1185 584 1297 469 1297 C371 1297 293 1213 238 1129 L297 1039 C329 1104 384 1152 427 1152 C515 1152 558 1041 672 1041 C765 1041 841 1117 895 1193 L845 1293 Z " />
<glyph glyph-name="ograve" unicode="&#xf2;" horiz-adv-x="944" d="M502 878 C187 878 50 598 50 340 C50 152 167 -30 401 -30 C691 -30 844 254 844 485 C844 680 744 878 502 878 L502 878 Z M616 616 C616 519 602 15 388 15 C288 15 277 153 277 223 C277 317 286 832 505 832 C609 832 616 688 616 616 L616 616 Z M677 996 L274 1397 L274 1170 L548 996 L677 996 Z " />
<glyph glyph-name="oacute" unicode="&#xf3;" horiz-adv-x="944" d="M502 878 C187 878 50 598 50 340 C50 152 167 -30 401 -30 C691 -30 844 254 844 485 C844 680 744 878 502 878 L502 878 Z M616 616 C616 519 602 15 388 15 C288 15 277 153 277 223 C277 317 286 832 505 832 C609 832 616 688 616 616 L616 616 Z M479 996 L753 1170 L753 1397 L350 996 L479 996 Z " />
<glyph glyph-name="ocircumflex" unicode="&#xf4;" horiz-adv-x="944" d="M502 878 C187 878 50 598 50 340 C50 152 167 -30 401 -30 C691 -30 844 254 844 485 C844 680 744 878 502 878 L502 878 Z M616 616 C616 519 602 15 388 15 C288 15 277 153 277 223 C277 317 286 832 505 832 C609 832 616 688 616 616 L616 616 Z M545 1155 L712 996 L841 996 L617 1318 L525 1318 L200 996 L328 996 L545 1155 Z " />
<glyph glyph-name="otilde" unicode="&#xf5;" horiz-adv-x="944" d="M502 878 C187 878 50 598 50 340 C50 152 167 -30 401 -30 C691 -30 844 254 844 485 C844 680 744 878 502 878 L502 878 Z M616 616 C616 519 602 15 388 15 C288 15 277 153 277 223 C277 317 286 832 505 832 C609 832 616 688 616 616 L616 616 Z M787 1293 C753 1231 697 1185 657 1185 C571 1185 526 1297 411 1297 C313 1297 235 1213 180 1129 L239 1039 C271 1104 326 1152 369 1152 C457 1152 500 1041 614 1041 C707 1041 783 1117 837 1193 L787 1293 Z " />
<glyph glyph-name="odieresis" unicode="&#xf6;" horiz-adv-x="944" d="M502 878 C187 878 50 598 50 340 C50 152 167 -30 401 -30 C691 -30 844 254 844 485 C844 680 744 878 502 878 L502 878 Z M616 616 C616 519 602 15 388 15 C288 15 277 153 277 223 C277 317 286 832 505 832 C609 832 616 688 616 616 L616 616 Z M487 1201 C487 1259 444 1302 388 1302 C312 1302 250 1231 250 1162 C250 1105 291 1061 349 1061 C424 1061 487 1133 487 1201 L487 1201 Z M811 1201 C811 1258 769 1302 713 1302 C638 1302 574 1232 574 1163 C574 1106 616 1061 674 1061 C749 1061 811 1133 811 1201 L811 1201 Z " />
<glyph glyph-name="divide" unicode="&#xf7;" horiz-adv-x="982" d="M54 415 L879 415 L893 503 L68 503 L54 415 Z M537 260 C537 304 503 338 457 338 C397 338 347 284 347 229 C347 184 384 149 428 149 C488 149 537 205 537 260 L537 260 Z M605 689 C605 733 571 767 525 767 C465 767 415 713 415 658 C415 613 452 578 496 578 C556 578 605 634 605 689 L605 689 Z " />
<glyph glyph-name="oslash" unicode="&#xf8;" horiz-adv-x="944" d="M502 878 C187 878 50 598 50 340 C50 269 67 199 100 139 L30 69 L30 -36 L144 77 C202 12 288 -30 401 -30 C691 -30 844 254 844 485 C844 566 826 648 789 715 L853 779 L853 884 L745 777 C690 838 610 878 502 878 L502 878 Z M388 15 C294 15 278 135 277 208 L614 542 C606 371 568 15 388 15 L388 15 Z M505 832 C595 832 612 724 615 648 L279 316 C288 494 327 832 505 832 L505 832 Z " />
<glyph glyph-name="ugrave" unicode="&#xf9;" horiz-adv-x="1054" d="M412 848 L82 848 L75 812 L120 812 C158 812 167 785 167 756 C167 740 164 724 162 711 L90 315 C85 289 78 235 78 211 C78 74 151 -30 310 -30 C411 -30 512 16 562 108 C574 23 624 -30 719 -30 C870 -30 948 63 998 202 L938 202 C915 124 849 45 812 45 C782 45 775 78 775 110 C775 130 778 150 780 161 L900 848 L674 848 L588 343 C579 289 562 230 538 178 C503 103 439 35 363 35 C308 35 288 83 288 126 C288 170 296 202 301 232 L412 848 Z M727 996 L324 1397 L324 1170 L598 996 L727 996 Z " />
<glyph glyph-name="uacute" unicode="&#xfa;" horiz-adv-x="1054" d="M412 848 L82 848 L75 812 L120 812 C158 812 167 785 167 756 C167 740 164 724 162 711 L90 315 C85 289 78 235 78 211 C78 74 151 -30 310 -30 C411 -30 512 16 562 108 C574 23 624 -30 719 -30 C870 -30 948 63 998 202 L938 202 C915 124 849 45 812 45 C782 45 775 78 775 110 C775 130 778 150 780 161 L900 848 L674 848 L588 343 C579 289 562 230 538 178 C503 103 439 35 363 35 C308 35 288 83 288 126 C288 170 296 202 301 232 L412 848 Z M479 996 L753 1170 L753 1397 L350 996 L479 996 Z " />
<glyph glyph-name="ucircumflex" unicode="&#xfb;" horiz-adv-x="1054" d="M412 848 L82 848 L75 812 L120 812 C158 812 167 785 167 756 C167 740 164 724 162 711 L90 315 C85 289 78 235 78 211 C78 74 151 -30 310 -30 C411 -30 512 16 562 108 C574 23 624 -30 719 -30 C870 -30 948 63 998 202 L938 202 C915 124 849 45 812 45 C782 45 775 78 775 110 C775 130 778 150 780 161 L900 848 L674 848 L588 343 C579 289 562 230 538 178 C503 103 439 35 363 35 C308 35 288 83 288 126 C288 170 296 202 301 232 L412 848 Z M565 1155 L732 996 L861 996 L637 1318 L545 1318 L220 996 L348 996 L565 1155 Z " />
<glyph glyph-name="udieresis" unicode="&#xfc;" horiz-adv-x="1054" d="M412 848 L82 848 L75 812 L120 812 C158 812 167 785 167 756 C167 740 164 724 162 711 L90 315 C85 289 78 235 78 211 C78 74 151 -30 310 -30 C411 -30 512 16 562 108 C574 23 624 -30 719 -30 C870 -30 948 63 998 202 L938 202 C915 124 849 45 812 45 C782 45 775 78 775 110 C775 130 778 150 780 161 L900 848 L674 848 L588 343 C579 289 562 230 538 178 C503 103 439 35 363 35 C308 35 288 83 288 126 C288 170 296 202 301 232 L412 848 Z M517 1201 C517 1259 474 1302 418 1302 C342 1302 280 1231 280 1162 C280 1105 321 1061 379 1061 C454 1061 517 1133 517 1201 L517 1201 Z M841 1201 C841 1258 799 1302 743 1302 C668 1302 604 1232 604 1163 C604 1106 646 1061 704 1061 C779 1061 841 1133 841 1201 L841 1201 Z " />
<glyph glyph-name="yacute" unicode="&#xfd;" horiz-adv-x="856" d="M-37 -290 L-65 -317 L62 -450 C470 -228 771 272 771 747 C771 781 768 821 762 848 L523 848 L517 813 C654 813 683 723 683 622 C683 458 623 274 530 108 L310 848 L-5 848 L-9 812 L25 812 C84 812 91 793 107 743 L347 0 L463 0 C380 -122 281 -228 179 -300 C141 -327 103 -342 67 -342 C25 -342 -13 -320 -37 -290 L-37 -290 Z M349 996 L623 1170 L623 1397 L220 996 L349 996 Z " />
<glyph glyph-name="thorn" unicode="&#xfe;" horiz-adv-x="1294" d="M894 102 L219 102 L635 598 L894 102 Z M398 1236 L1074 1236 L658 740 L398 1236 Z M696 669 L1123 1179 L962 158 L696 669 Z M332 1181 L598 669 L170 159 L332 1181 Z M947 0 C998 0 1044 41 1052 91 L1235 1247 C1236 1252 1236 1256 1236 1261 C1236 1304 1204 1338 1158 1338 L346 1338 C295 1338 249 1297 241 1247 L58 91 C57 86 57 82 57 77 C57 34 89 0 135 0 L947 0 Z " />
<glyph glyph-name="ydieresis" unicode="&#xff;" horiz-adv-x="856" d="M-37 -290 L-65 -317 L62 -450 C470 -228 771 272 771 747 C771 781 768 821 762 848 L523 848 L517 813 C654 813 683 723 683 622 C683 458 623 274 530 108 L310 848 L-5 848 L-9 812 L25 812 C84 812 91 793 107 743 L347 0 L463 0 C380 -122 281 -228 179 -300 C141 -327 103 -342 67 -342 C25 -342 -13 -320 -37 -290 L-37 -290 Z M365 1201 C365 1259 322 1302 266 1302 C190 1302 128 1231 128 1162 C128 1105 169 1061 227 1061 C302 1061 365 1133 365 1201 L365 1201 Z M689 1201 C689 1258 647 1302 591 1302 C516 1302 452 1232 452 1163 C452 1106 494 1061 552 1061 C627 1061 689 1133 689 1201 L689 1201 Z " />
<glyph glyph-name="Amacron" unicode="&#x100;" horiz-adv-x="1204" d="M742 170 C744 158 748 130 748 120 C748 57 711 45 671 45 L602 45 L595 0 L1163 0 L1169 45 L1113 45 C1063 45 1014 76 997 186 L817 1338 L633 1338 L119 170 C74 67 -5 45 -39 45 L-78 45 L-85 0 L280 0 L287 45 L222 45 C188 45 163 64 163 100 C163 114 167 131 176 151 L302 435 L702 435 L742 170 Z M601 1117 L694 491 L327 491 L601 1117 Z M443 1550 L979 1550 L1003 1698 L467 1698 L443 1550 Z " />
<glyph glyph-name="amacron" unicode="&#x101;" horiz-adv-x="1047" d="M617 611 C617 426 543 33 363 33 C275 33 264 185 264 241 C264 381 299 814 502 814 C595 814 617 678 617 611 L617 611 Z M896 848 L669 848 L650 741 C623 840 535 878 446 878 C171 878 47 592 47 365 C47 185 121 -30 326 -30 C405 -30 493 5 544 97 C563 10 633 -30 713 -30 C864 -29 942 63 992 202 L932 202 C909 124 843 45 806 45 C778 45 770 72 770 102 C770 125 776 157 778 169 L896 848 Z M315 1118 L781 1118 L801 1246 L335 1246 L315 1118 Z " />
<glyph glyph-name="Abreve" unicode="&#x102;" horiz-adv-x="1204" d="M742 170 C744 158 748 130 748 120 C748 57 711 45 671 45 L602 45 L595 0 L1163 0 L1169 45 L1113 45 C1063 45 1014 76 997 186 L817 1338 L633 1338 L119 170 C74 67 -5 45 -39 45 L-78 45 L-85 0 L280 0 L287 45 L222 45 C188 45 163 64 163 100 C163 114 167 131 176 151 L302 435 L702 435 L742 170 Z M601 1117 L694 491 L327 491 L601 1117 Z M946 1734 C946 1734 849 1575 707 1575 C567 1575 523 1734 523 1734 L432 1693 C443 1608 492 1451 687 1451 C882 1451 987 1611 1018 1694 L946 1734 Z " />
<glyph glyph-name="abreve" unicode="&#x103;" horiz-adv-x="1047" d="M617 611 C617 426 543 33 363 33 C275 33 264 185 264 241 C264 381 299 814 502 814 C595 814 617 678 617 611 L617 611 Z M896 848 L669 848 L650 741 C623 840 535 878 446 878 C171 878 47 592 47 365 C47 185 121 -30 326 -30 C405 -30 493 5 544 97 C563 10 633 -30 713 -30 C864 -29 942 63 992 202 L932 202 C909 124 843 45 806 45 C778 45 770 72 770 102 C770 125 776 157 778 169 L896 848 Z M774 1318 C774 1318 677 1159 535 1159 C395 1159 351 1318 351 1318 L260 1277 C271 1192 320 1035 515 1035 C710 1035 815 1195 846 1278 L774 1318 Z " />
<glyph glyph-name="Aogonek" unicode="&#x104;" horiz-adv-x="1204" d="M742 170 C744 158 748 130 748 120 C748 57 711 45 671 45 L602 45 L595 0 L1044 0 C956 -39 885 -114 885 -211 C885 -293 950 -347 1023 -362 L1094 -233 C1043 -225 1018 -185 1018 -142 C1018 -59 1094 -7 1163 0 L1169 45 L1113 45 C1063 45 1014 76 997 186 L817 1338 L633 1338 L119 170 C74 67 -5 45 -39 45 L-78 45 L-85 0 L280 0 L287 45 L222 45 C188 45 163 64 163 100 C163 114 167 131 176 151 L302 435 L702 435 L742 170 Z M601 1117 L694 491 L327 491 L601 1117 Z " />
<glyph glyph-name="aogonek" unicode="&#x105;" horiz-adv-x="1047" d="M896 848 L669 848 L650 741 C623 840 535 878 446 878 C171 878 47 592 47 365 C47 185 121 -30 326 -30 C405 -30 493 5 544 97 C560 24 611 -15 674 -27 C610 -69 564 -133 564 -211 C564 -293 629 -347 702 -362 L773 -233 C722 -225 697 -185 697 -142 C697 -89 727 -49 767 -25 C794 -20 819 -12 841 0 L842 0 L841 0 C913 38 958 109 992 202 L932 202 C909 124 843 45 806 45 C778 45 770 72 770 102 C770 125 776 157 778 169 L896 848 Z M617 611 C617 426 543 33 363 33 C275 33 264 185 264 241 C264 381 299 814 502 814 C595 814 617 678 617 611 L617 611 Z " />
<glyph glyph-name="Cacute" unicode="&#x106;" horiz-adv-x="1196" d="M621 -25 C758 -25 873 12 1003 92 L1044 386 L979 386 C929 217 837 37 633 37 C404 37 368 308 368 476 C368 761 440 1303 829 1303 C1013 1303 1060 1134 1060 992 C1060 978 1060 965 1059 952 L1124 952 L1166 1248 C1056 1321 949 1363 808 1363 C326 1363 100 998 100 575 C100 265 256 -25 621 -25 L621 -25 Z M727 1425 L1001 1578 L1001 1805 L598 1425 L727 1425 Z " />
<glyph glyph-name="cacute" unicode="&#x107;" horiz-adv-x="832" d="M516 878 C199 878 48 640 48 380 C48 163 167 -31 388 -31 C553 -31 678 64 738 202 L674 202 C627 111 531 24 428 24 C291 24 278 198 278 295 C278 443 301 832 549 832 C661 832 700 732 700 645 C700 633 699 620 698 609 L745 609 L777 799 C701 854 606 878 516 878 L516 878 Z M479 996 L753 1170 L753 1397 L350 996 L479 996 Z " />
<glyph glyph-name="Ccircumflex" unicode="&#x108;" horiz-adv-x="1196" d="M621 -25 C758 -25 873 12 1003 92 L1044 386 L979 386 C929 217 837 37 633 37 C404 37 368 308 368 476 C368 761 440 1303 829 1303 C1013 1303 1060 1134 1060 992 C1060 978 1060 965 1059 952 L1124 952 L1166 1248 C1056 1321 949 1363 808 1363 C326 1363 100 998 100 575 C100 265 256 -25 621 -25 L621 -25 Z M789 1584 L956 1425 L1085 1425 L861 1747 L769 1747 L444 1425 L572 1425 L789 1584 Z " />
<glyph glyph-name="ccircumflex" unicode="&#x109;" horiz-adv-x="863" d="M516 878 C199 878 48 640 48 380 C48 163 167 -31 388 -31 C553 -31 678 64 738 202 L674 202 C627 111 531 24 428 24 C291 24 278 198 278 295 C278 443 301 832 549 832 C661 832 700 732 700 645 C700 633 699 620 698 609 L745 609 L777 799 C701 854 606 878 516 878 L516 878 Z M525 1155 L692 996 L821 996 L597 1318 L505 1318 L180 996 L308 996 L525 1155 Z " />
<glyph glyph-name="Cdotaccent" unicode="&#x10a;" horiz-adv-x="1196" d="M621 -25 C758 -25 873 12 1003 92 L1044 386 L979 386 C929 217 837 37 633 37 C404 37 368 308 368 476 C368 761 440 1303 829 1303 C1013 1303 1060 1134 1060 992 C1060 978 1060 965 1059 952 L1124 952 L1166 1248 C1056 1321 949 1363 808 1363 C326 1363 100 998 100 575 C100 265 256 -25 621 -25 L621 -25 Z M881 1632 C877 1693 829 1738 770 1738 C690 1738 631 1663 636 1591 C640 1531 686 1485 747 1485 C826 1485 886 1561 881 1632 L881 1632 Z " />
<glyph glyph-name="cdotaccent" unicode="&#x10b;" horiz-adv-x="832" d="M516 878 C199 878 48 640 48 380 C48 163 167 -31 388 -31 C553 -31 678 64 738 202 L674 202 C627 111 531 24 428 24 C291 24 278 198 278 295 C278 443 301 832 549 832 C661 832 700 732 700 645 C700 633 699 620 698 609 L745 609 L777 799 C701 854 606 878 516 878 L516 878 Z M654 1207 C654 1266 609 1311 552 1311 C473 1311 409 1237 409 1166 C409 1108 452 1062 511 1062 C589 1062 654 1137 654 1207 L654 1207 Z " />
<glyph glyph-name="Ccaron" unicode="&#x10c;" horiz-adv-x="1196" d="M621 -25 C758 -25 873 12 1003 92 L1044 386 L979 386 C929 217 837 37 633 37 C404 37 368 308 368 476 C368 761 440 1303 829 1303 C1013 1303 1060 1134 1060 992 C1060 978 1060 965 1059 952 L1124 952 L1166 1248 C1056 1321 949 1363 808 1363 C326 1363 100 998 100 575 C100 265 256 -25 621 -25 L621 -25 Z M804 1588 L637 1747 L508 1747 L732 1425 L824 1425 L1149 1747 L1021 1747 L804 1588 Z " />
<glyph glyph-name="ccaron" unicode="&#x10d;" horiz-adv-x="900" d="M516 878 C199 878 48 640 48 380 C48 163 167 -31 388 -31 C553 -31 678 64 738 202 L674 202 C627 111 531 24 428 24 C291 24 278 198 278 295 C278 443 301 832 549 832 C661 832 700 732 700 645 C700 633 699 620 698 609 L745 609 L777 799 C701 854 606 878 516 878 L516 878 Z M509 1159 L342 1318 L213 1318 L437 996 L529 996 L854 1318 L726 1318 L509 1159 Z " />
<glyph glyph-name="Dcaron" unicode="&#x10e;" horiz-adv-x="1379" d="M404 55 C460 459 521 878 577 1282 L636 1282 C910 1282 1016 1110 1016 814 C1016 437 888 55 505 55 L404 55 Z M539 0 C1041 0 1289 329 1289 777 C1289 1117 1073 1338 698 1338 L196 1338 L190 1293 C271 1293 317 1287 317 1218 C317 1209 313 1168 311 1157 L165 133 C154 59 107 46 13 45 L5 0 L539 0 Z M778 1588 L611 1747 L482 1747 L706 1425 L798 1425 L1123 1747 L995 1747 L778 1588 Z " />
<glyph glyph-name="dcaron" unicode="&#x10f;" horiz-adv-x="1047" d="M617 611 C617 426 543 33 363 33 C275 33 264 185 264 241 C264 381 299 814 502 814 C595 814 617 678 617 611 L617 611 Z M979 1338 L649 1338 L642 1302 L687 1302 C725 1302 734 1275 734 1246 C734 1230 731 1214 729 1201 L650 741 C623 840 535 878 446 878 C171 878 47 592 47 365 C47 185 121 -30 326 -30 C405 -30 493 5 544 97 C557 20 613 -30 714 -30 C864 -30 934 91 970 202 L910 202 C887 124 829 45 792 45 C773 45 768 65 768 88 C768 109 774 145 777 161 L979 1338 Z M1066 822 C1105 963 1149 1061 1207 1172 C1224 1204 1243 1248 1243 1286 C1243 1339 1197 1369 1150 1369 C1043 1369 1030 1266 1026 1172 C1021 1051 1015 934 992 822 L1066 822 Z " />
<glyph glyph-name="Dcroat" unicode="&#x110;" horiz-adv-x="1379" d="M93 608 L232 608 L165 133 C154 59 107 46 13 45 L5 0 L539 0 C1041 0 1289 329 1289 777 C1289 1117 1073 1338 698 1338 L196 1338 L190 1293 C271 1293 317 1287 317 1218 C317 1209 313 1168 311 1157 L249 725 L112 725 L93 608 Z M404 55 L481 608 L708 608 L727 725 L499 725 L577 1282 L636 1282 C910 1282 1016 1110 1016 814 C1016 437 888 55 505 55 L404 55 Z " />
<glyph glyph-name="dcroat" unicode="&#x111;" horiz-adv-x="1047" d="M979 1338 L649 1338 L642 1302 L687 1302 C725 1302 734 1275 734 1246 C734 1230 731 1214 729 1201 L718 1139 L530 1139 L517 1057 L704 1057 L650 741 C623 840 535 878 446 878 C171 878 47 592 47 365 C47 185 121 -30 326 -30 C405 -30 493 5 544 97 C557 20 613 -30 714 -30 C864 -30 934 91 970 202 L910 202 C887 124 829 45 792 45 C773 45 768 65 768 88 C768 109 774 145 777 161 L931 1057 L1003 1057 L1065 1139 L945 1139 L979 1338 Z M617 611 C617 426 543 33 363 33 C275 33 264 185 264 241 C264 381 299 814 502 814 C595 814 617 678 617 611 L617 611 Z " />
<glyph glyph-name="Emacron" unicode="&#x112;" horiz-adv-x="1128" d="M933 0 L1019 332 L952 332 C895 128 848 55 739 55 L401 55 L489 678 L604 678 C682 678 708 658 708 587 C708 562 704 531 699 492 L763 492 L823 920 L758 920 C737 771 716 734 611 734 L497 734 L574 1283 L865 1283 C1016 1283 1031 1238 1031 1098 L1096 1098 L1096 1338 L196 1338 L190 1293 C271 1293 317 1287 317 1218 C317 1209 313 1168 311 1157 L165 133 C154 59 107 46 13 45 L5 0 L933 0 Z M432 1550 L968 1550 L992 1698 L456 1698 L432 1550 Z " />
<glyph glyph-name="emacron" unicode="&#x113;" horiz-adv-x="875" d="M689 202 C634 107 533 22 427 22 C295 22 276 187 276 280 C276 332 280 380 286 418 C328 406 379 396 427 396 C595 396 783 470 783 647 C783 802 629 879 497 879 C210 879 48 635 48 370 C48 145 178 -30 389 -30 C553 -30 675 56 753 202 L689 202 Z M573 701 C573 584 524 450 394 450 C366 450 325 458 295 479 C316 623 367 742 420 799 C441 822 468 834 493 834 C562 834 573 751 573 701 L573 701 Z M288 1118 L754 1118 L774 1246 L308 1246 L288 1118 Z " />
<glyph glyph-name="Ebreve" unicode="&#x114;" horiz-adv-x="1128" d="M933 0 L1019 332 L952 332 C895 128 848 55 739 55 L401 55 L489 678 L604 678 C682 678 708 658 708 587 C708 562 704 531 699 492 L763 492 L823 920 L758 920 C737 771 716 734 611 734 L497 734 L574 1283 L865 1283 C1016 1283 1031 1238 1031 1098 L1096 1098 L1096 1338 L196 1338 L190 1293 C271 1293 317 1287 317 1218 C317 1209 313 1168 311 1157 L165 133 C154 59 107 46 13 45 L5 0 L933 0 Z M924 1734 C924 1734 827 1575 685 1575 C545 1575 501 1734 501 1734 L410 1693 C421 1608 470 1451 665 1451 C860 1451 965 1611 996 1694 L924 1734 Z " />
<glyph glyph-name="ebreve" unicode="&#x115;" horiz-adv-x="911" d="M689 202 C634 107 533 22 427 22 C295 22 276 187 276 280 C276 332 280 380 286 418 C328 406 379 396 427 396 C595 396 783 470 783 647 C783 802 629 879 497 879 C210 879 48 635 48 370 C48 145 178 -30 389 -30 C553 -30 675 56 753 202 L689 202 Z M573 701 C573 584 524 450 394 450 C366 450 325 458 295 479 C316 623 367 742 420 799 C441 822 468 834 493 834 C562 834 573 751 573 701 L573 701 Z M725 1318 C725 1318 628 1159 486 1159 C346 1159 302 1318 302 1318 L211 1277 C222 1192 271 1035 466 1035 C661 1035 766 1195 797 1278 L725 1318 Z " />
<glyph glyph-name="Edotaccent" unicode="&#x116;" horiz-adv-x="1128" d="M933 0 L1019 332 L952 332 C895 128 848 55 739 55 L401 55 L489 678 L604 678 C682 678 708 658 708 587 C708 562 704 531 699 492 L763 492 L823 920 L758 920 C737 771 716 734 611 734 L497 734 L574 1283 L865 1283 C1016 1283 1031 1238 1031 1098 L1096 1098 L1096 1338 L196 1338 L190 1293 C271 1293 317 1287 317 1218 C317 1209 313 1168 311 1157 L165 133 C154 59 107 46 13 45 L5 0 L933 0 Z M836 1632 C832 1693 784 1738 725 1738 C645 1738 586 1663 591 1591 C595 1531 641 1485 702 1485 C781 1485 841 1561 836 1632 L836 1632 Z " />
<glyph glyph-name="edotaccent" unicode="&#x117;" horiz-adv-x="870" d="M689 202 C634 107 533 22 427 22 C295 22 276 187 276 280 C276 332 280 380 286 418 C328 406 379 396 427 396 C595 396 783 470 783 647 C783 802 629 879 497 879 C210 879 48 635 48 370 C48 145 178 -30 389 -30 C553 -30 675 56 753 202 L689 202 Z M573 701 C573 584 524 450 394 450 C366 450 325 458 295 479 C316 623 367 742 420 799 C441 822 468 834 493 834 C562 834 573 751 573 701 L573 701 Z M649 1207 C649 1266 604 1311 547 1311 C468 1311 404 1237 404 1166 C404 1108 447 1062 506 1062 C584 1062 649 1137 649 1207 L649 1207 Z " />
<glyph glyph-name="Eogonek" unicode="&#x118;" horiz-adv-x="1128" d="M933 0 L1019 332 L952 332 C895 128 848 55 739 55 L401 55 L489 678 L604 678 C682 678 708 658 708 587 C708 562 704 531 699 492 L763 492 L823 920 L758 920 C737 771 716 734 611 734 L497 734 L574 1283 L865 1283 C1016 1283 1031 1238 1031 1098 L1096 1098 L1096 1338 L196 1338 L190 1293 C271 1293 317 1287 317 1218 C317 1209 313 1168 311 1157 L165 133 C154 59 107 46 13 45 L5 0 L814 0 C726 -39 655 -114 655 -211 C655 -293 720 -347 793 -362 L864 -233 C813 -225 788 -185 788 -142 C788 -59 864 -7 933 0 L933 0 Z " />
<glyph glyph-name="eogonek" unicode="&#x119;" horiz-adv-x="870" d="M689 202 C634 107 533 22 427 22 C295 22 276 187 276 280 C276 332 280 380 286 418 C328 406 379 396 427 396 C595 396 783 470 783 647 C783 802 629 879 497 879 C210 879 48 635 48 370 C48 154 167 -15 363 -29 C300 -71 256 -134 256 -211 C256 -293 321 -347 394 -362 L465 -233 C414 -225 389 -185 389 -142 C389 -89 420 -48 461 -24 C589 -3 687 78 753 202 L689 202 Z M573 701 C573 584 524 450 394 450 C366 450 325 458 295 479 C316 623 367 742 420 799 C441 822 468 834 493 834 C562 834 573 751 573 701 L573 701 Z " />
<glyph glyph-name="Ecaron" unicode="&#x11a;" horiz-adv-x="1128" d="M933 0 L1019 332 L952 332 C895 128 848 55 739 55 L401 55 L489 678 L604 678 C682 678 708 658 708 587 C708 562 704 531 699 492 L763 492 L823 920 L758 920 C737 771 716 734 611 734 L497 734 L574 1283 L865 1283 C1016 1283 1031 1238 1031 1098 L1096 1098 L1096 1338 L196 1338 L190 1293 C271 1293 317 1287 317 1218 C317 1209 313 1168 311 1157 L165 133 C154 59 107 46 13 45 L5 0 L933 0 Z M706 1588 L539 1747 L410 1747 L634 1425 L726 1425 L1051 1747 L923 1747 L706 1588 Z " />
<glyph glyph-name="ecaron" unicode="&#x11b;" horiz-adv-x="931" d="M689 202 C634 107 533 22 427 22 C295 22 276 187 276 280 C276 332 280 380 286 418 C328 406 379 396 427 396 C595 396 783 470 783 647 C783 802 629 879 497 879 C210 879 48 635 48 370 C48 145 178 -30 389 -30 C553 -30 675 56 753 202 L689 202 Z M573 701 C573 584 524 450 394 450 C366 450 325 458 295 479 C316 623 367 742 420 799 C441 822 468 834 493 834 C562 834 573 751 573 701 L573 701 Z M508 1159 L341 1318 L212 1318 L436 996 L528 996 L853 1318 L725 1318 L508 1159 Z " />
<glyph glyph-name="Gcircumflex" unicode="&#x11c;" horiz-adv-x="1316" d="M1113 185 L1177 638 L791 638 L783 585 L848 585 C900 585 913 557 913 523 C913 513 912 502 910 491 L874 237 C856 108 751 37 633 37 C404 37 368 308 368 476 C368 743 434 1302 820 1302 C995 1302 1100 1148 1100 992 C1100 978 1100 965 1099 952 L1164 952 L1206 1248 C1098 1321 945 1363 811 1363 C334 1363 100 1004 100 575 C100 244 274 -25 626 -25 C806 -25 997 52 1113 185 L1113 185 Z M844 1584 L1011 1425 L1140 1425 L916 1747 L824 1747 L499 1425 L627 1425 L844 1584 Z " />
<glyph glyph-name="gcircumflex" unicode="&#x11d;" horiz-adv-x="892" d="M0 -317 C106 -414 246 -452 383 -452 C578 -452 806 -359 806 -143 C806 9 667 68 539 89 L355 119 C296 129 225 139 225 203 C225 232 241 260 276 273 C310 259 355 253 404 253 C596 253 772 386 772 586 C772 634 760 680 736 722 C747 788 814 813 874 813 L916 813 L922 848 L702 848 L673 779 C631 835 535 878 447 878 C244 878 75 746 75 560 C75 444 133 362 218 302 C132 281 37 225 37 128 C37 23 146 -26 231 -40 L494 -83 C592 -99 646 -151 646 -216 C646 -351 487 -404 379 -404 C207 -404 82 -319 82 -159 C82 -143 83 -126 86 -109 L36 -109 L0 -317 Z M452 837 C511 837 553 797 553 623 C553 510 514 294 405 294 C343 294 298 332 298 488 C298 611 325 837 452 837 L452 837 Z M505 1155 L672 996 L801 996 L577 1318 L485 1318 L160 996 L288 996 L505 1155 Z " />
<glyph glyph-name="Gbreve" unicode="&#x11e;" horiz-adv-x="1316" d="M1113 185 L1177 638 L791 638 L783 585 L848 585 C900 585 913 557 913 523 C913 513 912 502 910 491 L874 237 C856 108 751 37 633 37 C404 37 368 308 368 476 C368 743 434 1302 820 1302 C995 1302 1100 1148 1100 992 C1100 978 1100 965 1099 952 L1164 952 L1206 1248 C1098 1321 945 1363 811 1363 C334 1363 100 1004 100 575 C100 244 274 -25 626 -25 C806 -25 997 52 1113 185 L1113 185 Z M1077 1734 C1077 1734 980 1575 838 1575 C698 1575 654 1734 654 1734 L563 1693 C574 1608 623 1451 818 1451 C1013 1451 1118 1611 1149 1694 L1077 1734 Z " />
<glyph glyph-name="gbreve" unicode="&#x11f;" horiz-adv-x="892" d="M0 -317 C106 -414 246 -452 383 -452 C578 -452 806 -359 806 -143 C806 9 667 68 539 89 L355 119 C296 129 225 139 225 203 C225 232 241 260 276 273 C310 259 355 253 404 253 C596 253 772 386 772 586 C772 634 760 680 736 722 C747 788 814 813 874 813 L916 813 L922 848 L702 848 L673 779 C631 835 535 878 447 878 C244 878 75 746 75 560 C75 444 133 362 218 302 C132 281 37 225 37 128 C37 23 146 -26 231 -40 L494 -83 C592 -99 646 -151 646 -216 C646 -351 487 -404 379 -404 C207 -404 82 -319 82 -159 C82 -143 83 -126 86 -109 L36 -109 L0 -317 Z M452 837 C511 837 553 797 553 623 C553 510 514 294 405 294 C343 294 298 332 298 488 C298 611 325 837 452 837 L452 837 Z M720 1318 C720 1318 623 1159 481 1159 C341 1159 297 1318 297 1318 L206 1277 C217 1192 266 1035 461 1035 C656 1035 761 1195 792 1278 L720 1318 Z " />
<glyph glyph-name="Gdotaccent" unicode="&#x120;" horiz-adv-x="1316" d="M1113 185 L1177 638 L791 638 L783 585 L848 585 C900 585 913 557 913 523 C913 513 912 502 910 491 L874 237 C856 108 751 37 633 37 C404 37 368 308 368 476 C368 743 434 1302 820 1302 C995 1302 1100 1148 1100 992 C1100 978 1100 965 1099 952 L1164 952 L1206 1248 C1098 1321 945 1363 811 1363 C334 1363 100 1004 100 575 C100 244 274 -25 626 -25 C806 -25 997 52 1113 185 L1113 185 Z M916 1632 C912 1693 864 1738 805 1738 C725 1738 666 1663 671 1591 C675 1531 721 1485 782 1485 C861 1485 921 1561 916 1632 L916 1632 Z " />
<glyph glyph-name="gdotaccent" unicode="&#x121;" horiz-adv-x="892" d="M0 -317 C106 -414 246 -452 383 -452 C578 -452 806 -359 806 -143 C806 9 667 68 539 89 L355 119 C296 129 225 139 225 203 C225 232 241 260 276 273 C310 259 355 253 404 253 C596 253 772 386 772 586 C772 634 760 680 736 722 C747 788 814 813 874 813 L916 813 L922 848 L702 848 L673 779 C631 835 535 878 447 878 C244 878 75 746 75 560 C75 444 133 362 218 302 C132 281 37 225 37 128 C37 23 146 -26 231 -40 L494 -83 C592 -99 646 -151 646 -216 C646 -351 487 -404 379 -404 C207 -404 82 -319 82 -159 C82 -143 83 -126 86 -109 L36 -109 L0 -317 Z M452 837 C511 837 553 797 553 623 C553 510 514 294 405 294 C343 294 298 332 298 488 C298 611 325 837 452 837 L452 837 Z M614 1207 C614 1266 569 1311 512 1311 C433 1311 369 1237 369 1166 C369 1108 412 1062 471 1062 C549 1062 614 1137 614 1207 L614 1207 Z " />
<glyph glyph-name="Gcommaaccent" unicode="&#x122;" horiz-adv-x="1316" d="M1113 185 L1177 638 L791 638 L783 585 L848 585 C900 585 913 557 913 523 C913 513 912 502 910 491 L874 237 C856 108 751 37 633 37 C404 37 368 308 368 476 C368 743 434 1302 820 1302 C995 1302 1100 1148 1100 992 C1100 978 1100 965 1099 952 L1164 952 L1206 1248 C1098 1321 945 1363 811 1363 C334 1363 100 1004 100 575 C100 244 274 -25 626 -25 C806 -25 997 52 1113 185 L1113 185 Z M513 -415 C596 -388 681 -337 695 -261 C676 -274 653 -282 632 -282 C577 -282 540 -227 540 -178 C540 -115 596 -69 654 -69 C731 -69 774 -138 774 -206 C774 -347 650 -438 535 -472 L513 -415 Z " />
<glyph glyph-name="gcommaaccent" unicode="&#x123;" horiz-adv-x="892" d="M0 -317 C106 -414 246 -452 383 -452 C578 -452 806 -359 806 -143 C806 9 667 68 539 89 L355 119 C296 129 225 139 225 203 C225 232 241 260 276 273 C310 259 355 253 404 253 C596 253 772 386 772 586 C772 634 760 680 736 722 C747 788 814 813 874 813 L916 813 L922 848 L702 848 L673 779 C631 835 535 878 447 878 C244 878 75 746 75 560 C75 444 133 362 218 302 C132 281 37 225 37 128 C37 23 146 -26 231 -40 L494 -83 C592 -99 646 -151 646 -216 C646 -351 487 -404 379 -404 C207 -404 82 -319 82 -159 C82 -143 83 -126 86 -109 L36 -109 L0 -317 Z M452 837 C511 837 553 797 553 623 C553 510 514 294 405 294 C343 294 298 332 298 488 C298 611 325 837 452 837 L452 837 Z M606 1342 C491 1308 367 1217 367 1076 C367 1008 410 939 487 939 C545 939 601 985 601 1048 C601 1097 564 1152 509 1152 C488 1152 465 1144 446 1131 C460 1207 545 1258 628 1285 L606 1342 Z " />
<glyph glyph-name="Itilde" unicode="&#x128;" horiz-adv-x="696" d="M726 1338 L196 1338 L190 1293 C271 1293 317 1287 317 1218 C317 1209 313 1168 311 1157 L165 133 C154 59 107 46 13 45 L5 0 L535 0 L541 45 C460 45 414 51 414 120 C414 129 416 157 418 168 L566 1205 C577 1279 624 1292 718 1293 L726 1338 Z M718 1718 C684 1656 628 1610 588 1610 C502 1610 457 1722 342 1722 C244 1722 166 1638 111 1554 L170 1464 C202 1529 257 1577 300 1577 C388 1577 431 1466 545 1466 C638 1466 714 1542 768 1618 L718 1718 Z " />
<glyph glyph-name="itilde" unicode="&#x129;" horiz-adv-x="520" d="M420 848 L90 848 L83 812 L128 812 C166 812 175 785 175 756 C175 740 172 724 170 711 L93 269 C86 229 80 187 80 149 C80 40 130 -30 239 -30 C390 -30 468 63 518 202 L458 202 C435 124 369 45 332 45 C302 45 295 74 295 103 C295 127 300 152 302 161 L420 848 Z M569 1293 C535 1231 479 1185 439 1185 C353 1185 308 1297 193 1297 C95 1297 17 1213 -38 1129 L21 1039 C53 1104 108 1152 151 1152 C239 1152 282 1041 396 1041 C489 1041 565 1117 619 1193 L569 1293 Z " />
<glyph glyph-name="Imacron" unicode="&#x12a;" horiz-adv-x="696" d="M726 1338 L196 1338 L190 1293 C271 1293 317 1287 317 1218 C317 1209 313 1168 311 1157 L165 133 C154 59 107 46 13 45 L5 0 L535 0 L541 45 C460 45 414 51 414 120 C414 129 416 157 418 168 L566 1205 C577 1279 624 1292 718 1293 L726 1338 Z M212 1550 L748 1550 L772 1698 L236 1698 L212 1550 Z " />
<glyph glyph-name="imacron" unicode="&#x12b;" horiz-adv-x="520" d="M420 848 L90 848 L83 812 L128 812 C166 812 175 785 175 756 C175 740 172 724 170 711 L93 269 C86 229 80 187 80 149 C80 40 130 -30 239 -30 C390 -30 468 63 518 202 L458 202 C435 124 369 45 332 45 C302 45 295 74 295 103 C295 127 300 152 302 161 L420 848 Z M71 1118 L537 1118 L557 1246 L91 1246 L71 1118 Z " />
<glyph glyph-name="Ibreve" unicode="&#x12c;" horiz-adv-x="696" d="M726 1338 L196 1338 L190 1293 C271 1293 317 1287 317 1218 C317 1209 313 1168 311 1157 L165 133 C154 59 107 46 13 45 L5 0 L535 0 L541 45 C460 45 414 51 414 120 C414 129 416 157 418 168 L566 1205 C577 1279 624 1292 718 1293 L726 1338 Z M712 1734 C712 1734 615 1575 473 1575 C333 1575 289 1734 289 1734 L198 1693 C209 1608 258 1451 453 1451 C648 1451 753 1611 784 1694 L712 1734 Z " />
<glyph glyph-name="ibreve" unicode="&#x12d;" horiz-adv-x="520" d="M420 848 L90 848 L83 812 L128 812 C166 812 175 785 175 756 C175 740 172 724 170 711 L93 269 C86 229 80 187 80 149 C80 40 130 -30 239 -30 C390 -30 468 63 518 202 L458 202 C435 124 369 45 332 45 C302 45 295 74 295 103 C295 127 300 152 302 161 L420 848 Z M559 1318 C559 1318 462 1159 320 1159 C180 1159 136 1318 136 1318 L45 1277 C56 1192 105 1035 300 1035 C495 1035 600 1195 631 1278 L559 1318 Z " />
<glyph glyph-name="Iogonek" unicode="&#x12e;" horiz-adv-x="696" d="M726 1338 L196 1338 L190 1293 C271 1293 317 1287 317 1218 C317 1209 313 1168 311 1157 L165 133 C154 59 107 46 13 45 L5 0 L416 0 C328 -39 257 -114 257 -211 C257 -293 322 -347 395 -362 L466 -233 C415 -225 390 -185 390 -142 C390 -59 466 -7 535 0 L541 45 C460 45 414 51 414 120 C414 129 416 157 418 168 L566 1205 C577 1279 624 1292 718 1293 L726 1338 Z " />
<glyph glyph-name="iogonek" unicode="&#x12f;" horiz-adv-x="515" d="M388 848 L58 848 L51 812 L96 812 C134 812 143 785 143 756 C143 740 140 724 138 711 L61 269 C54 229 48 187 48 149 C48 53 86 -12 169 -27 C105 -69 59 -133 59 -211 C59 -293 124 -347 197 -362 L268 -233 C217 -225 192 -185 192 -142 C192 -89 222 -49 262 -25 C289 -20 314 -12 336 0 L337 0 L336 0 C407 38 453 110 486 202 L426 202 C403 124 337 45 300 45 C270 45 263 74 263 103 C263 127 268 152 270 161 L388 848 Z M325 1338 C240 1338 193 1262 193 1207 C193 1140 247 1100 304 1100 C389 1100 436 1176 436 1231 C436 1298 382 1338 325 1338 L325 1338 Z " />
<glyph glyph-name="uni0130" unicode="&#x130;" horiz-adv-x="696" d="M726 1338 L196 1338 L190 1293 C271 1293 317 1287 317 1218 C317 1209 313 1168 311 1157 L165 133 C154 59 107 46 13 45 L5 0 L535 0 L541 45 C460 45 414 51 414 120 C414 129 416 157 418 168 L566 1205 C577 1279 624 1292 718 1293 L726 1338 Z M599 1632 C595 1693 547 1738 488 1738 C408 1738 349 1663 354 1591 C358 1531 404 1485 465 1485 C544 1485 604 1561 599 1632 L599 1632 Z " />
<glyph glyph-name="dotlessi" unicode="&#x131;" horiz-adv-x="573" d="M420 848 L90 848 L83 812 L128 812 C166 812 175 785 175 756 C175 740 172 724 170 711 L93 269 C86 229 80 187 80 149 C80 40 130 -30 239 -30 C390 -30 468 63 518 202 L458 202 C435 124 369 45 332 45 C302 45 295 74 295 103 C295 127 300 152 302 161 L420 848 Z " />
<glyph glyph-name="IJ" unicode="&#x132;" horiz-adv-x="1432" d="M726 1338 L196 1338 L190 1293 C271 1293 317 1287 317 1218 C317 1209 313 1168 311 1157 L165 133 C154 59 107 46 13 45 L5 0 L535 0 L541 45 C460 45 414 51 414 120 C414 129 416 157 418 168 L566 1205 C577 1279 624 1292 718 1293 L726 1338 Z M1472 1338 L942 1338 L936 1293 C1017 1293 1063 1287 1063 1218 C1063 1209 1059 1168 1057 1157 L920 194 C908 109 845 39 766 39 C664 39 639 137 639 233 C639 254 640 275 642 294 L582 294 L550 72 C624 17 703 -25 825 -25 C1046 -25 1157 114 1181 281 L1312 1205 C1323 1279 1370 1292 1464 1293 L1472 1338 Z " />
<glyph glyph-name="ij" unicode="&#x133;" horiz-adv-x="1085" d="M420 848 L90 848 L83 812 L128 812 C166 812 175 785 175 756 C175 740 172 724 170 711 L93 269 C86 229 80 187 80 149 C80 40 130 -30 239 -30 C390 -30 468 63 518 202 L458 202 C435 124 369 45 332 45 C302 45 295 74 295 103 C295 127 300 152 302 161 L420 848 Z M357 1338 C272 1338 225 1262 225 1207 C225 1140 279 1100 336 1100 C421 1100 468 1176 468 1231 C468 1298 414 1338 357 1338 L357 1338 Z M988 848 L658 848 L651 812 L696 812 C734 812 743 785 743 756 C743 740 740 724 738 711 L595 -103 C581 -185 567 -405 450 -405 C381 -405 364 -335 364 -274 C364 -257 365 -241 367 -227 L317 -227 L296 -373 C328 -414 392 -450 471 -450 C630 -450 780 -340 827 -71 L988 848 Z M925 1338 C840 1338 793 1262 793 1207 C793 1140 847 1100 904 1100 C989 1100 1036 1176 1036 1231 C1036 1298 982 1338 925 1338 L925 1338 Z " />
<glyph glyph-name="Kcommaaccent" unicode="&#x136;" horiz-adv-x="1292" d="M726 1338 L196 1338 L190 1293 C271 1293 317 1287 317 1218 C317 1209 313 1168 311 1157 L165 133 C154 59 107 46 13 45 L5 0 L535 0 L541 45 C460 45 414 51 414 120 C414 129 416 157 418 168 L486 649 L513 675 L815 148 C825 131 834 110 834 92 C834 66 816 45 759 45 L714 45 L708 0 L1249 0 L1255 45 L1221 45 C1148 45 1122 84 1089 141 L677 838 L1135 1293 L1281 1293 L1287 1338 L883 1338 L877 1293 L1036 1293 L502 758 L566 1205 C577 1279 624 1292 718 1293 L726 1338 Z M490 -415 C573 -388 658 -337 672 -261 C653 -274 630 -282 609 -282 C554 -282 517 -227 517 -178 C517 -115 573 -69 631 -69 C708 -69 751 -138 751 -206 C751 -347 627 -438 512 -472 L490 -415 Z " />
<glyph glyph-name="kcommaaccent" unicode="&#x137;" horiz-adv-x="938" d="M502 1338 L172 1338 L165 1302 L210 1302 C248 1302 257 1275 257 1246 C257 1230 254 1214 252 1201 L45 0 L269 0 L356 502 L362 502 C413 502 429 444 450 349 L498 128 C512 64 545 -30 669 -30 C820 -30 892 85 923 202 L873 202 C838 105 801 56 768 56 C722 56 708 105 690 204 L670 317 C646 451 602 518 432 524 L432 528 C528 541 588 609 641 670 C702 740 744 813 840 813 L884 813 L891 848 L627 848 C593 749 495 560 377 560 L366 560 L502 1338 Z M290 -415 C373 -388 458 -337 472 -261 C453 -274 430 -282 409 -282 C354 -282 317 -227 317 -178 C317 -115 373 -69 431 -69 C508 -69 551 -138 551 -206 C551 -347 427 -438 312 -472 L290 -415 Z " />
<glyph glyph-name="Lacute" unicode="&#x139;" horiz-adv-x="1078" d="M5 0 L977 0 L1028 356 L962 356 C921 144 855 65 746 65 L404 65 L566 1205 C577 1279 624 1292 718 1293 L726 1338 L196 1338 L190 1293 C271 1293 317 1287 317 1218 C317 1209 313 1168 311 1157 L165 133 C154 59 107 46 13 45 L5 0 Z M441 1425 L715 1578 L715 1805 L312 1425 L441 1425 Z " />
<glyph glyph-name="lacute" unicode="&#x13a;" horiz-adv-x="543" d="M501 1338 L171 1338 L164 1302 L209 1302 C247 1302 256 1275 256 1246 C256 1230 253 1214 251 1201 L88 269 C81 229 75 187 75 149 C75 40 125 -30 234 -30 C385 -30 463 63 513 202 L453 202 C430 124 364 45 327 45 C297 45 290 74 290 103 C290 127 295 152 297 161 L501 1338 Z M336 1425 L610 1578 L610 1805 L207 1425 L336 1425 Z " />
<glyph glyph-name="Lcommaaccent" unicode="&#x13b;" horiz-adv-x="1078" d="M5 0 L977 0 L1028 356 L962 356 C921 144 855 65 746 65 L404 65 L566 1205 C577 1279 624 1292 718 1293 L726 1338 L196 1338 L190 1293 C271 1293 317 1287 317 1218 C317 1209 313 1168 311 1157 L165 133 C154 59 107 46 13 45 L5 0 Z M420 -415 C503 -388 588 -337 602 -261 C583 -274 560 -282 539 -282 C484 -282 447 -227 447 -178 C447 -115 503 -69 561 -69 C638 -69 681 -138 681 -206 C681 -347 557 -438 442 -472 L420 -415 Z " />
<glyph glyph-name="lcommaaccent" unicode="&#x13c;" horiz-adv-x="543" d="M54 -415 C137 -388 222 -337 236 -261 C217 -274 194 -282 173 -282 C118 -282 81 -227 81 -178 C81 -115 137 -69 195 -69 C272 -69 315 -138 315 -206 C315 -347 191 -438 76 -472 L54 -415 Z M501 1338 L171 1338 L164 1302 L209 1302 C247 1302 256 1275 256 1246 C256 1230 253 1214 251 1201 L88 269 C81 229 75 187 75 149 C75 40 125 -30 234 -30 C385 -30 463 63 513 202 L453 202 C430 124 364 45 327 45 C297 45 290 74 290 103 C290 127 295 152 297 161 L501 1338 Z " />
<glyph glyph-name="Ldot" unicode="&#x13f;" horiz-adv-x="1078" d="M5 0 L977 0 L1028 356 L962 356 C921 144 855 65 746 65 L404 65 L566 1205 C577 1279 624 1292 718 1293 L726 1338 L196 1338 L190 1293 C271 1293 317 1287 317 1218 C317 1209 313 1168 311 1157 L165 133 C154 59 107 46 13 45 L5 0 Z M1043 719 C1043 790 983 849 914 849 C843 849 784 790 784 719 C784 649 843 588 914 588 C983 588 1043 649 1043 719 L1043 719 Z " />
<glyph glyph-name="ldot" unicode="&#x140;" horiz-adv-x="693" d="M501 1338 L171 1338 L164 1302 L209 1302 C247 1302 256 1275 256 1246 C256 1230 253 1214 251 1201 L88 269 C81 229 75 187 75 149 C75 40 125 -30 234 -30 C385 -30 463 63 513 202 L453 202 C430 124 364 45 327 45 C297 45 290 74 290 103 C290 127 295 152 297 161 L501 1338 Z M733 609 C733 680 673 739 604 739 C533 739 474 680 474 609 C474 539 533 478 604 478 C673 478 733 539 733 609 L733 609 Z " />
<glyph glyph-name="Lslash" unicode="&#x141;" horiz-adv-x="1078" d="M27 318 L214 477 L165 133 C154 59 107 46 13 45 L5 0 L977 0 L1028 356 L962 356 C921 144 855 65 746 65 L404 65 L497 718 L720 909 L720 1029 L516 856 L566 1205 C577 1279 624 1292 718 1293 L726 1338 L196 1338 L190 1293 C271 1293 317 1287 317 1218 C317 1209 313 1168 311 1157 L233 615 L26 438 L27 318 Z " />
<glyph glyph-name="lslash" unicode="&#x142;" horiz-adv-x="543" d="M501 1338 L171 1338 L164 1302 L209 1302 C247 1302 256 1275 256 1246 C256 1230 253 1214 251 1201 L136 544 L1 408 L2 303 L113 416 L88 269 C81 229 75 187 75 149 C75 40 125 -30 234 -30 C385 -30 463 63 513 202 L453 202 C430 124 364 45 327 45 C297 45 290 74 290 103 C290 127 295 152 297 161 L389 696 L533 841 L533 946 L411 823 L501 1338 Z " />
<glyph glyph-name="Nacute" unicode="&#x143;" horiz-adv-x="1340" d="M964 1293 L1008 1293 C1087 1293 1132 1286 1132 1218 C1132 1209 1130 1181 1128 1170 L999 256 L552 1338 L196 1338 L190 1293 C271 1293 317 1287 317 1218 C317 1209 313 1168 311 1157 L165 133 C154 59 107 46 13 45 L5 0 L406 0 L412 45 L368 45 C288 45 243 51 243 120 C243 129 245 157 247 168 L376 1082 L828 0 L1037 0 L1210 1205 C1221 1279 1268 1292 1362 1293 L1370 1338 L970 1338 L964 1293 Z M776 1425 L1050 1578 L1050 1805 L647 1425 L776 1425 Z " />
<glyph glyph-name="nacute" unicode="&#x144;" horiz-adv-x="1069" d="M417 848 L87 848 L80 812 L125 812 C163 812 172 785 172 756 C172 740 169 724 167 711 L45 0 L269 0 L339 382 C351 450 375 582 419 670 C456 745 530 813 606 813 C661 813 686 765 686 722 C686 678 679 646 674 616 L613 269 C604 221 598 175 598 134 C598 37 642 -30 757 -30 C907 -30 977 91 1013 202 L953 202 C930 124 872 45 835 45 C814 45 808 66 808 97 C808 127 818 175 820 186 L884 536 C890 571 894 604 894 635 C894 781 821 878 648 878 C543 878 442 822 398 740 L417 848 Z M540 996 L814 1170 L814 1397 L411 996 L540 996 Z " />
<glyph glyph-name="Ncommaaccent" unicode="&#x145;" horiz-adv-x="1340" d="M964 1293 L1008 1293 C1087 1293 1132 1286 1132 1218 C1132 1209 1130 1181 1128 1170 L999 256 L552 1338 L196 1338 L190 1293 C271 1293 317 1287 317 1218 C317 1209 313 1168 311 1157 L165 133 C154 59 107 46 13 45 L5 0 L406 0 L412 45 L368 45 C288 45 243 51 243 120 C243 129 245 157 247 168 L376 1082 L828 0 L1037 0 L1210 1205 C1221 1279 1268 1292 1362 1293 L1370 1338 L970 1338 L964 1293 Z M477 -415 C560 -388 645 -337 659 -261 C640 -274 617 -282 596 -282 C541 -282 504 -227 504 -178 C504 -115 560 -69 618 -69 C695 -69 738 -138 738 -206 C738 -347 614 -438 499 -472 L477 -415 Z " />
<glyph glyph-name="ncommaaccent" unicode="&#x146;" horiz-adv-x="1069" d="M417 848 L87 848 L80 812 L125 812 C163 812 172 785 172 756 C172 740 169 724 167 711 L45 0 L269 0 L339 382 C351 450 375 582 419 670 C456 745 530 813 606 813 C661 813 686 765 686 722 C686 678 679 646 674 616 L613 269 C604 221 598 175 598 134 C598 37 642 -30 757 -30 C907 -30 977 91 1013 202 L953 202 C930 124 872 45 835 45 C814 45 808 66 808 97 C808 127 818 175 820 186 L884 536 C890 571 894 604 894 635 C894 781 821 878 648 878 C543 878 442 822 398 740 L417 848 Z M320 -415 C403 -388 488 -337 502 -261 C483 -274 460 -282 439 -282 C384 -282 347 -227 347 -178 C347 -115 403 -69 461 -69 C538 -69 581 -138 581 -206 C581 -347 457 -438 342 -472 L320 -415 Z " />
<glyph glyph-name="Ncaron" unicode="&#x147;" horiz-adv-x="1340" d="M964 1293 L1008 1293 C1087 1293 1132 1286 1132 1218 C1132 1209 1130 1181 1128 1170 L999 256 L552 1338 L196 1338 L190 1293 C271 1293 317 1287 317 1218 C317 1209 313 1168 311 1157 L165 133 C154 59 107 46 13 45 L5 0 L406 0 L412 45 L368 45 C288 45 243 51 243 120 C243 129 245 157 247 168 L376 1082 L828 0 L1037 0 L1210 1205 C1221 1279 1268 1292 1362 1293 L1370 1338 L970 1338 L964 1293 Z M810 1588 L643 1747 L514 1747 L738 1425 L830 1425 L1155 1747 L1027 1747 L810 1588 Z " />
<glyph glyph-name="ncaron" unicode="&#x148;" horiz-adv-x="1069" d="M417 848 L87 848 L80 812 L125 812 C163 812 172 785 172 756 C172 740 169 724 167 711 L45 0 L269 0 L339 382 C351 450 375 582 419 670 C456 745 530 813 606 813 C661 813 686 765 686 722 C686 678 679 646 674 616 L613 269 C604 221 598 175 598 134 C598 37 642 -30 757 -30 C907 -30 977 91 1013 202 L953 202 C930 124 872 45 835 45 C814 45 808 66 808 97 C808 127 818 175 820 186 L884 536 C890 571 894 604 894 635 C894 781 821 878 648 878 C543 878 442 822 398 740 L417 848 Z M566 1159 L399 1318 L270 1318 L494 996 L586 996 L911 1318 L783 1318 L566 1159 Z " />
<glyph glyph-name="Omacron" unicode="&#x14c;" horiz-adv-x="1328" d="M1236 785 C1231 1095 1091 1363 753 1363 C364 1363 95 1028 95 560 C95 227 256 -25 580 -25 C969 -25 1236 286 1236 785 L1236 785 Z M941 636 C911 338 844 36 568 36 C400 36 359 189 359 317 C359 438 375 565 393 702 C430 995 491 1302 765 1302 C925 1302 970 1162 970 1002 C970 864 951 750 941 636 L941 636 Z M493 1550 L1029 1550 L1053 1698 L517 1698 L493 1550 Z " />
<glyph glyph-name="omacron" unicode="&#x14d;" horiz-adv-x="944" d="M502 878 C187 878 50 598 50 340 C50 152 167 -30 401 -30 C691 -30 844 254 844 485 C844 680 744 878 502 878 L502 878 Z M616 616 C616 519 602 15 388 15 C288 15 277 153 277 223 C277 317 286 832 505 832 C609 832 616 688 616 616 L616 616 Z M282 1118 L748 1118 L768 1246 L302 1246 L282 1118 Z " />
<glyph glyph-name="Obreve" unicode="&#x14e;" horiz-adv-x="1328" d="M1236 785 C1231 1095 1091 1363 753 1363 C364 1363 95 1028 95 560 C95 227 256 -25 580 -25 C969 -25 1236 286 1236 785 L1236 785 Z M941 636 C911 338 844 36 568 36 C400 36 359 189 359 317 C359 438 375 565 393 702 C430 995 491 1302 765 1302 C925 1302 970 1162 970 1002 C970 864 951 750 941 636 L941 636 Z M984 1734 C984 1734 887 1575 745 1575 C605 1575 561 1734 561 1734 L470 1693 C481 1608 530 1451 725 1451 C920 1451 1025 1611 1056 1694 L984 1734 Z " />
<glyph glyph-name="obreve" unicode="&#x14f;" horiz-adv-x="944" d="M502 878 C187 878 50 598 50 340 C50 152 167 -30 401 -30 C691 -30 844 254 844 485 C844 680 744 878 502 878 L502 878 Z M616 616 C616 519 602 15 388 15 C288 15 277 153 277 223 C277 317 286 832 505 832 C609 832 616 688 616 616 L616 616 Z M754 1318 C754 1318 657 1159 515 1159 C375 1159 331 1318 331 1318 L240 1277 C251 1192 300 1035 495 1035 C690 1035 795 1195 826 1278 L754 1318 Z " />
<glyph glyph-name="Ohungarumlaut" unicode="&#x150;" horiz-adv-x="1328" d="M1236 785 C1231 1095 1091 1363 753 1363 C364 1363 95 1028 95 560 C95 227 256 -25 580 -25 C969 -25 1236 286 1236 785 L1236 785 Z M941 636 C911 338 844 36 568 36 C400 36 359 189 359 317 C359 438 375 565 393 702 C430 995 491 1302 765 1302 C925 1302 970 1162 970 1002 C970 864 951 750 941 636 L941 636 Z M580 1425 L854 1588 L854 1805 L451 1425 L580 1425 Z M899 1425 L1173 1588 L1173 1805 L770 1425 L899 1425 Z " />
<glyph glyph-name="ohungarumlaut" unicode="&#x151;" horiz-adv-x="944" d="M502 878 C187 878 50 598 50 340 C50 152 167 -30 401 -30 C691 -30 844 254 844 485 C844 680 744 878 502 878 L502 878 Z M616 616 C616 519 602 15 388 15 C288 15 277 153 277 223 C277 317 286 832 505 832 C609 832 616 688 616 616 L616 616 Z M349 996 L623 1180 L623 1397 L220 996 L349 996 Z M668 996 L942 1180 L942 1397 L539 996 L668 996 Z " />
<glyph glyph-name="OE" unicode="&#x152;" horiz-adv-x="1748" d="M1553 0 L1639 332 L1572 332 C1515 128 1478 55 1369 55 L1041 55 L1129 678 L1244 678 C1322 678 1348 658 1348 587 C1348 562 1344 531 1339 492 L1403 492 L1463 920 L1398 920 C1377 771 1356 734 1251 734 L1137 734 L1214 1283 L1495 1283 C1646 1283 1651 1238 1651 1098 L1716 1098 L1716 1338 L894 1338 C851 1354 804 1363 753 1363 C364 1363 95 1028 95 560 C95 227 256 -25 580 -25 C631 -25 681 -16 731 0 L1553 0 Z M393 702 C425 952 475 1302 742 1302 C879 1302 917 1192 917 1055 C917 999 910 938 902 878 L832 382 C808 213 749 37 557 37 C407 37 360 198 360 317 C360 438 375 565 393 702 L393 702 Z " />
<glyph glyph-name="oe" unicode="&#x153;" horiz-adv-x="1409" d="M928 -30 C1092 -30 1214 56 1292 202 L1228 202 C1173 107 1072 22 966 22 C834 22 815 187 815 280 C815 332 819 380 825 418 C867 406 918 396 966 396 C1134 396 1322 470 1322 647 C1322 802 1168 879 1036 879 C918 879 822 839 749 773 C693 836 613 878 502 878 C187 878 50 598 50 340 C50 152 167 -30 401 -30 C516 -30 609 15 680 83 C739 12 823 -30 928 -30 L928 -30 Z M616 616 C616 519 602 15 388 15 C288 15 277 153 277 223 C277 317 286 832 505 832 C609 832 616 688 616 616 L616 616 Z M1112 701 C1112 584 1063 450 933 450 C905 450 864 458 834 479 C855 623 906 742 959 799 C980 822 1007 834 1032 834 C1101 834 1112 751 1112 701 L1112 701 Z " />
<glyph glyph-name="Racute" unicode="&#x154;" horiz-adv-x="1227" d="M489 650 L550 650 L833 0 L1185 0 L1192 45 L1082 45 L780 679 C994 750 1118 873 1118 1040 C1118 1195 1004 1338 706 1338 L196 1338 L190 1293 C271 1293 317 1287 317 1218 C317 1209 313 1168 311 1157 L165 133 C154 59 107 46 13 45 L5 0 L586 0 L592 45 L537 45 C458 45 414 52 414 120 C414 129 416 157 418 168 L489 650 Z M632 1284 C837 1284 866 1165 866 1044 C865 885 744 709 546 709 L496 709 L577 1284 L632 1284 Z M666 1425 L940 1578 L940 1805 L537 1425 L666 1425 Z " />
<glyph glyph-name="racute" unicode="&#x155;" horiz-adv-x="773" d="M400 739 L417 848 L90 848 L83 812 L128 812 C166 812 175 785 175 756 C175 740 172 724 170 711 L50 0 L269 0 L355 481 C380 622 438 785 593 785 C697 785 710 677 710 609 L755 609 L788 801 C752 854 689 878 630 878 C534 878 444 819 400 739 L400 739 Z M429 996 L703 1170 L703 1397 L300 996 L429 996 Z " />
<glyph glyph-name="Rcommaaccent" unicode="&#x156;" horiz-adv-x="1227" d="M489 650 L550 650 L833 0 L1185 0 L1192 45 L1082 45 L780 679 C994 750 1118 873 1118 1040 C1118 1195 1004 1338 706 1338 L196 1338 L190 1293 C271 1293 317 1287 317 1218 C317 1209 313 1168 311 1157 L165 133 C154 59 107 46 13 45 L5 0 L586 0 L592 45 L537 45 C458 45 414 52 414 120 C414 129 416 157 418 168 L489 650 Z M632 1284 C837 1284 866 1165 866 1044 C865 885 744 709 546 709 L496 709 L577 1284 L632 1284 Z M530 -415 C613 -388 698 -337 712 -261 C693 -274 670 -282 649 -282 C594 -282 557 -227 557 -178 C557 -115 613 -69 671 -69 C748 -69 791 -138 791 -206 C791 -347 667 -438 552 -472 L530 -415 Z " />
<glyph glyph-name="rcommaaccent" unicode="&#x157;" horiz-adv-x="773" d="M-15 -415 C68 -388 153 -337 167 -261 C148 -274 125 -282 104 -282 C49 -282 12 -227 12 -178 C12 -115 68 -69 126 -69 C203 -69 246 -138 246 -206 C246 -347 122 -438 7 -472 L-15 -415 Z M400 739 L417 848 L90 848 L83 812 L128 812 C166 812 175 785 175 756 C175 740 172 724 170 711 L50 0 L269 0 L355 481 C380 622 438 785 593 785 C697 785 710 677 710 609 L755 609 L788 801 C752 854 689 878 630 878 C534 878 444 819 400 739 L400 739 Z " />
<glyph glyph-name="Rcaron" unicode="&#x158;" horiz-adv-x="1227" d="M489 650 L550 650 L833 0 L1185 0 L1192 45 L1082 45 L780 679 C994 750 1118 873 1118 1040 C1118 1195 1004 1338 706 1338 L196 1338 L190 1293 C271 1293 317 1287 317 1218 C317 1209 313 1168 311 1157 L165 133 C154 59 107 46 13 45 L5 0 L586 0 L592 45 L537 45 C458 45 414 52 414 120 C414 129 416 157 418 168 L489 650 Z M632 1284 C837 1284 866 1165 866 1044 C865 885 744 709 546 709 L496 709 L577 1284 L632 1284 Z M706 1588 L539 1747 L410 1747 L634 1425 L726 1425 L1051 1747 L923 1747 L706 1588 Z " />
<glyph glyph-name="rcaron" unicode="&#x159;" horiz-adv-x="773" d="M400 739 L417 848 L90 848 L83 812 L128 812 C166 812 175 785 175 756 C175 740 172 724 170 711 L50 0 L269 0 L355 481 C380 622 438 785 593 785 C697 785 710 677 710 609 L755 609 L788 801 C752 854 689 878 630 878 C534 878 444 819 400 739 L400 739 Z M486 1159 L319 1318 L190 1318 L414 996 L506 996 L831 1318 L703 1318 L486 1159 Z " />
<glyph glyph-name="Sacute" unicode="&#x15a;" horiz-adv-x="1106" d="M1031 1218 C921 1316 785 1364 646 1364 C417 1364 177 1237 177 991 C177 827 265 698 415 622 L612 523 C703 478 744 396 744 306 C744 143 613 38 459 38 C247 38 159 219 159 401 C159 422 159 444 161 468 L96 468 L55 107 C169 27 297 -25 474 -25 C752 -25 993 125 993 380 C993 533 895 668 751 739 L549 839 C452 887 413 964 413 1050 C413 1195 543 1300 679 1300 C847 1300 941 1140 941 994 C941 980 940 966 938 952 L1003 952 L1031 1218 Z M646 1425 L920 1578 L920 1805 L517 1425 L646 1425 Z " />
<glyph glyph-name="sacute" unicode="&#x15b;" horiz-adv-x="757" d="M33 289 L-5 65 C95 0 192 -31 305 -31 C461 -31 639 43 639 217 C639 333 559 416 475 479 L354 569 C317 596 298 638 298 680 C298 765 370 832 451 832 C564 832 614 729 614 639 C614 630 613 621 612 612 L660 612 L692 794 C610 852 514 879 417 879 C267 879 115 793 115 635 C115 542 164 456 236 404 L355 317 C407 278 435 216 435 158 C435 73 362 14 283 14 C147 14 78 129 78 245 C78 260 79 274 81 289 L33 289 Z M418 996 L692 1170 L692 1397 L289 996 L418 996 Z " />
<glyph glyph-name="Scedilla" unicode="&#x15e;" horiz-adv-x="1106" d="M1031 1218 C921 1316 785 1364 646 1364 C417 1364 177 1237 177 991 C177 827 265 698 415 622 L612 523 C703 478 744 396 744 306 C744 143 613 38 459 38 C247 38 159 219 159 401 C159 422 159 444 161 468 L96 468 L55 107 C169 27 297 -25 474 -25 C482 -25 490 -24 497 -24 L360 -150 L400 -200 C421 -185 444 -175 468 -175 C512 -175 526 -218 526 -253 C526 -308 492 -384 431 -384 C396 -384 360 -358 328 -333 L280 -392 C324 -429 372 -453 429 -453 C552 -453 662 -358 662 -241 C662 -138 573 -108 530 -108 C526 -108 512 -108 503 -110 L615 -11 C828 30 993 169 993 380 C993 533 895 668 751 739 L549 839 C452 887 413 964 413 1050 C413 1195 543 1300 679 1300 C847 1300 941 1140 941 994 C941 980 940 966 938 952 L1003 952 L1031 1218 Z " />
<glyph glyph-name="scedilla" unicode="&#x15f;" horiz-adv-x="757" d="M33 289 L-5 65 C90 3 182 -28 289 -31 L170 -140 L207 -187 C226 -173 250 -164 272 -164 C312 -164 325 -205 325 -236 C325 -288 293 -359 236 -359 C203 -359 170 -335 140 -311 L95 -366 C136 -401 181 -423 234 -423 C349 -423 452 -335 452 -225 C452 -129 369 -101 328 -101 C325 -101 312 -101 303 -103 L394 -23 C521 0 639 75 639 217 C639 333 559 416 475 479 L354 569 C317 596 298 638 298 680 C298 765 370 832 451 832 C564 832 614 729 614 639 C614 630 613 621 612 612 L660 612 L692 794 C610 852 514 879 417 879 C267 879 115 793 115 635 C115 542 164 456 236 404 L355 317 C407 278 435 216 435 158 C435 73 362 14 283 14 C147 14 78 129 78 245 C78 260 79 274 81 289 L33 289 Z " />
<glyph glyph-name="Scaron" unicode="&#x160;" horiz-adv-x="1106" d="M1031 1218 C921 1316 785 1364 646 1364 C417 1364 177 1237 177 991 C177 827 265 698 415 622 L612 523 C703 478 744 396 744 306 C744 143 613 38 459 38 C247 38 159 219 159 401 C159 422 159 444 161 468 L96 468 L55 107 C169 27 297 -25 474 -25 C752 -25 993 125 993 380 C993 533 895 668 751 739 L549 839 C452 887 413 964 413 1050 C413 1195 543 1300 679 1300 C847 1300 941 1140 941 994 C941 980 940 966 938 952 L1003 952 L1031 1218 Z M666 1588 L499 1747 L370 1747 L594 1425 L686 1425 L1011 1747 L883 1747 L666 1588 Z " />
<glyph glyph-name="scaron" unicode="&#x161;" horiz-adv-x="757" d="M33 289 L-5 65 C95 0 192 -31 305 -31 C461 -31 639 43 639 217 C639 333 559 416 475 479 L354 569 C317 596 298 638 298 680 C298 765 370 832 451 832 C564 832 614 729 614 639 C614 630 613 621 612 612 L660 612 L692 794 C610 852 514 879 417 879 C267 879 115 793 115 635 C115 542 164 456 236 404 L355 317 C407 278 435 216 435 158 C435 73 362 14 283 14 C147 14 78 129 78 245 C78 260 79 274 81 289 L33 289 Z M450 1159 L283 1318 L154 1318 L378 996 L470 996 L795 1318 L667 1318 L450 1159 Z " />
<glyph glyph-name="Tcedilla" unicode="&#x162;" horiz-adv-x="1009" d="M400 0 L236 -150 L276 -200 C297 -185 320 -175 344 -175 C388 -175 402 -218 402 -253 C402 -308 368 -384 307 -384 C272 -384 236 -358 204 -333 L156 -392 C200 -429 248 -453 305 -453 C428 -453 538 -358 538 -241 C538 -138 449 -108 406 -108 C402 -108 388 -108 379 -110 L504 0 L685 0 L691 45 C610 45 564 51 564 120 C564 129 566 157 568 168 L725 1283 L898 1283 C1020 1283 1043 1226 1043 1022 L1107 1022 L1119 1338 L129 1338 L40 1022 L105 1022 C165 1226 224 1283 333 1283 L478 1283 L315 133 C304 59 257 46 163 45 L155 0 L400 0 Z " />
<glyph glyph-name="tcedilla" unicode="&#x163;" horiz-adv-x="620" d="M55 812 L184 812 L95 290 C89 254 79 191 79 164 C79 51 144 -14 238 -27 L115 -140 L152 -187 C171 -173 195 -164 217 -164 C257 -164 270 -205 270 -236 C270 -288 238 -359 181 -359 C148 -359 115 -335 85 -311 L40 -366 C81 -401 126 -423 179 -423 C294 -423 397 -335 397 -225 C397 -129 314 -101 273 -101 C270 -101 257 -101 248 -103 L338 -23 C457 1 549 91 597 202 L536 202 C505 119 416 45 356 45 C311 45 294 64 294 111 C294 134 298 162 304 199 L410 812 L619 812 L625 849 L416 849 L469 1151 L243 1151 L191 849 L62 849 L55 812 Z " />
<glyph glyph-name="Tcaron" unicode="&#x164;" horiz-adv-x="1009" d="M1119 1338 L129 1338 L40 1022 L105 1022 C165 1226 224 1283 333 1283 L478 1283 L315 133 C304 59 257 46 163 45 L155 0 L685 0 L691 45 C610 45 564 51 564 120 C564 129 566 157 568 168 L725 1283 L898 1283 C1020 1283 1043 1226 1043 1022 L1107 1022 L1119 1338 Z M646 1588 L479 1747 L350 1747 L574 1425 L666 1425 L991 1747 L863 1747 L646 1588 Z " />
<glyph glyph-name="tcaron" unicode="&#x165;" horiz-adv-x="620" d="M55 812 L184 812 L95 290 C89 254 79 191 79 164 C79 38 161 -30 273 -30 C424 -30 541 72 597 202 L536 202 C505 119 416 45 356 45 C311 45 294 64 294 111 C294 134 298 162 304 199 L410 812 L619 812 L625 849 L416 849 L469 1151 L243 1151 L191 849 L62 849 L55 812 Z M568 901 C602 1024 640 1109 691 1206 C706 1233 722 1272 722 1305 C722 1351 682 1377 641 1377 C548 1377 537 1287 533 1206 C529 1100 524 999 504 901 L568 901 Z " />
<glyph glyph-name="Utilde" unicode="&#x168;" horiz-adv-x="1327" d="M724 1338 L194 1338 L188 1293 C269 1293 315 1287 315 1218 C315 1209 311 1168 309 1157 L211 462 C205 420 202 379 202 341 C202 120 312 -19 633 -25 C883 -30 1057 143 1097 432 L1205 1205 C1215 1279 1263 1292 1357 1293 L1365 1338 L965 1338 L959 1293 L1003 1293 C1082 1293 1127 1286 1127 1218 C1127 1209 1125 1181 1123 1170 L1026 487 C992 249 878 45 654 45 C490 45 449 186 449 320 C449 365 453 409 458 446 L564 1205 C574 1279 622 1292 716 1293 L724 1338 Z M1105 1718 C1071 1656 1015 1610 975 1610 C889 1610 844 1722 729 1722 C631 1722 553 1638 498 1554 L557 1464 C589 1529 644 1577 687 1577 C775 1577 818 1466 932 1466 C1025 1466 1101 1542 1155 1618 L1105 1718 Z " />
<glyph glyph-name="utilde" unicode="&#x169;" horiz-adv-x="1054" d="M412 848 L82 848 L75 812 L120 812 C158 812 167 785 167 756 C167 740 164 724 162 711 L90 315 C85 289 78 235 78 211 C78 74 151 -30 310 -30 C411 -30 512 16 562 108 C574 23 624 -30 719 -30 C870 -30 948 63 998 202 L938 202 C915 124 849 45 812 45 C782 45 775 78 775 110 C775 130 778 150 780 161 L900 848 L674 848 L588 343 C579 289 562 230 538 178 C503 103 439 35 363 35 C308 35 288 83 288 126 C288 170 296 202 301 232 L412 848 Z M817 1293 C783 1231 727 1185 687 1185 C601 1185 556 1297 441 1297 C343 1297 265 1213 210 1129 L269 1039 C301 1104 356 1152 399 1152 C487 1152 530 1041 644 1041 C737 1041 813 1117 867 1193 L817 1293 Z " />
<glyph glyph-name="Umacron" unicode="&#x16a;" horiz-adv-x="1327" d="M724 1338 L194 1338 L188 1293 C269 1293 315 1287 315 1218 C315 1209 311 1168 309 1157 L211 462 C205 420 202 379 202 341 C202 120 312 -19 633 -25 C883 -30 1057 143 1097 432 L1205 1205 C1215 1279 1263 1292 1357 1293 L1365 1338 L965 1338 L959 1293 L1003 1293 C1082 1293 1127 1286 1127 1218 C1127 1209 1125 1181 1123 1170 L1026 487 C992 249 878 45 654 45 C490 45 449 186 449 320 C449 365 453 409 458 446 L564 1205 C574 1279 622 1292 716 1293 L724 1338 Z M592 1550 L1128 1550 L1152 1698 L616 1698 L592 1550 Z " />
<glyph glyph-name="umacron" unicode="&#x16b;" horiz-adv-x="1054" d="M412 848 L82 848 L75 812 L120 812 C158 812 167 785 167 756 C167 740 164 724 162 711 L90 315 C85 289 78 235 78 211 C78 74 151 -30 310 -30 C411 -30 512 16 562 108 C574 23 624 -30 719 -30 C870 -30 948 63 998 202 L938 202 C915 124 849 45 812 45 C782 45 775 78 775 110 C775 130 778 150 780 161 L900 848 L674 848 L588 343 C579 289 562 230 538 178 C503 103 439 35 363 35 C308 35 288 83 288 126 C288 170 296 202 301 232 L412 848 Z M320 1118 L786 1118 L806 1246 L340 1246 L320 1118 Z " />
<glyph glyph-name="Ubreve" unicode="&#x16c;" horiz-adv-x="1327" d="M724 1338 L194 1338 L188 1293 C269 1293 315 1287 315 1218 C315 1209 311 1168 309 1157 L211 462 C205 420 202 379 202 341 C202 120 312 -19 633 -25 C883 -30 1057 143 1097 432 L1205 1205 C1215 1279 1263 1292 1357 1293 L1365 1338 L965 1338 L959 1293 L1003 1293 C1082 1293 1127 1286 1127 1218 C1127 1209 1125 1181 1123 1170 L1026 487 C992 249 878 45 654 45 C490 45 449 186 449 320 C449 365 453 409 458 446 L564 1205 C574 1279 622 1292 716 1293 L724 1338 Z M1094 1734 C1094 1734 997 1575 855 1575 C715 1575 671 1734 671 1734 L580 1693 C591 1608 640 1451 835 1451 C1030 1451 1135 1611 1166 1694 L1094 1734 Z " />
<glyph glyph-name="ubreve" unicode="&#x16d;" horiz-adv-x="1054" d="M412 848 L82 848 L75 812 L120 812 C158 812 167 785 167 756 C167 740 164 724 162 711 L90 315 C85 289 78 235 78 211 C78 74 151 -30 310 -30 C411 -30 512 16 562 108 C574 23 624 -30 719 -30 C870 -30 948 63 998 202 L938 202 C915 124 849 45 812 45 C782 45 775 78 775 110 C775 130 778 150 780 161 L900 848 L674 848 L588 343 C579 289 562 230 538 178 C503 103 439 35 363 35 C308 35 288 83 288 126 C288 170 296 202 301 232 L412 848 Z M774 1318 C774 1318 677 1159 535 1159 C395 1159 351 1318 351 1318 L260 1277 C271 1192 320 1035 515 1035 C710 1035 815 1195 846 1278 L774 1318 Z " />
<glyph glyph-name="Uring" unicode="&#x16e;" horiz-adv-x="1327" d="M724 1338 L194 1338 L188 1293 C269 1293 315 1287 315 1218 C315 1209 311 1168 309 1157 L211 462 C205 420 202 379 202 341 C202 120 312 -19 633 -25 C883 -30 1057 143 1097 432 L1205 1205 C1215 1279 1263 1292 1357 1293 L1365 1338 L965 1338 L959 1293 L1003 1293 C1082 1293 1127 1286 1127 1218 C1127 1209 1125 1181 1123 1170 L1026 487 C992 249 878 45 654 45 C490 45 449 186 449 320 C449 365 453 409 458 446 L564 1205 C574 1279 622 1292 716 1293 L724 1338 Z M857 1756 C913 1756 916 1698 916 1658 C916 1586 898 1474 822 1474 C767 1474 763 1531 763 1571 C763 1643 782 1756 857 1756 L857 1756 Z M825 1425 C943 1425 1037 1510 1037 1626 C1037 1729 944 1805 852 1805 C736 1805 641 1718 641 1602 C641 1499 734 1425 825 1425 L825 1425 Z " />
<glyph glyph-name="uring" unicode="&#x16f;" horiz-adv-x="1054" d="M412 848 L82 848 L75 812 L120 812 C158 812 167 785 167 756 C167 740 164 724 162 711 L90 315 C85 289 78 235 78 211 C78 74 151 -30 310 -30 C411 -30 512 16 562 108 C574 23 624 -30 719 -30 C870 -30 948 63 998 202 L938 202 C915 124 849 45 812 45 C782 45 775 78 775 110 C775 130 778 150 780 161 L900 848 L674 848 L588 343 C579 289 562 230 538 178 C503 103 439 35 363 35 C308 35 288 83 288 126 C288 170 296 202 301 232 L412 848 Z M582 1337 C625 1337 638 1305 638 1263 C638 1195 622 1055 537 1055 C500 1055 481 1075 481 1130 C481 1197 498 1337 582 1337 L582 1337 Z M538 1006 C658 1006 758 1094 758 1214 C758 1318 667 1386 579 1386 C461 1386 360 1296 360 1176 C360 1073 450 1006 538 1006 L538 1006 Z " />
<glyph glyph-name="Uhungarumlaut" unicode="&#x170;" horiz-adv-x="1327" d="M724 1338 L194 1338 L188 1293 C269 1293 315 1287 315 1218 C315 1209 311 1168 309 1157 L211 462 C205 420 202 379 202 341 C202 120 312 -19 633 -25 C883 -30 1057 143 1097 432 L1205 1205 C1215 1279 1263 1292 1357 1293 L1365 1338 L965 1338 L959 1293 L1003 1293 C1082 1293 1127 1286 1127 1218 C1127 1209 1125 1181 1123 1170 L1026 487 C992 249 878 45 654 45 C490 45 449 186 449 320 C449 365 453 409 458 446 L564 1205 C574 1279 622 1292 716 1293 L724 1338 Z M639 1425 L913 1588 L913 1805 L510 1425 L639 1425 Z M958 1425 L1232 1588 L1232 1805 L829 1425 L958 1425 Z " />
<glyph glyph-name="uhungarumlaut" unicode="&#x171;" horiz-adv-x="1054" d="M412 848 L82 848 L75 812 L120 812 C158 812 167 785 167 756 C167 740 164 724 162 711 L90 315 C85 289 78 235 78 211 C78 74 151 -30 310 -30 C411 -30 512 16 562 108 C574 23 624 -30 719 -30 C870 -30 948 63 998 202 L938 202 C915 124 849 45 812 45 C782 45 775 78 775 110 C775 130 778 150 780 161 L900 848 L674 848 L588 343 C579 289 562 230 538 178 C503 103 439 35 363 35 C308 35 288 83 288 126 C288 170 296 202 301 232 L412 848 Z M385 996 L659 1180 L659 1397 L256 996 L385 996 Z M704 996 L978 1180 L978 1397 L575 996 L704 996 Z " />
<glyph glyph-name="Uogonek" unicode="&#x172;" horiz-adv-x="1327" d="M724 1338 L194 1338 L188 1293 C269 1293 315 1287 315 1218 C315 1209 311 1168 309 1157 L211 462 C205 420 202 379 202 341 C202 121 311 -18 629 -25 C563 -67 516 -132 516 -211 C516 -293 581 -347 654 -362 L725 -233 C674 -225 649 -185 649 -142 C649 -82 688 -39 735 -16 C930 22 1062 184 1097 432 L1205 1205 C1215 1279 1263 1292 1357 1293 L1365 1338 L965 1338 L959 1293 L1003 1293 C1082 1293 1127 1286 1127 1218 C1127 1209 1125 1181 1123 1170 L1026 487 C992 249 878 45 654 45 C490 45 449 186 449 320 C449 365 453 409 458 446 L564 1205 C574 1279 622 1292 716 1293 L724 1338 Z " />
<glyph glyph-name="uogonek" unicode="&#x173;" horiz-adv-x="1054" d="M412 848 L82 848 L75 812 L120 812 C158 812 167 785 167 756 C167 740 164 724 162 711 L90 315 C85 289 78 235 78 211 C78 74 151 -30 310 -30 C411 -30 512 16 562 108 C572 35 610 -14 681 -27 C617 -69 571 -133 571 -211 C571 -293 636 -347 709 -362 L780 -233 C729 -225 704 -185 704 -142 C704 -89 734 -49 774 -25 C801 -20 826 -12 848 0 L849 0 L848 0 C919 38 965 110 998 202 L938 202 C915 124 849 45 812 45 C782 45 775 78 775 110 C775 130 778 150 780 161 L900 848 L674 848 L588 343 C579 289 562 230 538 178 C503 103 439 35 363 35 C308 35 288 83 288 126 C288 170 296 202 301 232 L412 848 Z " />
<glyph glyph-name="Wcircumflex" unicode="&#x174;" horiz-adv-x="1890" d="M1292 215 L1160 1164 C1159 1176 1158 1188 1158 1198 C1161 1269 1205 1289 1247 1291 L1305 1293 L1312 1338 L759 1338 L752 1293 L775 1291 C836 1286 892 1263 909 1154 L948 902 L635 215 L503 1164 C502 1176 501 1188 501 1198 C504 1269 548 1289 590 1291 L638 1293 L645 1338 L97 1338 L90 1293 L118 1291 C179 1286 235 1263 252 1154 L434 0 L611 0 L968 774 L1091 0 L1268 0 L1806 1163 C1848 1255 1894 1293 1966 1293 L2006 1293 L2015 1338 L1619 1338 L1610 1293 L1679 1293 C1731 1293 1748 1271 1748 1241 C1748 1220 1739 1194 1728 1170 L1292 215 Z M1045 1584 L1212 1425 L1341 1425 L1117 1747 L1025 1747 L700 1425 L828 1425 L1045 1584 Z " />
<glyph glyph-name="wcircumflex" unicode="&#x175;" horiz-adv-x="1424" d="M921 848 L591 848 L584 812 L629 812 C667 812 676 785 676 756 C676 740 673 724 671 711 L587 229 C586 225 585 220 585 216 C564 123 444 34 362 34 C307 34 298 75 298 118 C298 137 302 166 305 182 L420 848 L90 848 L83 812 L128 812 C166 812 175 785 175 756 C175 740 172 724 170 711 L86 229 C82 206 80 184 80 164 C80 41 146 -30 288 -30 C413 -30 517 13 588 99 C608 16 672 -30 787 -30 C897 -30 975 3 1059 66 C1262 219 1349 476 1349 700 C1349 746 1343 794 1328 848 L1089 848 L1085 812 C1188 812 1263 783 1263 616 C1263 346 1105 170 1011 98 C957 57 905 34 865 34 C810 34 799 75 799 118 C799 137 803 166 806 182 L921 848 Z M807 1155 L974 996 L1103 996 L879 1318 L787 1318 L462 996 L590 996 L807 1155 Z " />
<glyph glyph-name="Ycircumflex" unicode="&#x176;" horiz-adv-x="1180" d="M1164 1293 L1298 1293 L1305 1338 L908 1338 L902 1293 L1075 1293 L659 599 L517 1175 C511 1198 508 1217 508 1232 C508 1286 542 1293 573 1293 L647 1293 L653 1338 L97 1338 L90 1293 L119 1293 C200 1293 240 1261 267 1156 L433 497 L382 133 C372 59 324 46 230 45 L222 0 L752 0 L758 45 C677 45 631 51 631 120 C631 129 633 157 635 168 L682 502 L1164 1293 Z M757 1584 L924 1425 L1053 1425 L829 1747 L737 1747 L412 1425 L540 1425 L757 1584 Z " />
<glyph glyph-name="ycircumflex" unicode="&#x177;" horiz-adv-x="856" d="M-37 -290 L-65 -317 L62 -450 C470 -228 771 272 771 747 C771 781 768 821 762 848 L523 848 L517 813 C654 813 683 723 683 622 C683 458 623 274 530 108 L310 848 L-5 848 L-9 812 L25 812 C84 812 91 793 107 743 L347 0 L463 0 C380 -122 281 -228 179 -300 C141 -327 103 -342 67 -342 C25 -342 -13 -320 -37 -290 L-37 -290 Z M427 1155 L594 996 L723 996 L499 1318 L407 1318 L82 996 L210 996 L427 1155 Z " />
<glyph glyph-name="Ydieresis" unicode="&#x178;" horiz-adv-x="1180" d="M1164 1293 L1298 1293 L1305 1338 L908 1338 L902 1293 L1075 1293 L659 599 L517 1175 C511 1198 508 1217 508 1232 C508 1286 542 1293 573 1293 L647 1293 L653 1338 L97 1338 L90 1293 L119 1293 C200 1293 240 1261 267 1156 L433 497 L382 133 C372 59 324 46 230 45 L222 0 L752 0 L758 45 C677 45 631 51 631 120 C631 129 633 157 635 168 L682 502 L1164 1293 Z M1080 1624 C1077 1688 1033 1732 977 1732 C904 1732 845 1665 845 1598 C845 1536 893 1491 951 1491 C1024 1491 1080 1558 1080 1624 L1080 1624 Z M716 1624 C713 1689 668 1732 612 1732 C538 1732 482 1666 482 1599 C482 1535 528 1491 586 1491 C659 1491 716 1558 716 1624 L716 1624 Z " />
<glyph glyph-name="Zacute" unicode="&#x179;" horiz-adv-x="1120" d="M967 0 L1050 356 L984 356 C944 200 867 65 692 65 L299 65 L1146 1299 L1150 1338 L215 1338 L132 981 L198 981 C243 1160 321 1274 501 1274 L841 1274 L-10 37 L-15 0 L967 0 Z M649 1425 L923 1578 L923 1805 L520 1425 L649 1425 Z " />
<glyph glyph-name="zacute" unicode="&#x17a;" horiz-adv-x="726" d="M706 126 C685 122 664 121 644 121 C605 121 575 126 542 138 C443 174 365 202 270 202 C240 202 215 197 188 186 L703 805 L692 848 L108 848 L83 688 L510 688 L72 159 C44 125 -10 73 -10 34 C-10 11 3 0 21 0 C65 0 105 44 202 44 C227 44 255 39 297 27 C374 5 451 -30 532 -30 C632 -30 682 57 706 126 L706 126 Z M325 996 L599 1170 L599 1397 L196 996 L325 996 Z " />
<glyph glyph-name="Zdotaccent" unicode="&#x17b;" horiz-adv-x="1120" d="M967 0 L1050 356 L984 356 C944 200 867 65 692 65 L299 65 L1146 1299 L1150 1338 L215 1338 L132 981 L198 981 C243 1160 321 1274 501 1274 L841 1274 L-10 37 L-15 0 L967 0 Z M806 1632 C802 1693 754 1738 695 1738 C615 1738 556 1663 561 1591 C565 1531 611 1485 672 1485 C751 1485 811 1561 806 1632 L806 1632 Z " />
<glyph glyph-name="zdotaccent" unicode="&#x17c;" horiz-adv-x="726" d="M706 126 C685 122 664 121 644 121 C605 121 575 126 542 138 C443 174 365 202 270 202 C240 202 215 197 188 186 L703 805 L692 848 L108 848 L83 688 L510 688 L72 159 C44 125 -10 73 -10 34 C-10 11 3 0 21 0 C65 0 105 44 202 44 C227 44 255 39 297 27 C374 5 451 -30 532 -30 C632 -30 682 57 706 126 L706 126 Z M527 1207 C527 1266 482 1311 425 1311 C346 1311 282 1237 282 1166 C282 1108 325 1062 384 1062 C462 1062 527 1137 527 1207 L527 1207 Z " />
<glyph glyph-name="Zcaron" unicode="&#x17d;" horiz-adv-x="1120" d="M967 0 L1050 356 L984 356 C944 200 867 65 692 65 L299 65 L1146 1299 L1150 1338 L215 1338 L132 981 L198 981 C243 1160 321 1274 501 1274 L841 1274 L-10 37 L-15 0 L967 0 Z M696 1588 L529 1747 L400 1747 L624 1425 L716 1425 L1041 1747 L913 1747 L696 1588 Z " />
<glyph glyph-name="zcaron" unicode="&#x17e;" horiz-adv-x="726" d="M706 126 C685 122 664 121 644 121 C605 121 575 126 542 138 C443 174 365 202 270 202 C240 202 215 197 188 186 L703 805 L692 848 L108 848 L83 688 L510 688 L72 159 C44 125 -10 73 -10 34 C-10 11 3 0 21 0 C65 0 105 44 202 44 C227 44 255 39 297 27 C374 5 451 -30 532 -30 C632 -30 682 57 706 126 L706 126 Z M415 1159 L248 1318 L119 1318 L343 996 L435 996 L760 1318 L632 1318 L415 1159 Z " />
<glyph glyph-name="florin" unicode="&#x192;" horiz-adv-x="1294" d="M894 102 L219 102 L635 598 L894 102 Z M398 1236 L1074 1236 L658 740 L398 1236 Z M696 669 L1123 1179 L962 158 L696 669 Z M332 1181 L598 669 L170 159 L332 1181 Z M947 0 C998 0 1044 41 1052 91 L1235 1247 C1236 1252 1236 1256 1236 1261 C1236 1304 1204 1338 1158 1338 L346 1338 C295 1338 249 1297 241 1247 L58 91 C57 86 57 82 57 77 C57 34 89 0 135 0 L947 0 Z " />
<glyph glyph-name="AEacute" unicode="&#x1fc;" horiz-adv-x="1653" d="M1501 0 L1587 332 L1520 332 C1463 128 1416 55 1307 55 L989 55 L1077 678 L1182 678 C1260 678 1286 658 1286 587 C1286 562 1282 531 1277 492 L1341 492 L1401 920 L1336 920 C1315 771 1294 734 1189 734 L1085 734 L1162 1283 L1433 1283 C1584 1283 1599 1238 1599 1098 L1664 1098 L1664 1338 L784 1338 L778 1293 L803 1293 C857 1293 884 1280 884 1254 C884 1242 878 1226 866 1208 L164 170 C101 77 26 45 -8 45 L-47 45 L-54 0 L321 0 L328 45 L263 45 C221 45 206 63 206 86 C206 107 217 131 231 151 L426 435 L796 435 L753 133 C742 59 695 46 601 45 L593 0 L1501 0 Z M898 1140 L804 491 L465 491 L898 1140 Z M1200 1425 L1474 1578 L1474 1805 L1071 1425 L1200 1425 Z " />
<glyph glyph-name="aeacute" unicode="&#x1fd;" horiz-adv-x="1345" d="M542 503 C515 507 487 508 458 508 C262 508 30 426 30 209 C30 55 180 -30 308 -30 C403 -30 508 -18 614 85 C673 13 758 -30 864 -30 C1028 -30 1150 56 1228 202 L1164 202 C1109 107 1008 22 902 22 C770 22 751 187 751 280 C751 332 753 380 759 418 C806 406 850 402 895 402 C1049 402 1258 467 1258 647 C1258 802 1104 879 972 879 C870 879 784 848 715 796 C637 863 547 878 469 878 C358 878 256 844 167 785 L138 609 L186 609 C205 726 306 823 423 823 C517 823 562 742 562 660 C562 644 561 628 558 610 L542 503 Z M532 448 L499 238 C488 168 453 23 363 23 C275 23 246 115 246 189 C246 352 350 449 500 449 C511 449 521 449 532 448 L532 448 Z M864 462 C832 462 799 469 770 479 L776 512 C798 631 837 832 966 832 C1034 832 1050 747 1050 696 C1050 578 987 462 864 462 L864 462 Z M669 996 L943 1170 L943 1397 L540 996 L669 996 Z " />
<glyph glyph-name="uni0218" unicode="&#x218;" horiz-adv-x="1106" d="M1031 1218 C921 1316 785 1364 646 1364 C417 1364 177 1237 177 991 C177 827 265 698 415 622 L612 523 C703 478 744 396 744 306 C744 143 613 38 459 38 C247 38 159 219 159 401 C159 422 159 444 161 468 L96 468 L55 107 C169 27 297 -25 474 -25 C752 -25 993 125 993 380 C993 533 895 668 751 739 L549 839 C452 887 413 964 413 1050 C413 1195 543 1300 679 1300 C847 1300 941 1140 941 994 C941 980 940 966 938 952 L1003 952 L1031 1218 Z M360 -415 C443 -388 528 -337 542 -261 C523 -274 500 -282 479 -282 C424 -282 387 -227 387 -178 C387 -115 443 -69 501 -69 C578 -69 621 -138 621 -206 C621 -347 497 -438 382 -472 L360 -415 Z " />
<glyph glyph-name="scommaaccent" unicode="&#x219;" horiz-adv-x="757" d="M33 289 L-5 65 C95 0 192 -31 305 -31 C461 -31 639 43 639 217 C639 333 559 416 475 479 L354 569 C317 596 298 638 298 680 C298 765 370 832 451 832 C564 832 614 729 614 639 C614 630 613 621 612 612 L660 612 L692 794 C610 852 514 879 417 879 C267 879 115 793 115 635 C115 542 164 456 236 404 L355 317 C407 278 435 216 435 158 C435 73 362 14 283 14 C147 14 78 129 78 245 C78 260 79 274 81 289 L33 289 Z M161 -415 C244 -388 329 -337 343 -261 C324 -274 301 -282 280 -282 C225 -282 188 -227 188 -178 C188 -115 244 -69 302 -69 C379 -69 422 -138 422 -206 C422 -347 298 -438 183 -472 L161 -415 Z " />
<glyph glyph-name="uni021A" unicode="&#x21a;" horiz-adv-x="1009" d="M1119 1338 L129 1338 L40 1022 L105 1022 C165 1226 224 1283 333 1283 L478 1283 L315 133 C304 59 257 46 163 45 L155 0 L685 0 L691 45 C610 45 564 51 564 120 C564 129 566 157 568 168 L725 1283 L898 1283 C1020 1283 1043 1226 1043 1022 L1107 1022 L1119 1338 Z M270 -415 C353 -388 438 -337 452 -261 C433 -274 410 -282 389 -282 C334 -282 297 -227 297 -178 C297 -115 353 -69 411 -69 C488 -69 531 -138 531 -206 C531 -347 407 -438 292 -472 L270 -415 Z " />
<glyph glyph-name="uni021B" unicode="&#x21b;" horiz-adv-x="620" d="M55 812 L184 812 L95 290 C89 254 79 191 79 164 C79 38 161 -30 273 -30 C424 -30 541 72 597 202 L536 202 C505 119 416 45 356 45 C311 45 294 64 294 111 C294 134 298 162 304 199 L410 812 L619 812 L625 849 L416 849 L469 1151 L243 1151 L191 849 L62 849 L55 812 Z M164 -415 C247 -388 332 -337 346 -261 C327 -274 304 -282 283 -282 C228 -282 191 -227 191 -178 C191 -115 247 -69 305 -69 C382 -69 425 -138 425 -206 C425 -347 301 -438 186 -472 L164 -415 Z " />
<glyph glyph-name="circumflex" unicode="&#x2c6;" horiz-adv-x="761" d="M405 1155 L572 996 L701 996 L477 1318 L385 1318 L60 996 L188 996 L405 1155 Z " />
<glyph glyph-name="caron" unicode="&#x2c7;" horiz-adv-x="761" d="M356 1159 L189 1318 L60 1318 L284 996 L376 996 L701 1318 L573 1318 L356 1159 Z " />
<glyph glyph-name="breve" unicode="&#x2d8;" horiz-adv-x="706" d="M574 1318 C574 1318 477 1159 335 1159 C195 1159 151 1318 151 1318 L60 1277 C71 1192 120 1035 315 1035 C510 1035 615 1195 646 1278 L574 1318 Z " />
<glyph glyph-name="dotaccent" unicode="&#x2d9;" horiz-adv-x="357" d="M301 1207 C301 1266 256 1311 199 1311 C120 1311 56 1237 56 1166 C56 1108 99 1062 158 1062 C236 1062 301 1137 301 1207 L301 1207 Z " />
<glyph glyph-name="ring" unicode="&#x2da;" horiz-adv-x="518" d="M282 1337 C325 1337 338 1305 338 1263 C338 1195 322 1055 237 1055 C200 1055 181 1075 181 1130 C181 1197 198 1337 282 1337 L282 1337 Z M238 1006 C358 1006 458 1094 458 1214 C458 1318 367 1386 279 1386 C161 1386 60 1296 60 1176 C60 1073 150 1006 238 1006 L238 1006 Z " />
<glyph glyph-name="ogonek" unicode="&#x2db;" horiz-adv-x="398" d="M254 13 C150 -20 60 -102 60 -211 C60 -293 125 -347 198 -362 L269 -233 C218 -225 193 -185 193 -142 C193 -59 269 -7 338 0 L310 13 L254 13 Z " />
<glyph glyph-name="tilde" unicode="&#x2dc;" horiz-adv-x="777" d="M667 1293 C633 1231 577 1185 537 1185 C451 1185 406 1297 291 1297 C193 1297 115 1213 60 1129 L119 1039 C151 1104 206 1152 249 1152 C337 1152 380 1041 494 1041 C587 1041 663 1117 717 1193 L667 1293 Z " />
<glyph glyph-name="hungarumlaut" unicode="&#x2dd;" horiz-adv-x="842" d="M189 996 L463 1180 L463 1397 L60 996 L189 996 Z M508 996 L782 1180 L782 1397 L379 996 L508 996 Z " />
<glyph glyph-name="uni03A9" unicode="&#x3a9;" horiz-adv-x="1225" d="M489 259 C391 291 346 400 346 588 C346 884 423 1301 699 1301 C874 1301 932 1121 932 943 C932 696 875 290 642 253 L616 68 C615 63 615 58 615 53 C615 21 630 0 673 0 L1010 0 L1076 266 L1012 266 C964 68 905 68 796 68 L701 68 L720 203 C1066 280 1212 561 1212 868 C1212 1176 993 1360 716 1360 C295 1360 65 1062 65 679 C65 447 181 249 396 202 L377 68 L282 68 C180 68 121 68 121 232 C121 243 122 254 122 266 L58 266 L50 0 L387 0 C436 0 456 27 462 68 L489 259 Z " />
<glyph glyph-name="uni03BC" unicode="&#x3bc;" horiz-adv-x="990" d="M-7 -350 L310 -350 L317 -314 L272 -314 C234 -314 225 -287 225 -258 C225 -242 228 -226 230 -213 L277 43 C299 -4 345 -20 391 -20 C473 -20 540 38 575 104 C590 20 637 -30 732 -30 C883 -30 961 63 1011 202 L951 202 C928 124 862 45 825 45 C795 45 788 78 788 110 C788 130 791 150 793 161 L913 848 L687 848 L601 343 C584 243 516 37 393 37 C322 37 309 114 309 167 C309 195 314 234 317 251 L420 848 L95 848 L88 812 L133 812 C171 812 180 785 180 756 C180 740 177 724 175 711 L-7 -350 Z " />
<glyph glyph-name="pi" unicode="&#x3c0;" horiz-adv-x="1055" d="M415 761 L685 761 L604 269 C597 229 591 187 591 149 C591 40 639 -30 748 -30 C899 -30 977 63 1027 202 L967 202 C944 124 878 45 841 45 C811 45 804 74 804 103 C804 127 809 152 811 161 L912 761 L942 761 C1012 761 1059 817 1059 881 C1059 903 1052 921 1045 939 L1010 939 C1010 911 1009 898 998 881 C980 855 945 848 905 848 L24 848 L-6 655 L29 655 L33 680 C42 735 74 761 131 761 L190 761 L86 120 C76 55 63 35 -9 35 L-43 35 L-49 0 L397 0 L403 35 L378 35 C328 35 308 43 308 85 C308 95 309 106 311 120 L415 761 Z " />
<glyph glyph-name="Wgrave" unicode="&#x1e80;" horiz-adv-x="1890" d="M1292 215 L1160 1164 C1159 1176 1158 1188 1158 1198 C1161 1269 1205 1289 1247 1291 L1305 1293 L1312 1338 L759 1338 L752 1293 L775 1291 C836 1286 892 1263 909 1154 L948 902 L635 215 L503 1164 C502 1176 501 1188 501 1198 C504 1269 548 1289 590 1291 L638 1293 L645 1338 L97 1338 L90 1293 L118 1291 C179 1286 235 1263 252 1154 L434 0 L611 0 L968 774 L1091 0 L1268 0 L1806 1163 C1848 1255 1894 1293 1966 1293 L2006 1293 L2015 1338 L1619 1338 L1610 1293 L1679 1293 C1731 1293 1748 1271 1748 1241 C1748 1220 1739 1194 1728 1170 L1292 215 Z M1155 1425 L752 1805 L752 1578 L1026 1425 L1155 1425 Z " />
<glyph glyph-name="wgrave" unicode="&#x1e81;" horiz-adv-x="1424" d="M921 848 L591 848 L584 812 L629 812 C667 812 676 785 676 756 C676 740 673 724 671 711 L587 229 C586 225 585 220 585 216 C564 123 444 34 362 34 C307 34 298 75 298 118 C298 137 302 166 305 182 L420 848 L90 848 L83 812 L128 812 C166 812 175 785 175 756 C175 740 172 724 170 711 L86 229 C82 206 80 184 80 164 C80 41 146 -30 288 -30 C413 -30 517 13 588 99 C608 16 672 -30 787 -30 C897 -30 975 3 1059 66 C1262 219 1349 476 1349 700 C1349 746 1343 794 1328 848 L1089 848 L1085 812 C1188 812 1263 783 1263 616 C1263 346 1105 170 1011 98 C957 57 905 34 865 34 C810 34 799 75 799 118 C799 137 803 166 806 182 L921 848 Z M933 996 L530 1397 L530 1170 L804 996 L933 996 Z " />
<glyph glyph-name="Wacute" unicode="&#x1e82;" horiz-adv-x="1890" d="M1292 215 L1160 1164 C1159 1176 1158 1188 1158 1198 C1161 1269 1205 1289 1247 1291 L1305 1293 L1312 1338 L759 1338 L752 1293 L775 1291 C836 1286 892 1263 909 1154 L948 902 L635 215 L503 1164 C502 1176 501 1188 501 1198 C504 1269 548 1289 590 1291 L638 1293 L645 1338 L97 1338 L90 1293 L118 1291 C179 1286 235 1263 252 1154 L434 0 L611 0 L968 774 L1091 0 L1268 0 L1806 1163 C1848 1255 1894 1293 1966 1293 L2006 1293 L2015 1338 L1619 1338 L1610 1293 L1679 1293 C1731 1293 1748 1271 1748 1241 C1748 1220 1739 1194 1728 1170 L1292 215 Z M940 1425 L1214 1578 L1214 1805 L811 1425 L940 1425 Z " />
<glyph glyph-name="wacute" unicode="&#x1e83;" horiz-adv-x="1424" d="M921 848 L591 848 L584 812 L629 812 C667 812 676 785 676 756 C676 740 673 724 671 711 L587 229 C586 225 585 220 585 216 C564 123 444 34 362 34 C307 34 298 75 298 118 C298 137 302 166 305 182 L420 848 L90 848 L83 812 L128 812 C166 812 175 785 175 756 C175 740 172 724 170 711 L86 229 C82 206 80 184 80 164 C80 41 146 -30 288 -30 C413 -30 517 13 588 99 C608 16 672 -30 787 -30 C897 -30 975 3 1059 66 C1262 219 1349 476 1349 700 C1349 746 1343 794 1328 848 L1089 848 L1085 812 C1188 812 1263 783 1263 616 C1263 346 1105 170 1011 98 C957 57 905 34 865 34 C810 34 799 75 799 118 C799 137 803 166 806 182 L921 848 Z M792 996 L1066 1170 L1066 1397 L663 996 L792 996 Z " />
<glyph glyph-name="Wdieresis" unicode="&#x1e84;" horiz-adv-x="1890" d="M1292 215 L1160 1164 C1159 1176 1158 1188 1158 1198 C1161 1269 1205 1289 1247 1291 L1305 1293 L1312 1338 L759 1338 L752 1293 L775 1291 C836 1286 892 1263 909 1154 L948 902 L635 215 L503 1164 C502 1176 501 1188 501 1198 C504 1269 548 1289 590 1291 L638 1293 L645 1338 L97 1338 L90 1293 L118 1291 C179 1286 235 1263 252 1154 L434 0 L611 0 L968 774 L1091 0 L1268 0 L1806 1163 C1848 1255 1894 1293 1966 1293 L2006 1293 L2015 1338 L1619 1338 L1610 1293 L1679 1293 C1731 1293 1748 1271 1748 1241 C1748 1220 1739 1194 1728 1170 L1292 215 Z M1319 1624 C1316 1688 1272 1732 1216 1732 C1143 1732 1084 1665 1084 1598 C1084 1536 1132 1491 1190 1491 C1263 1491 1319 1558 1319 1624 L1319 1624 Z M955 1624 C952 1689 907 1732 851 1732 C777 1732 721 1666 721 1599 C721 1535 767 1491 825 1491 C898 1491 955 1558 955 1624 L955 1624 Z " />
<glyph glyph-name="wdieresis" unicode="&#x1e85;" horiz-adv-x="1424" d="M921 848 L591 848 L584 812 L629 812 C667 812 676 785 676 756 C676 740 673 724 671 711 L587 229 C586 225 585 220 585 216 C564 123 444 34 362 34 C307 34 298 75 298 118 C298 137 302 166 305 182 L420 848 L90 848 L83 812 L128 812 C166 812 175 785 175 756 C175 740 172 724 170 711 L86 229 C82 206 80 184 80 164 C80 41 146 -30 288 -30 C413 -30 517 13 588 99 C608 16 672 -30 787 -30 C897 -30 975 3 1059 66 C1262 219 1349 476 1349 700 C1349 746 1343 794 1328 848 L1089 848 L1085 812 C1188 812 1263 783 1263 616 C1263 346 1105 170 1011 98 C957 57 905 34 865 34 C810 34 799 75 799 118 C799 137 803 166 806 182 L921 848 Z M767 1201 C767 1259 724 1302 668 1302 C592 1302 530 1231 530 1162 C530 1105 571 1061 629 1061 C704 1061 767 1133 767 1201 L767 1201 Z M1091 1201 C1091 1258 1049 1302 993 1302 C918 1302 854 1232 854 1163 C854 1106 896 1061 954 1061 C1029 1061 1091 1133 1091 1201 L1091 1201 Z " />
<glyph glyph-name="uni1E9E" unicode="&#x1e9e;" horiz-adv-x="1218" d="M-57 0 L465 0 L471 45 C385 45 344 55 344 111 C344 117 348 151 349 158 L472 1032 C494 1189 578 1302 719 1302 C821 1302 870 1199 870 1112 C870 1049 850 997 819 951 C745 841 617 759 617 622 C617 522 681 444 766 404 L869 355 C930 326 967 268 967 207 C967 105 889 19 795 19 C673 19 605 119 605 228 C605 256 606 275 609 294 L544 294 L511 64 C596 11 674 -25 799 -25 C980 -25 1177 94 1177 275 C1177 384 1096 468 1010 512 L870 585 C832 605 782 649 782 713 C782 808 870 853 932 897 C1032 967 1105 1017 1105 1137 C1105 1321 860 1360 733 1360 C427 1360 254 1244 212 944 L98 131 C88 57 44 45 -51 45 L-57 0 Z " />
<glyph glyph-name="Ygrave" unicode="&#x1ef2;" horiz-adv-x="1180" d="M1164 1293 L1298 1293 L1305 1338 L908 1338 L902 1293 L1075 1293 L659 599 L517 1175 C511 1198 508 1217 508 1232 C508 1286 542 1293 573 1293 L647 1293 L653 1338 L97 1338 L90 1293 L119 1293 C200 1293 240 1261 267 1156 L433 497 L382 133 C372 59 324 46 230 45 L222 0 L752 0 L758 45 C677 45 631 51 631 120 C631 129 633 157 635 168 L682 502 L1164 1293 Z M922 1425 L519 1805 L519 1578 L793 1425 L922 1425 Z " />
<glyph glyph-name="ygrave" unicode="&#x1ef3;" horiz-adv-x="856" d="M-37 -290 L-65 -317 L62 -450 C470 -228 771 272 771 747 C771 781 768 821 762 848 L523 848 L517 813 C654 813 683 723 683 622 C683 458 623 274 530 108 L310 848 L-5 848 L-9 812 L25 812 C84 812 91 793 107 743 L347 0 L463 0 C380 -122 281 -228 179 -300 C141 -327 103 -342 67 -342 C25 -342 -13 -320 -37 -290 L-37 -290 Z M593 996 L190 1397 L190 1170 L464 996 L593 996 Z " />
<glyph glyph-name="uni2009" unicode="&#x2009;" horiz-adv-x="150" d="" />
<glyph glyph-name="endash" unicode="&#x2013;" horiz-adv-x="932" d="M82 415 L764 415 L783 532 L101 532 L82 415 Z " />
<glyph glyph-name="emdash" unicode="&#x2014;" horiz-adv-x="1242" d="M82 415 L1074 415 L1093 532 L101 532 L82 415 Z " />
<glyph glyph-name="quoteleft" unicode="&#x2018;" horiz-adv-x="321" d="M412 1374 C244 1324 91 1198 91 1006 C91 914 133 826 234 826 C303 826 363 883 363 956 C363 1015 316 1072 249 1072 C218 1072 181 1054 161 1027 C161 1174 292 1276 429 1319 L412 1374 Z " />
<glyph glyph-name="quoteright" unicode="&#x2019;" horiz-adv-x="401" d="M105 824 C273 874 426 1000 426 1192 C426 1284 384 1372 283 1372 C214 1372 154 1315 154 1242 C154 1183 201 1126 268 1126 C299 1126 336 1144 356 1171 C356 1024 225 922 88 879 L105 824 Z " />
<glyph glyph-name="quotesinglbase" unicode="&#x201a;" horiz-adv-x="451" d="M-5 -330 C163 -280 316 -154 316 38 C316 130 274 218 173 218 C104 218 44 161 44 88 C44 29 91 -28 158 -28 C189 -28 226 -10 246 17 C246 -130 115 -232 -22 -275 L-5 -330 Z " />
<glyph glyph-name="quotedblleft" unicode="&#x201c;" horiz-adv-x="650" d="M412 1374 C244 1324 91 1198 91 1006 C91 914 133 826 234 826 C303 826 363 883 363 956 C363 1015 316 1072 249 1072 C218 1072 181 1054 161 1027 C161 1174 292 1276 429 1319 L412 1374 Z M741 1374 C573 1324 420 1198 420 1006 C420 914 462 826 563 826 C632 826 692 883 692 956 C692 1015 645 1072 578 1072 C547 1072 510 1054 490 1027 C490 1174 621 1276 758 1319 L741 1374 Z " />
<glyph glyph-name="quotedblright" unicode="&#x201d;" horiz-adv-x="730" d="M105 824 C273 874 426 1000 426 1192 C426 1284 384 1372 283 1372 C214 1372 154 1315 154 1242 C154 1183 201 1126 268 1126 C299 1126 336 1144 356 1171 C356 1024 225 922 88 879 L105 824 Z M434 824 C602 874 755 1000 755 1192 C755 1284 713 1372 612 1372 C543 1372 483 1315 483 1242 C483 1183 530 1126 597 1126 C628 1126 665 1144 685 1171 C685 1024 554 922 417 879 L434 824 Z " />
<glyph glyph-name="quotedblbase" unicode="&#x201e;" horiz-adv-x="780" d="M-5 -330 C163 -280 316 -154 316 38 C316 130 274 218 173 218 C104 218 44 161 44 88 C44 29 91 -28 158 -28 C189 -28 226 -10 246 17 C246 -130 115 -232 -22 -275 L-5 -330 Z M324 -330 C492 -280 645 -154 645 38 C645 130 603 218 502 218 C433 218 373 161 373 88 C373 29 420 -28 487 -28 C518 -28 555 -10 575 17 C575 -130 444 -232 307 -275 L324 -330 Z " />
<glyph glyph-name="dagger" unicode="&#x2020;" horiz-adv-x="866" d="M509 747 C515 786 520 821 526 854 C598 845 649 832 687 825 C724 818 734 814 757 814 C818 814 874 849 874 905 C874 951 829 976 780 976 C759 976 736 972 708 965 C669 956 611 945 541 936 C564 1030 593 1085 614 1136 C633 1181 648 1217 648 1253 C648 1308 617 1363 545 1363 C462 1363 408 1293 408 1221 C408 1202 412 1171 414 1145 C418 1095 431 1032 431 936 C360 945 305 958 270 965 C237 972 221 976 203 976 C146 976 86 946 86 887 C86 840 131 814 180 814 C202 814 226 818 256 825 C294 833 351 844 422 853 C421 821 416 786 410 747 L387 586 C358 380 310 265 279 188 C264 151 247 117 247 79 C247 23 276 -33 348 -33 C434 -33 486 39 486 113 C486 131 484 159 480 187 C475 229 469 284 469 357 C469 418 473 493 486 584 L509 747 Z " />
<glyph glyph-name="daggerdbl" unicode="&#x2021;" horiz-adv-x="882" d="M389 614 C315 623 261 636 225 644 C192 652 177 655 159 655 C104 655 41 623 41 565 C41 517 86 493 136 493 C158 493 181 497 211 504 C248 512 304 523 373 532 C330 322 280 215 255 163 C249 150 241 131 237 118 C247 83 302 -40 348 -40 C391 -40 492 83 505 122 C504 134 501 144 499 159 C494 193 479 258 479 384 C479 427 481 475 485 532 C555 524 605 511 642 504 C679 497 690 493 713 493 C774 493 829 531 829 587 C829 633 785 655 736 655 C715 655 691 651 663 644 C624 635 566 623 492 614 L509 747 C514 786 520 821 526 854 C598 845 649 832 687 825 C724 818 734 814 757 814 C818 814 874 849 874 905 C874 951 829 976 780 976 C759 976 736 972 708 965 C669 956 611 945 541 936 C564 1030 593 1085 614 1136 C633 1181 648 1217 648 1253 C648 1308 617 1363 545 1363 C462 1363 408 1293 408 1221 C408 1202 412 1171 414 1145 C418 1095 431 1032 431 936 C360 945 305 958 270 965 C237 972 221 976 203 976 C146 976 86 946 86 887 C86 840 131 814 180 814 C202 814 226 818 256 825 C294 833 351 844 422 853 C421 821 416 786 410 747 L389 614 Z " />
<glyph glyph-name="bullet" unicode="&#x2022;" horiz-adv-x="599" d="M536 629 C536 767 426 875 300 875 C168 875 63 767 63 629 C63 493 168 382 300 382 C426 382 536 493 536 629 L536 629 Z " />
<glyph glyph-name="ellipsis" unicode="&#x2026;" horiz-adv-x="1339" d="M349 101 C349 172 289 231 220 231 C149 231 90 172 90 101 C90 31 149 -30 220 -30 C289 -30 349 31 349 101 L349 101 Z M799 101 C799 172 739 231 670 231 C599 231 540 172 540 101 C540 31 599 -30 670 -30 C739 -30 799 31 799 101 L799 101 Z M1249 101 C1249 172 1189 231 1120 231 C1049 231 990 172 990 101 C990 31 1049 -30 1120 -30 C1189 -30 1249 31 1249 101 L1249 101 Z " />
<glyph glyph-name="perthousand" unicode="&#x2030;" horiz-adv-x="1981" d="M296 589 C480 589 601 777 601 1027 C601 1191 521 1351 349 1351 C158 1351 45 1176 45 918 C45 751 123 589 296 589 L296 589 Z M982 -14 C1166 -14 1287 174 1287 424 C1287 588 1207 748 1035 748 C844 748 731 573 731 315 C731 148 809 -14 982 -14 L982 -14 Z M1631 -14 C1815 -14 1936 174 1936 424 C1936 588 1856 748 1684 748 C1493 748 1380 573 1380 315 C1380 148 1458 -14 1631 -14 L1631 -14 Z M1768 503 C1768 465 1765 414 1759 361 C1743 217 1720 30 1627 30 C1548 30 1548 163 1548 227 C1548 266 1551 324 1556 374 C1572 522 1593 704 1687 704 C1767 704 1768 568 1768 503 L1768 503 Z M433 1106 C433 1068 430 1017 424 964 C408 820 385 633 292 633 C213 633 213 766 213 830 C213 869 216 927 221 977 C237 1125 258 1307 352 1307 C432 1307 433 1171 433 1106 L433 1106 Z M1119 503 C1119 465 1116 414 1110 361 C1094 217 1071 30 978 30 C899 30 899 163 899 227 C899 266 902 324 907 374 C923 522 944 704 1038 704 C1118 704 1119 568 1119 503 L1119 503 Z M157 0 L1254 1338 L1168 1338 L71 0 L157 0 Z " />
<glyph glyph-name="guilsinglleft" unicode="&#x2039;" horiz-adv-x="517" d="M364 92 L142 452 L447 761 L386 822 L30 462 L287 44 L364 92 Z " />
<glyph glyph-name="guilsinglright" unicode="&#x203a;" horiz-adv-x="517" d="M113 765 L335 405 L30 96 L91 35 L447 395 L190 813 L113 765 Z " />
<glyph glyph-name="fraction" unicode="&#x2044;" horiz-adv-x="187" d="M-402 0 L695 1338 L609 1338 L-488 0 L-402 0 Z " />
<glyph glyph-name="Euro" unicode="&#x20ac;" horiz-adv-x="1203" d="M-10 668 L111 668 C108 637 107 606 107 575 C107 265 263 -25 628 -25 C765 -25 880 12 1010 92 L1051 386 L986 386 C936 217 844 37 640 37 C411 37 375 308 375 476 C375 532 377 598 385 668 L703 668 L799 793 L403 793 C450 1046 568 1303 836 1303 C1020 1303 1067 1134 1067 992 C1067 978 1067 965 1066 952 L1131 952 L1173 1248 C1063 1321 956 1363 815 1363 C418 1363 195 1116 128 793 L7 793 L-10 668 Z " />
<glyph glyph-name="trademark" unicode="&#x2122;" horiz-adv-x="1432" d="M650 655 L864 655 L869 692 L839 692 C804 692 784 694 784 722 C784 727 785 740 786 745 C805 885 826 1023 845 1163 L962 675 L987 675 C1066 836 1152 1007 1232 1168 L1167 729 C1163 697 1139 692 1092 692 L1087 655 L1365 655 L1370 692 C1327 692 1305 696 1305 717 C1305 718 1305 720 1306 723 L1382 1265 C1386 1297 1410 1301 1457 1302 L1462 1338 L1258 1338 L1040 896 L936 1338 L747 1338 L742 1302 C784 1302 807 1300 807 1271 C807 1267 805 1247 804 1242 L731 730 C726 699 702 692 656 692 L650 655 Z M695 1338 L187 1338 L140 1166 L187 1166 C217 1268 245 1297 295 1297 L360 1297 L279 730 C275 698 251 692 204 692 L198 655 L477 655 L482 692 C441 692 418 694 418 722 C418 727 419 740 420 745 L498 1297 L578 1297 C633 1297 643 1268 643 1166 L689 1166 L695 1338 Z " />
<glyph glyph-name="Omega" unicode="&#x2126;" horiz-adv-x="1225" d="M489 259 C391 291 346 400 346 588 C346 884 423 1301 699 1301 C874 1301 932 1121 932 943 C932 696 875 290 642 253 L616 68 C615 63 615 58 615 53 C615 21 630 0 673 0 L1010 0 L1076 266 L1012 266 C964 68 905 68 796 68 L701 68 L720 203 C1066 280 1212 561 1212 868 C1212 1176 993 1360 716 1360 C295 1360 65 1062 65 679 C65 447 181 249 396 202 L377 68 L282 68 C180 68 121 68 121 232 C121 243 122 254 122 266 L58 266 L50 0 L387 0 C436 0 456 27 462 68 L489 259 Z " />
<glyph glyph-name="estimated" unicode="&#x212e;" horiz-adv-x="1426" d="M1104 643 L333 643 L333 986 C459 1115 563 1164 713 1164 C874 1164 1026 1107 1104 963 L1104 643 Z M333 578 L1351 578 C1342 1029 1067 1230 713 1230 C346 1230 75 995 75 606 C75 212 374 -18 713 -18 C877 -18 1150 56 1232 236 L1098 236 C991 112 879 48 713 48 C567 48 430 114 333 216 L333 578 Z " />
<glyph glyph-name="arrowleft" unicode="&#x2190;" horiz-adv-x="1288" d="M260 670 L627 998 L563 1066 L76 628 L468 148 L543 213 C444 332 345 453 246 573 L1175 573 L1194 668 L260 670 Z " />
<glyph glyph-name="arrowup" unicode="&#x2191;" horiz-adv-x="1068" d="M611 1004 L899 631 L975 689 L586 1186 L73 814 L129 739 C257 833 386 926 515 1020 L385 86 L481 86 L611 1004 Z " />
<glyph glyph-name="arrowright" unicode="&#x2192;" horiz-adv-x="1288" d="M1008 568 L641 240 L705 172 L1192 610 L800 1090 L725 1025 C824 906 923 785 1022 665 L93 665 L74 570 L1008 568 Z " />
<glyph glyph-name="arrowdown" unicode="&#x2193;" horiz-adv-x="1068" d="M437 266 L149 639 L73 581 L462 84 L975 456 L919 531 C791 437 662 344 533 250 L663 1184 L567 1184 L437 266 Z " />
<glyph glyph-name="partialdiff" unicode="&#x2202;" horiz-adv-x="963" d="M254 336 C254 495 298 814 478 814 C609 814 649 654 649 539 C649 362 610 25 399 25 C277 25 254 206 254 336 L254 336 Z M685 748 C645 837 548 880 450 880 C204 880 26 653 26 400 C26 175 140 -25 400 -25 C758 -25 911 320 911 620 C911 745 887 889 828 1001 C736 1175 541 1327 302 1411 L276 1358 C527 1259 685 1015 685 748 L685 748 Z " />
<glyph glyph-name="Delta" unicode="&#x2206;" horiz-adv-x="1027" d="M972 0 L762 1338 L555 1338 L-89 0 L972 0 Z M37 80 L539 1134 L679 200 C681 189 682 170 682 157 C682 107 638 80 598 80 L37 80 Z " />
<glyph glyph-name="product" unicode="&#x220f;" horiz-adv-x="1284" d="M109 1293 L126 1293 C212 1293 253 1283 253 1227 C253 1221 250 1194 249 1187 L65 -127 C55 -201 11 -213 -84 -213 L-91 -258 L450 -258 L457 -213 L438 -213 C352 -213 311 -203 311 -147 C311 -141 312 -128 314 -114 L508 1270 L980 1270 L784 -127 C774 -201 730 -213 634 -213 L627 -258 L1170 -258 L1177 -213 L1138 -213 C1065 -213 1030 -199 1030 -147 C1030 -141 1031 -129 1033 -114 L1218 1207 C1228 1281 1272 1293 1368 1293 L1375 1338 L116 1338 L109 1293 Z " />
<glyph glyph-name="summation" unicode="&#x2211;" horiz-adv-x="1161" d="M545 540 L102 -128 C56 -198 26 -213 -69 -213 L-76 -258 L928 -258 L993 -9 L930 -9 C892 -149 849 -195 757 -195 L319 -195 L797 540 L520 1275 L961 1275 C1053 1275 1080 1229 1080 1089 L1143 1089 L1143 1338 L153 1338 L146 1293 C242 1293 268 1278 294 1208 L545 540 Z " />
<glyph glyph-name="minus" unicode="&#x2212;" horiz-adv-x="966" d="M49 415 L874 415 L888 503 L63 503 L49 415 Z " />
<glyph glyph-name="radical" unicode="&#x221a;" horiz-adv-x="1190" d="M1348 1416 L1247 1416 L514 -193 L359 362 C354 381 340 396 318 396 C310 396 300 394 291 390 L66 286 L100 211 L283 294 L427 -207 C444 -265 465 -299 513 -299 C562 -299 580 -263 605 -208 L1348 1416 Z " />
<glyph glyph-name="infinity" unicode="&#x221e;" horiz-adv-x="1470" d="M1019 224 C881 224 827 337 784 455 C870 575 960 688 1102 688 C1216 688 1297 603 1297 494 C1297 348 1167 224 1019 224 L1019 224 Z M367 224 C253 224 173 310 173 418 C173 564 302 688 450 688 C587 688 641 571 685 455 C599 337 508 224 367 224 L367 224 Z M1019 136 C1214 136 1385 301 1385 494 C1385 652 1267 776 1102 776 C948 776 839 670 742 545 C685 671 607 776 450 776 C255 776 85 611 85 418 C85 262 202 136 367 136 C518 136 627 241 725 365 C781 238 862 136 1019 136 L1019 136 Z " />
<glyph glyph-name="integral" unicode="&#x222b;" horiz-adv-x="689" d="M627 -224 L577 -165 C545 -193 503 -213 463 -213 C392 -213 345 -159 344 -91 C344 -83 344 -72 346 -63 L537 1128 C539 1141 540 1154 540 1168 C538 1277 451 1362 336 1362 C272 1362 209 1333 159 1290 L212 1228 C244 1256 286 1276 326 1276 C397 1276 444 1222 445 1154 C445 1146 444 1130 443 1121 L251 -64 C249 -77 249 -92 249 -105 C251 -214 337 -299 452 -299 C516 -299 578 -271 627 -230 L627 -224 Z " />
<glyph glyph-name="approxequal" unicode="&#x2248;" horiz-adv-x="1340" d="M1191 709 C1086 611 1014 568 937 568 C897 568 867 575 780 617 L704 653 C555 723 505 731 434 731 C363 731 240 720 123 596 L177 536 C292 641 363 645 422 645 C480 645 543 628 628 585 L695 551 C776 510 854 479 914 479 C1017 479 1119 522 1248 646 L1191 709 Z M142 242 C249 341 320 382 397 382 C437 382 467 377 554 334 L629 297 C760 232 833 217 900 217 C971 217 1094 230 1210 354 L1158 415 C1044 310 969 303 910 303 C852 303 790 321 705 365 L639 399 C565 437 475 471 419 471 C316 471 214 426 85 302 L142 242 Z " />
<glyph glyph-name="notequal" unicode="&#x2260;" horiz-adv-x="1042" d="M120 535 L545 535 C484 483 430 435 369 383 L95 383 L81 295 L267 295 L114 163 L168 101 C240 163 321 232 393 295 L906 295 L920 383 L496 383 L673 535 L945 535 L959 623 L776 623 L926 752 L872 815 L649 623 L134 623 L120 535 Z " />
<glyph glyph-name="lessequal" unicode="&#x2264;" horiz-adv-x="821" d="M791 1044 L151 691 C130 679 109 656 109 632 C109 616 118 600 136 587 L661 231 L719 307 C719 307 355 536 230 634 L834 962 L791 1044 Z M20 66 L673 66 L687 151 L33 151 L20 66 Z " />
<glyph glyph-name="greaterequal" unicode="&#x2265;" horiz-adv-x="821" d="M102 231 L741 584 C763 596 783 617 783 642 C783 658 773 675 756 687 L233 1043 L173 967 C336 859 499 748 662 640 L58 312 L102 231 Z M707 151 L54 151 L40 66 L694 66 L707 151 Z " />
<glyph glyph-name="lozenge" unicode="&#x25ca;" horiz-adv-x="1132" d="M434 28 C448 3 466 -11 488 -11 C507 -11 533 4 553 27 L1090 658 L742 1310 C729 1333 710 1348 688 1348 C667 1348 642 1336 621 1311 L85 681 L434 28 Z M680 1240 C782 1047 882 862 984 669 C822 478 659 289 497 98 L192 669 L680 1240 Z " />
<glyph glyph-name="commaaccent" unicode="&#xf6c3;" horiz-adv-x="381" d="M82 -472 C197 -438 321 -347 321 -206 C321 -138 278 -69 201 -69 C143 -69 87 -115 87 -178 C87 -227 124 -282 179 -282 C200 -282 223 -274 242 -261 C228 -337 143 -388 60 -415 L82 -472 Z " />
<glyph glyph-name="apple" unicode="&#xf8ff;" horiz-adv-x="1425" d="M498 855 L507 855 C507 738 526 584 626 584 C717 584 806 629 806 629 C839 761 883 938 918 938 C966 938 1012 796 1038 712 C1062 633 1089 507 1114 483 C1117 480 1122 478 1126 478 C1136 478 1146 486 1146 497 C1146 512 1127 519 1127 532 C1127 540 1139 548 1146 548 C1169 548 1178 505 1178 490 C1178 456 1145 446 1131 422 C1100 370 1101 300 1042 300 C951 300 909 350 877 350 C851 350 846 338 822 338 C784 338 753 381 753 418 C753 475 800 477 808 477 C817 477 829 460 837 460 C848 460 855 473 855 481 C855 509 829 519 805 519 C747 519 702 470 702 417 C702 361 731 325 771 295 C762 239 754 219 702 190 C659 166 639 105 634 49 C629 -7 629 -73 629 -73 L657 -39 L687 -68 C689 -38 692 -10 698 17 C707 56 717 96 739 126 C750 142 761 151 768 152 L749 86 L836 132 L844 84 L896 156 L904 81 L947 158 L974 79 L1005 144 L1039 94 L1055 183 L1084 110 L1108 168 L1151 113 L1139 230 L1226 149 L1204 225 L1283 187 L1256 225 L1294 212 C1329 175 1334 114 1334 79 C1334 62 1333 52 1333 52 L1355 78 L1393 62 C1393 62 1395 97 1395 138 C1395 162 1390 188 1385 210 C1378 243 1345 274 1310 290 C1220 331 1158 395 1158 395 C1187 427 1212 448 1212 494 C1212 551 1178 577 1137 605 L1089 713 C1168 749 1240 801 1240 963 C1240 988 1238 1049 1238 1049 L1249 1058 L1249 1114 C1250 1114 867 1337 794 1337 C741 1337 695 1277 695 1198 C695 1181 709 1171 723 1171 C735 1171 747 1179 748 1196 C750 1226 762 1275 793 1275 C853 1275 1156 1099 1156 1099 C883 1001 534 941 534 941 C427 977 281 1025 169 1025 C68 1025 30 932 30 843 C30 817 35 791 59 791 C75 791 85 802 87 823 C94 885 102 960 172 960 C287 960 434 907 479 889 L498 855 Z M846 945 C795 829 762 670 762 670 C723 660 686 641 646 641 C571 641 562 758 562 818 L562 878 C562 878 750 941 846 945 L846 945 Z M1186 1034 C1187 1016 1187 1000 1187 985 C1187 831 1158 809 1076 764 C1056 881 978 970 954 976 C954 976 1102 1034 1186 1034 L1186 1034 Z " />
<glyph glyph-name="f_f" unicode="&#xfb00;" horiz-adv-x="1109" d="M552 -219 C531 -345 465 -405 395 -412 L390 -451 C558 -449 742 -379 788 -126 L957 812 L1156 812 L1162 848 L963 848 L994 1016 C1008 1089 1024 1304 1144 1304 C1206 1304 1224 1241 1224 1183 C1224 1164 1222 1144 1219 1127 L1274 1127 L1299 1273 C1267 1314 1205 1350 1126 1350 C953 1350 809 1225 750 928 L734 848 L418 848 L449 1016 C463 1089 479 1304 599 1304 C661 1304 679 1241 679 1183 C679 1164 677 1144 674 1127 L729 1127 L754 1273 C722 1314 660 1350 581 1350 C408 1350 264 1225 205 928 L189 848 L47 848 L42 812 L133 812 C165 812 175 790 175 771 C175 766 167 724 166 719 L7 -219 C-14 -345 -80 -405 -150 -412 L-155 -451 C13 -449 197 -379 243 -126 L412 812 L678 812 C710 812 720 790 720 771 C720 766 712 724 711 719 L552 -219 Z " />
<glyph glyph-name="fi" unicode="&#xfb01;" horiz-adv-x="1156" d="M7 -219 C-14 -345 -80 -405 -150 -412 L-155 -451 C13 -449 197 -379 243 -126 L412 812 L611 812 L617 848 L418 848 L449 1016 C463 1089 479 1304 599 1304 C661 1304 679 1241 679 1183 C679 1164 677 1144 674 1127 L729 1127 L754 1273 C722 1314 660 1350 581 1350 C408 1350 264 1225 205 928 L189 848 L47 848 L42 812 L133 812 C165 812 175 790 175 771 C175 766 167 724 166 719 L7 -219 Z M1003 848 L673 848 L666 812 L711 812 C749 812 758 785 758 756 C758 740 755 724 753 711 L676 269 C669 229 663 187 663 149 C663 40 713 -30 822 -30 C973 -30 1051 63 1101 202 L1041 202 C1018 124 952 45 915 45 C885 45 878 74 878 103 C878 127 883 152 885 161 L1003 848 Z M940 1338 C855 1338 808 1262 808 1207 C808 1140 862 1100 919 1100 C1004 1100 1051 1176 1051 1231 C1051 1298 997 1338 940 1338 L940 1338 Z " />
<glyph glyph-name="fl" unicode="&#xfb02;" horiz-adv-x="1172" d="M7 -219 C-14 -345 -80 -405 -150 -412 L-155 -451 C13 -449 197 -379 243 -126 L412 812 L611 812 L617 848 L418 848 L449 1016 C463 1089 479 1304 599 1304 C661 1304 679 1241 679 1183 C679 1164 677 1144 674 1127 L729 1127 L754 1273 C722 1314 660 1350 581 1350 C408 1350 264 1225 205 928 L189 848 L47 848 L42 812 L133 812 C165 812 175 790 175 771 C175 766 167 724 166 719 L7 -219 Z M1125 1338 L795 1338 L788 1302 L833 1302 C871 1302 880 1275 880 1246 C880 1230 877 1214 875 1201 L712 269 C705 229 699 187 699 149 C699 40 749 -30 858 -30 C1009 -30 1087 63 1137 202 L1077 202 C1054 124 988 45 951 45 C921 45 914 74 914 103 C914 127 919 152 921 161 L1125 1338 Z " />
</font>
</svg>
