<?xml version="1.0" encoding="UTF-8"?>
<svg xmlns="http://www.w3.org/2000/svg" xmlns:xlink="http://www.w3.org/1999/xlink" version="1.2" >
<font id="Luiss Serif Regular">
<font-face  font-family="Luiss Serif" units-per-em="2000" ascent="1480" descent="-520" font-style="normal" font-weight="400" font-stretch="normal" cap-height="1338" x-height="848" underline-position="-175" underline-thickness="50" />
<missing-glyph  horiz-adv-x="1294" d="M984 102 L309 102 L647 598 L984 102 Z M309 1236 L985 1236 L647 740 L309 1236 Z M696 669 L1043 1179 L1043 158 L696 669 Z M251 1181 L598 669 L251 159 L251 1181 Z M1053 0 C1104 0 1144 41 1144 91 L1144 1247 C1144 1297 1104 1338 1053 1338 L241 1338 C190 1338 150 1297 150 1247 L150 91 C150 41 190 0 241 0 L1053 0 Z " />
<glyph glyph-name="space" unicode="&#x20;" horiz-adv-x="320" d="" />
<glyph glyph-name="exclam" unicode="&#x21;" horiz-adv-x="450" d="M254 387 C266 817 338 1127 338 1225 C338 1290 299 1358 223 1358 C147 1358 109 1290 109 1225 C109 1127 181 817 193 387 L254 387 Z M319 73 C319 123 275 167 225 167 C174 167 132 123 132 73 C132 22 174 -20 225 -20 C275 -20 319 22 319 73 L319 73 Z " />
<glyph glyph-name="quotedbl" unicode="&#x22;" horiz-adv-x="587" d="M112 823 C150 1063 227 1223 227 1288 C227 1324 203 1358 153 1358 C90 1358 60 1305 60 1253 C60 1202 69 1109 69 984 C69 935 68 881 64 823 L112 823 Z M412 823 C450 1063 527 1223 527 1288 C527 1324 503 1358 453 1358 C390 1358 360 1305 360 1253 C360 1202 369 1109 369 984 C369 935 368 881 364 823 L412 823 Z " />
<glyph glyph-name="numbersign" unicode="&#x23;" horiz-adv-x="1075" d="M113 856 L363 856 L308 488 L59 488 L50 426 L299 426 L245 64 L313 64 L367 426 L651 426 L597 64 L665 64 L719 426 L953 426 L962 488 L728 488 L783 856 L1016 856 L1025 918 L793 918 L847 1280 L779 1280 L725 918 L441 918 L495 1280 L427 1280 L373 918 L122 918 L113 856 Z M431 856 L715 856 L660 488 L376 488 L431 856 Z " />
<glyph glyph-name="dollar" unicode="&#x24;" horiz-adv-x="1069" d="M466 1329 L466 1360 C274 1338 115 1198 115 982 C115 827 215 712 367 653 L575 572 C724 514 787 437 787 308 C787 151 684 41 529 41 C300 41 176 173 176 468 L123 468 L123 96 C226 31 332 -14 466 -23 L466 17 L563 17 L563 -23 C786 -8 954 123 954 371 C954 576 809 673 618 748 L424 824 C322 864 264 943 264 1045 C264 1189 373 1304 514 1304 C691 1304 807 1194 807 952 L864 952 L864 1259 C766 1320 661 1354 563 1361 L563 1329 L466 1329 Z M466 1360 C483 1362 501 1363 519 1363 C533 1363 548 1362 563 1361 L563 1605 L466 1700 L466 1360 Z M563 -282 L563 -23 C548 -24 532 -25 517 -25 C499 -25 482 -24 466 -23 L466 -282 L563 -282 Z " />
<glyph glyph-name="percent" unicode="&#x25;" horiz-adv-x="1332" d="M194 -89 L1185 1407 L1115 1407 L124 -89 L194 -89 Z M1164 369 C1164 101 1124 29 1033 29 C943 29 903 101 903 369 C903 636 943 709 1033 709 C1124 709 1164 636 1164 369 L1164 369 Z M1033 751 C869 751 785 572 785 369 C785 164 869 -14 1033 -14 C1198 -14 1282 164 1282 369 C1282 572 1198 751 1033 751 L1033 751 Z M429 976 C429 708 389 636 298 636 C208 636 168 708 168 976 C168 1243 208 1316 298 1316 C389 1316 429 1243 429 976 L429 976 Z M298 1358 C134 1358 50 1179 50 976 C50 771 134 593 298 593 C463 593 547 771 547 976 C547 1179 463 1358 298 1358 L298 1358 Z " />
<glyph glyph-name="ampersand" unicode="&#x26;" horiz-adv-x="1143" d="M1074 831 C1074 554 518 707 431 434 L458 394 C479 487 586 523 667 523 C790 523 847 423 847 314 C847 180 756 30 533 30 C354 30 242 200 242 358 C242 534 363 671 558 671 L558 717 C397 717 297 828 297 979 C297 1110 391 1203 517 1203 C700 1203 740 1032 740 887 L790 887 L790 1157 C733 1202 611 1254 508 1254 C318 1254 141 1173 141 968 C141 796 270 707 418 693 C224 676 74 535 74 346 C74 95 268 -23 520 -23 C782 -23 903 138 903 311 C903 382 884 457 836 520 L865 520 C1052 520 1125 673 1125 779 L1074 831 Z " />
<glyph glyph-name="quotesingle" unicode="&#x27;" horiz-adv-x="287" d="M112 823 C150 1063 227 1223 227 1288 C227 1324 203 1358 153 1358 C90 1358 60 1305 60 1253 C60 1202 69 1109 69 984 C69 935 68 881 64 823 L112 823 Z " />
<glyph glyph-name="parenleft" unicode="&#x28;" horiz-adv-x="497" d="M440 -446 C241 -156 163 141 163 454 C163 767 241 1063 440 1353 L391 1381 C357 1337 95 980 95 454 C95 -72 357 -430 391 -473 L440 -446 Z " />
<glyph glyph-name="parenright" unicode="&#x29;" horiz-adv-x="497" d="M74 -473 C108 -430 370 -72 370 454 C370 980 108 1337 74 1381 L25 1353 C224 1063 302 767 302 454 C302 141 224 -156 25 -446 L74 -473 Z " />
<glyph glyph-name="asterisk" unicode="&#x2a;" horiz-adv-x="702" d="M40 1126 C40 1071 95 1040 141 1040 C176 1040 205 1055 255 1055 C275 1055 297 1052 324 1046 C244 953 190 978 145 917 C135 902 127 881 127 860 C127 814 168 778 211 778 C242 778 268 797 283 816 C326 878 286 921 351 1027 C415 922 374 878 420 816 C434 797 461 777 492 777 C537 777 575 818 575 860 C575 881 567 902 557 916 C511 977 458 954 378 1046 C405 1052 427 1055 446 1055 C495 1055 525 1039 560 1039 C610 1039 662 1076 662 1126 C662 1175 622 1213 576 1213 C480 1213 494 1121 366 1078 C376 1200 436 1211 436 1288 C436 1325 413 1377 351 1377 C289 1377 266 1325 266 1288 C266 1212 324 1200 334 1077 C208 1123 227 1213 125 1213 C75 1213 40 1172 40 1126 L40 1126 Z " />
<glyph glyph-name="plus" unicode="&#x2b;" horiz-adv-x="1056" d="M100 419 L488 419 L488 30 L567 30 L567 417 L956 417 L956 496 L569 496 L569 886 L490 886 L490 497 L100 497 L100 419 Z " />
<glyph glyph-name="comma" unicode="&#x2c;" horiz-adv-x="443" d="M358 -14 C358 96 300 183 208 183 C150 183 101 136 101 80 C101 15 152 -18 198 -18 C242 -18 286 14 286 80 C304 54 311 23 311 -8 C311 -142 214 -260 92 -317 L113 -355 C234 -304 358 -167 358 -14 L358 -14 Z " />
<glyph glyph-name="hyphen" unicode="&#x2d;" horiz-adv-x="672" d="M125 405 L547 405 L547 532 L125 532 L125 405 Z " />
<glyph glyph-name="period" unicode="&#x2e;" horiz-adv-x="423" d="M318 89 C318 150 270 198 214 198 C156 198 109 150 109 89 C109 29 156 -20 214 -20 C270 -20 318 29 318 89 L318 89 Z " />
<glyph glyph-name="slash" unicode="&#x2f;" horiz-adv-x="796" d="M150 -89 L716 1407 L646 1407 L80 -89 L150 -89 Z " />
<glyph glyph-name="zero" unicode="0" horiz-adv-x="1002" d="M733 615 C733 155 662 32 501 32 C340 32 267 155 267 615 C267 1075 340 1200 501 1200 C662 1200 733 1075 733 615 L733 615 Z M501 1254 C231 1254 92 956 92 615 C92 275 231 -23 501 -23 C770 -23 909 275 909 615 C909 956 770 1254 501 1254 L501 1254 Z " />
<glyph glyph-name="one" unicode="1" horiz-adv-x="661" d="M128 0 L591 0 L591 41 L556 41 C479 41 441 55 441 121 L441 1231 C441 1231 229 1211 70 1203 L70 1162 L249 1162 C270 1162 278 1153 278 1133 L278 121 C278 52 236 42 150 41 L128 41 L128 0 Z " />
<glyph glyph-name="two" unicode="2" horiz-adv-x="891" d="M138 876 L188 876 C190 1048 241 1203 429 1203 C587 1203 634 1077 634 949 C634 775 557 615 454 481 C349 346 224 231 109 116 L83 0 L805 0 L840 362 L793 362 L748 139 L226 139 C295 197 410 285 521 393 C672 540 813 712 813 920 C813 1144 644 1254 443 1254 C315 1254 230 1213 138 1158 L138 876 Z " />
<glyph glyph-name="three" unicode="3" horiz-adv-x="962" d="M278 647 C335 647 402 645 438 640 C616 618 687 497 687 338 C687 179 608 31 438 31 C252 31 160 167 160 354 L111 354 L111 72 C209 10 327 -23 448 -23 C679 -23 861 86 861 331 C861 557 694 661 495 673 C675 687 814 789 814 973 C814 1182 630 1253 456 1253 C328 1253 232 1212 139 1157 L139 875 L189 875 C193 1043 250 1203 437 1203 C574 1203 648 1096 648 972 C648 831 572 734 438 706 C390 696 334 692 278 691 L278 647 Z " />
<glyph glyph-name="four" unicode="4" horiz-adv-x="943" d="M609 871 L609 497 L157 497 L542 1231 L482 1231 L56 448 L56 358 L583 358 C599 358 609 348 609 331 L609 121 C609 52 571 41 482 41 L460 41 L460 0 L890 0 L890 41 C802 41 763 52 763 121 L763 922 L609 871 Z " />
<glyph glyph-name="five" unicode="5" horiz-adv-x="933" d="M102 354 L102 72 C200 11 303 -23 424 -23 C689 -23 831 140 831 391 C831 634 698 786 460 786 C352 786 243 750 175 684 L225 1092 L781 1092 L793 1231 L173 1231 L106 633 L158 599 C229 671 313 721 414 721 C618 721 668 511 668 356 C668 187 612 30 425 30 C241 30 151 169 151 354 L102 354 Z " />
<glyph glyph-name="six" unicode="6" horiz-adv-x="933" d="M488 29 C318 29 269 291 269 409 C269 547 325 740 489 740 C664 740 696 529 696 401 C696 260 662 29 488 29 L488 29 Z M522 805 C413 805 310 745 269 648 C288 945 448 1143 728 1227 L714 1271 C369 1179 102 894 102 494 C102 239 186 -23 475 -23 C719 -23 859 162 859 393 C859 607 737 805 522 805 L522 805 Z " />
<glyph glyph-name="seven" unicode="7" horiz-adv-x="752" d="M231 1 L734 1199 L734 1231 L52 1231 L19 1092 L602 1092 L78 1 L231 1 Z " />
<glyph glyph-name="eight" unicode="8" horiz-adv-x="995" d="M735 281 C735 159 645 30 515 30 C346 30 261 180 261 325 C261 430 297 526 383 595 C395 604 408 610 423 610 C433 610 444 607 457 602 C590 541 735 448 735 281 L735 281 Z M693 949 C693 877 678 808 636 747 C607 705 586 687 563 687 C545 687 526 696 501 713 C391 784 303 875 303 1007 C303 1119 380 1205 491 1205 C624 1205 693 1082 693 949 L693 949 Z M898 314 C898 489 767 610 611 667 C775 725 848 841 848 971 C848 1143 696 1254 496 1254 C317 1254 154 1139 154 960 C154 810 253 696 378 638 C230 588 97 486 97 314 C97 75 312 -19 502 -19 C703 -19 898 86 898 314 L898 314 Z " />
<glyph glyph-name="nine" unicode="9" horiz-adv-x="933" d="M445 1202 C615 1202 664 940 664 822 C664 684 608 491 444 491 C269 491 237 702 237 830 C237 971 271 1202 445 1202 L445 1202 Z M411 426 C519 426 622 486 664 583 C644 286 485 88 205 4 L218 -40 C563 52 831 337 831 737 C831 992 747 1254 458 1254 C214 1254 74 1069 74 838 C74 624 195 426 411 426 L411 426 Z " />
<glyph glyph-name="colon" unicode="&#x3a;" horiz-adv-x="419" d="M314 728 C314 789 266 837 210 837 C152 837 105 789 105 728 C105 668 152 619 210 619 C266 619 314 668 314 728 L314 728 Z M314 89 C314 150 266 198 210 198 C152 198 105 150 105 89 C105 29 152 -20 210 -20 C266 -20 314 29 314 89 L314 89 Z " />
<glyph glyph-name="semicolon" unicode="&#x3b;" horiz-adv-x="443" d="M358 -14 C358 -167 234 -304 113 -355 L92 -317 C214 -260 311 -142 311 -8 C311 23 304 54 286 80 C286 14 242 -18 198 -18 C152 -18 101 15 101 80 C101 136 150 183 208 183 C300 183 358 96 358 -14 L358 -14 Z M312 728 C312 789 264 837 208 837 C150 837 103 789 103 728 C103 668 150 619 208 619 C264 619 312 668 312 728 L312 728 Z " />
<glyph glyph-name="less" unicode="&#x3c;" horiz-adv-x="797" d="M678 7 L724 73 C724 73 309 364 172 460 L727 843 L681 909 L101 508 C80 494 70 477 70 460 C70 443 81 425 101 411 L678 7 Z " />
<glyph glyph-name="equal" unicode="&#x3d;" horiz-adv-x="1016" d="M100 539 L916 536 L916 616 L100 619 L100 539 Z M100 299 L916 296 L916 376 L100 379 L100 299 Z " />
<glyph glyph-name="greater" unicode="&#x3e;" horiz-adv-x="797" d="M696 411 C716 425 727 443 727 460 C727 477 717 494 696 508 L116 909 L70 843 L625 460 C488 364 73 73 73 73 L119 7 L696 411 Z " />
<glyph glyph-name="question" unicode="&#x3f;" horiz-adv-x="795" d="M419 73 C419 123 375 167 325 167 C274 167 232 123 232 73 C232 22 274 -20 325 -20 C375 -20 419 22 419 73 L419 73 Z M85 944 L135 944 C135 1160 201 1306 407 1306 C520 1306 618 1219 618 1104 C618 1046 583 1002 545 965 L389 815 C313 742 273 648 273 518 C273 476 276 425 276 387 L338 387 C338 505 347 542 445 633 L583 762 C669 842 710 949 710 1047 C710 1232 593 1363 409 1363 C297 1363 198 1322 85 1250 L85 944 Z " />
<glyph glyph-name="at" unicode="&#x40;" horiz-adv-x="1551" d="M918 714 L918 501 C918 408 850 311 746 311 C645 311 601 396 601 487 C601 626 723 714 918 714 L918 714 Z M1098 155 C1004 86 900 47 775 47 C453 47 192 323 192 664 C192 1005 453 1281 775 1281 C1097 1281 1359 1005 1359 664 C1359 525 1303 301 1146 301 C1098 301 1066 333 1066 398 L1066 934 C1066 1075 974 1133 819 1133 C698 1133 568 1080 490 1021 L490 828 L529 828 C529 963 633 1069 780 1069 C878 1069 918 1031 918 943 L918 761 C736 759 439 706 439 465 C439 323 554 240 694 240 C775 240 875 271 918 350 C940 265 1020 225 1100 225 C1338 225 1431 442 1431 664 C1431 1044 1137 1353 775 1353 C413 1353 120 1044 120 664 C120 284 413 -25 775 -25 C912 -25 1038 18 1143 93 L1098 155 Z " />
<glyph glyph-name="A" unicode="A" horiz-adv-x="1217" d="M757 438 L836 166 C840 153 846 127 846 116 C846 72 816 47 772 46 L715 45 L715 0 L1202 0 L1202 45 L1173 46 C1111 48 1046 72 1013 183 L669 1338 L541 1338 L190 174 C166 95 104 45 55 45 L15 45 L15 0 L360 0 L360 45 L317 45 C258 45 232 74 232 114 C232 125 237 146 241 158 L326 438 L757 438 Z M547 1167 L742 488 L340 488 L547 1167 Z " />
<glyph glyph-name="B" unicode="B" horiz-adv-x="1150" d="M386 55 L386 683 L505 683 C715 683 853 618 853 371 C853 124 709 55 509 55 L386 55 Z M386 731 L386 1284 L512 1284 C678 1284 795 1230 795 1029 C795 817 698 731 485 731 L386 731 Z M81 1338 L81 1293 C177 1293 219 1281 219 1207 L219 131 C219 57 177 45 81 45 L81 0 L557 0 C823 0 1045 65 1045 362 C1045 577 909 707 699 710 L699 718 C861 747 983 850 983 1032 C983 1311 712 1338 475 1338 L81 1338 Z " />
<glyph glyph-name="C" unicode="C" horiz-adv-x="1125" d="M1020 952 L1020 1259 C917 1318 814 1363 672 1363 C253 1363 105 1054 105 669 C105 268 252 -25 662 -25 C793 -25 916 11 1020 79 L1020 386 L966 386 C962 181 888 35 662 35 C324 35 291 421 291 669 C291 1184 451 1304 669 1304 C868 1304 966 1194 966 952 L1020 952 Z " />
<glyph glyph-name="D" unicode="D" horiz-adv-x="1271" d="M972 669 C972 276 869 54 522 54 L386 54 L386 1284 L480 1284 C843 1284 972 1077 972 669 L972 669 Z M574 0 C989 0 1156 268 1156 688 C1156 1108 934 1338 550 1338 L81 1338 L81 1293 C177 1293 219 1281 219 1207 L219 131 C219 57 177 45 81 45 L81 0 L574 0 Z " />
<glyph glyph-name="E" unicode="E" horiz-adv-x="1089" d="M932 1338 L81 1338 L81 1293 C177 1293 219 1281 219 1207 L219 131 C219 57 177 45 81 45 L81 0 L955 0 L994 332 L937 332 C909 128 872 55 763 55 L386 55 L386 682 L539 682 C644 682 660 646 660 496 L715 496 L715 918 L660 918 C660 769 644 732 539 732 L386 732 L386 1285 L763 1285 C855 1285 890 1239 908 1099 L961 1099 L932 1338 Z " />
<glyph glyph-name="F" unicode="F" horiz-adv-x="987" d="M566 45 L524 45 C428 45 386 57 386 131 L386 682 L539 682 C644 682 660 646 660 496 L715 496 L715 918 L660 918 C660 769 644 732 539 732 L386 732 L386 1285 L763 1285 C855 1285 890 1239 908 1099 L961 1099 L932 1338 L81 1338 L81 1293 C177 1293 219 1281 219 1207 L219 131 C219 57 177 45 81 45 L81 0 L566 0 L566 45 Z " />
<glyph glyph-name="G" unicode="G" horiz-adv-x="1258" d="M1019 1260 C917 1321 807 1363 671 1363 C313 1363 105 1137 105 669 C105 220 328 -25 664 -25 C808 -25 965 43 1098 171 L1098 638 L797 638 L797 585 L856 585 C923 585 931 565 931 501 L931 237 C931 164 858 35 674 35 C479 35 289 113 289 669 C289 1184 448 1305 666 1305 C866 1305 965 1195 965 953 L1019 953 L1019 1260 L1019 1260 Z " />
<glyph glyph-name="H" unicode="H" horiz-adv-x="1356" d="M1275 0 L1275 45 C1179 45 1137 57 1137 131 L1137 1207 C1137 1281 1179 1293 1275 1293 L1275 1338 L832 1338 L832 1293 C928 1293 970 1281 970 1207 L970 732 L386 732 L386 1207 C386 1281 428 1293 524 1293 L524 1338 L81 1338 L81 1293 C177 1293 219 1281 219 1207 L219 131 C219 57 177 45 81 45 L81 0 L524 0 L524 45 C428 45 386 57 386 131 L386 682 L970 682 L970 131 C970 57 928 45 832 45 L832 0 L1275 0 Z " />
<glyph glyph-name="I" unicode="I" horiz-adv-x="605" d="M524 0 L524 45 C428 45 386 57 386 131 L386 1207 C386 1281 428 1293 524 1293 L524 1338 L81 1338 L81 1293 C177 1293 219 1281 219 1207 L219 131 C219 57 177 45 81 45 L81 0 L524 0 Z " />
<glyph glyph-name="J" unicode="J" horiz-adv-x="745" d="M214 37 C74 37 40 175 40 293 L-15 293 L-15 57 C72 3 163 -25 249 -25 C406 -25 526 72 526 285 L526 1207 C526 1281 568 1293 664 1293 L664 1338 L221 1338 L221 1293 C317 1293 359 1281 359 1207 L359 194 C359 89 297 37 214 37 L214 37 Z " />
<glyph glyph-name="K" unicode="K" horiz-adv-x="1245" d="M524 0 L524 45 C428 45 386 57 386 131 L386 650 L436 707 L840 137 C857 112 865 96 865 83 C865 60 845 45 808 45 L756 45 L756 0 L1235 0 L1235 45 L1201 45 C1149 45 1096 85 1055 142 L550 838 L948 1293 L1094 1293 L1094 1338 L744 1338 L744 1293 L880 1293 L386 726 L386 1207 C386 1281 428 1293 524 1293 L524 1338 L81 1338 L81 1293 C177 1293 219 1281 219 1207 L219 131 C219 57 177 45 81 45 L81 0 L524 0 Z " />
<glyph glyph-name="L" unicode="L" horiz-adv-x="984" d="M61 0 L915 0 L954 356 L897 356 C869 152 808 68 699 68 L366 68 L366 1207 C366 1281 408 1293 504 1293 L566 1293 L566 1338 L61 1338 L61 1293 C157 1293 199 1281 199 1207 L199 131 C199 57 157 45 61 45 L61 0 Z " />
<glyph glyph-name="M" unicode="M" horiz-adv-x="1521" d="M405 1338 L81 1338 L81 1293 C177 1293 219 1281 219 1207 L219 131 C219 57 177 45 81 45 L81 0 L410 0 L410 45 C314 45 272 57 272 131 L272 1200 L700 41 L731 41 L1135 1192 L1135 131 C1135 57 1093 45 997 45 L997 0 L1440 0 L1440 45 C1344 45 1302 57 1302 131 L1302 1207 C1302 1281 1344 1293 1440 1293 L1440 1338 L1129 1338 L770 329 L405 1338 Z " />
<glyph glyph-name="N" unicode="N" horiz-adv-x="1328" d="M1050 311 L409 1338 L96 1338 L96 1293 C190 1293 230 1280 230 1206 L230 131 C230 53 186 45 81 45 L81 0 L435 0 L435 45 C330 45 284 53 284 131 L284 1198 L1047 -18 L1104 -18 L1104 1207 C1104 1285 1147 1293 1252 1293 L1252 1338 L899 1338 L899 1293 C1004 1293 1050 1285 1050 1207 L1050 311 Z " />
<glyph glyph-name="O" unicode="O" horiz-adv-x="1264" d="M1164 669 C1164 1119 964 1363 632 1363 C300 1363 100 1119 100 669 C100 219 300 -25 632 -25 C964 -25 1164 219 1164 669 L1164 669 Z M978 669 C978 205 872 35 632 35 C392 35 286 205 286 669 C286 1133 392 1304 632 1304 C872 1304 978 1133 978 669 L978 669 Z " />
<glyph glyph-name="P" unicode="P" horiz-adv-x="1061" d="M81 0 L583 0 L583 45 L510 45 C414 45 386 57 386 131 L386 591 L600 591 C879 591 1006 753 1006 980 C1006 1170 913 1338 589 1338 L81 1338 L81 1293 C177 1293 219 1281 219 1207 L219 131 C219 57 177 45 81 45 L81 0 Z M386 643 L386 1285 L544 1285 C741 1285 823 1167 823 967 C823 756 705 643 490 643 L386 643 Z " />
<glyph glyph-name="Q" unicode="Q" horiz-adv-x="1244" d="M584 -104 L1118 -104 L1023 -201 L584 -201 L584 -104 Z M1154 669 C1154 1119 954 1363 622 1363 C290 1363 90 1119 90 669 C90 219 290 -25 622 -25 C954 -25 1154 219 1154 669 L1154 669 Z M968 669 C968 205 862 35 622 35 C382 35 276 205 276 669 C276 1133 382 1304 622 1304 C862 1304 968 1133 968 669 L968 669 Z " />
<glyph glyph-name="R" unicode="R" horiz-adv-x="1199" d="M366 1283 L497 1283 C700 1283 789 1218 789 1001 C789 786 673 711 504 711 L366 711 L366 1283 Z M61 1338 L61 1293 C157 1293 199 1281 199 1207 L199 131 C199 57 157 45 61 45 L61 0 L531 0 L531 45 L504 45 C408 45 366 57 366 131 L366 652 L491 652 L898 0 L1179 0 L1179 45 L1078 45 L679 670 C856 716 974 808 974 999 C974 1280 729 1338 504 1338 L61 1338 Z " />
<glyph glyph-name="S" unicode="S" horiz-adv-x="1069" d="M864 1259 C752 1330 630 1363 519 1363 C304 1363 115 1218 115 982 C115 827 215 712 367 653 L575 572 C724 514 787 437 787 308 C787 151 684 41 529 41 C300 41 176 173 176 468 L123 468 L123 96 C239 23 358 -25 517 -25 C763 -25 954 107 954 371 C954 576 809 673 618 748 L424 824 C322 864 264 943 264 1045 C264 1189 373 1304 514 1304 C691 1304 807 1194 807 952 L864 952 L864 1259 Z " />
<glyph glyph-name="T" unicode="T" horiz-adv-x="1022" d="M44 1338 L5 1021 L62 1021 C90 1225 139 1285 248 1285 L428 1285 L428 131 C428 57 386 45 290 45 L248 45 L248 0 L775 0 L775 45 L733 45 C637 45 595 57 595 131 L595 1285 L774 1285 C883 1285 932 1225 960 1021 L1017 1021 L978 1338 L44 1338 Z " />
<glyph glyph-name="U" unicode="U" horiz-adv-x="1287" d="M524 1338 L81 1338 L81 1293 C177 1293 219 1281 219 1207 L219 461 C219 187 337 -25 655 -25 C918 -25 1066 164 1066 425 L1066 1207 C1066 1281 1110 1293 1206 1293 L1206 1338 L852 1338 L852 1293 C948 1293 1005 1281 1005 1207 L1005 421 C1005 222 899 43 685 43 C452 43 386 254 386 440 L386 1207 C386 1281 428 1293 524 1293 L524 1338 Z " />
<glyph glyph-name="V" unicode="V" horiz-adv-x="1261" d="M892 1293 L934 1293 C994 1293 1018 1264 1018 1225 C1018 1214 1010 1183 1006 1170 L704 173 L388 1173 C384 1186 378 1213 378 1224 C378 1267 408 1293 453 1293 L510 1293 L510 1338 L25 1338 L25 1293 L53 1293 C116 1293 179 1265 214 1155 L584 0 L709 0 L1062 1164 C1086 1243 1126 1293 1196 1293 L1236 1293 L1236 1338 L892 1338 L892 1293 Z " />
<glyph glyph-name="W" unicode="W" horiz-adv-x="1916" d="M1359 173 L1044 1173 C1040 1184 1033 1213 1033 1223 C1033 1262 1058 1293 1107 1293 L1189 1293 L1189 1338 L680 1338 L680 1293 L708 1293 C771 1293 833 1272 868 1162 L947 913 L704 173 L389 1174 C386 1185 379 1213 379 1223 C379 1261 403 1293 453 1293 L510 1293 L510 1338 L25 1338 L25 1293 L53 1293 C116 1293 179 1270 214 1160 L584 0 L709 0 L977 820 L1238 0 L1364 0 L1757 1293 L1891 1293 L1891 1338 L1523 1338 L1523 1293 L1697 1293 L1359 173 Z " />
<glyph glyph-name="X" unicode="X" horiz-adv-x="1291" d="M678 803 L458 1188 C449 1203 440 1226 440 1241 C440 1269 458 1293 500 1293 L574 1293 L574 1338 L47 1338 L47 1293 L75 1293 C172 1293 210 1274 276 1159 L570 645 L163 45 L30 45 L30 0 L398 0 L398 45 L226 45 L599 595 L850 157 C863 134 869 117 869 101 C869 70 850 45 808 45 L734 45 L734 0 L1261 0 L1261 45 L1232 45 C1136 45 1098 68 1032 183 L706 754 L1071 1293 L1204 1293 L1204 1338 L835 1338 L835 1293 L1010 1293 L678 803 Z " />
<glyph glyph-name="Y" unicode="Y" horiz-adv-x="1188" d="M646 570 L394 1178 C381 1210 374 1235 374 1255 C374 1278 392 1293 432 1293 L506 1293 L506 1338 L25 1338 L25 1293 L54 1293 C135 1293 179 1264 223 1159 L515 468 L515 131 C515 57 473 45 377 45 L377 0 L820 0 L820 45 C724 45 682 57 682 131 L682 519 L1029 1293 L1163 1293 L1163 1338 L795 1338 L795 1293 L969 1293 L646 570 Z " />
<glyph glyph-name="Z" unicode="Z" horiz-adv-x="1137" d="M1023 0 L1062 356 L1005 356 C977 152 904 54 795 54 L282 54 L1042 1293 L1042 1338 L144 1338 L105 982 L162 982 C190 1187 263 1285 372 1285 L837 1285 L70 45 L70 0 L1023 0 Z " />
<glyph glyph-name="bracketleft" unicode="&#x5b;" horiz-adv-x="480" d="M415 1363 L165 1363 L165 -451 L415 -451 L415 -399 L228 -399 L228 1311 L415 1311 L415 1363 Z " />
<glyph glyph-name="backslash" unicode="&#x5c;" horiz-adv-x="796" d="M716 -89 L150 1407 L80 1407 L646 -89 L716 -89 Z " />
<glyph glyph-name="bracketright" unicode="&#x5d;" horiz-adv-x="480" d="M35 1311 L222 1311 L222 -399 L35 -399 L35 -451 L285 -451 L285 1363 L35 1363 L35 1311 Z " />
<glyph glyph-name="asciicircum" unicode="&#x5e;" horiz-adv-x="1294" d="M984 102 L309 102 L647 598 L984 102 Z M309 1236 L985 1236 L647 740 L309 1236 Z M696 669 L1043 1179 L1043 158 L696 669 Z M251 1181 L598 669 L251 159 L251 1181 Z M1053 0 C1104 0 1144 41 1144 91 L1144 1247 C1144 1297 1104 1338 1053 1338 L241 1338 C190 1338 150 1297 150 1247 L150 91 C150 41 190 0 241 0 L1053 0 Z " />
<glyph glyph-name="underscore" unicode="&#x5f;" horiz-adv-x="1100" d="M101 -198 L1000 -198 L1000 -129 L101 -129 L101 -198 Z " />
<glyph glyph-name="grave" unicode="&#x60;" horiz-adv-x="577" d="M462 1026 L115 1371 L115 1196 L364 1026 L462 1026 Z " />
<glyph glyph-name="a" unicode="a" horiz-adv-x="909" d="M575 456 L575 238 C575 142 505 43 399 43 C296 43 250 130 250 223 C250 365 376 456 575 456 L575 456 Z M844 3 L844 38 C816 30 797 26 779 26 C744 26 725 49 725 117 L725 680 C725 824 631 883 473 883 C349 883 217 829 137 769 L137 571 L177 571 C177 709 283 818 433 818 C533 818 575 779 575 689 L575 503 C388 501 85 447 85 201 C85 55 202 -30 345 -30 C428 -30 530 2 575 83 C590 1 649 -31 723 -31 C766 -31 816 -17 844 3 L844 3 Z " />
<glyph glyph-name="b" unicode="b" horiz-adv-x="996" d="M723 424 C723 301 723 29 538 29 C383 29 331 215 331 350 L331 498 C331 629 379 819 545 819 C723 819 723 564 723 424 L723 424 Z M331 1338 L75 1338 L75 1303 L100 1303 C155 1303 181 1275 181 1218 L181 120 C181 63 155 35 100 35 L75 35 L75 0 L331 0 L331 126 C351 46 446 -35 569 -35 C760 -35 891 118 891 424 C891 763 742 883 569 883 C466 883 369 817 331 722 L331 1338 Z " />
<glyph glyph-name="c" unicode="c" horiz-adv-x="835" d="M720 802 C633 857 536 883 449 883 C238 883 80 721 80 424 C80 70 255 -35 464 -35 C616 -35 719 79 750 217 L701 217 C674 124 601 18 487 18 C367 18 248 76 248 424 C248 561 257 834 469 834 C593 834 676 742 676 562 L720 562 L720 802 Z " />
<glyph glyph-name="d" unicode="d" horiz-adv-x="980" d="M253 424 C253 574 254 819 437 819 C598 819 645 623 645 498 L645 350 C645 214 597 29 436 29 C253 29 253 303 253 424 L253 424 Z M645 722 C607 817 510 883 407 883 C234 883 85 763 85 424 C85 118 216 -35 407 -35 C530 -35 625 46 645 126 L645 0 L901 0 L901 35 L877 35 C805 35 795 55 795 120 L795 1338 L539 1338 L539 1303 L564 1303 C630 1303 645 1286 645 1232 L645 722 Z " />
<glyph glyph-name="e" unicode="e" horiz-adv-x="855" d="M421 837 C541 837 585 686 585 504 L585 483 L251 483 L251 524 C251 721 309 837 421 837 L421 837 Z M251 443 L765 443 C765 640 670 883 421 883 C212 883 70 670 70 412 C70 99 249 -35 424 -35 C568 -35 709 57 749 223 L699 223 C648 73 543 21 451 21 C345 21 251 105 251 250 L251 443 Z " />
<glyph glyph-name="f" unicode="f" horiz-adv-x="546" d="M331 848 L331 1145 C331 1210 344 1303 421 1303 C502 1303 511 1204 511 1145 L511 1122 L571 1122 L571 1298 C542 1321 472 1347 421 1347 C301 1347 181 1286 181 1057 L181 848 L75 848 L75 813 L100 813 C155 813 181 785 181 728 L181 111 C181 60 152 35 100 35 L75 35 L75 0 L481 0 L481 35 L412 35 C359 35 331 60 331 111 L331 809 L487 809 L487 848 L331 848 Z " />
<glyph glyph-name="g" unicode="g" horiz-adv-x="997" d="M654 423 C654 191 601 35 446 35 C276 35 250 186 250 423 C250 643 276 816 446 816 C601 816 654 620 654 423 L654 423 Z M912 847 L656 847 L656 712 C616 812 528 878 424 878 C190 878 80 670 80 423 C80 149 190 -30 424 -30 C548 -30 616 40 656 140 L656 -100 C656 -259 609 -393 431 -393 C273 -393 221 -284 221 -156 L161 -156 L161 -370 C228 -422 347 -450 454 -450 C689 -450 806 -350 806 -132 L806 727 C806 792 816 812 888 812 L912 812 L912 847 Z " />
<glyph glyph-name="h" unicode="h" horiz-adv-x="1052" d="M75 1338 L75 1303 L100 1303 C155 1303 181 1275 181 1218 L181 120 C181 63 158 35 100 35 L75 35 L75 0 L437 0 L437 35 L412 35 C349 35 331 47 331 120 L331 483 C331 679 451 818 561 818 C653 818 708 760 708 622 L708 120 C708 55 701 35 630 35 L602 35 L602 0 L967 0 L967 35 L942 35 C879 35 863 47 863 120 L863 621 C863 798 753 883 608 883 C478 883 381 807 331 690 L331 1338 L75 1338 Z " />
<glyph glyph-name="i" unicode="i" horiz-adv-x="521" d="M75 813 L100 813 C172 813 181 793 181 728 L181 120 C181 55 171 35 99 35 L75 35 L75 0 L436 0 L436 35 L411 35 C349 35 331 47 331 120 L331 848 L75 848 L75 813 Z M244 1122 C292 1122 335 1167 335 1218 C335 1273 292 1320 244 1320 C193 1320 151 1273 151 1218 C151 1167 193 1122 244 1122 L244 1122 Z " />
<glyph glyph-name="j" unicode="j" horiz-adv-x="521" d="M75 813 L99 813 C171 813 181 793 181 728 L181 -263 C181 -374 131 -430 77 -430 C-6 -430 -42 -370 -42 -245 L-42 -231 L-82 -231 L-82 -407 C-32 -444 17 -470 115 -470 C249 -470 331 -398 331 -196 L331 848 L75 848 L75 813 Z M246 1122 L253 1122 C259 1123 265 1125 271 1127 L277 1130 C284 1133 290 1136 295 1141 C297 1142 299 1144 301 1146 C309 1153 315 1162 321 1171 L327 1185 L330 1195 C332 1202 333 1210 333 1218 L333 1222 C333 1226 332 1230 332 1234 L330 1242 C330 1243 330 1244 329 1246 C327 1253 324 1261 321 1268 L317 1274 C315 1276 314 1279 313 1281 C310 1285 307 1289 303 1292 L301 1295 C289 1306 275 1314 260 1318 C256 1319 251 1320 246 1320 L243 1320 C239 1320 235 1319 231 1319 C229 1318 227 1318 224 1318 C219 1317 214 1315 210 1313 C206 1312 203 1310 200 1308 C195 1306 192 1303 188 1300 L179 1292 C172 1285 166 1277 161 1268 C153 1253 149 1236 149 1218 L149 1214 C149 1201 152 1189 158 1178 L161 1171 L165 1165 L174 1153 L182 1146 C187 1141 193 1136 200 1133 C206 1129 213 1127 220 1125 C221 1124 223 1124 224 1124 L231 1122 L243 1122 L246 1122 Z " />
<glyph glyph-name="k" unicode="k" horiz-adv-x="1016" d="M663 124 C685 98 689 87 689 73 C689 54 677 35 655 35 L603 35 L603 0 L1016 0 L1016 35 L990 35 C937 35 889 78 844 132 L488 554 L776 813 L888 813 L888 848 L574 848 L574 813 L707 813 L331 473 L331 1338 L75 1338 L75 1303 L100 1303 C172 1303 181 1283 181 1218 L181 120 C181 55 171 35 99 35 L75 35 L75 0 L437 0 L437 35 L412 35 C349 35 331 47 331 120 L331 413 L379 456 L663 124 Z " />
<glyph glyph-name="l" unicode="l" horiz-adv-x="493" d="M401 15 C351 19 312 73 312 181 L312 1338 L55 1338 L55 1303 L80 1303 C152 1303 162 1283 162 1218 L162 248 C162 46 242 -26 376 -26 L401 -26 L401 15 Z " />
<glyph glyph-name="m" unicode="m" horiz-adv-x="1531" d="M181 120 C181 63 155 35 100 35 L75 35 L75 0 L437 0 L437 35 L412 35 C349 35 331 47 331 120 L331 483 C331 679 439 818 549 818 C641 818 684 760 684 622 L684 120 C684 55 677 35 606 35 L578 35 L578 0 L945 0 L945 35 L918 35 C855 35 839 47 839 120 L839 506 C839 685 953 818 1055 818 C1147 818 1190 760 1190 622 L1190 120 C1190 55 1183 35 1112 35 L1084 35 L1084 0 L1451 0 L1451 35 L1424 35 C1361 35 1345 47 1345 120 L1345 621 C1345 798 1247 883 1102 883 C972 883 887 807 834 683 C814 818 723 883 596 883 C466 883 381 807 331 690 L331 848 L75 848 L75 813 L100 813 C155 813 181 785 181 728 L181 120 Z " />
<glyph glyph-name="n" unicode="n" horiz-adv-x="1052" d="M75 848 L75 813 L100 813 C155 813 181 785 181 728 L181 120 C181 63 158 35 100 35 L75 35 L75 0 L437 0 L437 35 L412 35 C349 35 331 47 331 120 L331 483 C331 679 451 818 561 818 C653 818 708 760 708 622 L708 120 C708 55 701 35 630 35 L602 35 L602 0 L967 0 L967 35 L942 35 C879 35 863 47 863 120 L863 621 C863 798 753 883 608 883 C478 883 381 807 331 690 L331 848 L75 848 Z " />
<glyph glyph-name="o" unicode="o" horiz-adv-x="906" d="M816 424 C816 728 659 883 443 883 C227 883 70 728 70 424 C70 120 227 -35 443 -35 C659 -35 816 120 816 424 L816 424 Z M244 536 C244 722 307 842 443 842 C579 842 642 722 642 536 L642 312 C642 126 579 6 443 6 C307 6 244 126 244 312 L244 536 Z " />
<glyph glyph-name="p" unicode="p" horiz-adv-x="986" d="M723 424 C723 301 723 29 538 29 C383 29 330 215 330 350 L330 498 C330 629 379 819 545 819 C723 819 723 564 723 424 L723 424 Z M75 848 L75 813 L99 813 C171 813 181 793 181 728 L181 -302 C181 -359 155 -387 100 -387 L75 -387 L75 -422 L437 -422 L437 -388 L412 -388 C346 -388 331 -371 331 -317 L331 126 C351 46 446 -35 569 -35 C760 -35 891 118 891 424 C891 763 742 883 569 883 C466 883 369 818 331 723 L331 848 L75 848 Z " />
<glyph glyph-name="q" unicode="q" horiz-adv-x="976" d="M243 424 C243 564 243 819 421 819 C587 819 636 629 636 498 L636 350 C636 215 583 29 428 29 C243 29 243 301 243 424 L243 424 Z M635 848 L635 723 C597 818 500 883 397 883 C224 883 75 763 75 424 C75 118 206 -35 397 -35 C520 -35 615 46 635 126 L635 -317 C635 -371 620 -388 554 -388 L529 -388 L529 -422 L891 -422 L891 -387 L866 -387 C811 -387 785 -359 785 -302 L785 728 C785 793 795 813 867 813 L891 813 L891 848 L635 848 Z " />
<glyph glyph-name="r" unicode="r" horiz-adv-x="718" d="M412 35 C357 35 331 63 331 120 L331 497 C331 695 416 791 528 791 C594 791 643 750 643 657 L683 657 L683 866 C648 875 611 882 570 882 C459 882 354 811 331 693 L331 848 L75 848 L75 813 L100 813 C155 813 181 785 181 728 L181 120 C181 63 155 35 100 35 L75 35 L75 0 L460 0 L460 35 L412 35 Z " />
<glyph glyph-name="s" unicode="s" horiz-adv-x="770" d="M627 813 C557 855 472 883 385 883 C243 883 105 790 105 633 C105 508 181 418 297 375 L425 327 C497 300 574 249 574 161 C574 58 488 15 393 15 C233 15 150 105 150 298 L110 298 L110 54 C191 7 274 -35 385 -35 C547 -35 690 62 690 241 C690 368 606 428 487 476 L342 535 C276 562 208 601 208 685 C208 778 292 840 383 840 C506 840 587 773 587 614 L627 614 L627 813 Z " />
<glyph glyph-name="t" unicode="t" horiz-adv-x="578" d="M558 104 L507 104 C492 63 458 26 409 26 C351 26 329 85 329 139 L329 813 L542 813 L542 848 L329 848 L329 1141 L179 1141 L179 848 L20 848 L20 813 L179 813 L179 165 C179 50 251 -35 374 -35 C462 -35 532 15 558 104 L558 104 Z " />
<glyph glyph-name="u" unicode="u" horiz-adv-x="1021" d="M70 848 L70 813 L95 813 C150 813 176 785 176 728 L176 221 C176 47 272 -25 418 -25 C527 -25 646 54 680 159 L680 0 L936 0 L936 35 L911 35 C856 35 830 63 830 120 L830 848 L574 848 L574 813 L599 813 C654 813 680 785 680 728 L680 364 C680 162 555 39 453 39 C362 39 326 93 326 230 L326 848 L70 848 Z " />
<glyph glyph-name="v" unicode="v" horiz-adv-x="940" d="M611 813 L749 813 L514 100 L311 712 C305 730 300 751 300 760 C300 788 315 813 355 813 L398 813 L398 848 L15 848 L15 813 L49 813 C95 813 125 794 142 744 L391 0 L535 0 L808 813 L925 813 L925 848 L611 848 L611 813 Z " />
<glyph glyph-name="w" unicode="w" horiz-adv-x="1398" d="M883 813 L883 848 L510 848 L510 813 L534 813 C580 813 611 794 627 744 L675 589 L514 100 L311 712 C305 730 300 751 300 760 C300 788 315 813 355 813 L398 813 L398 848 L15 848 L15 813 L49 813 C95 813 125 794 142 744 L391 0 L535 0 L703 499 L859 0 L1003 0 L1266 813 L1383 813 L1383 848 L1069 848 L1069 813 L1207 813 L982 100 L796 712 C790 730 785 751 785 760 C785 788 800 813 840 813 L883 813 Z " />
<glyph glyph-name="x" unicode="x" horiz-adv-x="918" d="M338 0 L338 35 L206 35 L431 347 L573 116 C583 100 591 87 591 73 C591 50 577 35 552 35 L501 35 L501 0 L898 0 L898 35 L882 35 C802 35 772 73 736 132 L525 477 L767 813 L879 813 L879 848 L571 848 L571 813 L703 813 L496 525 L369 732 C359 747 351 761 351 775 C351 798 365 813 390 813 L437 813 L437 848 L40 848 L40 813 L60 813 C140 813 170 776 206 717 L402 395 L144 35 L30 35 L30 0 L338 0 Z " />
<glyph glyph-name="y" unicode="y" horiz-adv-x="920" d="M470 0 L399 -201 C364 -302 300 -359 241 -359 C192 -359 145 -313 143 -216 L83 -216 L83 -415 C124 -439 183 -450 218 -450 C336 -450 411 -349 452 -221 L784 813 L905 813 L905 847 L590 847 L590 813 L729 813 L505 114 L311 712 C305 730 300 751 300 760 C300 788 315 813 355 813 L398 813 L398 848 L15 848 L15 813 L49 813 C95 813 125 794 142 744 L391 0 L470 0 Z " />
<glyph glyph-name="z" unicode="z" horiz-adv-x="857" d="M752 271 L719 271 C698 107 600 52 444 52 L262 52 L737 813 L737 848 L122 848 L110 571 L147 571 C180 733 257 804 431 804 L561 804 L80 35 L80 0 L742 0 L752 271 Z " />
<glyph glyph-name="braceleft" unicode="&#x7b;" horiz-adv-x="555" d="M75 426 C169 426 218 350 218 220 L218 -195 C218 -387 323 -450 440 -450 L490 -450 L490 -388 L440 -388 C355 -388 280 -341 280 -195 L280 220 C280 334 243 418 182 457 C243 496 280 580 280 694 L280 1109 C280 1255 355 1302 440 1302 L490 1302 L490 1364 L440 1364 C323 1364 218 1301 218 1109 L218 694 C218 564 169 488 75 488 L75 426 Z " />
<glyph glyph-name="bar" unicode="&#x7c;" horiz-adv-x="470" d="M270 -450 L270 1337 L200 1337 L200 -450 L270 -450 Z " />
<glyph glyph-name="braceright" unicode="&#x7d;" horiz-adv-x="555" d="M450 488 C356 488 307 564 307 694 L307 1109 C307 1301 202 1364 85 1364 L35 1364 L35 1302 L85 1302 C170 1302 245 1255 245 1109 L245 694 C245 580 282 496 343 457 C282 418 245 334 245 220 L245 -195 C245 -341 170 -388 85 -388 L35 -388 L35 -450 L85 -450 C202 -450 307 -387 307 -195 L307 220 C307 350 356 426 450 426 L450 488 Z " />
<glyph glyph-name="asciitilde" unicode="&#x7e;" horiz-adv-x="1294" d="M984 102 L309 102 L647 598 L984 102 Z M309 1236 L985 1236 L647 740 L309 1236 Z M696 669 L1043 1179 L1043 158 L696 669 Z M251 1181 L598 669 L251 159 L251 1181 Z M1053 0 C1104 0 1144 41 1144 91 L1144 1247 C1144 1297 1104 1338 1053 1338 L241 1338 C190 1338 150 1297 150 1247 L150 91 C150 41 190 0 241 0 L1053 0 Z " />
<glyph glyph-name="exclamdown" unicode="&#xa1;" horiz-adv-x="450" d="M193 951 C181 521 109 211 109 113 C109 48 147 -20 223 -20 C299 -20 338 48 338 113 C338 211 266 521 254 951 L193 951 Z M319 1265 C319 1316 275 1358 225 1358 C174 1358 132 1316 132 1265 C132 1215 174 1171 225 1171 C275 1171 319 1215 319 1265 L319 1265 Z " />
<glyph glyph-name="cent" unicode="&#xa2;" horiz-adv-x="835" d="M500 -282 L500 -33 C638 -21 731 87 760 217 L711 217 C684 124 611 18 497 18 C377 18 258 76 258 424 C258 561 267 834 479 834 C603 834 686 742 686 562 L730 562 L730 802 C659 846 582 872 509 880 L509 1113 L412 1208 L412 880 C225 858 90 698 90 424 C90 111 227 -7 403 -30 L403 -282 L500 -282 Z " />
<glyph glyph-name="sterling" unicode="&#xa3;" horiz-adv-x="984" d="M13 682 L199 682 L199 131 C199 57 157 45 61 45 L61 0 L915 0 L954 356 L897 356 C869 152 808 68 699 68 L366 68 L366 682 L666 682 L761 779 L366 779 L366 1207 C366 1281 408 1293 504 1293 L566 1293 L566 1338 L61 1338 L61 1293 C157 1293 199 1281 199 1207 L199 779 L13 779 L13 682 Z " />
<glyph glyph-name="yen" unicode="&#xa5;" horiz-adv-x="1188" d="M646 570 L394 1178 C381 1210 374 1235 374 1255 C374 1278 392 1293 432 1293 L506 1293 L506 1338 L25 1338 L25 1293 L54 1293 C135 1293 179 1264 223 1159 L493 521 L264 521 L264 424 L515 424 L515 131 C515 57 473 45 377 45 L377 0 L820 0 L820 45 C724 45 682 57 682 131 L682 424 L869 424 L965 521 L683 521 L1029 1293 L1163 1293 L1163 1338 L795 1338 L795 1293 L969 1293 L646 570 Z " />
<glyph glyph-name="brokenbar" unicode="&#xa6;" horiz-adv-x="478" d="M270 498 L270 1337 L200 1337 L200 498 L270 498 Z M200 389 L200 -450 L270 -450 L270 389 L200 389 Z " />
<glyph glyph-name="section" unicode="&#xa7;" horiz-adv-x="989" d="M100 416 C100 295 168 237 318 153 L531 35 C679 -47 717 -85 717 -181 C717 -315 599 -399 463 -399 C327 -399 224 -306 224 -53 L170 -53 L170 -346 C276 -416 385 -448 480 -448 C690 -448 845 -303 845 -117 C845 -10 789 95 695 149 C812 257 889 401 889 501 C889 621 821 679 671 763 L457 881 C310 963 271 1002 271 1097 C271 1231 385 1315 522 1315 C658 1315 761 1223 761 969 L815 969 L815 1262 C716 1331 604 1363 504 1363 C295 1363 144 1218 144 1032 C144 926 198 821 293 766 C176 658 100 514 100 416 L100 416 Z M226 509 C226 569 254 647 334 742 L665 554 C717 524 763 477 763 408 C763 347 735 269 654 173 L324 362 C271 392 226 439 226 509 L226 509 Z " />
<glyph glyph-name="dieresis" unicode="&#xa8;" horiz-adv-x="757" d="M314 1217 C314 1272 270 1315 220 1315 C168 1315 125 1272 125 1217 C125 1163 168 1119 220 1119 C270 1119 314 1163 314 1217 L314 1217 Z M632 1217 C632 1272 588 1315 538 1315 C486 1315 443 1272 443 1217 C443 1163 486 1119 538 1119 C588 1119 632 1163 632 1217 L632 1217 Z " />
<glyph glyph-name="copyright" unicode="&#xa9;" horiz-adv-x="1618" d="M120 669 C120 289 429 -20 809 -20 C1189 -20 1498 289 1498 669 C1498 1049 1189 1358 809 1358 C429 1358 120 1049 120 669 L120 669 Z M184 669 C184 1013 464 1294 809 1294 C1153 1294 1434 1013 1434 669 C1434 324 1153 44 809 44 C464 44 184 324 184 669 L184 669 Z M1090 866 L1090 1090 C1015 1135 936 1170 833 1170 C529 1170 422 946 422 670 C422 381 528 171 827 171 C924 171 1015 198 1090 247 L1090 475 L1031 475 C1028 330 979 226 827 226 C596 226 577 498 577 670 C577 1033 682 1116 831 1116 C968 1116 1031 1038 1031 866 L1090 866 Z " />
<glyph glyph-name="ordfeminine" unicode="&#xaa;" horiz-adv-x="641" d="M601 732 L601 762 C577 756 560 752 549 752 C529 752 518 767 518 811 L518 1202 C518 1306 450 1348 336 1348 C248 1348 153 1308 96 1266 L96 1121 L137 1121 C137 1217 208 1292 308 1292 C372 1292 400 1267 400 1208 L400 1084 C267 1081 60 1041 60 869 C60 764 144 704 247 704 C302 704 368 722 404 770 C419 721 460 703 509 703 C542 703 578 714 601 732 L601 732 Z M285 764 C219 764 188 823 188 884 C188 978 270 1039 400 1041 L400 894 C400 830 355 764 285 764 L285 764 Z " />
<glyph glyph-name="guillemotleft" unicode="&#xab;" horiz-adv-x="784" d="M617 40 L669 78 L378 430 L647 774 L597 812 L301 430 L617 40 Z M372 40 L423 78 L133 430 L402 774 L352 812 L55 430 L372 40 Z " />
<glyph glyph-name="logicalnot" unicode="&#xac;" horiz-adv-x="1048" d="M80 669 L890 669 L890 419 L968 419 L968 749 L80 749 L80 669 Z " />
<glyph glyph-name="registered" unicode="&#xae;" horiz-adv-x="1618" d="M120 669 C120 289 429 -20 809 -20 C1189 -20 1498 289 1498 669 C1498 1049 1189 1358 809 1358 C429 1358 120 1049 120 669 L120 669 Z M184 669 C184 1013 464 1294 809 1294 C1153 1294 1434 1013 1434 669 C1434 324 1153 44 809 44 C464 44 184 324 184 669 L184 669 Z M438 1141 L438 1098 C502 1098 530 1090 530 1047 L530 318 C530 273 502 265 438 265 L438 222 L774 222 L774 265 L748 265 C688 265 662 273 662 318 L662 663 L733 663 L1008 222 L1212 222 L1212 265 L1142 265 L877 678 C993 712 1074 777 1074 905 C1074 1098 903 1141 748 1141 L438 1141 Z M662 1091 L743 1091 C873 1091 929 1049 929 907 C929 765 855 716 748 716 L662 716 L662 1091 Z " />
<glyph glyph-name="macron" unicode="&#xaf;" horiz-adv-x="657" d="M100 1146 L539 1146 L557 1243 L118 1243 L100 1146 Z " />
<glyph glyph-name="degree" unicode="&#xb0;" horiz-adv-x="707" d="M80 1090 C80 938 202 816 354 816 C505 816 627 938 627 1090 C627 1241 505 1363 354 1363 C202 1363 80 1241 80 1090 L80 1090 Z M160 1090 C160 1198 245 1283 354 1283 C462 1283 547 1198 547 1090 C547 981 462 896 354 896 C245 896 160 981 160 1090 L160 1090 Z " />
<glyph glyph-name="plusminus" unicode="&#xb1;" horiz-adv-x="1016" d="M100 652 L468 650 L467 283 L547 283 L548 650 L916 649 L916 729 L549 730 L550 1099 L470 1099 L469 730 L100 732 L100 652 Z M100 113 L916 110 L916 190 L100 193 L100 113 Z " />
<glyph glyph-name="twosuperior" unicode="&#xb2;" horiz-adv-x="580" d="M88 1125 L130 1125 C132 1226 161 1318 267 1318 C355 1318 380 1245 380 1172 C380 1071 336 978 275 900 C226 837 168 778 112 724 L70 682 L54 607 L496 607 L516 831 L475 831 L448 699 L161 699 L191 724 C231 756 285 802 325 841 C413 927 500 1034 500 1156 C500 1291 397 1358 275 1358 C196 1358 145 1332 88 1298 L88 1125 Z " />
<glyph glyph-name="threesuperior" unicode="&#xb3;" horiz-adv-x="597" d="M170 989 C206 989 249 989 271 986 C371 973 412 903 412 812 C412 721 367 636 272 636 C166 636 115 716 115 826 L71 826 L71 652 C132 614 205 593 278 593 C418 593 529 659 529 808 C529 930 449 993 345 1010 C436 1029 500 1088 500 1187 C500 1315 387 1357 282 1357 C204 1357 146 1331 88 1298 L88 1124 L131 1124 C133 1224 165 1318 271 1318 C347 1318 388 1256 388 1186 C388 1106 344 1051 271 1034 C244 1028 205 1026 170 1025 L170 989 Z " />
<glyph glyph-name="acute" unicode="&#xb4;" horiz-adv-x="577" d="M213 1026 L462 1196 L462 1371 L115 1026 L213 1026 Z " />
<glyph glyph-name="mu" unicode="&#xb5;" horiz-adv-x="1006" d="M680 67 C692 10 747 -25 821 -25 C864 -25 921 -11 949 9 L949 44 C921 36 902 32 884 32 C849 32 830 58 830 126 L830 848 L574 848 L574 813 L599 813 C654 813 680 785 680 728 L680 286 C680 86 597 40 506 40 C415 40 326 96 326 286 L326 848 L70 848 L70 813 L95 813 C150 813 176 785 176 728 L176 -350 L431 -350 L431 -315 L406 -315 C351 -315 325 -287 325 -230 L325 67 C361 2 436 -25 505 -25 C572 -25 637 9 680 67 L680 67 Z " />
<glyph glyph-name="paragraph" unicode="&#xb6;" horiz-adv-x="1286" d="M1186 1338 L617 1338 C368 1338 127 1193 127 893 C127 593 368 448 617 448 L657 448 L657 4 C657 -142 620 -378 434 -378 C253 -378 205 -161 205 -24 L149 -24 L149 -344 C254 -406 342 -448 490 -448 C587 -448 665 -433 730 -407 C983 -307 1001 -126 1001 114 L1001 1166 C1001 1267 1045 1280 1186 1280 L1186 1338 Z M543 -400 C609 -381 666 -331 696 -267 C738 -180 748 -68 748 19 L748 1029 C748 1118 749 1235 795 1280 L937 1280 C900 1246 895 1159 895 1054 L895 307 C895 72 895 -57 881 -139 C854 -304 695 -401 543 -404 L543 -400 Z " />
<glyph glyph-name="periodcentered" unicode="&#xb7;" horiz-adv-x="427" d="M318 434 C318 495 270 543 214 543 C156 543 109 495 109 434 C109 374 156 325 214 325 C270 325 318 374 318 434 L318 434 Z " />
<glyph glyph-name="cedilla" unicode="&#xb8;" horiz-adv-x="510" d="M267 0 L141 -133 L174 -168 C194 -158 212 -150 233 -150 C291 -150 314 -206 314 -254 C314 -309 284 -363 226 -363 C187 -363 154 -344 126 -324 L100 -361 C142 -393 186 -412 234 -412 C329 -412 410 -344 410 -250 C410 -126 306 -102 270 -102 C253 -102 239 -104 226 -107 L330 0 L267 0 Z " />
<glyph glyph-name="onesuperior" unicode="&#xb9;" horiz-adv-x="432" d="M81 607 L368 607 L368 642 L340 642 C300 642 280 649 280 683 L280 1345 C280 1345 141 1332 47 1328 L47 1294 L159 1294 C166 1294 169 1290 169 1281 L169 683 C169 647 147 642 101 642 L81 642 L81 607 Z " />
<glyph glyph-name="ordmasculine" unicode="&#xba;" horiz-adv-x="632" d="M592 1023 C592 1238 480 1347 326 1347 C172 1347 60 1238 60 1023 C60 809 172 700 326 700 C480 700 592 809 592 1023 L592 1023 Z M195 1101 C195 1228 236 1309 326 1309 C415 1309 457 1228 457 1101 L457 946 C457 819 415 737 326 737 C236 737 195 819 195 946 L195 1101 Z " />
<glyph glyph-name="guillemotright" unicode="&#xbb;" horiz-adv-x="784" d="M453 430 L157 812 L107 774 L376 430 L85 78 L137 40 L453 430 Z M699 430 L402 812 L352 774 L621 430 L331 78 L382 40 L699 430 Z " />
<glyph glyph-name="onequarter" unicode="&#xbc;" horiz-adv-x="1221" d="M101 607 L388 607 L388 642 L360 642 C320 642 300 649 300 683 L300 1345 C300 1345 161 1332 67 1328 L67 1294 L179 1294 C186 1294 189 1290 189 1281 L189 683 C189 647 167 642 121 642 L101 642 L101 607 Z M120 -89 L1111 1407 L1041 1407 L50 -89 L120 -89 Z M981 523 L981 303 L730 303 L959 737 L909 737 L654 270 L654 212 L973 212 C979 212 981 208 981 201 L981 76 C981 40 961 35 913 35 L894 35 L894 0 L1161 0 L1161 35 C1109 35 1086 40 1086 76 L1086 557 L981 523 Z " />
<glyph glyph-name="onehalf" unicode="&#xbd;" horiz-adv-x="1282" d="M101 607 L388 607 L388 642 L360 642 C320 642 300 649 300 683 L300 1345 C300 1345 161 1332 67 1328 L67 1294 L179 1294 C186 1294 189 1290 189 1281 L189 683 C189 647 167 642 121 642 L101 642 L101 607 Z M120 -89 L1111 1407 L1041 1407 L50 -89 L120 -89 Z M784 518 L826 518 C828 619 857 711 963 711 C1051 711 1076 638 1076 565 C1076 464 1032 371 971 293 C922 230 863 171 808 117 L766 75 L750 0 L1192 0 L1212 224 L1171 224 L1144 92 L857 92 L887 117 C927 149 981 195 1021 234 C1109 320 1196 427 1196 549 C1196 684 1093 751 971 751 C892 751 841 725 784 691 L784 518 Z " />
<glyph glyph-name="threequarters" unicode="&#xbe;" horiz-adv-x="1334" d="M159 989 C195 989 238 989 260 986 C360 973 401 903 401 812 C401 721 356 636 261 636 C155 636 104 716 104 826 L60 826 L60 652 C121 614 194 593 267 593 C407 593 518 659 518 808 C518 930 438 993 334 1010 C425 1029 489 1088 489 1187 C489 1315 376 1357 271 1357 C193 1357 135 1331 77 1298 L77 1124 L120 1124 C122 1224 154 1318 260 1318 C336 1318 377 1256 377 1186 C377 1106 333 1051 260 1034 C233 1028 194 1026 159 1025 L159 989 Z M243 -89 L1234 1407 L1164 1407 L173 -89 L243 -89 Z M1094 523 L1094 303 L843 303 L1072 737 L1022 737 L767 270 L767 212 L1086 212 C1092 212 1094 208 1094 201 L1094 76 C1094 40 1074 35 1026 35 L1007 35 L1007 0 L1274 0 L1274 35 C1222 35 1199 40 1199 76 L1199 557 L1094 523 Z " />
<glyph glyph-name="questiondown" unicode="&#xbf;" horiz-adv-x="795" d="M419 1270 C419 1321 375 1363 325 1363 C274 1363 232 1321 232 1270 C232 1220 274 1176 325 1176 C375 1176 419 1220 419 1270 L419 1270 Z M85 93 C198 21 297 -20 409 -20 C593 -20 710 111 710 296 C710 394 669 501 583 581 L445 710 C347 801 338 838 338 956 L276 956 C276 918 273 867 273 825 C273 695 313 601 389 528 L545 378 C583 341 618 297 618 239 C618 124 520 37 407 37 C201 37 135 183 135 399 L85 399 L85 93 Z " />
<glyph glyph-name="Agrave" unicode="&#xc0;" horiz-adv-x="1217" d="M757 438 L836 166 C840 153 846 127 846 116 C846 72 816 47 772 46 L715 45 L715 0 L1202 0 L1202 45 L1173 46 C1111 48 1046 72 1013 183 L669 1338 L541 1338 L190 174 C166 95 104 45 55 45 L15 45 L15 0 L360 0 L360 45 L317 45 C258 45 232 74 232 114 C232 125 237 146 241 158 L326 438 L757 438 Z M547 1167 L742 488 L340 488 L547 1167 Z M683 1426 L336 1771 L336 1596 L585 1426 L683 1426 Z " />
<glyph glyph-name="Aacute" unicode="&#xc1;" horiz-adv-x="1217" d="M757 438 L836 166 C840 153 846 127 846 116 C846 72 816 47 772 46 L715 45 L715 0 L1202 0 L1202 45 L1173 46 C1111 48 1046 72 1013 183 L669 1338 L541 1338 L190 174 C166 95 104 45 55 45 L15 45 L15 0 L360 0 L360 45 L317 45 C258 45 232 74 232 114 C232 125 237 146 241 158 L326 438 L757 438 Z M547 1167 L742 488 L340 488 L547 1167 Z M611 1426 L860 1596 L860 1771 L513 1426 L611 1426 Z " />
<glyph glyph-name="Acircumflex" unicode="&#xc2;" horiz-adv-x="1217" d="M757 438 L836 166 C840 153 846 127 846 116 C846 72 816 47 772 46 L715 45 L715 0 L1202 0 L1202 45 L1173 46 C1111 48 1046 72 1013 183 L669 1338 L541 1338 L190 174 C166 95 104 45 55 45 L15 45 L15 0 L360 0 L360 45 L317 45 C258 45 232 74 232 114 C232 125 237 146 241 158 L326 438 L757 438 Z M547 1167 L742 488 L340 488 L547 1167 Z M413 1426 L602 1596 L791 1426 L889 1426 L640 1717 L563 1717 L315 1426 L413 1426 Z " />
<glyph glyph-name="Atilde" unicode="&#xc3;" horiz-adv-x="1217" d="M757 438 L836 166 C840 153 846 127 846 116 C846 72 816 47 772 46 L715 45 L715 0 L1202 0 L1202 45 L1173 46 C1111 48 1046 72 1013 183 L669 1338 L541 1338 L190 174 C166 95 104 45 55 45 L15 45 L15 0 L360 0 L360 45 L317 45 C258 45 232 74 232 114 C232 125 237 146 241 158 L326 438 L757 438 Z M547 1167 L742 488 L340 488 L547 1167 Z M879 1678 C862 1630 825 1590 773 1590 C689 1590 612 1685 502 1685 C404 1685 343 1618 309 1538 L340 1483 C355 1535 393 1578 448 1578 C531 1578 608 1483 719 1483 C811 1483 871 1542 907 1616 L879 1678 Z " />
<glyph glyph-name="Adieresis" unicode="&#xc4;" horiz-adv-x="1217" d="M757 438 L836 166 C840 153 846 127 846 116 C846 72 816 47 772 46 L715 45 L715 0 L1202 0 L1202 45 L1173 46 C1111 48 1046 72 1013 183 L669 1338 L541 1338 L190 174 C166 95 104 45 55 45 L15 45 L15 0 L360 0 L360 45 L317 45 C258 45 232 74 232 114 C232 125 237 146 241 158 L326 438 L757 438 Z M547 1167 L742 488 L340 488 L547 1167 Z M543 1617 C543 1672 499 1715 449 1715 C397 1715 354 1672 354 1617 C354 1563 397 1519 449 1519 C499 1519 543 1563 543 1617 L543 1617 Z M861 1617 C861 1672 817 1715 767 1715 C715 1715 672 1672 672 1617 C672 1563 715 1519 767 1519 C817 1519 861 1563 861 1617 L861 1617 Z " />
<glyph glyph-name="Aring" unicode="&#xc5;" horiz-adv-x="1217" d="M757 438 L836 166 C840 153 846 127 846 116 C846 72 816 47 772 46 L715 45 L715 0 L1202 0 L1202 45 L1173 46 C1111 48 1046 72 1013 183 L669 1338 L541 1338 L190 174 C166 95 104 45 55 45 L15 45 L15 0 L360 0 L360 45 L317 45 C258 45 232 74 232 114 C232 125 237 146 241 158 L326 438 L757 438 Z M547 1167 L742 488 L340 488 L547 1167 Z M607 1751 C686 1751 695 1682 695 1611 C695 1507 666 1472 607 1472 C548 1472 519 1507 519 1611 C519 1682 528 1751 607 1751 L607 1751 Z M423 1611 C423 1514 505 1436 607 1436 C709 1436 792 1514 792 1611 C792 1708 709 1787 607 1787 C505 1787 423 1708 423 1611 L423 1611 Z " />
<glyph glyph-name="AE" unicode="&#xc6;" horiz-adv-x="1664" d="M1507 1338 L625 1338 L625 1293 L681 1293 C713 1293 755 1287 755 1249 C755 1239 751 1225 735 1194 L212 174 C172 96 104 45 55 45 L15 45 L15 0 L364 0 L364 45 L321 45 C269 45 248 67 248 99 C248 123 257 142 265 158 L410 438 L814 438 L814 131 C814 57 772 45 676 45 L676 0 L1530 0 L1569 332 L1512 332 C1484 128 1447 55 1338 55 L981 55 L981 682 L1114 682 C1219 682 1235 646 1235 496 L1290 496 L1290 918 L1235 918 C1235 769 1219 732 1114 732 L981 732 L981 1285 L1338 1285 C1430 1285 1465 1239 1483 1099 L1536 1099 L1507 1338 Z M814 1219 L814 488 L436 488 L814 1219 Z " />
<glyph glyph-name="Ccedilla" unicode="&#xc7;" horiz-adv-x="1125" d="M1020 952 L1020 1259 C917 1318 814 1363 672 1363 C253 1363 105 1054 105 669 C105 280 243 -6 624 -24 L521 -133 L554 -168 C574 -158 592 -150 613 -150 C671 -150 694 -206 694 -254 C694 -309 664 -363 606 -363 C567 -363 534 -344 506 -324 L480 -361 C522 -393 566 -412 614 -412 C709 -412 790 -344 790 -250 C790 -126 686 -102 650 -102 C633 -102 619 -104 606 -107 L686 -24 C808 -20 922 15 1020 79 L1020 386 L966 386 C962 181 888 35 662 35 C324 35 291 421 291 669 C291 1184 451 1304 669 1304 C868 1304 966 1194 966 952 L1020 952 Z " />
<glyph glyph-name="Egrave" unicode="&#xc8;" horiz-adv-x="1089" d="M932 1338 L81 1338 L81 1293 C177 1293 219 1281 219 1207 L219 131 C219 57 177 45 81 45 L81 0 L955 0 L994 332 L937 332 C909 128 872 55 763 55 L386 55 L386 682 L539 682 C644 682 660 646 660 496 L715 496 L715 918 L660 918 C660 769 644 732 539 732 L386 732 L386 1285 L763 1285 C855 1285 890 1239 908 1099 L961 1099 L932 1338 Z M752 1426 L405 1771 L405 1596 L654 1426 L752 1426 Z " />
<glyph glyph-name="Eacute" unicode="&#xc9;" horiz-adv-x="1089" d="M932 1338 L81 1338 L81 1293 C177 1293 219 1281 219 1207 L219 131 C219 57 177 45 81 45 L81 0 L955 0 L994 332 L937 332 C909 128 872 55 763 55 L386 55 L386 682 L539 682 C644 682 660 646 660 496 L715 496 L715 918 L660 918 C660 769 644 732 539 732 L386 732 L386 1285 L763 1285 C855 1285 890 1239 908 1099 L961 1099 L932 1338 Z M513 1426 L762 1596 L762 1771 L415 1426 L513 1426 Z " />
<glyph glyph-name="Ecircumflex" unicode="&#xca;" horiz-adv-x="1089" d="M932 1338 L81 1338 L81 1293 C177 1293 219 1281 219 1207 L219 131 C219 57 177 45 81 45 L81 0 L955 0 L994 332 L937 332 C909 128 872 55 763 55 L386 55 L386 682 L539 682 C644 682 660 646 660 496 L715 496 L715 918 L660 918 C660 769 644 732 539 732 L386 732 L386 1285 L763 1285 C855 1285 890 1239 908 1099 L961 1099 L932 1338 Z M383 1426 L572 1596 L761 1426 L859 1426 L610 1717 L533 1717 L285 1426 L383 1426 Z " />
<glyph glyph-name="Edieresis" unicode="&#xcb;" horiz-adv-x="1089" d="M932 1338 L81 1338 L81 1293 C177 1293 219 1281 219 1207 L219 131 C219 57 177 45 81 45 L81 0 L955 0 L994 332 L937 332 C909 128 872 55 763 55 L386 55 L386 682 L539 682 C644 682 660 646 660 496 L715 496 L715 918 L660 918 C660 769 644 732 539 732 L386 732 L386 1285 L763 1285 C855 1285 890 1239 908 1099 L961 1099 L932 1338 Z M494 1617 C494 1672 450 1715 400 1715 C348 1715 305 1672 305 1617 C305 1563 348 1519 400 1519 C450 1519 494 1563 494 1617 L494 1617 Z M812 1617 C812 1672 768 1715 718 1715 C666 1715 623 1672 623 1617 C623 1563 666 1519 718 1519 C768 1519 812 1563 812 1617 L812 1617 Z " />
<glyph glyph-name="Igrave" unicode="&#xcc;" horiz-adv-x="605" d="M524 0 L524 45 C428 45 386 57 386 131 L386 1207 C386 1281 428 1293 524 1293 L524 1338 L81 1338 L81 1293 C177 1293 219 1281 219 1207 L219 131 C219 57 177 45 81 45 L81 0 L524 0 Z M428 1426 L81 1771 L81 1596 L330 1426 L428 1426 Z " />
<glyph glyph-name="Iacute" unicode="&#xcd;" horiz-adv-x="605" d="M524 0 L524 45 C428 45 386 57 386 131 L386 1207 C386 1281 428 1293 524 1293 L524 1338 L81 1338 L81 1293 C177 1293 219 1281 219 1207 L219 131 C219 57 177 45 81 45 L81 0 L524 0 Z M274 1426 L523 1596 L523 1771 L176 1426 L274 1426 Z " />
<glyph glyph-name="Icircumflex" unicode="&#xce;" horiz-adv-x="605" d="M524 0 L524 45 C428 45 386 57 386 131 L386 1207 C386 1281 428 1293 524 1293 L524 1338 L81 1338 L81 1293 C177 1293 219 1281 219 1207 L219 131 C219 57 177 45 81 45 L81 0 L524 0 Z M114 1426 L303 1596 L492 1426 L590 1426 L341 1717 L264 1717 L16 1426 L114 1426 Z " />
<glyph glyph-name="Idieresis" unicode="&#xcf;" horiz-adv-x="605" d="M524 0 L524 45 C428 45 386 57 386 131 L386 1207 C386 1281 428 1293 524 1293 L524 1338 L81 1338 L81 1293 C177 1293 219 1281 219 1207 L219 131 C219 57 177 45 81 45 L81 0 L524 0 Z M237 1617 C237 1672 193 1715 143 1715 C91 1715 48 1672 48 1617 C48 1563 91 1519 143 1519 C193 1519 237 1563 237 1617 L237 1617 Z M555 1617 C555 1672 511 1715 461 1715 C409 1715 366 1672 366 1617 C366 1563 409 1519 461 1519 C511 1519 555 1563 555 1617 L555 1617 Z " />
<glyph glyph-name="Eth" unicode="&#xd0;" horiz-adv-x="1294" d="M984 102 L309 102 L647 598 L984 102 Z M309 1236 L985 1236 L647 740 L309 1236 Z M696 669 L1043 1179 L1043 158 L696 669 Z M251 1181 L598 669 L251 159 L251 1181 Z M1053 0 C1104 0 1144 41 1144 91 L1144 1247 C1144 1297 1104 1338 1053 1338 L241 1338 C190 1338 150 1297 150 1247 L150 91 C150 41 190 0 241 0 L1053 0 Z " />
<glyph glyph-name="Ntilde" unicode="&#xd1;" horiz-adv-x="1328" d="M1050 311 L409 1338 L96 1338 L96 1293 C190 1293 230 1280 230 1206 L230 131 C230 53 186 45 81 45 L81 0 L435 0 L435 45 C330 45 284 53 284 131 L284 1198 L1047 -18 L1104 -18 L1104 1207 C1104 1285 1147 1293 1252 1293 L1252 1338 L899 1338 L899 1293 C1004 1293 1050 1285 1050 1207 L1050 311 Z M975 1678 C958 1630 921 1590 869 1590 C785 1590 708 1685 598 1685 C500 1685 439 1618 405 1538 L436 1483 C451 1535 489 1578 544 1578 C627 1578 704 1483 815 1483 C907 1483 967 1542 1003 1616 L975 1678 Z " />
<glyph glyph-name="Ograve" unicode="&#xd2;" horiz-adv-x="1244" d="M1154 669 C1154 1119 954 1363 622 1363 C290 1363 90 1119 90 669 C90 219 290 -25 622 -25 C954 -25 1154 219 1154 669 L1154 669 Z M968 669 C968 205 862 35 622 35 C382 35 276 205 276 669 C276 1133 382 1304 622 1304 C862 1304 968 1133 968 669 L968 669 Z M767 1426 L420 1771 L420 1596 L669 1426 L767 1426 Z " />
<glyph glyph-name="Oacute" unicode="&#xd3;" horiz-adv-x="1244" d="M1154 669 C1154 1119 954 1363 622 1363 C290 1363 90 1119 90 669 C90 219 290 -25 622 -25 C954 -25 1154 219 1154 669 L1154 669 Z M968 669 C968 205 862 35 622 35 C382 35 276 205 276 669 C276 1133 382 1304 622 1304 C862 1304 968 1133 968 669 L968 669 Z M578 1426 L827 1596 L827 1771 L480 1426 L578 1426 Z " />
<glyph glyph-name="Ocircumflex" unicode="&#xd4;" horiz-adv-x="1244" d="M1154 669 C1154 1119 954 1363 622 1363 C290 1363 90 1119 90 669 C90 219 290 -25 622 -25 C954 -25 1154 219 1154 669 L1154 669 Z M968 669 C968 205 862 35 622 35 C382 35 276 205 276 669 C276 1133 382 1304 622 1304 C862 1304 968 1133 968 669 L968 669 Z M433 1426 L622 1596 L811 1426 L909 1426 L660 1717 L583 1717 L335 1426 L433 1426 Z " />
<glyph glyph-name="Otilde" unicode="&#xd5;" horiz-adv-x="1244" d="M1154 669 C1154 1119 954 1363 622 1363 C290 1363 90 1119 90 669 C90 219 290 -25 622 -25 C954 -25 1154 219 1154 669 L1154 669 Z M968 669 C968 205 862 35 622 35 C382 35 276 205 276 669 C276 1133 382 1304 622 1304 C862 1304 968 1133 968 669 L968 669 Z M893 1678 C876 1630 839 1590 787 1590 C703 1590 626 1685 516 1685 C418 1685 357 1618 323 1538 L354 1483 C369 1535 407 1578 462 1578 C545 1578 622 1483 733 1483 C825 1483 885 1542 921 1616 L893 1678 Z " />
<glyph glyph-name="Odieresis" unicode="&#xd6;" horiz-adv-x="1244" d="M1154 669 C1154 1119 954 1363 622 1363 C290 1363 90 1119 90 669 C90 219 290 -25 622 -25 C954 -25 1154 219 1154 669 L1154 669 Z M968 669 C968 205 862 35 622 35 C382 35 276 205 276 669 C276 1133 382 1304 622 1304 C862 1304 968 1133 968 669 L968 669 Z M556 1617 C556 1672 512 1715 462 1715 C410 1715 367 1672 367 1617 C367 1563 410 1519 462 1519 C512 1519 556 1563 556 1617 L556 1617 Z M874 1617 C874 1672 830 1715 780 1715 C728 1715 685 1672 685 1617 C685 1563 728 1519 780 1519 C830 1519 874 1563 874 1617 L874 1617 Z " />
<glyph glyph-name="multiply" unicode="&#xd7;" horiz-adv-x="847" d="M72 755 L367 458 L70 163 L127 107 L423 401 L718 105 L774 162 L480 458 L777 752 L720 809 L424 515 L129 812 L72 755 Z " />
<glyph glyph-name="Oslash" unicode="&#xd8;" horiz-adv-x="1244" d="M54 -36 L226 161 C317 39 452 -25 622 -25 C954 -25 1154 219 1154 669 C1154 853 1120 1003 1058 1115 L1191 1268 L1191 1363 L1023 1170 C931 1297 794 1363 622 1363 C290 1363 90 1119 90 669 C90 480 125 329 190 215 L53 59 L54 -36 Z M276 669 C276 1133 382 1304 622 1304 C776 1304 875 1233 926 1059 L302 344 C284 431 276 538 276 669 L276 669 Z M968 669 C968 205 862 35 622 35 C470 35 372 103 320 269 L944 984 C960 899 968 795 968 669 L968 669 Z " />
<glyph glyph-name="Ugrave" unicode="&#xd9;" horiz-adv-x="1287" d="M524 1338 L81 1338 L81 1293 C177 1293 219 1281 219 1207 L219 461 C219 187 337 -25 655 -25 C918 -25 1066 164 1066 425 L1066 1207 C1066 1281 1110 1293 1206 1293 L1206 1338 L852 1338 L852 1293 C948 1293 1005 1281 1005 1207 L1005 421 C1005 222 899 43 685 43 C452 43 386 254 386 440 L386 1207 C386 1281 428 1293 524 1293 L524 1338 Z M822 1426 L475 1771 L475 1596 L724 1426 L822 1426 Z " />
<glyph glyph-name="Uacute" unicode="&#xda;" horiz-adv-x="1287" d="M524 1338 L81 1338 L81 1293 C177 1293 219 1281 219 1207 L219 461 C219 187 337 -25 655 -25 C918 -25 1066 164 1066 425 L1066 1207 C1066 1281 1110 1293 1206 1293 L1206 1338 L852 1338 L852 1293 C948 1293 1005 1281 1005 1207 L1005 421 C1005 222 899 43 685 43 C452 43 386 254 386 440 L386 1207 C386 1281 428 1293 524 1293 L524 1338 Z M636 1426 L885 1596 L885 1771 L538 1426 L636 1426 Z " />
<glyph glyph-name="Ucircumflex" unicode="&#xdb;" horiz-adv-x="1287" d="M524 1338 L81 1338 L81 1293 C177 1293 219 1281 219 1207 L219 461 C219 187 337 -25 655 -25 C918 -25 1066 164 1066 425 L1066 1207 C1066 1281 1110 1293 1206 1293 L1206 1338 L852 1338 L852 1293 C948 1293 1005 1281 1005 1207 L1005 421 C1005 222 899 43 685 43 C452 43 386 254 386 440 L386 1207 C386 1281 428 1293 524 1293 L524 1338 Z M504 1426 L693 1596 L882 1426 L980 1426 L731 1717 L654 1717 L406 1426 L504 1426 Z " />
<glyph glyph-name="Udieresis" unicode="&#xdc;" horiz-adv-x="1287" d="M524 1338 L81 1338 L81 1293 C177 1293 219 1281 219 1207 L219 461 C219 187 337 -25 655 -25 C918 -25 1066 164 1066 425 L1066 1207 C1066 1281 1110 1293 1206 1293 L1206 1338 L852 1338 L852 1293 C948 1293 1005 1281 1005 1207 L1005 421 C1005 222 899 43 685 43 C452 43 386 254 386 440 L386 1207 C386 1281 428 1293 524 1293 L524 1338 Z M628 1617 C628 1672 584 1715 534 1715 C482 1715 439 1672 439 1617 C439 1563 482 1519 534 1519 C584 1519 628 1563 628 1617 L628 1617 Z M946 1617 C946 1672 902 1715 852 1715 C800 1715 757 1672 757 1617 C757 1563 800 1519 852 1519 C902 1519 946 1563 946 1617 L946 1617 Z " />
<glyph glyph-name="Yacute" unicode="&#xdd;" horiz-adv-x="1188" d="M646 570 L394 1178 C381 1210 374 1235 374 1255 C374 1278 392 1293 432 1293 L506 1293 L506 1338 L25 1338 L25 1293 L54 1293 C135 1293 179 1264 223 1159 L515 468 L515 131 C515 57 473 45 377 45 L377 0 L820 0 L820 45 C724 45 682 57 682 131 L682 519 L1029 1293 L1163 1293 L1163 1338 L795 1338 L795 1293 L969 1293 L646 570 Z M623 1426 L872 1596 L872 1771 L525 1426 L623 1426 Z " />
<glyph glyph-name="Thorn" unicode="&#xde;" horiz-adv-x="1294" d="M984 102 L309 102 L647 598 L984 102 Z M309 1236 L985 1236 L647 740 L309 1236 Z M696 669 L1043 1179 L1043 158 L696 669 Z M251 1181 L598 669 L251 159 L251 1181 Z M1053 0 C1104 0 1144 41 1144 91 L1144 1247 C1144 1297 1104 1338 1053 1338 L241 1338 C190 1338 150 1297 150 1247 L150 91 C150 41 190 0 241 0 L1053 0 Z " />
<glyph glyph-name="germandbls" unicode="&#xdf;" horiz-adv-x="1046" d="M90 813 L115 813 C170 813 196 785 196 728 L196 120 C196 63 170 35 115 35 L90 35 L90 0 L346 0 L346 1140 C346 1216 393 1307 486 1307 C580 1307 621 1222 621 1128 C621 1019 573 940 514 848 C480 795 459 742 459 664 C459 562 503 468 612 419 L720 370 C836 316 858 245 858 169 C858 84 801 18 711 18 C551 18 510 147 509 294 L469 294 L469 53 C549 7 609 -25 719 -25 C885 -25 976 101 976 228 C976 350 936 455 795 520 L646 588 C580 619 543 666 543 734 C543 891 780 893 780 1108 C780 1255 648 1347 508 1347 C318 1347 196 1227 196 1025 L196 848 L90 848 L90 813 Z " />
<glyph glyph-name="agrave" unicode="&#xe0;" horiz-adv-x="914" d="M575 456 L575 238 C575 142 505 43 399 43 C296 43 250 130 250 223 C250 365 376 456 575 456 L575 456 Z M844 3 L844 38 C816 30 797 26 779 26 C744 26 725 49 725 117 L725 680 C725 824 631 883 473 883 C349 883 217 829 137 769 L137 571 L177 571 C177 709 283 818 433 818 C533 818 575 779 575 689 L575 503 C388 501 85 447 85 201 C85 55 202 -30 345 -30 C428 -30 530 2 575 83 C590 1 649 -31 723 -31 C766 -31 816 -17 844 3 L844 3 Z M622 1026 L275 1371 L275 1196 L524 1026 L622 1026 Z " />
<glyph glyph-name="aacute" unicode="&#xe1;" horiz-adv-x="909" d="M575 456 L575 238 C575 142 505 43 399 43 C296 43 250 130 250 223 C250 365 376 456 575 456 L575 456 Z M844 3 L844 38 C816 30 797 26 779 26 C744 26 725 49 725 117 L725 680 C725 824 631 883 473 883 C349 883 217 829 137 769 L137 571 L177 571 C177 709 283 818 433 818 C533 818 575 779 575 689 L575 503 C388 501 85 447 85 201 C85 55 202 -30 345 -30 C428 -30 530 2 575 83 C590 1 649 -31 723 -31 C766 -31 816 -17 844 3 L844 3 Z M364 1026 L613 1196 L613 1371 L266 1026 L364 1026 Z " />
<glyph glyph-name="acircumflex" unicode="&#xe2;" horiz-adv-x="914" d="M575 456 L575 238 C575 142 505 43 399 43 C296 43 250 130 250 223 C250 365 376 456 575 456 L575 456 Z M844 3 L844 38 C816 30 797 26 779 26 C744 26 725 49 725 117 L725 680 C725 824 631 883 473 883 C349 883 217 829 137 769 L137 571 L177 571 C177 709 283 818 433 818 C533 818 575 779 575 689 L575 503 C388 501 85 447 85 201 C85 55 202 -30 345 -30 C428 -30 530 2 575 83 C590 1 649 -31 723 -31 C766 -31 816 -17 844 3 L844 3 Z M243 1026 L432 1196 L621 1026 L719 1026 L470 1317 L393 1317 L145 1026 L243 1026 Z " />
<glyph glyph-name="atilde" unicode="&#xe3;" horiz-adv-x="909" d="M575 456 L575 238 C575 142 505 43 399 43 C296 43 250 130 250 223 C250 365 376 456 575 456 L575 456 Z M844 3 L844 38 C816 30 797 26 779 26 C744 26 725 49 725 117 L725 680 C725 824 631 883 473 883 C349 883 217 829 137 769 L137 571 L177 571 C177 709 283 818 433 818 C533 818 575 779 575 689 L575 503 C388 501 85 447 85 201 C85 55 202 -30 345 -30 C428 -30 530 2 575 83 C590 1 649 -31 723 -31 C766 -31 816 -17 844 3 L844 3 Z M695 1278 C678 1230 641 1190 589 1190 C505 1190 428 1285 318 1285 C220 1285 159 1218 125 1138 L156 1083 C171 1135 209 1178 264 1178 C347 1178 424 1083 535 1083 C627 1083 687 1142 723 1216 L695 1278 Z " />
<glyph glyph-name="adieresis" unicode="&#xe4;" horiz-adv-x="914" d="M575 456 L575 238 C575 142 505 43 399 43 C296 43 250 130 250 223 C250 365 376 456 575 456 L575 456 Z M844 3 L844 38 C816 30 797 26 779 26 C744 26 725 49 725 117 L725 680 C725 824 631 883 473 883 C349 883 217 829 137 769 L137 571 L177 571 C177 709 283 818 433 818 C533 818 575 779 575 689 L575 503 C388 501 85 447 85 201 C85 55 202 -30 345 -30 C428 -30 530 2 575 83 C590 1 649 -31 723 -31 C766 -31 816 -17 844 3 L844 3 Z M377 1217 C377 1272 333 1315 283 1315 C231 1315 188 1272 188 1217 C188 1163 231 1119 283 1119 C333 1119 377 1163 377 1217 L377 1217 Z M695 1217 C695 1272 651 1315 601 1315 C549 1315 506 1272 506 1217 C506 1163 549 1119 601 1119 C651 1119 695 1163 695 1217 L695 1217 Z " />
<glyph glyph-name="aring" unicode="&#xe5;" horiz-adv-x="909" d="M575 456 L575 238 C575 142 505 43 399 43 C296 43 250 130 250 223 C250 365 376 456 575 456 L575 456 Z M844 3 L844 38 C816 30 797 26 779 26 C744 26 725 49 725 117 L725 680 C725 824 631 883 473 883 C349 883 217 829 137 769 L137 571 L177 571 C177 709 283 818 433 818 C533 818 575 779 575 689 L575 503 C388 501 85 447 85 201 C85 55 202 -30 345 -30 C428 -30 530 2 575 83 C590 1 649 -31 723 -31 C766 -31 816 -17 844 3 L844 3 Z M424 1351 C503 1351 512 1282 512 1211 C512 1107 483 1072 424 1072 C365 1072 336 1107 336 1211 C336 1282 345 1351 424 1351 L424 1351 Z M240 1211 C240 1114 322 1036 424 1036 C526 1036 609 1114 609 1211 C609 1308 526 1387 424 1387 C322 1387 240 1308 240 1211 L240 1211 Z " />
<glyph glyph-name="ae" unicode="&#xe6;" horiz-adv-x="1334" d="M900 837 C1020 837 1064 686 1064 504 L1064 494 L730 494 L730 524 C730 721 788 837 900 837 L900 837 Z M575 447 L575 238 C575 142 505 43 399 43 C296 43 250 130 250 223 C250 365 376 447 575 447 L575 447 Z M137 571 L177 571 C177 709 283 818 433 818 C533 818 575 779 575 689 L575 494 C388 492 85 447 85 201 C85 40 226 -30 365 -30 C466 -30 566 1 638 63 C701 -7 806 -35 893 -35 C1056 -35 1191 71 1228 223 L1178 223 C1127 73 1022 21 930 21 C824 21 730 105 730 250 L730 447 L1244 447 C1244 644 1149 883 900 883 C819 883 749 851 693 798 C653 857 577 883 473 883 C349 883 217 829 137 769 L137 571 Z " />
<glyph glyph-name="ccedilla" unicode="&#xe7;" horiz-adv-x="835" d="M720 802 C633 857 536 883 449 883 C238 883 80 721 80 424 C80 92 234 -20 425 -33 L331 -133 L364 -168 C384 -158 402 -150 423 -150 C481 -150 504 -206 504 -254 C504 -309 474 -363 416 -363 C377 -363 344 -344 316 -324 L290 -361 C332 -393 376 -412 424 -412 C519 -412 600 -344 600 -250 C600 -126 496 -102 460 -102 C443 -102 429 -104 416 -107 L487 -34 C626 -23 720 86 750 217 L701 217 C674 124 601 18 487 18 C367 18 248 76 248 424 C248 561 257 834 469 834 C593 834 676 742 676 562 L720 562 L720 802 Z " />
<glyph glyph-name="egrave" unicode="&#xe8;" horiz-adv-x="855" d="M421 837 C541 837 585 686 585 504 L585 483 L251 483 L251 524 C251 721 309 837 421 837 L421 837 Z M251 443 L765 443 C765 640 670 883 421 883 C212 883 70 670 70 412 C70 99 249 -35 424 -35 C568 -35 709 57 749 223 L699 223 C648 73 543 21 451 21 C345 21 251 105 251 250 L251 443 Z M622 1026 L275 1371 L275 1196 L524 1026 L622 1026 Z " />
<glyph glyph-name="eacute" unicode="&#xe9;" horiz-adv-x="855" d="M421 837 C541 837 585 686 585 504 L585 483 L251 483 L251 524 C251 721 309 837 421 837 L421 837 Z M251 443 L765 443 C765 640 670 883 421 883 C212 883 70 670 70 412 C70 99 249 -35 424 -35 C568 -35 709 57 749 223 L699 223 C648 73 543 21 451 21 C345 21 251 105 251 250 L251 443 Z M373 1026 L622 1196 L622 1371 L275 1026 L373 1026 Z " />
<glyph glyph-name="ecircumflex" unicode="&#xea;" horiz-adv-x="855" d="M421 837 C541 837 585 686 585 504 L585 483 L251 483 L251 524 C251 721 309 837 421 837 L421 837 Z M251 443 L765 443 C765 640 670 883 421 883 C212 883 70 670 70 412 C70 99 249 -35 424 -35 C568 -35 709 57 749 223 L699 223 C648 73 543 21 451 21 C345 21 251 105 251 250 L251 443 Z M243 1026 L432 1196 L621 1026 L719 1026 L470 1317 L393 1317 L145 1026 L243 1026 Z " />
<glyph glyph-name="edieresis" unicode="&#xeb;" horiz-adv-x="855" d="M421 837 C541 837 585 686 585 504 L585 483 L251 483 L251 524 C251 721 309 837 421 837 L421 837 Z M251 443 L765 443 C765 640 670 883 421 883 C212 883 70 670 70 412 C70 99 249 -35 424 -35 C568 -35 709 57 749 223 L699 223 C648 73 543 21 451 21 C345 21 251 105 251 250 L251 443 Z M359 1217 C359 1272 315 1315 265 1315 C213 1315 170 1272 170 1217 C170 1163 213 1119 265 1119 C315 1119 359 1163 359 1217 L359 1217 Z M677 1217 C677 1272 633 1315 583 1315 C531 1315 488 1272 488 1217 C488 1163 531 1119 583 1119 C633 1119 677 1163 677 1217 L677 1217 Z " />
<glyph glyph-name="igrave" unicode="&#xec;" horiz-adv-x="521" d="M75 813 L100 813 C172 813 181 793 181 728 L181 120 C181 55 171 35 99 35 L75 35 L75 0 L436 0 L436 35 L411 35 C349 35 331 47 331 120 L331 848 L75 848 L75 813 Z M354 1026 L7 1371 L7 1196 L256 1026 L354 1026 Z " />
<glyph glyph-name="iacute" unicode="&#xed;" horiz-adv-x="521" d="M75 813 L100 813 C172 813 181 793 181 728 L181 120 C181 55 171 35 99 35 L75 35 L75 0 L436 0 L436 35 L411 35 C349 35 331 47 331 120 L331 848 L75 848 L75 813 Z M213 1026 L462 1196 L462 1371 L115 1026 L213 1026 Z " />
<glyph glyph-name="icircumflex" unicode="&#xee;" horiz-adv-x="521" d="M75 813 L100 813 C172 813 181 793 181 728 L181 120 C181 55 171 35 99 35 L75 35 L75 0 L436 0 L436 35 L411 35 C349 35 331 47 331 120 L331 848 L75 848 L75 813 Z M48 1026 L237 1196 L426 1026 L524 1026 L275 1317 L198 1317 L-50 1026 L48 1026 Z " />
<glyph glyph-name="idieresis" unicode="&#xef;" horiz-adv-x="521" d="M179 1217 C179 1272 135 1315 85 1315 C33 1315 -10 1272 -10 1217 C-10 1163 33 1119 85 1119 C135 1119 179 1163 179 1217 L179 1217 Z M457 1217 C457 1272 413 1315 363 1315 C311 1315 268 1272 268 1217 C268 1163 311 1119 363 1119 C413 1119 457 1163 457 1217 L457 1217 Z M75 848 L331 848 L331 120 C331 47 349 35 411 35 L436 35 L436 0 L75 0 L75 35 L99 35 C171 35 181 55 181 120 L181 728 C181 793 172 813 100 813 L75 813 L75 848 Z " />
<glyph glyph-name="eth" unicode="&#xf0;" horiz-adv-x="1294" d="M984 102 L309 102 L647 598 L984 102 Z M309 1236 L985 1236 L647 740 L309 1236 Z M696 669 L1043 1179 L1043 158 L696 669 Z M251 1181 L598 669 L251 159 L251 1181 Z M1053 0 C1104 0 1144 41 1144 91 L1144 1247 C1144 1297 1104 1338 1053 1338 L241 1338 C190 1338 150 1297 150 1247 L150 91 C150 41 190 0 241 0 L1053 0 Z " />
<glyph glyph-name="ntilde" unicode="&#xf1;" horiz-adv-x="1052" d="M331 848 L331 690 C381 807 478 883 608 883 C753 883 863 798 863 621 L863 120 C863 47 879 35 942 35 L967 35 L967 0 L602 0 L602 35 L630 35 C701 35 708 55 708 120 L708 622 C708 760 653 818 561 818 C451 818 331 679 331 483 L331 120 C331 47 349 35 412 35 L437 35 L437 0 L75 0 L75 35 L100 35 C158 35 181 63 181 120 L181 728 C181 785 155 813 100 813 L75 813 L75 848 L331 848 Z M775 1278 C758 1230 721 1190 669 1190 C585 1190 508 1285 398 1285 C300 1285 239 1218 205 1138 L236 1083 C251 1135 289 1178 344 1178 C427 1178 504 1083 615 1083 C707 1083 767 1142 803 1216 L775 1278 Z " />
<glyph glyph-name="ograve" unicode="&#xf2;" horiz-adv-x="906" d="M816 424 C816 728 659 883 443 883 C227 883 70 728 70 424 C70 120 227 -35 443 -35 C659 -35 816 120 816 424 L816 424 Z M244 536 C244 722 307 842 443 842 C579 842 642 722 642 536 L642 312 C642 126 579 6 443 6 C307 6 244 126 244 312 L244 536 Z M616 1026 L269 1371 L269 1196 L518 1026 L616 1026 Z " />
<glyph glyph-name="oacute" unicode="&#xf3;" horiz-adv-x="906" d="M816 424 C816 728 659 883 443 883 C227 883 70 728 70 424 C70 120 227 -35 443 -35 C659 -35 816 120 816 424 L816 424 Z M244 536 C244 722 307 842 443 842 C579 842 642 722 642 536 L642 312 C642 126 579 6 443 6 C307 6 244 126 244 312 L244 536 Z M372 1026 L621 1196 L621 1371 L274 1026 L372 1026 Z " />
<glyph glyph-name="ocircumflex" unicode="&#xf4;" horiz-adv-x="906" d="M816 424 C816 728 659 883 443 883 C227 883 70 728 70 424 C70 120 227 -35 443 -35 C659 -35 816 120 816 424 L816 424 Z M244 536 C244 722 307 842 443 842 C579 842 642 722 642 536 L642 312 C642 126 579 6 443 6 C307 6 244 126 244 312 L244 536 Z M255 1026 L444 1196 L633 1026 L731 1026 L482 1317 L405 1317 L157 1026 L255 1026 Z " />
<glyph glyph-name="otilde" unicode="&#xf5;" horiz-adv-x="906" d="M816 424 C816 728 659 883 443 883 C227 883 70 728 70 424 C70 120 227 -35 443 -35 C659 -35 816 120 816 424 L816 424 Z M244 536 C244 722 307 842 443 842 C579 842 642 722 642 536 L642 312 C642 126 579 6 443 6 C307 6 244 126 244 312 L244 536 Z M713 1278 C696 1230 659 1190 607 1190 C523 1190 446 1285 336 1285 C238 1285 177 1218 143 1138 L174 1083 C189 1135 227 1178 282 1178 C365 1178 442 1083 553 1083 C645 1083 705 1142 741 1216 L713 1278 Z " />
<glyph glyph-name="odieresis" unicode="&#xf6;" horiz-adv-x="906" d="M816 424 C816 728 659 883 443 883 C227 883 70 728 70 424 C70 120 227 -35 443 -35 C659 -35 816 120 816 424 L816 424 Z M244 536 C244 722 307 842 443 842 C579 842 642 722 642 536 L642 312 C642 126 579 6 443 6 C307 6 244 126 244 312 L244 536 Z M378 1217 C378 1272 334 1315 284 1315 C232 1315 189 1272 189 1217 C189 1163 232 1119 284 1119 C334 1119 378 1163 378 1217 L378 1217 Z M696 1217 C696 1272 652 1315 602 1315 C550 1315 507 1272 507 1217 C507 1163 550 1119 602 1119 C652 1119 696 1163 696 1217 L696 1217 Z " />
<glyph glyph-name="divide" unicode="&#xf7;" horiz-adv-x="956" d="M70 419 L886 416 L886 496 L70 499 L70 419 Z M568 244 C568 294 528 334 478 334 C428 334 387 294 387 244 C387 194 431 153 478 153 C525 153 568 194 568 244 L568 244 Z M568 673 C568 723 528 763 478 763 C428 763 387 723 387 673 C387 623 431 582 478 582 C525 582 568 623 568 673 L568 673 Z " />
<glyph glyph-name="oslash" unicode="&#xf8;" horiz-adv-x="906" d="M34 -36 L163 95 C230 9 328 -35 443 -35 C659 -35 816 120 816 424 C816 535 795 627 757 698 L857 799 L856 884 L724 750 C657 838 559 883 443 883 C227 883 70 728 70 424 C70 311 92 219 130 147 L33 49 L34 -36 Z M244 536 C244 722 307 842 443 842 C547 842 608 772 631 656 L245 264 C244 280 244 295 244 312 L244 536 Z M642 536 L642 312 C642 126 579 6 443 6 C340 6 279 74 255 188 L641 579 C642 565 642 551 642 536 L642 536 Z " />
<glyph glyph-name="ugrave" unicode="&#xf9;" horiz-adv-x="1021" d="M70 848 L70 813 L95 813 C150 813 176 785 176 728 L176 221 C176 47 272 -25 418 -25 C527 -25 646 54 680 159 L680 0 L936 0 L936 35 L911 35 C856 35 830 63 830 120 L830 848 L574 848 L574 813 L599 813 C654 813 680 785 680 728 L680 364 C680 162 555 39 453 39 C362 39 326 93 326 230 L326 848 L70 848 Z M652 1026 L305 1371 L305 1196 L554 1026 L652 1026 Z " />
<glyph glyph-name="uacute" unicode="&#xfa;" horiz-adv-x="1021" d="M70 848 L70 813 L95 813 C150 813 176 785 176 728 L176 221 C176 47 272 -25 418 -25 C527 -25 646 54 680 159 L680 0 L936 0 L936 35 L911 35 C856 35 830 63 830 120 L830 848 L574 848 L574 813 L599 813 C654 813 680 785 680 728 L680 364 C680 162 555 39 453 39 C362 39 326 93 326 230 L326 848 L70 848 Z M423 1026 L672 1196 L672 1371 L325 1026 L423 1026 Z " />
<glyph glyph-name="ucircumflex" unicode="&#xfb;" horiz-adv-x="1021" d="M70 848 L70 813 L95 813 C150 813 176 785 176 728 L176 221 C176 47 272 -25 418 -25 C527 -25 646 54 680 159 L680 0 L936 0 L936 35 L911 35 C856 35 830 63 830 120 L830 848 L574 848 L574 813 L599 813 C654 813 680 785 680 728 L680 364 C680 162 555 39 453 39 C362 39 326 93 326 230 L326 848 L70 848 Z M307 1026 L496 1196 L685 1026 L783 1026 L534 1317 L457 1317 L209 1026 L307 1026 Z " />
<glyph glyph-name="udieresis" unicode="&#xfc;" horiz-adv-x="1021" d="M70 848 L70 813 L95 813 C150 813 176 785 176 728 L176 221 C176 47 272 -25 418 -25 C527 -25 646 54 680 159 L680 0 L936 0 L936 35 L911 35 C856 35 830 63 830 120 L830 848 L574 848 L574 813 L599 813 C654 813 680 785 680 728 L680 364 C680 162 555 39 453 39 C362 39 326 93 326 230 L326 848 L70 848 Z M429 1217 C429 1272 385 1315 335 1315 C283 1315 240 1272 240 1217 C240 1163 283 1119 335 1119 C385 1119 429 1163 429 1217 L429 1217 Z M747 1217 C747 1272 703 1315 653 1315 C601 1315 558 1272 558 1217 C558 1163 601 1119 653 1119 C703 1119 747 1163 747 1217 L747 1217 Z " />
<glyph glyph-name="yacute" unicode="&#xfd;" horiz-adv-x="920" d="M470 0 L399 -201 C364 -302 300 -359 241 -359 C192 -359 145 -313 143 -216 L83 -216 L83 -415 C124 -439 183 -450 218 -450 C336 -450 411 -349 452 -221 L784 813 L905 813 L905 847 L590 847 L590 813 L729 813 L505 114 L311 712 C305 730 300 751 300 760 C300 788 315 813 355 813 L398 813 L398 848 L15 848 L15 813 L49 813 C95 813 125 794 142 744 L391 0 L470 0 Z M431 1026 L680 1196 L680 1371 L333 1026 L431 1026 Z " />
<glyph glyph-name="thorn" unicode="&#xfe;" horiz-adv-x="1294" d="M984 102 L309 102 L647 598 L984 102 Z M309 1236 L985 1236 L647 740 L309 1236 Z M696 669 L1043 1179 L1043 158 L696 669 Z M251 1181 L598 669 L251 159 L251 1181 Z M1053 0 C1104 0 1144 41 1144 91 L1144 1247 C1144 1297 1104 1338 1053 1338 L241 1338 C190 1338 150 1297 150 1247 L150 91 C150 41 190 0 241 0 L1053 0 Z " />
<glyph glyph-name="ydieresis" unicode="&#xff;" horiz-adv-x="920" d="M391 0 L142 744 C125 794 95 813 49 813 L15 813 L15 848 L398 848 L398 813 L355 813 C315 813 300 788 300 760 C300 751 305 730 311 712 L505 114 L729 813 L590 813 L590 847 L905 847 L905 813 L784 813 L452 -221 C411 -349 336 -450 218 -450 C183 -450 124 -439 83 -415 L83 -216 L143 -216 C145 -313 192 -359 241 -359 C300 -359 364 -302 399 -201 L470 0 L391 0 Z M409 1217 C409 1272 365 1315 315 1315 C263 1315 220 1272 220 1217 C220 1163 263 1119 315 1119 C365 1119 409 1163 409 1217 L409 1217 Z M727 1217 C727 1272 683 1315 633 1315 C581 1315 538 1272 538 1217 C538 1163 581 1119 633 1119 C683 1119 727 1163 727 1217 L727 1217 Z " />
<glyph glyph-name="Amacron" unicode="&#x100;" horiz-adv-x="1217" d="M757 438 L836 166 C840 153 846 127 846 116 C846 72 816 47 772 46 L715 45 L715 0 L1202 0 L1202 45 L1173 46 C1111 48 1046 72 1013 183 L669 1338 L541 1338 L190 174 C166 95 104 45 55 45 L15 45 L15 0 L360 0 L360 45 L317 45 C258 45 232 74 232 114 C232 125 237 146 241 158 L326 438 L757 438 Z M547 1167 L742 488 L340 488 L547 1167 Z M358 1581 L837 1581 L859 1688 L380 1688 L358 1581 Z " />
<glyph glyph-name="amacron" unicode="&#x101;" horiz-adv-x="909" d="M575 456 L575 238 C575 142 505 43 399 43 C296 43 250 130 250 223 C250 365 376 456 575 456 L575 456 Z M844 3 L844 38 C816 30 797 26 779 26 C744 26 725 49 725 117 L725 680 C725 824 631 883 473 883 C349 883 217 829 137 769 L137 571 L177 571 C177 709 283 818 433 818 C533 818 575 779 575 689 L575 503 C388 501 85 447 85 201 C85 55 202 -30 345 -30 C428 -30 530 2 575 83 C590 1 649 -31 723 -31 C766 -31 816 -17 844 3 L844 3 Z M215 1146 L654 1146 L672 1243 L233 1243 L215 1146 Z " />
<glyph glyph-name="Abreve" unicode="&#x102;" horiz-adv-x="1217" d="M757 438 L836 166 C840 153 846 127 846 116 C846 72 816 47 772 46 L715 45 L715 0 L1202 0 L1202 45 L1173 46 C1111 48 1046 72 1013 183 L669 1338 L541 1338 L190 174 C166 95 104 45 55 45 L15 45 L15 0 L360 0 L360 45 L317 45 C258 45 232 74 232 114 C232 125 237 146 241 158 L326 438 L757 438 Z M547 1167 L742 488 L340 488 L547 1167 Z M831 1703 C831 1703 763 1547 611 1547 C459 1547 395 1703 395 1703 L333 1676 C348 1600 423 1446 611 1446 C798 1446 873 1600 888 1676 L831 1703 Z " />
<glyph glyph-name="abreve" unicode="&#x103;" horiz-adv-x="909" d="M575 456 L575 238 C575 142 505 43 399 43 C296 43 250 130 250 223 C250 365 376 456 575 456 L575 456 Z M844 3 L844 38 C816 30 797 26 779 26 C744 26 725 49 725 117 L725 680 C725 824 631 883 473 883 C349 883 217 829 137 769 L137 571 L177 571 C177 709 283 818 433 818 C533 818 575 779 575 689 L575 503 C388 501 85 447 85 201 C85 55 202 -30 345 -30 C428 -30 530 2 575 83 C590 1 649 -31 723 -31 C766 -31 816 -17 844 3 L844 3 Z M675 1303 C675 1303 607 1147 455 1147 C303 1147 239 1303 239 1303 L177 1276 C192 1200 267 1046 455 1046 C642 1046 717 1200 732 1276 L675 1303 Z " />
<glyph glyph-name="Aogonek" unicode="&#x104;" horiz-adv-x="1217" d="M1132 0 C1041 -29 964 -100 964 -197 C964 -277 1020 -343 1094 -359 L1141 -255 C1084 -246 1052 -195 1052 -143 C1052 -66 1104 -26 1202 0 L1202 45 L1173 46 C1111 48 1046 72 1013 183 L669 1338 L541 1338 L190 174 C166 95 104 45 55 45 L15 45 L15 0 L360 0 L360 45 L317 45 C258 45 232 74 232 114 C232 125 237 146 241 158 L326 438 L757 438 L836 166 C840 153 846 127 846 116 C846 72 816 47 772 46 L715 45 L715 0 L1132 0 Z M547 1167 L742 488 L340 488 L547 1167 Z " />
<glyph glyph-name="aogonek" unicode="&#x105;" horiz-adv-x="909" d="M844 3 L844 38 C816 30 797 26 779 26 C744 26 725 49 725 117 L725 680 C725 824 631 883 473 883 C349 883 217 829 137 769 L137 571 L177 571 C177 709 283 818 433 818 C533 818 575 779 575 689 L575 503 C388 501 85 447 85 201 C85 55 202 -30 345 -30 C428 -30 530 2 575 83 C587 17 627 -16 681 -27 C619 -63 574 -122 574 -197 C574 -277 630 -343 704 -359 L751 -255 C694 -246 662 -195 662 -143 C662 -91 685 -56 730 -31 C771 -29 817 -16 844 3 L844 3 Z M575 456 L575 238 C575 142 505 43 399 43 C296 43 250 130 250 223 C250 365 376 456 575 456 L575 456 Z " />
<glyph glyph-name="Cacute" unicode="&#x106;" horiz-adv-x="1125" d="M1020 952 L1020 1259 C917 1318 814 1363 672 1363 C253 1363 105 1054 105 669 C105 268 252 -25 662 -25 C793 -25 916 11 1020 79 L1020 386 L966 386 C962 181 888 35 662 35 C324 35 291 421 291 669 C291 1184 451 1304 669 1304 C868 1304 966 1194 966 952 L1020 952 Z M597 1426 L846 1596 L846 1771 L499 1426 L597 1426 Z " />
<glyph glyph-name="cacute" unicode="&#x107;" horiz-adv-x="835" d="M720 802 C633 857 536 883 449 883 C238 883 80 721 80 424 C80 70 255 -35 464 -35 C616 -35 719 79 750 217 L701 217 C674 124 601 18 487 18 C367 18 248 76 248 424 C248 561 257 834 469 834 C593 834 676 742 676 562 L720 562 L720 802 Z M373 1026 L622 1196 L622 1371 L275 1026 L373 1026 Z " />
<glyph glyph-name="Ccircumflex" unicode="&#x108;" horiz-adv-x="1125" d="M1020 952 L1020 1259 C917 1318 814 1363 672 1363 C253 1363 105 1054 105 669 C105 268 252 -25 662 -25 C793 -25 916 11 1020 79 L1020 386 L966 386 C962 181 888 35 662 35 C324 35 291 421 291 669 C291 1184 451 1304 669 1304 C868 1304 966 1194 966 952 L1020 952 Z M453 1426 L642 1596 L831 1426 L929 1426 L680 1717 L603 1717 L355 1426 L453 1426 Z " />
<glyph glyph-name="ccircumflex" unicode="&#x109;" horiz-adv-x="835" d="M720 802 C633 857 536 883 449 883 C238 883 80 721 80 424 C80 70 255 -35 464 -35 C616 -35 719 79 750 217 L701 217 C674 124 601 18 487 18 C367 18 248 76 248 424 C248 561 257 834 469 834 C593 834 676 742 676 562 L720 562 L720 802 Z M273 1026 L462 1196 L651 1026 L749 1026 L500 1317 L423 1317 L175 1026 L273 1026 Z " />
<glyph glyph-name="Cdotaccent" unicode="&#x10a;" horiz-adv-x="1125" d="M1020 952 L1020 1259 C917 1318 814 1363 672 1363 C253 1363 105 1054 105 669 C105 268 252 -25 662 -25 C793 -25 916 11 1020 79 L1020 386 L966 386 C962 181 888 35 662 35 C324 35 291 421 291 669 C291 1184 451 1304 669 1304 C868 1304 966 1194 966 952 L1020 952 Z M724 1597 C724 1655 678 1700 625 1700 C570 1700 525 1655 525 1597 C525 1540 570 1494 625 1494 C678 1494 724 1540 724 1597 L724 1597 Z " />
<glyph glyph-name="cdotaccent" unicode="&#x10b;" horiz-adv-x="835" d="M720 802 C633 857 536 883 449 883 C238 883 80 721 80 424 C80 70 255 -35 464 -35 C616 -35 719 79 750 217 L701 217 C674 124 601 18 487 18 C367 18 248 76 248 424 C248 561 257 834 469 834 C593 834 676 742 676 562 L720 562 L720 802 Z M549 1197 C549 1252 505 1295 455 1295 C403 1295 360 1252 360 1197 C360 1143 403 1099 455 1099 C505 1099 549 1143 549 1197 L549 1197 Z " />
<glyph glyph-name="Ccaron" unicode="&#x10c;" horiz-adv-x="1125" d="M1020 952 L1020 1259 C917 1318 814 1363 672 1363 C253 1363 105 1054 105 669 C105 268 252 -25 662 -25 C793 -25 916 11 1020 79 L1020 386 L966 386 C962 181 888 35 662 35 C324 35 291 421 291 669 C291 1184 451 1304 669 1304 C868 1304 966 1194 966 952 L1020 952 Z M355 1717 L603 1426 L680 1426 L929 1717 L831 1717 L642 1547 L453 1717 L355 1717 Z " />
<glyph glyph-name="ccaron" unicode="&#x10d;" horiz-adv-x="835" d="M720 802 C633 857 536 883 449 883 C238 883 80 721 80 424 C80 70 255 -35 464 -35 C616 -35 719 79 750 217 L701 217 C674 124 601 18 487 18 C367 18 248 76 248 424 C248 561 257 834 469 834 C593 834 676 742 676 562 L720 562 L720 802 Z M175 1317 L423 1026 L500 1026 L749 1317 L651 1317 L462 1147 L273 1317 L175 1317 Z " />
<glyph glyph-name="Dcaron" unicode="&#x10e;" horiz-adv-x="1261" d="M972 669 C972 276 869 54 522 54 L386 54 L386 1284 L480 1284 C843 1284 972 1077 972 669 L972 669 Z M574 0 C989 0 1156 268 1156 688 C1156 1108 934 1338 550 1338 L81 1338 L81 1293 C177 1293 219 1281 219 1207 L219 131 C219 57 177 45 81 45 L81 0 L574 0 Z M345 1717 L593 1426 L670 1426 L919 1717 L821 1717 L632 1547 L443 1717 L345 1717 Z " />
<glyph glyph-name="dcaron" unicode="&#x10f;" horiz-adv-x="986" d="M253 424 C253 574 254 819 437 819 C598 819 645 623 645 498 L645 350 C645 214 597 29 436 29 C253 29 253 303 253 424 L253 424 Z M645 722 C607 817 510 883 407 883 C234 883 85 763 85 424 C85 118 216 -35 407 -35 C530 -35 625 46 645 126 L645 0 L901 0 L901 35 L877 35 C805 35 795 55 795 120 L795 1338 L539 1338 L539 1303 L564 1303 C630 1303 645 1286 645 1232 L645 722 Z M922 823 C960 1063 1037 1223 1037 1288 C1037 1324 1013 1358 963 1358 C900 1358 870 1305 870 1253 C870 1202 879 1109 879 984 C879 935 878 881 874 823 L922 823 Z " />
<glyph glyph-name="Dcroat" unicode="&#x110;" horiz-adv-x="1261" d="M83 618 L219 618 L219 131 C219 57 177 45 81 45 L81 0 L574 0 C989 0 1156 268 1156 688 C1156 1108 934 1338 550 1338 L81 1338 L81 1293 C177 1293 219 1281 219 1207 L219 715 L101 715 L83 618 Z M972 669 C972 276 869 54 522 54 L386 54 L386 618 L668 618 L686 715 L386 715 L386 1284 L480 1284 C843 1284 972 1077 972 669 L972 669 Z " />
<glyph glyph-name="dcroat" unicode="&#x111;" horiz-adv-x="986" d="M401 1067 L645 1067 L645 722 C607 817 510 883 407 883 C234 883 85 763 85 424 C85 118 216 -35 407 -35 C530 -35 625 46 645 126 L645 0 L901 0 L901 35 L877 35 C805 35 795 55 795 120 L795 1067 L859 1067 L921 1129 L795 1129 L795 1338 L539 1338 L539 1303 L564 1303 C630 1303 645 1286 645 1232 L645 1129 L401 1129 L401 1067 Z M253 424 C253 574 254 819 437 819 C598 819 645 623 645 498 L645 350 C645 214 597 29 436 29 C253 29 253 303 253 424 L253 424 Z " />
<glyph glyph-name="Emacron" unicode="&#x112;" horiz-adv-x="1089" d="M932 1338 L81 1338 L81 1293 C177 1293 219 1281 219 1207 L219 131 C219 57 177 45 81 45 L81 0 L955 0 L994 332 L937 332 C909 128 872 55 763 55 L386 55 L386 682 L539 682 C644 682 660 646 660 496 L715 496 L715 918 L660 918 C660 769 644 732 539 732 L386 732 L386 1285 L763 1285 C855 1285 890 1239 908 1099 L961 1099 L932 1338 Z M296 1581 L775 1581 L797 1688 L318 1688 L296 1581 Z " />
<glyph glyph-name="emacron" unicode="&#x113;" horiz-adv-x="855" d="M421 837 C541 837 585 686 585 504 L585 483 L251 483 L251 524 C251 721 309 837 421 837 L421 837 Z M251 443 L765 443 C765 640 670 883 421 883 C212 883 70 670 70 412 C70 99 249 -35 424 -35 C568 -35 709 57 749 223 L699 223 C648 73 543 21 451 21 C345 21 251 105 251 250 L251 443 Z M218 1146 L657 1146 L675 1243 L236 1243 L218 1146 Z " />
<glyph glyph-name="Ebreve" unicode="&#x114;" horiz-adv-x="1089" d="M932 1338 L81 1338 L81 1293 C177 1293 219 1281 219 1207 L219 131 C219 57 177 45 81 45 L81 0 L955 0 L994 332 L937 332 C909 128 872 55 763 55 L386 55 L386 682 L539 682 C644 682 660 646 660 496 L715 496 L715 918 L660 918 C660 769 644 732 539 732 L386 732 L386 1285 L763 1285 C855 1285 890 1239 908 1099 L961 1099 L932 1338 Z M764 1703 C764 1703 696 1547 544 1547 C392 1547 328 1703 328 1703 L266 1676 C281 1600 356 1446 544 1446 C731 1446 806 1600 821 1676 L764 1703 Z " />
<glyph glyph-name="ebreve" unicode="&#x115;" horiz-adv-x="855" d="M421 837 C541 837 585 686 585 504 L585 483 L251 483 L251 524 C251 721 309 837 421 837 L421 837 Z M251 443 L765 443 C765 640 670 883 421 883 C212 883 70 670 70 412 C70 99 249 -35 424 -35 C568 -35 709 57 749 223 L699 223 C648 73 543 21 451 21 C345 21 251 105 251 250 L251 443 Z M670 1303 C670 1303 602 1147 450 1147 C298 1147 234 1303 234 1303 L172 1276 C187 1200 262 1046 450 1046 C637 1046 712 1200 727 1276 L670 1303 Z " />
<glyph glyph-name="Edotaccent" unicode="&#x116;" horiz-adv-x="1089" d="M932 1338 L81 1338 L81 1293 C177 1293 219 1281 219 1207 L219 131 C219 57 177 45 81 45 L81 0 L955 0 L994 332 L937 332 C909 128 872 55 763 55 L386 55 L386 682 L539 682 C644 682 660 646 660 496 L715 496 L715 918 L660 918 C660 769 644 732 539 732 L386 732 L386 1285 L763 1285 C855 1285 890 1239 908 1099 L961 1099 L932 1338 Z M645 1597 C645 1655 599 1700 546 1700 C491 1700 446 1655 446 1597 C446 1540 491 1494 546 1494 C599 1494 645 1540 645 1597 L645 1597 Z " />
<glyph glyph-name="edotaccent" unicode="&#x117;" horiz-adv-x="855" d="M421 837 C541 837 585 686 585 504 L585 483 L251 483 L251 524 C251 721 309 837 421 837 L421 837 Z M251 443 L765 443 C765 640 670 883 421 883 C212 883 70 670 70 412 C70 99 249 -35 424 -35 C568 -35 709 57 749 223 L699 223 C648 73 543 21 451 21 C345 21 251 105 251 250 L251 443 Z M549 1197 C549 1252 505 1295 455 1295 C403 1295 360 1252 360 1197 C360 1143 403 1099 455 1099 C505 1099 549 1143 549 1197 L549 1197 Z " />
<glyph glyph-name="Eogonek" unicode="&#x118;" horiz-adv-x="1089" d="M885 0 C794 -29 717 -100 717 -197 C717 -277 773 -343 847 -359 L894 -255 C837 -246 805 -195 805 -143 C805 -66 857 -26 955 0 L994 332 L937 332 C909 128 872 55 763 55 L386 55 L386 682 L539 682 C644 682 660 646 660 496 L715 496 L715 918 L660 918 C660 769 644 732 539 732 L386 732 L386 1285 L763 1285 C855 1285 890 1239 908 1099 L961 1099 L932 1338 L81 1338 L81 1293 C177 1293 219 1281 219 1207 L219 131 C219 57 177 45 81 45 L81 0 L885 0 Z " />
<glyph glyph-name="eogonek" unicode="&#x119;" horiz-adv-x="855" d="M251 443 L765 443 C765 640 670 883 421 883 C212 883 70 670 70 412 C70 99 249 -35 424 -35 L430 -35 C375 -72 336 -128 336 -197 C336 -277 392 -343 466 -359 L513 -255 C456 -246 424 -195 424 -143 C424 -88 450 -51 502 -26 C616 1 716 87 749 223 L699 223 C648 73 543 21 451 21 C345 21 251 105 251 250 L251 443 Z M421 837 C541 837 585 686 585 504 L585 483 L251 483 L251 524 C251 721 309 837 421 837 L421 837 Z " />
<glyph glyph-name="Ecaron" unicode="&#x11a;" horiz-adv-x="1089" d="M932 1338 L81 1338 L81 1293 C177 1293 219 1281 219 1207 L219 131 C219 57 177 45 81 45 L81 0 L955 0 L994 332 L937 332 C909 128 872 55 763 55 L386 55 L386 682 L539 682 C644 682 660 646 660 496 L715 496 L715 918 L660 918 C660 769 644 732 539 732 L386 732 L386 1285 L763 1285 C855 1285 890 1239 908 1099 L961 1099 L932 1338 Z M265 1717 L513 1426 L590 1426 L839 1717 L741 1717 L552 1547 L363 1717 L265 1717 Z " />
<glyph glyph-name="ecaron" unicode="&#x11b;" horiz-adv-x="855" d="M421 837 C541 837 585 686 585 504 L585 483 L251 483 L251 524 C251 721 309 837 421 837 L421 837 Z M251 443 L765 443 C765 640 670 883 421 883 C212 883 70 670 70 412 C70 99 249 -35 424 -35 C568 -35 709 57 749 223 L699 223 C648 73 543 21 451 21 C345 21 251 105 251 250 L251 443 Z M155 1317 L403 1026 L480 1026 L729 1317 L631 1317 L442 1147 L253 1317 L155 1317 Z " />
<glyph glyph-name="Gcircumflex" unicode="&#x11c;" horiz-adv-x="1258" d="M1019 1260 C917 1321 807 1363 671 1363 C313 1363 105 1137 105 669 C105 220 328 -25 664 -25 C808 -25 965 43 1098 171 L1098 638 L797 638 L797 585 L856 585 C923 585 931 565 931 501 L931 237 C931 164 858 35 674 35 C479 35 289 113 289 669 C289 1184 448 1305 666 1305 C866 1305 965 1195 965 953 L1019 953 L1019 1260 Z M443 1426 L632 1596 L821 1426 L919 1426 L670 1717 L593 1717 L345 1426 L443 1426 Z " />
<glyph glyph-name="gcircumflex" unicode="&#x11d;" horiz-adv-x="987" d="M644 423 C644 191 591 35 436 35 C266 35 240 186 240 423 C240 643 266 816 436 816 C591 816 644 620 644 423 L644 423 Z M902 847 L646 847 L646 712 C606 812 518 878 414 878 C180 878 70 670 70 423 C70 149 180 -30 414 -30 C538 -30 606 40 646 140 L646 -100 C646 -259 599 -393 421 -393 C263 -393 211 -284 211 -156 L151 -156 L151 -370 C218 -422 337 -450 444 -450 C679 -450 796 -350 796 -132 L796 727 C796 792 806 812 878 812 L902 812 L902 847 Z M307 1026 L496 1196 L685 1026 L783 1026 L534 1317 L457 1317 L209 1026 L307 1026 Z " />
<glyph glyph-name="Gbreve" unicode="&#x11e;" horiz-adv-x="1258" d="M1019 1260 C917 1321 807 1363 671 1363 C313 1363 105 1137 105 669 C105 220 328 -25 664 -25 C808 -25 965 43 1098 171 L1098 638 L797 638 L797 585 L856 585 C923 585 931 565 931 501 L931 237 C931 164 858 35 674 35 C479 35 289 113 289 669 C289 1184 448 1305 666 1305 C866 1305 965 1195 965 953 L1019 953 L1019 1260 Z M864 1703 C864 1703 796 1547 644 1547 C492 1547 428 1703 428 1703 L366 1676 C381 1600 456 1446 644 1446 C831 1446 906 1600 921 1676 L864 1703 Z " />
<glyph glyph-name="gbreve" unicode="&#x11f;" horiz-adv-x="987" d="M644 423 C644 191 591 35 436 35 C266 35 240 186 240 423 C240 643 266 816 436 816 C591 816 644 620 644 423 L644 423 Z M902 847 L646 847 L646 712 C606 812 518 878 414 878 C180 878 70 670 70 423 C70 149 180 -30 414 -30 C538 -30 606 40 646 140 L646 -100 C646 -259 599 -393 421 -393 C263 -393 211 -284 211 -156 L151 -156 L151 -370 C218 -422 337 -450 444 -450 C679 -450 796 -350 796 -132 L796 727 C796 792 806 812 878 812 L902 812 L902 847 Z M758 1303 C758 1303 690 1147 538 1147 C386 1147 322 1303 322 1303 L260 1276 C275 1200 350 1046 538 1046 C725 1046 800 1200 815 1276 L758 1303 Z " />
<glyph glyph-name="Gdotaccent" unicode="&#x120;" horiz-adv-x="1258" d="M1019 1260 L1019 953 L965 953 C965 1195 866 1305 666 1305 C448 1305 289 1184 289 669 C289 113 479 35 674 35 C858 35 931 164 931 237 L931 501 C931 565 923 585 856 585 L797 585 L797 638 L1098 638 L1098 171 C965 43 808 -25 664 -25 C328 -25 105 220 105 669 C105 1137 313 1363 671 1363 C807 1363 917 1321 1019 1260 L1019 1260 Z M724 1597 C724 1655 678 1700 625 1700 C570 1700 525 1655 525 1597 C525 1540 570 1494 625 1494 C678 1494 724 1540 724 1597 L724 1597 Z " />
<glyph glyph-name="gdotaccent" unicode="&#x121;" horiz-adv-x="987" d="M644 423 C644 191 591 35 436 35 C266 35 240 186 240 423 C240 643 266 816 436 816 C591 816 644 620 644 423 L644 423 Z M902 847 L646 847 L646 712 C606 812 518 878 414 878 C180 878 70 670 70 423 C70 149 180 -30 414 -30 C538 -30 606 40 646 140 L646 -100 C646 -259 599 -393 421 -393 C263 -393 211 -284 211 -156 L151 -156 L151 -370 C218 -422 337 -450 444 -450 C679 -450 796 -350 796 -132 L796 727 C796 792 806 812 878 812 L902 812 L902 847 Z M573 1197 C573 1252 529 1295 479 1295 C427 1295 384 1252 384 1197 C384 1143 427 1099 479 1099 C529 1099 573 1143 573 1197 L573 1197 Z " />
<glyph glyph-name="Gcommaaccent" unicode="&#x122;" horiz-adv-x="1258" d="M1019 1260 C917 1321 807 1363 671 1363 C313 1363 105 1137 105 669 C105 220 328 -25 664 -25 C808 -25 965 43 1098 171 L1098 638 L797 638 L797 585 L856 585 C923 585 931 565 931 501 L931 237 C931 164 858 35 674 35 C479 35 289 113 289 669 C289 1184 448 1305 666 1305 C866 1305 965 1195 965 953 L1019 953 L1019 1260 Z M729 -234 C729 -328 645 -405 561 -448 L584 -487 C685 -440 777 -346 777 -225 C777 -155 736 -82 655 -82 C607 -82 556 -121 556 -177 C556 -221 593 -269 645 -269 C676 -269 709 -251 726 -208 C728 -217 729 -225 729 -234 L729 -234 Z " />
<glyph glyph-name="gcommaaccent" unicode="&#x123;" horiz-adv-x="987" d="M644 423 C644 191 591 35 436 35 C266 35 240 186 240 423 C240 643 266 816 436 816 C591 816 644 620 644 423 L644 423 Z M902 847 L646 847 L646 712 C606 812 518 878 414 878 C180 878 70 670 70 423 C70 149 180 -30 414 -30 C538 -30 606 40 646 140 L646 -100 C646 -259 599 -393 421 -393 C263 -393 211 -284 211 -156 L151 -156 L151 -370 C218 -422 337 -450 444 -450 C679 -450 796 -350 796 -132 L796 727 C796 792 806 812 878 812 L902 812 L902 847 Z M391 1115 C391 1209 475 1286 559 1329 L536 1368 C435 1321 343 1227 343 1106 C343 1036 384 963 465 963 C513 963 564 1002 564 1058 C564 1102 527 1150 475 1150 C444 1150 411 1132 394 1089 C392 1098 391 1106 391 1115 L391 1115 Z " />
<glyph glyph-name="Itilde" unicode="&#x128;" horiz-adv-x="605" d="M524 0 L524 45 C428 45 386 57 386 131 L386 1207 C386 1281 428 1293 524 1293 L524 1338 L81 1338 L81 1293 C177 1293 219 1281 219 1207 L219 131 C219 57 177 45 81 45 L81 0 L524 0 Z M573 1678 C556 1630 519 1590 467 1590 C383 1590 306 1685 196 1685 C98 1685 37 1618 3 1538 L34 1483 C49 1535 87 1578 142 1578 C225 1578 302 1483 413 1483 C505 1483 565 1542 601 1616 L573 1678 Z " />
<glyph glyph-name="itilde" unicode="&#x129;" horiz-adv-x="521" d="M75 848 L331 848 L331 120 C331 47 349 35 411 35 L436 35 L436 0 L75 0 L75 35 L99 35 C171 35 181 55 181 120 L181 728 C181 793 172 813 100 813 L75 813 L75 848 Z M501 1278 C484 1230 447 1190 395 1190 C311 1190 234 1285 124 1285 C26 1285 -35 1218 -69 1138 L-38 1083 C-23 1135 15 1178 70 1178 C153 1178 230 1083 341 1083 C433 1083 493 1142 529 1216 L501 1278 Z " />
<glyph glyph-name="Imacron" unicode="&#x12a;" horiz-adv-x="605" d="M524 0 L524 45 C428 45 386 57 386 131 L386 1207 C386 1281 428 1293 524 1293 L524 1338 L81 1338 L81 1293 C177 1293 219 1281 219 1207 L219 131 C219 57 177 45 81 45 L81 0 L524 0 Z M58 1581 L537 1581 L559 1688 L80 1688 L58 1581 Z " />
<glyph glyph-name="imacron" unicode="&#x12b;" horiz-adv-x="521" d="M75 848 L331 848 L331 120 C331 47 349 35 411 35 L436 35 L436 0 L75 0 L75 35 L99 35 C171 35 181 55 181 120 L181 728 C181 793 172 813 100 813 L75 813 L75 848 Z M13 1146 L452 1146 L470 1243 L31 1243 L13 1146 Z " />
<glyph glyph-name="Ibreve" unicode="&#x12c;" horiz-adv-x="605" d="M524 0 L524 45 C428 45 386 57 386 131 L386 1207 C386 1281 428 1293 524 1293 L524 1338 L81 1338 L81 1293 C177 1293 219 1281 219 1207 L219 131 C219 57 177 45 81 45 L81 0 L524 0 Z M524 1703 C524 1703 456 1547 304 1547 C152 1547 88 1703 88 1703 L26 1676 C41 1600 116 1446 304 1446 C491 1446 566 1600 581 1676 L524 1703 Z " />
<glyph glyph-name="ibreve" unicode="&#x12d;" horiz-adv-x="521" d="M75 813 L100 813 C172 813 181 793 181 728 L181 120 C181 55 171 35 99 35 L75 35 L75 0 L436 0 L436 35 L411 35 C349 35 331 47 331 120 L331 848 L75 848 L75 813 Z M463 1303 C463 1303 395 1147 243 1147 C91 1147 27 1303 27 1303 L-35 1276 C-20 1200 55 1046 243 1046 C430 1046 505 1200 520 1276 L463 1303 Z " />
<glyph glyph-name="Iogonek" unicode="&#x12e;" horiz-adv-x="605" d="M454 0 C363 -29 286 -100 286 -197 C286 -277 342 -343 416 -359 L463 -255 C406 -246 374 -195 374 -143 C374 -66 426 -26 524 0 L524 45 C428 45 386 57 386 131 L386 1207 C386 1281 428 1293 524 1293 L524 1338 L81 1338 L81 1293 C177 1293 219 1281 219 1207 L219 131 C219 57 177 45 81 45 L81 0 L454 0 Z " />
<glyph glyph-name="iogonek" unicode="&#x12f;" horiz-adv-x="521" d="M366 0 C275 -29 198 -100 198 -197 C198 -277 254 -343 328 -359 L375 -255 C318 -246 286 -195 286 -143 C286 -66 338 -26 436 0 L366 0 Z M75 813 L100 813 C172 813 181 793 181 728 L181 120 C181 55 171 35 99 35 L75 35 L75 0 L436 0 L436 35 L411 35 C349 35 331 47 331 120 L331 848 L75 848 L75 813 Z M244 1122 C292 1122 335 1167 335 1218 C335 1273 292 1320 244 1320 C193 1320 151 1273 151 1218 C151 1167 193 1122 244 1122 L244 1122 Z " />
<glyph glyph-name="uni0130" unicode="&#x130;" horiz-adv-x="605" d="M524 0 L524 45 C428 45 386 57 386 131 L386 1207 C386 1281 428 1293 524 1293 L524 1338 L81 1338 L81 1293 C177 1293 219 1281 219 1207 L219 131 C219 57 177 45 81 45 L81 0 L524 0 Z M402 1597 C402 1655 356 1700 303 1700 C248 1700 203 1655 203 1597 C203 1540 248 1494 303 1494 C356 1494 402 1540 402 1597 L402 1597 Z " />
<glyph glyph-name="dotlessi" unicode="&#x131;" horiz-adv-x="521" d="M75 813 L100 813 C172 813 181 793 181 728 L181 120 C181 55 171 35 99 35 L75 35 L75 0 L436 0 L436 35 L411 35 C349 35 331 47 331 120 L331 848 L75 848 L75 813 Z " />
<glyph glyph-name="IJ" unicode="&#x132;" horiz-adv-x="1350" d="M524 0 L524 45 C428 45 386 57 386 131 L386 1207 C386 1281 428 1293 524 1293 L524 1338 L81 1338 L81 1293 C177 1293 219 1281 219 1207 L219 131 C219 57 177 45 81 45 L81 0 L524 0 Z M819 37 C679 37 645 175 645 293 L590 293 L590 57 C677 3 768 -25 854 -25 C1011 -25 1131 72 1131 285 L1131 1207 C1131 1281 1173 1293 1269 1293 L1269 1338 L826 1338 L826 1293 C922 1293 964 1281 964 1207 L964 194 C964 89 902 37 819 37 L819 37 Z " />
<glyph glyph-name="ij" unicode="&#x133;" horiz-adv-x="1023" d="M586 813 L610 813 C682 813 692 793 692 728 L692 -263 C692 -374 642 -430 588 -430 C505 -430 469 -370 469 -245 L469 -231 L429 -231 L429 -407 C479 -444 528 -470 626 -470 C760 -470 842 -398 842 -196 L842 848 L586 848 L586 813 Z M75 813 L100 813 C172 813 181 793 181 728 L181 120 C181 55 171 35 99 35 L75 35 L75 0 L436 0 L436 35 L411 35 C349 35 331 47 331 120 L331 848 L75 848 L75 813 Z M244 1122 C292 1122 335 1167 335 1218 C335 1273 292 1320 244 1320 C193 1320 151 1273 151 1218 C151 1167 193 1122 244 1122 L244 1122 Z M754 1122 C766 1122 778 1125 788 1130 L794 1133 C798 1135 803 1138 806 1141 C808 1142 810 1144 812 1146 L819 1153 C824 1159 828 1165 832 1171 L838 1185 L841 1195 L843 1203 C844 1208 844 1213 844 1218 C844 1222 844 1226 843 1230 L843 1234 L841 1242 C839 1253 834 1264 828 1274 C826 1276 825 1279 824 1281 L822 1284 C819 1287 817 1290 814 1292 L812 1295 L800 1304 C795 1308 790 1311 785 1313 C780 1315 776 1317 771 1318 C766 1319 760 1320 754 1320 C747 1320 741 1319 735 1318 C734 1317 732 1317 731 1317 C728 1316 724 1315 721 1313 C713 1310 706 1305 699 1300 C697 1298 695 1296 693 1295 L690 1292 C685 1287 680 1281 676 1274 L672 1268 C672 1267 671 1265 670 1264 C667 1258 665 1252 664 1246 C661 1237 660 1227 660 1218 C660 1206 662 1195 666 1185 L669 1178 C669 1177 670 1176 670 1175 C674 1167 679 1160 685 1153 C689 1149 694 1144 699 1141 C708 1133 719 1128 731 1125 C737 1123 743 1122 750 1122 L754 1122 Z " />
<glyph glyph-name="Kcommaaccent" unicode="&#x136;" horiz-adv-x="1245" d="M524 0 L524 45 C428 45 386 57 386 131 L386 650 L436 707 L840 137 C857 112 865 96 865 83 C865 60 845 45 808 45 L756 45 L756 0 L1235 0 L1235 45 L1201 45 C1149 45 1096 85 1055 142 L550 838 L948 1293 L1094 1293 L1094 1338 L744 1338 L744 1293 L880 1293 L386 726 L386 1207 C386 1281 428 1293 524 1293 L524 1338 L81 1338 L81 1293 C177 1293 219 1281 219 1207 L219 131 C219 57 177 45 81 45 L81 0 L524 0 Z M685 -234 C685 -225 684 -217 682 -208 C665 -251 632 -269 601 -269 C549 -269 512 -221 512 -177 C512 -121 563 -82 611 -82 C692 -82 733 -155 733 -225 C733 -346 641 -440 540 -487 L517 -448 C601 -405 685 -328 685 -234 L685 -234 Z " />
<glyph glyph-name="kcommaaccent" unicode="&#x137;" horiz-adv-x="1011" d="M658 124 C680 98 684 87 684 73 C684 54 672 35 650 35 L598 35 L598 0 L1011 0 L1011 35 L985 35 C932 35 884 78 839 132 L483 554 L771 813 L883 813 L883 848 L569 848 L569 813 L702 813 L326 473 L326 1338 L70 1338 L70 1303 L95 1303 C167 1303 176 1283 176 1218 L176 120 C176 55 166 35 94 35 L70 35 L70 0 L432 0 L432 35 L407 35 C344 35 326 47 326 120 L326 413 L374 456 L658 124 Z M584 -234 C584 -225 583 -217 581 -208 C564 -251 531 -269 500 -269 C448 -269 411 -221 411 -177 C411 -121 462 -82 510 -82 C591 -82 632 -155 632 -225 C632 -346 540 -440 439 -487 L416 -448 C500 -405 584 -328 584 -234 L584 -234 Z " />
<glyph glyph-name="Lacute" unicode="&#x139;" horiz-adv-x="984" d="M61 0 L915 0 L954 356 L897 356 C869 152 808 68 699 68 L366 68 L366 1207 C366 1281 408 1293 504 1293 L566 1293 L566 1338 L61 1338 L61 1293 C157 1293 199 1281 199 1207 L199 131 C199 57 157 45 61 45 L61 0 Z M349 1426 L598 1596 L598 1771 L251 1426 L349 1426 Z " />
<glyph glyph-name="lacute" unicode="&#x13a;" horiz-adv-x="493" d="M401 15 C351 19 312 73 312 181 L312 1338 L55 1338 L55 1303 L80 1303 C152 1303 162 1283 162 1218 L162 248 C162 46 242 -26 376 -26 L401 -26 L401 15 Z M213 1426 L462 1596 L462 1771 L115 1426 L213 1426 Z " />
<glyph glyph-name="Lcommaaccent" unicode="&#x13b;" horiz-adv-x="984" d="M61 0 L915 0 L954 356 L897 356 C869 152 808 68 699 68 L366 68 L366 1207 C366 1281 408 1293 504 1293 L566 1293 L566 1338 L61 1338 L61 1293 C157 1293 199 1281 199 1207 L199 131 C199 57 157 45 61 45 L61 0 Z M579 -234 C579 -225 578 -217 576 -208 C559 -251 526 -269 495 -269 C443 -269 406 -221 406 -177 C406 -121 457 -82 505 -82 C586 -82 627 -155 627 -225 C627 -346 535 -440 434 -487 L411 -448 C495 -405 579 -328 579 -234 L579 -234 Z " />
<glyph glyph-name="lcommaaccent" unicode="&#x13c;" horiz-adv-x="493" d="M401 15 C351 19 312 73 312 181 L312 1338 L55 1338 L55 1303 L80 1303 C152 1303 162 1283 162 1218 L162 248 C162 46 242 -26 376 -26 L401 -26 L401 15 Z M339 -234 C339 -225 338 -217 336 -208 C319 -251 286 -269 255 -269 C203 -269 166 -221 166 -177 C166 -121 217 -82 265 -82 C346 -82 387 -155 387 -225 C387 -346 295 -440 194 -487 L171 -448 C255 -405 339 -328 339 -234 L339 -234 Z " />
<glyph glyph-name="Ldot" unicode="&#x13f;" horiz-adv-x="984" d="M61 0 L915 0 L954 356 L897 356 C869 152 808 68 699 68 L366 68 L366 1207 C366 1281 408 1293 504 1293 L566 1293 L566 1338 L61 1338 L61 1293 C157 1293 199 1281 199 1207 L199 131 C199 57 157 45 61 45 L61 0 Z M868 674 C868 735 820 783 764 783 C706 783 659 735 659 674 C659 614 706 565 764 565 C820 565 868 614 868 674 L868 674 Z " />
<glyph glyph-name="ldot" unicode="&#x140;" horiz-adv-x="663" d="M401 15 C351 19 312 73 312 181 L312 1338 L55 1338 L55 1303 L80 1303 C152 1303 162 1283 162 1218 L162 248 C162 46 242 -26 376 -26 L401 -26 L401 15 Z M668 564 C668 625 620 673 564 673 C506 673 459 625 459 564 C459 504 506 455 564 455 C620 455 668 504 668 564 L668 564 Z " />
<glyph glyph-name="Lslash" unicode="&#x141;" horiz-adv-x="984" d="M21 348 L199 529 L199 131 C199 57 157 45 61 45 L61 0 L915 0 L954 356 L897 356 C869 152 808 68 699 68 L366 68 L366 699 L544 880 L543 970 L366 790 L366 1207 C366 1281 408 1293 504 1293 L566 1293 L566 1338 L61 1338 L61 1293 C157 1293 199 1281 199 1207 L199 620 L20 438 L21 348 Z " />
<glyph glyph-name="lslash" unicode="&#x142;" horiz-adv-x="493" d="M21 353 L162 496 L162 248 C162 46 242 -26 376 -26 L401 -26 L401 15 C351 19 312 73 312 181 L312 648 L458 796 L458 881 L312 733 L312 1338 L55 1338 L55 1303 L80 1303 C152 1303 162 1283 162 1218 L162 581 L20 438 L21 353 Z " />
<glyph glyph-name="Nacute" unicode="&#x143;" horiz-adv-x="1328" d="M1050 311 L409 1338 L96 1338 L96 1293 C190 1293 230 1280 230 1206 L230 131 C230 53 186 45 81 45 L81 0 L435 0 L435 45 C330 45 284 53 284 131 L284 1198 L1047 -18 L1104 -18 L1104 1207 C1104 1285 1147 1293 1252 1293 L1252 1338 L899 1338 L899 1293 C1004 1293 1050 1285 1050 1207 L1050 311 Z M629 1426 L878 1596 L878 1771 L531 1426 L629 1426 Z " />
<glyph glyph-name="nacute" unicode="&#x144;" horiz-adv-x="1052" d="M75 848 L75 813 L100 813 C155 813 181 785 181 728 L181 120 C181 63 158 35 100 35 L75 35 L75 0 L437 0 L437 35 L412 35 C349 35 331 47 331 120 L331 483 C331 679 451 818 561 818 C653 818 708 760 708 622 L708 120 C708 55 701 35 630 35 L602 35 L602 0 L967 0 L967 35 L942 35 C879 35 863 47 863 120 L863 621 C863 798 753 883 608 883 C478 883 381 807 331 690 L331 848 L75 848 Z M453 1026 L702 1196 L702 1371 L355 1026 L453 1026 Z " />
<glyph glyph-name="Ncommaaccent" unicode="&#x145;" horiz-adv-x="1328" d="M1050 311 L409 1338 L96 1338 L96 1293 C190 1293 230 1280 230 1206 L230 131 C230 53 186 45 81 45 L81 0 L435 0 L435 45 C330 45 284 53 284 131 L284 1198 L1047 -18 L1104 -18 L1104 1207 C1104 1285 1147 1293 1252 1293 L1252 1338 L899 1338 L899 1293 C1004 1293 1050 1285 1050 1207 L1050 311 Z M749 -234 C749 -225 748 -217 746 -208 C729 -251 696 -269 665 -269 C613 -269 576 -221 576 -177 C576 -121 627 -82 675 -82 C756 -82 797 -155 797 -225 C797 -346 705 -440 604 -487 L581 -448 C665 -405 749 -328 749 -234 L749 -234 Z " />
<glyph glyph-name="ncommaaccent" unicode="&#x146;" horiz-adv-x="1052" d="M75 848 L75 813 L100 813 C155 813 181 785 181 728 L181 120 C181 63 158 35 100 35 L75 35 L75 0 L437 0 L437 35 L412 35 C349 35 331 47 331 120 L331 483 C331 679 451 818 561 818 C653 818 708 760 708 622 L708 120 C708 55 701 35 630 35 L602 35 L602 0 L967 0 L967 35 L942 35 C879 35 863 47 863 120 L863 621 C863 798 753 883 608 883 C478 883 381 807 331 690 L331 848 L75 848 Z M586 -234 C586 -328 502 -405 418 -448 L441 -487 C542 -440 634 -346 634 -225 C634 -155 593 -82 512 -82 C464 -82 413 -121 413 -177 C413 -221 450 -269 502 -269 C533 -269 566 -251 583 -208 C585 -217 586 -225 586 -234 L586 -234 Z " />
<glyph glyph-name="Ncaron" unicode="&#x147;" horiz-adv-x="1328" d="M1050 311 L409 1338 L96 1338 L96 1293 C190 1293 230 1280 230 1206 L230 131 C230 53 186 45 81 45 L81 0 L435 0 L435 45 C330 45 284 53 284 131 L284 1198 L1047 -18 L1104 -18 L1104 1207 C1104 1285 1147 1293 1252 1293 L1252 1338 L899 1338 L899 1293 C1004 1293 1050 1285 1050 1207 L1050 311 Z M380 1717 L628 1426 L705 1426 L954 1717 L856 1717 L667 1547 L478 1717 L380 1717 Z " />
<glyph glyph-name="ncaron" unicode="&#x148;" horiz-adv-x="1052" d="M75 848 L75 813 L100 813 C155 813 181 785 181 728 L181 120 C181 63 158 35 100 35 L75 35 L75 0 L437 0 L437 35 L412 35 C349 35 331 47 331 120 L331 483 C331 679 451 818 561 818 C653 818 708 760 708 622 L708 120 C708 55 701 35 630 35 L602 35 L602 0 L967 0 L967 35 L942 35 C879 35 863 47 863 120 L863 621 C863 798 753 883 608 883 C478 883 381 807 331 690 L331 848 L75 848 Z M234 1317 L482 1026 L559 1026 L808 1317 L710 1317 L521 1147 L332 1317 L234 1317 Z " />
<glyph glyph-name="Omacron" unicode="&#x14c;" horiz-adv-x="1244" d="M1154 669 C1154 1119 954 1363 622 1363 C290 1363 90 1119 90 669 C90 219 290 -25 622 -25 C954 -25 1154 219 1154 669 L1154 669 Z M968 669 C968 205 862 35 622 35 C382 35 276 205 276 669 C276 1133 382 1304 622 1304 C862 1304 968 1133 968 669 L968 669 Z M373 1581 L852 1581 L874 1688 L395 1688 L373 1581 Z " />
<glyph glyph-name="omacron" unicode="&#x14d;" horiz-adv-x="906" d="M816 424 C816 728 659 883 443 883 C227 883 70 728 70 424 C70 120 227 -35 443 -35 C659 -35 816 120 816 424 L816 424 Z M244 536 C244 722 307 842 443 842 C579 842 642 722 642 536 L642 312 C642 126 579 6 443 6 C307 6 244 126 244 312 L244 536 Z M220 1146 L659 1146 L677 1243 L238 1243 L220 1146 Z " />
<glyph glyph-name="Obreve" unicode="&#x14e;" horiz-adv-x="1244" d="M1154 669 C1154 1119 954 1363 622 1363 C290 1363 90 1119 90 669 C90 219 290 -25 622 -25 C954 -25 1154 219 1154 669 L1154 669 Z M968 669 C968 205 862 35 622 35 C382 35 276 205 276 669 C276 1133 382 1304 622 1304 C862 1304 968 1133 968 669 L968 669 Z M843 1703 C843 1703 775 1547 623 1547 C471 1547 407 1703 407 1703 L345 1676 C360 1600 435 1446 623 1446 C810 1446 885 1600 900 1676 L843 1703 Z " />
<glyph glyph-name="obreve" unicode="&#x14f;" horiz-adv-x="906" d="M816 424 C816 728 659 883 443 883 C227 883 70 728 70 424 C70 120 227 -35 443 -35 C659 -35 816 120 816 424 L816 424 Z M244 536 C244 722 307 842 443 842 C579 842 642 722 642 536 L642 312 C642 126 579 6 443 6 C307 6 244 126 244 312 L244 536 Z M663 1303 C663 1303 595 1147 443 1147 C291 1147 227 1303 227 1303 L165 1276 C180 1200 255 1046 443 1046 C630 1046 705 1200 720 1276 L663 1303 Z " />
<glyph glyph-name="Ohungarumlaut" unicode="&#x150;" horiz-adv-x="1244" d="M1154 669 C1154 1119 954 1363 622 1363 C290 1363 90 1119 90 669 C90 219 290 -25 622 -25 C954 -25 1154 219 1154 669 L1154 669 Z M968 669 C968 205 862 35 622 35 C382 35 276 205 276 669 C276 1133 382 1304 622 1304 C862 1304 968 1133 968 669 L968 669 Z M551 1426 L800 1596 L800 1771 L453 1426 L551 1426 Z M838 1426 L1087 1596 L1087 1771 L740 1426 L838 1426 Z " />
<glyph glyph-name="ohungarumlaut" unicode="&#x151;" horiz-adv-x="906" d="M816 424 C816 728 659 883 443 883 C227 883 70 728 70 424 C70 120 227 -35 443 -35 C659 -35 816 120 816 424 L816 424 Z M244 536 C244 722 307 842 443 842 C579 842 642 722 642 536 L642 312 C642 126 579 6 443 6 C307 6 244 126 244 312 L244 536 Z M328 1026 L577 1196 L577 1371 L230 1026 L328 1026 Z M615 1026 L864 1196 L864 1371 L517 1026 L615 1026 Z " />
<glyph glyph-name="OE" unicode="&#x152;" horiz-adv-x="1770" d="M900 1338 C820 1355 719 1363 659 1363 C275 1363 90 1119 90 669 C90 219 275 -25 659 -25 C719 -25 820 -17 900 0 L1636 0 L1675 332 L1618 332 C1590 128 1553 55 1444 55 L1067 55 L1067 682 L1220 682 C1325 682 1341 646 1341 496 L1396 496 L1396 918 L1341 918 C1341 769 1325 732 1220 732 L1067 732 L1067 1285 L1444 1285 C1536 1285 1571 1239 1589 1099 L1642 1099 L1613 1338 L900 1338 Z M276 669 C276 1064 335 1304 639 1304 C741 1304 843 1267 899 1168 L899 170 C843 71 741 34 639 34 C335 34 276 274 276 669 L276 669 Z " />
<glyph glyph-name="oe" unicode="&#x153;" horiz-adv-x="1416" d="M244 536 C244 722 307 842 443 842 C579 842 642 722 642 536 L642 312 C642 126 579 6 443 6 C307 6 244 126 244 312 L244 536 Z M982 837 C1102 837 1146 686 1146 504 L1146 483 L812 483 L812 524 C812 721 870 837 982 837 L982 837 Z M443 883 C227 883 70 728 70 424 C70 120 227 -35 443 -35 C558 -35 655 9 722 95 C790 6 888 -35 985 -35 C1129 -35 1270 57 1310 223 L1260 223 C1209 73 1104 21 1012 21 C906 21 812 105 812 250 L812 443 L1326 443 C1326 640 1231 883 982 883 C878 883 790 830 728 745 C662 837 561 883 443 883 L443 883 Z " />
<glyph glyph-name="Racute" unicode="&#x154;" horiz-adv-x="1199" d="M366 1283 L497 1283 C700 1283 789 1218 789 1001 C789 786 673 711 504 711 L366 711 L366 1283 Z M61 1338 L61 1293 C157 1293 199 1281 199 1207 L199 131 C199 57 157 45 61 45 L61 0 L531 0 L531 45 L504 45 C408 45 366 57 366 131 L366 652 L491 652 L898 0 L1179 0 L1179 45 L1078 45 L679 670 C856 716 974 808 974 999 C974 1280 729 1338 504 1338 L61 1338 Z M499 1426 L748 1596 L748 1771 L401 1426 L499 1426 Z " />
<glyph glyph-name="racute" unicode="&#x155;" horiz-adv-x="718" d="M412 35 C357 35 331 63 331 120 L331 497 C331 695 416 791 528 791 C594 791 643 750 643 657 L683 657 L683 866 C648 875 611 882 570 882 C459 882 354 811 331 693 L331 848 L75 848 L75 813 L100 813 C155 813 181 785 181 728 L181 120 C181 63 155 35 100 35 L75 35 L75 0 L460 0 L460 35 L412 35 Z M335 1026 L584 1196 L584 1371 L237 1026 L335 1026 Z " />
<glyph glyph-name="Rcommaaccent" unicode="&#x156;" horiz-adv-x="1199" d="M366 1283 L497 1283 C700 1283 789 1218 789 1001 C789 786 673 711 504 711 L366 711 L366 1283 Z M61 1338 L61 1293 C157 1293 199 1281 199 1207 L199 131 C199 57 157 45 61 45 L61 0 L531 0 L531 45 L504 45 C408 45 366 57 366 131 L366 652 L491 652 L898 0 L1179 0 L1179 45 L1078 45 L679 670 C856 716 974 808 974 999 C974 1280 729 1338 504 1338 L61 1338 Z M791 -234 C791 -225 790 -217 788 -208 C771 -251 738 -269 707 -269 C655 -269 618 -221 618 -177 C618 -121 669 -82 717 -82 C798 -82 839 -155 839 -225 C839 -346 747 -440 646 -487 L623 -448 C707 -405 791 -328 791 -234 L791 -234 Z " />
<glyph glyph-name="rcommaaccent" unicode="&#x157;" horiz-adv-x="718" d="M412 35 C357 35 331 63 331 120 L331 497 C331 695 416 791 528 791 C594 791 643 750 643 657 L683 657 L683 866 C648 875 611 882 570 882 C459 882 354 811 331 693 L331 848 L75 848 L75 813 L100 813 C155 813 181 785 181 728 L181 120 C181 63 155 35 100 35 L75 35 L75 0 L460 0 L460 35 L412 35 Z M323 -234 C323 -328 239 -405 155 -448 L178 -487 C279 -440 371 -346 371 -225 C371 -155 330 -82 249 -82 C201 -82 150 -121 150 -177 C150 -221 187 -269 239 -269 C270 -269 303 -251 320 -208 C322 -217 323 -225 323 -234 L323 -234 Z " />
<glyph glyph-name="Rcaron" unicode="&#x158;" horiz-adv-x="1199" d="M366 1283 L497 1283 C700 1283 789 1218 789 1001 C789 786 673 711 504 711 L366 711 L366 1283 Z M61 1338 L61 1293 C157 1293 199 1281 199 1207 L199 131 C199 57 157 45 61 45 L61 0 L531 0 L531 45 L504 45 C408 45 366 57 366 131 L366 652 L491 652 L898 0 L1179 0 L1179 45 L1078 45 L679 670 C856 716 974 808 974 999 C974 1280 729 1338 504 1338 L61 1338 Z M266 1717 L514 1426 L591 1426 L840 1717 L742 1717 L553 1547 L364 1717 L266 1717 Z " />
<glyph glyph-name="rcaron" unicode="&#x159;" horiz-adv-x="718" d="M412 35 C357 35 331 63 331 120 L331 497 C331 695 416 791 528 791 C594 791 643 750 643 657 L683 657 L683 866 C648 875 611 882 570 882 C459 882 354 811 331 693 L331 848 L75 848 L75 813 L100 813 C155 813 181 785 181 728 L181 120 C181 63 155 35 100 35 L75 35 L75 0 L460 0 L460 35 L412 35 Z M95 1317 L343 1026 L420 1026 L669 1317 L571 1317 L382 1147 L193 1317 L95 1317 Z " />
<glyph glyph-name="Sacute" unicode="&#x15a;" horiz-adv-x="1069" d="M864 1259 C752 1330 630 1363 519 1363 C304 1363 115 1218 115 982 C115 827 215 712 367 653 L575 572 C724 514 787 437 787 308 C787 151 684 41 529 41 C300 41 176 173 176 468 L123 468 L123 96 C239 23 358 -25 517 -25 C763 -25 954 107 954 371 C954 576 809 673 618 748 L424 824 C322 864 264 943 264 1045 C264 1189 373 1304 514 1304 C691 1304 807 1194 807 952 L864 952 L864 1259 Z M481 1426 L730 1596 L730 1771 L383 1426 L481 1426 Z " />
<glyph glyph-name="sacute" unicode="&#x15b;" horiz-adv-x="770" d="M627 813 C557 855 472 883 385 883 C243 883 105 790 105 633 C105 508 181 418 297 375 L425 327 C497 300 574 249 574 161 C574 58 488 15 393 15 C233 15 150 105 150 298 L110 298 L110 54 C191 7 274 -35 385 -35 C547 -35 690 62 690 241 C690 368 606 428 487 476 L342 535 C276 562 208 601 208 685 C208 778 292 840 383 840 C506 840 587 773 587 614 L627 614 L627 813 Z M309 1026 L558 1196 L558 1371 L211 1026 L309 1026 Z " />
<glyph glyph-name="Scedilla" unicode="&#x15e;" horiz-adv-x="1069" d="M864 1259 C752 1330 630 1363 519 1363 C304 1363 115 1218 115 982 C115 827 215 712 367 653 L575 572 C724 514 787 437 787 308 C787 151 684 41 529 41 C300 41 176 173 176 468 L123 468 L123 96 C239 23 358 -25 517 -25 L523 -25 L421 -133 L454 -168 C474 -158 492 -150 513 -150 C571 -150 594 -206 594 -254 C594 -309 564 -363 506 -363 C467 -363 434 -344 406 -324 L380 -361 C422 -393 466 -412 514 -412 C609 -412 690 -344 690 -250 C690 -126 586 -102 550 -102 C533 -102 519 -104 506 -107 L589 -21 C799 3 954 133 954 371 C954 576 809 673 618 748 L424 824 C322 864 264 943 264 1045 C264 1189 373 1304 514 1304 C691 1304 807 1194 807 952 L864 952 L864 1259 Z " />
<glyph glyph-name="scedilla" unicode="&#x15f;" horiz-adv-x="770" d="M627 813 C557 855 472 883 385 883 C243 883 105 790 105 633 C105 508 181 418 297 375 L425 327 C497 300 574 249 574 161 C574 58 488 15 393 15 C233 15 150 105 150 298 L110 298 L110 54 C186 10 263 -29 364 -34 L271 -133 L304 -168 C324 -158 342 -150 363 -150 C421 -150 444 -206 444 -254 C444 -309 414 -363 356 -363 C317 -363 284 -344 256 -324 L230 -361 C272 -393 316 -412 364 -412 C459 -412 540 -344 540 -250 C540 -126 436 -102 400 -102 C383 -102 369 -104 356 -107 L428 -32 C572 -16 690 78 690 241 C690 368 606 428 487 476 L342 535 C276 562 208 601 208 685 C208 778 292 840 383 840 C506 840 587 773 587 614 L627 614 L627 813 Z " />
<glyph glyph-name="Scaron" unicode="&#x160;" horiz-adv-x="1069" d="M864 1259 C752 1330 630 1363 519 1363 C304 1363 115 1218 115 982 C115 827 215 712 367 653 L575 572 C724 514 787 437 787 308 C787 151 684 41 529 41 C300 41 176 173 176 468 L123 468 L123 96 C239 23 358 -25 517 -25 C763 -25 954 107 954 371 C954 576 809 673 618 748 L424 824 C322 864 264 943 264 1045 C264 1189 373 1304 514 1304 C691 1304 807 1194 807 952 L864 952 L864 1259 Z M255 1717 L503 1426 L580 1426 L829 1717 L731 1717 L542 1547 L353 1717 L255 1717 Z " />
<glyph glyph-name="scaron" unicode="&#x161;" horiz-adv-x="770" d="M627 813 C557 855 472 883 385 883 C243 883 105 790 105 633 C105 508 181 418 297 375 L425 327 C497 300 574 249 574 161 C574 58 488 15 393 15 C233 15 150 105 150 298 L110 298 L110 54 C191 7 274 -35 385 -35 C547 -35 690 62 690 241 C690 368 606 428 487 476 L342 535 C276 562 208 601 208 685 C208 778 292 840 383 840 C506 840 587 773 587 614 L627 614 L627 813 Z M115 1317 L363 1026 L440 1026 L689 1317 L591 1317 L402 1147 L213 1317 L115 1317 Z " />
<glyph glyph-name="Tcedilla" unicode="&#x162;" horiz-adv-x="1022" d="M525 0 L399 -133 L432 -168 C452 -158 470 -150 491 -150 C549 -150 572 -206 572 -254 C572 -309 542 -363 484 -363 C445 -363 412 -344 384 -324 L358 -361 C400 -393 444 -412 492 -412 C587 -412 668 -344 668 -250 C668 -126 564 -102 528 -102 C511 -102 497 -104 484 -107 L588 0 L775 0 L775 45 L733 45 C637 45 595 57 595 131 L595 1285 L774 1285 C883 1285 932 1225 960 1021 L1017 1021 L978 1338 L44 1338 L5 1021 L62 1021 C90 1225 139 1285 248 1285 L428 1285 L428 131 C428 57 386 45 290 45 L248 45 L248 0 L525 0 Z " />
<glyph glyph-name="tcedilla" unicode="&#x163;" horiz-adv-x="578" d="M558 104 L507 104 C492 63 458 26 409 26 C351 26 329 85 329 139 L329 813 L542 813 L542 848 L329 848 L329 1141 L179 1141 L179 848 L20 848 L20 813 L179 813 L179 165 C179 66 232 -10 324 -30 L227 -133 L260 -168 C280 -158 298 -150 319 -150 C377 -150 400 -206 400 -254 C400 -309 370 -363 312 -363 C273 -363 240 -344 212 -324 L186 -361 C228 -393 272 -412 320 -412 C415 -412 496 -344 496 -250 C496 -126 392 -102 356 -102 C339 -102 325 -104 312 -107 L382 -35 C466 -32 533 17 558 104 L558 104 Z " />
<glyph glyph-name="Tcaron" unicode="&#x164;" horiz-adv-x="1022" d="M44 1338 L5 1021 L62 1021 C90 1225 139 1285 248 1285 L428 1285 L428 131 C428 57 386 45 290 45 L248 45 L248 0 L775 0 L775 45 L733 45 C637 45 595 57 595 131 L595 1285 L774 1285 C883 1285 932 1225 960 1021 L1017 1021 L978 1338 L44 1338 Z M226 1717 L474 1426 L551 1426 L800 1717 L702 1717 L513 1547 L324 1717 L226 1717 Z " />
<glyph glyph-name="tcaron" unicode="&#x165;" horiz-adv-x="578" d="M506 900 C546 1097 607 1230 607 1288 C607 1324 583 1358 533 1358 C470 1358 440 1305 440 1253 C440 1202 449 1109 449 984 C449 957 449 929 448 900 L506 900 Z M558 104 L507 104 C492 63 458 26 409 26 C351 26 329 85 329 139 L329 813 L542 813 L542 848 L329 848 L329 1141 L179 1141 L179 848 L20 848 L20 813 L179 813 L179 165 C179 50 251 -35 374 -35 C462 -35 532 15 558 104 L558 104 Z " />
<glyph glyph-name="Utilde" unicode="&#x168;" horiz-adv-x="1287" d="M524 1338 L81 1338 L81 1293 C177 1293 219 1281 219 1207 L219 461 C219 187 337 -25 655 -25 C918 -25 1066 164 1066 425 L1066 1207 C1066 1281 1110 1293 1206 1293 L1206 1338 L852 1338 L852 1293 C948 1293 1005 1281 1005 1207 L1005 421 C1005 222 899 43 685 43 C452 43 386 254 386 440 L386 1207 C386 1281 428 1293 524 1293 L524 1338 Z M968 1678 C951 1630 914 1590 862 1590 C778 1590 701 1685 591 1685 C493 1685 432 1618 398 1538 L429 1483 C444 1535 482 1578 537 1578 C620 1578 697 1483 808 1483 C900 1483 960 1542 996 1616 L968 1678 Z " />
<glyph glyph-name="utilde" unicode="&#x169;" horiz-adv-x="1021" d="M70 848 L70 813 L95 813 C150 813 176 785 176 728 L176 221 C176 47 272 -25 418 -25 C527 -25 646 54 680 159 L680 0 L936 0 L936 35 L911 35 C856 35 830 63 830 120 L830 848 L574 848 L574 813 L599 813 C654 813 680 785 680 728 L680 364 C680 162 555 39 453 39 C362 39 326 93 326 230 L326 848 L70 848 Z M755 1278 C738 1230 701 1190 649 1190 C565 1190 488 1285 378 1285 C280 1285 219 1218 185 1138 L216 1083 C231 1135 269 1178 324 1178 C407 1178 484 1083 595 1083 C687 1083 747 1142 783 1216 L755 1278 Z " />
<glyph glyph-name="Umacron" unicode="&#x16a;" horiz-adv-x="1287" d="M524 1338 L81 1338 L81 1293 C177 1293 219 1281 219 1207 L219 461 C219 187 337 -25 655 -25 C918 -25 1066 164 1066 425 L1066 1207 C1066 1281 1110 1293 1206 1293 L1206 1338 L852 1338 L852 1293 C948 1293 1005 1281 1005 1207 L1005 421 C1005 222 899 43 685 43 C452 43 386 254 386 440 L386 1207 C386 1281 428 1293 524 1293 L524 1338 Z M434 1581 L913 1581 L935 1688 L456 1688 L434 1581 Z " />
<glyph glyph-name="umacron" unicode="&#x16b;" horiz-adv-x="1021" d="M70 848 L70 813 L95 813 C150 813 176 785 176 728 L176 221 C176 47 272 -25 418 -25 C527 -25 646 54 680 159 L680 0 L936 0 L936 35 L911 35 C856 35 830 63 830 120 L830 848 L574 848 L574 813 L599 813 C654 813 680 785 680 728 L680 364 C680 162 555 39 453 39 C362 39 326 93 326 230 L326 848 L70 848 Z M250 1146 L689 1146 L707 1243 L268 1243 L250 1146 Z " />
<glyph glyph-name="Ubreve" unicode="&#x16c;" horiz-adv-x="1287" d="M524 1338 L81 1338 L81 1293 C177 1293 219 1281 219 1207 L219 461 C219 187 337 -25 655 -25 C918 -25 1066 164 1066 425 L1066 1207 C1066 1281 1110 1293 1206 1293 L1206 1338 L852 1338 L852 1293 C948 1293 1005 1281 1005 1207 L1005 421 C1005 222 899 43 685 43 C452 43 386 254 386 440 L386 1207 C386 1281 428 1293 524 1293 L524 1338 Z M909 1703 C909 1703 841 1547 689 1547 C537 1547 473 1703 473 1703 L411 1676 C426 1600 501 1446 689 1446 C876 1446 951 1600 966 1676 L909 1703 Z " />
<glyph glyph-name="ubreve" unicode="&#x16d;" horiz-adv-x="1021" d="M70 848 L70 813 L95 813 C150 813 176 785 176 728 L176 221 C176 47 272 -25 418 -25 C527 -25 646 54 680 159 L680 0 L936 0 L936 35 L911 35 C856 35 830 63 830 120 L830 848 L574 848 L574 813 L599 813 C654 813 680 785 680 728 L680 364 C680 162 555 39 453 39 C362 39 326 93 326 230 L326 848 L70 848 Z M693 1303 C693 1303 625 1147 473 1147 C321 1147 257 1303 257 1303 L195 1276 C210 1200 285 1046 473 1046 C660 1046 735 1200 750 1276 L693 1303 Z " />
<glyph glyph-name="Uring" unicode="&#x16e;" horiz-adv-x="1287" d="M524 1338 L81 1338 L81 1293 C177 1293 219 1281 219 1207 L219 461 C219 187 337 -25 655 -25 C918 -25 1066 164 1066 425 L1066 1207 C1066 1281 1110 1293 1206 1293 L1206 1338 L852 1338 L852 1293 C948 1293 1005 1281 1005 1207 L1005 421 C1005 222 899 43 685 43 C452 43 386 254 386 440 L386 1207 C386 1281 428 1293 524 1293 L524 1338 Z M694 1751 C773 1751 782 1682 782 1611 C782 1507 753 1472 694 1472 C635 1472 606 1507 606 1611 C606 1682 615 1751 694 1751 L694 1751 Z M510 1611 C510 1514 592 1436 694 1436 C796 1436 879 1514 879 1611 C879 1708 796 1787 694 1787 C592 1787 510 1708 510 1611 L510 1611 Z " />
<glyph glyph-name="uring" unicode="&#x16f;" horiz-adv-x="1021" d="M70 848 L70 813 L95 813 C150 813 176 785 176 728 L176 221 C176 47 272 -25 418 -25 C527 -25 646 54 680 159 L680 0 L936 0 L936 35 L911 35 C856 35 830 63 830 120 L830 848 L574 848 L574 813 L599 813 C654 813 680 785 680 728 L680 364 C680 162 555 39 453 39 C362 39 326 93 326 230 L326 848 L70 848 Z M505 1351 C584 1351 593 1282 593 1211 C593 1107 564 1072 505 1072 C446 1072 417 1107 417 1211 C417 1282 426 1351 505 1351 L505 1351 Z M321 1211 C321 1114 403 1036 505 1036 C607 1036 690 1114 690 1211 C690 1308 607 1387 505 1387 C403 1387 321 1308 321 1211 L321 1211 Z " />
<glyph glyph-name="Uhungarumlaut" unicode="&#x170;" horiz-adv-x="1287" d="M524 1338 L81 1338 L81 1293 C177 1293 219 1281 219 1207 L219 461 C219 187 337 -25 655 -25 C918 -25 1066 164 1066 425 L1066 1207 C1066 1281 1110 1293 1206 1293 L1206 1338 L852 1338 L852 1293 C948 1293 1005 1281 1005 1207 L1005 421 C1005 222 899 43 685 43 C452 43 386 254 386 440 L386 1207 C386 1281 428 1293 524 1293 L524 1338 Z M469 1426 L718 1596 L718 1771 L371 1426 L469 1426 Z M756 1426 L1005 1596 L1005 1771 L658 1426 L756 1426 Z " />
<glyph glyph-name="uhungarumlaut" unicode="&#x171;" horiz-adv-x="1021" d="M70 848 L70 813 L95 813 C150 813 176 785 176 728 L176 221 C176 47 272 -25 418 -25 C527 -25 646 54 680 159 L680 0 L936 0 L936 35 L911 35 C856 35 830 63 830 120 L830 848 L574 848 L574 813 L599 813 C654 813 680 785 680 728 L680 364 C680 162 555 39 453 39 C362 39 326 93 326 230 L326 848 L70 848 Z M357 1026 L606 1196 L606 1371 L259 1026 L357 1026 Z M644 1026 L893 1196 L893 1371 L546 1026 L644 1026 Z " />
<glyph glyph-name="Uogonek" unicode="&#x172;" horiz-adv-x="1287" d="M524 1338 L81 1338 L81 1293 C177 1293 219 1281 219 1207 L219 461 C219 187 337 -25 655 -25 C664 -25 673 -24 681 -24 C616 -60 569 -120 569 -197 C569 -277 625 -343 699 -359 L746 -255 C689 -246 657 -195 657 -143 C657 -77 695 -38 767 -12 C959 34 1066 203 1066 425 L1066 1207 C1066 1281 1110 1293 1206 1293 L1206 1338 L852 1338 L852 1293 C948 1293 1005 1281 1005 1207 L1005 421 C1005 222 899 43 685 43 C452 43 386 254 386 440 L386 1207 C386 1281 428 1293 524 1293 L524 1338 Z " />
<glyph glyph-name="uogonek" unicode="&#x173;" horiz-adv-x="1021" d="M866 0 C775 -29 698 -100 698 -197 C698 -277 754 -343 828 -359 L875 -255 C818 -246 786 -195 786 -143 C786 -66 838 -26 936 0 L936 35 L911 35 C856 35 830 63 830 120 L830 848 L574 848 L574 813 L599 813 C654 813 680 785 680 728 L680 364 C680 162 555 39 453 39 C362 39 326 93 326 230 L326 848 L70 848 L70 813 L95 813 C150 813 176 785 176 728 L176 221 C176 47 272 -25 418 -25 C527 -25 646 54 680 159 L680 0 L866 0 Z " />
<glyph glyph-name="Wcircumflex" unicode="&#x174;" horiz-adv-x="1916" d="M1359 173 L1044 1173 C1040 1184 1033 1213 1033 1223 C1033 1262 1058 1293 1107 1293 L1189 1293 L1189 1338 L680 1338 L680 1293 L708 1293 C771 1293 833 1272 868 1162 L947 913 L704 173 L389 1174 C386 1185 379 1213 379 1223 C379 1261 403 1293 453 1293 L510 1293 L510 1338 L25 1338 L25 1293 L53 1293 C116 1293 179 1270 214 1160 L584 0 L709 0 L977 820 L1238 0 L1364 0 L1757 1293 L1891 1293 L1891 1338 L1523 1338 L1523 1293 L1697 1293 L1359 173 Z M737 1426 L926 1596 L1115 1426 L1213 1426 L964 1717 L887 1717 L639 1426 L737 1426 Z " />
<glyph glyph-name="wcircumflex" unicode="&#x175;" horiz-adv-x="1398" d="M883 813 L883 848 L510 848 L510 813 L534 813 C580 813 611 794 627 744 L675 589 L514 100 L311 712 C305 730 300 751 300 760 C300 788 315 813 355 813 L398 813 L398 848 L15 848 L15 813 L49 813 C95 813 125 794 142 744 L391 0 L535 0 L703 499 L859 0 L1003 0 L1266 813 L1383 813 L1383 848 L1069 848 L1069 813 L1207 813 L982 100 L796 712 C790 730 785 751 785 760 C785 788 800 813 840 813 L883 813 Z M510 1026 L699 1196 L888 1026 L986 1026 L737 1317 L660 1317 L412 1026 L510 1026 Z " />
<glyph glyph-name="Ycircumflex" unicode="&#x176;" horiz-adv-x="1188" d="M646 570 L394 1178 C381 1210 374 1235 374 1255 C374 1278 392 1293 432 1293 L506 1293 L506 1338 L25 1338 L25 1293 L54 1293 C135 1293 179 1264 223 1159 L515 468 L515 131 C515 57 473 45 377 45 L377 0 L820 0 L820 45 C724 45 682 57 682 131 L682 519 L1029 1293 L1163 1293 L1163 1338 L795 1338 L795 1293 L969 1293 L646 570 Z M457 1426 L646 1596 L835 1426 L933 1426 L684 1717 L607 1717 L359 1426 L457 1426 Z " />
<glyph glyph-name="ycircumflex" unicode="&#x177;" horiz-adv-x="920" d="M470 0 L399 -201 C364 -302 300 -359 241 -359 C192 -359 145 -313 143 -216 L83 -216 L83 -415 C124 -439 183 -450 218 -450 C336 -450 411 -349 452 -221 L784 813 L905 813 L905 847 L590 847 L590 813 L729 813 L505 114 L311 712 C305 730 300 751 300 760 C300 788 315 813 355 813 L398 813 L398 848 L15 848 L15 813 L49 813 C95 813 125 794 142 744 L391 0 L470 0 Z M271 1026 L460 1196 L649 1026 L747 1026 L498 1317 L421 1317 L173 1026 L271 1026 Z " />
<glyph glyph-name="Ydieresis" unicode="&#x178;" horiz-adv-x="1188" d="M646 570 L394 1178 C381 1210 374 1235 374 1255 C374 1278 392 1293 432 1293 L506 1293 L506 1338 L25 1338 L25 1293 L54 1293 C135 1293 179 1264 223 1159 L515 468 L515 131 C515 57 473 45 377 45 L377 0 L820 0 L820 45 C724 45 682 57 682 131 L682 519 L1029 1293 L1163 1293 L1163 1338 L795 1338 L795 1293 L969 1293 L646 570 Z M901 1617 C901 1672 857 1715 807 1715 C755 1715 712 1672 712 1617 C712 1563 755 1519 807 1519 C857 1519 901 1563 901 1617 L901 1617 Z M583 1617 C583 1672 539 1715 489 1715 C437 1715 394 1672 394 1617 C394 1563 437 1519 489 1519 C539 1519 583 1563 583 1617 L583 1617 Z " />
<glyph glyph-name="Zacute" unicode="&#x179;" horiz-adv-x="1137" d="M1023 0 L1062 356 L1005 356 C977 152 904 54 795 54 L282 54 L1042 1293 L1042 1338 L144 1338 L105 982 L162 982 C190 1187 263 1285 372 1285 L837 1285 L70 45 L70 0 L1023 0 Z M563 1426 L812 1596 L812 1771 L465 1426 L563 1426 Z " />
<glyph glyph-name="zacute" unicode="&#x17a;" horiz-adv-x="857" d="M752 271 L719 271 C698 107 600 52 444 52 L262 52 L737 813 L737 848 L122 848 L110 571 L147 571 C180 733 257 804 431 804 L561 804 L80 35 L80 0 L742 0 L752 271 Z M373 1026 L622 1196 L622 1371 L275 1026 L373 1026 Z " />
<glyph glyph-name="Zdotaccent" unicode="&#x17b;" horiz-adv-x="1137" d="M1023 0 L1062 356 L1005 356 C977 152 904 54 795 54 L282 54 L1042 1293 L1042 1338 L144 1338 L105 982 L162 982 C190 1187 263 1285 372 1285 L837 1285 L70 45 L70 0 L1023 0 Z M699 1597 C699 1655 653 1700 600 1700 C545 1700 500 1655 500 1597 C500 1540 545 1494 600 1494 C653 1494 699 1540 699 1597 L699 1597 Z " />
<glyph glyph-name="zdotaccent" unicode="&#x17c;" horiz-adv-x="857" d="M742 0 L80 0 L80 35 L561 804 L431 804 C257 804 180 733 147 571 L110 571 L122 848 L737 848 L737 813 L262 52 L444 52 C600 52 698 107 719 271 L752 271 L742 0 Z M534 1197 C534 1252 490 1295 440 1295 C388 1295 345 1252 345 1197 C345 1143 388 1099 440 1099 C490 1099 534 1143 534 1197 L534 1197 Z " />
<glyph glyph-name="Zcaron" unicode="&#x17d;" horiz-adv-x="1137" d="M1023 0 L1062 356 L1005 356 C977 152 904 54 795 54 L282 54 L1042 1293 L1042 1338 L144 1338 L105 982 L162 982 C190 1187 263 1285 372 1285 L837 1285 L70 45 L70 0 L1023 0 Z M312 1717 L560 1426 L637 1426 L886 1717 L788 1717 L599 1547 L410 1717 L312 1717 Z " />
<glyph glyph-name="zcaron" unicode="&#x17e;" horiz-adv-x="857" d="M752 271 L719 271 C698 107 600 52 444 52 L262 52 L737 813 L737 848 L122 848 L110 571 L147 571 C180 733 257 804 431 804 L561 804 L80 35 L80 0 L742 0 L752 271 Z M141 1317 L389 1026 L466 1026 L715 1317 L617 1317 L428 1147 L239 1317 L141 1317 Z " />
<glyph glyph-name="florin" unicode="&#x192;" horiz-adv-x="1294" d="M984 102 L309 102 L647 598 L984 102 Z M309 1236 L985 1236 L647 740 L309 1236 Z M696 669 L1043 1179 L1043 158 L696 669 Z M251 1181 L598 669 L251 159 L251 1181 Z M1053 0 C1104 0 1144 41 1144 91 L1144 1247 C1144 1297 1104 1338 1053 1338 L241 1338 C190 1338 150 1297 150 1247 L150 91 C150 41 190 0 241 0 L1053 0 Z " />
<glyph glyph-name="AEacute" unicode="&#x1fc;" horiz-adv-x="1664" d="M1507 1338 L625 1338 L625 1293 L681 1293 C713 1293 755 1287 755 1249 C755 1239 751 1225 735 1194 L212 174 C172 96 104 45 55 45 L15 45 L15 0 L364 0 L364 45 L321 45 C269 45 248 67 248 99 C248 123 257 142 265 158 L410 438 L814 438 L814 131 C814 57 772 45 676 45 L676 0 L1530 0 L1569 332 L1512 332 C1484 128 1447 55 1338 55 L981 55 L981 682 L1114 682 C1219 682 1235 646 1235 496 L1290 496 L1290 918 L1235 918 C1235 769 1219 732 1114 732 L981 732 L981 1285 L1338 1285 C1430 1285 1465 1239 1483 1099 L1536 1099 L1507 1338 Z M814 1219 L814 488 L436 488 L814 1219 Z M1043 1426 L1292 1596 L1292 1771 L945 1426 L1043 1426 Z " />
<glyph glyph-name="aeacute" unicode="&#x1fd;" horiz-adv-x="1334" d="M900 837 C1020 837 1064 686 1064 504 L1064 494 L730 494 L730 524 C730 721 788 837 900 837 L900 837 Z M575 447 L575 238 C575 142 505 43 399 43 C296 43 250 130 250 223 C250 365 376 447 575 447 L575 447 Z M137 571 L177 571 C177 709 283 818 433 818 C533 818 575 779 575 689 L575 494 C388 492 85 447 85 201 C85 40 226 -30 365 -30 C466 -30 566 1 638 63 C701 -7 806 -35 893 -35 C1056 -35 1191 71 1228 223 L1178 223 C1127 73 1022 21 930 21 C824 21 730 105 730 250 L730 447 L1244 447 C1244 644 1149 883 900 883 C819 883 749 851 693 798 C653 857 577 883 473 883 C349 883 217 829 137 769 L137 571 Z M620 1026 L869 1196 L869 1371 L522 1026 L620 1026 Z " />
<glyph glyph-name="uni0218" unicode="&#x218;" horiz-adv-x="1069" d="M864 1259 C752 1330 630 1363 519 1363 C304 1363 115 1218 115 982 C115 827 215 712 367 653 L575 572 C724 514 787 437 787 308 C787 151 684 41 529 41 C300 41 176 173 176 468 L123 468 L123 96 C239 23 358 -25 517 -25 C763 -25 954 107 954 371 C954 576 809 673 618 748 L424 824 C322 864 264 943 264 1045 C264 1189 373 1304 514 1304 C691 1304 807 1194 807 952 L864 952 L864 1259 Z M614 -234 C614 -225 613 -217 611 -208 C594 -251 561 -269 530 -269 C478 -269 441 -221 441 -177 C441 -121 492 -82 540 -82 C621 -82 662 -155 662 -225 C662 -346 570 -440 469 -487 L446 -448 C530 -405 614 -328 614 -234 L614 -234 Z " />
<glyph glyph-name="scommaaccent" unicode="&#x219;" horiz-adv-x="720" d="M620 813 C550 855 465 883 378 883 C236 883 98 790 98 633 C98 508 174 418 290 375 L418 327 C490 300 567 249 567 161 C567 58 481 15 386 15 C226 15 143 105 143 298 L103 298 L103 54 C184 7 267 -35 378 -35 C540 -35 683 62 683 241 C683 368 599 428 480 476 L335 535 C269 562 201 601 201 685 C201 778 285 840 376 840 C499 840 580 773 580 614 L620 614 L620 813 Z M449 -234 C449 -225 448 -217 446 -208 C429 -251 396 -269 365 -269 C313 -269 276 -221 276 -177 C276 -121 327 -82 375 -82 C456 -82 497 -155 497 -225 C497 -346 405 -440 304 -487 L281 -448 C365 -405 449 -328 449 -234 L449 -234 Z " />
<glyph glyph-name="uni021A" unicode="&#x21a;" horiz-adv-x="1022" d="M44 1338 L5 1021 L62 1021 C90 1225 139 1285 248 1285 L428 1285 L428 131 C428 57 386 45 290 45 L248 45 L248 0 L775 0 L775 45 L733 45 C637 45 595 57 595 131 L595 1285 L774 1285 C883 1285 932 1225 960 1021 L1017 1021 L978 1338 L44 1338 Z M592 -234 C592 -225 591 -217 589 -208 C572 -251 539 -269 508 -269 C456 -269 419 -221 419 -177 C419 -121 470 -82 518 -82 C599 -82 640 -155 640 -225 C640 -346 548 -440 447 -487 L424 -448 C508 -405 592 -328 592 -234 L592 -234 Z " />
<glyph glyph-name="uni021B" unicode="&#x21b;" horiz-adv-x="578" d="M558 104 L507 104 C492 63 458 26 409 26 C351 26 329 85 329 139 L329 813 L542 813 L542 848 L329 848 L329 1141 L179 1141 L179 848 L20 848 L20 813 L179 813 L179 165 C179 50 251 -35 374 -35 C462 -35 532 15 558 104 L558 104 Z M421 -234 C421 -225 420 -217 418 -208 C401 -251 368 -269 337 -269 C285 -269 248 -221 248 -177 C248 -121 299 -82 347 -82 C428 -82 469 -155 469 -225 C469 -346 377 -440 276 -487 L253 -448 C337 -405 421 -328 421 -234 L421 -234 Z " />
<glyph glyph-name="circumflex" unicode="&#x2c6;" horiz-adv-x="804" d="M213 1026 L402 1196 L591 1026 L689 1026 L440 1317 L363 1317 L115 1026 L213 1026 Z " />
<glyph glyph-name="caron" unicode="&#x2c7;" horiz-adv-x="804" d="M115 1317 L363 1026 L440 1026 L689 1317 L591 1317 L402 1147 L213 1317 L115 1317 Z " />
<glyph glyph-name="breve" unicode="&#x2d8;" horiz-adv-x="755" d="M598 1303 C598 1303 530 1147 378 1147 C226 1147 162 1303 162 1303 L100 1276 C115 1200 190 1046 378 1046 C565 1046 640 1200 655 1276 L598 1303 Z " />
<glyph glyph-name="dotaccent" unicode="&#x2d9;" horiz-adv-x="389" d="M289 1197 C289 1252 245 1295 195 1295 C143 1295 100 1252 100 1197 C100 1143 143 1099 195 1099 C245 1099 289 1143 289 1197 L289 1197 Z " />
<glyph glyph-name="ring" unicode="&#x2da;" horiz-adv-x="569" d="M284 1351 C363 1351 372 1282 372 1211 C372 1107 343 1072 284 1072 C225 1072 196 1107 196 1211 C196 1282 205 1351 284 1351 L284 1351 Z M100 1211 C100 1114 182 1036 284 1036 C386 1036 469 1114 469 1211 C469 1308 386 1387 284 1387 C182 1387 100 1308 100 1211 L100 1211 Z " />
<glyph glyph-name="ogonek" unicode="&#x2db;" horiz-adv-x="416" d="M257 0 C166 -29 89 -100 89 -197 C89 -277 145 -343 219 -359 L266 -255 C209 -246 177 -195 177 -143 C177 -66 229 -26 327 0 L257 0 Z " />
<glyph glyph-name="tilde" unicode="&#x2dc;" horiz-adv-x="828" d="M685 1278 C668 1230 631 1190 579 1190 C495 1190 418 1285 308 1285 C210 1285 149 1218 115 1138 L146 1083 C161 1135 199 1178 254 1178 C337 1178 414 1083 525 1083 C617 1083 677 1142 713 1216 L685 1278 Z " />
<glyph glyph-name="hungarumlaut" unicode="&#x2dd;" horiz-adv-x="834" d="M198 1026 L447 1196 L447 1371 L100 1026 L198 1026 Z M485 1026 L734 1196 L734 1371 L387 1026 L485 1026 Z " />
<glyph glyph-name="uni03A9" unicode="&#x3a9;" horiz-adv-x="1244" d="M699 68 C699 27 716 0 765 0 L1092 0 L1121 266 L1067 266 C1047 68 988 68 879 68 L786 68 C771 68 765 72 765 87 L765 200 C1014 252 1159 451 1159 774 C1159 1156 957 1363 622 1363 C287 1363 85 1156 85 774 C85 451 230 252 479 200 L479 87 C479 72 473 68 458 68 L365 68 C256 68 197 68 177 266 L123 266 L152 0 L479 0 C528 0 545 27 545 68 L545 253 C359 283 276 434 276 774 C276 1159 382 1302 622 1302 C862 1302 968 1159 968 774 C968 434 885 283 699 253 L699 68 Z " />
<glyph glyph-name="uni03BC" unicode="&#x3bc;" horiz-adv-x="1006" d="M680 67 C692 10 747 -25 821 -25 C864 -25 921 -11 949 9 L949 44 C921 36 902 32 884 32 C849 32 830 58 830 126 L830 848 L574 848 L574 813 L599 813 C654 813 680 785 680 728 L680 286 C680 86 597 40 506 40 C415 40 326 96 326 286 L326 848 L70 848 L70 813 L95 813 C150 813 176 785 176 728 L176 -350 L431 -350 L431 -315 L406 -315 C351 -315 325 -287 325 -230 L325 67 C361 2 436 -25 505 -25 C572 -25 637 9 680 67 L680 67 Z " />
<glyph glyph-name="pi" unicode="&#x3c0;" horiz-adv-x="1026" d="M351 761 L682 761 L682 114 C682 19 730 -25 823 -25 C866 -25 923 -11 951 9 L951 44 C923 36 904 32 886 32 C851 32 832 58 832 126 L832 761 L858 761 C923 761 957 812 957 865 C957 891 949 917 933 939 L898 939 C901 928 903 918 903 909 C903 861 860 848 808 848 L32 848 L32 655 L67 655 L67 680 C67 735 95 761 152 761 L201 761 L201 120 C201 55 191 35 119 35 L95 35 L95 0 L456 0 L456 35 L431 35 C369 35 351 47 351 120 L351 761 Z " />
<glyph glyph-name="Wgrave" unicode="&#x1e80;" horiz-adv-x="1916" d="M1359 173 L1044 1173 C1040 1184 1033 1213 1033 1223 C1033 1262 1058 1293 1107 1293 L1189 1293 L1189 1338 L680 1338 L680 1293 L708 1293 C771 1293 833 1272 868 1162 L947 913 L704 173 L389 1174 C386 1185 379 1213 379 1223 C379 1261 403 1293 453 1293 L510 1293 L510 1338 L25 1338 L25 1293 L53 1293 C116 1293 179 1270 214 1160 L584 0 L709 0 L977 820 L1238 0 L1364 0 L1757 1293 L1891 1293 L1891 1338 L1523 1338 L1523 1293 L1697 1293 L1359 173 Z M1108 1426 L761 1771 L761 1596 L1010 1426 L1108 1426 Z " />
<glyph glyph-name="wgrave" unicode="&#x1e81;" horiz-adv-x="1398" d="M883 813 L883 848 L510 848 L510 813 L534 813 C580 813 611 794 627 744 L675 589 L514 100 L311 712 C305 730 300 751 300 760 C300 788 315 813 355 813 L398 813 L398 848 L15 848 L15 813 L49 813 C95 813 125 794 142 744 L391 0 L535 0 L703 499 L859 0 L1003 0 L1266 813 L1383 813 L1383 848 L1069 848 L1069 813 L1207 813 L982 100 L796 712 C790 730 785 751 785 760 C785 788 800 813 840 813 L883 813 Z M736 1026 L389 1371 L389 1196 L638 1026 L736 1026 Z " />
<glyph glyph-name="Wacute" unicode="&#x1e82;" horiz-adv-x="1916" d="M1359 173 L1044 1173 C1040 1184 1033 1213 1033 1223 C1033 1262 1058 1293 1107 1293 L1189 1293 L1189 1338 L680 1338 L680 1293 L708 1293 C771 1293 833 1272 868 1162 L947 913 L704 173 L389 1174 C386 1185 379 1213 379 1223 C379 1261 403 1293 453 1293 L510 1293 L510 1338 L25 1338 L25 1293 L53 1293 C116 1293 179 1270 214 1160 L584 0 L709 0 L977 820 L1238 0 L1364 0 L1757 1293 L1891 1293 L1891 1338 L1523 1338 L1523 1293 L1697 1293 L1359 173 Z M885 1426 L1134 1596 L1134 1771 L787 1426 L885 1426 Z " />
<glyph glyph-name="wacute" unicode="&#x1e83;" horiz-adv-x="1398" d="M883 813 L883 848 L510 848 L510 813 L534 813 C580 813 611 794 627 744 L675 589 L514 100 L311 712 C305 730 300 751 300 760 C300 788 315 813 355 813 L398 813 L398 848 L15 848 L15 813 L49 813 C95 813 125 794 142 744 L391 0 L535 0 L703 499 L859 0 L1003 0 L1266 813 L1383 813 L1383 848 L1069 848 L1069 813 L1207 813 L982 100 L796 712 C790 730 785 751 785 760 C785 788 800 813 840 813 L883 813 Z M720 1026 L969 1196 L969 1371 L622 1026 L720 1026 Z " />
<glyph glyph-name="Wdieresis" unicode="&#x1e84;" horiz-adv-x="1916" d="M1697 1293 L1523 1293 L1523 1338 L1891 1338 L1891 1293 L1757 1293 L1364 0 L1238 0 L977 820 L709 0 L584 0 L214 1160 C179 1270 116 1293 53 1293 L25 1293 L25 1338 L510 1338 L510 1293 L453 1293 C403 1293 379 1261 379 1223 C379 1213 386 1185 389 1174 L704 173 L947 913 L868 1162 C833 1272 771 1293 708 1293 L680 1293 L680 1338 L1189 1338 L1189 1293 L1107 1293 C1058 1293 1033 1262 1033 1223 C1033 1213 1040 1184 1044 1173 L1359 173 L1697 1293 Z M884 1617 C884 1672 840 1715 790 1715 C738 1715 695 1672 695 1617 C695 1563 738 1519 790 1519 C840 1519 884 1563 884 1617 L884 1617 Z M1202 1617 C1202 1672 1158 1715 1108 1715 C1056 1715 1013 1672 1013 1617 C1013 1563 1056 1519 1108 1519 C1158 1519 1202 1563 1202 1617 L1202 1617 Z " />
<glyph glyph-name="wdieresis" unicode="&#x1e85;" horiz-adv-x="1398" d="M840 813 C800 813 785 788 785 760 C785 751 790 730 796 712 L982 100 L1207 813 L1069 813 L1069 848 L1383 848 L1383 813 L1266 813 L1003 0 L859 0 L703 499 L535 0 L391 0 L142 744 C125 794 95 813 49 813 L15 813 L15 848 L398 848 L398 813 L355 813 C315 813 300 788 300 760 C300 751 305 730 311 712 L514 100 L675 589 L627 744 C611 794 580 813 534 813 L510 813 L510 848 L883 848 L883 813 L840 813 Z M952 1217 C952 1272 908 1315 858 1315 C806 1315 763 1272 763 1217 C763 1163 806 1119 858 1119 C908 1119 952 1163 952 1217 L952 1217 Z M634 1217 C634 1272 590 1315 540 1315 C488 1315 445 1272 445 1217 C445 1163 488 1119 540 1119 C590 1119 634 1163 634 1217 L634 1217 Z " />
<glyph glyph-name="uni1E9E" unicode="&#x1e9e;" horiz-adv-x="1263" d="M75 0 L518 0 L518 45 C422 45 380 57 380 131 L380 1032 C380 1207 485 1294 635 1294 C754 1294 845 1211 845 1104 C845 1004 792 919 731 848 C687 796 662 732 662 669 C662 567 716 466 819 419 L927 370 C1043 316 1065 245 1065 169 C1065 84 978 18 888 18 C728 18 657 147 656 294 L606 294 L606 53 C686 7 786 -25 896 -25 C1062 -25 1193 101 1193 228 C1193 350 1153 455 1012 520 L863 588 C797 619 760 666 760 734 C760 881 1012 900 1012 1100 C1012 1282 821 1347 643 1347 C356 1347 213 1250 213 944 L213 131 C213 57 171 45 75 45 L75 0 Z " />
<glyph glyph-name="Ygrave" unicode="&#x1ef2;" horiz-adv-x="1188" d="M646 570 L394 1178 C381 1210 374 1235 374 1255 C374 1278 392 1293 432 1293 L506 1293 L506 1338 L25 1338 L25 1293 L54 1293 C135 1293 179 1264 223 1159 L515 468 L515 131 C515 57 473 45 377 45 L377 0 L820 0 L820 45 C724 45 682 57 682 131 L682 519 L1029 1293 L1163 1293 L1163 1338 L795 1338 L795 1293 L969 1293 L646 570 Z M789 1426 L442 1771 L442 1596 L691 1426 L789 1426 Z " />
<glyph glyph-name="ygrave" unicode="&#x1ef3;" horiz-adv-x="920" d="M470 0 L399 -201 C364 -302 300 -359 241 -359 C192 -359 145 -313 143 -216 L83 -216 L83 -415 C124 -439 183 -450 218 -450 C336 -450 411 -349 452 -221 L784 813 L905 813 L905 847 L590 847 L590 813 L729 813 L505 114 L311 712 C305 730 300 751 300 760 C300 788 315 813 355 813 L398 813 L398 848 L15 848 L15 813 L49 813 C95 813 125 794 142 744 L391 0 L470 0 Z M608 1026 L261 1371 L261 1196 L510 1026 L608 1026 Z " />
<glyph glyph-name="uni2009" unicode="&#x2009;" horiz-adv-x="150" d="" />
<glyph glyph-name="endash" unicode="&#x2013;" horiz-adv-x="932" d="M125 425 L807 425 L807 522 L125 522 L125 425 Z " />
<glyph glyph-name="emdash" unicode="&#x2014;" horiz-adv-x="1242" d="M125 425 L1117 425 L1117 522 L125 522 L125 425 Z " />
<glyph glyph-name="quoteleft" unicode="&#x2018;" horiz-adv-x="441" d="M92 1028 C92 918 150 831 242 831 C300 831 349 878 349 934 C349 999 298 1032 252 1032 C208 1032 164 1000 164 934 C146 960 139 991 139 1022 C139 1156 236 1274 358 1331 L337 1369 C216 1318 92 1181 92 1028 L92 1028 Z " />
<glyph glyph-name="quoteright" unicode="&#x2019;" horiz-adv-x="436" d="M358 1166 C358 1276 300 1363 208 1363 C150 1363 101 1316 101 1260 C101 1195 152 1162 198 1162 C242 1162 286 1194 286 1260 C304 1234 311 1203 311 1172 C311 1038 214 920 92 863 L113 825 C234 876 358 1013 358 1166 L358 1166 Z " />
<glyph glyph-name="quotesinglbase" unicode="&#x201a;" horiz-adv-x="431" d="M358 -14 C358 96 300 183 208 183 C150 183 101 136 101 80 C101 15 152 -18 198 -18 C242 -18 286 14 286 80 C304 54 311 23 311 -8 C311 -142 214 -260 92 -317 L113 -355 C234 -304 358 -167 358 -14 L358 -14 Z " />
<glyph glyph-name="quotedblleft" unicode="&#x201c;" horiz-adv-x="715" d="M422 1028 C422 918 480 831 572 831 C630 831 679 878 679 934 C679 999 628 1032 582 1032 C538 1032 494 1000 494 934 C476 960 469 991 469 1022 C469 1156 566 1274 688 1331 L667 1369 C546 1318 422 1181 422 1028 L422 1028 Z M92 1028 C92 918 150 831 242 831 C300 831 349 878 349 934 C349 999 298 1032 252 1032 C208 1032 164 1000 164 934 C146 960 139 991 139 1022 C139 1156 236 1274 358 1331 L337 1369 C216 1318 92 1181 92 1028 L92 1028 Z " />
<glyph glyph-name="quotedblright" unicode="&#x201d;" horiz-adv-x="773" d="M358 1166 C358 1276 300 1363 208 1363 C150 1363 101 1316 101 1260 C101 1195 152 1162 198 1162 C242 1162 286 1194 286 1260 C304 1234 311 1203 311 1172 C311 1038 214 920 92 863 L113 825 C234 876 358 1013 358 1166 L358 1166 Z M688 1166 C688 1276 630 1363 538 1363 C480 1363 431 1316 431 1260 C431 1195 482 1162 528 1162 C572 1162 616 1194 616 1260 C634 1234 641 1203 641 1172 C641 1038 544 920 422 863 L443 825 C564 876 688 1013 688 1166 L688 1166 Z " />
<glyph glyph-name="quotedblbase" unicode="&#x201e;" horiz-adv-x="773" d="M358 -14 C358 96 300 183 208 183 C150 183 101 136 101 80 C101 15 152 -18 198 -18 C242 -18 286 14 286 80 C304 54 311 23 311 -8 C311 -142 214 -260 92 -317 L113 -355 C234 -304 358 -167 358 -14 L358 -14 Z M688 -14 C688 96 630 183 538 183 C480 183 431 136 431 80 C431 15 482 -18 528 -18 C572 -18 616 14 616 80 C634 54 641 23 641 -8 C641 -142 544 -260 422 -317 L443 -355 C564 -304 688 -167 688 -14 L688 -14 Z " />
<glyph glyph-name="dagger" unicode="&#x2020;" horiz-adv-x="896" d="M478 748 C478 790 479 830 481 866 C567 857 627 844 669 835 C699 829 719 824 737 824 C780 824 821 848 821 896 C821 943 780 966 737 966 C720 966 699 962 671 955 C631 945 571 932 486 923 C497 1026 515 1101 529 1156 C539 1196 546 1226 546 1250 C546 1308 514 1368 447 1368 C380 1368 349 1308 349 1250 C349 1227 356 1199 366 1161 C380 1106 399 1031 410 923 C324 932 263 946 224 955 C196 961 177 966 160 966 C117 966 75 943 75 896 C75 848 117 824 160 824 C178 824 200 828 229 835 C270 844 332 857 415 866 C418 830 419 790 419 748 L419 585 C419 377 387 254 366 175 C356 138 349 111 349 89 C349 31 380 -30 447 -30 C514 -30 546 31 546 89 C546 112 539 141 529 180 C509 261 478 384 478 583 L478 748 Z " />
<glyph glyph-name="daggerdbl" unicode="&#x2021;" horiz-adv-x="896" d="M477 750 C477 791 478 830 481 865 C562 856 626 844 667 835 C696 828 719 824 737 824 C778 824 821 848 821 896 C821 943 778 966 737 966 C720 966 701 961 673 955 C634 946 571 932 486 923 C497 1026 515 1101 529 1156 C539 1196 546 1226 546 1250 C546 1308 513 1368 446 1368 C379 1368 348 1308 348 1250 C348 1227 355 1199 365 1161 C380 1107 399 1031 410 923 C326 932 263 946 224 955 C196 961 177 966 160 966 C117 966 75 943 75 896 C75 848 117 824 160 824 C178 824 199 828 228 835 C269 844 332 857 415 866 C417 829 419 790 419 747 C419 695 418 647 416 603 C327 612 263 625 223 634 C196 640 177 645 160 645 C117 645 75 623 75 575 C75 527 117 504 160 504 C178 504 201 508 230 515 C270 524 332 537 413 546 C399 323 363 214 344 160 C337 141 334 129 334 119 C334 100 407 -30 447 -30 C483 -30 562 98 562 119 C562 126 559 135 554 150 C537 199 498 311 483 545 C563 537 626 523 666 515 C696 508 719 504 737 504 C778 504 821 527 821 575 C821 623 778 645 737 645 C721 645 699 640 673 634 C633 625 569 612 480 603 C478 648 477 697 477 750 L477 750 Z " />
<glyph glyph-name="bullet" unicode="&#x2022;" horiz-adv-x="599" d="M489 609 C489 719 401 806 300 806 C194 806 110 719 110 609 C110 500 194 411 300 411 C401 411 489 500 489 609 L489 609 Z " />
<glyph glyph-name="ellipsis" unicode="&#x2026;" horiz-adv-x="1217" d="M323 89 C323 150 275 198 219 198 C161 198 114 150 114 89 C114 29 161 -20 219 -20 C275 -20 323 29 323 89 L323 89 Z M713 89 C713 150 665 198 609 198 C551 198 504 150 504 89 C504 29 551 -20 609 -20 C665 -20 713 29 713 89 L713 89 Z M1103 89 C1103 150 1055 198 999 198 C941 198 894 150 894 89 C894 29 941 -20 999 -20 C1055 -20 1103 29 1103 89 L1103 89 Z " />
<glyph glyph-name="perthousand" unicode="&#x2030;" horiz-adv-x="1927" d="M194 -89 L1185 1407 L1115 1407 L124 -89 L194 -89 Z M1164 369 C1164 101 1124 29 1033 29 C943 29 903 101 903 369 C903 636 943 709 1033 709 C1124 709 1164 636 1164 369 L1164 369 Z M1033 751 C869 751 785 572 785 369 C785 164 869 -14 1033 -14 C1198 -14 1282 164 1282 369 C1282 572 1198 751 1033 751 L1033 751 Z M429 976 C429 708 389 636 298 636 C208 636 168 708 168 976 C168 1243 208 1316 298 1316 C389 1316 429 1243 429 976 L429 976 Z M298 1358 C134 1358 50 1179 50 976 C50 771 134 593 298 593 C463 593 547 771 547 976 C547 1179 463 1358 298 1358 L298 1358 Z M1759 369 C1759 101 1719 29 1628 29 C1538 29 1498 101 1498 369 C1498 636 1538 709 1628 709 C1719 709 1759 636 1759 369 L1759 369 Z M1628 751 C1464 751 1380 572 1380 369 C1380 164 1464 -14 1628 -14 C1793 -14 1877 164 1877 369 C1877 572 1793 751 1628 751 L1628 751 Z " />
<glyph glyph-name="guilsinglleft" unicode="&#x2039;" horiz-adv-x="538" d="M371 40 L423 78 L132 430 L401 774 L351 812 L55 430 L371 40 Z " />
<glyph glyph-name="guilsinglright" unicode="&#x203a;" horiz-adv-x="538" d="M453 430 L157 812 L107 774 L376 430 L85 78 L137 40 L453 430 Z " />
<glyph glyph-name="fraction" unicode="&#x2044;" horiz-adv-x="354" d="M-290 -89 L701 1407 L631 1407 L-360 -89 L-290 -89 Z " />
<glyph glyph-name="Euro" unicode="&#x20ac;" horiz-adv-x="1125" d="M1020 952 L1020 1259 C917 1318 814 1363 672 1363 C294 1363 136 1111 109 779 L0 779 L0 682 L105 682 L105 669 C105 268 252 -25 662 -25 C793 -25 916 11 1020 79 L1020 386 L966 386 C962 181 888 35 662 35 C324 35 291 421 291 669 L291 682 L676 682 L772 779 L293 779 C315 1201 467 1304 669 1304 C868 1304 966 1194 966 952 L1020 952 Z " />
<glyph glyph-name="trademark" unicode="&#x2122;" horiz-adv-x="1306" d="M42 1338 L20 1167 L62 1167 C76 1268 98 1297 149 1297 L231 1297 L231 733 C231 703 212 697 170 697 L142 697 L142 662 L416 662 L416 697 L388 697 C346 697 327 703 327 733 L327 1297 L409 1297 C459 1297 482 1268 496 1167 L537 1167 L516 1338 L42 1338 Z M752 1338 L579 1338 L579 1302 C627 1302 648 1296 648 1266 L648 733 C648 703 627 697 579 697 L579 662 L757 662 L757 697 C709 697 688 703 688 733 L688 1222 L888 682 L913 682 C974 858 1039 1039 1101 1216 L1101 733 C1101 703 1080 697 1033 697 L1033 662 L1266 662 L1266 697 C1219 697 1198 703 1198 733 L1198 1266 C1198 1296 1219 1302 1266 1302 L1266 1338 L1100 1338 C1045 1179 983 1012 927 853 L752 1338 Z " />
<glyph glyph-name="Omega" unicode="&#x2126;" horiz-adv-x="1244" d="M699 68 C699 27 716 0 765 0 L1092 0 L1121 266 L1067 266 C1047 68 988 68 879 68 L786 68 C771 68 765 72 765 87 L765 200 C1014 252 1159 451 1159 774 C1159 1156 957 1363 622 1363 C287 1363 85 1156 85 774 C85 451 230 252 479 200 L479 87 C479 72 473 68 458 68 L365 68 C256 68 197 68 177 266 L123 266 L152 0 L479 0 C528 0 545 27 545 68 L545 253 C359 283 276 434 276 774 C276 1159 382 1302 622 1302 C862 1302 968 1159 968 774 C968 434 885 283 699 253 L699 68 Z " />
<glyph glyph-name="estimated" unicode="&#x212e;" horiz-adv-x="1426" d="M1104 643 L333 643 L333 986 C459 1115 563 1164 713 1164 C874 1164 1026 1107 1104 963 L1104 643 Z M333 578 L1351 578 C1342 1029 1067 1230 713 1230 C346 1230 75 995 75 606 C75 212 374 -18 713 -18 C877 -18 1150 56 1232 236 L1098 236 C991 112 879 48 713 48 C567 48 430 114 333 216 L333 578 Z " />
<glyph glyph-name="arrowleft" unicode="&#x2190;" horiz-adv-x="1188" d="M554 210 L174 600 L1138 600 L1138 666 L174 666 L556 1060 L508 1106 L50 633 L506 164 L554 210 Z " />
<glyph glyph-name="arrowup" unicode="&#x2191;" horiz-adv-x="1042" d="M992 723 L523 1179 L50 721 L96 673 L490 1055 L490 91 L556 91 L556 1055 L946 675 L992 723 Z " />
<glyph glyph-name="arrowright" unicode="&#x2192;" horiz-adv-x="1188" d="M682 164 L1138 633 L680 1106 L632 1060 L1014 666 L50 666 L50 600 L1014 600 L634 210 L682 164 Z " />
<glyph glyph-name="arrowdown" unicode="&#x2193;" horiz-adv-x="1042" d="M946 595 L556 215 L556 1179 L490 1179 L490 215 L96 597 L50 549 L523 91 L992 547 L946 595 Z " />
<glyph glyph-name="partialdiff" unicode="&#x2202;" horiz-adv-x="1003" d="M498 31 C309 31 272 283 272 436 C272 575 307 804 497 804 C675 804 736 595 736 445 C736 316 683 31 498 31 L498 31 Z M461 875 C227 875 95 660 95 427 C95 176 247 -25 512 -25 C826 -25 918 260 918 537 C918 972 627 1281 252 1381 L237 1334 C542 1242 715 1027 736 704 C691 810 579 875 461 875 L461 875 Z " />
<glyph glyph-name="Delta" unicode="&#x2206;" horiz-adv-x="1027" d="M1007 0 L608 1338 L476 1338 L20 0 L1007 0 Z M120 80 L486 1167 L765 200 C769 187 775 161 775 150 C775 106 745 80 701 80 L120 80 Z " />
<glyph glyph-name="product" unicode="&#x220f;" horiz-adv-x="1284" d="M366 1270 L918 1270 L918 -127 C918 -201 876 -213 780 -213 L780 -258 L1223 -258 L1223 -213 C1127 -213 1085 -201 1085 -127 L1085 1207 C1085 1281 1127 1293 1223 1293 L1223 1338 L61 1338 L61 1293 C157 1293 199 1281 199 1207 L199 -127 C199 -201 157 -213 61 -213 L61 -258 L504 -258 L504 -213 C408 -213 366 -201 366 -127 L366 1270 Z " />
<glyph glyph-name="summation" unicode="&#x2211;" horiz-adv-x="1161" d="M585 540 L241 -128 C205 -198 177 -213 81 -213 L81 -258 L1026 -258 L1055 -19 L1002 -19 C984 -159 949 -205 857 -205 L386 -205 L757 540 L386 1285 L857 1285 C949 1285 984 1239 1002 1099 L1055 1099 L1026 1338 L81 1338 L81 1293 C177 1293 205 1278 241 1208 L585 540 Z " />
<glyph glyph-name="minus" unicode="&#x2212;" horiz-adv-x="1016" d="M100 419 L916 416 L916 496 L100 499 L100 419 Z " />
<glyph glyph-name="radical" unicode="&#x221a;" horiz-adv-x="1164" d="M1134 1412 L1048 1412 L572 -204 L302 410 L50 284 L83 214 L262 302 L526 -295 L620 -295 L1134 1412 Z " />
<glyph glyph-name="infinity" unicode="&#x221e;" horiz-adv-x="1444" d="M1048 140 C1223 140 1364 282 1364 456 C1364 630 1222 772 1048 772 C888 772 793 656 722 536 C650 661 566 772 396 772 C222 772 80 630 80 456 C80 282 222 140 396 140 C565 140 649 248 721 373 C793 253 887 140 1048 140 L1048 140 Z M1048 220 C905 220 833 334 767 455 C833 576 904 692 1048 692 C1178 692 1284 586 1284 456 C1284 326 1179 220 1048 220 L1048 220 Z M396 220 C266 220 160 326 160 456 C160 586 266 692 396 692 C538 692 611 574 676 455 C610 336 538 220 396 220 L396 220 Z " />
<glyph glyph-name="integral" unicode="&#x222b;" horiz-adv-x="800" d="M440 -66 L440 1129 C440 1255 337 1358 211 1358 C148 1358 91 1331 50 1290 L106 1234 C133 1261 170 1278 211 1278 C293 1278 360 1211 360 1129 L360 -66 C360 -192 463 -295 589 -295 C652 -295 709 -268 750 -227 L694 -171 C667 -198 630 -215 589 -215 C507 -215 440 -148 440 -66 L440 -66 Z " />
<glyph glyph-name="approxequal" unicode="&#x2248;" horiz-adv-x="1314" d="M1154 701 C1065 604 992 561 913 561 C872 561 840 571 746 613 L665 649 C505 719 454 727 384 727 C314 727 195 716 100 596 L152 542 C248 645 325 649 385 649 C444 649 510 632 602 589 L674 555 C762 514 845 483 903 483 C1005 483 1099 525 1205 646 L1154 701 Z M160 249 C249 346 322 389 401 389 C442 389 474 380 568 338 L649 301 C808 228 860 221 930 221 C1000 221 1119 234 1214 354 L1162 406 C1066 303 989 299 929 299 C870 299 804 318 712 361 L640 395 C552 436 469 467 411 467 C309 467 215 423 109 302 L160 249 Z " />
<glyph glyph-name="notequal" unicode="&#x2260;" horiz-adv-x="1016" d="M100 539 L529 537 L369 378 L100 379 L100 299 L289 298 L153 163 L210 107 L402 298 L916 296 L916 376 L482 377 L643 537 L916 536 L916 616 L723 616 L860 752 L803 809 L609 617 L100 619 L100 539 Z " />
<glyph glyph-name="lessequal" unicode="&#x2264;" horiz-adv-x="795" d="M678 279 L722 349 C722 349 309 586 172 682 L725 1011 L681 1081 L101 730 C79 717 70 699 70 682 C70 665 81 647 101 633 L678 279 Z M71 113 L716 110 L716 190 L71 193 L71 113 Z " />
<glyph glyph-name="greaterequal" unicode="&#x2265;" horiz-adv-x="795" d="M694 633 C714 647 725 665 725 682 C725 699 716 717 694 730 L114 1081 L70 1011 L623 682 C486 586 73 349 73 349 L117 279 L694 633 Z M724 193 L79 190 L79 110 L724 113 L724 193 Z " />
<glyph glyph-name="lozenge" unicode="&#x25ca;" horiz-adv-x="1106" d="M553 1248 L934 669 L553 90 C462 220 236 575 172 669 L553 1248 Z M574 -20 L1016 646 L1016 692 L574 1358 L531 1358 L90 692 L90 646 L531 -20 L574 -20 Z " />
<glyph glyph-name="commaaccent" unicode="&#xf6c3;" horiz-adv-x="440" d="M269 -234 C269 -328 185 -405 101 -448 L124 -487 C225 -440 317 -346 317 -225 C317 -155 276 -82 195 -82 C147 -82 96 -121 96 -177 C96 -221 133 -269 185 -269 C216 -269 249 -251 266 -208 C268 -217 269 -225 269 -234 L269 -234 Z " />
<glyph glyph-name="apple" unicode="&#xf8ff;" horiz-adv-x="1424" d="M498 855 L507 855 C507 738 526 584 626 584 C717 584 806 629 806 629 C839 761 883 938 918 938 C966 938 1012 796 1038 712 C1062 633 1089 507 1114 483 C1117 480 1122 478 1126 478 C1136 478 1146 486 1146 497 C1146 512 1127 519 1127 532 C1127 540 1139 548 1146 548 C1169 548 1178 505 1178 490 C1178 456 1145 446 1131 422 C1100 370 1101 300 1042 300 C951 300 909 350 877 350 C851 350 846 338 822 338 C784 338 753 381 753 418 C753 475 800 477 808 477 C817 477 829 460 837 460 C848 460 855 473 855 481 C855 509 829 519 805 519 C747 519 702 470 702 417 C702 361 731 325 771 295 C762 239 754 219 702 190 C659 166 639 105 634 49 C629 -7 629 -73 629 -73 L657 -39 L687 -68 C689 -38 692 -10 698 17 C707 56 717 96 739 126 C750 142 761 151 768 152 L749 86 L836 132 L844 84 L896 156 L904 81 L947 158 L974 79 L1005 144 L1039 94 L1055 183 L1084 110 L1108 168 L1151 113 L1139 230 L1226 149 L1204 225 L1283 187 L1256 225 L1294 212 C1329 175 1334 114 1334 79 C1334 62 1333 52 1333 52 L1355 78 L1393 62 C1393 62 1395 97 1395 138 C1395 162 1390 188 1385 210 C1378 243 1345 274 1310 290 C1220 331 1158 395 1158 395 C1187 427 1212 448 1212 494 C1212 551 1178 577 1137 605 L1089 713 C1168 749 1240 801 1240 963 C1240 988 1238 1049 1238 1049 L1249 1058 L1249 1114 C1250 1114 867 1337 794 1337 C741 1337 695 1277 695 1198 C695 1181 709 1171 723 1171 C735 1171 747 1179 748 1196 C750 1226 762 1275 793 1275 C853 1275 1156 1099 1156 1099 C883 1001 534 941 534 941 C427 977 281 1025 169 1025 C68 1025 30 932 30 843 C30 817 35 791 59 791 C75 791 85 802 87 823 C94 885 102 960 172 960 C287 960 434 907 479 889 L498 855 Z M846 945 C795 829 762 670 762 670 C723 660 686 641 646 641 C571 641 562 758 562 818 L562 878 C562 878 750 941 846 945 L846 945 Z M1186 1034 C1187 1016 1187 1000 1187 985 C1187 831 1158 809 1076 764 C1056 881 978 970 954 976 C954 976 1102 1034 1186 1034 L1186 1034 Z " />
<glyph glyph-name="f_f" unicode="&#xfb00;" horiz-adv-x="1076" d="M861 848 L861 1145 C861 1210 874 1303 951 1303 C1032 1303 1041 1204 1041 1145 L1041 1122 L1101 1122 L1101 1298 C1072 1321 1002 1347 951 1347 C831 1347 711 1286 711 1057 L711 848 L609 848 L609 809 C682 809 711 785 711 728 L711 111 C711 60 682 35 630 35 L605 35 L605 0 L1011 0 L1011 35 L942 35 C889 35 861 60 861 111 L861 809 L1017 809 L1017 848 L861 848 Z M331 848 L331 1145 C331 1210 344 1303 421 1303 C502 1303 511 1204 511 1145 L511 1122 L571 1122 L571 1298 C542 1321 472 1347 421 1347 C301 1347 181 1286 181 1057 L181 848 L75 848 L75 813 L100 813 C155 813 181 785 181 728 L181 111 C181 60 152 35 100 35 L75 35 L75 0 L481 0 L481 35 L412 35 C359 35 331 60 331 111 L331 809 L487 809 L487 848 L331 848 Z " />
<glyph glyph-name="fi" unicode="&#xfb01;" horiz-adv-x="1052" d="M616 848 L872 848 L872 120 C872 47 890 35 952 35 L977 35 L977 0 L616 0 L616 35 L640 35 C712 35 722 55 722 120 L722 728 C722 793 713 813 641 813 L616 813 L616 848 Z M785 1122 C734 1122 692 1167 692 1218 C692 1273 734 1320 785 1320 C833 1320 876 1273 876 1218 C876 1167 833 1122 785 1122 L785 1122 Z M331 848 L331 1145 C331 1210 344 1303 421 1303 C502 1303 511 1204 511 1145 L511 1122 L571 1122 L571 1298 C542 1321 472 1347 421 1347 C301 1347 181 1286 181 1057 L181 848 L75 848 L75 813 L100 813 C155 813 181 785 181 728 L181 111 C181 60 152 35 100 35 L75 35 L75 0 L481 0 L481 35 L412 35 C359 35 331 60 331 111 L331 809 L487 809 L487 848 L331 848 Z " />
<glyph glyph-name="fl" unicode="&#xfb02;" horiz-adv-x="1048" d="M956 -26 L931 -26 C797 -26 717 46 717 248 L717 1218 C717 1283 707 1303 635 1303 L610 1303 L610 1338 L867 1338 L867 181 C867 73 906 19 956 15 L956 -26 Z M331 848 L331 1145 C331 1210 344 1303 421 1303 C502 1303 511 1204 511 1145 L511 1122 L571 1122 L571 1298 C542 1321 472 1347 421 1347 C301 1347 181 1286 181 1057 L181 848 L75 848 L75 813 L100 813 C155 813 181 785 181 728 L181 111 C181 60 152 35 100 35 L75 35 L75 0 L481 0 L481 35 L412 35 C359 35 331 60 331 111 L331 809 L487 809 L487 848 L331 848 Z " />
</font>
</svg>
