<?xml version="1.0" encoding="UTF-8"?>
<svg xmlns="http://www.w3.org/2000/svg" xmlns:xlink="http://www.w3.org/1999/xlink" version="1.2" >
<font id="Luiss Serif Italic">
<font-face  font-family="Luiss Serif" units-per-em="2000" ascent="1480" descent="-520" font-style="italic" font-weight="400" font-stretch="normal" slope="-8" cap-height="1338" x-height="848" underline-position="-175" underline-thickness="50" />
<missing-glyph  horiz-adv-x="1341" d="M918 102 L243 102 L659 598 L918 102 Z M422 1236 L1098 1236 L682 740 L422 1236 Z M720 669 L1147 1179 L986 158 L720 669 Z M356 1181 L622 669 L194 159 L356 1181 Z M971 0 C1022 0 1068 41 1076 91 L1259 1247 C1260 1252 1260 1256 1260 1261 C1260 1304 1228 1338 1182 1338 L370 1338 C319 1338 273 1297 265 1247 L82 91 C81 86 81 82 81 77 C81 34 113 0 159 0 L971 0 Z " />
<glyph glyph-name="space" unicode="&#x20;" horiz-adv-x="350" d="" />
<glyph glyph-name="exclam" unicode="&#x21;" horiz-adv-x="526" d="M247 387 C327 817 448 1127 464 1225 C474 1290 446 1358 370 1358 C294 1358 245 1290 235 1225 C219 1127 242 817 186 387 L247 387 Z M192 209 C119 209 70 136 70 74 C70 23 110 -15 155 -15 C227 -15 275 59 275 119 C275 170 237 209 192 209 L192 209 Z " />
<glyph glyph-name="quotedbl" unicode="&#x22;" horiz-adv-x="534" d="M88 823 C157 1072 269 1222 269 1299 C269 1331 249 1358 204 1358 C141 1358 104 1305 96 1253 C89 1202 85 1109 68 984 C61 935 52 881 40 823 L88 823 Z M348 823 C417 1072 529 1222 529 1299 C529 1331 509 1358 464 1358 C401 1358 364 1305 356 1253 C349 1202 345 1109 328 984 C321 935 312 881 300 823 L348 823 Z " />
<glyph glyph-name="numbersign" unicode="&#x23;" horiz-adv-x="1112" d="M151 856 L408 856 L294 486 L37 486 L20 426 L275 426 L164 64 L238 64 L349 426 L627 426 L516 64 L590 64 L701 426 L943 426 L960 486 L720 486 L834 856 L1074 856 L1091 916 L852 916 L965 1280 L891 1280 L778 916 L500 916 L613 1280 L539 1280 L426 916 L168 916 L151 856 Z M482 856 L760 856 L646 486 L368 486 L482 856 Z " />
<glyph glyph-name="dollar" unicode="&#x24;" horiz-adv-x="1024" d="M443 -282 L479 -23 C717 -7 914 140 914 380 C914 541 804 651 672 717 L470 817 C383 860 332 951 332 1044 C332 1207 477 1305 618 1305 C796 1305 874 1177 874 1015 C874 995 873 974 870 952 L924 952 L954 1242 C874 1312 777 1351 674 1361 L708 1605 L625 1700 L577 1361 C361 1345 175 1216 175 987 C175 834 268 715 397 652 L594 556 C681 514 738 433 738 344 C738 166 607 37 440 37 C221 37 149 193 149 401 C149 422 149 444 151 468 L97 468 L55 96 C147 31 249 -13 382 -23 L346 -282 L443 -282 Z " />
<glyph glyph-name="percent" unicode="&#x25;" horiz-adv-x="1332" d="M149 0 L1246 1338 L1176 1338 L79 0 L149 0 Z M73 985 C68 951 66 920 66 888 C66 750 129 592 282 592 C418 592 539 748 569 958 C574 991 577 1026 577 1058 C577 1196 512 1351 360 1351 C221 1351 101 1199 73 985 L73 985 Z M448 966 C429 824 400 735 370 687 C346 653 310 633 279 633 C193 633 181 739 181 804 C181 867 185 924 193 978 C213 1115 244 1210 274 1256 C296 1291 330 1311 363 1311 C448 1311 462 1207 462 1141 C462 1077 456 1022 448 966 L448 966 Z M760 379 C755 345 753 314 753 282 C753 144 816 -14 969 -14 C1105 -14 1226 142 1256 352 C1261 385 1264 420 1264 452 C1264 590 1199 745 1047 745 C908 745 788 593 760 379 L760 379 Z M1135 360 C1116 218 1087 129 1057 81 C1033 47 997 27 966 27 C880 27 868 133 868 198 C868 261 872 318 880 372 C900 509 931 604 961 650 C983 685 1017 705 1050 705 C1135 705 1149 601 1149 535 C1149 471 1143 416 1135 360 L1135 360 Z " />
<glyph glyph-name="ampersand" unicode="&#x26;" horiz-adv-x="1191" d="M1125 844 C1103 715 999 667 801 643 C572 615 460 545 412 441 L430 396 C471 480 559 530 648 530 C676 530 702 525 726 514 C792 484 809 418 809 351 C809 168 672 36 500 36 C328 36 251 183 251 334 C251 547 369 674 575 674 L582 719 L561 719 C439 719 378 825 378 940 C378 1076 469 1203 613 1203 C690 1203 762 1159 782 1066 C788 1038 791 1007 791 976 C791 945 788 914 786 886 L837 886 L873 1150 C769 1225 680 1254 579 1254 C399 1254 215 1142 215 955 C215 817 309 712 437 697 C220 673 69 544 69 325 C69 98 256 -23 450 -23 C690 -23 867 130 867 354 C867 420 850 487 803 529 C809 529 832 528 839 528 C1047 539 1149 672 1168 790 L1125 844 Z " />
<glyph glyph-name="quotesingle" unicode="&#x27;" horiz-adv-x="274" d="M88 823 C157 1072 269 1222 269 1299 C269 1331 249 1358 204 1358 C141 1358 104 1305 96 1253 C89 1202 85 1109 68 984 C61 935 52 881 40 823 L88 823 Z " />
<glyph glyph-name="parenleft" unicode="&#x28;" horiz-adv-x="522" d="M319 -460 C201 -219 142 19 142 269 C142 336 145 403 153 470 C191 779 308 1060 540 1315 L497 1352 C457 1314 152 1001 87 481 C79 421 77 362 77 306 C77 20 141 -255 268 -483 L319 -460 Z " />
<glyph glyph-name="parenright" unicode="&#x29;" horiz-adv-x="442" d="M123 1329 C241 1088 300 850 300 600 C300 533 297 466 289 399 C251 90 134 -191 -98 -446 L-55 -483 C-15 -445 290 -132 355 388 C363 448 365 507 365 563 C365 849 301 1124 174 1352 L123 1329 Z " />
<glyph glyph-name="asterisk" unicode="&#x2a;" horiz-adv-x="707" d="M80 1162 C80 1102 143 1072 191 1072 C207 1072 223 1073 238 1073 C283 1073 317 1064 349 1051 C256 971 206 1004 153 951 C136 934 125 909 125 886 C125 841 165 802 207 802 C234 802 257 815 272 831 C325 884 292 933 373 1028 C392 982 396 949 396 921 C396 902 394 885 394 868 C394 814 429 758 485 758 C534 758 569 799 569 843 C569 859 565 874 559 886 C523 953 467 939 403 1042 C413 1043 421 1043 430 1043 C446 1043 459 1042 471 1040 C520 1033 556 1006 598 1006 C652 1006 697 1043 697 1091 C697 1145 649 1178 605 1178 C529 1178 519 1096 396 1076 C423 1202 499 1197 499 1287 C499 1339 460 1374 412 1374 C358 1374 328 1323 328 1278 C328 1223 365 1196 365 1108 C365 1099 365 1090 364 1080 C243 1143 280 1248 165 1248 C115 1248 80 1203 80 1162 L80 1162 Z " />
<glyph glyph-name="plus" unicode="&#x2b;" horiz-adv-x="1082" d="M96 419 L481 419 L418 30 L504 30 L567 419 L951 419 L965 499 L580 499 L643 886 L557 886 L494 499 L109 499 L96 419 Z " />
<glyph glyph-name="comma" unicode="&#x2c;" horiz-adv-x="351" d="M231 9 C231 -147 87 -248 -50 -285 L-38 -324 C104 -290 230 -194 269 -61 C277 -34 281 -4 281 26 C281 106 246 209 155 209 C92 209 37 143 37 79 C37 26 70 -15 118 -15 C164 -15 205 21 223 66 C230 46 231 27 231 9 L231 9 Z " />
<glyph glyph-name="hyphen" unicode="&#x2d;" horiz-adv-x="672" d="M82 405 L504 405 L524 532 L102 532 L82 405 Z " />
<glyph glyph-name="period" unicode="&#x2e;" horiz-adv-x="381" d="M285 119 C285 172 249 209 202 209 C134 209 80 141 80 75 C80 23 117 -15 165 -15 C233 -15 285 56 285 119 L285 119 Z " />
<glyph glyph-name="slash" unicode="&#x2f;" horiz-adv-x="772" d="M29 -89 L832 1407 L762 1407 L-40 -89 L29 -89 Z " />
<glyph glyph-name="zero" unicode="0" horiz-adv-x="970" d="M105 637 C96 578 93 525 93 473 C93 241 197 -23 446 -23 C674 -23 873 234 922 594 C930 652 935 707 935 761 C935 993 828 1254 580 1254 C352 1254 154 997 105 637 L105 637 Z M744 603 C710 355 663 210 608 128 C567 67 502 31 441 31 C284 31 261 216 261 330 C261 440 269 534 282 628 C318 877 365 1022 420 1104 C461 1165 524 1199 585 1199 C742 1199 767 1018 767 904 C767 794 757 698 744 603 L744 603 Z " />
<glyph glyph-name="one" unicode="1" horiz-adv-x="618" d="M203 121 C192 52 148 42 62 41 L35 41 L28 0 L495 0 L501 41 L462 41 C394 41 361 52 361 99 C361 115 364 128 366 142 L537 1236 C537 1236 328 1211 167 1203 L161 1161 L338 1161 C358 1161 362 1152 362 1140 C362 1131 357 1107 356 1099 L203 121 Z " />
<glyph glyph-name="two" unicode="2" horiz-adv-x="904" d="M206 139 C312 264 420 351 517 442 C680 595 827 700 827 938 C827 1137 688 1254 486 1254 C374 1254 289 1210 194 1160 L145 878 L193 878 C218 1018 288 1207 471 1207 C623 1207 664 1064 664 931 C664 772 589 626 462 499 C331 370 194 234 76 111 L38 0 L732 0 L792 362 L745 362 L699 139 L206 139 Z " />
<glyph glyph-name="three" unicode="3" horiz-adv-x="898" d="M352 642 C520 642 623 532 623 370 C623 203 531 29 352 29 C204 29 146 140 146 265 C146 298 153 325 158 352 L110 352 L57 74 C132 17 234 -23 360 -23 C599 -23 796 117 796 351 C796 534 661 650 507 664 C681 688 841 814 841 990 C841 1170 689 1254 530 1254 C415 1254 321 1217 226 1167 L174 888 L223 888 C227 915 235 942 243 967 C283 1092 368 1200 509 1200 C622 1200 684 1113 684 999 C684 768 534 696 355 696 L333 696 L323 642 L352 642 Z " />
<glyph glyph-name="four" unicode="4" horiz-adv-x="961" d="M823 880 L659 853 L602 496 L166 496 L729 1231 L646 1231 L43 447 L26 370 L555 370 C574 370 579 366 579 352 C579 350 578 347 578 344 L543 121 C532 52 487 42 401 41 L374 41 L368 0 L834 0 L841 41 L801 41 C733 41 700 52 700 99 C700 108 703 123 704 129 L823 880 Z " />
<glyph glyph-name="five" unicode="5" horiz-adv-x="892" d="M151 374 L102 374 L57 92 C129 17 234 -23 345 -23 C564 -23 807 120 807 442 C807 648 694 786 479 786 C361 786 270 730 215 683 L318 1092 L805 1092 L839 1230 L288 1230 L138 632 L185 603 C266 671 350 720 453 720 C596 720 636 587 636 470 C636 270 577 29 347 29 C203 29 138 125 138 252 C138 297 144 336 151 374 L151 374 Z " />
<glyph glyph-name="six" unicode="6" horiz-adv-x="934" d="M228 287 C228 483 315 769 545 769 C680 769 706 627 706 521 C706 331 644 32 412 32 C275 32 228 177 228 287 L228 287 Z M873 1266 C319 1209 92 849 92 429 C92 207 165 -23 428 -23 C557 -23 695 52 779 188 C832 273 859 368 859 461 C859 711 720 830 552 831 C464 831 370 788 294 686 C371 1037 558 1180 865 1225 L873 1266 Z " />
<glyph glyph-name="seven" unicode="7" horiz-adv-x="716" d="M208 0 L762 1187 L762 1231 L114 1231 L84 1092 L645 1092 L49 0 L208 0 Z " />
<glyph glyph-name="eight" unicode="8" horiz-adv-x="908" d="M552 1256 C362 1256 193 1112 193 924 C193 806 263 720 342 647 C186 580 51 457 51 295 C51 82 215 -29 386 -29 C598 -29 809 76 809 298 C809 469 685 590 567 685 C704 751 841 844 841 999 C841 1167 692 1256 552 1256 L552 1256 Z M381 594 L477 510 C566 431 671 339 671 222 C671 90 517 37 410 37 C249 37 128 132 128 296 C128 436 256 546 381 594 L381 594 Z M525 734 L458 793 C386 857 318 928 318 1016 C318 1135 450 1199 553 1199 C670 1199 773 1111 773 1000 C773 868 632 784 525 734 L525 734 Z " />
<glyph glyph-name="nine" unicode="9" horiz-adv-x="934" d="M539 1211 C689 1211 728 1065 728 948 C728 753 639 474 411 474 C270 474 248 627 248 734 C248 929 311 1203 539 1211 L539 1211 Z M83 -23 C628 33 864 384 864 796 C864 1023 797 1266 528 1266 C398 1266 259 1190 176 1055 C124 972 97 882 97 793 C97 536 233 413 403 412 C492 412 585 454 660 557 C584 206 397 63 91 18 L83 -23 Z " />
<glyph glyph-name="colon" unicode="&#x3a;" horiz-adv-x="426" d="M376 743 C376 796 340 833 293 833 C225 833 171 765 171 699 C171 647 208 609 256 609 C324 609 376 680 376 743 L376 743 Z M265 119 C265 172 229 209 182 209 C114 209 60 141 60 75 C60 23 97 -15 145 -15 C213 -15 265 56 265 119 L265 119 Z " />
<glyph glyph-name="semicolon" unicode="&#x3b;" horiz-adv-x="425" d="M254 9 C254 -147 104 -248 -27 -285 L-15 -326 C155 -285 303 -152 303 22 C303 99 268 209 178 209 C115 209 60 143 60 79 C60 26 93 -15 141 -15 C187 -15 228 21 246 66 C253 46 254 27 254 9 L254 9 Z M375 743 C375 796 339 833 292 833 C224 833 170 765 170 699 C170 647 207 609 255 609 C323 609 375 680 375 743 L375 743 Z " />
<glyph glyph-name="less" unicode="&#x3c;" horiz-adv-x="823" d="M621 7 L675 73 C675 73 301 359 177 455 L784 841 L736 909 L107 508 C86 494 69 476 69 453 C69 438 78 423 94 411 L621 7 Z " />
<glyph glyph-name="equal" unicode="&#x3d;" horiz-adv-x="1042" d="M125 539 L941 539 L954 619 L138 619 L125 539 Z M86 299 L902 299 L915 379 L99 379 L86 299 Z " />
<glyph glyph-name="greater" unicode="&#x3e;" horiz-adv-x="823" d="M207 909 L153 843 C153 843 527 557 651 461 L44 75 L92 7 L721 408 C742 422 759 440 759 463 C759 478 750 493 734 505 L207 909 Z " />
<glyph glyph-name="question" unicode="&#x3f;" horiz-adv-x="823" d="M128 944 L178 944 C212 1160 301 1306 507 1306 C607 1306 688 1234 688 1136 C688 1062 641 1008 589 965 L409 817 C322 745 269 648 249 518 C242 476 236 425 230 387 L292 387 C313 517 350 561 458 647 L617 774 C718 854 793 977 793 1103 C793 1257 660 1363 518 1363 C406 1363 301 1322 176 1250 L128 944 Z M254 209 C181 209 132 136 132 74 C132 23 172 -15 217 -15 C289 -15 337 59 337 119 C337 170 299 209 254 209 L254 209 Z " />
<glyph glyph-name="at" unicode="&#x40;" horiz-adv-x="1551" d="M769 1076 C848 1076 919 993 920 803 C920 700 891 573 859 489 C821 392 753 272 651 272 C562 272 526 397 526 549 C526 782 616 1076 769 1076 L769 1076 Z M1134 1097 L978 1097 L952 949 C928 1052 854 1127 745 1127 C480 1127 366 819 366 604 C366 434 422 219 627 219 C735 219 818 301 862 388 C891 278 967 218 1071 218 C1314 218 1431 460 1431 664 C1431 1044 1137 1353 775 1353 C413 1353 120 1044 120 664 C120 284 413 -25 775 -25 C912 -25 1038 18 1143 93 L1098 155 C1004 86 900 47 775 47 C453 47 192 323 192 664 C192 1005 453 1281 775 1281 C1097 1281 1359 1005 1359 664 C1359 509 1268 283 1097 283 C1029 283 1009 344 1009 401 C1009 418 1010 434 1013 448 L1134 1097 Z " />
<glyph glyph-name="A" unicode="A" horiz-adv-x="1194" d="M293 438 L731 438 L774 153 C775 145 776 137 776 130 C775 79 739 49 689 47 L631 45 L624 0 L1121 0 L1127 45 L1098 47 C1036 52 973 73 955 186 L775 1338 L633 1338 L116 170 C81 91 17 49 -37 47 L-78 45 L-85 0 L266 0 L273 45 L230 45 C176 45 153 69 153 103 C153 117 158 134 166 151 L293 438 Z M315 488 L621 1181 L724 488 L315 488 Z " />
<glyph glyph-name="B" unicode="B" horiz-adv-x="1167" d="M529 682 C701 682 846 619 846 435 C846 207 655 55 445 55 L322 55 L411 682 L529 682 Z M598 1282 C740 1282 874 1231 874 1076 C874 875 728 730 517 730 L417 730 L495 1282 L598 1282 Z M5 0 L462 0 C731 0 1030 102 1030 402 C1030 586 896 694 728 710 L728 717 C899 751 1057 863 1057 1039 C1057 1267 817 1338 605 1338 L194 1338 L188 1293 C272 1292 317 1283 317 1228 C317 1222 316 1215 315 1207 L163 131 C153 57 105 46 11 45 L5 0 Z " />
<glyph glyph-name="C" unicode="C" horiz-adv-x="1152" d="M576 -25 C700 -25 830 8 946 79 L989 386 L935 386 C921 290 895 215 856 160 C800 80 693 36 587 36 C343 36 283 260 283 476 C283 783 377 1303 782 1303 C938 1303 1022 1205 1022 1047 C1022 1016 1019 985 1015 952 L1069 952 L1112 1259 C1012 1325 889 1363 763 1363 C313 1363 95 977 95 564 C95 265 244 -25 576 -25 L576 -25 Z " />
<glyph glyph-name="D" unicode="D" horiz-adv-x="1317" d="M322 55 L495 1284 L594 1284 C897 1284 1014 1112 1014 816 C1014 439 876 55 463 55 L322 55 Z M5 0 L497 0 C972 0 1207 339 1207 787 C1207 1127 1006 1338 656 1338 L194 1338 L188 1293 C272 1292 317 1283 317 1228 C317 1222 316 1215 315 1207 L163 131 C153 57 105 46 11 45 L5 0 Z " />
<glyph glyph-name="E" unicode="E" horiz-adv-x="1095" d="M882 0 L968 332 L911 332 C854 128 807 55 698 55 L321 55 L410 682 L563 682 C641 682 667 662 667 591 C667 566 663 535 658 496 L712 496 L772 917 L717 917 C696 768 675 731 570 731 L417 731 L495 1283 L872 1283 C963 1283 990 1238 990 1098 L1045 1098 L1045 1338 L194 1338 L188 1293 C272 1292 317 1283 317 1228 C317 1222 316 1215 315 1207 L163 131 C153 57 105 46 11 45 L5 0 L882 0 Z " />
<glyph glyph-name="F" unicode="F" horiz-adv-x="997" d="M410 682 L563 682 C641 682 667 662 667 591 C667 566 663 535 658 496 L712 496 L772 917 L717 917 C696 768 675 731 570 731 L417 731 L495 1283 L872 1283 C963 1283 990 1238 990 1098 L1045 1098 L1045 1338 L194 1338 L188 1293 C272 1292 317 1283 317 1228 C317 1222 316 1215 315 1207 L163 131 C153 57 105 46 11 45 L5 0 L486 0 L492 45 L459 45 C375 45 330 55 330 110 C330 115 331 122 332 129 L410 682 Z " />
<glyph glyph-name="G" unicode="G" horiz-adv-x="1239" d="M1109 1254 C1012 1323 892 1363 759 1363 C438 1363 95 1117 95 563 C95 219 278 -25 579 -25 C724 -25 914 37 1031 171 L1097 638 L796 638 L788 585 L848 585 C899 585 914 573 914 539 C914 528 913 516 911 501 L874 237 C856 109 737 31 606 31 C349 31 281 242 281 470 C281 1046 512 1306 762 1306 C952 1306 1031 1191 1032 1000 C1032 985 1032 970 1031 954 L1085 954 L1109 1254 L1109 1254 Z " />
<glyph glyph-name="H" unicode="H" horiz-adv-x="1377" d="M1397 1338 L949 1338 L943 1293 C1027 1292 1072 1283 1072 1228 C1072 1222 1071 1215 1070 1207 L1003 732 L417 732 L484 1207 C494 1281 542 1292 636 1293 L642 1338 L194 1338 L188 1293 C272 1292 317 1283 317 1228 C317 1222 316 1215 315 1207 L163 131 C153 57 105 46 11 45 L5 0 L453 0 L459 45 C375 46 330 55 330 110 C330 116 331 123 332 131 L410 682 L996 682 L918 131 C908 57 860 46 766 45 L760 0 L1208 0 L1214 45 C1130 46 1085 55 1085 110 C1085 116 1086 123 1087 131 L1239 1207 C1249 1281 1297 1292 1391 1293 L1397 1338 Z " />
<glyph glyph-name="I" unicode="I" horiz-adv-x="622" d="M642 1338 L194 1338 L188 1293 C272 1292 317 1283 317 1228 C317 1222 316 1215 315 1207 L163 131 C153 57 105 46 11 45 L5 0 L453 0 L459 45 C375 46 330 55 330 110 C330 116 331 123 332 131 L484 1207 C494 1281 542 1292 636 1293 L642 1338 Z " />
<glyph glyph-name="J" unicode="J" horiz-adv-x="773" d="M-18 294 L-52 58 C29 5 113 -25 198 -25 C391 -25 490 114 514 281 L645 1207 C655 1281 703 1292 797 1293 L803 1338 L355 1338 L349 1293 C433 1292 478 1283 478 1228 C478 1222 477 1215 476 1207 L333 194 C318 92 242 36 170 36 C98 36 31 91 31 209 C31 223 32 238 34 254 L39 294 L-18 294 Z " />
<glyph glyph-name="K" unicode="K" horiz-adv-x="1219" d="M642 1338 L194 1338 L188 1293 C272 1292 317 1283 317 1228 C317 1222 316 1215 315 1207 L163 131 C153 57 105 46 11 45 L5 0 L453 0 L459 45 C375 46 330 55 330 110 C330 116 331 123 332 131 L403 639 L475 711 L803 136 C814 117 820 100 820 85 C819 63 803 45 758 45 L706 45 L700 0 L1146 0 L1152 45 L1124 45 C1071 45 1023 84 991 141 L597 834 L1054 1293 L1198 1293 L1204 1338 L854 1338 L848 1293 L986 1293 L413 710 L484 1207 C494 1281 542 1292 636 1293 L642 1338 Z " />
<glyph glyph-name="L" unicode="L" horiz-adv-x="1011" d="M895 0 L946 356 L880 356 C839 144 773 65 664 65 L322 65 L484 1207 C494 1281 542 1292 636 1293 L642 1338 L194 1338 L188 1293 C272 1292 317 1283 317 1228 C317 1222 316 1215 315 1207 L163 131 C153 57 105 46 11 45 L5 0 L895 0 Z " />
<glyph glyph-name="M" unicode="M" horiz-adv-x="1540" d="M515 1338 L194 1338 L188 1293 C272 1292 317 1283 317 1228 C317 1222 316 1215 315 1207 L163 131 C153 57 105 46 11 45 L5 0 L345 0 L351 45 C267 46 222 55 222 110 C222 116 223 123 224 131 L375 1198 L647 40 L678 40 L1231 1197 L1081 131 C1071 57 1023 46 929 45 L923 0 L1371 0 L1377 45 C1293 46 1248 55 1248 110 C1248 116 1249 123 1250 131 L1402 1207 C1412 1281 1460 1292 1554 1293 L1560 1338 L1235 1338 L751 338 L515 1338 Z " />
<glyph glyph-name="N" unicode="N" horiz-adv-x="1316" d="M5 0 L365 0 L372 45 L351 45 C267 46 222 55 222 110 C222 116 223 123 224 131 L377 1217 L917 -20 L994 -20 L1168 1207 C1178 1281 1226 1292 1320 1293 L1326 1338 L970 1338 L963 1293 L992 1293 C1067 1293 1113 1281 1113 1228 C1113 1222 1112 1215 1111 1207 L978 269 L508 1338 L194 1338 L188 1293 C272 1292 317 1283 317 1228 C317 1222 316 1215 315 1207 L163 131 C153 57 105 46 11 45 L5 0 Z " />
<glyph glyph-name="O" unicode="O" horiz-adv-x="1267" d="M1152 669 C1158 721 1162 774 1162 831 C1162 1142 1018 1363 737 1363 C438 1363 161 1104 105 669 C98 617 94 564 94 507 C94 196 238 -25 519 -25 C818 -25 1095 234 1152 669 L1152 669 Z M946 636 C910 338 833 36 516 36 C320 36 269 176 269 336 C269 453 286 562 311 702 C363 997 423 1302 740 1302 C936 1302 987 1162 987 1002 C987 885 963 777 946 636 L946 636 Z " />
<glyph glyph-name="P" unicode="P" horiz-adv-x="1071" d="M404 642 L496 1285 L619 1285 C789 1285 881 1193 881 1037 C881 770 698 642 482 642 L404 642 Z M5 0 L510 0 L516 45 L446 45 C374 45 330 57 330 110 C330 116 331 123 332 131 L397 590 C439 589 481 587 523 587 C595 587 666 592 733 611 C925 665 1063 827 1063 1032 C1063 1136 1019 1230 920 1283 C855 1318 765 1338 644 1338 L194 1338 L188 1293 C272 1292 317 1283 317 1228 C317 1222 316 1215 315 1207 L163 131 C153 57 105 46 11 45 L5 0 Z " />
<glyph glyph-name="Q" unicode="Q" horiz-adv-x="1267" d="M478 -92 L1012 -92 L902 -189 L463 -189 L478 -92 Z M1152 669 C1158 721 1162 774 1162 831 C1162 1142 1018 1363 737 1363 C438 1363 161 1104 105 669 C98 617 94 564 94 507 C94 196 238 -25 519 -25 C818 -25 1095 234 1152 669 L1152 669 Z M946 636 C910 338 833 36 516 36 C320 36 269 176 269 336 C269 453 286 562 311 702 C363 997 423 1302 740 1302 C936 1302 987 1162 987 1002 C987 885 963 777 946 636 L946 636 Z " />
<glyph glyph-name="R" unicode="R" horiz-adv-x="1154" d="M617 1284 C786 1284 860 1165 860 1044 C859 885 726 709 503 709 L413 709 L494 1284 L617 1284 Z M831 0 L1092 0 L1099 45 L993 45 L704 673 C914 735 1035 897 1035 1053 C1035 1198 932 1338 663 1338 L194 1338 L188 1293 C272 1292 317 1283 317 1228 C317 1222 316 1215 315 1207 L163 131 C153 57 105 46 11 45 L5 0 L491 0 L497 45 L446 45 C374 45 330 57 330 110 C330 116 331 123 332 131 L406 650 L528 650 L831 0 Z " />
<glyph glyph-name="S" unicode="S" horiz-adv-x="1054" d="M954 1242 C861 1324 746 1363 625 1363 C389 1363 175 1233 175 987 C175 834 268 715 397 652 L594 556 C681 514 738 433 738 344 C738 166 607 37 440 37 C221 37 149 193 149 401 C149 422 149 444 151 468 L97 468 L55 96 C159 23 276 -25 435 -25 C692 -25 914 125 914 380 C914 541 804 651 672 717 L470 817 C383 860 332 951 332 1044 C332 1207 477 1305 618 1305 C796 1305 874 1177 874 1015 C874 995 873 974 870 952 L924 952 L954 1242 Z " />
<glyph glyph-name="T" unicode="T" horiz-adv-x="934" d="M823 1286 C945 1286 968 1226 968 1022 L1022 1022 L1034 1338 L129 1338 L40 1022 L95 1022 C155 1226 214 1286 323 1286 L478 1286 L315 131 C305 57 257 46 163 45 L157 0 L605 0 L611 45 C527 46 482 55 482 110 C482 116 483 123 484 131 L647 1286 L823 1286 Z " />
<glyph glyph-name="U" unicode="U" horiz-adv-x="1287" d="M955 1293 L966 1293 C1050 1292 1095 1283 1095 1228 C1095 1222 1094 1215 1093 1207 L981 418 C949 190 798 44 594 44 C454 44 365 119 365 310 C365 350 370 395 377 446 L487 1207 C497 1277 542 1293 622 1293 L657 1293 L664 1338 L194 1338 L188 1293 C272 1292 317 1283 317 1228 C317 1222 316 1215 315 1207 L210 462 C202 407 198 356 198 310 C198 95 321 -25 577 -25 C839 -25 1004 151 1044 427 L1157 1207 C1168 1281 1212 1292 1306 1293 L1312 1338 L962 1338 L955 1293 Z " />
<glyph glyph-name="V" unicode="V" horiz-adv-x="1184" d="M583 172 L428 1164 C426 1176 425 1188 425 1198 C425 1269 468 1289 510 1291 L568 1293 L574 1338 L96 1338 L90 1293 L118 1291 C180 1286 239 1264 257 1154 L439 0 L568 0 L1106 1163 C1142 1242 1207 1289 1261 1291 L1301 1293 L1309 1338 L957 1338 L949 1293 L992 1293 C1045 1293 1067 1269 1067 1237 C1066 1222 1062 1205 1053 1188 L583 172 Z " />
<glyph glyph-name="W" unicode="W" horiz-adv-x="1813" d="M1214 172 L1059 1164 C1057 1177 1056 1191 1056 1204 C1056 1254 1081 1289 1141 1291 L1199 1293 L1205 1338 L726 1338 L719 1293 L748 1291 C809 1286 869 1264 886 1154 L924 912 L584 172 L429 1164 C427 1177 426 1190 426 1201 C426 1272 468 1289 511 1291 L569 1293 L575 1338 L96 1338 L90 1293 L118 1291 C180 1286 239 1264 257 1154 L440 0 L569 0 L941 807 L1069 0 L1199 0 L1736 1163 C1772 1242 1837 1289 1890 1291 L1930 1293 L1938 1338 L1586 1338 L1579 1293 L1622 1293 C1672 1293 1696 1271 1696 1236 C1696 1222 1691 1206 1683 1188 L1214 172 Z " />
<glyph glyph-name="X" unicode="X" horiz-adv-x="1225" d="M684 798 L514 1189 C508 1203 504 1217 504 1228 C504 1274 531 1293 577 1293 L651 1293 L658 1338 L144 1338 L137 1293 L165 1293 C261 1293 294 1270 344 1156 L563 653 L54 45 L-78 45 L-85 0 L303 0 L310 45 L136 45 L591 589 L782 151 C790 133 793 116 793 103 C793 65 758 45 712 45 L645 45 L639 0 L1153 0 L1159 45 L1131 47 C1035 54 1002 69 952 184 L712 734 L1179 1293 L1313 1293 L1320 1338 L931 1338 L924 1293 L1099 1293 L684 798 Z " />
<glyph glyph-name="Y" unicode="Y" horiz-adv-x="1085" d="M224 0 L667 0 L674 45 C590 46 548 55 548 111 C548 117 550 132 551 139 L605 531 L1069 1293 L1203 1293 L1210 1338 L841 1338 L835 1293 L1009 1293 L581 594 L437 1175 C431 1198 428 1217 428 1232 C428 1286 462 1293 493 1293 L567 1293 L573 1338 L97 1338 L90 1293 L119 1293 C200 1293 241 1261 267 1156 L434 493 L384 131 C374 57 325 46 231 45 L224 0 Z " />
<glyph glyph-name="Z" unicode="Z" horiz-adv-x="1115" d="M952 0 L1035 356 L979 356 C966 308 952 265 936 229 C884 110 811 54 687 54 L214 54 L1141 1299 L1145 1338 L225 1338 L142 981 L198 981 C217 1054 242 1113 267 1160 C320 1258 394 1285 501 1285 L921 1285 L-10 37 L-15 0 L952 0 Z " />
<glyph glyph-name="bracketleft" unicode="&#x5b;" horiz-adv-x="480" d="M542 1363 L288 1363 L32 -451 L286 -451 L293 -399 L106 -399 L348 1311 L535 1311 L542 1363 Z " />
<glyph glyph-name="backslash" unicode="&#x5c;" horiz-adv-x="796" d="M838 -89 L36 1407 L-34 1407 L769 -89 L838 -89 Z " />
<glyph glyph-name="bracketright" unicode="&#x5d;" horiz-adv-x="480" d="M-92 -451 L162 -451 L418 1363 L164 1363 L157 1311 L344 1311 L102 -399 L-85 -399 L-92 -451 Z " />
<glyph glyph-name="asciicircum" unicode="&#x5e;" horiz-adv-x="1294" d="M894 102 L219 102 L635 598 L894 102 Z M398 1236 L1074 1236 L658 740 L398 1236 Z M696 669 L1123 1179 L962 158 L696 669 Z M332 1181 L598 669 L170 159 L332 1181 Z M947 0 C998 0 1044 41 1052 91 L1235 1247 C1236 1252 1236 1256 1236 1261 C1236 1304 1204 1338 1158 1338 L346 1338 C295 1338 249 1297 241 1247 L58 91 C57 86 57 82 57 77 C57 34 89 0 135 0 L947 0 Z " />
<glyph glyph-name="underscore" unicode="&#x5f;" horiz-adv-x="1100" d="M96 -198 L995 -198 L1004 -129 L105 -129 L96 -198 Z " />
<glyph glyph-name="grave" unicode="&#x60;" horiz-adv-x="577" d="M462 1026 L115 1371 L115 1196 L364 1026 L462 1026 Z " />
<glyph glyph-name="a" unicode="a" horiz-adv-x="979" d="M463 827 C542 827 613 744 614 554 C614 451 585 324 553 240 C515 143 447 23 345 23 C256 23 220 148 220 300 C220 533 310 827 463 827 L463 827 Z M672 848 L646 700 C622 803 548 878 439 878 C174 878 60 570 60 355 C60 185 116 -30 321 -30 C429 -30 512 52 556 139 C555 130 555 122 555 116 C555 36 581 -30 681 -30 C800 -30 879 102 919 202 L870 202 C849 160 820 105 786 71 C769 54 746 42 727 42 C700 42 692 67 692 97 C692 122 704 182 707 199 L828 848 L672 848 Z " />
<glyph glyph-name="b" unicode="b" horiz-adv-x="920" d="M240 248 C240 313 247 382 263 447 C294 575 375 822 529 822 C635 822 641 660 641 590 C640 419 587 198 496 85 C459 39 409 12 364 12 C251 12 240 169 240 248 L240 248 Z M107 406 C101 369 95 328 95 290 C95 54 221 -30 378 -30 C639 -30 800 265 800 532 C800 687 748 878 567 878 C453 878 364 803 314 709 L421 1338 L163 1338 L156 1302 L181 1302 C232 1302 249 1292 250 1258 C250 1246 246 1219 243 1201 L107 406 Z " />
<glyph glyph-name="c" unicode="c" horiz-adv-x="782" d="M488 878 C203 878 60 611 60 351 C60 150 158 -30 352 -30 C517 -30 618 64 676 202 L623 202 C575 101 492 20 384 20 C234 20 230 181 230 295 C230 495 283 839 498 839 C600 839 647 764 647 673 C647 654 645 632 641 609 L681 609 L717 811 C647 857 566 878 488 878 L488 878 Z " />
<glyph glyph-name="d" unicode="d" horiz-adv-x="999" d="M468 827 C547 827 618 744 619 554 C619 451 590 324 558 240 C520 143 452 23 350 23 C261 23 225 148 225 300 C225 533 315 827 468 827 L468 827 Z M651 1302 L676 1302 C727 1302 744 1292 745 1258 C745 1246 741 1219 738 1201 L651 700 C627 803 553 878 444 878 C179 878 65 570 65 355 C65 185 121 -30 326 -30 C434 -30 517 52 561 139 C560 130 560 122 560 116 C560 36 596 -30 696 -30 C815 -30 894 102 934 202 L885 202 C864 160 835 105 801 71 C784 54 761 42 742 42 C715 42 707 67 707 97 C707 122 719 182 722 199 L916 1338 L658 1338 L651 1302 Z " />
<glyph glyph-name="e" unicode="e" horiz-adv-x="810" d="M243 488 C272 694 357 839 466 839 C552 839 581 759 581 688 C581 612 550 531 499 490 C461 460 414 447 369 447 C323 447 276 462 243 488 L243 488 Z M635 202 C579 104 492 20 380 20 C244 20 221 189 221 287 C221 342 223 393 233 439 C285 414 344 403 402 403 C553 403 723 480 723 647 C723 794 599 878 468 878 C197 878 55 596 55 348 C55 165 152 -30 355 -30 C524 -30 631 78 695 202 L635 202 Z " />
<glyph glyph-name="f" unicode="f" horiz-adv-x="503" d="M79 812 L153 812 C173 812 183 803 183 782 C183 777 183 771 182 765 L9 -219 C-14 -352 -74 -408 -144 -414 L-150 -450 C-17 -448 137 -379 181 -126 L345 812 L544 812 L550 848 L351 848 L374 974 C391 1066 409 1134 429 1185 C451 1240 490 1311 562 1311 C616 1311 629 1253 629 1205 C629 1179 624 1154 621 1127 L661 1127 L687 1282 C659 1318 609 1350 550 1350 C398 1350 257 1213 207 914 L196 848 L84 848 L79 812 Z " />
<glyph glyph-name="g" unicode="g" horiz-adv-x="843" d="M419 837 C499 837 557 797 557 623 C557 510 508 294 372 294 C289 294 228 332 228 488 C228 611 262 837 419 837 L419 837 Z M39 -109 L-5 -339 C63 -390 211 -450 353 -450 C562 -450 735 -350 735 -147 C735 -18 673 54 512 79 L316 109 C218 124 163 133 163 188 C163 217 184 258 246 281 C281 261 325 253 371 253 C573 253 704 421 704 593 C704 628 697 663 685 696 C694 753 751 813 823 813 L847 813 L853 848 L669 848 L640 774 C591 835 514 878 414 878 C231 878 79 746 79 560 C79 436 128 357 203 304 C103 271 38 196 38 124 C38 46 88 -7 204 -25 L466 -65 C605 -86 644 -126 644 -206 C644 -342 508 -403 342 -403 C186 -403 71 -307 71 -159 C71 -142 72 -126 75 -109 L39 -109 Z " />
<glyph glyph-name="h" unicode="h" horiz-adv-x="989" d="M267 367 C279 435 308 521 344 584 C383 652 487 824 586 824 C639 824 657 773 657 726 C657 685 650 642 645 616 L574 269 C564 220 555 151 555 116 C555 36 591 -30 691 -30 C810 -30 889 102 929 202 L880 202 C859 160 830 105 796 71 C779 54 756 42 737 42 C710 42 702 67 702 97 C702 122 713 176 716 193 L788 564 C797 611 802 662 802 704 C802 809 748 878 630 878 C483 878 384 751 310 614 L433 1338 L175 1338 L168 1302 L193 1302 C244 1302 261 1292 262 1258 C262 1246 258 1219 255 1201 L50 0 L203 0 L267 367 Z " />
<glyph glyph-name="i" unicode="i" horiz-adv-x="517" d="M87 813 L112 813 C163 813 180 802 181 768 C181 756 177 729 174 711 L98 269 C93 237 85 176 85 140 C85 49 115 -30 240 -30 C379 -30 453 102 488 202 L439 202 C416 151 368 42 292 42 C245 42 233 83 233 125 C233 150 238 181 241 199 L352 848 L94 848 L87 813 Z M333 1350 C272 1350 236 1272 236 1222 C236 1160 269 1134 309 1134 C370 1134 406 1212 406 1262 C406 1324 373 1350 333 1350 L333 1350 Z " />
<glyph glyph-name="j" unicode="j" horiz-adv-x="465" d="M336 1350 C275 1350 239 1272 239 1222 C239 1160 272 1134 312 1134 C373 1134 409 1212 409 1262 C409 1324 376 1350 336 1350 L336 1350 Z M-122 -450 C17 -450 152 -340 198 -71 L355 848 L97 848 L90 813 L115 813 C166 813 183 802 184 768 C184 756 180 729 177 711 L46 -60 C25 -185 8 -405 -128 -405 C-191 -405 -203 -338 -203 -286 C-203 -268 -202 -249 -199 -227 L-239 -227 L-261 -382 C-233 -418 -181 -450 -122 -450 L-122 -450 Z " />
<glyph glyph-name="k" unicode="k" horiz-adv-x="894" d="M299 507 C310 508 321 508 330 508 C404 505 438 452 459 349 L511 89 C524 23 562 -30 639 -30 C763 -30 833 85 864 202 L816 202 C783 100 742 56 712 56 C671 56 652 107 636 204 L617 317 C594 452 542 519 399 524 L399 528 C570 551 612 813 795 813 L821 813 L828 848 L608 848 C574 749 480 555 350 555 C335 555 322 555 307 560 L447 1338 L176 1338 L169 1302 L195 1302 C249 1302 266 1292 267 1258 C267 1246 263 1219 260 1201 L46 0 L209 0 L299 507 Z " />
<glyph glyph-name="l" unicode="l" horiz-adv-x="523" d="M165 1302 L190 1302 C241 1302 258 1292 259 1258 C259 1246 255 1219 252 1201 L93 269 C88 237 80 176 80 140 C80 49 110 -30 235 -30 C374 -30 448 102 483 202 L434 202 C411 151 363 42 287 42 C240 42 228 83 228 125 C228 150 233 181 236 199 L430 1338 L172 1338 L165 1302 Z " />
<glyph glyph-name="m" unicode="m" horiz-adv-x="1407" d="M208 0 L264 319 C283 427 317 525 370 622 C412 699 490 823 569 823 C616 823 629 783 629 738 C629 692 616 640 612 616 L507 0 L663 0 L734 424 C747 503 773 606 818 674 C867 747 936 824 1003 824 C1063 824 1075 766 1075 716 C1075 681 1068 646 1062 616 L991 269 C981 220 972 151 972 116 C972 36 1008 -30 1108 -30 C1227 -30 1306 102 1346 202 L1297 202 C1276 160 1247 105 1213 71 C1196 54 1173 42 1154 42 C1127 42 1119 67 1119 97 C1119 122 1130 176 1133 193 L1205 564 C1214 611 1219 662 1219 704 C1219 809 1165 878 1047 878 C927 878 839 793 771 688 C772 699 773 710 773 720 C773 818 717 878 617 878 C471 878 377 751 315 614 L354 848 L96 848 L89 812 L114 812 C165 812 182 802 183 768 C183 756 179 729 176 711 L55 0 L208 0 Z " />
<glyph glyph-name="n" unicode="n" horiz-adv-x="994" d="M272 367 C284 435 313 521 349 584 C388 652 492 824 591 824 C644 824 662 773 662 726 C662 685 655 642 650 616 L579 269 C569 220 560 151 560 116 C560 36 596 -30 696 -30 C815 -30 894 102 934 202 L885 202 C864 160 835 105 801 71 C784 54 761 42 742 42 C715 42 707 67 707 97 C707 122 718 176 721 193 L793 564 C802 611 807 662 807 704 C807 809 753 878 635 878 C488 878 389 751 315 614 L355 847 L97 847 L90 811 L115 811 C166 811 183 801 184 767 C184 755 180 728 177 710 L55 0 L208 0 L272 367 Z " />
<glyph glyph-name="o" unicode="o" horiz-adv-x="880" d="M470 878 C181 878 55 583 55 325 C55 137 160 -30 369 -30 C635 -30 775 269 775 500 C775 695 686 878 470 878 L470 878 Z M212 231 C212 394 247 835 474 835 C588 835 618 709 618 617 C618 454 583 13 356 13 C241 13 212 138 212 231 L212 231 Z " />
<glyph glyph-name="p" unicode="p" horiz-adv-x="953" d="M349 848 L99 848 L92 813 L116 813 C167 813 183 804 183 770 C183 758 181 743 178 724 L-2 -330 C-15 -403 -38 -415 -100 -415 L-125 -415 L-133 -450 L238 -450 L245 -415 L216 -415 C163 -415 148 -401 148 -368 C148 -357 150 -340 152 -330 L233 137 C257 32 329 -30 430 -30 C711 -30 843 283 843 513 C843 694 761 877 575 877 C472 877 370 812 330 721 L349 848 Z M321 605 C359 706 440 827 556 827 C672 827 683 682 683 600 C683 444 646 23 412 23 C287 23 263 189 263 279 C263 391 288 519 321 605 L321 605 Z " />
<glyph glyph-name="q" unicode="q" horiz-adv-x="958" d="M473 827 C552 827 623 744 624 554 C624 451 595 324 563 240 C525 143 457 23 355 23 C266 23 230 148 230 300 C230 533 320 827 473 827 L473 827 Z M682 848 L656 700 C632 803 558 878 449 878 C184 878 70 570 70 355 C70 185 126 -30 331 -30 C435 -30 515 46 560 129 L482 -330 C469 -403 446 -415 384 -415 L359 -415 L351 -450 L722 -450 L729 -415 L700 -415 C647 -415 632 -401 632 -368 C632 -357 634 -340 636 -330 L838 848 L682 848 Z " />
<glyph glyph-name="r" unicode="r" horiz-adv-x="717" d="M210 0 L274 383 C296 516 376 778 551 778 C632 778 654 700 654 629 C654 622 653 615 653 609 L693 609 L727 810 C695 852 641 877 586 877 C454 877 374 775 322 661 L354 848 L96 848 L89 812 L114 812 C165 812 182 802 183 768 C183 756 179 729 176 711 L55 0 L210 0 Z " />
<glyph glyph-name="s" unicode="s" horiz-adv-x="709" d="M387 878 C202 878 121 759 121 639 C121 562 143 485 230 414 L349 317 C399 276 444 219 444 149 C444 60 359 11 275 11 C148 11 75 91 75 213 C75 233 78 263 81 289 L41 289 L0 50 C77 4 153 -30 291 -30 C470 -30 573 72 573 202 C573 299 552 365 423 469 L288 578 C249 609 231 652 231 694 C231 768 290 840 385 840 C489 840 561 770 561 668 C561 650 560 632 555 612 L595 612 L629 809 C565 848 469 878 387 878 L387 878 Z " />
<glyph glyph-name="t" unicode="t" horiz-adv-x="581" d="M70 813 L200 813 L107 269 C102 237 94 176 94 140 C94 97 105 56 130 25 C162 -15 206 -30 253 -30 C386 -30 518 72 571 202 L522 202 C492 139 394 43 316 43 C258 43 244 92 244 140 C244 162 247 183 250 199 L354 813 L562 813 L568 849 L360 849 L412 1151 L258 1151 L206 849 L77 849 L70 813 Z " />
<glyph glyph-name="u" unicode="u" horiz-adv-x="1000" d="M349 848 L91 848 L84 812 L109 812 C160 812 177 802 178 768 C178 756 174 729 171 711 L95 263 C89 226 85 191 85 157 C85 48 135 -31 249 -31 C411 -31 512 124 577 249 C572 216 567 169 567 140 C567 49 597 -30 722 -30 C861 -30 935 102 970 202 L921 202 C898 151 850 42 774 42 C727 42 715 83 715 125 C715 150 720 181 723 199 L834 848 L679 848 L628 549 C589 322 485 147 393 68 C357 37 320 19 291 19 C239 19 230 70 230 114 C230 196 251 265 262 331 L349 848 Z " />
<glyph glyph-name="v" unicode="v" horiz-adv-x="887" d="M354 848 L96 848 L89 812 L114 812 C165 812 182 802 183 768 C183 756 179 729 176 711 L91 215 C87 194 85 171 85 148 C85 44 144 -30 256 -30 C344 -30 431 9 504 67 C689 216 792 470 792 700 C792 749 786 797 772 848 L564 848 L560 812 C642 812 715 786 715 619 C715 396 590 201 468 98 C422 59 352 21 305 21 C248 21 233 70 233 120 C233 138 235 156 238 172 L354 848 Z " />
<glyph glyph-name="w" unicode="w" horiz-adv-x="1333" d="M468 98 C422 59 352 21 305 21 C248 21 233 70 233 120 C233 138 235 156 238 172 L354 848 L96 848 L89 812 L114 812 C165 812 182 802 183 768 C183 756 179 729 176 711 L91 215 C87 194 85 171 85 148 C85 44 144 -30 256 -30 C344 -30 431 9 504 67 C515 76 526 85 537 95 C554 20 610 -30 702 -30 C790 -30 877 9 950 67 C1135 216 1238 470 1238 700 C1238 749 1232 797 1218 848 L1010 848 L1006 812 C1088 812 1161 786 1161 619 C1161 396 1036 201 914 98 C868 59 798 21 751 21 C694 21 679 70 679 120 C679 138 681 156 684 172 L800 848 L542 848 L535 812 L560 812 C611 812 628 802 629 768 C629 756 625 729 622 711 L533 161 C512 138 490 116 468 98 L468 98 Z " />
<glyph glyph-name="x" unicode="x" horiz-adv-x="799" d="M323 848 L81 848 L77 813 L124 811 C159 810 180 792 192 743 L282 374 L129 153 C66 63 17 35 -50 35 L-79 35 L-85 0 L84 0 L297 312 L342 130 C359 60 383 -30 474 -30 C604 -30 696 94 759 202 L708 202 C683 160 607 50 552 50 C531 50 512 67 501 114 L405 509 L515 669 C577 760 645 813 748 813 L756 848 L575 848 L389 573 L323 848 Z " />
<glyph glyph-name="y" unicode="y" horiz-adv-x="835" d="M-34 -290 L-60 -317 L69 -450 C377 -283 618 149 694 467 C712 542 720 619 720 693 C720 745 715 797 704 848 L500 848 L496 813 C615 813 643 706 643 595 C643 423 567 236 477 77 L242 848 L5 848 L1 813 L47 811 C82 809 99 792 114 744 L342 0 L431 0 C364 -109 279 -229 184 -300 C147 -327 110 -342 74 -342 C32 -342 -8 -320 -34 -290 L-34 -290 Z " />
<glyph glyph-name="z" unicode="z" horiz-adv-x="698" d="M669 80 C645 77 624 75 605 75 C568 75 537 81 505 92 C406 127 325 174 230 174 C200 174 172 169 145 158 L673 805 L662 848 L96 848 L75 722 L538 722 L80 159 C52 125 -5 73 -5 34 C-5 11 8 0 26 0 C70 0 93 44 190 44 C215 44 243 39 285 27 C362 5 439 -30 520 -30 C604 -30 645 11 669 80 L669 80 Z " />
<glyph glyph-name="braceleft" unicode="&#x7b;" horiz-adv-x="555" d="M65 426 C142 426 182 375 184 285 C184 265 182 244 179 220 L120 -195 C116 -219 115 -242 115 -262 C117 -402 204 -450 306 -450 L361 -450 L370 -388 L320 -388 C246 -388 185 -352 183 -248 C183 -232 184 -215 187 -195 L246 220 C249 245 251 269 251 291 C249 369 221 422 179 452 C246 483 296 580 312 694 L371 1109 C392 1255 473 1302 558 1302 L608 1302 L617 1364 L562 1364 C445 1364 331 1301 304 1109 L245 694 C227 564 167 488 73 488 L65 426 Z " />
<glyph glyph-name="bar" unicode="&#x7c;" horiz-adv-x="470" d="M270 -450 L270 1337 L200 1337 L200 -450 L270 -450 Z " />
<glyph glyph-name="braceright" unicode="&#x7d;" horiz-adv-x="555" d="M460 488 C383 488 343 539 341 629 C341 649 343 670 346 694 L405 1109 C409 1133 410 1156 410 1176 C408 1316 321 1364 219 1364 L164 1364 L155 1302 L205 1302 C279 1302 340 1266 342 1162 C342 1146 341 1129 338 1109 L279 694 C276 669 274 645 274 623 C276 545 304 492 346 462 C279 431 229 334 213 220 L154 -195 C133 -341 52 -388 -33 -388 L-83 -388 L-92 -450 L-37 -450 C80 -450 194 -387 221 -195 L280 220 C298 350 358 426 452 426 L460 488 Z " />
<glyph glyph-name="asciitilde" unicode="&#x7e;" horiz-adv-x="1294" d="M894 102 L219 102 L635 598 L894 102 Z M398 1236 L1074 1236 L658 740 L398 1236 Z M696 669 L1123 1179 L962 158 L696 669 Z M332 1181 L598 669 L170 159 L332 1181 Z M947 0 C998 0 1044 41 1052 91 L1235 1247 C1236 1252 1236 1256 1236 1261 C1236 1304 1204 1338 1158 1338 L346 1338 C295 1338 249 1297 241 1247 L58 91 C57 86 57 82 57 77 C57 34 89 0 135 0 L947 0 Z " />
<glyph glyph-name="exclamdown" unicode="&#xa1;" horiz-adv-x="526" d="M289 951 C209 521 88 211 72 113 C62 48 90 -20 166 -20 C242 -20 291 48 301 113 C317 211 294 521 350 951 L289 951 Z M344 1129 C417 1129 466 1202 466 1264 C466 1315 426 1353 381 1353 C309 1353 261 1279 261 1219 C261 1168 299 1129 344 1129 L344 1129 Z " />
<glyph glyph-name="cent" unicode="&#xa2;" horiz-adv-x="782" d="M375 -282 L411 -26 C544 -7 629 80 681 202 L628 202 C580 101 497 20 389 20 C239 20 235 181 235 295 C235 486 283 809 475 837 L532 837 C614 824 652 755 652 673 C652 654 650 632 646 609 L686 609 L722 811 C668 846 607 867 546 875 L580 1113 L496 1208 L449 875 C193 849 65 597 65 351 C65 165 148 -2 314 -27 L278 -282 L375 -282 Z " />
<glyph glyph-name="sterling" unicode="&#xa3;" horiz-adv-x="1011" d="M6 682 L241 682 L163 131 C153 57 105 46 11 45 L5 0 L895 0 L946 356 L880 356 C839 144 773 65 664 65 L322 65 L409 682 L666 682 L761 779 L423 779 L484 1207 C494 1281 542 1292 636 1293 L642 1338 L194 1338 L188 1293 C272 1292 317 1283 317 1228 C317 1222 316 1215 315 1207 L254 779 L19 779 L6 682 Z " />
<glyph glyph-name="yen" unicode="&#xa5;" horiz-adv-x="1085" d="M187 424 L424 424 L384 131 C374 57 325 46 231 45 L224 0 L667 0 L674 45 C590 46 548 55 548 111 C548 117 550 132 551 139 L590 424 L799 424 L895 521 L603 521 L605 531 L1069 1293 L1203 1293 L1210 1338 L841 1338 L835 1293 L1009 1293 L581 594 L437 1175 C431 1198 428 1217 428 1232 C428 1286 462 1293 493 1293 L567 1293 L573 1338 L97 1338 L90 1293 L119 1293 C200 1293 241 1261 267 1156 L427 521 L200 521 L187 424 Z " />
<glyph glyph-name="brokenbar" unicode="&#xa6;" horiz-adv-x="478" d="M270 498 L270 1337 L200 1337 L200 498 L270 498 Z M200 389 L200 -450 L270 -450 L270 389 L200 389 Z " />
<glyph glyph-name="section" unicode="&#xa7;" horiz-adv-x="921" d="M64 434 C64 337 125 275 248 183 L444 38 C563 -50 603 -104 603 -175 C603 -314 475 -399 352 -399 C194 -399 117 -282 117 -146 C117 -116 120 -83 125 -46 L70 -46 L30 -325 C132 -402 246 -450 368 -450 C563 -450 740 -310 740 -123 C740 -32 699 69 624 126 C742 211 871 336 871 480 C871 576 810 640 686 732 L489 877 C371 964 330 1018 330 1090 C330 1229 457 1313 579 1313 C733 1313 813 1202 813 1061 C813 1031 810 998 805 961 L860 961 L901 1239 C805 1318 683 1363 565 1363 C376 1363 194 1228 194 1035 C194 945 234 846 309 787 C190 704 64 578 64 434 L64 434 Z M346 758 L651 527 C694 495 730 448 730 389 C730 293 648 210 587 155 L283 387 C239 420 204 465 204 523 C204 618 282 701 346 758 L346 758 Z " />
<glyph glyph-name="dieresis" unicode="&#xa8;" horiz-adv-x="757" d="M240 1300 C179 1300 143 1222 143 1172 C143 1110 176 1084 216 1084 C277 1084 313 1162 313 1212 C313 1274 280 1300 240 1300 L240 1300 Z M559 1300 C498 1300 462 1222 462 1172 C462 1110 495 1084 535 1084 C596 1084 632 1162 632 1212 C632 1274 599 1300 559 1300 L559 1300 Z " />
<glyph glyph-name="copyright" unicode="&#xa9;" horiz-adv-x="1618" d="M770 177 C855 177 947 201 1032 252 L1063 468 L1008 468 C998 399 981 347 954 310 C918 255 846 228 776 228 C614 228 578 380 578 526 C578 738 638 1091 911 1091 C1013 1091 1068 1026 1068 919 C1068 902 1066 878 1062 850 L1116 850 L1146 1066 C1074 1114 986 1141 898 1141 C583 1141 428 873 428 587 C428 378 534 177 770 177 L770 177 Z M120 669 C120 289 429 -20 809 -20 C1189 -20 1498 289 1498 669 C1498 1049 1189 1358 809 1358 C429 1358 120 1049 120 669 L120 669 Z M184 669 C184 1013 464 1294 809 1294 C1153 1294 1434 1013 1434 669 C1434 324 1153 44 809 44 C464 44 184 324 184 669 L184 669 Z " />
<glyph glyph-name="ordfeminine" unicode="&#xaa;" horiz-adv-x="750" d="M394 1316 C448 1316 496 1258 497 1124 C497 1052 476 960 453 900 C426 833 376 747 310 747 C250 747 226 835 226 942 C226 1108 289 1316 394 1316 L394 1316 Z M663 1338 L539 1338 L524 1255 C502 1319 451 1359 377 1359 C183 1359 100 1136 100 982 C100 858 141 702 293 702 C364 702 421 750 455 805 C456 748 476 702 551 702 C640 702 700 799 730 874 L682 874 C667 843 645 803 622 780 C612 770 598 761 585 761 C566 761 565 784 565 796 C565 810 571 839 573 857 L663 1338 Z " />
<glyph glyph-name="guillemotleft" unicode="&#xab;" horiz-adv-x="720" d="M253 433 L494 40 L553 76 L337 425 L670 770 L623 817 L253 433 Z M20 451 L272 40 L331 76 L104 443 L422 770 L375 817 L20 451 Z " />
<glyph glyph-name="logicalnot" unicode="&#xac;" horiz-adv-x="1074" d="M117 669 L922 669 L882 419 L965 419 L1004 668 C1005 677 1006 684 1006 691 C1006 734 980 748 935 748 L130 748 L117 669 Z " />
<glyph glyph-name="registered" unicode="&#xae;" horiz-adv-x="1618" d="M844 1093 C953 1093 1000 1015 1000 935 C1000 830 913 713 768 713 L714 713 C732 841 752 965 770 1093 L844 1093 Z M984 226 L1173 226 L1178 264 L1105 264 L912 683 C1054 727 1135 837 1135 941 C1135 1042 1063 1138 875 1138 L551 1138 L546 1099 C604 1099 634 1094 634 1060 C634 1056 634 1052 633 1047 L529 318 C522 271 491 264 427 264 L423 226 L768 226 L772 264 L729 264 C685 264 658 271 658 310 C658 311 659 315 659 317 L709 665 L779 665 L984 226 Z M120 669 C120 289 429 -20 809 -20 C1189 -20 1498 289 1498 669 C1498 1049 1189 1358 809 1358 C429 1358 120 1049 120 669 L120 669 Z M184 669 C184 1013 464 1294 809 1294 C1153 1294 1434 1013 1434 669 C1434 324 1153 44 809 44 C464 44 184 324 184 669 L184 669 Z " />
<glyph glyph-name="macron" unicode="&#xaf;" horiz-adv-x="657" d="M96 1146 L535 1146 L560 1243 L121 1243 L96 1146 Z " />
<glyph glyph-name="degree" unicode="&#xb0;" horiz-adv-x="707" d="M80 1090 C80 938 202 816 354 816 C505 816 627 938 627 1090 C627 1241 505 1363 354 1363 C202 1363 80 1241 80 1090 L80 1090 Z M160 1090 C160 1198 245 1283 354 1283 C462 1283 547 1198 547 1090 C547 981 462 896 354 896 C245 896 160 981 160 1090 L160 1090 Z " />
<glyph glyph-name="plusminus" unicode="&#xb1;" horiz-adv-x="1042" d="M133 609 L501 609 L442 240 L522 240 L581 607 L949 607 L962 686 L594 686 L655 1056 L575 1056 L514 687 L146 687 L133 609 Z M48 70 L864 70 L876 147 L60 147 L48 70 Z " />
<glyph glyph-name="twosuperior" unicode="&#xb2;" horiz-adv-x="539" d="M157 695 C204 750 250 792 292 830 L364 895 C450 972 518 1039 518 1162 C518 1281 434 1351 310 1351 C240 1351 188 1324 130 1294 L101 1123 L145 1123 C159 1205 200 1316 301 1316 C385 1316 406 1233 406 1158 C406 1067 360 979 289 907 C213 830 130 748 61 677 L37 606 L461 606 L498 827 L455 827 L427 695 L157 695 Z " />
<glyph glyph-name="threesuperior" unicode="&#xb3;" horiz-adv-x="536" d="M231 983 C325 983 383 921 383 828 C383 732 332 631 231 631 C150 631 118 694 118 766 C118 781 120 795 123 808 L125 821 L82 821 L50 652 C96 617 158 592 236 592 C380 592 500 676 500 817 C500 915 428 982 346 1001 C442 1024 527 1095 527 1192 C527 1301 433 1351 336 1351 C265 1351 207 1328 150 1298 L117 1128 L162 1128 C164 1144 169 1162 175 1177 C199 1249 246 1312 323 1312 C385 1312 418 1263 418 1197 C418 1065 334 1024 233 1024 L213 1024 L205 983 L231 983 Z " />
<glyph glyph-name="acute" unicode="&#xb4;" horiz-adv-x="577" d="M213 1026 L462 1196 L462 1371 L115 1026 L213 1026 Z " />
<glyph glyph-name="mu" unicode="&#xb5;" horiz-adv-x="990" d="M-16 -350 L260 -350 L267 -315 L222 -315 C169 -315 154 -301 154 -268 C154 -257 156 -240 158 -230 L210 73 C234 9 292 -22 355 -22 C435 -22 513 20 550 86 C575 13 620 -31 699 -31 C841 -31 927 89 965 202 L916 202 C893 151 845 42 769 42 C722 42 710 83 710 125 C710 150 715 181 718 199 L829 848 L674 848 L623 549 C606 451 585 331 555 241 C545 212 531 181 514 152 C474 85 415 46 362 46 C270 46 240 146 240 223 C240 238 241 252 243 265 L344 848 L86 848 L79 812 L104 812 C155 812 172 802 173 768 C173 756 169 729 166 711 L-16 -350 Z " />
<glyph glyph-name="paragraph" unicode="&#xb6;" horiz-adv-x="1223" d="M1273 1338 L826 1338 C494 1338 142 1217 142 826 C142 569 359 448 579 448 L619 448 L557 6 C535 -149 463 -375 277 -375 C133 -375 95 -223 95 -111 C95 -80 97 -49 101 -22 L45 -22 L0 -342 C108 -412 214 -450 337 -450 C711 -450 870 -206 923 168 L1064 1166 C1078 1267 1124 1280 1265 1280 L1273 1338 Z M1009 1280 C973 1240 957 1159 942 1054 L837 309 C789 -35 728 -208 622 -300 C569 -347 487 -381 423 -390 L422 -386 C570 -318 630 -120 650 21 L792 1029 C804 1118 822 1235 874 1280 L1009 1280 Z " />
<glyph glyph-name="periodcentered" unicode="&#xb7;" horiz-adv-x="445" d="M295 458 C295 511 259 548 212 548 C144 548 90 480 90 414 C90 362 127 324 175 324 C243 324 295 395 295 458 L295 458 Z " />
<glyph glyph-name="cedilla" unicode="&#xb8;" horiz-adv-x="510" d="M299 0 L152 -133 L180 -168 C201 -158 220 -150 241 -150 C286 -150 309 -190 309 -230 C309 -294 265 -363 199 -363 C162 -363 132 -344 107 -324 L75 -361 C112 -392 153 -411 202 -411 C308 -411 406 -323 406 -218 C406 -147 347 -103 282 -103 C268 -103 254 -104 241 -107 L362 0 L299 0 Z " />
<glyph glyph-name="onesuperior" unicode="&#xb9;" horiz-adv-x="397" d="M358 1342 C358 1342 219 1326 124 1321 L120 1289 L226 1289 C235 1289 238 1282 238 1274 C238 1269 230 1223 229 1218 L146 683 C140 647 115 638 70 638 L47 638 L42 606 L332 606 L337 638 L306 638 C270 638 255 643 255 668 C255 677 257 684 258 692 L358 1342 Z " />
<glyph glyph-name="ordmasculine" unicode="&#xba;" horiz-adv-x="628" d="M383 1359 C172 1359 80 1146 80 960 C80 823 157 702 310 702 C506 702 608 919 608 1085 C608 1227 542 1359 383 1359 L383 1359 Z M204 892 C204 1009 228 1322 386 1322 C463 1322 484 1234 484 1169 C484 1053 459 739 302 739 C224 739 204 826 204 892 L204 892 Z " />
<glyph glyph-name="guillemotright" unicode="&#xbb;" horiz-adv-x="760" d="M447 424 L206 817 L147 781 L363 432 L30 87 L77 40 L447 424 Z M680 406 L428 817 L369 781 L596 414 L278 87 L325 40 L680 406 Z " />
<glyph glyph-name="onequarter" unicode="&#xbc;" horiz-adv-x="1080" d="M353 1342 C353 1342 214 1326 119 1321 L115 1289 L221 1289 C230 1289 233 1282 233 1274 C233 1269 225 1223 224 1218 L141 683 C135 647 110 638 65 638 L42 638 L37 606 L327 606 L332 638 L301 638 C265 638 250 643 250 668 C250 677 252 684 253 692 L353 1342 Z M-17 0 L1080 1338 L1010 1338 L-87 0 L-17 0 Z M834 300 L596 300 L927 732 L864 732 L506 266 L495 218 L809 218 C813 218 820 216 820 208 C820 207 819 197 818 192 L800 77 C794 41 768 32 724 32 L700 32 L696 0 L985 0 L991 32 L959 32 C924 32 908 37 908 62 C908 70 909 74 910 78 L981 527 L867 509 L834 300 Z " />
<glyph glyph-name="onehalf" unicode="&#xbd;" horiz-adv-x="1130" d="M-17 0 L1080 1338 L1010 1338 L-87 0 L-17 0 Z M353 1342 C353 1342 214 1326 119 1321 L115 1289 L221 1289 C230 1289 233 1282 233 1274 C233 1269 225 1223 224 1218 L141 683 C135 647 110 638 65 638 L42 638 L37 606 L327 606 L332 638 L301 638 C265 638 250 643 250 668 C250 677 252 684 253 692 L353 1342 Z M961 89 L989 221 L1032 221 L995 0 L571 0 L595 71 C664 142 747 224 823 301 C894 373 940 461 940 552 C940 627 919 710 835 710 C734 710 693 599 679 517 L635 517 L664 688 C722 718 774 745 844 745 C968 745 1052 675 1052 556 C1052 433 984 366 898 289 L826 224 C784 186 738 144 691 89 L961 89 Z " />
<glyph glyph-name="threequarters" unicode="&#xbe;" horiz-adv-x="1209" d="M112 0 L1209 1338 L1139 1338 L42 0 L112 0 Z M226 983 C320 983 378 921 378 828 C378 732 327 631 226 631 C145 631 113 694 113 766 C113 781 115 795 118 808 L120 821 L77 821 L45 652 C91 617 153 592 231 592 C375 592 495 676 495 817 C495 915 423 982 341 1001 C437 1024 522 1095 522 1192 C522 1301 428 1351 331 1351 C260 1351 202 1328 145 1298 L112 1128 L157 1128 C159 1144 164 1162 170 1177 C194 1249 241 1312 318 1312 C380 1312 413 1263 413 1197 C413 1065 329 1024 228 1024 L208 1024 L200 983 L226 983 Z M958 300 L720 300 L1051 732 L988 732 L630 266 L619 218 L933 218 C937 218 944 216 944 208 C944 207 943 197 942 192 L924 77 C918 41 892 32 848 32 L824 32 L820 0 L1109 0 L1115 32 L1083 32 C1048 32 1032 37 1032 62 C1032 70 1033 74 1034 78 L1105 527 L991 509 L958 300 Z " />
<glyph glyph-name="questiondown" unicode="&#xbf;" horiz-adv-x="745" d="M665 399 L615 399 C581 183 492 37 286 37 C186 37 105 109 105 207 C105 281 152 335 204 378 L384 526 C471 598 524 695 544 825 C551 867 557 918 563 956 L501 956 C480 826 443 782 335 696 L176 569 C75 489 0 366 0 240 C0 86 133 -20 275 -20 C387 -20 492 21 617 93 L665 399 Z M539 1134 C612 1134 661 1207 661 1269 C661 1320 621 1358 576 1358 C504 1358 456 1284 456 1224 C456 1173 494 1134 539 1134 L539 1134 Z " />
<glyph glyph-name="Agrave" unicode="&#xc0;" horiz-adv-x="1224" d="M303 438 L741 438 L784 153 C785 145 786 137 786 130 C785 79 749 49 699 47 L641 45 L634 0 L1131 0 L1137 45 L1108 47 C1046 52 983 73 965 186 L785 1338 L643 1338 L126 170 C91 91 27 49 -27 47 L-68 45 L-75 0 L276 0 L283 45 L240 45 C186 45 163 69 163 103 C163 117 168 134 176 151 L303 438 Z M325 488 L631 1181 L734 488 L325 488 Z M802 1426 L455 1771 L455 1596 L704 1426 L802 1426 Z " />
<glyph glyph-name="Aacute" unicode="&#xc1;" horiz-adv-x="1224" d="M303 438 L741 438 L784 153 C785 145 786 137 786 130 C785 79 749 49 699 47 L641 45 L634 0 L1131 0 L1137 45 L1108 47 C1046 52 983 73 965 186 L785 1338 L643 1338 L126 170 C91 91 27 49 -27 47 L-68 45 L-75 0 L276 0 L283 45 L240 45 C186 45 163 69 163 103 C163 117 168 134 176 151 L303 438 Z M325 488 L631 1181 L734 488 L325 488 Z M733 1426 L982 1596 L982 1771 L635 1426 L733 1426 Z " />
<glyph glyph-name="Acircumflex" unicode="&#xc2;" horiz-adv-x="1224" d="M303 438 L741 438 L784 153 C785 145 786 137 786 130 C785 79 749 49 699 47 L641 45 L634 0 L1131 0 L1137 45 L1108 47 C1046 52 983 73 965 186 L785 1338 L643 1338 L126 170 C91 91 27 49 -27 47 L-68 45 L-75 0 L276 0 L283 45 L240 45 C186 45 163 69 163 103 C163 117 168 134 176 151 L303 438 Z M325 488 L631 1181 L734 488 L325 488 Z M515 1425 L731 1595 L893 1425 L991 1425 L789 1716 L712 1716 L417 1425 L515 1425 Z " />
<glyph glyph-name="Atilde" unicode="&#xc3;" horiz-adv-x="1224" d="M303 438 L741 438 L784 153 C785 145 786 137 786 130 C785 79 749 49 699 47 L641 45 L634 0 L1131 0 L1137 45 L1108 47 C1046 52 983 73 965 186 L785 1338 L643 1338 L126 170 C91 91 27 49 -27 47 L-68 45 L-75 0 L276 0 L283 45 L240 45 C186 45 163 69 163 103 C163 117 168 134 176 151 L303 438 Z M325 488 L631 1181 L734 488 L325 488 Z M985 1679 C968 1631 931 1591 879 1591 C795 1591 718 1686 608 1686 C510 1686 449 1619 415 1539 L446 1484 C461 1536 499 1579 554 1579 C637 1579 714 1484 825 1484 C917 1484 977 1543 1013 1617 L985 1679 Z " />
<glyph glyph-name="Adieresis" unicode="&#xc4;" horiz-adv-x="1224" d="M303 438 L741 438 L784 153 C785 145 786 137 786 130 C785 79 749 49 699 47 L641 45 L634 0 L1131 0 L1137 45 L1108 47 C1046 52 983 73 965 186 L785 1338 L643 1338 L126 170 C91 91 27 49 -27 47 L-68 45 L-75 0 L276 0 L283 45 L240 45 C186 45 163 69 163 103 C163 117 168 134 176 151 L303 438 Z M325 488 L631 1181 L734 488 L325 488 Z M576 1724 C512 1724 474 1646 474 1596 C474 1534 508 1508 550 1508 C614 1508 652 1586 652 1636 C652 1698 618 1724 576 1724 L576 1724 Z M895 1724 C831 1724 793 1646 793 1596 C793 1534 827 1508 869 1508 C933 1508 971 1586 971 1636 C971 1698 937 1724 895 1724 L895 1724 Z " />
<glyph glyph-name="Aring" unicode="&#xc5;" horiz-adv-x="1224" d="M303 438 L741 438 L784 153 C785 145 786 137 786 130 C785 79 749 49 699 47 L641 45 L634 0 L1131 0 L1137 45 L1108 47 C1046 52 983 73 965 186 L785 1338 L643 1338 L126 170 C91 91 27 49 -27 47 L-68 45 L-75 0 L276 0 L283 45 L240 45 C186 45 163 69 163 103 C163 117 168 134 176 151 L303 438 Z M325 488 L631 1181 L734 488 L325 488 Z M819 1665 C819 1593 804 1474 718 1474 C660 1474 635 1500 635 1562 C635 1633 648 1752 734 1752 C790 1752 819 1717 819 1665 L819 1665 Z M542 1602 C542 1504 628 1436 715 1436 C821 1436 912 1523 912 1622 C912 1720 825 1789 738 1789 C632 1789 542 1701 542 1602 L542 1602 Z " />
<glyph glyph-name="AE" unicode="&#xc6;" horiz-adv-x="1653" d="M403 488 L888 1265 L781 488 L403 488 Z M1583 1338 L658 1338 L652 1293 C720 1292 781 1291 781 1234 C781 1219 775 1201 761 1178 L138 170 C89 91 18 49 -36 47 L-78 45 L-85 0 L275 0 L282 45 L239 45 C192 45 172 63 172 91 C172 115 184 135 194 151 L372 438 L773 438 L730 131 C720 57 672 46 578 45 L572 0 L1420 0 L1506 332 L1449 332 C1392 128 1345 55 1236 55 L889 55 L978 682 L1101 682 C1179 682 1205 662 1205 591 C1205 566 1201 535 1196 496 L1250 496 L1310 917 L1255 917 C1234 768 1213 731 1108 731 L985 731 L1063 1283 L1410 1283 C1501 1283 1528 1238 1528 1098 L1583 1098 L1583 1338 Z " />
<glyph glyph-name="Ccedilla" unicode="&#xc7;" horiz-adv-x="1152" d="M946 79 L989 386 L935 386 C921 290 895 215 856 160 C800 80 693 36 587 36 C343 36 283 260 283 476 C283 783 377 1303 782 1303 C938 1303 1022 1205 1022 1047 C1022 1016 1019 985 1015 952 L1069 952 L1112 1259 C1012 1325 889 1363 763 1363 C313 1363 95 977 95 564 C95 272 237 -11 552 -24 L432 -133 L460 -168 C481 -158 500 -150 521 -150 C566 -150 589 -190 589 -230 C589 -294 545 -363 479 -363 C442 -363 412 -344 387 -324 L355 -361 C392 -392 433 -411 482 -411 C588 -411 686 -323 686 -218 C686 -147 627 -103 562 -103 C548 -103 534 -104 521 -107 L615 -24 C727 -18 842 15 946 79 L946 79 Z " />
<glyph glyph-name="Egrave" unicode="&#xc8;" horiz-adv-x="1115" d="M882 0 L968 332 L911 332 C854 128 807 55 698 55 L321 55 L410 682 L563 682 C641 682 667 662 667 591 C667 566 663 535 658 496 L712 496 L772 917 L717 917 C696 768 675 731 570 731 L417 731 L495 1283 L872 1283 C963 1283 990 1238 990 1098 L1045 1098 L1045 1338 L194 1338 L188 1293 C272 1292 317 1283 317 1228 C317 1222 316 1215 315 1207 L163 131 C153 57 105 46 11 45 L5 0 L882 0 Z M821 1426 L474 1771 L474 1596 L723 1426 L821 1426 Z " />
<glyph glyph-name="Eacute" unicode="&#xc9;" horiz-adv-x="1115" d="M882 0 L968 332 L911 332 C854 128 807 55 698 55 L321 55 L410 682 L563 682 C641 682 667 662 667 591 C667 566 663 535 658 496 L712 496 L772 917 L717 917 C696 768 675 731 570 731 L417 731 L495 1283 L872 1283 C963 1283 990 1238 990 1098 L1045 1098 L1045 1338 L194 1338 L188 1293 C272 1292 317 1283 317 1228 C317 1222 316 1215 315 1207 L163 131 C153 57 105 46 11 45 L5 0 L882 0 Z M612 1426 L861 1596 L861 1771 L514 1426 L612 1426 Z " />
<glyph glyph-name="Ecircumflex" unicode="&#xca;" horiz-adv-x="1115" d="M882 0 L968 332 L911 332 C854 128 807 55 698 55 L321 55 L410 682 L563 682 C641 682 667 662 667 591 C667 566 663 535 658 496 L712 496 L772 917 L717 917 C696 768 675 731 570 731 L417 731 L495 1283 L872 1283 C963 1283 990 1238 990 1098 L1045 1098 L1045 1338 L194 1338 L188 1293 C272 1292 317 1283 317 1228 C317 1222 316 1215 315 1207 L163 131 C153 57 105 46 11 45 L5 0 L882 0 Z M478 1425 L694 1595 L856 1425 L954 1425 L752 1716 L675 1716 L380 1425 L478 1425 Z " />
<glyph glyph-name="Edieresis" unicode="&#xcb;" horiz-adv-x="1115" d="M882 0 L968 332 L911 332 C854 128 807 55 698 55 L321 55 L410 682 L563 682 C641 682 667 662 667 591 C667 566 663 535 658 496 L712 496 L772 917 L717 917 C696 768 675 731 570 731 L417 731 L495 1283 L872 1283 C963 1283 990 1238 990 1098 L1045 1098 L1045 1338 L194 1338 L188 1293 C272 1292 317 1283 317 1228 C317 1222 316 1215 315 1207 L163 131 C153 57 105 46 11 45 L5 0 L882 0 Z M529 1724 C465 1724 427 1646 427 1596 C427 1534 461 1508 503 1508 C567 1508 605 1586 605 1636 C605 1698 571 1724 529 1724 L529 1724 Z M848 1724 C784 1724 746 1646 746 1596 C746 1534 780 1508 822 1508 C886 1508 924 1586 924 1636 C924 1698 890 1724 848 1724 L848 1724 Z " />
<glyph glyph-name="Igrave" unicode="&#xcc;" horiz-adv-x="622" d="M642 1338 L194 1338 L188 1293 C272 1292 317 1283 317 1228 C317 1222 316 1215 315 1207 L163 131 C153 57 105 46 11 45 L5 0 L453 0 L459 45 C375 46 330 55 330 110 C330 116 331 123 332 131 L484 1207 C494 1281 542 1292 636 1293 L642 1338 Z M565 1426 L218 1771 L218 1596 L467 1426 L565 1426 Z " />
<glyph glyph-name="Iacute" unicode="&#xcd;" horiz-adv-x="622" d="M642 1338 L194 1338 L188 1293 C272 1292 317 1283 317 1228 C317 1222 316 1215 315 1207 L163 131 C153 57 105 46 11 45 L5 0 L453 0 L459 45 C375 46 330 55 330 110 C330 116 331 123 332 131 L484 1207 C494 1281 542 1292 636 1293 L642 1338 Z M393 1426 L642 1596 L642 1771 L295 1426 L393 1426 Z " />
<glyph glyph-name="Icircumflex" unicode="&#xce;" horiz-adv-x="622" d="M642 1338 L194 1338 L188 1293 C272 1292 317 1283 317 1228 C317 1222 316 1215 315 1207 L163 131 C153 57 105 46 11 45 L5 0 L453 0 L459 45 C375 46 330 55 330 110 C330 116 331 123 332 131 L484 1207 C494 1281 542 1292 636 1293 L642 1338 Z M235 1425 L451 1595 L613 1425 L711 1425 L509 1716 L432 1716 L137 1425 L235 1425 Z " />
<glyph glyph-name="Idieresis" unicode="&#xcf;" horiz-adv-x="617" d="M637 1338 L189 1338 L183 1293 C267 1292 312 1283 312 1228 C312 1222 311 1215 310 1207 L158 131 C148 57 100 46 6 45 L0 0 L448 0 L454 45 C370 46 325 55 325 110 C325 116 326 123 327 131 L479 1207 C489 1281 537 1292 631 1293 L637 1338 Z M284 1724 C220 1724 182 1646 182 1596 C182 1534 216 1508 258 1508 C322 1508 360 1586 360 1636 C360 1698 326 1724 284 1724 L284 1724 Z M603 1724 C539 1724 501 1646 501 1596 C501 1534 535 1508 577 1508 C641 1508 679 1586 679 1636 C679 1698 645 1724 603 1724 L603 1724 Z " />
<glyph glyph-name="Eth" unicode="&#xd0;" horiz-adv-x="1294" d="M894 102 L219 102 L635 598 L894 102 Z M398 1236 L1074 1236 L658 740 L398 1236 Z M696 669 L1123 1179 L962 158 L696 669 Z M332 1181 L598 669 L170 159 L332 1181 Z M947 0 C998 0 1044 41 1052 91 L1235 1247 C1236 1252 1236 1256 1236 1261 C1236 1304 1204 1338 1158 1338 L346 1338 C295 1338 249 1297 241 1247 L58 91 C57 86 57 82 57 77 C57 34 89 0 135 0 L947 0 Z " />
<glyph glyph-name="Ntilde" unicode="&#xd1;" horiz-adv-x="1316" d="M5 0 L365 0 L372 45 L351 45 C267 46 222 55 222 110 C222 116 223 123 224 131 L377 1217 L917 -20 L994 -20 L1168 1207 C1178 1281 1226 1292 1320 1293 L1326 1338 L970 1338 L963 1293 L992 1293 C1067 1293 1113 1281 1113 1228 C1113 1222 1112 1215 1111 1207 L978 269 L508 1338 L194 1338 L188 1293 C272 1292 317 1283 317 1228 C317 1222 316 1215 315 1207 L163 131 C153 57 105 46 11 45 L5 0 Z M1053 1679 C1036 1631 999 1591 947 1591 C863 1591 786 1686 676 1686 C578 1686 517 1619 483 1539 L514 1484 C529 1536 567 1579 622 1579 C705 1579 782 1484 893 1484 C985 1484 1045 1543 1081 1617 L1053 1679 Z " />
<glyph glyph-name="Ograve" unicode="&#xd2;" horiz-adv-x="1267" d="M1152 669 C1158 721 1162 774 1162 831 C1162 1142 1018 1363 737 1363 C438 1363 161 1104 105 669 C98 617 94 564 94 507 C94 196 238 -25 519 -25 C818 -25 1095 234 1152 669 L1152 669 Z M946 636 C910 338 833 36 516 36 C320 36 269 176 269 336 C269 453 286 562 311 702 C363 997 423 1302 740 1302 C936 1302 987 1162 987 1002 C987 885 963 777 946 636 L946 636 Z M883 1426 L536 1771 L536 1596 L785 1426 L883 1426 Z " />
<glyph glyph-name="Oacute" unicode="&#xd3;" horiz-adv-x="1267" d="M1152 669 C1158 721 1162 774 1162 831 C1162 1142 1018 1363 737 1363 C438 1363 161 1104 105 669 C98 617 94 564 94 507 C94 196 238 -25 519 -25 C818 -25 1095 234 1152 669 L1152 669 Z M946 636 C910 338 833 36 516 36 C320 36 269 176 269 336 C269 453 286 562 311 702 C363 997 423 1302 740 1302 C936 1302 987 1162 987 1002 C987 885 963 777 946 636 L946 636 Z M778 1426 L1027 1596 L1027 1771 L680 1426 L778 1426 Z " />
<glyph glyph-name="Ocircumflex" unicode="&#xd4;" horiz-adv-x="1267" d="M1152 669 C1158 721 1162 774 1162 831 C1162 1142 1018 1363 737 1363 C438 1363 161 1104 105 669 C98 617 94 564 94 507 C94 196 238 -25 519 -25 C818 -25 1095 234 1152 669 L1152 669 Z M946 636 C910 338 833 36 516 36 C320 36 269 176 269 336 C269 453 286 562 311 702 C363 997 423 1302 740 1302 C936 1302 987 1162 987 1002 C987 885 963 777 946 636 L946 636 Z M551 1425 L767 1595 L929 1425 L1027 1425 L825 1716 L748 1716 L453 1425 L551 1425 Z " />
<glyph glyph-name="Otilde" unicode="&#xd5;" horiz-adv-x="1267" d="M1152 669 C1158 721 1162 774 1162 831 C1162 1142 1018 1363 737 1363 C438 1363 161 1104 105 669 C98 617 94 564 94 507 C94 196 238 -25 519 -25 C818 -25 1095 234 1152 669 L1152 669 Z M946 636 C910 338 833 36 516 36 C320 36 269 176 269 336 C269 453 286 562 311 702 C363 997 423 1302 740 1302 C936 1302 987 1162 987 1002 C987 885 963 777 946 636 L946 636 Z M1055 1679 C1038 1631 1001 1591 949 1591 C865 1591 788 1686 678 1686 C580 1686 519 1619 485 1539 L516 1484 C531 1536 569 1579 624 1579 C707 1579 784 1484 895 1484 C987 1484 1047 1543 1083 1617 L1055 1679 Z " />
<glyph glyph-name="Odieresis" unicode="&#xd6;" horiz-adv-x="1267" d="M1152 669 C1158 721 1162 774 1162 831 C1162 1142 1018 1363 737 1363 C438 1363 161 1104 105 669 C98 617 94 564 94 507 C94 196 238 -25 519 -25 C818 -25 1095 234 1152 669 L1152 669 Z M946 636 C910 338 833 36 516 36 C320 36 269 176 269 336 C269 453 286 562 311 702 C363 997 423 1302 740 1302 C936 1302 987 1162 987 1002 C987 885 963 777 946 636 L946 636 Z M651 1724 C587 1724 549 1646 549 1596 C549 1534 583 1508 625 1508 C689 1508 727 1586 727 1636 C727 1698 693 1724 651 1724 L651 1724 Z M970 1724 C906 1724 868 1646 868 1596 C868 1534 902 1508 944 1508 C1008 1508 1046 1586 1046 1636 C1046 1698 1012 1724 970 1724 L970 1724 Z " />
<glyph glyph-name="multiply" unicode="&#xd7;" horiz-adv-x="873" d="M139 757 L385 462 L40 165 L92 105 L436 401 L683 107 L744 160 L499 453 L844 750 L792 811 L448 515 L201 810 L139 757 Z " />
<glyph glyph-name="Oslash" unicode="&#xd8;" horiz-adv-x="1267" d="M59 -36 L200 126 C271 31 378 -25 519 -25 C818 -25 1095 234 1152 669 C1158 721 1162 774 1162 831 C1162 955 1139 1064 1094 1151 L1196 1268 L1196 1363 L1060 1207 C989 1305 880 1363 737 1363 C438 1363 161 1104 105 669 C98 617 94 564 94 507 C94 380 118 269 165 181 L58 59 L59 -36 Z M269 336 C269 453 286 562 311 702 C363 997 423 1302 740 1302 C889 1302 954 1221 977 1112 L270 302 C269 313 269 324 269 336 L269 336 Z M946 636 C910 338 833 36 516 36 C370 36 304 113 280 218 L986 1028 C987 1019 987 1010 987 1002 C987 885 963 777 946 636 L946 636 Z " />
<glyph glyph-name="Ugrave" unicode="&#xd9;" horiz-adv-x="1287" d="M955 1293 L966 1293 C1050 1292 1095 1283 1095 1228 C1095 1222 1094 1215 1093 1207 L981 418 C949 190 798 44 594 44 C454 44 365 119 365 310 C365 350 370 395 377 446 L487 1207 C497 1277 542 1293 622 1293 L657 1293 L664 1338 L194 1338 L188 1293 C272 1292 317 1283 317 1228 C317 1222 316 1215 315 1207 L210 462 C202 407 198 356 198 310 C198 95 321 -25 577 -25 C839 -25 1004 151 1044 427 L1157 1207 C1168 1281 1212 1292 1306 1293 L1312 1338 L962 1338 L955 1293 Z M942 1426 L595 1771 L595 1596 L844 1426 L942 1426 Z " />
<glyph glyph-name="Uacute" unicode="&#xda;" horiz-adv-x="1287" d="M955 1293 L966 1293 C1050 1292 1095 1283 1095 1228 C1095 1222 1094 1215 1093 1207 L981 418 C949 190 798 44 594 44 C454 44 365 119 365 310 C365 350 370 395 377 446 L487 1207 C497 1277 542 1293 622 1293 L657 1293 L664 1338 L194 1338 L188 1293 C272 1292 317 1283 317 1228 C317 1222 316 1215 315 1207 L210 462 C202 407 198 356 198 310 C198 95 321 -25 577 -25 C839 -25 1004 151 1044 427 L1157 1207 C1168 1281 1212 1292 1306 1293 L1312 1338 L962 1338 L955 1293 Z M753 1426 L1002 1596 L1002 1771 L655 1426 L753 1426 Z " />
<glyph glyph-name="Ucircumflex" unicode="&#xdb;" horiz-adv-x="1287" d="M955 1293 L966 1293 C1050 1292 1095 1283 1095 1228 C1095 1222 1094 1215 1093 1207 L981 418 C949 190 798 44 594 44 C454 44 365 119 365 310 C365 350 370 395 377 446 L487 1207 C497 1277 542 1293 622 1293 L657 1293 L664 1338 L194 1338 L188 1293 C272 1292 317 1283 317 1228 C317 1222 316 1215 315 1207 L210 462 C202 407 198 356 198 310 C198 95 321 -25 577 -25 C839 -25 1004 151 1044 427 L1157 1207 C1168 1281 1212 1292 1306 1293 L1312 1338 L962 1338 L955 1293 Z M605 1425 L821 1595 L983 1425 L1081 1425 L879 1716 L802 1716 L507 1425 L605 1425 Z " />
<glyph glyph-name="Udieresis" unicode="&#xdc;" horiz-adv-x="1287" d="M955 1293 L966 1293 C1050 1292 1095 1283 1095 1228 C1095 1222 1094 1215 1093 1207 L981 418 C949 190 798 44 594 44 C454 44 365 119 365 310 C365 350 370 395 377 446 L487 1207 C497 1277 542 1293 622 1293 L657 1293 L664 1338 L194 1338 L188 1293 C272 1292 317 1283 317 1228 C317 1222 316 1215 315 1207 L210 462 C202 407 198 356 198 310 C198 95 321 -25 577 -25 C839 -25 1004 151 1044 427 L1157 1207 C1168 1281 1212 1292 1306 1293 L1312 1338 L962 1338 L955 1293 Z M671 1724 C607 1724 569 1646 569 1596 C569 1534 603 1508 645 1508 C709 1508 747 1586 747 1636 C747 1698 713 1724 671 1724 L671 1724 Z M990 1724 C926 1724 888 1646 888 1596 C888 1534 922 1508 964 1508 C1028 1508 1066 1586 1066 1636 C1066 1698 1032 1724 990 1724 L990 1724 Z " />
<glyph glyph-name="Yacute" unicode="&#xdd;" horiz-adv-x="1085" d="M224 0 L667 0 L674 45 C590 46 548 55 548 111 C548 117 550 132 551 139 L605 531 L1069 1293 L1203 1293 L1210 1338 L841 1338 L835 1293 L1009 1293 L581 594 L437 1175 C431 1198 428 1217 428 1232 C428 1286 462 1293 493 1293 L567 1293 L573 1338 L97 1338 L90 1293 L119 1293 C200 1293 241 1261 267 1156 L434 493 L384 131 C374 57 325 46 231 45 L224 0 Z M669 1426 L918 1596 L918 1771 L571 1426 L669 1426 Z " />
<glyph glyph-name="Thorn" unicode="&#xde;" horiz-adv-x="1294" d="M894 102 L219 102 L635 598 L894 102 Z M398 1236 L1074 1236 L658 740 L398 1236 Z M696 669 L1123 1179 L962 158 L696 669 Z M332 1181 L598 669 L170 159 L332 1181 Z M947 0 C998 0 1044 41 1052 91 L1235 1247 C1236 1252 1236 1256 1236 1261 C1236 1304 1204 1338 1158 1338 L346 1338 C295 1338 249 1297 241 1247 L58 91 C57 86 57 82 57 77 C57 34 89 0 135 0 L947 0 Z " />
<glyph glyph-name="germandbls" unicode="&#xdf;" horiz-adv-x="992" d="M186 -122 L404 1151 C423 1262 488 1321 555 1321 C633 1321 671 1228 671 1164 C671 1080 642 998 599 936 C569 893 536 854 504 812 C458 752 425 687 425 609 C425 522 489 462 570 421 L672 371 C742 336 786 283 786 207 C786 100 712 15 606 15 C488 15 438 102 438 205 C438 236 442 268 446 295 L409 295 L368 55 C442 8 504 -28 615 -28 C783 -28 897 87 897 254 C897 344 854 439 749 498 L627 566 C571 597 535 647 535 708 C535 769 575 816 616 854 C706 938 804 1013 804 1144 C804 1199 785 1251 751 1290 C709 1336 645 1360 578 1360 C362 1360 253 1166 221 981 L15 -220 C-8 -352 -79 -409 -149 -415 L-152 -450 C-20 -448 147 -374 186 -122 L186 -122 Z " />
<glyph glyph-name="agrave" unicode="&#xe0;" horiz-adv-x="979" d="M463 827 C542 827 613 744 614 554 C614 451 585 324 553 240 C515 143 447 23 345 23 C256 23 220 148 220 300 C220 533 310 827 463 827 L463 827 Z M672 848 L646 700 C622 803 548 878 439 878 C174 878 60 570 60 355 C60 185 116 -30 321 -30 C429 -30 512 52 556 139 C555 130 555 122 555 116 C555 36 581 -30 681 -30 C800 -30 879 102 919 202 L870 202 C849 160 820 105 786 71 C769 54 746 42 727 42 C700 42 692 67 692 97 C692 122 704 182 707 199 L828 848 L672 848 Z M656 1026 L309 1371 L309 1196 L558 1026 L656 1026 Z " />
<glyph glyph-name="aacute" unicode="&#xe1;" horiz-adv-x="979" d="M463 827 C542 827 613 744 614 554 C614 451 585 324 553 240 C515 143 447 23 345 23 C256 23 220 148 220 300 C220 533 310 827 463 827 L463 827 Z M672 848 L646 700 C622 803 548 878 439 878 C174 878 60 570 60 355 C60 185 116 -30 321 -30 C429 -30 512 52 556 139 C555 130 555 122 555 116 C555 36 581 -30 681 -30 C800 -30 879 102 919 202 L870 202 C849 160 820 105 786 71 C769 54 746 42 727 42 C700 42 692 67 692 97 C692 122 704 182 707 199 L828 848 L672 848 Z M529 1026 L778 1196 L778 1371 L431 1026 L529 1026 Z " />
<glyph glyph-name="acircumflex" unicode="&#xe2;" horiz-adv-x="979" d="M463 827 C542 827 613 744 614 554 C614 451 585 324 553 240 C515 143 447 23 345 23 C256 23 220 148 220 300 C220 533 310 827 463 827 L463 827 Z M672 848 L646 700 C622 803 548 878 439 878 C174 878 60 570 60 355 C60 185 116 -30 321 -30 C429 -30 512 52 556 139 C555 130 555 122 555 116 C555 36 581 -30 681 -30 C800 -30 879 102 919 202 L870 202 C849 160 820 105 786 71 C769 54 746 42 727 42 C700 42 692 67 692 97 C692 122 704 182 707 199 L828 848 L672 848 Z M339 1026 L555 1196 L717 1026 L815 1026 L613 1317 L536 1317 L241 1026 L339 1026 Z " />
<glyph glyph-name="atilde" unicode="&#xe3;" horiz-adv-x="979" d="M463 827 C542 827 613 744 614 554 C614 451 585 324 553 240 C515 143 447 23 345 23 C256 23 220 148 220 300 C220 533 310 827 463 827 L463 827 Z M672 848 L646 700 C622 803 548 878 439 878 C174 878 60 570 60 355 C60 185 116 -30 321 -30 C429 -30 512 52 556 139 C555 130 555 122 555 116 C555 36 581 -30 681 -30 C800 -30 879 102 919 202 L870 202 C849 160 820 105 786 71 C769 54 746 42 727 42 C700 42 692 67 692 97 C692 122 704 182 707 199 L828 848 L672 848 Z M785 1271 C767 1222 739 1190 692 1190 C617 1190 548 1285 449 1285 C360 1285 293 1207 270 1121 L306 1091 C322 1143 350 1178 400 1178 C475 1178 544 1083 644 1083 C733 1083 792 1155 820 1232 L785 1271 Z " />
<glyph glyph-name="adieresis" unicode="&#xe4;" horiz-adv-x="979" d="M463 827 C542 827 613 744 614 554 C614 451 585 324 553 240 C515 143 447 23 345 23 C256 23 220 148 220 300 C220 533 310 827 463 827 L463 827 Z M672 848 L646 700 C622 803 548 878 439 878 C174 878 60 570 60 355 C60 185 116 -30 321 -30 C429 -30 512 52 556 139 C555 130 555 122 555 116 C555 36 581 -30 681 -30 C800 -30 879 102 919 202 L870 202 C849 160 820 105 786 71 C769 54 746 42 727 42 C700 42 692 67 692 97 C692 122 704 182 707 199 L828 848 L672 848 Z M440 1300 C379 1300 343 1222 343 1172 C343 1110 376 1084 416 1084 C477 1084 513 1162 513 1212 C513 1274 480 1300 440 1300 L440 1300 Z M759 1300 C698 1300 662 1222 662 1172 C662 1110 695 1084 735 1084 C796 1084 832 1162 832 1212 C832 1274 799 1300 759 1300 L759 1300 Z " />
<glyph glyph-name="aring" unicode="&#xe5;" horiz-adv-x="979" d="M463 827 C542 827 613 744 614 554 C614 451 585 324 553 240 C515 143 447 23 345 23 C256 23 220 148 220 300 C220 533 310 827 463 827 L463 827 Z M672 848 L646 700 C622 803 548 878 439 878 C174 878 60 570 60 355 C60 185 116 -30 321 -30 C429 -30 512 52 556 139 C555 130 555 122 555 116 C555 36 581 -30 681 -30 C800 -30 879 102 919 202 L870 202 C849 160 820 105 786 71 C769 54 746 42 727 42 C700 42 692 67 692 97 C692 122 704 182 707 199 L828 848 L672 848 Z M647 1262 C647 1190 629 1073 543 1073 C485 1073 461 1101 461 1163 C461 1232 477 1351 563 1351 C619 1351 647 1314 647 1262 L647 1262 Z M369 1201 C369 1103 455 1035 542 1035 C648 1035 739 1122 739 1221 C739 1319 652 1388 565 1388 C459 1388 369 1300 369 1201 L369 1201 Z " />
<glyph glyph-name="ae" unicode="&#xe6;" horiz-adv-x="1284" d="M438 878 C341 878 252 849 175 798 L144 609 L184 609 C201 735 274 828 407 828 C519 828 570 754 570 662 C570 650 569 637 546 494 C520 497 492 498 464 498 C263 498 35 421 35 195 C35 61 150 -30 277 -30 C365 -30 464 -17 570 100 C621 18 710 -30 827 -30 C994 -30 1103 78 1167 202 L1110 202 C1054 104 966 20 852 20 C710 20 687 173 687 280 C687 340 690 382 699 424 C743 409 797 401 853 401 C1015 401 1192 470 1192 647 C1192 794 1069 878 940 878 C841 878 745 843 678 783 C622 855 521 878 438 878 L438 878 Z M538 447 L505 238 C497 189 487 135 459 95 C429 54 388 28 336 28 C263 28 197 96 197 207 C197 275 224 344 273 384 C329 431 411 449 492 449 C507 449 523 448 538 447 L538 447 Z M708 471 C737 677 829 839 938 839 C1024 839 1053 759 1053 688 C1053 543 966 451 824 451 C785 451 745 458 708 471 L708 471 Z " />
<glyph glyph-name="ccedilla" unicode="&#xe7;" horiz-adv-x="782" d="M488 878 C203 878 60 611 60 351 C60 152 156 -26 346 -30 L232 -133 L260 -168 C281 -158 300 -150 321 -150 C366 -150 389 -190 389 -230 C389 -294 345 -363 279 -363 C242 -363 212 -344 187 -324 L155 -361 C192 -392 233 -411 282 -411 C388 -411 486 -323 486 -218 C486 -147 427 -103 362 -103 C348 -103 334 -104 321 -107 L413 -25 C542 -4 625 82 676 202 L623 202 C575 101 492 20 384 20 C234 20 230 181 230 295 C230 495 283 839 498 839 C600 839 647 764 647 673 C647 654 645 632 641 609 L681 609 L717 811 C647 857 566 878 488 878 L488 878 Z " />
<glyph glyph-name="egrave" unicode="&#xe8;" horiz-adv-x="810" d="M243 488 C272 694 357 839 466 839 C552 839 581 759 581 688 C581 612 550 531 499 490 C461 460 414 447 369 447 C323 447 276 462 243 488 L243 488 Z M635 202 C579 104 492 20 380 20 C244 20 221 189 221 287 C221 342 223 393 233 439 C285 414 344 403 402 403 C553 403 723 480 723 647 C723 794 599 878 468 878 C197 878 55 596 55 348 C55 165 152 -30 355 -30 C524 -30 631 78 695 202 L635 202 Z M610 1026 L263 1371 L263 1196 L512 1026 L610 1026 Z " />
<glyph glyph-name="eacute" unicode="&#xe9;" horiz-adv-x="827" d="M243 488 C272 694 357 839 466 839 C552 839 581 759 581 688 C581 612 550 531 499 490 C461 460 414 447 369 447 C323 447 276 462 243 488 L243 488 Z M635 202 C579 104 492 20 380 20 C244 20 221 189 221 287 C221 342 223 393 233 439 C285 414 344 403 402 403 C553 403 723 480 723 647 C723 794 599 878 468 878 C197 878 55 596 55 348 C55 165 152 -30 355 -30 C524 -30 631 78 695 202 L635 202 Z M491 1026 L740 1196 L740 1371 L393 1026 L491 1026 Z " />
<glyph glyph-name="ecircumflex" unicode="&#xea;" horiz-adv-x="810" d="M243 488 C272 694 357 839 466 839 C552 839 581 759 581 688 C581 612 550 531 499 490 C461 460 414 447 369 447 C323 447 276 462 243 488 L243 488 Z M635 202 C579 104 492 20 380 20 C244 20 221 189 221 287 C221 342 223 393 233 439 C285 414 344 403 402 403 C553 403 723 480 723 647 C723 794 599 878 468 878 C197 878 55 596 55 348 C55 165 152 -30 355 -30 C524 -30 631 78 695 202 L635 202 Z M297 1026 L513 1196 L675 1026 L773 1026 L571 1317 L494 1317 L199 1026 L297 1026 Z " />
<glyph glyph-name="edieresis" unicode="&#xeb;" horiz-adv-x="810" d="M243 488 C272 694 357 839 466 839 C552 839 581 759 581 688 C581 612 550 531 499 490 C461 460 414 447 369 447 C323 447 276 462 243 488 L243 488 Z M635 202 C579 104 492 20 380 20 C244 20 221 189 221 287 C221 342 223 393 233 439 C285 414 344 403 402 403 C553 403 723 480 723 647 C723 794 599 878 468 878 C197 878 55 596 55 348 C55 165 152 -30 355 -30 C524 -30 631 78 695 202 L635 202 Z M398 1300 C337 1300 301 1222 301 1172 C301 1110 334 1084 374 1084 C435 1084 471 1162 471 1212 C471 1274 438 1300 398 1300 L398 1300 Z M717 1300 C656 1300 620 1222 620 1172 C620 1110 653 1084 693 1084 C754 1084 790 1162 790 1212 C790 1274 757 1300 717 1300 L717 1300 Z " />
<glyph glyph-name="igrave" unicode="&#xec;" horiz-adv-x="520" d="M394 1026 L67 1371 L67 1196 L296 1026 L394 1026 Z M90 813 L115 813 C166 813 183 802 184 768 C184 756 180 729 177 711 L101 269 C96 237 88 176 88 140 C88 49 118 -30 243 -30 C382 -30 456 102 491 202 L442 202 C419 151 371 42 295 42 C248 42 236 83 236 125 C236 150 241 181 244 199 L355 848 L97 848 L90 813 Z " />
<glyph glyph-name="iacute" unicode="&#xed;" horiz-adv-x="520" d="M90 813 L115 813 C166 813 183 802 184 768 C184 756 180 729 177 711 L101 269 C96 237 88 176 88 140 C88 49 118 -30 243 -30 C382 -30 456 102 491 202 L442 202 C419 151 371 42 295 42 C248 42 236 83 236 125 C236 150 241 181 244 199 L355 848 L97 848 L90 813 Z M223 1026 L472 1196 L472 1371 L125 1026 L223 1026 Z " />
<glyph glyph-name="icircumflex" unicode="&#xee;" horiz-adv-x="520" d="M90 813 L115 813 C166 813 183 802 184 768 C184 756 180 729 177 711 L101 269 C96 237 88 176 88 140 C88 49 118 -30 243 -30 C382 -30 456 102 491 202 L442 202 C419 151 371 42 295 42 C248 42 236 83 236 125 C236 150 241 181 244 199 L355 848 L97 848 L90 813 Z M87 1026 L303 1196 L465 1026 L563 1026 L361 1317 L284 1317 L-11 1026 L87 1026 Z " />
<glyph glyph-name="idieresis" unicode="&#xef;" horiz-adv-x="520" d="M187 1300 C126 1300 90 1222 90 1172 C90 1110 123 1084 163 1084 C224 1084 260 1162 260 1212 C260 1274 227 1300 187 1300 L187 1300 Z M466 1300 C405 1300 369 1222 369 1172 C369 1110 402 1084 442 1084 C503 1084 539 1162 539 1212 C539 1274 506 1300 466 1300 L466 1300 Z M90 813 L115 813 C166 813 183 802 184 768 C184 756 180 729 177 711 L101 269 C96 237 88 176 88 140 C88 49 118 -30 243 -30 C382 -30 456 102 491 202 L442 202 C419 151 371 42 295 42 C248 42 236 83 236 125 C236 150 241 181 244 199 L355 848 L97 848 L90 813 Z " />
<glyph glyph-name="eth" unicode="&#xf0;" horiz-adv-x="1294" d="M894 102 L219 102 L635 598 L894 102 Z M398 1236 L1074 1236 L658 740 L398 1236 Z M696 669 L1123 1179 L962 158 L696 669 Z M332 1181 L598 669 L170 159 L332 1181 Z M947 0 C998 0 1044 41 1052 91 L1235 1247 C1236 1252 1236 1256 1236 1261 C1236 1304 1204 1338 1158 1338 L346 1338 C295 1338 249 1297 241 1247 L58 91 C57 86 57 82 57 77 C57 34 89 0 135 0 L947 0 Z " />
<glyph glyph-name="ntilde" unicode="&#xf1;" horiz-adv-x="995" d="M208 0 L55 0 L177 710 C180 728 184 755 184 767 C183 801 166 811 115 811 L90 811 L97 847 L355 847 L315 614 C389 751 488 878 635 878 C753 878 807 809 807 704 C807 662 802 611 793 564 L721 193 C718 176 707 122 707 97 C707 67 715 42 742 42 C761 42 784 54 801 71 C835 105 864 160 885 202 L934 202 C894 102 815 -30 696 -30 C596 -30 560 36 560 116 C560 151 569 220 579 269 L650 616 C655 642 662 685 662 726 C662 773 644 824 591 824 C492 824 388 652 349 584 C313 521 284 435 272 367 L208 0 Z M787 1271 C769 1222 741 1190 694 1190 C619 1190 550 1285 451 1285 C362 1285 295 1207 272 1121 L308 1091 C324 1143 352 1178 402 1178 C477 1178 546 1083 646 1083 C735 1083 794 1155 822 1232 L787 1271 Z " />
<glyph glyph-name="ograve" unicode="&#xf2;" horiz-adv-x="880" d="M470 878 C181 878 55 583 55 325 C55 137 160 -30 369 -30 C635 -30 775 269 775 500 C775 695 686 878 470 878 L470 878 Z M212 231 C212 394 247 835 474 835 C588 835 618 709 618 617 C618 454 583 13 356 13 C241 13 212 138 212 231 L212 231 Z M607 1026 L260 1371 L260 1196 L509 1026 L607 1026 Z " />
<glyph glyph-name="oacute" unicode="&#xf3;" horiz-adv-x="880" d="M470 878 C181 878 55 583 55 325 C55 137 160 -30 369 -30 C635 -30 775 269 775 500 C775 695 686 878 470 878 L470 878 Z M212 231 C212 394 247 835 474 835 C588 835 618 709 618 617 C618 454 583 13 356 13 C241 13 212 138 212 231 L212 231 Z M463 1026 L712 1196 L712 1371 L365 1026 L463 1026 Z " />
<glyph glyph-name="ocircumflex" unicode="&#xf4;" horiz-adv-x="880" d="M470 878 C181 878 55 583 55 325 C55 137 160 -30 369 -30 C635 -30 775 269 775 500 C775 695 686 878 470 878 L470 878 Z M212 231 C212 394 247 835 474 835 C588 835 618 709 618 617 C618 454 583 13 356 13 C241 13 212 138 212 231 L212 231 Z M319 1026 L535 1196 L697 1026 L795 1026 L593 1317 L516 1317 L221 1026 L319 1026 Z " />
<glyph glyph-name="otilde" unicode="&#xf5;" horiz-adv-x="880" d="M470 878 C181 878 55 583 55 325 C55 137 160 -30 369 -30 C635 -30 775 269 775 500 C775 695 686 878 470 878 L470 878 Z M212 231 C212 394 247 835 474 835 C588 835 618 709 618 617 C618 454 583 13 356 13 C241 13 212 138 212 231 L212 231 Z M743 1271 C725 1222 697 1190 650 1190 C575 1190 506 1285 407 1285 C318 1285 251 1207 228 1121 L264 1091 C280 1143 308 1178 358 1178 C433 1178 502 1083 602 1083 C691 1083 750 1155 778 1232 L743 1271 Z " />
<glyph glyph-name="odieresis" unicode="&#xf6;" horiz-adv-x="880" d="M470 878 C181 878 55 583 55 325 C55 137 160 -30 369 -30 C635 -30 775 269 775 500 C775 695 686 878 470 878 L470 878 Z M212 231 C212 394 247 835 474 835 C588 835 618 709 618 617 C618 454 583 13 356 13 C241 13 212 138 212 231 L212 231 Z M385 1300 C324 1300 288 1222 288 1172 C288 1110 321 1084 361 1084 C422 1084 458 1162 458 1212 C458 1274 425 1300 385 1300 L385 1300 Z M704 1300 C643 1300 607 1222 607 1172 C607 1110 640 1084 680 1084 C741 1084 777 1162 777 1212 C777 1274 744 1300 704 1300 L704 1300 Z " />
<glyph glyph-name="divide" unicode="&#xf7;" horiz-adv-x="982" d="M59 419 L875 419 L888 499 L72 499 L59 419 Z M533 260 C533 302 501 334 457 334 C399 334 351 282 351 229 C351 186 386 153 428 153 C486 153 533 207 533 260 L533 260 Z M601 689 C601 731 569 763 525 763 C467 763 419 711 419 658 C419 615 454 582 496 582 C554 582 601 636 601 689 L601 689 Z " />
<glyph glyph-name="oslash" unicode="&#xf8;" horiz-adv-x="880" d="M470 878 C181 878 55 583 55 325 C55 260 67 197 92 143 L-1 49 L0 -36 L124 90 C176 17 258 -30 369 -30 C635 -30 775 269 775 500 C775 574 762 647 734 708 L823 799 L823 884 L703 762 C653 832 577 878 470 878 L470 878 Z M356 13 C260 13 224 99 214 182 L618 591 C614 412 572 13 356 13 L356 13 Z M474 835 C566 835 603 752 614 672 L212 265 C217 448 261 835 474 835 L474 835 Z " />
<glyph glyph-name="ugrave" unicode="&#xf9;" horiz-adv-x="1000" d="M349 848 L91 848 L84 812 L109 812 C160 812 177 802 178 768 C178 756 174 729 171 711 L95 263 C89 226 85 191 85 157 C85 48 135 -31 249 -31 C411 -31 512 124 577 249 C572 216 567 169 567 140 C567 49 597 -30 722 -30 C861 -30 935 102 970 202 L921 202 C898 151 850 42 774 42 C727 42 715 83 715 125 C715 150 720 181 723 199 L834 848 L679 848 L628 549 C589 322 485 147 393 68 C357 37 320 19 291 19 C239 19 230 70 230 114 C230 196 251 265 262 331 L349 848 Z M672 1026 L325 1371 L325 1196 L574 1026 L672 1026 Z " />
<glyph glyph-name="uacute" unicode="&#xfa;" horiz-adv-x="1000" d="M349 848 L91 848 L84 812 L109 812 C160 812 177 802 178 768 C178 756 174 729 171 711 L95 263 C89 226 85 191 85 157 C85 48 135 -31 249 -31 C411 -31 512 124 577 249 C572 216 567 169 567 140 C567 49 597 -30 722 -30 C861 -30 935 102 970 202 L921 202 C898 151 850 42 774 42 C727 42 715 83 715 125 C715 150 720 181 723 199 L834 848 L679 848 L628 549 C589 322 485 147 393 68 C357 37 320 19 291 19 C239 19 230 70 230 114 C230 196 251 265 262 331 L349 848 Z M443 1026 L692 1196 L692 1371 L345 1026 L443 1026 Z " />
<glyph glyph-name="ucircumflex" unicode="&#xfb;" horiz-adv-x="1000" d="M349 848 L91 848 L84 812 L109 812 C160 812 177 802 178 768 C178 756 174 729 171 711 L95 263 C89 226 85 191 85 157 C85 48 135 -31 249 -31 C411 -31 512 124 577 249 C572 216 567 169 567 140 C567 49 597 -30 722 -30 C861 -30 935 102 970 202 L921 202 C898 151 850 42 774 42 C727 42 715 83 715 125 C715 150 720 181 723 199 L834 848 L679 848 L628 549 C589 322 485 147 393 68 C357 37 320 19 291 19 C239 19 230 70 230 114 C230 196 251 265 262 331 L349 848 Z M314 1026 L530 1196 L692 1026 L790 1026 L588 1317 L511 1317 L216 1026 L314 1026 Z " />
<glyph glyph-name="udieresis" unicode="&#xfc;" horiz-adv-x="1000" d="M349 848 L91 848 L84 812 L109 812 C160 812 177 802 178 768 C178 756 174 729 171 711 L95 263 C89 226 85 191 85 157 C85 48 135 -31 249 -31 C411 -31 512 124 577 249 C572 216 567 169 567 140 C567 49 597 -30 722 -30 C861 -30 935 102 970 202 L921 202 C898 151 850 42 774 42 C727 42 715 83 715 125 C715 150 720 181 723 199 L834 848 L679 848 L628 549 C589 322 485 147 393 68 C357 37 320 19 291 19 C239 19 230 70 230 114 C230 196 251 265 262 331 L349 848 Z M410 1300 C349 1300 313 1222 313 1172 C313 1110 346 1084 386 1084 C447 1084 483 1162 483 1212 C483 1274 450 1300 410 1300 L410 1300 Z M729 1300 C668 1300 632 1222 632 1172 C632 1110 665 1084 705 1084 C766 1084 802 1162 802 1212 C802 1274 769 1300 729 1300 L729 1300 Z " />
<glyph glyph-name="yacute" unicode="&#xfd;" horiz-adv-x="835" d="M-34 -290 L-60 -317 L69 -450 C377 -283 618 149 694 467 C712 542 720 619 720 693 C720 745 715 797 704 848 L500 848 L496 813 C615 813 643 706 643 595 C643 423 567 236 477 77 L242 848 L5 848 L1 813 L47 811 C82 809 99 792 114 744 L342 0 L431 0 C364 -109 279 -229 184 -300 C147 -327 110 -342 74 -342 C32 -342 -8 -320 -34 -290 L-34 -290 Z M343 1026 L592 1196 L592 1371 L245 1026 L343 1026 Z " />
<glyph glyph-name="thorn" unicode="&#xfe;" horiz-adv-x="1294" d="M894 102 L219 102 L635 598 L894 102 Z M398 1236 L1074 1236 L658 740 L398 1236 Z M696 669 L1123 1179 L962 158 L696 669 Z M332 1181 L598 669 L170 159 L332 1181 Z M947 0 C998 0 1044 41 1052 91 L1235 1247 C1236 1252 1236 1256 1236 1261 C1236 1304 1204 1338 1158 1338 L346 1338 C295 1338 249 1297 241 1247 L58 91 C57 86 57 82 57 77 C57 34 89 0 135 0 L947 0 Z " />
<glyph glyph-name="ydieresis" unicode="&#xff;" horiz-adv-x="835" d="M-34 -290 L-60 -317 L69 -450 C377 -283 618 149 694 467 C712 542 720 619 720 693 C720 745 715 797 704 848 L500 848 L496 813 C615 813 643 706 643 595 C643 423 567 236 477 77 L242 848 L5 848 L1 813 L47 811 C82 809 99 792 114 744 L342 0 L431 0 C364 -109 279 -229 184 -300 C147 -327 110 -342 74 -342 C32 -342 -8 -320 -34 -290 L-34 -290 Z M564 1300 C503 1300 467 1222 467 1172 C467 1110 500 1084 540 1084 C601 1084 637 1162 637 1212 C637 1274 604 1300 564 1300 L564 1300 Z M245 1300 C184 1300 148 1222 148 1172 C148 1110 181 1084 221 1084 C282 1084 318 1162 318 1212 C318 1274 285 1300 245 1300 L245 1300 Z " />
<glyph glyph-name="Amacron" unicode="&#x100;" horiz-adv-x="1224" d="M303 438 L741 438 L784 153 C785 145 786 137 786 130 C785 79 749 49 699 47 L641 45 L634 0 L1131 0 L1137 45 L1108 47 C1046 52 983 73 965 186 L785 1338 L643 1338 L126 170 C91 91 27 49 -27 47 L-68 45 L-75 0 L276 0 L283 45 L240 45 C186 45 163 69 163 103 C163 117 168 134 176 151 L303 438 Z M325 488 L631 1181 L734 488 L325 488 Z M448 1576 L947 1576 L969 1688 L470 1688 L448 1576 Z " />
<glyph glyph-name="amacron" unicode="&#x101;" horiz-adv-x="979" d="M463 827 C542 827 613 744 614 554 C614 451 585 324 553 240 C515 143 447 23 345 23 C256 23 220 148 220 300 C220 533 310 827 463 827 L463 827 Z M672 848 L646 700 C622 803 548 878 439 878 C174 878 60 570 60 355 C60 185 116 -30 321 -30 C429 -30 512 52 556 139 C555 130 555 122 555 116 C555 36 581 -30 681 -30 C800 -30 879 102 919 202 L870 202 C849 160 820 105 786 71 C769 54 746 42 727 42 C700 42 692 67 692 97 C692 122 704 182 707 199 L828 848 L672 848 Z M316 1146 L755 1146 L780 1243 L341 1243 L316 1146 Z " />
<glyph glyph-name="Abreve" unicode="&#x102;" horiz-adv-x="1224" d="M303 438 L741 438 L784 153 C785 145 786 137 786 130 C785 79 749 49 699 47 L641 45 L634 0 L1131 0 L1137 45 L1108 47 C1046 52 983 73 965 186 L785 1338 L643 1338 L126 170 C91 91 27 49 -27 47 L-68 45 L-75 0 L276 0 L283 45 L240 45 C186 45 163 69 163 103 C163 117 168 134 176 151 L303 438 Z M325 488 L631 1181 L734 488 L325 488 Z M974 1703 C974 1703 881 1547 729 1547 C577 1547 538 1703 538 1703 L472 1676 C475 1600 525 1446 713 1446 C900 1446 1000 1600 1027 1676 L974 1703 Z " />
<glyph glyph-name="abreve" unicode="&#x103;" horiz-adv-x="979" d="M463 827 C542 827 613 744 614 554 C614 451 585 324 553 240 C515 143 447 23 345 23 C256 23 220 148 220 300 C220 533 310 827 463 827 L463 827 Z M672 848 L646 700 C622 803 548 878 439 878 C174 878 60 570 60 355 C60 185 116 -30 321 -30 C429 -30 512 52 556 139 C555 130 555 122 555 116 C555 36 581 -30 681 -30 C800 -30 879 102 919 202 L870 202 C849 160 820 105 786 71 C769 54 746 42 727 42 C700 42 692 67 692 97 C692 122 704 182 707 199 L828 848 L672 848 Z M798 1303 C798 1303 705 1147 553 1147 C401 1147 362 1303 362 1303 L296 1276 C299 1200 349 1046 537 1046 C724 1046 824 1200 851 1276 L798 1303 Z " />
<glyph glyph-name="Aogonek" unicode="&#x104;" horiz-adv-x="1224" d="M1061 0 C953 -25 858 -107 858 -217 C858 -286 907 -344 972 -359 L1034 -255 C985 -245 954 -205 954 -157 C954 -60 1055 -21 1131 0 L1137 45 L1108 47 C1046 52 983 73 965 186 L785 1338 L643 1338 L126 170 C91 91 27 49 -27 47 L-68 45 L-75 0 L276 0 L283 45 L240 45 C186 45 163 69 163 103 C163 117 168 134 176 151 L303 438 L741 438 L784 153 C785 145 786 137 786 130 C785 79 749 49 699 47 L641 45 L634 0 L1061 0 Z M325 488 L631 1181 L734 488 L325 488 Z " />
<glyph glyph-name="aogonek" unicode="&#x105;" horiz-adv-x="979" d="M672 848 L646 700 C622 803 548 878 439 878 C174 878 60 570 60 355 C60 185 116 -30 321 -30 C429 -30 512 52 556 139 C555 130 555 122 555 116 C555 49 573 -7 636 -24 C560 -62 502 -131 502 -217 C502 -286 551 -344 616 -359 L678 -255 C629 -245 598 -205 598 -157 C598 -93 642 -54 693 -29 C805 -20 880 105 919 202 L870 202 C849 160 820 105 786 71 C769 54 746 42 727 42 C700 42 692 67 692 97 C692 122 704 182 707 199 L828 848 L672 848 Z M463 827 C542 827 613 744 614 554 C614 451 585 324 553 240 C515 143 447 23 345 23 C256 23 220 148 220 300 C220 533 310 827 463 827 L463 827 Z " />
<glyph glyph-name="Cacute" unicode="&#x106;" horiz-adv-x="1152" d="M576 -25 C700 -25 830 8 946 79 L989 386 L935 386 C921 290 895 215 856 160 C800 80 693 36 587 36 C343 36 283 260 283 476 C283 783 377 1303 782 1303 C938 1303 1022 1205 1022 1047 C1022 1016 1019 985 1015 952 L1069 952 L1112 1259 C1012 1325 889 1363 763 1363 C313 1363 95 977 95 564 C95 265 244 -25 576 -25 L576 -25 Z M687 1516 L936 1686 L936 1861 L589 1516 L687 1516 Z " />
<glyph glyph-name="cacute" unicode="&#x107;" horiz-adv-x="782" d="M488 878 C203 878 60 611 60 351 C60 150 158 -30 352 -30 C517 -30 618 64 676 202 L623 202 C575 101 492 20 384 20 C234 20 230 181 230 295 C230 495 283 839 498 839 C600 839 647 764 647 673 C647 654 645 632 641 609 L681 609 L717 811 C647 857 566 878 488 878 L488 878 Z M446 1026 L695 1196 L695 1371 L348 1026 L446 1026 Z " />
<glyph glyph-name="Ccircumflex" unicode="&#x108;" horiz-adv-x="1152" d="M576 -25 C700 -25 830 8 946 79 L989 386 L935 386 C921 290 895 215 856 160 C800 80 693 36 587 36 C343 36 283 260 283 476 C283 783 377 1303 782 1303 C938 1303 1022 1205 1022 1047 C1022 1016 1019 985 1015 952 L1069 952 L1112 1259 C1012 1325 889 1363 763 1363 C313 1363 95 977 95 564 C95 265 244 -25 576 -25 L576 -25 Z M551 1516 L767 1686 L929 1516 L1027 1516 L825 1807 L748 1807 L453 1516 L551 1516 Z " />
<glyph glyph-name="ccircumflex" unicode="&#x109;" horiz-adv-x="782" d="M488 878 C203 878 60 611 60 351 C60 150 158 -30 352 -30 C517 -30 618 64 676 202 L623 202 C575 101 492 20 384 20 C234 20 230 181 230 295 C230 495 283 839 498 839 C600 839 647 764 647 673 C647 654 645 632 641 609 L681 609 L717 811 C647 857 566 878 488 878 L488 878 Z M304 1026 L520 1196 L682 1026 L780 1026 L578 1317 L501 1317 L206 1026 L304 1026 Z " />
<glyph glyph-name="Cdotaccent" unicode="&#x10a;" horiz-adv-x="1152" d="M576 -25 C700 -25 830 8 946 79 L989 386 L935 386 C921 290 895 215 856 160 C800 80 693 36 587 36 C343 36 283 260 283 476 C283 783 377 1303 782 1303 C938 1303 1022 1205 1022 1047 C1022 1016 1019 985 1015 952 L1069 952 L1112 1259 C1012 1325 889 1363 763 1363 C313 1363 95 977 95 564 C95 265 244 -25 576 -25 L576 -25 Z M858 1708 C858 1761 822 1798 775 1798 C707 1798 653 1730 653 1664 C653 1612 690 1574 738 1574 C806 1574 858 1645 858 1708 L858 1708 Z " />
<glyph glyph-name="cdotaccent" unicode="&#x10b;" horiz-adv-x="782" d="M488 878 C203 878 60 611 60 351 C60 150 158 -30 352 -30 C517 -30 618 64 676 202 L623 202 C575 101 492 20 384 20 C234 20 230 181 230 295 C230 495 283 839 498 839 C600 839 647 764 647 673 C647 654 645 632 641 609 L681 609 L717 811 C647 857 566 878 488 878 L488 878 Z M623 1218 C623 1271 587 1308 540 1308 C472 1308 418 1240 418 1174 C418 1122 455 1084 503 1084 C571 1084 623 1155 623 1218 L623 1218 Z " />
<glyph glyph-name="Ccaron" unicode="&#x10c;" horiz-adv-x="1152" d="M576 -25 C700 -25 830 8 946 79 L989 386 L935 386 C921 290 895 215 856 160 C800 80 693 36 587 36 C343 36 283 260 283 476 C283 783 377 1303 782 1303 C938 1303 1022 1205 1022 1047 C1022 1016 1019 985 1015 952 L1069 952 L1112 1259 C1012 1325 889 1363 763 1363 C313 1363 95 977 95 564 C95 265 244 -25 576 -25 L576 -25 Z M986 1807 L770 1637 L608 1807 L510 1807 L712 1516 L789 1516 L1084 1807 L986 1807 Z " />
<glyph glyph-name="ccaron" unicode="&#x10d;" horiz-adv-x="782" d="M488 878 C203 878 60 611 60 351 C60 150 158 -30 352 -30 C517 -30 618 64 676 202 L623 202 C575 101 492 20 384 20 C234 20 230 181 230 295 C230 495 283 839 498 839 C600 839 647 764 647 673 C647 654 645 632 641 609 L681 609 L717 811 C647 857 566 878 488 878 L488 878 Z M719 1317 L503 1147 L341 1317 L243 1317 L445 1026 L522 1026 L817 1317 L719 1317 Z " />
<glyph glyph-name="Dcaron" unicode="&#x10e;" horiz-adv-x="1317" d="M322 55 L495 1284 L594 1284 C897 1284 1014 1112 1014 816 C1014 439 876 55 463 55 L322 55 Z M5 0 L497 0 C972 0 1207 339 1207 787 C1207 1127 1006 1338 656 1338 L194 1338 L188 1293 C272 1292 317 1283 317 1228 C317 1222 316 1215 315 1207 L163 131 C153 57 105 46 11 45 L5 0 Z M974 1717 L758 1547 L596 1717 L498 1717 L700 1426 L777 1426 L1072 1717 L974 1717 Z " />
<glyph glyph-name="dcaron" unicode="&#x10f;" horiz-adv-x="999" d="M468 827 C547 827 618 744 619 554 C619 451 590 324 558 240 C520 143 452 23 350 23 C261 23 225 148 225 300 C225 533 315 827 468 827 L468 827 Z M651 1302 L676 1302 C727 1302 744 1292 745 1258 C745 1246 741 1219 738 1201 L651 700 C627 803 553 878 444 878 C179 878 65 570 65 355 C65 185 121 -30 326 -30 C434 -30 517 52 561 139 C560 130 560 122 560 116 C560 36 596 -30 696 -30 C815 -30 894 102 934 202 L885 202 C864 160 835 105 801 71 C784 54 761 42 742 42 C715 42 707 67 707 97 C707 122 719 182 722 199 L916 1338 L658 1338 L651 1302 Z M989 823 C1058 1072 1170 1222 1170 1299 C1170 1331 1150 1358 1105 1358 C1042 1358 1005 1305 997 1253 C990 1202 986 1109 969 984 C962 935 953 881 941 823 L989 823 Z " />
<glyph glyph-name="Dcroat" unicode="&#x110;" horiz-adv-x="1317" d="M83 618 L232 618 L163 131 C153 57 105 46 11 45 L5 0 L497 0 C972 0 1207 339 1207 787 C1207 1127 1006 1338 656 1338 L194 1338 L188 1293 C272 1292 317 1283 317 1228 C317 1222 316 1215 315 1207 L245 715 L98 715 L83 618 Z M322 55 L401 618 L668 618 L683 715 L415 715 L495 1284 L594 1284 C897 1284 1014 1112 1014 816 C1014 439 876 55 463 55 L322 55 Z " />
<glyph glyph-name="dcroat" unicode="&#x111;" horiz-adv-x="999" d="M651 1302 L676 1302 C727 1302 744 1292 745 1258 C745 1246 741 1219 738 1201 L725 1129 L503 1129 L490 1067 L714 1067 L651 700 C627 803 553 878 444 878 C179 878 65 570 65 355 C65 185 121 -30 326 -30 C434 -30 517 52 561 139 C560 130 560 122 560 116 C560 36 596 -30 696 -30 C815 -30 894 102 934 202 L885 202 C864 160 835 105 801 71 C784 54 761 42 742 42 C715 42 707 67 707 97 C707 122 719 182 722 199 L870 1067 L976 1067 L1038 1129 L880 1129 L916 1338 L658 1338 L651 1302 Z M468 827 C547 827 618 744 619 554 C619 451 590 324 558 240 C520 143 452 23 350 23 C261 23 225 148 225 300 C225 533 315 827 468 827 L468 827 Z " />
<glyph glyph-name="Emacron" unicode="&#x112;" horiz-adv-x="1115" d="M882 0 L968 332 L911 332 C854 128 807 55 698 55 L321 55 L410 682 L563 682 C641 682 667 662 667 591 C667 566 663 535 658 496 L712 496 L772 917 L717 917 C696 768 675 731 570 731 L417 731 L495 1283 L872 1283 C963 1283 990 1238 990 1098 L1045 1098 L1045 1338 L194 1338 L188 1293 C272 1292 317 1283 317 1228 C317 1222 316 1215 315 1207 L163 131 C153 57 105 46 11 45 L5 0 L882 0 Z M408 1576 L907 1576 L929 1688 L430 1688 L408 1576 Z " />
<glyph glyph-name="emacron" unicode="&#x113;" horiz-adv-x="810" d="M243 488 C272 694 357 839 466 839 C552 839 581 759 581 688 C581 612 550 531 499 490 C461 460 414 447 369 447 C323 447 276 462 243 488 L243 488 Z M635 202 C579 104 492 20 380 20 C244 20 221 189 221 287 C221 342 223 393 233 439 C285 414 344 403 402 403 C553 403 723 480 723 647 C723 794 599 878 468 878 C197 878 55 596 55 348 C55 165 152 -30 355 -30 C524 -30 631 78 695 202 L635 202 Z M294 1146 L733 1146 L758 1243 L319 1243 L294 1146 Z " />
<glyph glyph-name="Ebreve" unicode="&#x114;" horiz-adv-x="1115" d="M882 0 L968 332 L911 332 C854 128 807 55 698 55 L321 55 L410 682 L563 682 C641 682 667 662 667 591 C667 566 663 535 658 496 L712 496 L772 917 L717 917 C696 768 675 731 570 731 L417 731 L495 1283 L872 1283 C963 1283 990 1238 990 1098 L1045 1098 L1045 1338 L194 1338 L188 1293 C272 1292 317 1283 317 1228 C317 1222 316 1215 315 1207 L163 131 C153 57 105 46 11 45 L5 0 L882 0 Z M893 1703 C893 1703 800 1547 648 1547 C496 1547 457 1703 457 1703 L391 1676 C394 1600 444 1446 632 1446 C819 1446 919 1600 946 1676 L893 1703 Z " />
<glyph glyph-name="ebreve" unicode="&#x115;" horiz-adv-x="810" d="M243 488 C272 694 357 839 466 839 C552 839 581 759 581 688 C581 612 550 531 499 490 C461 460 414 447 369 447 C323 447 276 462 243 488 L243 488 Z M635 202 C579 104 492 20 380 20 C244 20 221 189 221 287 C221 342 223 393 233 439 C285 414 344 403 402 403 C553 403 723 480 723 647 C723 794 599 878 468 878 C197 878 55 596 55 348 C55 165 152 -30 355 -30 C524 -30 631 78 695 202 L635 202 Z M741 1303 C741 1303 648 1147 496 1147 C344 1147 305 1303 305 1303 L239 1276 C242 1200 292 1046 480 1046 C667 1046 767 1200 794 1276 L741 1303 Z " />
<glyph glyph-name="Edotaccent" unicode="&#x116;" horiz-adv-x="1115" d="M882 0 L968 332 L911 332 C854 128 807 55 698 55 L321 55 L410 682 L563 682 C641 682 667 662 667 591 C667 566 663 535 658 496 L712 496 L772 917 L717 917 C696 768 675 731 570 731 L417 731 L495 1283 L872 1283 C963 1283 990 1238 990 1098 L1045 1098 L1045 1338 L194 1338 L188 1293 C272 1292 317 1283 317 1228 C317 1222 316 1215 315 1207 L163 131 C153 57 105 46 11 45 L5 0 L882 0 Z M692 1708 C622 1708 568 1642 568 1577 C568 1525 610 1484 659 1484 C730 1484 781 1552 781 1614 C781 1667 741 1708 692 1708 L692 1708 Z " />
<glyph glyph-name="edotaccent" unicode="&#x117;" horiz-adv-x="810" d="M243 488 C272 694 357 839 466 839 C552 839 581 759 581 688 C581 612 550 531 499 490 C461 460 414 447 369 447 C323 447 276 462 243 488 L243 488 Z M635 202 C579 104 492 20 380 20 C244 20 221 189 221 287 C221 342 223 393 233 439 C285 414 344 403 402 403 C553 403 723 480 723 647 C723 794 599 878 468 878 C197 878 55 596 55 348 C55 165 152 -30 355 -30 C524 -30 631 78 695 202 L635 202 Z M616 1218 C616 1271 580 1308 533 1308 C465 1308 411 1240 411 1174 C411 1122 448 1084 496 1084 C564 1084 616 1155 616 1218 L616 1218 Z " />
<glyph glyph-name="Eogonek" unicode="&#x118;" horiz-adv-x="1115" d="M812 0 C704 -25 609 -107 609 -217 C609 -286 658 -344 723 -359 L785 -255 C736 -245 705 -205 705 -157 C705 -60 806 -21 882 0 L968 332 L911 332 C854 128 807 55 698 55 L321 55 L410 682 L563 682 C641 682 667 662 667 591 C667 566 663 535 658 496 L712 496 L772 917 L717 917 C696 768 675 731 570 731 L417 731 L495 1283 L872 1283 C963 1283 990 1238 990 1098 L1045 1098 L1045 1338 L194 1338 L188 1293 C272 1292 317 1283 317 1228 C317 1222 316 1215 315 1207 L163 131 C153 57 105 46 11 45 L5 0 L812 0 Z " />
<glyph glyph-name="eogonek" unicode="&#x119;" horiz-adv-x="810" d="M635 202 C579 104 492 20 380 20 C244 20 221 189 221 287 C221 342 223 393 233 439 C285 414 344 403 402 403 C553 403 723 480 723 647 C723 794 599 878 468 878 C197 878 55 596 55 348 C55 168 148 -23 344 -29 C272 -68 220 -135 220 -217 C220 -286 269 -344 334 -359 L396 -255 C347 -245 316 -205 316 -157 C316 -88 367 -48 423 -23 C553 1 640 95 695 202 L635 202 Z M243 488 C272 694 357 839 466 839 C552 839 581 759 581 688 C581 612 550 531 499 490 C461 460 414 447 369 447 C323 447 276 462 243 488 L243 488 Z " />
<glyph glyph-name="Ecaron" unicode="&#x11a;" horiz-adv-x="1115" d="M882 0 L968 332 L911 332 C854 128 807 55 698 55 L321 55 L410 682 L563 682 C641 682 667 662 667 591 C667 566 663 535 658 496 L712 496 L772 917 L717 917 C696 768 675 731 570 731 L417 731 L495 1283 L872 1283 C963 1283 990 1238 990 1098 L1045 1098 L1045 1338 L194 1338 L188 1293 C272 1292 317 1283 317 1228 C317 1222 316 1215 315 1207 L163 131 C153 57 105 46 11 45 L5 0 L882 0 Z M885 1717 L669 1547 L507 1717 L409 1717 L611 1426 L688 1426 L983 1717 L885 1717 Z " />
<glyph glyph-name="ecaron" unicode="&#x11b;" horiz-adv-x="810" d="M243 488 C272 694 357 839 466 839 C552 839 581 759 581 688 C581 612 550 531 499 490 C461 460 414 447 369 447 C323 447 276 462 243 488 L243 488 Z M635 202 C579 104 492 20 380 20 C244 20 221 189 221 287 C221 342 223 393 233 439 C285 414 344 403 402 403 C553 403 723 480 723 647 C723 794 599 878 468 878 C197 878 55 596 55 348 C55 165 152 -30 355 -30 C524 -30 631 78 695 202 L635 202 Z M716 1317 L500 1147 L338 1317 L240 1317 L442 1026 L519 1026 L814 1317 L716 1317 Z " />
<glyph glyph-name="Gcircumflex" unicode="&#x11c;" horiz-adv-x="1214" d="M1109 1254 C1012 1323 892 1363 759 1363 C438 1363 95 1117 95 563 C95 219 278 -25 579 -25 C724 -25 914 37 1031 171 L1097 638 L796 638 L788 585 L848 585 C899 585 914 573 914 539 C914 528 913 516 911 501 L874 237 C856 109 737 31 606 31 C349 31 281 242 281 470 C281 1046 512 1306 762 1306 C952 1306 1031 1191 1032 1000 C1032 985 1032 970 1031 954 L1085 954 L1109 1254 Z M553 1425 L769 1595 L931 1425 L1029 1425 L827 1716 L750 1716 L455 1425 L553 1425 Z " />
<glyph glyph-name="gcircumflex" unicode="&#x11d;" horiz-adv-x="843" d="M419 837 C499 837 557 797 557 623 C557 510 508 294 372 294 C289 294 228 332 228 488 C228 611 262 837 419 837 L419 837 Z M39 -109 L-5 -339 C63 -390 211 -450 353 -450 C562 -450 735 -350 735 -147 C735 -18 673 54 512 79 L316 109 C218 124 163 133 163 188 C163 217 184 258 246 281 C281 261 325 253 371 253 C573 253 704 421 704 593 C704 628 697 663 685 696 C694 753 751 813 823 813 L847 813 L853 848 L669 848 L640 774 C591 835 514 878 414 878 C231 878 79 746 79 560 C79 436 128 357 203 304 C103 271 38 196 38 124 C38 46 88 -7 204 -25 L466 -65 C605 -86 644 -126 644 -206 C644 -342 508 -403 342 -403 C186 -403 71 -307 71 -159 C71 -142 72 -126 75 -109 L39 -109 Z M294 1026 L510 1196 L672 1026 L770 1026 L568 1317 L491 1317 L196 1026 L294 1026 Z " />
<glyph glyph-name="Gbreve" unicode="&#x11e;" horiz-adv-x="1214" d="M1109 1254 C1012 1323 892 1363 759 1363 C438 1363 95 1117 95 563 C95 219 278 -25 579 -25 C724 -25 914 37 1031 171 L1097 638 L796 638 L788 585 L848 585 C899 585 914 573 914 539 C914 528 913 516 911 501 L874 237 C856 109 737 31 606 31 C349 31 281 242 281 470 C281 1046 512 1306 762 1306 C952 1306 1031 1191 1032 1000 C1032 985 1032 970 1031 954 L1085 954 L1109 1254 Z M988 1703 C988 1703 895 1547 743 1547 C591 1547 552 1703 552 1703 L486 1676 C489 1600 539 1446 727 1446 C914 1446 1014 1600 1041 1676 L988 1703 Z " />
<glyph glyph-name="gbreve" unicode="&#x11f;" horiz-adv-x="843" d="M419 837 C499 837 557 797 557 623 C557 510 508 294 372 294 C289 294 228 332 228 488 C228 611 262 837 419 837 L419 837 Z M39 -109 L-5 -339 C63 -390 211 -450 353 -450 C562 -450 735 -350 735 -147 C735 -18 673 54 512 79 L316 109 C218 124 163 133 163 188 C163 217 184 258 246 281 C281 261 325 253 371 253 C573 253 704 421 704 593 C704 628 697 663 685 696 C694 753 751 813 823 813 L847 813 L853 848 L669 848 L640 774 C591 835 514 878 414 878 C231 878 79 746 79 560 C79 436 128 357 203 304 C103 271 38 196 38 124 C38 46 88 -7 204 -25 L466 -65 C605 -86 644 -126 644 -206 C644 -342 508 -403 342 -403 C186 -403 71 -307 71 -159 C71 -142 72 -126 75 -109 L39 -109 Z M733 1303 C733 1303 640 1147 488 1147 C336 1147 297 1303 297 1303 L231 1276 C234 1200 284 1046 472 1046 C659 1046 759 1200 786 1276 L733 1303 Z " />
<glyph glyph-name="Gdotaccent" unicode="&#x120;" horiz-adv-x="1214" d="M1109 1254 L1085 954 L1031 954 C1032 970 1032 985 1032 1000 C1031 1191 952 1306 762 1306 C512 1306 281 1046 281 470 C281 242 349 31 606 31 C737 31 856 109 874 237 L911 501 C913 516 914 528 914 539 C914 573 899 585 848 585 L788 585 L796 638 L1097 638 L1031 171 C914 37 724 -25 579 -25 C278 -25 95 219 95 563 C95 1117 438 1363 759 1363 C892 1363 1012 1323 1109 1254 L1109 1254 Z M742 1708 C672 1708 618 1642 618 1577 C618 1525 660 1484 709 1484 C780 1484 831 1552 831 1614 C831 1667 791 1708 742 1708 L742 1708 Z " />
<glyph glyph-name="gdotaccent" unicode="&#x121;" horiz-adv-x="843" d="M419 837 C499 837 557 797 557 623 C557 510 508 294 372 294 C289 294 228 332 228 488 C228 611 262 837 419 837 L419 837 Z M39 -109 L-5 -339 C63 -390 211 -450 353 -450 C562 -450 735 -350 735 -147 C735 -18 673 54 512 79 L316 109 C218 124 163 133 163 188 C163 217 184 258 246 281 C281 261 325 253 371 253 C573 253 704 421 704 593 C704 628 697 663 685 696 C694 753 751 813 823 813 L847 813 L853 848 L669 848 L640 774 C591 835 514 878 414 878 C231 878 79 746 79 560 C79 436 128 357 203 304 C103 271 38 196 38 124 C38 46 88 -7 204 -25 L466 -65 C605 -86 644 -126 644 -206 C644 -342 508 -403 342 -403 C186 -403 71 -307 71 -159 C71 -142 72 -126 75 -109 L39 -109 Z M578 1218 C578 1271 542 1308 495 1308 C427 1308 373 1240 373 1174 C373 1122 410 1084 458 1084 C526 1084 578 1155 578 1218 L578 1218 Z " />
<glyph glyph-name="Gcommaaccent" unicode="&#x122;" horiz-adv-x="1214" d="M1109 1254 C1012 1323 892 1363 759 1363 C438 1363 95 1117 95 563 C95 219 278 -25 579 -25 C724 -25 914 37 1031 171 L1097 638 L796 638 L788 585 L848 585 C899 585 914 573 914 539 C914 528 913 516 911 501 L874 237 C856 109 737 31 606 31 C349 31 281 242 281 470 C281 1046 512 1306 762 1306 C952 1306 1031 1191 1032 1000 C1032 985 1032 970 1031 954 L1085 954 L1109 1254 Z M689 -225 C689 -235 688 -248 685 -260 C666 -344 572 -403 492 -432 L510 -474 C621 -437 739 -347 739 -215 C739 -153 698 -82 623 -82 C576 -82 524 -119 524 -174 C524 -220 561 -267 611 -267 C639 -267 669 -252 689 -217 L689 -225 Z " />
<glyph glyph-name="gcommaaccent" unicode="&#x123;" horiz-adv-x="843" d="M419 837 C499 837 557 797 557 623 C557 510 508 294 372 294 C289 294 228 332 228 488 C228 611 262 837 419 837 L419 837 Z M39 -109 L-5 -339 C63 -390 211 -450 353 -450 C562 -450 735 -350 735 -147 C735 -18 673 54 512 79 L316 109 C218 124 163 133 163 188 C163 217 184 258 246 281 C281 261 325 253 371 253 C573 253 704 421 704 593 C704 628 697 663 685 696 C694 753 751 813 823 813 L847 813 L853 848 L669 848 L640 774 C591 835 514 878 414 878 C231 878 79 746 79 560 C79 436 128 357 203 304 C103 271 38 196 38 124 C38 46 88 -7 204 -25 L466 -65 C605 -86 644 -126 644 -206 C644 -342 508 -403 342 -403 C186 -403 71 -307 71 -159 C71 -142 72 -126 75 -109 L39 -109 Z M434 1095 C434 1105 435 1118 438 1130 C457 1214 551 1273 631 1302 L613 1344 C502 1307 384 1217 384 1085 C384 1023 425 952 500 952 C547 952 599 989 599 1044 C599 1090 562 1137 512 1137 C484 1137 454 1122 434 1087 L434 1095 Z " />
<glyph glyph-name="Itilde" unicode="&#x128;" horiz-adv-x="617" d="M637 1338 L189 1338 L183 1293 C267 1292 312 1283 312 1228 C312 1222 311 1215 310 1207 L158 131 C148 57 100 46 6 45 L0 0 L448 0 L454 45 C370 46 325 55 325 110 C325 116 326 123 327 131 L479 1207 C489 1281 537 1292 631 1293 L637 1338 Z M705 1679 C688 1631 651 1591 599 1591 C515 1591 438 1686 328 1686 C230 1686 169 1619 135 1539 L166 1484 C181 1536 219 1579 274 1579 C357 1579 434 1484 545 1484 C637 1484 697 1543 733 1617 L705 1679 Z " />
<glyph glyph-name="itilde" unicode="&#x129;" horiz-adv-x="520" d="M29 1104 C45 1146 77 1178 120 1178 C195 1178 264 1083 364 1083 C447 1083 501 1142 533 1216 L497 1251 C479 1216 450 1190 412 1190 C337 1190 268 1285 169 1285 C80 1285 25 1218 -5 1138 L29 1104 Z M90 813 L115 813 C166 813 183 802 184 768 C184 756 180 729 177 711 L101 269 C96 237 88 176 88 140 C88 49 118 -30 243 -30 C382 -30 456 102 491 202 L442 202 C419 151 371 42 295 42 C248 42 236 83 236 125 C236 150 241 181 244 199 L355 848 L97 848 L90 813 Z " />
<glyph glyph-name="Imacron" unicode="&#x12a;" horiz-adv-x="622" d="M642 1338 L194 1338 L188 1293 C272 1292 317 1283 317 1228 C317 1222 316 1215 315 1207 L163 131 C153 57 105 46 11 45 L5 0 L453 0 L459 45 C375 46 330 55 330 110 C330 116 331 123 332 131 L484 1207 C494 1281 542 1292 636 1293 L642 1338 Z M168 1576 L667 1576 L689 1688 L190 1688 L168 1576 Z " />
<glyph glyph-name="imacron" unicode="&#x12b;" horiz-adv-x="520" d="M90 813 L115 813 C166 813 183 802 184 768 C184 756 180 729 177 711 L101 269 C96 237 88 176 88 140 C88 49 118 -30 243 -30 C382 -30 456 102 491 202 L442 202 C419 151 371 42 295 42 C248 42 236 83 236 125 C236 150 241 181 244 199 L355 848 L97 848 L90 813 Z M66 1146 L505 1146 L530 1243 L91 1243 L66 1146 Z " />
<glyph glyph-name="Ibreve" unicode="&#x12c;" horiz-adv-x="622" d="M642 1338 L194 1338 L188 1293 C272 1292 317 1283 317 1228 C317 1222 316 1215 315 1207 L163 131 C153 57 105 46 11 45 L5 0 L453 0 L459 45 C375 46 330 55 330 110 C330 116 331 123 332 131 L484 1207 C494 1281 542 1292 636 1293 L642 1338 Z M649 1703 C649 1703 556 1547 404 1547 C252 1547 213 1703 213 1703 L147 1676 C150 1600 200 1446 388 1446 C575 1446 675 1600 702 1676 L649 1703 Z " />
<glyph glyph-name="ibreve" unicode="&#x12d;" horiz-adv-x="520" d="M518 1303 C518 1303 434 1147 297 1147 C160 1147 128 1287 125 1303 L66 1276 C66 1143 159 1046 292 1046 C457 1046 541 1201 565 1276 L518 1303 Z M90 813 L115 813 C166 813 183 802 184 768 C184 756 180 729 177 711 L101 269 C96 237 88 176 88 140 C88 49 118 -30 243 -30 C382 -30 456 102 491 202 L442 202 C419 151 371 42 295 42 C248 42 236 83 236 125 C236 150 241 181 244 199 L355 848 L97 848 L90 813 Z " />
<glyph glyph-name="Iogonek" unicode="&#x12e;" horiz-adv-x="622" d="M383 0 C275 -25 180 -107 180 -217 C180 -286 229 -344 294 -359 L356 -255 C307 -245 276 -205 276 -157 C276 -60 377 -21 453 0 L459 45 C375 46 330 55 330 110 C330 116 331 123 332 131 L484 1207 C494 1281 542 1292 636 1293 L642 1338 L194 1338 L188 1293 C272 1292 317 1283 317 1228 C317 1222 316 1215 315 1207 L163 131 C153 57 105 46 11 45 L5 0 L383 0 Z " />
<glyph glyph-name="iogonek" unicode="&#x12f;" horiz-adv-x="515" d="M85 813 L110 813 C161 813 178 802 179 768 C179 756 175 729 172 711 L96 269 C91 237 83 176 83 140 C83 59 107 -12 201 -27 C127 -65 72 -133 72 -217 C72 -286 121 -344 186 -359 L248 -255 C199 -245 168 -205 168 -157 C168 -92 213 -53 266 -28 C295 -24 321 -14 344 0 L345 0 L344 0 C417 45 461 131 486 202 L437 202 C414 151 366 42 290 42 C243 42 231 83 231 125 C231 150 236 181 239 199 L350 848 L92 848 L85 813 Z M331 1350 C270 1350 234 1272 234 1222 C234 1160 267 1134 307 1134 C368 1134 404 1212 404 1262 C404 1324 371 1350 331 1350 L331 1350 Z " />
<glyph glyph-name="uni0130" unicode="&#x130;" horiz-adv-x="622" d="M642 1338 L194 1338 L188 1293 C272 1292 317 1283 317 1228 C317 1222 316 1215 315 1207 L163 131 C153 57 105 46 11 45 L5 0 L453 0 L459 45 C375 46 330 55 330 110 C330 116 331 123 332 131 L484 1207 C494 1281 542 1292 636 1293 L642 1338 Z M472 1708 C402 1708 348 1642 348 1577 C348 1525 390 1484 439 1484 C510 1484 561 1552 561 1614 C561 1667 521 1708 472 1708 L472 1708 Z " />
<glyph glyph-name="dotlessi" unicode="&#x131;" horiz-adv-x="520" d="M90 813 L115 813 C166 813 183 802 184 768 C184 756 180 729 177 711 L101 269 C96 237 88 176 88 140 C88 49 118 -30 243 -30 C382 -30 456 102 491 202 L442 202 C419 151 371 42 295 42 C248 42 236 83 236 125 C236 150 241 181 244 199 L355 848 L97 848 L90 813 Z " />
<glyph glyph-name="IJ" unicode="&#x132;" horiz-adv-x="1400" d="M642 1338 L194 1338 L188 1293 C272 1292 317 1283 317 1228 C317 1222 316 1215 315 1207 L163 131 C153 57 105 46 11 45 L5 0 L453 0 L459 45 C375 46 330 55 330 110 C330 116 331 123 332 131 L484 1207 C494 1281 542 1292 636 1293 L642 1338 Z M599 294 L565 58 C646 5 730 -25 815 -25 C1008 -25 1107 114 1131 281 L1262 1207 C1272 1281 1320 1292 1414 1293 L1420 1338 L972 1338 L966 1293 C1050 1292 1095 1283 1095 1228 C1095 1222 1094 1215 1093 1207 L950 194 C935 92 859 36 787 36 C715 36 648 91 648 209 C648 223 649 238 651 254 L656 294 L599 294 Z " />
<glyph glyph-name="ij" unicode="&#x133;" horiz-adv-x="967" d="M87 813 L112 813 C163 813 180 802 181 768 C181 756 177 729 174 711 L98 269 C93 237 85 176 85 140 C85 49 115 -30 240 -30 C379 -30 453 102 488 202 L439 202 C416 151 368 42 292 42 C245 42 233 83 233 125 C233 150 238 181 241 199 L352 848 L94 848 L87 813 Z M333 1350 C272 1350 236 1272 236 1222 C236 1160 269 1134 309 1134 C370 1134 406 1212 406 1262 C406 1324 373 1350 333 1350 L333 1350 Z M828 1350 C767 1350 731 1272 731 1222 C731 1160 764 1134 804 1134 C865 1134 901 1212 901 1262 C901 1324 868 1350 828 1350 L828 1350 Z M370 -450 C509 -450 644 -340 690 -71 L847 848 L589 848 L582 813 L607 813 C658 813 675 802 676 768 C676 756 672 729 669 711 L538 -60 C517 -185 500 -405 364 -405 C301 -405 289 -338 289 -286 C289 -268 290 -249 293 -227 L253 -227 L231 -382 C259 -418 311 -450 370 -450 L370 -450 Z " />
<glyph glyph-name="Kcommaaccent" unicode="&#x136;" horiz-adv-x="1219" d="M642 1338 L194 1338 L188 1293 C272 1292 317 1283 317 1228 C317 1222 316 1215 315 1207 L163 131 C153 57 105 46 11 45 L5 0 L453 0 L459 45 C375 46 330 55 330 110 C330 116 331 123 332 131 L403 639 L475 711 L803 136 C814 117 820 100 820 85 C819 63 803 45 758 45 L706 45 L700 0 L1146 0 L1152 45 L1124 45 C1071 45 1023 84 991 141 L597 834 L1054 1293 L1198 1293 L1204 1338 L854 1338 L848 1293 L986 1293 L413 710 L484 1207 C494 1281 542 1292 636 1293 L642 1338 Z M651 -217 C631 -252 601 -267 573 -267 C523 -267 486 -220 486 -174 C486 -119 538 -82 585 -82 C660 -82 701 -153 701 -215 C701 -347 583 -437 472 -474 L454 -432 C534 -403 628 -344 647 -260 C650 -248 651 -235 651 -225 L651 -217 Z " />
<glyph glyph-name="kcommaaccent" unicode="&#x137;" horiz-adv-x="898" d="M303 507 C314 508 325 508 334 508 C408 505 442 452 463 349 L515 89 C528 23 566 -30 643 -30 C767 -30 837 85 868 202 L820 202 C787 100 746 56 716 56 C675 56 656 107 640 204 L621 317 C598 452 546 519 403 524 L403 528 C574 551 616 813 799 813 L825 813 L832 848 L612 848 C578 749 484 555 354 555 C339 555 326 555 311 560 L451 1338 L180 1338 L173 1302 L199 1302 C253 1302 270 1292 271 1258 C271 1246 267 1219 264 1201 L50 0 L213 0 L303 507 Z M456 -225 C456 -235 455 -248 452 -260 C433 -344 339 -403 259 -432 L277 -474 C388 -437 506 -347 506 -215 C506 -153 465 -82 390 -82 C343 -82 291 -119 291 -174 C291 -220 328 -267 378 -267 C406 -267 436 -252 456 -217 L456 -225 Z " />
<glyph glyph-name="Lacute" unicode="&#x139;" horiz-adv-x="1011" d="M895 0 L946 356 L880 356 C839 144 773 65 664 65 L322 65 L484 1207 C494 1281 542 1292 636 1293 L642 1338 L194 1338 L188 1293 C272 1292 317 1283 317 1228 C317 1222 316 1215 315 1207 L163 131 C153 57 105 46 11 45 L5 0 L895 0 Z M398 1426 L647 1596 L647 1771 L300 1426 L398 1426 Z " />
<glyph glyph-name="lacute" unicode="&#x13a;" horiz-adv-x="523" d="M165 1302 L190 1302 C241 1302 258 1292 259 1258 C259 1246 255 1219 252 1201 L93 269 C88 237 80 176 80 140 C80 49 110 -30 235 -30 C374 -30 448 102 483 202 L434 202 C411 151 363 42 287 42 C240 42 228 83 228 125 C228 150 233 181 236 199 L430 1338 L172 1338 L165 1302 Z M303 1426 L552 1596 L552 1771 L205 1426 L303 1426 Z " />
<glyph glyph-name="Lcommaaccent" unicode="&#x13b;" horiz-adv-x="1011" d="M895 0 L946 356 L880 356 C839 144 773 65 664 65 L322 65 L484 1207 C494 1281 542 1292 636 1293 L642 1338 L194 1338 L188 1293 C272 1292 317 1283 317 1228 C317 1222 316 1215 315 1207 L163 131 C153 57 105 46 11 45 L5 0 L895 0 Z M581 -217 C561 -252 531 -267 503 -267 C453 -267 416 -220 416 -174 C416 -119 468 -82 515 -82 C590 -82 631 -153 631 -215 C631 -347 513 -437 402 -474 L384 -432 C464 -403 558 -344 577 -260 C580 -248 581 -235 581 -225 L581 -217 Z " />
<glyph glyph-name="lcommaaccent" unicode="&#x13c;" horiz-adv-x="523" d="M165 1302 L190 1302 C241 1302 258 1292 259 1258 C259 1246 255 1219 252 1201 L93 269 C88 237 80 176 80 140 C80 49 110 -30 235 -30 C374 -30 448 102 483 202 L434 202 C411 151 363 42 287 42 C240 42 228 83 228 125 C228 150 233 181 236 199 L430 1338 L172 1338 L165 1302 Z M213 -217 C193 -252 163 -267 135 -267 C85 -267 48 -220 48 -174 C48 -119 100 -82 147 -82 C222 -82 263 -153 263 -215 C263 -347 145 -437 34 -474 L16 -432 C96 -403 190 -344 209 -260 C212 -248 213 -235 213 -225 L213 -217 Z " />
<glyph glyph-name="Ldot" unicode="&#x13f;" horiz-adv-x="1011" d="M895 0 L946 356 L880 356 C839 144 773 65 664 65 L322 65 L484 1207 C494 1281 542 1292 636 1293 L642 1338 L194 1338 L188 1293 C272 1292 317 1283 317 1228 C317 1222 316 1215 315 1207 L163 131 C153 57 105 46 11 45 L5 0 L895 0 Z M945 698 C945 751 909 788 862 788 C794 788 740 720 740 654 C740 602 777 564 825 564 C893 564 945 635 945 698 L945 698 Z " />
<glyph glyph-name="ldot" unicode="&#x140;" horiz-adv-x="633" d="M163 1302 L188 1302 C239 1302 256 1292 257 1258 C257 1246 253 1219 250 1201 L91 269 C86 237 78 176 78 140 C78 49 108 -30 233 -30 C372 -30 446 102 481 202 L432 202 C409 151 361 42 285 42 C238 42 226 83 226 125 C226 150 231 181 234 199 L428 1338 L170 1338 L163 1302 Z M640 588 C640 641 604 678 557 678 C489 678 435 610 435 544 C435 492 472 454 520 454 C588 454 640 525 640 588 L640 588 Z " />
<glyph glyph-name="Lslash" unicode="&#x141;" horiz-adv-x="1011" d="M52 346 L213 486 L163 131 C153 57 105 46 11 45 L5 0 L895 0 L946 356 L880 356 C839 144 773 65 664 65 L322 65 L405 654 L661 876 L661 968 L420 759 L484 1207 C494 1281 542 1292 636 1293 L642 1338 L194 1338 L188 1293 C272 1292 317 1283 317 1228 C317 1222 316 1215 315 1207 L228 591 L51 438 L52 346 Z " />
<glyph glyph-name="lslash" unicode="&#x142;" horiz-adv-x="523" d="M165 1302 L190 1302 C241 1302 258 1292 259 1258 C259 1246 255 1219 252 1201 L142 561 L1 418 L2 333 L125 458 L93 269 C88 237 80 176 80 140 C80 49 110 -30 235 -30 C374 -30 448 102 483 202 L434 202 C411 151 363 42 287 42 C240 42 228 83 228 125 C228 150 233 181 236 199 L312 648 L493 831 L493 916 L330 751 L430 1338 L172 1338 L165 1302 Z " />
<glyph glyph-name="Nacute" unicode="&#x143;" horiz-adv-x="1316" d="M5 0 L365 0 L372 45 L351 45 C267 46 222 55 222 110 C222 116 223 123 224 131 L377 1217 L917 -20 L994 -20 L1168 1207 C1178 1281 1226 1292 1320 1293 L1326 1338 L970 1338 L963 1293 L992 1293 C1067 1293 1113 1281 1113 1228 C1113 1222 1112 1215 1111 1207 L978 269 L508 1338 L194 1338 L188 1293 C272 1292 317 1283 317 1228 C317 1222 316 1215 315 1207 L163 131 C153 57 105 46 11 45 L5 0 Z M770 1426 L1019 1596 L1019 1771 L672 1426 L770 1426 Z " />
<glyph glyph-name="nacute" unicode="&#x144;" horiz-adv-x="995" d="M272 367 C284 435 313 521 349 584 C388 652 492 824 591 824 C644 824 662 773 662 726 C662 685 655 642 650 616 L579 269 C569 220 560 151 560 116 C560 36 596 -30 696 -30 C815 -30 894 102 934 202 L885 202 C864 160 835 105 801 71 C784 54 761 42 742 42 C715 42 707 67 707 97 C707 122 718 176 721 193 L793 564 C802 611 807 662 807 704 C807 809 753 878 635 878 C488 878 389 751 315 614 L355 847 L97 847 L90 811 L115 811 C166 811 183 801 184 767 C184 755 180 728 177 710 L55 0 L208 0 L272 367 Z M518 1026 L767 1196 L767 1371 L420 1026 L518 1026 Z " />
<glyph glyph-name="Ncommaaccent" unicode="&#x145;" horiz-adv-x="1316" d="M5 0 L365 0 L372 45 L351 45 C267 46 222 55 222 110 C222 116 223 123 224 131 L377 1217 L917 -20 L994 -20 L1168 1207 C1178 1281 1226 1292 1320 1293 L1326 1338 L970 1338 L963 1293 L992 1293 C1067 1293 1113 1281 1113 1228 C1113 1222 1112 1215 1111 1207 L978 269 L508 1338 L194 1338 L188 1293 C272 1292 317 1283 317 1228 C317 1222 316 1215 315 1207 L163 131 C153 57 105 46 11 45 L5 0 Z M666 -217 C646 -252 616 -267 588 -267 C538 -267 501 -220 501 -174 C501 -119 553 -82 600 -82 C675 -82 716 -153 716 -215 C716 -347 598 -437 487 -474 L469 -432 C549 -403 643 -344 662 -260 C665 -248 666 -235 666 -225 L666 -217 Z " />
<glyph glyph-name="ncommaaccent" unicode="&#x146;" horiz-adv-x="995" d="M272 367 C284 435 313 521 349 584 C388 652 492 824 591 824 C644 824 662 773 662 726 C662 685 655 642 650 616 L579 269 C569 220 560 151 560 116 C560 36 596 -30 696 -30 C815 -30 894 102 934 202 L885 202 C864 160 835 105 801 71 C784 54 761 42 742 42 C715 42 707 67 707 97 C707 122 718 176 721 193 L793 564 C802 611 807 662 807 704 C807 809 753 878 635 878 C488 878 389 751 315 614 L355 847 L97 847 L90 811 L115 811 C166 811 183 801 184 767 C184 755 180 728 177 710 L55 0 L208 0 L272 367 Z M461 -225 C461 -235 460 -248 457 -260 C438 -344 344 -403 264 -432 L282 -474 C393 -437 511 -347 511 -215 C511 -153 470 -82 395 -82 C348 -82 296 -119 296 -174 C296 -220 333 -267 383 -267 C411 -267 441 -252 461 -217 L461 -225 Z " />
<glyph glyph-name="Ncaron" unicode="&#x147;" horiz-adv-x="1316" d="M5 0 L365 0 L372 45 L351 45 C267 46 222 55 222 110 C222 116 223 123 224 131 L377 1217 L917 -20 L994 -20 L1168 1207 C1178 1281 1226 1292 1320 1293 L1326 1338 L970 1338 L963 1293 L992 1293 C1067 1293 1113 1281 1113 1228 C1113 1222 1112 1215 1111 1207 L978 269 L508 1338 L194 1338 L188 1293 C272 1292 317 1283 317 1228 C317 1222 316 1215 315 1207 L163 131 C153 57 105 46 11 45 L5 0 Z M1004 1717 L788 1547 L626 1717 L528 1717 L730 1426 L807 1426 L1102 1717 L1004 1717 Z " />
<glyph glyph-name="ncaron" unicode="&#x148;" horiz-adv-x="995" d="M272 367 C284 435 313 521 349 584 C388 652 492 824 591 824 C644 824 662 773 662 726 C662 685 655 642 650 616 L579 269 C569 220 560 151 560 116 C560 36 596 -30 696 -30 C815 -30 894 102 934 202 L885 202 C864 160 835 105 801 71 C784 54 761 42 742 42 C715 42 707 67 707 97 C707 122 718 176 721 193 L793 564 C802 611 807 662 807 704 C807 809 753 878 635 878 C488 878 389 751 315 614 L355 847 L97 847 L90 811 L115 811 C166 811 183 801 184 767 C184 755 180 728 177 710 L55 0 L208 0 L272 367 Z M746 1317 L530 1147 L368 1317 L270 1317 L472 1026 L549 1026 L844 1317 L746 1317 Z " />
<glyph glyph-name="Omacron" unicode="&#x14c;" horiz-adv-x="1267" d="M1152 669 C1158 721 1162 774 1162 831 C1162 1142 1018 1363 737 1363 C438 1363 161 1104 105 669 C98 617 94 564 94 507 C94 196 238 -25 519 -25 C818 -25 1095 234 1152 669 L1152 669 Z M946 636 C910 338 833 36 516 36 C320 36 269 176 269 336 C269 453 286 562 311 702 C363 997 423 1302 740 1302 C936 1302 987 1162 987 1002 C987 885 963 777 946 636 L946 636 Z M518 1576 L1017 1576 L1039 1688 L540 1688 L518 1576 Z " />
<glyph glyph-name="omacron" unicode="&#x14d;" horiz-adv-x="880" d="M470 878 C181 878 55 583 55 325 C55 137 160 -30 369 -30 C635 -30 775 269 775 500 C775 695 686 878 470 878 L470 878 Z M212 231 C212 394 247 835 474 835 C588 835 618 709 618 617 C618 454 583 13 356 13 C241 13 212 138 212 231 L212 231 Z M286 1146 L725 1146 L750 1243 L311 1243 L286 1146 Z " />
<glyph glyph-name="Obreve" unicode="&#x14e;" horiz-adv-x="1267" d="M1152 669 C1158 721 1162 774 1162 831 C1162 1142 1018 1363 737 1363 C438 1363 161 1104 105 669 C98 617 94 564 94 507 C94 196 238 -25 519 -25 C818 -25 1095 234 1152 669 L1152 669 Z M946 636 C910 338 833 36 516 36 C320 36 269 176 269 336 C269 453 286 562 311 702 C363 997 423 1302 740 1302 C936 1302 987 1162 987 1002 C987 885 963 777 946 636 L946 636 Z M1023 1703 C1023 1703 930 1547 778 1547 C626 1547 587 1703 587 1703 L521 1676 C524 1600 574 1446 762 1446 C949 1446 1049 1600 1076 1676 L1023 1703 Z " />
<glyph glyph-name="obreve" unicode="&#x14f;" horiz-adv-x="880" d="M470 878 C181 878 55 583 55 325 C55 137 160 -30 369 -30 C635 -30 775 269 775 500 C775 695 686 878 470 878 L470 878 Z M212 231 C212 394 247 835 474 835 C588 835 618 709 618 617 C618 454 583 13 356 13 C241 13 212 138 212 231 L212 231 Z M768 1303 C768 1303 675 1147 523 1147 C371 1147 332 1303 332 1303 L266 1276 C269 1200 319 1046 507 1046 C694 1046 794 1200 821 1276 L768 1303 Z " />
<glyph glyph-name="Ohungarumlaut" unicode="&#x150;" horiz-adv-x="1280" d="M1152 669 C1158 721 1162 774 1162 831 C1162 1142 1018 1363 737 1363 C438 1363 161 1104 105 669 C98 617 94 564 94 507 C94 196 238 -25 519 -25 C818 -25 1095 234 1152 669 L1152 669 Z M946 636 C910 338 833 36 516 36 C320 36 269 176 269 336 C269 453 286 562 311 702 C363 997 423 1302 740 1302 C936 1302 987 1162 987 1002 C987 885 963 777 946 636 L946 636 Z M550 1426 L799 1596 L799 1771 L452 1426 L550 1426 Z M837 1426 L1086 1596 L1086 1771 L739 1426 L837 1426 Z " />
<glyph glyph-name="ohungarumlaut" unicode="&#x151;" horiz-adv-x="880" d="M470 878 C181 878 55 583 55 325 C55 137 160 -30 369 -30 C635 -30 775 269 775 500 C775 695 686 878 470 878 L470 878 Z M212 231 C212 394 247 835 474 835 C588 835 618 709 618 617 C618 454 583 13 356 13 C241 13 212 138 212 231 L212 231 Z M358 1026 L607 1196 L607 1371 L260 1026 L358 1026 Z M645 1026 L894 1196 L894 1371 L547 1026 L645 1026 Z " />
<glyph glyph-name="OE" unicode="&#x152;" horiz-adv-x="1751" d="M854 371 C824 156 731 35 548 35 C344 35 292 233 292 392 C292 702 330 1303 733 1303 C900 1303 941 1201 941 1070 C941 1023 933 942 926 891 L854 371 Z M1518 0 L1604 332 L1547 332 C1490 128 1443 55 1334 55 L977 55 L1066 682 L1199 682 C1277 682 1303 662 1303 591 C1303 566 1299 535 1294 496 L1348 496 L1408 917 L1353 917 C1332 768 1311 731 1206 731 L1073 731 L1151 1283 L1508 1283 C1599 1283 1626 1238 1626 1098 L1681 1098 L1681 1338 L989 1338 C906 1349 825 1363 717 1363 C418 1363 161 1124 105 689 C98 637 94 584 94 527 C94 210 241 -26 554 -26 C639 -26 707 -17 801 0 L1518 0 Z " />
<glyph glyph-name="oe" unicode="&#x153;" horiz-adv-x="1362" d="M1187 202 C1131 104 1044 20 932 20 C796 20 773 189 773 287 C773 342 775 393 785 439 C837 414 896 403 954 403 C1105 403 1275 480 1275 647 C1275 794 1151 878 1020 878 C893 878 795 816 726 725 C679 816 596 878 470 878 C181 878 55 583 55 325 C55 137 160 -30 369 -30 C493 -30 590 35 658 128 C706 36 788 -30 907 -30 C1076 -30 1183 78 1247 202 L1187 202 Z M212 231 C212 394 247 835 474 835 C588 835 618 709 618 617 C618 454 583 13 356 13 C241 13 212 138 212 231 L212 231 Z M795 488 C824 694 909 839 1018 839 C1104 839 1133 759 1133 688 C1133 612 1102 531 1051 490 C1013 460 966 447 921 447 C875 447 828 462 795 488 L795 488 Z " />
<glyph glyph-name="Racute" unicode="&#x154;" horiz-adv-x="1154" d="M617 1284 C786 1284 860 1165 860 1044 C859 885 726 709 503 709 L413 709 L494 1284 L617 1284 Z M831 0 L1092 0 L1099 45 L993 45 L704 673 C914 735 1035 897 1035 1053 C1035 1198 932 1338 663 1338 L194 1338 L188 1293 C272 1292 317 1283 317 1228 C317 1222 316 1215 315 1207 L163 131 C153 57 105 46 11 45 L5 0 L491 0 L497 45 L446 45 C374 45 330 57 330 110 C330 116 331 123 332 131 L406 650 L528 650 L831 0 Z M647 1426 L896 1596 L896 1771 L549 1426 L647 1426 Z " />
<glyph glyph-name="racute" unicode="&#x155;" horiz-adv-x="717" d="M210 0 L274 383 C296 516 376 778 551 778 C632 778 654 700 654 629 C654 622 653 615 653 609 L693 609 L727 810 C695 852 641 877 586 877 C454 877 374 775 322 661 L354 848 L96 848 L89 812 L114 812 C165 812 182 802 183 768 C183 756 179 729 176 711 L55 0 L210 0 Z M413 1026 L662 1196 L662 1371 L315 1026 L413 1026 Z " />
<glyph glyph-name="Rcommaaccent" unicode="&#x156;" horiz-adv-x="1154" d="M617 1284 C786 1284 860 1165 860 1044 C859 885 726 709 503 709 L413 709 L494 1284 L617 1284 Z M831 0 L1092 0 L1099 45 L993 45 L704 673 C914 735 1035 897 1035 1053 C1035 1198 932 1338 663 1338 L194 1338 L188 1293 C272 1292 317 1283 317 1228 C317 1222 316 1215 315 1207 L163 131 C153 57 105 46 11 45 L5 0 L491 0 L497 45 L446 45 C374 45 330 57 330 110 C330 116 331 123 332 131 L406 650 L528 650 L831 0 Z M703 -217 C683 -252 653 -267 625 -267 C575 -267 538 -220 538 -174 C538 -119 590 -82 637 -82 C712 -82 753 -153 753 -215 C753 -347 635 -437 524 -474 L506 -432 C586 -403 680 -344 699 -260 C702 -248 703 -235 703 -225 L703 -217 Z " />
<glyph glyph-name="rcommaaccent" unicode="&#x157;" horiz-adv-x="717" d="M210 0 L274 383 C296 516 376 778 551 778 C632 778 654 700 654 629 C654 622 653 615 653 609 L693 609 L727 810 C695 852 641 877 586 877 C454 877 374 775 322 661 L354 848 L96 848 L89 812 L114 812 C165 812 182 802 183 768 C183 756 179 729 176 711 L55 0 L210 0 Z M166 -225 C166 -235 165 -248 162 -260 C143 -344 49 -403 -31 -432 L-13 -474 C98 -437 216 -347 216 -215 C216 -153 175 -82 100 -82 C53 -82 1 -119 1 -174 C1 -220 38 -267 88 -267 C116 -267 146 -252 166 -217 L166 -225 Z " />
<glyph glyph-name="Rcaron" unicode="&#x158;" horiz-adv-x="1154" d="M617 1284 C786 1284 860 1165 860 1044 C859 885 726 709 503 709 L413 709 L494 1284 L617 1284 Z M831 0 L1092 0 L1099 45 L993 45 L704 673 C914 735 1035 897 1035 1053 C1035 1198 932 1338 663 1338 L194 1338 L188 1293 C272 1292 317 1283 317 1228 C317 1222 316 1215 315 1207 L163 131 C153 57 105 46 11 45 L5 0 L491 0 L497 45 L446 45 C374 45 330 57 330 110 C330 116 331 123 332 131 L406 650 L528 650 L831 0 Z M894 1717 L678 1547 L516 1717 L418 1717 L620 1426 L697 1426 L992 1717 L894 1717 Z " />
<glyph glyph-name="rcaron" unicode="&#x159;" horiz-adv-x="717" d="M210 0 L274 383 C296 516 376 778 551 778 C632 778 654 700 654 629 C654 622 653 615 653 609 L693 609 L727 810 C695 852 641 877 586 877 C454 877 374 775 322 661 L354 848 L96 848 L89 812 L114 812 C165 812 182 802 183 768 C183 756 179 729 176 711 L55 0 L210 0 Z M667 1317 L451 1147 L289 1317 L191 1317 L393 1026 L470 1026 L765 1317 L667 1317 Z " />
<glyph glyph-name="Sacute" unicode="&#x15a;" horiz-adv-x="1044" d="M954 1242 C861 1324 746 1363 625 1363 C389 1363 175 1233 175 987 C175 834 268 715 397 652 L594 556 C681 514 738 433 738 344 C738 166 607 37 440 37 C221 37 149 193 149 401 C149 422 149 444 151 468 L97 468 L55 96 C159 23 276 -25 435 -25 C692 -25 914 125 914 380 C914 541 804 651 672 717 L470 817 C383 860 332 951 332 1044 C332 1207 477 1305 618 1305 C796 1305 874 1177 874 1015 C874 995 873 974 870 952 L924 952 L954 1242 Z M568 1426 L817 1596 L817 1771 L470 1426 L568 1426 Z " />
<glyph glyph-name="sacute" unicode="&#x15b;" horiz-adv-x="709" d="M387 878 C202 878 121 759 121 639 C121 562 143 485 230 414 L349 317 C399 276 444 219 444 149 C444 60 359 11 275 11 C148 11 75 91 75 213 C75 233 78 263 81 289 L41 289 L0 50 C77 4 153 -30 291 -30 C470 -30 573 72 573 202 C573 299 552 365 423 469 L288 578 C249 609 231 652 231 694 C231 768 290 840 385 840 C489 840 561 770 561 668 C561 650 560 632 555 612 L595 612 L629 809 C565 848 469 878 387 878 L387 878 Z M413 1026 L662 1196 L662 1371 L315 1026 L413 1026 Z " />
<glyph glyph-name="Scedilla" unicode="&#x15e;" horiz-adv-x="1044" d="M954 1242 C861 1324 746 1363 625 1363 C389 1363 175 1233 175 987 C175 834 268 715 397 652 L594 556 C681 514 738 433 738 344 C738 166 607 37 440 37 C221 37 149 193 149 401 C149 422 149 444 151 468 L97 468 L55 96 C159 23 276 -25 435 -25 C445 -25 455 -24 465 -24 L345 -133 L373 -168 C394 -158 413 -150 434 -150 C479 -150 502 -190 502 -230 C502 -294 458 -363 392 -363 C355 -363 325 -344 300 -324 L268 -361 C305 -392 346 -411 395 -411 C501 -411 599 -323 599 -218 C599 -147 540 -103 475 -103 C461 -103 447 -104 434 -107 L536 -17 C747 17 914 159 914 380 C914 541 804 651 672 717 L470 817 C383 860 332 951 332 1044 C332 1207 477 1305 618 1305 C796 1305 874 1177 874 1015 C874 995 873 974 870 952 L924 952 L954 1242 Z " />
<glyph glyph-name="scedilla" unicode="&#x15f;" horiz-adv-x="709" d="M387 878 C202 878 121 759 121 639 C121 562 143 485 230 414 L349 317 C399 276 444 219 444 149 C444 60 359 11 275 11 C148 11 75 91 75 213 C75 233 78 263 81 289 L41 289 L0 50 C73 6 146 -27 272 -30 L158 -133 L186 -168 C207 -158 226 -150 247 -150 C292 -150 315 -190 315 -230 C315 -294 271 -363 205 -363 C168 -363 138 -344 113 -324 L81 -361 C118 -392 159 -411 208 -411 C314 -411 412 -323 412 -218 C412 -147 353 -103 288 -103 C274 -103 260 -104 247 -107 L336 -27 C487 -11 573 83 573 202 C573 299 552 365 423 469 L288 578 C249 609 231 652 231 694 C231 768 290 840 385 840 C489 840 561 770 561 668 C561 650 560 632 555 612 L595 612 L629 809 C565 848 469 878 387 878 L387 878 Z " />
<glyph glyph-name="Scaron" unicode="&#x160;" horiz-adv-x="1044" d="M954 1242 C861 1324 746 1363 625 1363 C389 1363 175 1233 175 987 C175 834 268 715 397 652 L594 556 C681 514 738 433 738 344 C738 166 607 37 440 37 C221 37 149 193 149 401 C149 422 149 444 151 468 L97 468 L55 96 C159 23 276 -25 435 -25 C692 -25 914 125 914 380 C914 541 804 651 672 717 L470 817 C383 860 332 951 332 1044 C332 1207 477 1305 618 1305 C796 1305 874 1177 874 1015 C874 995 873 974 870 952 L924 952 L954 1242 Z M854 1717 L638 1547 L476 1717 L378 1717 L580 1426 L657 1426 L952 1717 L854 1717 Z " />
<glyph glyph-name="scaron" unicode="&#x161;" horiz-adv-x="709" d="M387 878 C202 878 121 759 121 639 C121 562 143 485 230 414 L349 317 C399 276 444 219 444 149 C444 60 359 11 275 11 C148 11 75 91 75 213 C75 233 78 263 81 289 L41 289 L0 50 C77 4 153 -30 291 -30 C470 -30 573 72 573 202 C573 299 552 365 423 469 L288 578 C249 609 231 652 231 694 C231 768 290 840 385 840 C489 840 561 770 561 668 C561 650 560 632 555 612 L595 612 L629 809 C565 848 469 878 387 878 L387 878 Z M659 1317 L443 1147 L281 1317 L183 1317 L385 1026 L462 1026 L757 1317 L659 1317 Z " />
<glyph glyph-name="Tcedilla" unicode="&#x162;" horiz-adv-x="934" d="M392 0 L245 -133 L273 -168 C294 -158 313 -150 334 -150 C379 -150 402 -190 402 -230 C402 -294 358 -363 292 -363 C255 -363 225 -344 200 -324 L168 -361 C205 -392 246 -411 295 -411 C401 -411 499 -323 499 -218 C499 -147 440 -103 375 -103 C361 -103 347 -104 334 -107 L455 0 L605 0 L611 45 C527 46 482 55 482 110 C482 116 483 123 484 131 L647 1286 L823 1286 C945 1286 968 1226 968 1022 L1022 1022 L1034 1338 L129 1338 L40 1022 L95 1022 C155 1226 214 1286 323 1286 L478 1286 L315 131 C305 57 257 46 163 45 L157 0 L392 0 Z " />
<glyph glyph-name="tcedilla" unicode="&#x163;" horiz-adv-x="581" d="M70 813 L200 813 L107 269 C102 237 94 176 94 140 C94 97 105 56 130 25 C155 -6 188 -22 223 -27 L107 -133 L135 -168 C156 -158 175 -150 196 -150 C241 -150 264 -190 264 -230 C264 -294 220 -363 154 -363 C117 -363 87 -344 62 -324 L30 -361 C67 -392 108 -411 157 -411 C263 -411 361 -323 361 -218 C361 -147 302 -103 237 -103 C223 -103 209 -104 196 -107 L285 -28 C406 -13 522 82 571 202 L522 202 C492 139 394 43 316 43 C258 43 244 92 244 140 C244 162 247 183 250 199 L354 813 L562 813 L568 849 L360 849 L412 1151 L258 1151 L206 849 L77 849 L70 813 Z " />
<glyph glyph-name="Tcaron" unicode="&#x164;" horiz-adv-x="934" d="M823 1286 C945 1286 968 1226 968 1022 L1022 1022 L1034 1338 L129 1338 L40 1022 L95 1022 C155 1226 214 1286 323 1286 L478 1286 L315 131 C305 57 257 46 163 45 L157 0 L605 0 L611 45 C527 46 482 55 482 110 C482 116 483 123 484 131 L647 1286 L823 1286 Z M809 1717 L593 1547 L431 1717 L333 1717 L535 1426 L612 1426 L907 1717 L809 1717 Z " />
<glyph glyph-name="tcaron" unicode="&#x165;" horiz-adv-x="581" d="M70 813 L200 813 L107 269 C102 237 94 176 94 140 C94 97 105 56 130 25 C162 -15 206 -30 253 -30 C386 -30 518 72 571 202 L522 202 C492 139 394 43 316 43 C258 43 244 92 244 140 C244 162 247 183 250 199 L354 813 L562 813 L568 849 L360 849 L412 1151 L258 1151 L206 849 L77 849 L70 813 Z M504 900 C546 1042 606 1151 641 1214 C659 1246 667 1269 667 1291 C667 1322 648 1358 604 1358 C541 1358 502 1305 494 1253 C486 1202 486 1109 465 984 L451 900 L504 900 Z " />
<glyph glyph-name="Utilde" unicode="&#x168;" horiz-adv-x="1287" d="M955 1293 L966 1293 C1050 1292 1095 1283 1095 1228 C1095 1222 1094 1215 1093 1207 L981 418 C949 190 798 44 594 44 C454 44 365 119 365 310 C365 350 370 395 377 446 L487 1207 C497 1277 542 1293 622 1293 L657 1293 L664 1338 L194 1338 L188 1293 C272 1292 317 1283 317 1228 C317 1222 316 1215 315 1207 L210 462 C202 407 198 356 198 310 C198 95 321 -25 577 -25 C839 -25 1004 151 1044 427 L1157 1207 C1168 1281 1212 1292 1306 1293 L1312 1338 L962 1338 L955 1293 Z M1082 1679 C1065 1631 1028 1591 976 1591 C892 1591 815 1686 705 1686 C607 1686 546 1619 512 1539 L543 1484 C558 1536 596 1579 651 1579 C734 1579 811 1484 922 1484 C1014 1484 1074 1543 1110 1617 L1082 1679 Z " />
<glyph glyph-name="utilde" unicode="&#x169;" horiz-adv-x="1000" d="M349 848 L91 848 L84 812 L109 812 C160 812 177 802 178 768 C178 756 174 729 171 711 L95 263 C89 226 85 191 85 157 C85 48 135 -31 249 -31 C411 -31 512 124 577 249 C572 216 567 169 567 140 C567 49 597 -30 722 -30 C861 -30 935 102 970 202 L921 202 C898 151 850 42 774 42 C727 42 715 83 715 125 C715 150 720 181 723 199 L834 848 L679 848 L628 549 C589 322 485 147 393 68 C357 37 320 19 291 19 C239 19 230 70 230 114 C230 196 251 265 262 331 L349 848 Z M745 1271 C727 1222 699 1190 652 1190 C577 1190 508 1285 409 1285 C320 1285 253 1207 230 1121 L266 1091 C282 1143 310 1178 360 1178 C435 1178 504 1083 604 1083 C693 1083 752 1155 780 1232 L745 1271 Z " />
<glyph glyph-name="Umacron" unicode="&#x16a;" horiz-adv-x="1287" d="M955 1293 L966 1293 C1050 1292 1095 1283 1095 1228 C1095 1222 1094 1215 1093 1207 L981 418 C949 190 798 44 594 44 C454 44 365 119 365 310 C365 350 370 395 377 446 L487 1207 C497 1277 542 1293 622 1293 L657 1293 L664 1338 L194 1338 L188 1293 C272 1292 317 1283 317 1228 C317 1222 316 1215 315 1207 L210 462 C202 407 198 356 198 310 C198 95 321 -25 577 -25 C839 -25 1004 151 1044 427 L1157 1207 C1168 1281 1212 1292 1306 1293 L1312 1338 L962 1338 L955 1293 Z M568 1576 L1067 1576 L1089 1688 L590 1688 L568 1576 Z " />
<glyph glyph-name="umacron" unicode="&#x16b;" horiz-adv-x="1000" d="M349 848 L91 848 L84 812 L109 812 C160 812 177 802 178 768 C178 756 174 729 171 711 L95 263 C89 226 85 191 85 157 C85 48 135 -31 249 -31 C411 -31 512 124 577 249 C572 216 567 169 567 140 C567 49 597 -30 722 -30 C861 -30 935 102 970 202 L921 202 C898 151 850 42 774 42 C727 42 715 83 715 125 C715 150 720 181 723 199 L834 848 L679 848 L628 549 C589 322 485 147 393 68 C357 37 320 19 291 19 C239 19 230 70 230 114 C230 196 251 265 262 331 L349 848 Z M311 1146 L750 1146 L775 1243 L336 1243 L311 1146 Z " />
<glyph glyph-name="Ubreve" unicode="&#x16c;" horiz-adv-x="1287" d="M955 1293 L966 1293 C1050 1292 1095 1283 1095 1228 C1095 1222 1094 1215 1093 1207 L981 418 C949 190 798 44 594 44 C454 44 365 119 365 310 C365 350 370 395 377 446 L487 1207 C497 1277 542 1293 622 1293 L657 1293 L664 1338 L194 1338 L188 1293 C272 1292 317 1283 317 1228 C317 1222 316 1215 315 1207 L210 462 C202 407 198 356 198 310 C198 95 321 -25 577 -25 C839 -25 1004 151 1044 427 L1157 1207 C1168 1281 1212 1292 1306 1293 L1312 1338 L962 1338 L955 1293 Z M1063 1703 C1063 1703 970 1547 818 1547 C666 1547 627 1703 627 1703 L561 1676 C564 1600 614 1446 802 1446 C989 1446 1089 1600 1116 1676 L1063 1703 Z " />
<glyph glyph-name="ubreve" unicode="&#x16d;" horiz-adv-x="1000" d="M349 848 L91 848 L84 812 L109 812 C160 812 177 802 178 768 C178 756 174 729 171 711 L95 263 C89 226 85 191 85 157 C85 48 135 -31 249 -31 C411 -31 512 124 577 249 C572 216 567 169 567 140 C567 49 597 -30 722 -30 C861 -30 935 102 970 202 L921 202 C898 151 850 42 774 42 C727 42 715 83 715 125 C715 150 720 181 723 199 L834 848 L679 848 L628 549 C589 322 485 147 393 68 C357 37 320 19 291 19 C239 19 230 70 230 114 C230 196 251 265 262 331 L349 848 Z M763 1303 C763 1303 670 1147 518 1147 C366 1147 327 1303 327 1303 L261 1276 C264 1200 314 1046 502 1046 C689 1046 789 1200 816 1276 L763 1303 Z " />
<glyph glyph-name="Uring" unicode="&#x16e;" horiz-adv-x="1287" d="M955 1293 L966 1293 C1050 1292 1095 1283 1095 1228 C1095 1222 1094 1215 1093 1207 L981 418 C949 190 798 44 594 44 C454 44 365 119 365 310 C365 350 370 395 377 446 L487 1207 C497 1277 542 1293 622 1293 L657 1293 L664 1338 L194 1338 L188 1293 C272 1292 317 1283 317 1228 C317 1222 316 1215 315 1207 L210 462 C202 407 198 356 198 310 C198 95 321 -25 577 -25 C839 -25 1004 151 1044 427 L1157 1207 C1168 1281 1212 1292 1306 1293 L1312 1338 L962 1338 L955 1293 Z M916 1665 C916 1593 901 1474 815 1474 C757 1474 732 1500 732 1562 C732 1633 745 1752 831 1752 C887 1752 916 1717 916 1665 L916 1665 Z M639 1602 C639 1504 725 1436 812 1436 C918 1436 1009 1523 1009 1622 C1009 1720 922 1789 835 1789 C729 1789 639 1701 639 1602 L639 1602 Z " />
<glyph glyph-name="uring" unicode="&#x16f;" horiz-adv-x="1000" d="M349 848 L91 848 L84 812 L109 812 C160 812 177 802 178 768 C178 756 174 729 171 711 L95 263 C89 226 85 191 85 157 C85 48 135 -31 249 -31 C411 -31 512 124 577 249 C572 216 567 169 567 140 C567 49 597 -30 722 -30 C861 -30 935 102 970 202 L921 202 C898 151 850 42 774 42 C727 42 715 83 715 125 C715 150 720 181 723 199 L834 848 L679 848 L628 549 C589 322 485 147 393 68 C357 37 320 19 291 19 C239 19 230 70 230 114 C230 196 251 265 262 331 L349 848 Z M607 1262 C607 1190 589 1073 503 1073 C445 1073 421 1101 421 1163 C421 1232 437 1351 523 1351 C579 1351 607 1314 607 1262 L607 1262 Z M329 1201 C329 1103 415 1035 502 1035 C608 1035 699 1122 699 1221 C699 1319 612 1388 525 1388 C419 1388 329 1300 329 1201 L329 1201 Z " />
<glyph glyph-name="Uhungarumlaut" unicode="&#x170;" horiz-adv-x="1287" d="M955 1293 L966 1293 C1050 1292 1095 1283 1095 1228 C1095 1222 1094 1215 1093 1207 L981 418 C949 190 798 44 594 44 C454 44 365 119 365 310 C365 350 370 395 377 446 L487 1207 C497 1277 542 1293 622 1293 L657 1293 L664 1338 L194 1338 L188 1293 C272 1292 317 1283 317 1228 C317 1222 316 1215 315 1207 L210 462 C202 407 198 356 198 310 C198 95 321 -25 577 -25 C839 -25 1004 151 1044 427 L1157 1207 C1168 1281 1212 1292 1306 1293 L1312 1338 L962 1338 L955 1293 Z M628 1426 L877 1596 L877 1771 L530 1426 L628 1426 Z M915 1426 L1164 1596 L1164 1771 L817 1426 L915 1426 Z " />
<glyph glyph-name="uhungarumlaut" unicode="&#x171;" horiz-adv-x="1000" d="M349 848 L91 848 L84 812 L109 812 C160 812 177 802 178 768 C178 756 174 729 171 711 L95 263 C89 226 85 191 85 157 C85 48 135 -31 249 -31 C411 -31 512 124 577 249 C572 216 567 169 567 140 C567 49 597 -30 722 -30 C861 -30 935 102 970 202 L921 202 C898 151 850 42 774 42 C727 42 715 83 715 125 C715 150 720 181 723 199 L834 848 L679 848 L628 549 C589 322 485 147 393 68 C357 37 320 19 291 19 C239 19 230 70 230 114 C230 196 251 265 262 331 L349 848 Z M377 1026 L626 1196 L626 1371 L279 1026 L377 1026 Z M664 1026 L913 1196 L913 1371 L566 1026 L664 1026 Z " />
<glyph glyph-name="Uogonek" unicode="&#x172;" horiz-adv-x="1287" d="M955 1293 L966 1293 C1050 1292 1095 1283 1095 1228 C1095 1222 1094 1215 1093 1207 L981 418 C949 190 798 44 594 44 C454 44 365 119 365 310 C365 350 370 395 377 446 L487 1207 C497 1277 542 1293 622 1293 L657 1293 L664 1338 L194 1338 L188 1293 C272 1292 317 1283 317 1228 C317 1222 316 1215 315 1207 L210 462 C202 407 198 356 198 310 C198 95 321 -25 577 -25 C583 -25 590 -24 597 -24 C520 -62 463 -131 463 -217 C463 -286 512 -344 577 -359 L639 -255 C590 -245 559 -205 559 -157 C559 -70 639 -30 710 -7 C895 43 1011 201 1044 427 L1157 1207 C1168 1281 1212 1292 1306 1293 L1312 1338 L962 1338 L955 1293 Z " />
<glyph glyph-name="uogonek" unicode="&#x173;" horiz-adv-x="1000" d="M349 848 L91 848 L84 812 L109 812 C160 812 177 802 178 768 C178 756 174 729 171 711 L95 263 C89 226 85 191 85 157 C85 48 135 -31 249 -31 C411 -31 512 124 577 249 C572 216 567 169 567 140 C567 59 591 -12 684 -27 C610 -65 555 -133 555 -217 C555 -286 604 -344 669 -359 L731 -255 C682 -245 651 -205 651 -157 C651 -92 696 -53 749 -28 C870 -12 937 108 970 202 L921 202 C898 151 850 42 774 42 C727 42 715 83 715 125 C715 150 720 181 723 199 L834 848 L679 848 L628 549 C589 322 485 147 393 68 C357 37 320 19 291 19 C239 19 230 70 230 114 C230 196 251 265 262 331 L349 848 Z " />
<glyph glyph-name="Wcircumflex" unicode="&#x174;" horiz-adv-x="1813" d="M1214 172 L1059 1164 C1057 1177 1056 1191 1056 1204 C1056 1254 1081 1289 1141 1291 L1199 1293 L1205 1338 L726 1338 L719 1293 L748 1291 C809 1286 869 1264 886 1154 L924 912 L584 172 L429 1164 C427 1177 426 1190 426 1201 C426 1272 468 1289 511 1291 L569 1293 L575 1338 L96 1338 L90 1293 L118 1291 C180 1286 239 1264 257 1154 L440 0 L569 0 L941 807 L1069 0 L1199 0 L1736 1163 C1772 1242 1837 1289 1890 1291 L1930 1293 L1938 1338 L1586 1338 L1579 1293 L1622 1293 C1672 1293 1696 1271 1696 1236 C1696 1222 1691 1206 1683 1188 L1214 172 Z M770 1425 L986 1595 L1148 1425 L1246 1425 L1044 1716 L967 1716 L672 1425 L770 1425 Z " />
<glyph glyph-name="wcircumflex" unicode="&#x175;" horiz-adv-x="1333" d="M468 98 C422 59 352 21 305 21 C248 21 233 70 233 120 C233 138 235 156 238 172 L354 848 L96 848 L89 812 L114 812 C165 812 182 802 183 768 C183 756 179 729 176 711 L91 215 C87 194 85 171 85 148 C85 44 144 -30 256 -30 C344 -30 431 9 504 67 C515 76 526 85 537 95 C554 20 610 -30 702 -30 C790 -30 877 9 950 67 C1135 216 1238 470 1238 700 C1238 749 1232 797 1218 848 L1010 848 L1006 812 C1088 812 1161 786 1161 619 C1161 396 1036 201 914 98 C868 59 798 21 751 21 C694 21 679 70 679 120 C679 138 681 156 684 172 L800 848 L542 848 L535 812 L560 812 C611 812 628 802 629 768 C629 756 625 729 622 711 L533 161 C512 138 490 116 468 98 L468 98 Z M529 1026 L745 1196 L907 1026 L1005 1026 L803 1317 L726 1317 L431 1026 L529 1026 Z " />
<glyph glyph-name="Ycircumflex" unicode="&#x176;" horiz-adv-x="1085" d="M224 0 L667 0 L674 45 C590 46 548 55 548 111 C548 117 550 132 551 139 L605 531 L1069 1293 L1203 1293 L1210 1338 L841 1338 L835 1293 L1009 1293 L581 594 L437 1175 C431 1198 428 1217 428 1232 C428 1286 462 1293 493 1293 L567 1293 L573 1338 L97 1338 L90 1293 L119 1293 C200 1293 241 1261 267 1156 L434 493 L384 131 C374 57 325 46 231 45 L224 0 Z M504 1425 L720 1595 L882 1425 L980 1425 L778 1716 L701 1716 L406 1425 L504 1425 Z " />
<glyph glyph-name="ycircumflex" unicode="&#x177;" horiz-adv-x="835" d="M-34 -290 L-60 -317 L69 -450 C377 -283 618 149 694 467 C712 542 720 619 720 693 C720 745 715 797 704 848 L500 848 L496 813 C615 813 643 706 643 595 C643 423 567 236 477 77 L242 848 L5 848 L1 813 L47 811 C82 809 99 792 114 744 L342 0 L431 0 C364 -109 279 -229 184 -300 C147 -327 110 -342 74 -342 C32 -342 -8 -320 -34 -290 L-34 -290 Z M189 1026 L405 1196 L567 1026 L665 1026 L463 1317 L386 1317 L91 1026 L189 1026 Z " />
<glyph glyph-name="Ydieresis" unicode="&#x178;" horiz-adv-x="1085" d="M224 0 L667 0 L674 45 C590 46 548 55 548 111 C548 117 550 132 551 139 L605 531 L1069 1293 L1203 1293 L1210 1338 L841 1338 L835 1293 L1009 1293 L581 594 L437 1175 C431 1198 428 1217 428 1232 C428 1286 462 1293 493 1293 L567 1293 L573 1338 L97 1338 L90 1293 L119 1293 C200 1293 241 1261 267 1156 L434 493 L384 131 C374 57 325 46 231 45 L224 0 Z M528 1724 C464 1724 426 1646 426 1596 C426 1534 460 1508 502 1508 C566 1508 604 1586 604 1636 C604 1698 570 1724 528 1724 L528 1724 Z M847 1724 C783 1724 745 1646 745 1596 C745 1534 779 1508 821 1508 C885 1508 923 1586 923 1636 C923 1698 889 1724 847 1724 L847 1724 Z " />
<glyph glyph-name="Zacute" unicode="&#x179;" horiz-adv-x="1115" d="M952 0 L1035 356 L979 356 C966 308 952 265 936 229 C884 110 811 54 687 54 L214 54 L1141 1299 L1145 1338 L225 1338 L142 981 L198 981 C217 1054 242 1113 267 1160 C320 1258 394 1285 501 1285 L921 1285 L-10 37 L-15 0 L952 0 Z M673 1426 L922 1596 L922 1771 L575 1426 L673 1426 Z " />
<glyph glyph-name="zacute" unicode="&#x17a;" horiz-adv-x="698" d="M669 80 C645 77 624 75 605 75 C568 75 537 81 505 92 C406 127 325 174 230 174 C200 174 172 169 145 158 L673 805 L662 848 L96 848 L75 722 L538 722 L80 159 C52 125 -5 73 -5 34 C-5 11 8 0 26 0 C70 0 93 44 190 44 C215 44 243 39 285 27 C362 5 439 -30 520 -30 C604 -30 645 11 669 80 L669 80 Z M337 1026 L586 1196 L586 1371 L239 1026 L337 1026 Z " />
<glyph glyph-name="Zdotaccent" unicode="&#x17b;" horiz-adv-x="1115" d="M952 0 L1035 356 L979 356 C966 308 952 265 936 229 C884 110 811 54 687 54 L214 54 L1141 1299 L1145 1338 L225 1338 L142 981 L198 981 C217 1054 242 1113 267 1160 C320 1258 394 1285 501 1285 L921 1285 L-10 37 L-15 0 L952 0 Z M712 1708 C642 1708 588 1642 588 1577 C588 1525 630 1484 679 1484 C750 1484 801 1552 801 1614 C801 1667 761 1708 712 1708 L712 1708 Z " />
<glyph glyph-name="zdotaccent" unicode="&#x17c;" horiz-adv-x="698" d="M669 80 C645 77 624 75 605 75 C568 75 537 81 505 92 C406 127 325 174 230 174 C200 174 172 169 145 158 L673 805 L662 848 L96 848 L75 722 L538 722 L80 159 C52 125 -5 73 -5 34 C-5 11 8 0 26 0 C70 0 93 44 190 44 C215 44 243 39 285 27 C362 5 439 -30 520 -30 C604 -30 645 11 669 80 L669 80 Z M512 1218 C512 1271 476 1308 429 1308 C361 1308 307 1240 307 1174 C307 1122 344 1084 392 1084 C460 1084 512 1155 512 1218 L512 1218 Z " />
<glyph glyph-name="Zcaron" unicode="&#x17d;" horiz-adv-x="1115" d="M952 0 L1035 356 L979 356 C966 308 952 265 936 229 C884 110 811 54 687 54 L214 54 L1141 1299 L1145 1338 L225 1338 L142 981 L198 981 C217 1054 242 1113 267 1160 C320 1258 394 1285 501 1285 L921 1285 L-10 37 L-15 0 L952 0 Z M914 1717 L698 1547 L536 1717 L438 1717 L640 1426 L717 1426 L1012 1717 L914 1717 Z " />
<glyph glyph-name="zcaron" unicode="&#x17e;" horiz-adv-x="698" d="M669 80 C645 77 624 75 605 75 C568 75 537 81 505 92 C406 127 325 174 230 174 C200 174 172 169 145 158 L673 805 L662 848 L96 848 L75 722 L538 722 L80 159 C52 125 -5 73 -5 34 C-5 11 8 0 26 0 C70 0 93 44 190 44 C215 44 243 39 285 27 C362 5 439 -30 520 -30 C604 -30 645 11 669 80 L669 80 Z M641 1317 L425 1147 L263 1317 L165 1317 L367 1026 L444 1026 L739 1317 L641 1317 Z " />
<glyph glyph-name="florin" unicode="&#x192;" horiz-adv-x="1294" d="M894 102 L219 102 L635 598 L894 102 Z M398 1236 L1074 1236 L658 740 L398 1236 Z M696 669 L1123 1179 L962 158 L696 669 Z M332 1181 L598 669 L170 159 L332 1181 Z M947 0 C998 0 1044 41 1052 91 L1235 1247 C1236 1252 1236 1256 1236 1261 C1236 1304 1204 1338 1158 1338 L346 1338 C295 1338 249 1297 241 1247 L58 91 C57 86 57 82 57 77 C57 34 89 0 135 0 L947 0 Z " />
<glyph glyph-name="AEacute" unicode="&#x1fc;" horiz-adv-x="1653" d="M403 488 L888 1265 L781 488 L403 488 Z M1583 1338 L658 1338 L652 1293 C720 1292 781 1291 781 1234 C781 1219 775 1201 761 1178 L138 170 C89 91 18 49 -36 47 L-78 45 L-85 0 L275 0 L282 45 L239 45 C192 45 172 63 172 91 C172 115 184 135 194 151 L372 438 L773 438 L730 131 C720 57 672 46 578 45 L572 0 L1420 0 L1506 332 L1449 332 C1392 128 1345 55 1236 55 L889 55 L978 682 L1101 682 C1179 682 1205 662 1205 591 C1205 566 1201 535 1196 496 L1250 496 L1310 917 L1255 917 C1234 768 1213 731 1108 731 L985 731 L1063 1283 L1410 1283 C1501 1283 1528 1238 1528 1098 L1583 1098 L1583 1338 Z M1123 1426 L1372 1596 L1372 1771 L1025 1426 L1123 1426 Z " />
<glyph glyph-name="aeacute" unicode="&#x1fd;" horiz-adv-x="1344" d="M483 878 C386 878 297 849 220 798 L189 609 L229 609 C246 735 319 828 452 828 C564 828 615 754 615 662 C615 650 614 637 591 494 C565 497 537 498 509 498 C308 498 80 421 80 195 C80 61 195 -30 322 -30 C410 -30 509 -17 615 100 C666 18 755 -30 872 -30 C1039 -30 1148 78 1212 202 L1155 202 C1099 104 1011 20 897 20 C755 20 732 173 732 280 C732 340 735 382 744 424 C788 409 842 401 898 401 C1060 401 1237 470 1237 647 C1237 794 1114 878 985 878 C886 878 790 843 723 783 C667 855 566 878 483 878 L483 878 Z M583 447 L550 238 C542 189 532 135 504 95 C474 54 433 28 381 28 C308 28 242 96 242 207 C242 275 269 344 318 384 C374 431 456 449 537 449 C552 449 568 448 583 447 L583 447 Z M753 471 C782 677 874 839 983 839 C1069 839 1098 759 1098 688 C1098 543 1011 451 869 451 C830 451 790 458 753 471 L753 471 Z M705 1026 L954 1196 L954 1371 L607 1026 L705 1026 Z " />
<glyph glyph-name="uni0218" unicode="&#x218;" horiz-adv-x="1044" d="M954 1242 C861 1324 746 1363 625 1363 C389 1363 175 1233 175 987 C175 834 268 715 397 652 L594 556 C681 514 738 433 738 344 C738 166 607 37 440 37 C221 37 149 193 149 401 C149 422 149 444 151 468 L97 468 L55 96 C159 23 276 -25 435 -25 C692 -25 914 125 914 380 C914 541 804 651 672 717 L470 817 C383 860 332 951 332 1044 C332 1207 477 1305 618 1305 C796 1305 874 1177 874 1015 C874 995 873 974 870 952 L924 952 L954 1242 Z M526 -217 C506 -252 476 -267 448 -267 C398 -267 361 -220 361 -174 C361 -119 413 -82 460 -82 C535 -82 576 -153 576 -215 C576 -347 458 -437 347 -474 L329 -432 C409 -403 503 -344 522 -260 C525 -248 526 -235 526 -225 L526 -217 Z " />
<glyph glyph-name="scommaaccent" unicode="&#x219;" horiz-adv-x="709" d="M387 878 C202 878 121 759 121 639 C121 562 143 485 230 414 L349 317 C399 276 444 219 444 149 C444 60 359 11 275 11 C148 11 75 91 75 213 C75 233 78 263 81 289 L41 289 L0 50 C77 4 153 -30 291 -30 C470 -30 573 72 573 202 C573 299 552 365 423 469 L288 578 C249 609 231 652 231 694 C231 768 290 840 385 840 C489 840 561 770 561 668 C561 650 560 632 555 612 L595 612 L629 809 C565 848 469 878 387 878 L387 878 Z M348 -217 C328 -252 298 -267 270 -267 C220 -267 183 -220 183 -174 C183 -119 235 -82 282 -82 C357 -82 398 -153 398 -215 C398 -347 280 -437 169 -474 L151 -432 C231 -403 325 -344 344 -260 C347 -248 348 -235 348 -225 L348 -217 Z " />
<glyph glyph-name="uni021A" unicode="&#x21a;" horiz-adv-x="934" d="M823 1286 C945 1286 968 1226 968 1022 L1022 1022 L1034 1338 L129 1338 L40 1022 L95 1022 C155 1226 214 1286 323 1286 L478 1286 L315 131 C305 57 257 46 163 45 L157 0 L605 0 L611 45 C527 46 482 55 482 110 C482 116 483 123 484 131 L647 1286 L823 1286 Z M446 -217 C426 -252 396 -267 368 -267 C318 -267 281 -220 281 -174 C281 -119 333 -82 380 -82 C455 -82 496 -153 496 -215 C496 -347 378 -437 267 -474 L249 -432 C329 -403 423 -344 442 -260 C445 -248 446 -235 446 -225 L446 -217 Z " />
<glyph glyph-name="uni021B" unicode="&#x21b;" horiz-adv-x="581" d="M70 813 L200 813 L107 269 C102 237 94 176 94 140 C94 97 105 56 130 25 C162 -15 206 -30 253 -30 C386 -30 518 72 571 202 L522 202 C492 139 394 43 316 43 C258 43 244 92 244 140 C244 162 247 183 250 199 L354 813 L562 813 L568 849 L360 849 L412 1151 L258 1151 L206 849 L77 849 L70 813 Z M334 -217 C314 -252 284 -267 256 -267 C206 -267 169 -220 169 -174 C169 -119 221 -82 268 -82 C343 -82 384 -153 384 -215 C384 -347 266 -437 155 -474 L137 -432 C217 -403 311 -344 330 -260 C333 -248 334 -235 334 -225 L334 -217 Z " />
<glyph glyph-name="circumflex" unicode="&#x2c6;" horiz-adv-x="804" d="M189 1026 L405 1196 L567 1026 L665 1026 L463 1317 L386 1317 L91 1026 L189 1026 Z " />
<glyph glyph-name="caron" unicode="&#x2c7;" horiz-adv-x="804" d="M594 1317 L378 1147 L216 1317 L118 1317 L320 1026 L397 1026 L692 1317 L594 1317 Z " />
<glyph glyph-name="breve" unicode="&#x2d8;" horiz-adv-x="755" d="M618 1303 C618 1303 525 1147 373 1147 C221 1147 182 1303 182 1303 L116 1276 C119 1200 169 1046 357 1046 C544 1046 644 1200 671 1276 L618 1303 Z " />
<glyph glyph-name="dotaccent" unicode="&#x2d9;" horiz-adv-x="389" d="M298 1218 C298 1271 262 1308 215 1308 C147 1308 93 1240 93 1174 C93 1122 130 1084 178 1084 C246 1084 298 1155 298 1218 L298 1218 Z " />
<glyph glyph-name="ring" unicode="&#x2da;" horiz-adv-x="569" d="M377 1262 C377 1190 359 1073 273 1073 C215 1073 191 1101 191 1163 C191 1232 207 1351 293 1351 C349 1351 377 1314 377 1262 L377 1262 Z M99 1201 C99 1103 185 1035 272 1035 C378 1035 469 1122 469 1221 C469 1319 382 1388 295 1388 C189 1388 99 1300 99 1201 L99 1201 Z " />
<glyph glyph-name="ogonek" unicode="&#x2db;" horiz-adv-x="416" d="M257 0 C149 -25 54 -107 54 -217 C54 -286 103 -344 168 -359 L230 -255 C181 -245 150 -205 150 -157 C150 -60 251 -21 327 0 L257 0 Z " />
<glyph glyph-name="tilde" unicode="&#x2dc;" horiz-adv-x="828" d="M655 1271 C637 1222 609 1190 562 1190 C487 1190 418 1285 319 1285 C230 1285 163 1207 140 1121 L176 1091 C192 1143 220 1178 270 1178 C345 1178 414 1083 514 1083 C603 1083 662 1155 690 1232 L655 1271 Z " />
<glyph glyph-name="hungarumlaut" unicode="&#x2dd;" horiz-adv-x="834" d="M198 1026 L447 1196 L447 1371 L100 1026 L198 1026 Z M485 1026 L734 1196 L734 1371 L387 1026 L485 1026 Z " />
<glyph glyph-name="uni03A9" unicode="&#x3a9;" horiz-adv-x="1225" d="M616 68 C615 63 615 58 615 53 C615 21 630 0 673 0 L1000 0 L1066 266 L1012 266 C964 68 905 68 796 68 L703 68 C690 68 685 71 685 81 C685 83 686 93 687 99 L701 200 C1042 271 1185 557 1185 868 C1185 1160 988 1360 718 1360 C323 1360 92 1064 92 679 C92 432 207 245 415 200 L399 87 C397 72 390 68 375 68 L282 68 C180 68 121 68 121 232 C121 243 122 254 122 266 L68 266 L60 0 L387 0 C436 0 456 27 462 68 L488 253 C346 273 277 384 277 588 C277 884 363 1303 714 1303 C929 1303 1001 1121 1001 943 C1001 696 930 290 642 253 L616 68 Z " />
<glyph glyph-name="uni03BC" unicode="&#x3bc;" horiz-adv-x="990" d="M-16 -350 L260 -350 L267 -315 L222 -315 C169 -315 154 -301 154 -268 C154 -257 156 -240 158 -230 L210 73 C234 9 292 -22 355 -22 C435 -22 513 20 550 86 C575 13 620 -31 699 -31 C841 -31 927 89 965 202 L916 202 C893 151 845 42 769 42 C722 42 710 83 710 125 C710 150 715 181 718 199 L829 848 L674 848 L623 549 C606 451 585 331 555 241 C545 212 531 181 514 152 C474 85 415 46 362 46 C270 46 240 146 240 223 C240 238 241 252 243 265 L344 848 L86 848 L79 812 L104 812 C155 812 172 802 173 768 C173 756 169 729 166 711 L-16 -350 Z " />
<glyph glyph-name="pi" unicode="&#x3c0;" horiz-adv-x="1041" d="M620 269 C615 237 607 176 607 140 C607 49 637 -30 762 -30 C901 -30 975 102 1010 202 L961 202 C938 151 890 42 814 42 C767 42 755 83 755 125 C755 150 760 181 763 199 L859 761 L880 761 C950 761 997 817 997 881 C997 903 990 921 983 939 L948 939 C948 911 947 898 936 881 C918 855 883 848 843 848 L77 848 L47 655 L82 655 L86 680 C95 735 127 761 184 761 L243 761 L139 120 C129 55 116 35 44 35 L10 35 L4 0 L375 0 L381 35 L356 35 C306 35 286 43 286 85 C286 95 287 106 289 120 L393 761 L702 761 L620 269 Z " />
<glyph glyph-name="Wgrave" unicode="&#x1e80;" horiz-adv-x="1813" d="M1214 172 L1059 1164 C1057 1177 1056 1191 1056 1204 C1056 1254 1081 1289 1141 1291 L1199 1293 L1205 1338 L726 1338 L719 1293 L748 1291 C809 1286 869 1264 886 1154 L924 912 L584 172 L429 1164 C427 1177 426 1190 426 1201 C426 1272 468 1289 511 1291 L569 1293 L575 1338 L96 1338 L90 1293 L118 1291 C180 1286 239 1264 257 1154 L440 0 L569 0 L941 807 L1069 0 L1199 0 L1736 1163 C1772 1242 1837 1289 1890 1291 L1930 1293 L1938 1338 L1586 1338 L1579 1293 L1622 1293 C1672 1293 1696 1271 1696 1236 C1696 1222 1691 1206 1683 1188 L1214 172 Z M1027 1426 L680 1771 L680 1596 L929 1426 L1027 1426 Z " />
<glyph glyph-name="wgrave" unicode="&#x1e81;" horiz-adv-x="1333" d="M468 98 C422 59 352 21 305 21 C248 21 233 70 233 120 C233 138 235 156 238 172 L354 848 L96 848 L89 812 L114 812 C165 812 182 802 183 768 C183 756 179 729 176 711 L91 215 C87 194 85 171 85 148 C85 44 144 -30 256 -30 C344 -30 431 9 504 67 C515 76 526 85 537 95 C554 20 610 -30 702 -30 C790 -30 877 9 950 67 C1135 216 1238 470 1238 700 C1238 749 1232 797 1218 848 L1010 848 L1006 812 C1088 812 1161 786 1161 619 C1161 396 1036 201 914 98 C868 59 798 21 751 21 C694 21 679 70 679 120 C679 138 681 156 684 172 L800 848 L542 848 L535 812 L560 812 C611 812 628 802 629 768 C629 756 625 729 622 711 L533 161 C512 138 490 116 468 98 L468 98 Z M858 1026 L511 1371 L511 1196 L760 1026 L858 1026 Z " />
<glyph glyph-name="Wacute" unicode="&#x1e82;" horiz-adv-x="1813" d="M1214 172 L1059 1164 C1057 1177 1056 1191 1056 1204 C1056 1254 1081 1289 1141 1291 L1199 1293 L1205 1338 L726 1338 L719 1293 L748 1291 C809 1286 869 1264 886 1154 L924 912 L584 172 L429 1164 C427 1177 426 1190 426 1201 C426 1272 468 1289 511 1291 L569 1293 L575 1338 L96 1338 L90 1293 L118 1291 C180 1286 239 1264 257 1154 L440 0 L569 0 L941 807 L1069 0 L1199 0 L1736 1163 C1772 1242 1837 1289 1890 1291 L1930 1293 L1938 1338 L1586 1338 L1579 1293 L1622 1293 C1672 1293 1696 1271 1696 1236 C1696 1222 1691 1206 1683 1188 L1214 172 Z M969 1426 L1218 1596 L1218 1771 L871 1426 L969 1426 Z " />
<glyph glyph-name="wacute" unicode="&#x1e83;" horiz-adv-x="1333" d="M468 98 C422 59 352 21 305 21 C248 21 233 70 233 120 C233 138 235 156 238 172 L354 848 L96 848 L89 812 L114 812 C165 812 182 802 183 768 C183 756 179 729 176 711 L91 215 C87 194 85 171 85 148 C85 44 144 -30 256 -30 C344 -30 431 9 504 67 C515 76 526 85 537 95 C554 20 610 -30 702 -30 C790 -30 877 9 950 67 C1135 216 1238 470 1238 700 C1238 749 1232 797 1218 848 L1010 848 L1006 812 C1088 812 1161 786 1161 619 C1161 396 1036 201 914 98 C868 59 798 21 751 21 C694 21 679 70 679 120 C679 138 681 156 684 172 L800 848 L542 848 L535 812 L560 812 C611 812 628 802 629 768 C629 756 625 729 622 711 L533 161 C512 138 490 116 468 98 L468 98 Z M681 1026 L930 1196 L930 1371 L583 1026 L681 1026 Z " />
<glyph glyph-name="Wdieresis" unicode="&#x1e84;" horiz-adv-x="1813" d="M1683 1188 C1691 1206 1696 1222 1696 1236 C1696 1271 1672 1293 1622 1293 L1579 1293 L1586 1338 L1938 1338 L1930 1293 L1890 1291 C1837 1289 1772 1242 1736 1163 L1199 0 L1069 0 L941 807 L569 0 L440 0 L257 1154 C239 1264 180 1286 118 1291 L90 1293 L96 1338 L575 1338 L569 1293 L511 1291 C468 1289 426 1272 426 1201 C426 1190 427 1177 429 1164 L584 172 L924 912 L886 1154 C869 1264 809 1286 748 1291 L719 1293 L726 1338 L1205 1338 L1199 1293 L1141 1291 C1081 1289 1056 1254 1056 1204 C1056 1191 1057 1177 1059 1164 L1214 172 L1683 1188 Z M1125 1724 C1061 1724 1023 1646 1023 1596 C1023 1534 1057 1508 1099 1508 C1163 1508 1201 1586 1201 1636 C1201 1698 1167 1724 1125 1724 L1125 1724 Z M806 1724 C742 1724 704 1646 704 1596 C704 1534 738 1508 780 1508 C844 1508 882 1586 882 1636 C882 1698 848 1724 806 1724 L806 1724 Z " />
<glyph glyph-name="wdieresis" unicode="&#x1e85;" horiz-adv-x="1333" d="M468 98 C422 59 352 21 305 21 C248 21 233 70 233 120 C233 138 235 156 238 172 L354 848 L96 848 L89 812 L114 812 C165 812 182 802 183 768 C183 756 179 729 176 711 L91 215 C87 194 85 171 85 148 C85 44 144 -30 256 -30 C344 -30 431 9 504 67 C515 76 526 85 537 95 C554 20 610 -30 702 -30 C790 -30 877 9 950 67 C1135 216 1238 470 1238 700 C1238 749 1232 797 1218 848 L1010 848 L1006 812 C1088 812 1161 786 1161 619 C1161 396 1036 201 914 98 C868 59 798 21 751 21 C694 21 679 70 679 120 C679 138 681 156 684 172 L800 848 L542 848 L535 812 L560 812 C611 812 628 802 629 768 C629 756 625 729 622 711 L533 161 C512 138 490 116 468 98 L468 98 Z M914 1300 C853 1300 817 1222 817 1172 C817 1110 850 1084 890 1084 C951 1084 987 1162 987 1212 C987 1274 954 1300 914 1300 L914 1300 Z M595 1300 C534 1300 498 1222 498 1172 C498 1110 531 1084 571 1084 C632 1084 668 1162 668 1212 C668 1274 635 1300 595 1300 L595 1300 Z " />
<glyph glyph-name="uni1E9E" unicode="&#x1e9e;" horiz-adv-x="1218" d="M-17 0 L425 0 L431 45 C345 45 304 55 304 111 C304 117 308 151 309 158 L432 1032 C457 1207 573 1304 723 1304 C823 1304 908 1229 908 1129 C908 1018 829 920 757 848 C697 788 660 711 660 629 C660 540 706 457 784 419 L886 370 C974 328 998 272 998 212 C998 99 903 18 797 18 C658 18 600 115 600 237 C600 256 601 274 604 294 L554 294 L520 53 C594 7 689 -25 799 -25 C975 -25 1138 115 1138 290 C1138 395 1079 467 992 512 L852 585 C800 612 768 657 768 713 C768 891 1075 909 1075 1129 C1075 1304 874 1357 739 1357 C452 1357 295 1250 252 944 L138 131 C128 57 84 45 -11 45 L-17 0 Z " />
<glyph glyph-name="Ygrave" unicode="&#x1ef2;" horiz-adv-x="1085" d="M224 0 L667 0 L674 45 C590 46 548 55 548 111 C548 117 550 132 551 139 L605 531 L1069 1293 L1203 1293 L1210 1338 L841 1338 L835 1293 L1009 1293 L581 594 L437 1175 C431 1198 428 1217 428 1232 C428 1286 462 1293 493 1293 L567 1293 L573 1338 L97 1338 L90 1293 L119 1293 C200 1293 241 1261 267 1156 L434 493 L384 131 C374 57 325 46 231 45 L224 0 Z M772 1426 L425 1771 L425 1596 L674 1426 L772 1426 Z " />
<glyph glyph-name="ygrave" unicode="&#x1ef3;" horiz-adv-x="835" d="M-34 -290 L-60 -317 L69 -450 C377 -283 618 149 694 467 C712 542 720 619 720 693 C720 745 715 797 704 848 L500 848 L496 813 C615 813 643 706 643 595 C643 423 567 236 477 77 L242 848 L5 848 L1 813 L47 811 C82 809 99 792 114 744 L342 0 L431 0 C364 -109 279 -229 184 -300 C147 -327 110 -342 74 -342 C32 -342 -8 -320 -34 -290 L-34 -290 Z M553 1026 L206 1371 L206 1196 L455 1026 L553 1026 Z " />
<glyph glyph-name="uni2009" unicode="&#x2009;" horiz-adv-x="150" d="" />
<glyph glyph-name="endash" unicode="&#x2013;" horiz-adv-x="932" d="M84 425 L766 425 L782 522 L100 522 L84 425 Z " />
<glyph glyph-name="emdash" unicode="&#x2014;" horiz-adv-x="1242" d="M84 425 L1076 425 L1092 522 L100 522 L84 425 Z " />
<glyph glyph-name="quoteleft" unicode="&#x2018;" horiz-adv-x="321" d="M150 1035 C150 1191 294 1292 431 1329 L419 1368 C277 1334 151 1238 112 1105 C104 1078 100 1048 100 1018 C100 938 135 835 226 835 C289 835 344 901 344 965 C344 1018 311 1059 263 1059 C217 1059 176 1023 158 978 C151 998 150 1017 150 1035 L150 1035 Z " />
<glyph glyph-name="quoteright" unicode="&#x2019;" horiz-adv-x="401" d="M361 1163 C361 1007 217 906 80 869 L92 830 C234 864 360 960 399 1093 C407 1120 411 1150 411 1180 C411 1260 376 1363 285 1363 C222 1363 167 1297 167 1233 C167 1180 200 1139 248 1139 C294 1139 335 1175 353 1220 C360 1200 361 1181 361 1163 L361 1163 Z " />
<glyph glyph-name="quotesinglbase" unicode="&#x201a;" horiz-adv-x="451" d="M251 9 C251 -147 107 -248 -30 -285 L-18 -324 C124 -290 250 -194 289 -61 C297 -34 301 -4 301 26 C301 106 266 209 175 209 C112 209 57 143 57 79 C57 26 90 -15 138 -15 C184 -15 225 21 243 66 C250 46 251 27 251 9 L251 9 Z " />
<glyph glyph-name="quotedblleft" unicode="&#x201c;" horiz-adv-x="650" d="M150 1035 C150 1191 294 1292 431 1329 L419 1368 C277 1334 151 1238 112 1105 C104 1078 100 1048 100 1018 C100 938 135 835 226 835 C289 835 344 901 344 965 C344 1018 311 1059 263 1059 C217 1059 176 1023 158 978 C151 998 150 1017 150 1035 L150 1035 Z M479 1035 C479 1191 623 1292 760 1329 L748 1368 C606 1334 480 1238 441 1105 C433 1078 429 1048 429 1018 C429 938 464 835 555 835 C618 835 673 901 673 965 C673 1018 640 1059 592 1059 C546 1059 505 1023 487 978 C480 998 479 1017 479 1035 L479 1035 Z " />
<glyph glyph-name="quotedblright" unicode="&#x201d;" horiz-adv-x="730" d="M361 1163 C361 1007 217 906 80 869 L92 830 C234 864 360 960 399 1093 C407 1120 411 1150 411 1180 C411 1260 376 1363 285 1363 C222 1363 167 1297 167 1233 C167 1180 200 1139 248 1139 C294 1139 335 1175 353 1220 C360 1200 361 1181 361 1163 L361 1163 Z M690 1163 C690 1007 546 906 409 869 L421 830 C563 864 689 960 728 1093 C736 1120 740 1150 740 1180 C740 1260 705 1363 614 1363 C551 1363 496 1297 496 1233 C496 1180 529 1139 577 1139 C623 1139 664 1175 682 1220 C689 1200 690 1181 690 1163 L690 1163 Z " />
<glyph glyph-name="quotedblbase" unicode="&#x201e;" horiz-adv-x="780" d="M251 9 C251 -147 107 -248 -30 -285 L-18 -324 C124 -290 250 -194 289 -61 C297 -34 301 -4 301 26 C301 106 266 209 175 209 C112 209 57 143 57 79 C57 26 90 -15 138 -15 C184 -15 225 21 243 66 C250 46 251 27 251 9 L251 9 Z M580 9 C580 -147 436 -248 299 -285 L311 -324 C453 -290 579 -194 618 -61 C626 -34 630 -4 630 26 C630 106 595 209 504 209 C441 209 386 143 386 79 C386 26 419 -15 467 -15 C513 -15 554 21 572 66 C579 46 580 27 580 9 L580 9 Z " />
<glyph glyph-name="dagger" unicode="&#x2020;" horiz-adv-x="866" d="M465 746 C471 789 478 829 486 866 C572 857 632 844 674 835 C704 829 724 824 742 824 C785 824 826 848 826 896 C826 943 785 966 742 966 C725 966 704 962 676 955 C638 945 579 933 499 924 C523 1024 552 1097 573 1149 C589 1189 604 1226 604 1262 C604 1322 570 1367 515 1367 C445 1367 406 1293 406 1235 C406 1216 408 1193 412 1165 C418 1120 424 1061 424 982 C424 963 424 943 423 922 C333 931 269 945 229 955 C201 962 182 966 165 966 C122 966 80 943 80 896 C80 848 122 824 165 824 C183 824 205 828 234 835 C275 844 336 856 419 865 C417 830 413 792 407 750 L384 587 C355 380 306 259 274 182 C257 140 244 108 244 74 C244 16 276 -28 334 -28 C405 -28 442 47 442 105 C442 124 440 147 437 176 C432 221 426 279 426 356 C426 418 430 492 442 581 L465 746 Z " />
<glyph glyph-name="daggerdbl" unicode="&#x2021;" horiz-adv-x="882" d="M488 748 C494 790 500 830 508 866 C590 857 656 844 697 835 C726 828 749 824 767 824 C808 824 851 848 851 896 C851 943 808 966 767 966 C750 966 731 961 703 955 C664 946 603 933 521 924 C546 1024 575 1096 596 1149 C613 1189 627 1226 627 1264 C627 1319 593 1367 536 1367 C466 1367 428 1294 428 1236 C428 1217 430 1194 434 1166 C440 1121 446 1061 446 982 C446 963 446 944 445 923 C358 932 294 946 254 955 C226 961 207 966 190 966 C147 966 105 943 105 896 C105 848 147 824 190 824 C208 824 229 828 258 835 C298 844 361 857 441 866 C439 830 435 791 429 749 C421 695 413 647 405 602 C314 611 249 625 208 634 C181 640 162 645 145 645 C102 645 60 623 60 575 C60 527 102 504 145 504 C163 504 186 508 215 514 C255 523 316 537 394 545 C349 326 299 221 272 168 C265 154 258 140 258 126 C258 102 310 -25 349 -28 C389 -28 484 92 484 119 C484 125 482 133 481 144 C473 181 459 253 459 382 C459 428 460 483 465 546 C546 537 610 524 651 515 C681 508 704 504 722 504 C763 504 806 527 806 575 C806 623 763 645 722 645 C706 645 684 640 658 634 C618 625 556 612 470 603 C475 648 480 696 488 748 L488 748 Z " />
<glyph glyph-name="bullet" unicode="&#x2022;" horiz-adv-x="599" d="M489 609 C489 719 401 806 300 806 C194 806 110 719 110 609 C110 500 194 411 300 411 C401 411 489 500 489 609 L489 609 Z " />
<glyph glyph-name="ellipsis" unicode="&#x2026;" horiz-adv-x="1257" d="M297 119 C297 172 261 209 214 209 C146 209 92 141 92 75 C92 23 129 -15 177 -15 C245 -15 297 56 297 119 L297 119 Z M687 119 C687 172 651 209 604 209 C536 209 482 141 482 75 C482 23 519 -15 567 -15 C635 -15 687 56 687 119 L687 119 Z M1077 119 C1077 172 1041 209 994 209 C926 209 872 141 872 75 C872 23 909 -15 957 -15 C1025 -15 1077 56 1077 119 L1077 119 Z " />
<glyph glyph-name="perthousand" unicode="&#x2030;" horiz-adv-x="1906" d="M73 985 C68 951 66 920 66 888 C66 750 129 592 282 592 C418 592 539 748 569 958 C574 991 577 1026 577 1058 C577 1196 512 1351 360 1351 C221 1351 101 1199 73 985 L73 985 Z M760 379 C755 345 753 314 753 282 C753 144 816 -14 969 -14 C1105 -14 1226 142 1256 352 C1261 385 1264 420 1264 452 C1264 590 1199 745 1047 745 C908 745 788 593 760 379 L760 379 Z M1370 379 C1365 345 1363 314 1363 282 C1363 144 1426 -14 1579 -14 C1715 -14 1836 142 1866 352 C1871 385 1874 420 1874 452 C1874 590 1809 745 1657 745 C1518 745 1398 593 1370 379 L1370 379 Z M1745 360 C1726 218 1697 129 1667 81 C1643 47 1607 27 1576 27 C1490 27 1478 133 1478 198 C1478 261 1482 318 1490 372 C1510 509 1541 604 1571 650 C1593 685 1627 705 1660 705 C1745 705 1759 601 1759 535 C1759 471 1753 416 1745 360 L1745 360 Z M448 966 C429 824 400 735 370 687 C346 653 310 633 279 633 C193 633 181 739 181 804 C181 867 185 924 193 978 C213 1115 244 1210 274 1256 C296 1291 330 1311 363 1311 C448 1311 462 1207 462 1141 C462 1077 456 1022 448 966 L448 966 Z M1135 360 C1116 218 1087 129 1057 81 C1033 47 997 27 966 27 C880 27 868 133 868 198 C868 261 872 318 880 372 C900 509 931 604 961 650 C983 685 1017 705 1050 705 C1135 705 1149 601 1149 535 C1149 471 1143 416 1135 360 L1135 360 Z M149 0 L1246 1338 L1176 1338 L79 0 L149 0 Z " />
<glyph glyph-name="guilsinglleft" unicode="&#x2039;" horiz-adv-x="517" d="M30 433 L271 40 L330 76 L114 425 L447 770 L400 817 L30 433 Z " />
<glyph glyph-name="guilsinglright" unicode="&#x203a;" horiz-adv-x="517" d="M447 424 L206 817 L147 781 L363 432 L30 87 L77 40 L447 424 Z " />
<glyph glyph-name="fraction" unicode="&#x2044;" horiz-adv-x="187" d="M-410 0 L687 1338 L617 1338 L-480 0 L-410 0 Z " />
<glyph glyph-name="Euro" unicode="&#x20ac;" horiz-adv-x="1132" d="M-20 682 L101 682 C97 643 95 603 95 564 C95 265 244 -25 576 -25 C700 -25 830 8 946 79 L989 386 L935 386 C921 290 895 215 856 160 C800 80 693 36 587 36 C343 36 283 260 283 476 C283 538 287 608 296 682 L676 682 L772 779 L312 779 C363 1041 494 1303 782 1303 C938 1303 1022 1205 1022 1047 C1022 1016 1019 985 1015 952 L1069 952 L1112 1259 C1012 1325 889 1363 763 1363 C392 1363 179 1101 115 779 L-20 779 L-20 682 Z " />
<glyph glyph-name="trademark" unicode="&#x2122;" horiz-adv-x="1299" d="M501 1300 C552 1300 562 1271 562 1170 L612 1170 L618 1338 L146 1338 L100 1170 L151 1170 C181 1271 208 1300 253 1300 L318 1300 L237 735 C233 703 210 698 163 698 L158 663 L404 663 L409 698 C366 698 344 702 344 724 C344 726 346 740 347 747 L425 1300 L501 1300 Z M782 1197 L903 683 L938 683 L1180 1187 L1117 735 C1113 703 1089 698 1043 698 L1038 663 L1283 663 L1288 698 C1246 698 1223 702 1223 724 C1223 730 1225 741 1226 747 L1299 1267 C1303 1299 1327 1303 1374 1304 L1379 1338 L1195 1338 L969 870 L859 1338 L678 1338 L673 1304 C715 1303 738 1300 738 1278 C738 1272 736 1263 736 1261 L662 735 C658 703 634 698 588 698 L583 663 L775 663 L780 698 C739 698 715 700 715 726 C715 730 716 740 717 745 L782 1197 Z " />
<glyph glyph-name="Omega" unicode="&#x2126;" horiz-adv-x="1225" d="M616 68 C615 63 615 58 615 53 C615 21 630 0 673 0 L1000 0 L1066 266 L1012 266 C964 68 905 68 796 68 L703 68 C690 68 685 71 685 81 C685 83 686 93 687 99 L701 200 C1042 271 1185 557 1185 868 C1185 1160 988 1360 718 1360 C323 1360 92 1064 92 679 C92 432 207 245 415 200 L399 87 C397 72 390 68 375 68 L282 68 C180 68 121 68 121 232 C121 243 122 254 122 266 L68 266 L60 0 L387 0 C436 0 456 27 462 68 L488 253 C346 273 277 384 277 588 C277 884 363 1303 714 1303 C929 1303 1001 1121 1001 943 C1001 696 930 290 642 253 L616 68 Z " />
<glyph glyph-name="estimated" unicode="&#x212e;" horiz-adv-x="1426" d="M1104 643 L333 643 L333 986 C459 1115 563 1164 713 1164 C874 1164 1026 1107 1104 963 L1104 643 Z M333 578 L1351 578 C1342 1029 1067 1230 713 1230 C346 1230 75 995 75 606 C75 212 374 -18 713 -18 C877 -18 1150 56 1232 236 L1098 236 C991 112 879 48 713 48 C567 48 430 114 333 216 L333 578 Z " />
<glyph glyph-name="arrowleft" unicode="&#x2190;" horiz-adv-x="1288" d="M247 665 L620 998 L563 1059 L83 627 L469 155 L536 214 L235 578 L1171 578 L1188 663 L247 665 Z " />
<glyph glyph-name="arrowup" unicode="&#x2191;" horiz-adv-x="1068" d="M968 690 L585 1179 L80 813 L130 746 L522 1031 L391 91 L477 91 C530 468 556 640 608 1017 L900 638 L968 690 Z " />
<glyph glyph-name="arrowright" unicode="&#x2192;" horiz-adv-x="1288" d="M1021 573 L648 240 L705 179 L1185 611 L799 1083 L732 1024 L1033 660 L97 660 L80 575 L1021 573 Z " />
<glyph glyph-name="arrowdown" unicode="&#x2193;" horiz-adv-x="1068" d="M80 580 L463 91 L968 457 L918 524 L526 239 L657 1179 L571 1179 C518 802 492 630 440 253 L148 632 L80 580 Z " />
<glyph glyph-name="partialdiff" unicode="&#x2202;" horiz-adv-x="963" d="M216 332 C216 493 265 810 486 810 C634 810 687 668 687 535 C687 358 642 21 399 21 C245 21 216 202 216 332 L216 332 Z M714 688 C681 803 567 878 444 878 C189 878 60 610 60 376 C60 177 158 -25 391 -25 C723 -25 873 330 873 630 C873 762 853 892 796 1002 C701 1188 533 1325 329 1397 L307 1351 C575 1246 717 1045 717 759 C717 736 716 712 714 688 L714 688 Z " />
<glyph glyph-name="Delta" unicode="&#x2206;" horiz-adv-x="1027" d="M912 0 L702 1338 L570 1338 L-74 0 L912 0 Z M37 80 L555 1167 L699 200 C701 189 702 170 702 157 C702 107 658 80 618 80 L37 80 Z " />
<glyph glyph-name="product" unicode="&#x220f;" horiz-adv-x="1284" d="M149 1293 L166 1293 C252 1293 293 1283 293 1227 C293 1221 290 1194 289 1187 L105 -127 C95 -201 51 -213 -44 -213 L-51 -258 L410 -258 L417 -213 L398 -213 C312 -213 271 -203 271 -147 C271 -141 272 -128 274 -114 L468 1270 L1020 1270 L824 -127 C814 -201 770 -213 674 -213 L667 -258 L1130 -258 L1137 -213 L1098 -213 C1025 -213 990 -199 990 -147 C990 -141 991 -129 993 -114 L1178 1207 C1188 1281 1232 1293 1328 1293 L1335 1338 L156 1338 L149 1293 Z " />
<glyph glyph-name="summation" unicode="&#x2211;" horiz-adv-x="1161" d="M585 540 L142 -128 C96 -198 66 -213 -29 -213 L-36 -258 L918 -258 L981 -19 L928 -19 C890 -159 849 -205 757 -205 L276 -205 L757 540 L490 1285 L961 1285 C1053 1285 1080 1239 1080 1099 L1133 1099 L1133 1338 L193 1338 L186 1293 C282 1293 308 1278 334 1208 L585 540 Z " />
<glyph glyph-name="minus" unicode="&#x2212;" horiz-adv-x="966" d="M54 419 L870 419 L883 499 L67 499 L54 419 Z " />
<glyph glyph-name="radical" unicode="&#x221a;" horiz-adv-x="1190" d="M1341 1412 L1250 1412 L513 -206 L355 361 C350 378 338 392 318 392 C311 392 302 390 293 386 L72 284 L102 217 L286 300 L431 -206 C447 -263 466 -295 513 -295 C560 -295 575 -263 601 -206 L1341 1412 Z " />
<glyph glyph-name="infinity" unicode="&#x221e;" horiz-adv-x="1470" d="M1019 220 C876 220 824 334 780 455 C867 576 958 692 1102 692 C1218 692 1301 605 1301 494 C1301 346 1169 220 1019 220 L1019 220 Z M367 220 C251 220 169 308 169 418 C169 566 300 692 450 692 C592 692 645 574 689 455 C602 336 509 220 367 220 L367 220 Z M1019 140 C1212 140 1381 303 1381 494 C1381 650 1265 772 1102 772 C946 772 839 664 741 537 C685 665 607 772 450 772 C257 772 89 609 89 418 C89 264 204 140 367 140 C520 140 629 247 727 373 C783 244 861 140 1019 140 L1019 140 Z " />
<glyph glyph-name="integral" unicode="&#x222b;" horiz-adv-x="689" d="M624 -227 L577 -171 C546 -198 504 -217 463 -217 C390 -217 341 -161 340 -91 C340 -83 340 -71 342 -62 L533 1129 C535 1142 536 1155 536 1168 C534 1275 449 1358 336 1358 C273 1358 212 1331 165 1290 L212 1234 C243 1261 285 1280 326 1280 C399 1280 448 1224 449 1154 C449 1146 448 1130 447 1121 L255 -66 C254 -79 253 -92 253 -105 C255 -212 339 -295 452 -295 C515 -295 576 -268 624 -227 L624 -227 Z " />
<glyph glyph-name="approxequal" unicode="&#x2248;" horiz-adv-x="1340" d="M1191 703 C1087 606 1016 564 937 564 C896 564 865 571 778 613 L702 649 C553 719 504 727 434 727 C364 727 243 716 129 596 L177 542 C289 645 362 649 422 649 C481 649 545 632 630 589 L697 555 C778 514 856 483 914 483 C1016 483 1116 525 1242 646 L1191 703 Z M142 248 C247 345 318 386 397 386 C438 386 469 380 556 338 L631 301 C779 228 830 221 900 221 C970 221 1091 234 1204 354 L1158 409 C1046 306 970 299 910 299 C851 299 789 318 703 361 L637 395 C556 436 477 467 419 467 C317 467 216 423 91 302 L142 248 Z " />
<glyph glyph-name="notequal" unicode="&#x2260;" horiz-adv-x="1042" d="M125 539 L557 539 L371 379 L99 379 L86 299 L278 299 L120 163 L168 107 L391 299 L902 299 L915 379 L485 379 L671 539 L941 539 L954 619 L765 619 L920 752 L872 809 L651 619 L138 619 L125 539 Z " />
<glyph glyph-name="lessequal" unicode="&#x2264;" horiz-adv-x="821" d="M789 1038 L153 687 C132 676 113 655 113 632 C113 617 121 602 138 590 L660 236 L714 306 C714 306 345 539 223 635 L828 964 L789 1038 Z M25 70 L669 70 L682 147 L37 147 L25 70 Z " />
<glyph glyph-name="greaterequal" unicode="&#x2265;" horiz-adv-x="821" d="M104 236 L739 587 C760 598 779 619 779 642 C779 657 770 673 754 684 L234 1038 L178 968 L670 639 L64 310 L104 236 Z M702 147 L58 147 L45 70 L690 70 L702 147 Z " />
<glyph glyph-name="lozenge" unicode="&#x25ca;" horiz-adv-x="1132" d="M90 681 L438 30 C451 5 468 -7 488 -7 C507 -7 529 5 550 30 L1085 658 L738 1308 C726 1331 708 1344 688 1344 C668 1344 645 1332 624 1308 L90 681 Z M681 1248 L989 669 L496 90 L187 669 L681 1248 Z " />
<glyph glyph-name="commaaccent" unicode="&#xf6c3;" horiz-adv-x="440" d="M276 -225 C276 -235 275 -248 272 -260 C253 -344 159 -403 79 -432 L97 -474 C208 -437 326 -347 326 -215 C326 -153 285 -82 210 -82 C163 -82 111 -119 111 -174 C111 -220 148 -267 198 -267 C226 -267 256 -252 276 -217 L276 -225 Z " />
<glyph glyph-name="apple" unicode="&#xf8ff;" horiz-adv-x="1425" d="M498 855 L507 855 C507 738 526 584 626 584 C717 584 806 629 806 629 C839 761 883 938 918 938 C966 938 1012 796 1038 712 C1062 633 1089 507 1114 483 C1117 480 1122 478 1126 478 C1136 478 1146 486 1146 497 C1146 512 1127 519 1127 532 C1127 540 1139 548 1146 548 C1169 548 1178 505 1178 490 C1178 456 1145 446 1131 422 C1100 370 1101 300 1042 300 C951 300 909 350 877 350 C851 350 846 338 822 338 C784 338 753 381 753 418 C753 475 800 477 808 477 C817 477 829 460 837 460 C848 460 855 473 855 481 C855 509 829 519 805 519 C747 519 702 470 702 417 C702 361 731 325 771 295 C762 239 754 219 702 190 C659 166 639 105 634 49 C629 -7 629 -73 629 -73 L657 -39 L687 -68 C689 -38 692 -10 698 17 C707 56 717 96 739 126 C750 142 761 151 768 152 L749 86 L836 132 L844 84 L896 156 L904 81 L947 158 L974 79 L1005 144 L1039 94 L1055 183 L1084 110 L1108 168 L1151 113 L1139 230 L1226 149 L1204 225 L1283 187 L1256 225 L1294 212 C1329 175 1334 114 1334 79 C1334 62 1333 52 1333 52 L1355 78 L1393 62 C1393 62 1395 97 1395 138 C1395 162 1390 188 1385 210 C1378 243 1345 274 1310 290 C1220 331 1158 395 1158 395 C1187 427 1212 448 1212 494 C1212 551 1178 577 1137 605 L1089 713 C1168 749 1240 801 1240 963 C1240 988 1238 1049 1238 1049 L1249 1058 L1249 1114 C1250 1114 867 1337 794 1337 C741 1337 695 1277 695 1198 C695 1181 709 1171 723 1171 C735 1171 747 1179 748 1196 C750 1226 762 1275 793 1275 C853 1275 1156 1099 1156 1099 C883 1001 534 941 534 941 C427 977 281 1025 169 1025 C68 1025 30 932 30 843 C30 817 35 791 59 791 C75 791 85 802 87 823 C94 885 102 960 172 960 C287 960 434 907 479 889 L498 855 Z M846 945 C795 829 762 670 762 670 C723 660 686 641 646 641 C571 641 562 758 562 818 L562 878 C562 878 750 941 846 945 L846 945 Z M1186 1034 C1187 1016 1187 1000 1187 985 C1187 831 1158 809 1076 764 C1056 881 978 970 954 976 C954 976 1102 1034 1186 1034 L1186 1034 Z " />
<glyph glyph-name="f_f" unicode="&#xfb00;" horiz-adv-x="1003" d="M79 812 L153 812 C173 812 183 803 183 782 C183 777 183 771 182 765 L9 -219 C-14 -352 -74 -408 -144 -414 L-150 -450 C-17 -448 137 -379 181 -126 L345 812 L544 812 L550 848 L351 848 L374 974 C391 1066 409 1134 429 1185 C451 1240 490 1311 562 1311 C616 1311 629 1253 629 1205 C629 1179 624 1154 621 1127 L661 1127 L687 1282 C659 1318 609 1350 550 1350 C398 1350 257 1213 207 914 L196 848 L84 848 L79 812 Z M579 812 L653 812 C673 812 683 803 683 782 C683 777 683 771 682 765 L509 -219 C486 -352 426 -408 356 -414 L350 -450 C483 -448 637 -379 681 -126 L845 812 L1044 812 L1050 848 L851 848 L874 974 C891 1066 909 1134 929 1185 C951 1240 990 1311 1062 1311 C1116 1311 1129 1253 1129 1205 C1129 1179 1124 1154 1121 1127 L1161 1127 L1187 1282 C1159 1318 1109 1350 1050 1350 C898 1350 757 1213 707 914 L696 848 L584 848 L579 812 Z " />
<glyph glyph-name="fi" unicode="&#xfb01;" horiz-adv-x="1029" d="M79 812 L153 812 C173 812 183 803 183 782 C183 777 183 771 182 765 L9 -219 C-14 -352 -74 -408 -144 -414 L-150 -450 C-17 -448 137 -379 181 -126 L345 812 L544 812 L550 848 L351 848 L374 974 C391 1066 409 1134 429 1185 C451 1240 490 1311 562 1311 C616 1311 629 1253 629 1205 C629 1179 624 1154 621 1127 L661 1127 L687 1282 C659 1318 609 1350 550 1350 C398 1350 257 1213 207 914 L196 848 L84 848 L79 812 Z M599 813 L624 813 C675 813 692 802 693 768 C693 756 689 729 686 711 L610 269 C605 237 597 176 597 140 C597 49 627 -30 752 -30 C891 -30 965 102 1000 202 L951 202 C928 151 880 42 804 42 C757 42 745 83 745 125 C745 150 750 181 753 199 L864 848 L606 848 L599 813 Z M845 1350 C784 1350 748 1272 748 1222 C748 1160 781 1134 821 1134 C882 1134 918 1212 918 1262 C918 1324 885 1350 845 1350 L845 1350 Z " />
<glyph glyph-name="fl" unicode="&#xfb02;" horiz-adv-x="1086" d="M79 812 L153 812 C173 812 183 803 183 782 C183 777 183 771 182 765 L9 -219 C-14 -352 -74 -408 -144 -414 L-150 -450 C-17 -448 137 -379 181 -126 L345 812 L544 812 L550 848 L351 848 L374 974 C391 1066 409 1134 429 1185 C451 1240 490 1311 562 1311 C616 1311 629 1253 629 1205 C629 1179 624 1154 621 1127 L661 1127 L687 1282 C659 1318 609 1350 550 1350 C398 1350 257 1213 207 914 L196 848 L84 848 L79 812 Z M724 1302 L749 1302 C800 1302 817 1292 818 1258 C818 1246 814 1219 811 1201 L652 269 C647 237 639 176 639 140 C639 49 669 -30 794 -30 C933 -30 1007 102 1042 202 L993 202 C970 151 922 42 846 42 C799 42 787 83 787 125 C787 150 792 181 795 199 L989 1338 L731 1338 L724 1302 Z " />
</font>
</svg>
