<?xml version="1.0" standalone="no"?>
<!DOCTYPE svg PUBLIC "-//W3C//DTD SVG 1.1//EN" "http://www.w3.org/Graphics/SVG/1.1/DTD/svg11.dtd" >
<svg>
<metadata>
Created by FontForge 20090914 at Tue Jan 29 11:49:41 2019
 By www-data
Copyright \(c\) 2018 by Pace/RML Types. All rights reserved.
</metadata>
<defs>
<font id="LuissSans-BoldItalic" horiz-adv-x="648" >
  <font-face 
    font-family="Luiss Sans"
    font-weight="400"
    font-style="italic"
    font-stretch="normal"
    units-per-em="1000"
    panose-1="0 0 0 0 0 0 0 0 0 0"
    ascent="740"
    descent="-260"
    x-height="423.999"
    cap-height="669"
    bbox="-524 -236.002 1109 971.002"
    underline-thickness="50"
    underline-position="-50"
    slope="-9.95"
    unicode-range="U+000D-U+FB02"
  />
<missing-glyph horiz-adv-x="735" 
d="M83 13.5c-6.66699 9 -9.00098 19.832 -7.00098 32.499l101 578c2.66699 12.667 8.83398 23.334 18.501 32.001s20.834 13 33.501 13h394c10.667 0 19.5 -3.5 26.5 -10.5s10.5 -15.5 10.5 -25.5c0 -4 -0.333008 -7 -1 -9l-101 -578c-2 -12.667 -8.16699 -23.5 -18.5 -32.5
s-21.5 -13.5 -33.5 -13.5h-394c-12.667 0 -22.334 4.5 -29.001 13.5zM581.999 617.999h-328l120 -248zM342.999 334.999l-122 256l-89 -511zM604.999 589.999l-214 -255l125 -256zM480.999 50.999l-119 248l-207 -248h326z" />
    <glyph glyph-name="fi" unicode="fi" horiz-adv-x="538" 
d="M-66 -127c25.333 3.33301 45.3311 13.168 59.998 29.501s25.334 43.5 32.001 81.5l60 340c0.666992 4 1 7.66699 1 11c0 8.66699 -2.83301 14.667 -8.5 18s-15.167 5 -28.5 5h-15l12 66h57l8 48c23.333 136 88 204 194 204c29.333 0 56 -4.33301 80 -13l-15 -90
c-18 5.33301 -34.667 8 -50 8c-22 0 -38.5 -6.83301 -49.5 -20.5s-19.5 -37.834 -25.5 -72.501l-11 -64h82l-12 -70h-83l-60 -339c-15.333 -84 -43.166 -144.5 -83.499 -181.5s-94.5 -55.5 -162.5 -55.5zM431.498 553.002c-11 13.333 -16.5 29.332 -16.5 47.999
c0 21.333 6.66699 40 20 56s31.666 24 54.999 24c20.667 0 36.5 -6.5 47.5 -19.5s16.5 -28.833 16.5 -47.5c0 -21.333 -6.66699 -40.166 -20 -56.499s-31.666 -24.5 -54.999 -24.5c-20.667 0 -36.5 6.66699 -47.5 20zM389.998 424.001h129l-74 -424h-129z" />
    <glyph glyph-name="fl" unicode="fl" horiz-adv-x="538" 
d="M-66 -127c25.333 3.33301 45.3311 13.168 59.998 29.501s25.334 43.5 32.001 81.5l60 340c0.666992 4 1 7.66699 1 11c0 8.66699 -2.83301 14.667 -8.5 18s-15.167 5 -28.5 5h-15l12 66h57l8 48c23.333 136 88 204 194 204c29.333 0 56 -4.33301 80 -13l-15 -90
c-18 5.33301 -34.667 8 -50 8c-22 0 -38.5 -6.83301 -49.5 -20.5s-19.5 -37.834 -25.5 -72.501l-11 -64h82l-12 -70h-83l-60 -339c-15.333 -84 -43.166 -144.5 -83.499 -181.5s-94.5 -55.5 -162.5 -55.5zM347.998 9.00195c-16 14.667 -24 35.332 -24 61.999
c0 14.667 2 33.334 6 56.001l95 542h129l-94 -530c-3.33301 -16.667 -5 -29 -5 -37c0 -10.667 1.83301 -17.667 5.5 -21s9.16699 -5 16.5 -5c6.66699 0 12.667 0.666992 18 2l13 -67c-28 -16 -60.333 -24 -97 -24c-26 0 -47 7.33301 -63 22z" />
    <glyph glyph-name="f_f" unicode="ff" horiz-adv-x="573" 
d="M-66 -127c25.333 3.33301 45.3311 13.168 59.998 29.501s25.334 43.5 32.001 81.5l60 340c0.666992 4 1 7.66699 1 11c0 8.66699 -2.83301 14.667 -8.5 18s-15.167 5 -28.5 5h-15l12 66h57l8 48c23.333 136 88 204 194 204c29.333 0 56 -4.33301 80 -13l-15 -90
c-18 5.33301 -34.667 8 -50 8c-22 0 -38.5 -6.83301 -49.5 -20.5s-19.5 -37.834 -25.5 -72.501l-11 -64h82l-12 -70h-83l-60 -339c-15.333 -84 -43.166 -144.5 -83.499 -181.5s-94.5 -55.5 -162.5 -55.5zM222.998 -126.998c25.333 3.33301 45.3311 13.168 59.998 29.501
s25.334 43.5 32.001 81.5l60 340c0.666992 4 1 7.66699 1 11c0 8.66699 -2.83301 14.667 -8.5 18s-15.167 5 -28.5 5h-15l12 66h57l8 48c23.333 136 88 204 194 204c29.333 0 56 -4.33301 80 -13l-15 -90c-18 5.33301 -34.667 8 -50 8c-22 0 -38.5 -6.83301 -49.5 -20.5
s-19.5 -37.834 -25.5 -72.501l-11 -64h82l-12 -70h-83l-60 -339c-15.333 -84 -43.166 -144.5 -83.499 -181.5s-94.5 -55.5 -162.5 -55.5z" />
    <glyph glyph-name="r_f.liga" unicode="rf" horiz-adv-x="610" 
d="M712 663l-14.998 -89.999c-18 5.33301 -34.667 8 -50 8c-22 0 -38.5 -6.83301 -49.5 -20.5s-19.5 -37.834 -25.5 -72.501l-12 -64h83l-12 -70h-83l-61 -335c-15.333 -86 -43.333 -147.667 -84 -185s-95 -56 -163 -56l18 95c25.333 3.33301 45.166 13.166 59.499 29.499
s25.166 44.5 32.499 84.5l88 485c12.667 68.667 35 119.834 67 153.501s74.333 50.5 127 50.5c29.333 0 56 -4.33301 80 -13zM164.002 85.001l-14.998 -85h-130l74 424h130l-14 -84c13.333 34 31.666 59 54.999 75s47.333 24 72 24c20 0 37 -3.33301 51 -10l-21 -112
c-13.333 8.66699 -30 13 -50 13c-72.667 0 -123.334 -81.667 -152.001 -245z" />
    <glyph glyph-name="r_t.liga" unicode="rt" horiz-adv-x="619" 
d="M511 149c-0.666992 -5.33301 -2 -12.667 -4 -22s-3 -17.333 -3 -24c0 -16.667 9.66699 -25 29 -25c10 0 24.333 1.66699 43 5l15 -69c-38.667 -17.333 -76 -26 -112 -26c-68 0 -102 33.333 -102 100c0 12.667 1.66699 29 5 49l71 414h129l-22 -127h75l-12 -70h-76z
M388 428.999l-19.998 -112c-14.667 8.66699 -32 13 -52 13c-72.667 0 -123.334 -81.667 -152.001 -245l-15 -85h-130l74 424h130l-14 -84c13.333 34 31.666 59 54.999 75s47.333 24 72 24c20 0 37.333 -3.33301 52 -10z" />
    <glyph glyph-name=".notdef" horiz-adv-x="735" 
d="M83 13.5c-6.66699 9 -9.00098 19.832 -7.00098 32.499l101 578c2.66699 12.667 8.83398 23.334 18.501 32.001s20.834 13 33.501 13h394c10.667 0 19.5 -3.5 26.5 -10.5s10.5 -15.5 10.5 -25.5c0 -4 -0.333008 -7 -1 -9l-101 -578c-2 -12.667 -8.16699 -23.5 -18.5 -32.5
s-21.5 -13.5 -33.5 -13.5h-394c-12.667 0 -22.334 4.5 -29.001 13.5zM581.999 617.999h-328l120 -248zM342.999 334.999l-122 256l-89 -511zM604.999 589.999l-214 -255l125 -256zM480.999 50.999l-119 248l-207 -248h326z" />
    <glyph glyph-name="nonmarkingreturn" unicode="&#xd;" horiz-adv-x="170" 
 />
    <glyph glyph-name="space" unicode=" " horiz-adv-x="184" 
 />
    <glyph glyph-name="exclam" unicode="!" horiz-adv-x="265" 
d="M91 225c7.33301 41.333 12.332 83.168 14.999 125.501s4.33398 89.166 5.00098 140.499c1.33301 50 3 81.667 5 95c4.66699 27.333 14.5 49.666 29.5 66.999s35.167 26 60.5 26c23.333 0 41.5 -8.5 54.5 -25.5s19.5 -37.5 19.5 -61.5c0 -4.66699 -0.666992 -11 -2 -19
c-2.66699 -13.333 -13.667 -49.333 -33 -108c-18 -53.333 -32.333 -97.666 -43 -132.999s-20 -71 -28 -107l-3 -20h-83zM51.999 6.00195c-12.667 14 -18.999 31.333 -18.999 52c0 23.333 7.5 43 22.5 59s33.5 24 55.5 24c18.667 0 34.167 -7 46.5 -21s18.5 -31.333 18.5 -52
c0 -23.333 -7.5 -43 -22.5 -59s-33.167 -24 -54.5 -24c-18.667 0 -34.334 7 -47.001 21z" />
    <glyph glyph-name="quotedbl" unicode="&#x22;" horiz-adv-x="266" 
d="M116 669h90l-80 -245h-60zM236 669h90l-80 -245h-60z" />
    <glyph glyph-name="numbersign" unicode="#" horiz-adv-x="587" 
d="M166 208h-121l16 46h121l53 164h-122l14 46h123l57 177h50l-58 -177h123l57 177h50l-58 -177h114l-15 -46h-114l-52 -164h114l-16 -46h-114l-57 -176h-49l56 176h-122l-57 -176h-49zM354 254l53 164h-123l-52 -164h122z" />
    <glyph glyph-name="dollar" unicode="$" horiz-adv-x="531" 
d="M264.5 560c-20.333 -14 -30.502 -33.6641 -30.502 -58.9971c0 -20 8.33301 -38.167 25 -54.5s42.334 -36.5 77.001 -60.5c32.667 -22.667 58.834 -42.5 78.501 -59.5s36.667 -37.5 51 -61.5s21.5 -51 21.5 -81c0 -58.667 -19.5 -104.334 -58.5 -137.001
s-90.833 -52 -155.5 -58l-23 -130h-108l24 133c-48.667 8 -95 25 -139 51l20 112c25.333 -20 53.833 -34.833 85.5 -44.5s62.167 -14.5 91.5 -14.5c74 0 111 26 111 78c0 24 -8.5 45 -25.5 63s-42.833 39.333 -77.5 64c-30 21.333 -54 40.166 -72 56.499
s-33.5 36.166 -46.5 59.499s-19.5 50 -19.5 80c0 52.667 18 94.667 54 126s82.333 50.333 139 57l29 167l101 -40l-23 -131c41.333 -7.33301 79.333 -21.333 114 -42l-18 -99c-18 13.333 -41.333 24.333 -70 33s-56 13 -82 13c-28.667 0 -53.167 -7 -73.5 -21z" />
    <glyph glyph-name="percent" unicode="%" horiz-adv-x="770" 
d="M677 704h45l-627 -749h-45zM101 327c-21.333 25.333 -32.001 59.667 -32.001 103c0 15.333 1.66699 33 5 53c10 57.333 31.5 104 64.5 140s74.5 54 124.5 54c42.667 0 74.667 -13 96 -39s32 -60.333 32 -103c0 -14.667 -1.66699 -32 -5 -52
c-10 -56.667 -31.833 -103.167 -65.5 -139.5s-75.5 -54.5 -125.5 -54.5c-41.333 0 -72.666 12.667 -93.999 38zM252.999 389.501c12 17 21.998 48.167 29.998 93.5c4.66699 26 7 48.333 7 67c0 20 -3.16699 34 -9.5 42s-16.5 12 -30.5 12
c-19.333 0 -34.666 -8.5 -45.999 -25.5s-21 -48.833 -29 -95.5c-4 -24 -6 -44 -6 -60c0 -20.667 3.33301 -35.667 10 -45s16.334 -14 29.001 -14c18 0 33 8.5 45 25.5zM454.497 38.501c-21 25 -31.499 59.167 -31.499 102.5c0 14.667 1.66699 32.667 5 54
c10 57.333 31.5 104 64.5 140s74.5 54 124.5 54c42 0 73.833 -13 95.5 -39s32.5 -60.667 32.5 -104c0 -14 -1.66699 -31 -5 -51c-10.667 -56.667 -32.834 -103.167 -66.501 -139.5s-75.5 -54.5 -125.5 -54.5c-41.333 0 -72.5 12.5 -93.5 37.5zM606.998 101.501
c12 17 21.998 48.167 29.998 93.5c4.66699 26 7 48.333 7 67c0 20 -3.16699 34 -9.5 42s-16.5 12 -30.5 12c-19.333 0 -34.666 -8.66699 -45.999 -26s-21 -49 -29 -95c-4 -24 -6 -44 -6 -60c0 -20.667 3.33301 -35.667 10 -45s16.334 -14 29.001 -14c18 0 33 8.5 45 25.5z
" />
    <glyph glyph-name="ampersand" unicode="&#x26;" horiz-adv-x="582" 
d="M72 27.5c-36.667 26.333 -55.001 64.833 -55.001 115.5c0 13.333 1.33301 26.333 4 39c7.33301 38 24 71.833 50 101.5s60.333 47.834 103 54.501c-27.333 5.33301 -47.5 18 -60.5 38s-19.5 43.333 -19.5 70c0 11.333 1 22 3 32c8 42.667 30.333 78.334 67 107.001
s86 43 148 43c24.667 0 50.167 -2.33301 76.5 -7s50.5 -11.334 72.5 -20.001l-18 -103c-14 8.66699 -31 15.334 -51 20.001s-39.333 7 -58 7c-31.333 0 -58 -7 -80 -21s-33 -34.333 -33 -61c0 -17.333 5.66699 -31.666 17 -42.999s28 -17 50 -17l-17 -96
c-24 0 -44.5 -5.83301 -61.5 -17.5s-30 -26.667 -39 -45s-13.5 -37.166 -13.5 -56.499c0 -24.667 7.83301 -43.834 23.5 -57.501s35.5 -20.5 59.5 -20.5c28.667 0 55.667 9.16699 81 27.5s40.666 43.166 45.999 74.499c-7.33301 -1.33301 -19.166 -5.5 -35.499 -12.5
s-29.166 -14.167 -38.499 -21.5l-27 88c29.333 17.333 54.833 29.166 76.5 35.499s46.834 11.166 75.501 14.499c30.667 4 56.667 9.83301 78 17.5s45.666 23.834 72.999 48.501l38 -77c-14.667 -17.333 -33.167 -32.333 -55.5 -45s-44.5 -20.667 -66.5 -24
c-15.333 -72.667 -47.666 -128.834 -96.999 -168.501s-110 -59.5 -182 -59.5c-52.667 0 -97.334 13.167 -134.001 39.5z" />
    <glyph glyph-name="quotesingle" unicode="'" horiz-adv-x="146" 
d="M116 669h90l-80 -245h-60z" />
    <glyph glyph-name="parenleft" unicode="(" horiz-adv-x="271" 
d="M65 -105.5c-20.667 57.667 -30.999 128.5 -30.999 212.5c0 47.333 5 98.333 15 153c29.333 161.333 104.666 306 225.999 434l54 -36c-58.667 -67.333 -104.5 -136.333 -137.5 -207s-56.5 -144.334 -70.5 -221.001c-8.66699 -50.667 -13 -96 -13 -136
c0 -101.333 23.667 -199 71 -293l-56 -33c-18 26.667 -37.333 68.834 -58 126.501z" />
    <glyph glyph-name="parenright" unicode=")" horiz-adv-x="271" 
d="M212 564.5c20.667 -57.667 30.999 -128.5 30.999 -212.5c0 -46.667 -5 -97.667 -15 -153c-29.333 -161.333 -104.666 -306 -225.999 -434l-54 36c58.667 67.333 104.5 136.333 137.5 207s56.5 144.334 70.5 221.001c8.66699 50.667 13 96 13 136
c0 101.333 -23.667 199 -71 293l56 33c18 -26.667 37.333 -68.834 58 -126.501z" />
    <glyph glyph-name="asterisk" unicode="*" horiz-adv-x="406" 
d="M276.5 392.5c-9.66699 12.333 -14.5029 26.166 -14.5029 41.499l1 13v14c0 14.667 -2.66699 29 -8 43c-7.33301 -10 -12.666 -18.667 -15.999 -26s-6.33301 -16 -9 -26c-3.33301 -16.667 -10 -30 -20 -40c-10.667 -10.667 -22.667 -16 -36 -16
c-12 0 -22.667 4.66699 -32 14s-14 20.333 -14 33c0 14 5 26 15 36s23.333 17 40 21c11.333 3.33301 20.5 6.5 27.5 9.5s15.167 7.83301 24.5 14.5c-14 5.33301 -29 8 -45 8c-8 0 -13.667 -0.166992 -17 -0.5s-5.66602 -0.5 -6.99902 -0.5c-14.667 0 -28.5 4.5 -41.5 13.5
s-19.5 21.167 -19.5 36.5c0 12 4.66699 23 14 33s20.666 15 33.999 15c14 0 24.833 -3 32.5 -9s15.167 -15 22.5 -27c5.33301 -9.33301 10.833 -17.666 16.5 -24.999s13.5 -14 23.5 -20v6c0 16.667 -3.66699 33.667 -11 51c-0.666992 1.33301 -2.16699 5.66602 -4.5 12.999
s-3.5 14.333 -3.5 21c0 13.333 4.33301 25.5 13 36.5s20 16.5 34 16.5s25.667 -4.5 35 -13.5s14 -20.5 14 -34.5c0 -10.667 -1.83301 -19.5 -5.5 -26.5s-9.16699 -14.5 -16.5 -22.5c-6.66699 -8 -12.167 -15.5 -16.5 -22.5s-8.16602 -16.167 -11.499 -27.5
c11.333 2.66699 21 6.33398 29 11.001s16.333 10.667 25 18c8 6.66699 15.167 11.667 21.5 15s13.833 5 22.5 5c12.667 0 24.334 -4.5 35.001 -13.5s16 -20.5 16 -34.5c0 -13.333 -5.33301 -24.666 -16 -33.999s-23.667 -14 -39 -14c-9.33301 0 -20.666 3 -33.999 9
c-12 4 -22 6.66699 -30 8s-14.333 2 -19 2h-6c11.333 -16 25.333 -29.333 42 -40c7.33301 -4.66699 13.5 -9.16699 18.5 -13.5s9.5 -10.5 13.5 -18.5c4 -6 6 -13.667 6 -23c0 -12.667 -4.5 -23.834 -13.5 -33.501s-20.167 -14.5 -33.5 -14.5
c-14.667 0 -26.834 6.16699 -36.501 18.5z" />
    <glyph glyph-name="plus" unicode="+" horiz-adv-x="477" 
d="M215 206h-189l7 47h190l34 194h47l-35 -194h187l-7 -47h-188l-34 -195h-47z" />
    <glyph glyph-name="comma" unicode="," horiz-adv-x="235" 
d="M-14 -123c27.333 12.667 51.3359 30 72.0029 52s32.334 42.667 35.001 62c-6.66699 -4 -15 -6 -25 -6c-16.667 0 -30.334 6 -41.001 18s-16 27.333 -16 46c0 22.667 8.16699 42 24.5 58s35.5 24 57.5 24c25.333 0 45.666 -9 60.999 -27s23 -41.333 23 -70
s-8.33301 -57 -25 -85s-38.334 -53 -65.001 -75s-54.334 -38 -83.001 -48z" />
    <glyph glyph-name="hyphen" unicode="-" horiz-adv-x="266" 
d="M37 274h211l-12 -79h-211z" />
    <glyph glyph-name="period" unicode="." horiz-adv-x="224" 
d="M33 6c-12.667 14 -18.999 31.333 -18.999 52c0 23.333 7.5 43 22.5 59s33.5 24 55.5 24c18.667 0 34.167 -7 46.5 -21s18.5 -31.333 18.5 -52c0 -23.333 -7.5 -43 -22.5 -59s-33.167 -24 -54.5 -24c-18.667 0 -34.334 7 -47.001 21z" />
    <glyph glyph-name="slash" unicode="/" horiz-adv-x="394" 
d="M403 704h55l-415 -749h-55z" />
    <glyph glyph-name="zero" unicode="0" horiz-adv-x="521" 
d="M95.5 47c-31 40 -46.499 95.335 -46.499 166.002c0 36 4 75 12 117c15.333 91.333 44.833 163.5 88.5 216.5s99.834 79.5 168.501 79.5c64 0 111.167 -19.833 141.5 -59.5s45.5 -95.167 45.5 -166.5c0 -34.667 -3.66699 -73.334 -11 -116.001
c-14.667 -90.667 -43.834 -162.834 -87.501 -216.501s-99.834 -80.5 -168.501 -80.5c-64 0 -111.5 20 -142.5 60zM293.001 114.502c14 11.667 26.499 32.5029 37.499 62.5029s21.167 73.333 30.5 130c10 54 15 96 15 126c0 32.667 -5.16699 55.167 -15.5 67.5
s-26.166 18.5 -47.499 18.5c-20 0 -36.833 -5.83301 -50.5 -17.5s-26 -32.834 -37 -63.501s-21.5 -74.334 -31.5 -131.001c-10 -54.667 -15 -97.334 -15 -128.001c0 -29.333 5 -50.333 15 -63s26 -19 48 -19c20 0 37 5.83301 51 17.5z" />
    <glyph glyph-name="one" unicode="1" horiz-adv-x="326" 
d="M167 513l-130 1l15 76l269 28l-108 -618h-135z" />
    <glyph glyph-name="two" unicode="2" horiz-adv-x="425" 
d="M-3 109l53.0029 43.002c57.333 46 102.166 83.5 134.499 112.5s59 58.5 80 88.5s31.5 59 31.5 87c0 26.667 -8.83301 46.667 -26.5 60s-41.834 20 -72.501 20c-36.667 0 -74.667 -11.667 -114 -35l22 116c42.667 16.667 85.667 25 129 25c38 0 71.667 -8 101 -24
s52.166 -37.667 68.499 -65s24.5 -57.333 24.5 -90c0 -14.667 -1.33301 -27.667 -4 -39c-8 -38 -22.667 -72.333 -44 -103s-47.833 -59.834 -79.5 -87.501s-76.167 -62.834 -133.5 -105.501h210l-19 -112h-378z" />
    <glyph glyph-name="three" unicode="3" horiz-adv-x="446" 
d="M-1 29l21.001 123.998c44 -36.667 91 -55 141 -55c34.667 0 63 9 85 27s33 42.667 33 74c0 52.667 -47.667 83.334 -143 92.001h3l17 93l19 -1c32.667 0 61 4.83301 85 14.5s38.667 24.834 44 45.501c2 7.33301 3 13.666 3 18.999c0 18 -8 31.667 -24 41
s-39.667 14 -71 14c-40 0 -81.667 -10 -125 -30l20 112c48 19.333 96 29 144 29c42 0 76.833 -7.33301 104.5 -22s48 -33.5 61 -56.5s19.5 -47.167 19.5 -72.5c0 -37.333 -10.833 -69.333 -32.5 -96s-48.167 -44 -79.5 -52c28 -14.667 49 -34.667 63 -60s21 -53.333 21 -84
c0 -15.333 -1.33301 -28.666 -4 -39.999c-10 -46.667 -35.333 -84.667 -76 -114s-96.667 -44 -168 -44c-54.667 0 -108.334 14 -161.001 42z" />
    <glyph glyph-name="four" unicode="4" horiz-adv-x="495" 
d="M286 149l-287 1l9 52l219 414h137l-201 -367h140l30 168l134 41l-79 -457h-128z" />
    <glyph glyph-name="five" unicode="5" horiz-adv-x="462" 
d="M90 -2c-27.333 6.66699 -52.998 16.668 -76.998 30.001l20 113c44 -27.333 92.667 -41 146 -41c36.667 0 65 11.5 85 34.5s30 50.167 30 81.5c0 27.333 -8.83301 49.166 -26.5 65.499s-40.834 24.5 -69.501 24.5c-25.333 0 -58 -6 -98 -18l-35 19l88 309h324l-19 -110
l-211 1l-31 -114c9.33301 0.666992 23.666 1 42.999 1c31.333 0 59.5 -7.33301 84.5 -22s44.833 -35.167 59.5 -61.5s22 -56.166 22 -89.499c0 -13.333 -1.66699 -29 -5 -47c-12.667 -62.667 -39.167 -109.334 -79.5 -140.001s-91.833 -46 -154.5 -46
c-36.667 0 -68.667 3.33301 -96 10z" />
    <glyph glyph-name="six" unicode="6" horiz-adv-x="480" 
d="M89 47.5c-33.333 39.667 -50.001 91.4971 -50.001 155.497c0 31.333 4 64 12 98c14.667 54.667 39.167 106.334 73.5 155.001s78 89.834 131 123.501s112.833 54.167 179.5 61.5l-21 -114c-40.667 -8 -79.667 -24.833 -117 -50.5s-63 -54.167 -77 -85.5
c19.333 8 44.333 12 75 12c45.333 0 82 -17.167 110 -51.5s42 -78.166 42 -131.499c0 -18.667 -2 -38 -6 -58c-7.33301 -32 -21.5 -61.333 -42.5 -88s-46 -47.667 -75 -63s-58.833 -23 -89.5 -23c-63.333 0 -111.666 19.833 -144.999 59.5zM280.499 115.497
c17 19 28.832 42.501 35.499 70.501c2.66699 12.667 4 25.667 4 39c0 26 -5.83301 47.167 -17.5 63.5s-26.5 24.5 -44.5 24.5s-35.667 -9.33301 -53 -28s-29.333 -41.667 -36 -69c-2.66699 -12.667 -4 -25.667 -4 -39c0 -26.667 5.83301 -48.334 17.5 -65.001
s26.834 -25 45.501 -25c18 0 35.5 9.5 52.5 28.5z" />
    <glyph glyph-name="seven" unicode="7" horiz-adv-x="383" 
d="M274 505h-223l22 110h381l-8 -42l-309 -573h-154z" />
    <glyph glyph-name="eight" unicode="8" horiz-adv-x="475" 
d="M74 29c-38.667 28 -58.002 66.6631 -58.002 115.996c0 13.333 1.33301 26.333 4 39c6 28.667 16.667 52.334 32 71.001s32 33.334 50 44.001s41.667 22 71 34c-21.333 15.333 -39.166 35.5 -53.499 60.5s-21.5 50.833 -21.5 77.5c0 9.33301 1 18.333 3 27
c8.66699 43.333 32.167 75.666 70.5 96.999s80.5 32 126.5 32c30.667 0 59.334 -5.83301 86.001 -17.5s47.834 -28 63.501 -49s23.5 -45.167 23.5 -72.5c0 -9.33301 -1 -19 -3 -29c-8 -38.667 -22.5 -67.667 -43.5 -87s-49.167 -35.333 -84.5 -48
c28 -19.333 51.5 -42.666 70.5 -69.999s28.5 -57.666 28.5 -90.999c0 -9.33301 -1 -19.666 -3 -30.999c-9.33301 -48.667 -33.833 -85 -73.5 -109s-87.834 -36 -144.501 -36c-57.333 0 -105.333 14 -144 42zM324.498 407.496c11.667 13.667 20.165 30.5 25.498 50.5
c1.33301 8 2 14 2 18c0 20 -6 34.833 -18 44.5s-25.667 14.5 -41 14.5c-13.333 0 -26.5 -4.83301 -39.5 -14.5s-21.833 -24.167 -26.5 -43.5c-1.33301 -8 -2 -14.333 -2 -19c0 -18 4.83301 -34.5 14.5 -49.5s22.834 -27.833 39.501 -38.5
c18.667 11.333 33.834 23.833 45.501 37.5zM269.496 95.9961c14.333 12 24.833 33 31.5 63c1.33301 9.33301 2 16.333 2 21c0 41.333 -24 77 -72 107c-42 -28 -68.667 -62.667 -80 -104c-2.66699 -14.667 -4 -25 -4 -31c0 -23.333 6.66699 -41.5 20 -54.5
s30.333 -19.5 51 -19.5c20 0 37.167 6 51.5 18z" />
    <glyph glyph-name="nine" unicode="9" horiz-adv-x="481" 
d="M102 103c40.667 8 79.667 24.502 117 49.502s63 53.5 77 85.5c-19.333 -8 -44.333 -12 -75 -12c-45.333 0 -82 17.167 -110 51.5s-42 78.166 -42 131.499c0 18.667 2 38 6 58c7.33301 32.667 21.5 62.167 42.5 88.5s46 47.166 75 62.499s58.833 23 89.5 23
c63.333 0 111.666 -19.833 144.999 -59.5s50 -91.5 50 -155.5c0 -31.333 -4 -64 -12 -98c-14 -54 -38.167 -105.5 -72.5 -154.5s-78.166 -90.167 -131.499 -123.5s-113.333 -54 -180 -62zM311.5 344.002c17.667 18.667 29.833 41.667 36.5 69c2.66699 11.333 4 24 4 38
c0 26.667 -6 48.5 -18 65.5s-27.333 25.5 -46 25.5c-18 0 -35.5 -9.5 -52.5 -28.5s-28.833 -42.5 -35.5 -70.5c-2.66699 -11.333 -4 -24 -4 -38c0 -26.667 5.83301 -48.167 17.5 -64.5s26.5 -24.5 44.5 -24.5s35.833 9.33301 53.5 28z" />
    <glyph glyph-name="colon" unicode=":" horiz-adv-x="236" 
d="M39 6c-12.667 14 -18.999 31.333 -18.999 52c0 23.333 7.5 43 22.5 59s33.5 24 55.5 24c18.667 0 34.167 -7 46.5 -21s18.5 -31.333 18.5 -52c0 -23.333 -7.5 -43 -22.5 -59s-33.167 -24 -54.5 -24c-18.667 0 -34.334 7 -47.001 21zM93.001 311
c-12.667 14 -18.999 31.333 -18.999 52c0 23.333 7.5 43 22.5 59s33.5 24 55.5 24c18.667 0 34.167 -7 46.5 -21s18.5 -31.333 18.5 -52c0 -23.333 -7.5 -43 -22.5 -59s-33.167 -24 -54.5 -24c-18.667 0 -34.334 7 -47.001 21z" />
    <glyph glyph-name="semicolon" unicode=";" horiz-adv-x="235" 
d="M95 311c-12.667 14 -18.999 31.333 -18.999 52c0 23.333 7.5 43 22.5 59s33.5 24 55.5 24c18.667 0 34.167 -7 46.5 -21s18.5 -31.333 18.5 -52c0 -23.333 -7.5 -43 -22.5 -59s-33.167 -24 -54.5 -24c-18.667 0 -34.334 7 -47.001 21zM-13.999 -123
c27.333 12.667 51.3359 30 72.0029 52s32.334 42.667 35.001 62c-6.66699 -4 -15 -6 -25 -6c-16.667 0 -30.334 6 -41.001 18s-16 27.333 -16 46c0 22.667 8.16699 42 24.5 58s35.5 24 57.5 24c25.333 0 45.666 -9 60.999 -27s23 -41.333 23 -70s-8.33301 -57 -25 -85
s-38.334 -53 -65.001 -75s-54.334 -38 -83.001 -48z" />
    <glyph glyph-name="less" unicode="&#x3c;" horiz-adv-x="381" 
d="M41 202c-8 6.66699 -12 14.001 -12 22.001c0 13.333 7.33301 24.666 22 33.999l320 203l20 -40l-300 -191l231 -192l-34 -41z" />
    <glyph glyph-name="equal" unicode="=" horiz-adv-x="458" 
d="M44 312h403l-7 -46h-404zM23 192h403l-7 -46h-404z" />
    <glyph glyph-name="greater" unicode="&#x3e;" horiz-adv-x="382" 
d="M-3 38l300 192l-234 191l33 40l251 -203c7.33301 -7.33301 11 -15.333 11 -24c0 -12 -7 -22.667 -21 -32l-319 -205z" />
    <glyph glyph-name="question" unicode="?" horiz-adv-x="405" 
d="M104 224c6.66699 48 19.666 86.6689 38.999 116.002s45 59.333 77 90c18.667 18.667 32.667 34.167 42 46.5s15.666 25.5 18.999 39.5c0.666992 3.33301 1 7.66602 1 12.999c0 16.667 -6.5 29 -19.5 37s-30.167 12 -51.5 12c-37.333 0 -78.333 -12 -123 -36l18 105
c24.667 11.333 48.834 20 72.501 26s49.834 9 78.501 9c30.667 0 59 -5.83301 85 -17.5s46.833 -28.167 62.5 -49.5s23.5 -46.333 23.5 -75c0 -10.667 -1 -21.667 -3 -33c-5.33301 -25.333 -15.5 -46.833 -30.5 -64.5s-30.5 -33.167 -46.5 -46.5l-31 -26
c-36.667 -31.333 -63 -59.333 -79 -84s-26.333 -55.334 -31 -92.001h-107zM87.999 6.00195c-12.667 14 -18.999 31.333 -18.999 52c0 23.333 7.5 43 22.5 59s33.5 24 55.5 24c18.667 0 34.167 -7 46.5 -21s18.5 -31.333 18.5 -52c0 -23.333 -7.5 -43 -22.5 -59
s-33.167 -24 -54.5 -24c-18.667 0 -34.334 7 -47.001 21z" />
    <glyph glyph-name="at" unicode="@" horiz-adv-x="809" 
d="M643.5 633.5c47.667 -24.333 84.833 -57.8369 111.5 -100.504s40 -90 40 -142c0 -23.333 -2.33301 -45.333 -7 -66c-11.333 -52.667 -32 -96.167 -62 -130.5s-61.833 -59.5 -95.5 -75.5s-61.5 -24 -83.5 -24s-41.333 5.5 -58 16.5s-26.334 28.833 -29.001 53.5
c-15.333 -22.667 -34.166 -40 -56.499 -52s-45.5 -18 -69.5 -18c-46 0 -80.333 18.333 -103 55s-34 81.334 -34 134.001c0 18 1.66699 37.667 5 59c10.667 62 32.834 112 66.501 150s76.167 57 127.5 57c27.333 0 50.666 -6.83301 69.999 -20.5s32.333 -32.834 39 -57.501
l11 60h128l-49 -284c-2.66699 -14 -4 -26 -4 -36c0 -12 1 -19.667 3 -23s6 -5 12 -5c16 0 34.167 6.83301 54.5 20.5s38.666 31.334 54.999 53.001s26.833 44.167 31.5 67.5c4 20 6 39.667 6 59c0 47.333 -11.833 90 -35.5 128s-56.667 67.833 -99 89.5
s-90.166 32.5 -143.499 32.5c-61.333 0 -118 -11.667 -170 -35s-95.667 -56.166 -131 -98.499s-59 -90.833 -71 -145.5c-5.33301 -23.333 -8 -48.666 -8 -75.999c0 -48 10 -92 30 -132s49.833 -71.833 89.5 -95.5s87.5 -35.5 143.5 -35.5v-36
c-64.667 0 -119.667 13.333 -165 40s-79.333 62.334 -102 107.001s-34 94.334 -34 149.001c0 24 2.66699 50.333 8 79c12.667 65.333 38.667 121.666 78 168.999s88.333 83.5 147 108.5s122.667 37.5 192 37.5c60 0 113.833 -12.167 161.5 -36.5zM484.999 353.996
c0 27.333 -5.33105 50.167 -15.998 68.5s-25 27.5 -43 27.5c-23.333 0 -43.333 -10.833 -60 -32.5s-28 -51.5 -34 -89.5c-2 -12.667 -3 -24.667 -3 -36c0 -28 5.16699 -50.667 15.5 -68s23.166 -26 38.499 -26c22 0 42.667 12 62 36s31.666 52 36.999 84c2 12 3 24 3 36z
" />
    <glyph glyph-name="A" unicode="A" horiz-adv-x="573" 
d="M372 157h-188l-67 -157h-147l308 669h174l77 -669h-146zM366 249l-19 280h-5l-119 -280h143z" />
    <glyph glyph-name="B" unicode="B" horiz-adv-x="592" 
d="M167 669l193 0.00195312c66.667 0 119.667 -13 159 -39s59 -63 59 -111c0 -38 -11.5 -71.5 -34.5 -100.5s-54.5 -52.167 -94.5 -69.5v-2c32 -12.667 57.667 -31.834 77 -57.501s29 -55.167 29 -88.5c0 -68.667 -25 -119.334 -75 -152.001s-117.333 -49 -202 -49h-226z
M319 395.002c39.333 0 68.667 9.83301 88 29.5s29 46.5 29 80.5c0 46 -26 69 -78 69h-62l-31 -179h54zM273.001 105.002c47.333 0 83.5 8.66699 108.5 26s37.5 46.333 37.5 87c0 26 -9.83301 46.667 -29.5 62s-49.5 23 -89.5 23h-51l-35 -198h59z" />
    <glyph glyph-name="C" unicode="C" horiz-adv-x="570" 
d="M192.5 27.5c-43.667 26.333 -76.5 62.667 -98.5 109s-33 99.166 -33 158.499c0 76 13.5 143.167 40.5 201.5s66.5 103.833 118.5 136.5s114 49 186 49c28.667 0 59.167 -3.83301 91.5 -11.5s59.5 -17.5 81.5 -29.5l-19 -109c-21.333 12.667 -45.833 22.834 -73.5 30.501
s-54.167 11.5 -79.5 11.5c-66 0 -115 -27.5 -147 -82.5s-48 -122.5 -48 -202.5c0 -62 15.333 -109 46 -141s71 -48 121 -48c26 0 48.833 1.66699 68.5 5s40.167 9 61.5 17l-18 -113c-37.333 -14 -83.666 -21 -138.999 -21c-62.667 0 -115.834 13.167 -159.501 39.5z" />
    <glyph glyph-name="D" unicode="D" 
d="M167 669h158c68 0 124.833 -12.667 170.5 -38s79.667 -59.833 102 -103.5s33.5 -93.167 33.5 -148.5c0 -122 -35 -215.667 -105 -281s-170 -98 -300 -98h-176zM258 105c74.667 0 131.5 26.168 170.5 78.501s58.5 121.166 58.5 206.499c0 122.667 -58 184 -174 184h-18
l-82 -469h45z" />
    <glyph glyph-name="E" unicode="E" horiz-adv-x="551" 
d="M294 574l-31 -179h198l-15 -92h-199l-35 -198h285l-20 -105h-427l117 669h415l-17 -95h-271z" />
    <glyph glyph-name="F" unicode="F" horiz-adv-x="497" 
d="M296 574l-32 -181h199l-17 -94h-198l-52 -299h-144l115 669h407l-17 -95h-261z" />
    <glyph glyph-name="G" unicode="G" horiz-adv-x="650" 
d="M184.5 26c-41 25.333 -72.001 60.332 -93.001 104.999s-31.5 96 -31.5 154c0 77.333 13.5 146 40.5 206s66.5 106.833 118.5 140.5s114.333 50.5 187 50.5c28.667 0 59.167 -3.83301 91.5 -11.5s59.5 -17.5 81.5 -29.5l-19 -109c-21.333 12.667 -46 22.834 -74 30.501
s-54.667 11.5 -80 11.5c-67.333 0 -117.333 -28.333 -150 -85s-49 -126 -49 -208c0 -60 13.5 -105.167 40.5 -135.5s60.833 -45.5 101.5 -45.5c18 0 33.833 2.33301 47.5 7s24.834 11 33.501 19l28 157h-75l16 91h214l-56 -313c-58.667 -48.667 -133.667 -73 -225 -73
c-57.333 0 -106.5 12.667 -147.5 38z" />
    <glyph glyph-name="H" unicode="H" horiz-adv-x="679" 
d="M672 669l-117 -669h-145l51 297h-215l-52 -297h-144l117 669h144l-49 -279h216l48 279h146z" />
    <glyph glyph-name="I" unicode="I" horiz-adv-x="318" 
d="M167 669h144l-117 -669h-144z" />
    <glyph glyph-name="J" unicode="J" horiz-adv-x="403" 
d="M-23 16l17.999 109.999c16.667 -9.33301 32 -16.333 46 -21s30 -7 48 -7c22 0 40 6.83301 54 20.5s24 37.834 30 72.501l81 478h144l-87 -498c-11.333 -63.333 -35.666 -109.833 -72.999 -139.5s-80 -44.5 -128 -44.5c-48.667 0 -93 9.66699 -133 29z" />
    <glyph glyph-name="K" unicode="K" horiz-adv-x="619" 
d="M403 350l179 -350h-153l-173 346l-60 -346h-144l115 669h145l-51 -299l227 299h163z" />
    <glyph glyph-name="L" unicode="L" horiz-adv-x="507" 
d="M460 105l-19 -105h-391l117 669h144l-99 -564h248z" />
    <glyph glyph-name="M" unicode="M" horiz-adv-x="819" 
d="M812 669l-118 -669h-134l98 555l-226 -555h-119l-35 545l-96 -545h-132l117 669h210l27 -482l191 482h217z" />
    <glyph glyph-name="N" unicode="N" horiz-adv-x="683" 
d="M676 669l-118 -669h-170l-120 498l-88 -498h-130l117 669h170l123 -491l85 491h131z" />
    <glyph glyph-name="O" unicode="O" 
d="M119.5 62.5c-41.667 50.333 -62.502 116.834 -62.502 199.501c0 73.333 13.333 142.166 40 206.499s64.834 116 114.501 155s107.834 58.5 174.501 58.5c80 0 141.333 -24.833 184 -74.5s64 -115.834 64 -198.501c0 -75.333 -13.5 -145.166 -40.5 -209.499
s-66 -115.833 -117 -154.5s-110.5 -58 -178.5 -58c-77.333 0 -136.833 25.167 -178.5 75.5zM406.498 148.001c27.667 34 48.3311 77.332 61.998 129.999s20.5 106.667 20.5 162c0 44.667 -8.5 78.334 -25.5 101.001s-43.833 34 -80.5 34
c-39.333 0 -72.666 -17.333 -99.999 -52s-47.666 -78.5 -60.999 -131.5s-20 -106.5 -20 -160.5c0 -44.667 8.16699 -78.167 24.5 -100.5s42.166 -33.5 77.499 -33.5c40.667 0 74.834 17 102.501 51z" />
    <glyph glyph-name="P" unicode="P" horiz-adv-x="545" 
d="M524.5 621.5c35 -31.667 52.5 -72.833 52.5 -123.5c0 -157.333 -98.333 -236 -295 -236h-41l-46 -262h-145l117 669h196c72.667 0 126.5 -15.833 161.5 -47.5zM394.5 386.501c27 21 40.5 55.167 40.5 102.5c0 26 -8.66699 46.667 -26 62s-45 23 -83 23h-31l-38 -219h18
c52.667 0 92.5 10.5 119.5 31.5z" />
    <glyph glyph-name="Q" unicode="Q" 
d="M119.5 62.5c-41.667 50.333 -62.502 116.834 -62.502 199.501c0 73.333 13.333 142.166 40 206.499s64.834 116 114.501 155s107.834 58.5 174.501 58.5c80 0 141.333 -24.833 184 -74.5s64 -115.834 64 -198.501c0 -75.333 -13.5 -145.166 -40.5 -209.499
s-66 -115.833 -117 -154.5s-110.5 -58 -178.5 -58c-77.333 0 -136.833 25.167 -178.5 75.5zM406.498 148.001c27.667 34 48.3311 77.332 61.998 129.999s20.5 106.667 20.5 162c0 44.667 -8.5 78.334 -25.5 101.001s-43.833 34 -80.5 34
c-39.333 0 -72.666 -17.333 -99.999 -52s-47.666 -78.5 -60.999 -131.5s-20 -106.5 -20 -160.5c0 -44.667 8.16699 -78.167 24.5 -100.5s42.166 -33.5 77.499 -33.5c40.667 0 74.834 17 102.501 51zM256.995 -39h274l-107 -103h-185z" />
    <glyph glyph-name="R" unicode="R" horiz-adv-x="588" 
d="M167 669h185c50 0 92 -7.66699 126 -23s59.333 -36 76 -62s25 -55 25 -87c0 -48.667 -16.5 -91.167 -49.5 -127.5s-75.167 -60.833 -126.5 -73.5l144 -296h-159l-120 278h-27l-47 -278h-144zM307 370c40 0 70.999 11.167 92.999 33.5s33 53.166 33 92.499
c0 24.667 -7.66699 43.834 -23 57.501s-40.666 20.5 -75.999 20.5h-40l-36 -204h49z" />
    <glyph glyph-name="S" unicode="S" horiz-adv-x="531" 
d="M27 43l19.998 112.002c25.333 -20 53.833 -34.833 85.5 -44.5s62.167 -14.5 91.5 -14.5c74 0 111 26 111 78c0 24 -8.5 45 -25.5 63s-42.833 39.333 -77.5 64c-30 21.333 -54 40.166 -72 56.499s-33.5 36.166 -46.5 59.499s-19.5 50 -19.5 80
c0 40 10.5 73.833 31.5 101.5s49.167 48.5 84.5 62.5s74 21 116 21c66.667 0 127.334 -16 182.001 -48l-18 -99c-18 13.333 -41.333 24.333 -70 33s-56 13 -82 13c-28.667 0 -53.167 -7 -73.5 -21s-30.5 -33.667 -30.5 -59c0 -20 8.33301 -38.167 25 -54.5
s42.334 -36.5 77.001 -60.5c32.667 -22.667 58.834 -42.5 78.501 -59.5s36.667 -37.5 51 -61.5s21.5 -51 21.5 -81c0 -64.667 -24 -113.667 -72 -147s-109.667 -50 -185 -50c-72.667 0 -140.334 18.667 -203.001 56z" />
    <glyph glyph-name="T" unicode="T" horiz-adv-x="530" 
d="M582 561h-183l-100 -561h-145l100 561h-184l19 108h512z" />
    <glyph glyph-name="U" unicode="U" horiz-adv-x="657" 
d="M81 184c0 22 2.66602 48.333 7.99902 79l72 406h143l-74 -421c-0.666992 -3.33301 -2.16699 -12.166 -4.5 -26.499s-3.5 -28.833 -3.5 -43.5c0 -20.667 7 -38.834 21 -54.501s38 -23.5 72 -23.5c38.667 0 68.834 14 90.501 42s36.167 62.333 43.5 103l73 424h135
l-77 -440c-14 -78 -43.667 -137.833 -89 -179.5s-107 -62.5 -185 -62.5c-150 0 -225 65.667 -225 197z" />
    <glyph glyph-name="V" unicode="V" horiz-adv-x="566" 
d="M639 669l-308 -669h-177l-67 669h143l33 -532h5l223 532h148z" />
    <glyph glyph-name="W" unicode="W" horiz-adv-x="893" 
d="M966 669l-302 -669h-166l-30 303l-145 -303h-168l-68 669h143l39 -509h5l172 365l-14 144h146l28 -504h6l206 504h148z" />
    <glyph glyph-name="X" unicode="X" horiz-adv-x="569" 
d="M384 341l135 -341h-142l-89 227l-164 -227h-149l264 352l-127 317h142l81 -206l149 206h148z" />
    <glyph glyph-name="Y" unicode="Y" horiz-adv-x="549" 
d="M346 220l-39 -220h-141l39 227l-115 442h143l67 -297l169 297h150z" />
    <glyph glyph-name="Z" unicode="Z" horiz-adv-x="557" 
d="M0 69l383 501h-273l17 99h471l-12 -66l-383 -498h296l-18 -105h-493z" />
    <glyph glyph-name="bracketleft" unicode="[" horiz-adv-x="255" 
d="M169 681h138l-9 -51h-66l-140 -799h66l-9 -51h-138z" />
    <glyph glyph-name="backslash" unicode="\" horiz-adv-x="392" 
d="M108 704h55l151 -749h-55z" />
    <glyph glyph-name="bracketright" unicode="]" horiz-adv-x="255" 
d="M92 -220h-138l9 51h66l140 799h-66l9 51h138z" />
    <glyph glyph-name="asciicircum" unicode="^" horiz-adv-x="656" 
d="M65 13.5c-6.66699 9 -9.00098 19.832 -7.00098 32.499l101 578c2.66699 12.667 8.83398 23.334 18.501 32.001s20.834 13 33.501 13h394c10.667 0 19.5 -3.5 26.5 -10.5s10.5 -15.5 10.5 -25.5c0 -4 -0.333008 -7 -1 -9l-101 -578c-2 -12.667 -8.16699 -23.5 -18.5 -32.5
s-21.5 -13.5 -33.5 -13.5h-394c-12.667 0 -22.334 4.5 -29.001 13.5zM563.999 617.999h-328l120 -248zM324.999 334.999l-122 256l-89 -511zM586.999 589.999l-214 -255l125 -256zM462.999 50.999l-119 248l-207 -248h326z" />
    <glyph glyph-name="underscore" unicode="_" horiz-adv-x="445" 
d="M-52 -65h450l-6 -42h-450z" />
    <glyph glyph-name="grave" unicode="`" horiz-adv-x="322" 
d="M116 590v136l229 -228h-85z" />
    <glyph glyph-name="a" unicode="a" horiz-adv-x="505" 
d="M63.5 39c-23.667 34.667 -35.499 78 -35.499 130c0 46.667 8.33301 91 25 133s40.334 75.833 71.001 101.5s65.334 38.5 104.001 38.5c27.333 0 50.666 -6.83301 69.999 -20.5s32.333 -32.834 39 -57.501l11 60h128l-49 -284c-2.66699 -14 -4 -26 -4 -36
c0 -11.333 1.66699 -18.666 5 -21.999s8.66602 -5 15.999 -5c6.66699 0 13 0.666992 19 2l16 -68c-38 -16 -71.333 -24 -100 -24c-22 0 -41.333 5.5 -58 16.5s-26.334 28.833 -29.001 53.5c-15.333 -22.667 -34.166 -40 -56.499 -52s-45.5 -18 -69.5 -18
c-44.667 0 -78.834 17.333 -102.501 52zM266.501 113.5c15.667 15.667 28.001 35.667 37.001 60s13.5 48.5 13.5 72.5c0 27.333 -5.33301 50.166 -16 68.499s-25 27.5 -43 27.5c-20.667 0 -38.334 -8.16699 -53.001 -24.5s-25.667 -36.666 -33 -60.999s-11 -48.5 -11 -72.5
c0 -28 5.16699 -50.667 15.5 -68s23.166 -26 38.499 -26c18.667 0 35.834 7.83301 51.501 23.5z" />
    <glyph glyph-name="b" unicode="b" horiz-adv-x="493" 
d="M111.5 12.5c-35.667 17 -61.834 38.167 -78.501 63.5l103 593h128l-50 -291c12.667 18.667 30.834 34 54.501 46s47.5 18 71.5 18c43.333 0 75.833 -14.5 97.5 -43.5s32.5 -67.833 32.5 -116.5c0 -54 -9.66699 -103.5 -29 -148.5s-47.333 -80.667 -84 -107
s-80 -39.5 -130 -39.5c-41.333 0 -79.833 8.5 -115.5 25.5zM288 112.5c17.333 18.333 30.502 41.833 39.502 70.5s13.5 58 13.5 88c0 23.333 -4 41 -12 53s-19.667 18 -35 18c-24 0 -47.167 -13.5 -69.5 -40.5s-36.833 -58.5 -43.5 -94.5l-15 -85
c3.33301 -10 10.666 -18.667 21.999 -26s24.333 -11 39 -11c23.333 0 43.666 9.16699 60.999 27.5z" />
    <glyph glyph-name="c" unicode="c" horiz-adv-x="404" 
d="M124 12.5c-30 17 -53.6689 40.833 -71.002 71.5s-26 66 -26 106c0 48 10.333 91.167 31 129.5s49.334 68.333 86.001 90s78.667 32.5 126 32.5c42 0 81 -7.33301 117 -22l-17 -97c-29.333 12.667 -57.333 19 -84 19c-40 0 -71.333 -13.667 -94 -41s-34 -61.333 -34 -102
c0 -33.333 10.5 -60.333 31.5 -81s46.167 -31 75.5 -31c18 0 33.167 1.16699 45.5 3.5s26.5 6.83301 42.5 13.5l-17 -98c-31.333 -12.667 -68.666 -19 -111.999 -19c-36.667 0 -70 8.5 -100 25.5z" />
    <glyph glyph-name="d" unicode="d" horiz-adv-x="504" 
d="M63 39c-23.333 34.667 -34.9961 78 -34.9961 130c0 46 8.33301 90 25 132s40.167 76 70.5 102s64.833 39 103.5 39c27.333 0 50.666 -6.83301 69.999 -20.5s32.333 -32.834 39 -57.501l54 305h128l-92 -529c-2.66699 -14 -4 -26 -4 -36
c0 -11.333 1.66699 -18.666 5 -21.999s8.66602 -5 15.999 -5s13.666 0.666992 18.999 2l16 -68c-36.667 -16 -69.667 -24 -99 -24c-22 0 -41.5 6 -58.5 18s-26.833 29.333 -29.5 52c-14.667 -22.667 -33.334 -40 -56.001 -52s-46 -18 -70 -18
c-44.667 0 -78.667 17.333 -102 52zM277.004 126c19.333 24 31.668 51.999 37.001 83.999c2 12 3 23.667 3 35c0 28 -5.5 51.167 -16.5 69.5s-25.5 27.5 -43.5 27.5c-20 0 -37.333 -8.16699 -52 -24.5s-25.667 -36.666 -33 -60.999s-11 -48.5 -11 -72.5
c0 -28 5.16699 -50.667 15.5 -68s23.166 -26 38.499 -26c22 0 42.667 12 62 36z" />
    <glyph glyph-name="e" unicode="e" horiz-adv-x="418" 
d="M154 197l0.00195312 -5c0 -34 10.667 -60.333 32 -79s52.666 -28 93.999 -28c16 0 29.333 1.16699 40 3.5s23.667 6.83301 39 13.5l-18 -97c-30 -12 -66 -18 -108 -18c-61.333 0 -110.833 18.167 -148.5 54.5s-56.5 85.5 -56.5 147.5
c0 46.667 8.83301 89.334 26.5 128.001s43 69.167 76 91.5s71.5 33.5 115.5 33.5c34.667 0 64.167 -6.33301 88.5 -19s42.666 -29.334 54.999 -50.001s18.5 -42.667 18.5 -66c0 -35.333 -13.167 -65.5 -39.5 -90.5s-64.166 -37.5 -113.499 -37.5
c-30.667 0 -64.334 6 -101.001 18zM197.002 327.5c-13.333 -15.667 -24 -35.834 -32 -60.501c18.667 -7.33301 36 -11 52 -11c22.667 0 40.667 4.5 54 13.5s20 22.167 20 39.5c0 10.667 -4 20.334 -12 29.001s-19.667 13 -35 13c-18 0 -33.667 -7.83301 -47 -23.5z" />
    <glyph glyph-name="f" unicode="f" horiz-adv-x="284" 
d="M-66 -127c25.333 3.33301 45.3311 13.168 59.998 29.501s25.334 43.5 32.001 81.5l60 340c0.666992 4 1 7.66699 1 11c0 8.66699 -2.83301 14.667 -8.5 18s-15.167 5 -28.5 5h-15l12 66h57l8 48c23.333 136 88 204 194 204c29.333 0 56 -4.33301 80 -13l-15 -90
c-18 5.33301 -34.667 8 -50 8c-22 0 -38.5 -6.83301 -49.5 -20.5s-19.5 -37.834 -25.5 -72.501l-11 -64h82l-12 -70h-83l-60 -339c-15.333 -84 -43.166 -144.5 -83.499 -181.5s-94.5 -55.5 -162.5 -55.5z" />
    <glyph glyph-name="g" unicode="g" horiz-adv-x="436" 
d="M459 424l-0.998047 -60.001c-25.333 2 -43.666 -2.66699 -54.999 -14c8 -16 12 -34.333 12 -55c0 -34 -9.5 -63.833 -28.5 -89.5s-44.667 -45.5 -77 -59.5s-67.5 -21 -105.5 -21c-14.667 0 -28.334 1 -41.001 3c-22 -3.33301 -33 -12.666 -33 -27.999
c0 -8.66699 4.5 -15.667 13.5 -21s23.167 -9.33301 42.5 -12l74 -10c42.667 -6 75.667 -20 99 -42s35 -49.333 35 -82c0 -52.667 -19.833 -92.167 -59.5 -118.5s-92.167 -39.5 -157.5 -39.5c-33.333 0 -67.333 4.5 -102 13.5s-67 21.833 -97 38.5l23 91
c23.333 -11.333 51.5 -21.166 84.5 -29.499s62.167 -12.5 87.5 -12.5c26 0 48 4.5 66 13.5s27 20.167 27 33.5c0 15.333 -14.667 25.333 -44 30l-101 17c-38.667 6.66699 -67.834 17.667 -87.501 33s-29.5 36.666 -29.5 63.999c0 18.667 6.83301 36.667 20.5 54
s32.5 32 56.5 44c-15.333 12.667 -27.333 28 -36 46s-13 37.667 -13 59c0 31.333 9.66699 60 29 86s44.666 46.333 75.999 61s64.333 22 99 22c32 0 60 -5 84 -15h139zM250.002 216.999c12.667 12 22.333 27 29 45s10 35.333 10 52c0 34 -17.333 51 -52 51
c-24.667 0 -44 -11.667 -58 -35s-21 -49.333 -21 -78c0 -35.333 16.333 -53 49 -53c16 0 30.333 6 43 18z" />
    <glyph glyph-name="h" unicode="h" horiz-adv-x="509" 
d="M320.5 9.5c-17 15 -25.499 35.502 -25.499 61.502c0 12.667 2.66699 31.334 8 56.001l24 111c4 19.333 6 34.666 6 45.999c0 19.333 -3.5 32.833 -10.5 40.5s-15.167 11.5 -24.5 11.5c-25.333 0 -49.333 -14 -72 -42s-39 -70 -49 -126l-29 -168h-129l117 669h129
l-52 -300c46.667 48.667 95.667 73 147 73c36.667 0 64 -10.5 82 -31.5s27 -49.167 27 -84.5c0 -18 -2.66699 -38.667 -8 -62l-29 -125c-4 -14.667 -6 -26.334 -6 -35.001c0 -11.333 2.16699 -18.833 6.5 -22.5s10.5 -5.5 18.5 -5.5l20 2l15 -67
c-20.667 -8.66699 -38.834 -14.834 -54.501 -18.501s-32.167 -5.5 -49.5 -5.5c-24 0 -44.5 7.5 -61.5 22.5z" />
    <glyph glyph-name="i" unicode="i" horiz-adv-x="241" 
d="M134.5 553c-11 13.333 -16.5 29.332 -16.5 47.999c0 21.333 6.66699 40 20 56s31.666 24 54.999 24c20.667 0 36.5 -6.5 47.5 -19.5s16.5 -28.833 16.5 -47.5c0 -21.333 -6.66699 -40.166 -20 -56.499s-31.666 -24.5 -54.999 -24.5c-20.667 0 -36.5 6.66699 -47.5 20z
M93 423.999h129l-74 -424h-129z" />
    <glyph glyph-name="j" unicode="j" horiz-adv-x="244" 
d="M139 553c-11.333 13.333 -16.999 29.334 -16.999 48.001c0 21.333 6.66699 40 20 56s31.666 24 54.999 24c21.333 0 37.333 -6.83301 48 -20.5s16 -29.834 16 -48.501c0 -21.333 -6.66699 -39.833 -20 -55.5s-31.333 -23.5 -54 -23.5c-20.667 0 -36.667 6.66699 -48 20z
M-127.999 -210.999l14.999 90c18 -6 34.667 -9 50 -9c23.333 0 40.333 6.83301 51 20.5s19 38.167 25 73.5l81 460h131l-77 -443c-24 -137.333 -91.667 -206 -203 -206c-25.333 0 -49.666 4.66699 -72.999 14z" />
    <glyph glyph-name="k" unicode="k" horiz-adv-x="502" 
d="M478 72l17 -71c-21.333 -9.33301 -44.333 -14 -69 -14c-38 0 -71 10.167 -99 30.5s-56.667 54.5 -86 102.5l-58 94l-37 -214h-127l117 669h127l-72 -411l155 166h151l-183 -195h-2l59 -92c14 -22 28.167 -38.5 42.5 -49.5s32.5 -16.5 54.5 -16.5
c4 0 7.33301 0.333008 10 1z" />
    <glyph glyph-name="l" unicode="l" horiz-adv-x="244" 
d="M54 9c-16 14.667 -24 35.332 -24 61.999c0 14.667 2 33.334 6 56.001l95 542h129l-94 -530c-3.33301 -16.667 -5 -29 -5 -37c0 -10.667 1.83301 -17.667 5.5 -21s9.16699 -5 16.5 -5c6.66699 0 12.667 0.666992 18 2l13 -67c-28 -16 -60.333 -24 -97 -24
c-26 0 -47 7.33301 -63 22z" />
    <glyph glyph-name="m" unicode="m" horiz-adv-x="727" 
d="M538.5 8.5c-17 15 -25.5029 35.832 -25.5029 62.499c0 12.667 2.66699 31.334 8 56.001l24 111c4.66699 21.333 7 39.333 7 54c0 27.333 -9 41 -27 41s-37.167 -15 -57.5 -45s-37.166 -74.667 -50.499 -134l-27 -154h-128l41 238c3.33301 19.333 5 37 5 53
c0 16.667 -2.16699 27.834 -6.5 33.501s-10.166 8.5 -17.499 8.5c-21.333 0 -42.5 -19.333 -63.5 -58s-37.833 -91.667 -50.5 -159l-22 -116h-129l74 424h129l-15 -88c14.667 32.667 33.834 58.5 57.501 77.5s48.5 28.5 74.5 28.5c29.333 0 52 -10.167 68 -30.5
s26.333 -45.833 31 -76.5c18.667 38 40.5 65.333 65.5 82s50.833 25 77.5 25c36 0 62.833 -9.33301 80.5 -28s26.5 -45.667 26.5 -81c0 -20.667 -3 -43.667 -9 -69l-28 -125c-3.33301 -16.667 -5 -28.334 -5 -35.001c0 -11.333 2 -18.833 6 -22.5s9.66699 -5.5 17 -5.5l20 2
l15 -67c-20 -8.66699 -38 -15 -54 -19s-32.667 -6 -50 -6c-24 0 -44.5 7.5 -61.5 22.5z" />
    <glyph glyph-name="n" unicode="n" horiz-adv-x="509" 
d="M320.5 9.5c-17 15 -25.501 35.5 -25.501 61.5c0 12.667 2.66699 31.334 8 56.001l24 111c4 19.333 6 34.666 6 45.999c0 19.333 -3.5 32.833 -10.5 40.5s-15.167 11.5 -24.5 11.5c-28.667 0 -54.667 -19.667 -78 -59s-40.666 -91.666 -51.999 -156.999l-20 -120h-129
l74 424h129l-12 -64c48 54.667 98 82 150 82c36.667 0 63.834 -10.833 81.501 -32.5s26.5 -50.167 26.5 -85.5c0 -21.333 -2.33301 -41.333 -7 -60l-29 -125c-2.66699 -13.333 -4 -25 -4 -35c0 -11.333 2 -18.833 6 -22.5s9.66699 -5.5 17 -5.5l20 2l15 -67
c-20.667 -8.66699 -38.834 -14.834 -54.501 -18.501s-32.167 -5.5 -49.5 -5.5c-24 0 -44.5 7.5 -61.5 22.5z" />
    <glyph glyph-name="o" unicode="o" horiz-adv-x="472" 
d="M69 39c-30 34.667 -44.998 79.333 -44.998 134c0 49.333 10.5 94.5 31.5 135.5s50.167 73.5 87.5 97.5s80 36 128 36c36.667 0 68.167 -8.5 94.5 -25.5s46.5 -40 60.5 -69s21 -61.167 21 -96.5c0 -50 -10.333 -95 -31 -135s-49.834 -71.5 -87.501 -94.5
s-80.834 -34.5 -129.501 -34.5c-56.667 0 -100 17.333 -130 52zM266.002 110.999c14.667 21.333 25.833 47.166 33.5 77.499s11.5 58.5 11.5 84.5c0 25.333 -4.16699 44.5 -12.5 57.5s-20.833 19.5 -37.5 19.5c-20.667 0 -38.5 -9.66699 -53.5 -29
s-26.333 -43.666 -34 -72.999s-11.5 -58 -11.5 -86c0 -27.333 4.5 -48 13.5 -62s21.833 -21 38.5 -21c20 0 37.333 10.667 52 32z" />
    <glyph glyph-name="p" unicode="p" horiz-adv-x="501" 
d="M93 424h126.001l-5 -43c12 18 29.833 32.667 53.5 44s47.167 17 70.5 17c46 0 80.167 -16.5 102.5 -49.5s33.5 -75.5 33.5 -127.5c0 -50.667 -8.83301 -97.167 -26.5 -139.5s-42.834 -76 -75.501 -101s-70.667 -37.5 -114 -37.5c-24 0 -45 5.66699 -63 17
s-30.333 28 -37 50l-46 -265h-130zM288.001 115.5c14.667 17 26.332 38.3311 34.999 63.998s13 50.167 13 73.5c0 26 -4.66699 47.333 -14 64s-22 25 -38 25c-16.667 0 -33 -7.66699 -49 -23s-29.167 -35.166 -39.5 -59.499s-15.5 -49.166 -15.5 -74.499
c0 -26.667 5.33301 -49.167 16 -67.5s25.334 -27.5 44.001 -27.5c17.333 0 33.333 8.5 48 25.5z" />
    <glyph glyph-name="q" unicode="q" horiz-adv-x="495" 
d="M284 58c-14 -22.667 -31.5 -39.999 -52.5 -51.999s-42.833 -18 -65.5 -18c-45.333 0 -80 15.667 -104 47s-36 71.666 -36 120.999c0 51.333 10 98.833 30 142.5s48.5 78.5 85.5 104.5s80.167 39 129.5 39c32 0 66 -6 102 -18h103l-111 -635h-129zM275 130.001
c20 26.667 33.333 58.333 40 95l18 100c-16.667 16.667 -36.667 25 -60 25c-21.333 0 -40.5 -10 -57.5 -30s-30.333 -44.5 -40 -73.5s-14.5 -56.167 -14.5 -81.5c0 -50 17 -75 51 -75c22 0 43 13.333 63 40z" />
    <glyph glyph-name="r" unicode="r" horiz-adv-x="337" 
d="M93 424h130.002l-14 -84c13.333 34 31.666 59 54.999 75s47.333 24 72 24c20 0 37 -3.33301 51 -10l-21 -112c-13.333 8.66699 -30 13 -50 13c-72.667 0 -123.334 -81.667 -152.001 -245l-15 -85h-130z" />
    <glyph glyph-name="s" unicode="s" horiz-adv-x="379" 
d="M7 22l17.0029 92.001c20 -8 41.5 -14.833 64.5 -20.5s43.833 -8.5 62.5 -8.5c16 0 29.5 3 40.5 9s16.5 14.667 16.5 26s-5 21.5 -15 30.5s-26 21.167 -48 36.5c-32 22 -56.5 42.167 -73.5 60.5s-25.5 41.166 -25.5 68.499c0 42 18.167 73.5 54.5 94.5
s78.833 31.5 127.5 31.5c46 0 88 -10 126 -30l-17 -87c-14 6.66699 -31.167 12.667 -51.5 18s-38.5 8 -54.5 8c-16.667 0 -30.834 -2.83301 -42.501 -8.5s-17.5 -15.167 -17.5 -28.5c0 -12 5.16699 -22.5 15.5 -31.5s27.166 -20.167 50.499 -33.5
c33.333 -19.333 59.166 -38.333 77.499 -57s27.5 -43 27.5 -73c0 -42 -17.667 -74.5 -53 -97.5s-77.333 -34.5 -126 -34.5c-61.333 0 -113.333 11.667 -156 35z" />
    <glyph glyph-name="t" unicode="t" horiz-adv-x="282" 
d="M174 149c-0.666992 -5.33301 -2 -12.667 -4 -22s-3 -17.333 -3 -24c0 -16.667 9.66699 -25 29 -25c10 0 24.333 1.66699 43 5l15 -69c-38.667 -17.333 -76 -26 -112 -26c-68 0 -102 33.333 -102 100c0 12.667 1.66699 29 5 49l37 217h-53l12 70h53l22 127h129l-22 -127
h75l-12 -70h-76z" />
    <glyph glyph-name="u" unicode="u" horiz-adv-x="503" 
d="M324 1c-16 10 -26.334 24.998 -31.001 44.998c-14 -17.333 -33.333 -31.5 -58 -42.5s-49 -16.5 -73 -16.5c-41.333 0 -72.333 10.333 -93 31s-31 47.334 -31 80.001c0 24 2.66699 50 8 78l43 248h129l-45 -261c-2 -10 -3 -19.667 -3 -29c0 -18 3.5 -30.333 10.5 -37
s17.167 -10 30.5 -10c24 0 44.833 13.667 62.5 41s32.167 73 43.5 137l28 159h130l-50 -284c-2.66699 -14 -4 -26 -4 -36c0 -11.333 1.83301 -18.666 5.5 -21.999s8.83398 -5 15.501 -5c7.33301 0 14 0.666992 20 2l15 -68c-36 -16.667 -69 -25 -99 -25c-20 0 -38 5 -54 15z
" />
    <glyph glyph-name="v" unicode="v" horiz-adv-x="479" 
d="M68 -2.5c-19.333 7 -33.333 16.834 -42 29.501l67 397h130l-55 -324c5.33301 -1.33301 12 -2 20 -2c50 0 87.333 25.333 112 76s37 113.667 37 189c0 14 -0.666992 34.333 -2 61h123c6 -28.667 9 -58 9 -88c0 -68 -13.333 -128.333 -40 -181s-65 -93.834 -115 -123.501
s-108.667 -44.5 -176 -44.5c-26 0 -48.667 3.5 -68 10.5z" />
    <glyph glyph-name="w" unicode="w" horiz-adv-x="723" 
d="M711 336c0 -67.333 -13.167 -127.333 -39.5 -180s-64.166 -94 -113.499 -124s-107 -45 -173 -45c-43.333 0 -74.333 15.667 -93 47c-52.667 -31.333 -105.334 -47 -158.001 -47c-26 0 -48.667 3.5 -68 10.5s-33.333 16.833 -42 29.5l69 397h130l-57 -319
c7.33301 -4.66699 20.333 -7 39 -7c27.333 0 59 16.667 95 50l49 276h130l-58 -323c4 -2 9.33301 -3 16 -3c50 0 86.5 25.667 109.5 77s34.5 115.333 34.5 192c0 19.333 -1 38.333 -3 57h124c6 -28.667 9 -58 9 -88z" />
    <glyph glyph-name="x" unicode="x" horiz-adv-x="420" 
d="M375 93l39.998 -53c-8.66699 -16 -21.334 -28.333 -38.001 -37s-35.667 -13 -57 -13c-53.333 0 -96.666 33 -129.999 99l-13 26l-85 -115h-136l170 217l-98 207h134l50 -102l72 102h135l-160 -206l39 -77c12 -24 21.333 -40 28 -48s13.334 -12 20.001 -12
c8.66699 0 18.334 4 29.001 12z" />
    <glyph glyph-name="y" unicode="y" horiz-adv-x="467" 
d="M433 308c0 -82 -13.834 -160.498 -41.501 -235.498s-69.167 -139 -124.5 -192s-122.666 -87.5 -201.999 -103.5l-42 96c84.667 23.333 151 65.666 199 126.999h-77l-117 424h129l96 -379c36 65.333 54 142 54 230c0 35.333 -1 62 -3 80s-5.33301 41 -10 69h127
c8 -36.667 12 -75.334 12 -116.001z" />
    <glyph glyph-name="z" unicode="z" horiz-adv-x="412" 
d="M410 371l-235 -280h196l-17 -91h-371l7 54l240 284h-180l14 86h355z" />
    <glyph glyph-name="braceleft" unicode="{" horiz-adv-x="255" 
d="M73.5 -197c-17.667 15.333 -26.499 39.334 -26.499 72.001c0 10.667 1 23 3 37l36 203c2 11.333 3 21 3 29c0 20.667 -4.83301 36.5 -14.5 47.5s-23.834 16.5 -42.501 16.5l8 46c22.667 0 41.334 8 56.001 24s24.667 39 30 69l36 203c8 46 24.667 79.5 50 100.5
s55 31.5 89 31.5h32l-8 -46h-32c-14 0 -26.5 -6.83301 -37.5 -20.5s-19.167 -35.5 -24.5 -65.5l-36 -203c-8.66699 -52.667 -29.667 -91.334 -63 -116.001c17.333 -16 26 -41.667 26 -77c0 -12 -1 -25 -3 -39l-36 -203c-2 -13.333 -3 -25 -3 -35c0 -34 11.667 -51 35 -51h32
l-8 -46h-32c-28.667 0 -51.834 7.66699 -69.501 23z" />
    <glyph glyph-name="bar" unicode="|" horiz-adv-x="216" 
d="M167 669h42l-157 -894h-42z" />
    <glyph glyph-name="braceright" unicode="}" horiz-adv-x="256" 
d="M187.5 654c17.667 -15.333 26.499 -39.333 26.499 -72c0 -10.667 -1 -23 -3 -37l-36 -203c-2 -10.667 -3 -20.334 -3 -29.001c0 -20.667 4.83301 -36.5 14.5 -47.5s23.834 -16.5 42.501 -16.5l-8 -46c-22.667 0 -41.334 -8 -56.001 -24s-24.667 -39 -30 -69l-36 -203
c-8 -46 -24.667 -79.5 -50 -100.5s-55 -31.5 -89 -31.5h-32l8 46h32c14 0 26.5 6.83301 37.5 20.5s19.167 35.5 24.5 65.5l36 203c8.66699 52.667 29.667 91.334 63 116.001c-17.333 16 -26 41.667 -26 77c0 12 1 25 3 39l36 203c2 13.333 3 25 3 35c0 34 -11.667 51 -35 51
h-32l8 46h32c28.667 0 51.834 -7.66699 69.501 -23z" />
    <glyph glyph-name="asciitilde" unicode="~" horiz-adv-x="656" 
d="M65 13.5c-6.66699 9 -9.00098 19.832 -7.00098 32.499l101 578c2.66699 12.667 8.83398 23.334 18.501 32.001s20.834 13 33.501 13h394c10.667 0 19.5 -3.5 26.5 -10.5s10.5 -15.5 10.5 -25.5c0 -4 -0.333008 -7 -1 -9l-101 -578c-2 -12.667 -8.16699 -23.5 -18.5 -32.5
s-21.5 -13.5 -33.5 -13.5h-394c-12.667 0 -22.334 4.5 -29.001 13.5zM563.999 617.999h-328l120 -248zM324.999 334.999l-122 256l-89 -511zM586.999 589.999l-214 -255l125 -256zM462.999 50.999l-119 248l-207 -248h326z" />
    <glyph glyph-name="exclamdown" unicode="&#xa1;" horiz-adv-x="265" 
d="M256 663c12.667 -14 18.999 -31.333 18.999 -52c0 -23.333 -7.5 -43 -22.5 -59s-33.5 -24 -55.5 -24c-18.667 0 -34.167 7 -46.5 21s-18.5 31.333 -18.5 52c0 23.333 7.5 43 22.5 59s33.167 24 54.5 24c18.667 0 34.334 -7 47.001 -21zM216.999 444
c-7.33301 -41.333 -12.332 -83.168 -14.999 -125.501s-4.33398 -89.166 -5.00098 -140.499c-1.33301 -50 -3 -81.667 -5 -95c-4.66699 -27.333 -14.5 -49.666 -29.5 -66.999s-35.167 -26 -60.5 -26c-23.333 0 -41.5 8.5 -54.5 25.5s-19.5 37.5 -19.5 61.5
c0 4.66699 0.666992 11 2 19c2.66699 13.333 13.667 49.333 33 108c18 53.333 32.333 97.666 43 132.999s20 71 28 107l3 20h83z" />
    <glyph glyph-name="cent" unicode="&#xa2;" horiz-adv-x="404" 
d="M192 301c-22.667 -27.333 -34 -61.334 -34 -102.001c0 -33.333 10.5 -60.333 31.5 -81s46.167 -31 75.5 -31c18 0 33.167 1.16699 45.5 3.5s26.5 6.83301 42.5 13.5l-17 -98c-24 -10 -51.333 -16 -82 -18l-22 -129h-103l24 140c-38 14 -68.5 37.667 -91.5 71
s-34.5 73.333 -34.5 120c0 43.333 8.5 82.833 25.5 118.5s40.833 64.834 71.5 87.501s66 37 106 43l29 165l98 -28l-24 -140c15.333 -2.66699 33.333 -8 54 -16l-17 -97c-29.333 12.667 -57.333 19 -84 19c-40 0 -71.333 -13.667 -94 -41z" />
    <glyph glyph-name="sterling" unicode="&#xa3;" horiz-adv-x="532" 
d="M485 105l-19 -105h-391l49 281h-108l18 100h108l50 288h144l-50 -288h152l-58 -100h-112l-31 -176h248z" />
    <glyph glyph-name="yen" unicode="&#xa5;" horiz-adv-x="549" 
d="M384 282h133l-58 -100h-120l-32 -182h-141l31 182h-142l18 100h118l-101 387h143l67 -297l169 297h150z" />
    <glyph glyph-name="brokenbar" unicode="&#xa6;" horiz-adv-x="216" 
d="M167 669h42l-74 -420h-42zM84 195h42l-74 -420h-42z" />
    <glyph glyph-name="section" unicode="&#xa7;" horiz-adv-x="478" 
d="M268 569.5c-20 -12.333 -31.998 -30.165 -35.998 -53.498c-0.666992 -2.66699 -1 -6.66699 -1 -12c0 -10.667 3.16699 -20.5 9.5 -29.5s15.666 -18.5 27.999 -28.5s25.5 -20 39.5 -30l88 -63c19.333 -13.333 34.166 -28.666 44.499 -45.999s15.5 -35.666 15.5 -54.999
c0 -26.667 -11 -57.334 -33 -92.001s-50.667 -67 -86 -97c25.333 -28.667 38 -61.334 38 -98.001c0 -11.333 -1 -23 -3 -35c-8 -44 -31.667 -80.667 -71 -110s-93 -44 -161 -44c-48.667 0 -96 9.33301 -142 28l17 97c40.667 -21.333 81.667 -32 123 -32
c30 0 55 6.16699 75 18.5s32.333 30.166 37 53.499c0.666992 2.66699 1 6.66699 1 12c0 14.667 -4.83301 27.167 -14.5 37.5s-21.5 20.333 -35.5 30l-28 19.5l-85 60c-20 14 -35.333 30.167 -46 48.5s-16 37.166 -16 56.499c0 28 11 57.833 33 89.5s51.667 63.167 89 94.5
c-28 29.333 -42 63 -42 101c0 12.667 1.33301 24.667 4 36c8 44 31.667 80.667 71 110s93 44 161 44c48.667 0 96 -9.33301 142 -28l-17 -96c-40.667 21.333 -82 32 -124 32c-30 0 -55 -6.16699 -75 -18.5zM208.002 342.001
c-17.333 -19.333 -31.334 -38.998 -42.001 -58.998s-16 -38.333 -16 -55c0 -20.667 10 -37.334 30 -50.001l94 -64c16.667 19.333 30.334 38.666 41.001 57.999s16 37.333 16 54c0 22 -9.66699 39.333 -29 52z" />
    <glyph glyph-name="dieresis" unicode="&#xa8;" horiz-adv-x="359" 
d="M108.5 539.5c-11 11 -16.5 24.832 -16.5 41.499c0 20.667 7.66699 38.834 23 54.501s33 23.5 53 23.5c16 0 29.5 -5.5 40.5 -16.5s16.5 -24.833 16.5 -41.5c0 -20 -7.83301 -38 -23.5 -54s-33.167 -24 -52.5 -24c-16 0 -29.5 5.5 -40.5 16.5zM282 539.499
c-10.667 11 -15.999 25.168 -15.999 42.501c0 20 7.83301 37.833 23.5 53.5s33.5 23.5 53.5 23.5c16 0 29.333 -5.5 40 -16.5s16 -24.833 16 -41.5c0 -20.667 -7.66699 -38.834 -23 -54.501s-33 -23.5 -53 -23.5c-16.667 0 -30.334 5.5 -41.001 16.5z" />
    <glyph glyph-name="copyright" unicode="&#xa9;" horiz-adv-x="780" 
d="M239 36.5c-52.667 31 -94.5 73 -125.5 126s-46.5 110.5 -46.5 172.5s15.5 119.333 46.5 172s72.833 94.5 125.5 125.5s110 46.5 172 46.5s119.5 -15.5 172.5 -46.5s95 -72.833 126 -125.5s46.5 -110 46.5 -172s-15.5 -119.5 -46.5 -172.5s-73 -95 -126 -126
s-110.5 -46.5 -172.5 -46.5s-119.333 15.5 -172 46.5zM566.5 66.5c47.667 27.667 85.334 65.167 113.001 112.5s41.5 99.333 41.5 156c0 56 -13.833 107.667 -41.5 155s-65.334 84.833 -113.001 112.5s-99.5 41.5 -155.5 41.5s-107.667 -13.833 -155 -41.5
s-84.833 -65.167 -112.5 -112.5s-41.5 -99 -41.5 -155c0 -56.667 13.833 -108.667 41.5 -156s65.167 -84.833 112.5 -112.5s99 -41.5 155 -41.5s107.833 13.833 155.5 41.5zM298 133.5c-30 17 -53.6689 40.833 -71.002 71.5s-26 66 -26 106c0 48 10.333 91.167 31 129.5
s49.334 68.333 86.001 90s78.667 32.5 126 32.5c42 0 81 -7.33301 117 -22l-17 -97c-29.333 12.667 -57.333 19 -84 19c-40 0 -71.333 -13.667 -94 -41s-34 -61.333 -34 -102c0 -33.333 10.5 -60.333 31.5 -81s46.167 -31 75.5 -31c18 0 33.167 1.16699 45.5 3.5
s26.5 6.83301 42.5 13.5l-17 -98c-31.333 -12.667 -68.666 -19 -111.999 -19c-36.667 0 -70 8.5 -100 25.5z" />
    <glyph glyph-name="ordfeminine" unicode="&#xaa;" horiz-adv-x="395" 
d="M94.5 388c-19.667 24.667 -29.4971 55.668 -29.4971 93.001c0 30.667 6.66699 60.667 20 90s32.833 53.333 58.5 72s55.5 28 89.5 28c20 0 37.833 -4.83301 53.5 -14.5s26.167 -23.5 31.5 -41.5l8 43h99l-37 -206c-2 -10.667 -3 -19.334 -3 -26.001
c0 -8 1.16699 -13.167 3.5 -15.5s6.16602 -3.5 11.499 -3.5l16 2l10 -42c-11.333 -5.33301 -25 -9.33301 -41 -12s-29.667 -4 -41 -4c-16.667 0 -30.834 4.16699 -42.501 12.5s-17.834 21.833 -18.501 40.5c-13.333 -17.333 -29.5 -30.5 -48.5 -39.5
s-37.167 -13.5 -54.5 -13.5c-37.333 0 -65.833 12.333 -85.5 37zM262.003 435.001c12.667 13.333 22.499 29.6689 29.499 49.002s10.5 37.666 10.5 54.999c0 20 -4.33301 36.5 -13 49.5s-20 19.5 -34 19.5c-24 0 -42.833 -13.333 -56.5 -40s-20.5 -55.334 -20.5 -86.001
c0 -20.667 3.83301 -37 11.5 -49s17.834 -18 30.501 -18c15.333 0 29.333 6.66699 42 20z" />
    <glyph glyph-name="guillemotleft" unicode="&#xab;" horiz-adv-x="396" 
d="M22 231l178 180l31 -30l-153 -155l111 -180l-38 -24zM144 223l189 188l30 -30l-163 -163l111 -172l-39 -24z" />
    <glyph glyph-name="logicalnot" unicode="&#xac;" horiz-adv-x="470" 
d="M418 331h-393l8 47h439l-31 -172h-45z" />
    <glyph glyph-name="registered" unicode="&#xae;" horiz-adv-x="780" 
d="M239 36.5c-52.667 31 -94.5 73 -125.5 126s-46.5 110.5 -46.5 172.5s15.5 119.333 46.5 172s72.833 94.5 125.5 125.5s110 46.5 172 46.5s119.5 -15.5 172.5 -46.5s95 -72.833 126 -125.5s46.5 -110 46.5 -172s-15.5 -119.5 -46.5 -172.5s-73 -95 -126 -126
s-110.5 -46.5 -172.5 -46.5s-119.333 15.5 -172 46.5zM566.5 66.5c47.667 27.667 85.334 65.167 113.001 112.5s41.5 99.333 41.5 156c0 56 -13.833 107.667 -41.5 155s-65.334 84.833 -113.001 112.5s-99.5 41.5 -155.5 41.5s-107.667 -13.833 -155 -41.5
s-84.833 -65.167 -112.5 -112.5s-41.5 -99 -41.5 -155c0 -56.667 13.833 -108.667 41.5 -156s65.167 -84.833 112.5 -112.5s99 -41.5 155 -41.5s107.833 13.833 155.5 41.5zM297 554l149.001 -0.00195312c49.333 0 85.666 -9.66699 108.999 -29s35 -45.666 35 -78.999
c0 -12 -0.666992 -21 -2 -27c-4.66699 -26.667 -16.667 -49.167 -36 -67.5s-42 -32.166 -68 -41.499l84 -178h-129l-65 166h-8l-29 -166h-114zM400.001 356.998c18.667 0 34.833 6.33203 48.5 18.999s22.167 28.334 25.5 47.001c1.33301 10.667 2 18 2 22
c0 16 -4.16699 27.667 -12.5 35s-21.5 11 -39.5 11h-24l-24 -134h24z" />
    <glyph glyph-name="macron" unicode="&#xaf;" horiz-adv-x="322" 
d="M95 604h268l-12 -74h-268z" />
    <glyph glyph-name="degree" unicode="&#xb0;" horiz-adv-x="306" 
d="M142.5 426.5c-21 12.333 -37.667 29 -50 50s-18.5 43.833 -18.5 68.5s6.16699 47.5 18.5 68.5s29 37.667 50 50s43.833 18.5 68.5 18.5s47.5 -6.16699 68.5 -18.5s37.667 -29 50 -50s18.5 -43.833 18.5 -68.5s-6.16699 -47.5 -18.5 -68.5s-29 -37.667 -50 -50
s-43.833 -18.5 -68.5 -18.5s-47.5 6.16699 -68.5 18.5zM280 476.5c18.667 19 28 41.833 28 68.5c0 27.333 -9.33301 50.333 -28 69s-41.667 28 -69 28c-26.667 0 -49.5 -9.33301 -68.5 -28s-28.5 -41.667 -28.5 -69c0 -26.667 9.5 -49.5 28.5 -68.5s41.833 -28.5 68.5 -28.5
c27.333 0 50.333 9.5 69 28.5z" />
    <glyph glyph-name="plusminus" unicode="&#xb1;" horiz-adv-x="458" 
d="M225 321h-179l8 48h179l32 185h47l-32 -185h177l-7 -48h-178l-33 -183h-45zM7 99h403l-7 -46h-404z" />
    <glyph glyph-name="uni00B2" unicode="&#xb2;" horiz-adv-x="303" 
d="M38 371l28.998 19.002c60.667 39.333 106.5 72.166 137.5 98.499s46.5 51.166 46.5 74.499c0 12.667 -5.16699 22.167 -15.5 28.5s-24.166 9.5 -41.499 9.5c-16 0 -33.5 -2.5 -52.5 -7.5s-36.833 -11.833 -53.5 -20.5l14 82c42 14 81.333 21 118 21
c38.667 0 69.334 -8 92.001 -24s34 -38 34 -66c0 -7.33301 -0.333008 -13 -1 -17c-4.66699 -24.667 -13.667 -46.667 -27 -66s-30.333 -37.5 -51 -54.5s-53 -41.5 -97 -73.5h152l-14 -79h-283z" />
    <glyph glyph-name="uni00B3" unicode="&#xb3;" horiz-adv-x="277" 
d="M69.5 293c-13 2.66699 -28.834 7.33496 -47.501 14.002l14 76c15.333 -8 29.5 -13.667 42.5 -17s27.833 -5 44.5 -5c24.667 0 44.834 5 60.501 15s23.5 25 23.5 45c0 14 -6.66699 24 -20 30s-35 9.66699 -65 11l11 63c29.333 0.666992 50.5 4.66699 63.5 12
s20.833 18.666 23.5 33.999c2.66699 10.667 -1 18.667 -11 24s-24 8 -42 8c-33.333 0 -65.666 -6.66699 -96.999 -20l12 69c20.667 8.66699 39.667 14.667 57 18s35.333 5 54 5c43.333 0 75.333 -7.33301 96 -22s31 -33.334 31 -56.001c0 -22 -7.16699 -42.833 -21.5 -62.5
s-32.5 -31.834 -54.5 -36.501c19.333 -3.33301 34.666 -12.166 45.999 -26.499s17 -30.833 17 -49.5c0 -6 -0.333008 -10.667 -1 -14c-6.66699 -35.333 -26.167 -64 -58.5 -86s-76.5 -33 -132.5 -33c-17.333 0 -32.5 1.33301 -45.5 4z" />
    <glyph glyph-name="acute" unicode="&#xb4;" horiz-adv-x="266" 
d="M305 726v-136l-144 -92h-85z" />
    <glyph glyph-name="uni00B5" unicode="&#xb5;" horiz-adv-x="473" 
d="M434 74.5c3.33301 -4.33301 9.33496 -6.5 18.002 -6.5h5l-13 -73c-13.333 -4 -28.333 -6 -45 -6c-29.333 0 -51.666 4.83301 -66.999 14.5s-25 25.834 -29 48.501c-14.667 -19.333 -35.334 -34.833 -62.001 -46.5s-54 -17.5 -82 -17.5h-14l-29 -163h-127l52 297
c3.33301 23.333 5.66602 37.666 6.99902 42.999l46 259h127l-24 -137l-19 -111c-1.33301 -6 -2 -14.333 -2 -25c0 -24 4.5 -40.5 13.5 -49.5s19.5 -13.5 31.5 -13.5c51.333 0 87.666 59.333 108.999 178v-2l28 160h127l-49 -280c-4.66699 -23.333 -7 -40 -7 -50
c0 -8.66699 1.66699 -15.167 5 -19.5z" />
    <glyph glyph-name="paragraph" unicode="&#xb6;" horiz-adv-x="645" 
d="M234 -192c21.333 5.33301 43.666 18.1689 66.999 38.502s44.333 47.666 63 81.999s31.667 73.5 39 117.5l94 534h-78l-93 -528c-15.333 -86.667 -53 -149.667 -113 -189l67 361h-15c-39.333 0 -75.333 6.66699 -108 20s-58.667 33.5 -78 60.5s-29 59.833 -29 98.5
c0 16 1.33301 30.667 4 44c8 48 26.667 88.667 56 122s64.5 58.333 105.5 75s83.5 25 127.5 25h297l-102 -582c-14 -77.333 -45.667 -144.333 -95 -201s-120.666 -91.334 -213.999 -104.001z" />
    <glyph glyph-name="periodcentered" unicode="&#xb7;" horiz-adv-x="212" 
d="M65.5 194c-13 13.333 -19.5 28.666 -19.5 45.999s6.5 32.5 19.5 45.5s28.167 19.5 45.5 19.5s32.5 -6.5 45.5 -19.5s19.5 -28.167 19.5 -45.5s-6.5 -32.666 -19.5 -45.999s-28.167 -20 -45.5 -20s-32.5 6.66699 -45.5 20z" />
    <glyph glyph-name="cedilla" unicode="&#xb8;" horiz-adv-x="224" 
d="M-44 -189l26 32.999c17.333 -7.33301 32.333 -11 45 -11s23.167 5 31.5 15s12.5 20.333 12.5 31c0 8.66699 -2.33301 16.334 -7 23.001s-11.667 10 -21 10c-10.667 0 -20 -2 -28 -6l-18 24l76 70h59l-58 -51h2c14 0 27.833 -5.16699 41.5 -15.5s20.5 -26.833 20.5 -49.5
c0 -26 -11 -48.5 -33 -67.5s-47.333 -28.5 -76 -28.5c-24.667 0 -49 7.66699 -73 23z" />
    <glyph glyph-name="uni00B9" unicode="&#xb9;" horiz-adv-x="208" 
d="M142 608l-82 1l8 44l185 17l-66 -374h-100z" />
    <glyph glyph-name="ordmasculine" unicode="&#xba;" horiz-adv-x="366" 
d="M100 390c-24 24.667 -35.999 56 -35.999 94c0 36 8.66699 68.167 26 96.5s41.166 50.5 71.499 66.5s64.166 24 101.499 24c44.667 0 79.667 -12.667 105 -38s38 -57 38 -95c0 -36 -8.66699 -68 -26 -96s-41.166 -49.833 -71.499 -65.5s-64.833 -23.5 -103.5 -23.5
c-46 0 -81 12.333 -105 37zM258.001 440c11.333 14.667 20.002 32.667 26.002 54s9 41.333 9 60c0 16.667 -3.33301 29.667 -10 39s-16.334 14 -29.001 14c-23.333 0 -41.833 -13.667 -55.5 -41s-20.5 -57.333 -20.5 -90c0 -38.667 13.333 -58 40 -58
c15.333 0 28.666 7.33301 39.999 22z" />
    <glyph glyph-name="guillemotright" unicode="&#xbb;" horiz-adv-x="395" 
d="M33 48l163 163l-110 172l38 24l128 -201l-188 -188zM166 48l152 155l-111 180l39 24l128 -209l-178 -180z" />
    <glyph glyph-name="onequarter" unicode="&#xbc;" horiz-adv-x="621" 
d="M142 608l-82 1l8 44l185 17l-66 -374h-100zM591 704h45l-628 -749h-45zM476 90l-202 1l5 31l152 252h95l-137 -223h98l17 97l97 25l-48 -273h-93z" />
    <glyph glyph-name="onehalf" unicode="&#xbd;" horiz-adv-x="643" 
d="M142 608l-82 1l8 44l185 17l-66 -374h-100zM591 704h45l-628 -749h-45zM326 75l28.998 19.002c60.667 39.333 106.5 72.166 137.5 98.499s46.5 51.166 46.5 74.499c0 12.667 -5.16699 22.167 -15.5 28.5s-24.166 9.5 -41.499 9.5c-16 0 -33.5 -2.5 -52.5 -7.5
s-36.833 -11.833 -53.5 -20.5l14 82c42 14 81.333 21 118 21c38.667 0 69.334 -8 92.001 -24s34 -38 34 -66c0 -7.33301 -0.333008 -13 -1 -17c-4.66699 -24.667 -13.667 -46.667 -27 -66s-30.333 -37.5 -51 -54.5s-53 -41.5 -97 -73.5h152l-14 -79h-283z" />
    <glyph glyph-name="threequarters" unicode="&#xbe;" horiz-adv-x="660" 
d="M69.5 293c-13 2.66699 -28.834 7.33496 -47.501 14.002l14 76c15.333 -8 29.5 -13.667 42.5 -17s27.833 -5 44.5 -5c24.667 0 44.834 5 60.501 15s23.5 25 23.5 45c0 14 -6.66699 24 -20 30s-35 9.66699 -65 11l11 63c29.333 0.666992 50.5 4.66699 63.5 12
s20.833 18.666 23.5 33.999c2.66699 10.667 -1 18.667 -11 24s-24 8 -42 8c-33.333 0 -65.666 -6.66699 -96.999 -20l12 69c20.667 8.66699 39.667 14.667 57 18s35.333 5 54 5c43.333 0 75.333 -7.33301 96 -22s31 -33.334 31 -56.001c0 -22 -7.16699 -42.833 -21.5 -62.5
s-32.5 -31.834 -54.5 -36.501c19.333 -3.33301 34.666 -12.166 45.999 -26.499s17 -30.833 17 -49.5c0 -6 -0.333008 -10.667 -1 -14c-6.66699 -35.333 -26.167 -64 -58.5 -86s-76.5 -33 -132.5 -33c-17.333 0 -32.5 1.33301 -45.5 4zM629.999 704.001h45l-628 -749h-45z
M514.999 90.001l-202 1l5 31l152 252h95l-137 -223h98l17 97l97 25l-48 -273h-93z" />
    <glyph glyph-name="questiondown" unicode="&#xbf;" horiz-adv-x="406" 
d="M360 661c12.667 -14 18.999 -31.333 18.999 -52c0 -23.333 -7.5 -43 -22.5 -59s-33.5 -24 -55.5 -24c-18.667 0 -34.167 7 -46.5 21s-18.5 31.333 -18.5 52c0 23.333 7.5 43 22.5 59s33.167 24 54.5 24c18.667 0 34.334 -7 47.001 -21zM343.999 443
c-6.66699 -48 -19.666 -86.6689 -38.999 -116.002s-45 -59.333 -77 -90c-18.667 -18.667 -32.667 -34.167 -42 -46.5s-15.666 -25.5 -18.999 -39.5c-0.666992 -3.33301 -1 -7.66602 -1 -12.999c0 -16.667 6.5 -29 19.5 -37s30.167 -12 51.5 -12c37.333 0 78.333 12 123 36
l-18 -105c-24.667 -11.333 -48.834 -20 -72.501 -26s-49.834 -9 -78.501 -9c-30.667 0 -59 5.83301 -85 17.5s-46.833 28.167 -62.5 49.5s-23.5 46.333 -23.5 75c0 11.333 1 22.333 3 33c5.33301 25.333 15.5 46.833 30.5 64.5s30.5 33.167 46.5 46.5l31 26
c36.667 31.333 63 59.333 79 84s26.333 55.334 31 92.001h107z" />
    <glyph glyph-name="Agrave" unicode="&#xc0;" horiz-adv-x="573" 
d="M372 157h-188l-67 -157h-147l308 669h174l77 -669h-146zM366 249l-19 280h-5l-119 -280h143zM217 835v136l229 -228h-85z" />
    <glyph glyph-name="Aacute" unicode="&#xc1;" horiz-adv-x="573" 
d="M372 157h-188l-67 -157h-147l308 669h174l77 -669h-146zM366 249l-19 280h-5l-119 -280h143zM503 971v-136l-144 -92h-85z" />
    <glyph glyph-name="Acircumflex" unicode="&#xc2;" horiz-adv-x="573" 
d="M372 157h-188l-67 -157h-147l308 669h174l77 -669h-146zM366 249l-19 280h-5l-119 -280h143zM517 713h-75l-73 63l-81 -63h-92l163 161h46z" />
    <glyph glyph-name="Atilde" unicode="&#xc3;" horiz-adv-x="573" 
d="M372 157h-188l-67 -157h-147l308 669h174l77 -669h-146zM366 249l-19 280h-5l-119 -280h143zM212 810c40 61.333 82.002 92 126.002 92c12.667 0 24 -2.33301 34 -7s21.667 -11.667 35 -21c11.333 -8 21 -14 29 -18s16.333 -6 25 -6c10 0 21.667 6 35 18s23.333 26 30 42
l34 -69c-38.667 -55.333 -79 -83 -121 -83c-14 0 -26.5 2.5 -37.5 7.5s-23.167 12.167 -36.5 21.5c-10 7.33301 -18.5 12.833 -25.5 16.5s-14.5 5.5 -22.5 5.5c-10.667 0 -22.334 -5.83301 -35.001 -17.5s-22.334 -26.167 -29.001 -43.5z" />
    <glyph glyph-name="Adieresis" unicode="&#xc4;" horiz-adv-x="573" 
d="M372 157h-188l-67 -157h-147l308 669h174l77 -669h-146zM366 249l-19 280h-5l-119 -280h143zM247.5 756.5c-11 11 -16.5 24.832 -16.5 41.499c0 20.667 7.66699 38.834 23 54.501s33 23.5 53 23.5c16 0 29.5 -5.5 40.5 -16.5s16.5 -24.833 16.5 -41.5
c0 -20 -7.83301 -38 -23.5 -54s-33.167 -24 -52.5 -24c-16 0 -29.5 5.5 -40.5 16.5zM421 756.499c-10.667 11 -15.999 25.168 -15.999 42.501c0 20 7.83301 37.833 23.5 53.5s33.5 23.5 53.5 23.5c16 0 29.333 -5.5 40 -16.5s16 -24.833 16 -41.5
c0 -20.667 -7.66699 -38.834 -23 -54.501s-33 -23.5 -53 -23.5c-16.667 0 -30.334 5.5 -41.001 16.5z" />
    <glyph glyph-name="Aring" unicode="&#xc5;" horiz-adv-x="573" 
d="M372 157h-188l-67 -157h-147l308 669h174l77 -669h-146zM366 249l-19 280h-5l-119 -280h143zM308.5 736c-20.333 18.667 -30.499 41.666 -30.499 68.999c0 18.667 5.16699 36.334 15.5 53.001s24.333 30.167 42 40.5s36.5 15.5 56.5 15.5c26 0 49.333 -9.33301 70 -28
s31 -41.667 31 -69c0 -19.333 -5.33301 -37.333 -16 -54s-24.834 -30 -42.501 -40s-36.5 -15 -56.5 -15c-26 0 -49.167 9.33301 -69.5 28zM413.501 781.499c9 9.66699 13.5 21.167 13.5 34.5c0 11.333 -3.5 20.833 -10.5 28.5s-15.833 11.5 -26.5 11.5
c-13.333 0 -24.333 -4.66699 -33 -14s-13 -21 -13 -35c0 -11.333 3.5 -20.833 10.5 -28.5s15.833 -11.5 26.5 -11.5c12.667 0 23.5 4.83301 32.5 14.5z" />
    <glyph glyph-name="AE" unicode="&#xc6;" horiz-adv-x="899" 
d="M642 574l-31 -179h198l-15 -92h-199l-35 -198h285l-20 -105h-427l27 157h-158l-93 -157h-165l426 669h495l-17 -95h-271zM442 249l50 290l-171 -290h121z" />
    <glyph glyph-name="Ccedilla" unicode="&#xc7;" horiz-adv-x="565" 
d="M260 491.5c-32 -55 -48.001 -122.501 -48.001 -202.501c0 -62 15.333 -109 46 -141s71 -48 121 -48c26 0 48.833 1.66699 68.5 5s40.167 9 61.5 17l-18 -113c-37.333 -14 -83.666 -21 -138.999 -21c-17.333 0 -34.666 1 -51.999 3l-51 -45h3
c15.333 0 30.666 -6 45.999 -18s23 -31 23 -57c0 -26.667 -11.833 -49.667 -35.5 -69s-51.5 -29 -83.5 -29c-26 0 -51 10.333 -75 31l24 29c21.333 -8 38.666 -12 51.999 -12c14 0 25.333 5.5 34 16.5s13 22.833 13 35.5c0 8.66699 -2.5 16.167 -7.5 22.5
s-13.167 9.5 -24.5 9.5c-9.33301 0 -19.666 -1.66699 -30.999 -5l-20 25l82 75h9c-64 17.333 -112.833 52.333 -146.5 105s-50.5 116 -50.5 190c0 76 13.5 143.167 40.5 201.5s66.5 103.833 118.5 136.5s114 49 186 49c28.667 0 59.167 -3.83301 91.5 -11.5
s59.5 -17.5 81.5 -29.5l-19 -109c-21.333 12.667 -45.833 22.834 -73.5 30.501s-54.167 11.5 -79.5 11.5c-66 0 -115 -27.5 -147 -82.5z" />
    <glyph glyph-name="Egrave" unicode="&#xc8;" horiz-adv-x="551" 
d="M294 574l-31 -179h198l-15 -92h-199l-35 -198h285l-20 -105h-427l117 669h415l-17 -95h-271zM227 835v136l229 -228h-85z" />
    <glyph glyph-name="Eacute" unicode="&#xc9;" horiz-adv-x="551" 
d="M294 574l-31 -179h198l-15 -92h-199l-35 -198h285l-20 -105h-427l117 669h415l-17 -95h-271zM513 971v-136l-144 -92h-85z" />
    <glyph glyph-name="Ecircumflex" unicode="&#xca;" horiz-adv-x="551" 
d="M294 574l-31 -179h198l-15 -92h-199l-35 -198h285l-20 -105h-427l117 669h415l-17 -95h-271zM527 713h-75l-73 63l-81 -63h-92l163 161h46z" />
    <glyph glyph-name="Edieresis" unicode="&#xcb;" horiz-adv-x="551" 
d="M294 574l-31 -179h198l-15 -92h-199l-35 -198h285l-20 -105h-427l117 669h415l-17 -95h-271zM257.5 756.5c-11 11 -16.5 24.832 -16.5 41.499c0 20.667 7.66699 38.834 23 54.501s33 23.5 53 23.5c16 0 29.5 -5.5 40.5 -16.5s16.5 -24.833 16.5 -41.5
c0 -20 -7.83301 -38 -23.5 -54s-33.167 -24 -52.5 -24c-16 0 -29.5 5.5 -40.5 16.5zM431 756.499c-10.667 11 -15.999 25.168 -15.999 42.501c0 20 7.83301 37.833 23.5 53.5s33.5 23.5 53.5 23.5c16 0 29.333 -5.5 40 -16.5s16 -24.833 16 -41.5
c0 -20.667 -7.66699 -38.834 -23 -54.501s-33 -23.5 -53 -23.5c-16.667 0 -30.334 5.5 -41.001 16.5z" />
    <glyph glyph-name="Igrave" unicode="&#xcc;" horiz-adv-x="318" 
d="M167 669h144l-117 -669h-144zM96 835v136l229 -228h-85z" />
    <glyph glyph-name="Iacute" unicode="&#xcd;" horiz-adv-x="318" 
d="M167 669h144l-117 -669h-144zM382 971v-136l-144 -92h-85z" />
    <glyph glyph-name="Icircumflex" unicode="&#xce;" horiz-adv-x="318" 
d="M167 669h144l-117 -669h-144zM396 713h-75l-73 63l-81 -63h-92l163 161h46z" />
    <glyph glyph-name="Idieresis" unicode="&#xcf;" horiz-adv-x="318" 
d="M167 669h144l-117 -669h-144zM126.5 756.5c-11 11 -16.5 24.832 -16.5 41.499c0 20.667 7.66699 38.834 23 54.501s33 23.5 53 23.5c16 0 29.5 -5.5 40.5 -16.5s16.5 -24.833 16.5 -41.5c0 -20 -7.83301 -38 -23.5 -54s-33.167 -24 -52.5 -24c-16 0 -29.5 5.5 -40.5 16.5
zM300 756.499c-10.667 11 -15.999 25.168 -15.999 42.501c0 20 7.83301 37.833 23.5 53.5s33.5 23.5 53.5 23.5c16 0 29.333 -5.5 40 -16.5s16 -24.833 16 -41.5c0 -20.667 -7.66699 -38.834 -23 -54.501s-33 -23.5 -53 -23.5c-16.667 0 -30.334 5.5 -41.001 16.5z" />
    <glyph glyph-name="Eth" unicode="&#xd0;" horiz-adv-x="735" 
d="M83 13.5c-6.66699 9 -9.00098 19.832 -7.00098 32.499l101 578c2.66699 12.667 8.83398 23.334 18.501 32.001s20.834 13 33.501 13h394c10.667 0 19.5 -3.5 26.5 -10.5s10.5 -15.5 10.5 -25.5c0 -4 -0.333008 -7 -1 -9l-101 -578c-2 -12.667 -8.16699 -23.5 -18.5 -32.5
s-21.5 -13.5 -33.5 -13.5h-394c-12.667 0 -22.334 4.5 -29.001 13.5zM581.999 617.999h-328l120 -248zM342.999 334.999l-122 256l-89 -511zM604.999 589.999l-214 -255l125 -256zM480.999 50.999l-119 248l-207 -248h326z" />
    <glyph glyph-name="Ntilde" unicode="&#xd1;" horiz-adv-x="683" 
d="M676 669l-118 -669h-170l-120 498l-88 -498h-130l117 669h170l123 -491l85 491h131zM271 810c40 61.333 82.002 92 126.002 92c12.667 0 24 -2.33301 34 -7s21.667 -11.667 35 -21c11.333 -8 21 -14 29 -18s16.333 -6 25 -6c10 0 21.667 6 35 18s23.333 26 30 42l34 -69
c-38.667 -55.333 -79 -83 -121 -83c-14 0 -26.5 2.5 -37.5 7.5s-23.167 12.167 -36.5 21.5c-10 7.33301 -18.5 12.833 -25.5 16.5s-14.5 5.5 -22.5 5.5c-10.667 0 -22.334 -5.83301 -35.001 -17.5s-22.334 -26.167 -29.001 -43.5z" />
    <glyph glyph-name="Ograve" unicode="&#xd2;" 
d="M119.5 62.5c-41.667 50.333 -62.502 116.834 -62.502 199.501c0 73.333 13.333 142.166 40 206.499s64.834 116 114.501 155s107.834 58.5 174.501 58.5c80 0 141.333 -24.833 184 -74.5s64 -115.834 64 -198.501c0 -75.333 -13.5 -145.166 -40.5 -209.499
s-66 -115.833 -117 -154.5s-110.5 -58 -178.5 -58c-77.333 0 -136.833 25.167 -178.5 75.5zM406.498 148.001c27.667 34 48.3311 77.332 61.998 129.999s20.5 106.667 20.5 162c0 44.667 -8.5 78.334 -25.5 101.001s-43.833 34 -80.5 34
c-39.333 0 -72.666 -17.333 -99.999 -52s-47.666 -78.5 -60.999 -131.5s-20 -106.5 -20 -160.5c0 -44.667 8.16699 -78.167 24.5 -100.5s42.166 -33.5 77.499 -33.5c40.667 0 74.834 17 102.501 51zM260.995 835v136l229 -228h-85z" />
    <glyph glyph-name="Oacute" unicode="&#xd3;" 
d="M119.5 62.5c-41.667 50.333 -62.502 116.834 -62.502 199.501c0 73.333 13.333 142.166 40 206.499s64.834 116 114.501 155s107.834 58.5 174.501 58.5c80 0 141.333 -24.833 184 -74.5s64 -115.834 64 -198.501c0 -75.333 -13.5 -145.166 -40.5 -209.499
s-66 -115.833 -117 -154.5s-110.5 -58 -178.5 -58c-77.333 0 -136.833 25.167 -178.5 75.5zM406.498 148.001c27.667 34 48.3311 77.332 61.998 129.999s20.5 106.667 20.5 162c0 44.667 -8.5 78.334 -25.5 101.001s-43.833 34 -80.5 34
c-39.333 0 -72.666 -17.333 -99.999 -52s-47.666 -78.5 -60.999 -131.5s-20 -106.5 -20 -160.5c0 -44.667 8.16699 -78.167 24.5 -100.5s42.166 -33.5 77.499 -33.5c40.667 0 74.834 17 102.501 51zM546.995 971v-136l-144 -92h-85z" />
    <glyph glyph-name="Ocircumflex" unicode="&#xd4;" 
d="M119.5 62.5c-41.667 50.333 -62.502 116.834 -62.502 199.501c0 73.333 13.333 142.166 40 206.499s64.834 116 114.501 155s107.834 58.5 174.501 58.5c80 0 141.333 -24.833 184 -74.5s64 -115.834 64 -198.501c0 -75.333 -13.5 -145.166 -40.5 -209.499
s-66 -115.833 -117 -154.5s-110.5 -58 -178.5 -58c-77.333 0 -136.833 25.167 -178.5 75.5zM406.498 148.001c27.667 34 48.3311 77.332 61.998 129.999s20.5 106.667 20.5 162c0 44.667 -8.5 78.334 -25.5 101.001s-43.833 34 -80.5 34
c-39.333 0 -72.666 -17.333 -99.999 -52s-47.666 -78.5 -60.999 -131.5s-20 -106.5 -20 -160.5c0 -44.667 8.16699 -78.167 24.5 -100.5s42.166 -33.5 77.499 -33.5c40.667 0 74.834 17 102.501 51zM560.995 713h-75l-73 63l-81 -63h-92l163 161h46z" />
    <glyph glyph-name="Otilde" unicode="&#xd5;" 
d="M119.5 62.5c-41.667 50.333 -62.502 116.834 -62.502 199.501c0 73.333 13.333 142.166 40 206.499s64.834 116 114.501 155s107.834 58.5 174.501 58.5c80 0 141.333 -24.833 184 -74.5s64 -115.834 64 -198.501c0 -75.333 -13.5 -145.166 -40.5 -209.499
s-66 -115.833 -117 -154.5s-110.5 -58 -178.5 -58c-77.333 0 -136.833 25.167 -178.5 75.5zM406.498 148.001c27.667 34 48.3311 77.332 61.998 129.999s20.5 106.667 20.5 162c0 44.667 -8.5 78.334 -25.5 101.001s-43.833 34 -80.5 34
c-39.333 0 -72.666 -17.333 -99.999 -52s-47.666 -78.5 -60.999 -131.5s-20 -106.5 -20 -160.5c0 -44.667 8.16699 -78.167 24.5 -100.5s42.166 -33.5 77.499 -33.5c40.667 0 74.834 17 102.501 51zM255.995 810c40 61.333 82.002 92 126.002 92c12.667 0 24 -2.33301 34 -7
s21.667 -11.667 35 -21c11.333 -8 21 -14 29 -18s16.333 -6 25 -6c10 0 21.667 6 35 18s23.333 26 30 42l34 -69c-38.667 -55.333 -79 -83 -121 -83c-14 0 -26.5 2.5 -37.5 7.5s-23.167 12.167 -36.5 21.5c-10 7.33301 -18.5 12.833 -25.5 16.5s-14.5 5.5 -22.5 5.5
c-10.667 0 -22.334 -5.83301 -35.001 -17.5s-22.334 -26.167 -29.001 -43.5z" />
    <glyph glyph-name="Odieresis" unicode="&#xd6;" 
d="M119.5 62.5c-41.667 50.333 -62.502 116.834 -62.502 199.501c0 73.333 13.333 142.166 40 206.499s64.834 116 114.501 155s107.834 58.5 174.501 58.5c80 0 141.333 -24.833 184 -74.5s64 -115.834 64 -198.501c0 -75.333 -13.5 -145.166 -40.5 -209.499
s-66 -115.833 -117 -154.5s-110.5 -58 -178.5 -58c-77.333 0 -136.833 25.167 -178.5 75.5zM406.498 148.001c27.667 34 48.3311 77.332 61.998 129.999s20.5 106.667 20.5 162c0 44.667 -8.5 78.334 -25.5 101.001s-43.833 34 -80.5 34
c-39.333 0 -72.666 -17.333 -99.999 -52s-47.666 -78.5 -60.999 -131.5s-20 -106.5 -20 -160.5c0 -44.667 8.16699 -78.167 24.5 -100.5s42.166 -33.5 77.499 -33.5c40.667 0 74.834 17 102.501 51zM291.495 756.5c-11 11 -16.5 24.832 -16.5 41.499
c0 20.667 7.66699 38.834 23 54.501s33 23.5 53 23.5c16 0 29.5 -5.5 40.5 -16.5s16.5 -24.833 16.5 -41.5c0 -20 -7.83301 -38 -23.5 -54s-33.167 -24 -52.5 -24c-16 0 -29.5 5.5 -40.5 16.5zM464.995 756.499c-10.667 11 -15.999 25.168 -15.999 42.501
c0 20 7.83301 37.833 23.5 53.5s33.5 23.5 53.5 23.5c16 0 29.333 -5.5 40 -16.5s16 -24.833 16 -41.5c0 -20.667 -7.66699 -38.834 -23 -54.501s-33 -23.5 -53 -23.5c-16.667 0 -30.334 5.5 -41.001 16.5z" />
    <glyph glyph-name="multiply" unicode="&#xd7;" horiz-adv-x="406" 
d="M3 81l169 148l-117 148l39 35l118 -149l169 147l27 -33l-169 -148l117 -148l-39 -34l-119 147l-168 -147z" />
    <glyph glyph-name="Oslash" unicode="&#xd8;" 
d="M634 409c0 -75.333 -13.502 -145.166 -40.502 -209.499s-66 -115.833 -117 -154.5s-110.5 -58 -178.5 -58c-72.667 0 -130.667 23.333 -174 70l-63 -72v53l42 47c-30.667 46.667 -46 105.667 -46 177c0 73.333 13.333 142.166 40 206.499s64.834 116 114.501 155
s107.834 58.5 174.501 58.5c76.667 0 136.667 -23.333 180 -70l65 73v-53l-43 -48c30.667 -46.667 46 -105 46 -175zM202.998 200l275.998 312c-15.333 42 -47.333 63 -96 63c-39.333 0 -72.666 -17.333 -99.999 -52s-47.666 -78.5 -60.999 -131.5s-20 -106.5 -20 -160.5
c0 -14.667 0.333008 -25 1 -31zM406.496 148c27.667 34 48.332 77.333 61.999 130s20.5 106.667 20.5 162c0 13.333 -0.333008 23 -1 29l-275 -312c14 -40 44.333 -60 91 -60c40.667 0 74.834 17 102.501 51z" />
    <glyph glyph-name="Ugrave" unicode="&#xd9;" horiz-adv-x="657" 
d="M81 184c0 22 2.66602 48.333 7.99902 79l72 406h143l-74 -421c-0.666992 -3.33301 -2.16699 -12.166 -4.5 -26.499s-3.5 -28.833 -3.5 -43.5c0 -20.667 7 -38.834 21 -54.501s38 -23.5 72 -23.5c38.667 0 68.834 14 90.501 42s36.167 62.333 43.5 103l73 424h135
l-77 -440c-14 -78 -43.667 -137.833 -89 -179.5s-107 -62.5 -185 -62.5c-150 0 -225 65.667 -225 197zM263.999 835v136l229 -228h-85z" />
    <glyph glyph-name="Uacute" unicode="&#xda;" horiz-adv-x="657" 
d="M81 184c0 22 2.66602 48.333 7.99902 79l72 406h143l-74 -421c-0.666992 -3.33301 -2.16699 -12.166 -4.5 -26.499s-3.5 -28.833 -3.5 -43.5c0 -20.667 7 -38.834 21 -54.501s38 -23.5 72 -23.5c38.667 0 68.834 14 90.501 42s36.167 62.333 43.5 103l73 424h135
l-77 -440c-14 -78 -43.667 -137.833 -89 -179.5s-107 -62.5 -185 -62.5c-150 0 -225 65.667 -225 197zM549.999 971v-136l-144 -92h-85z" />
    <glyph glyph-name="Ucircumflex" unicode="&#xdb;" horiz-adv-x="657" 
d="M81 184c0 22 2.66602 48.333 7.99902 79l72 406h143l-74 -421c-0.666992 -3.33301 -2.16699 -12.166 -4.5 -26.499s-3.5 -28.833 -3.5 -43.5c0 -20.667 7 -38.834 21 -54.501s38 -23.5 72 -23.5c38.667 0 68.834 14 90.501 42s36.167 62.333 43.5 103l73 424h135
l-77 -440c-14 -78 -43.667 -137.833 -89 -179.5s-107 -62.5 -185 -62.5c-150 0 -225 65.667 -225 197zM563.999 713h-75l-73 63l-81 -63h-92l163 161h46z" />
    <glyph glyph-name="Udieresis" unicode="&#xdc;" horiz-adv-x="657" 
d="M81 184c0 22 2.66602 48.333 7.99902 79l72 406h143l-74 -421c-0.666992 -3.33301 -2.16699 -12.166 -4.5 -26.499s-3.5 -28.833 -3.5 -43.5c0 -20.667 7 -38.834 21 -54.501s38 -23.5 72 -23.5c38.667 0 68.834 14 90.501 42s36.167 62.333 43.5 103l73 424h135
l-77 -440c-14 -78 -43.667 -137.833 -89 -179.5s-107 -62.5 -185 -62.5c-150 0 -225 65.667 -225 197zM294.499 756.5c-11 11 -16.5 24.832 -16.5 41.499c0 20.667 7.66699 38.834 23 54.501s33 23.5 53 23.5c16 0 29.5 -5.5 40.5 -16.5s16.5 -24.833 16.5 -41.5
c0 -20 -7.83301 -38 -23.5 -54s-33.167 -24 -52.5 -24c-16 0 -29.5 5.5 -40.5 16.5zM467.999 756.499c-10.667 11 -15.999 25.168 -15.999 42.501c0 20 7.83301 37.833 23.5 53.5s33.5 23.5 53.5 23.5c16 0 29.333 -5.5 40 -16.5s16 -24.833 16 -41.5
c0 -20.667 -7.66699 -38.834 -23 -54.501s-33 -23.5 -53 -23.5c-16.667 0 -30.334 5.5 -41.001 16.5z" />
    <glyph glyph-name="Yacute" unicode="&#xdd;" horiz-adv-x="549" 
d="M346 220l-39 -220h-141l39 227l-115 442h143l67 -297l169 297h150zM503 971v-136l-144 -92h-85z" />
    <glyph glyph-name="Thorn" unicode="&#xde;" horiz-adv-x="735" 
d="M83 13.5c-6.66699 9 -9.00098 19.832 -7.00098 32.499l101 578c2.66699 12.667 8.83398 23.334 18.501 32.001s20.834 13 33.501 13h394c10.667 0 19.5 -3.5 26.5 -10.5s10.5 -15.5 10.5 -25.5c0 -4 -0.333008 -7 -1 -9l-101 -578c-2 -12.667 -8.16699 -23.5 -18.5 -32.5
s-21.5 -13.5 -33.5 -13.5h-394c-12.667 0 -22.334 4.5 -29.001 13.5zM581.999 617.999h-328l120 -248zM342.999 334.999l-122 256l-89 -511zM604.999 589.999l-214 -255l125 -256zM480.999 50.999l-119 248l-207 -248h326z" />
    <glyph glyph-name="germandbls" unicode="&#xdf;" horiz-adv-x="555" 
d="M177 16l17.0039 95.999c34.667 -27.333 69.667 -41 105 -41c23.333 0 42 5.83301 56 17.5s21 28.167 21 49.5c0 18 -4.83301 33.833 -14.5 47.5s-24.834 30.834 -45.501 51.501c-22 22 -38.333 40.667 -49 56s-16 33.333 -16 54c0 26 6.66699 46.667 20 62
s32.666 31 57.999 47c21.333 14 37.5 26.333 48.5 37s17.833 24.334 20.5 41.001c0.666992 2.66699 1 6.66699 1 12c0 17.333 -6.33301 30.5 -19 39.5s-28.334 13.5 -47.001 13.5c-28.667 0 -51.334 -9.33301 -68.001 -28s-28.334 -48.334 -35.001 -89.001l-85 -482h-126
l90 510c10 57.333 35 99.833 75 127.5s90 41.5 150 41.5c52 0 95 -11.833 129 -35.5s51 -56.834 51 -99.501c0 -32 -7.83301 -57.5 -23.5 -76.5s-37.167 -37.5 -64.5 -55.5c-17.333 -12 -29.666 -21.667 -36.999 -29s-11 -16 -11 -26c0 -9.33301 3.83301 -19 11.5 -29
s19.5 -22.667 35.5 -38c27.333 -27.333 48.333 -52.166 63 -74.499s22 -48.833 22 -79.5c0 -11.333 -0.666992 -20.333 -2 -27c-6.66699 -34.667 -27.167 -63.5 -61.5 -86.5s-81.5 -34.5 -141.5 -34.5c-45.333 0 -88 9.33301 -128 28z" />
    <glyph glyph-name="agrave" unicode="&#xe0;" horiz-adv-x="505" 
d="M63.5 39c-23.667 34.667 -35.499 78 -35.499 130c0 46.667 8.33301 91 25 133s40.334 75.833 71.001 101.5s65.334 38.5 104.001 38.5c27.333 0 50.666 -6.83301 69.999 -20.5s32.333 -32.834 39 -57.501l11 60h128l-49 -284c-2.66699 -14 -4 -26 -4 -36
c0 -11.333 1.66699 -18.666 5 -21.999s8.66602 -5 15.999 -5c6.66699 0 13 0.666992 19 2l16 -68c-38 -16 -71.333 -24 -100 -24c-22 0 -41.333 5.5 -58 16.5s-26.334 28.833 -29.001 53.5c-15.333 -22.667 -34.166 -40 -56.499 -52s-45.5 -18 -69.5 -18
c-44.667 0 -78.834 17.333 -102.501 52zM266.501 113.5c15.667 15.667 28.001 35.667 37.001 60s13.5 48.5 13.5 72.5c0 27.333 -5.33301 50.166 -16 68.499s-25 27.5 -43 27.5c-20.667 0 -38.334 -8.16699 -53.001 -24.5s-25.667 -36.666 -33 -60.999s-11 -48.5 -11 -72.5
c0 -28 5.16699 -50.667 15.5 -68s23.166 -26 38.499 -26c18.667 0 35.834 7.83301 51.501 23.5zM142.002 590v136l229 -228h-85z" />
    <glyph glyph-name="aacute" unicode="&#xe1;" horiz-adv-x="505" 
d="M63.5 39c-23.667 34.667 -35.499 78 -35.499 130c0 46.667 8.33301 91 25 133s40.334 75.833 71.001 101.5s65.334 38.5 104.001 38.5c27.333 0 50.666 -6.83301 69.999 -20.5s32.333 -32.834 39 -57.501l11 60h128l-49 -284c-2.66699 -14 -4 -26 -4 -36
c0 -11.333 1.66699 -18.666 5 -21.999s8.66602 -5 15.999 -5c6.66699 0 13 0.666992 19 2l16 -68c-38 -16 -71.333 -24 -100 -24c-22 0 -41.333 5.5 -58 16.5s-26.334 28.833 -29.001 53.5c-15.333 -22.667 -34.166 -40 -56.499 -52s-45.5 -18 -69.5 -18
c-44.667 0 -78.834 17.333 -102.501 52zM266.501 113.5c15.667 15.667 28.001 35.667 37.001 60s13.5 48.5 13.5 72.5c0 27.333 -5.33301 50.166 -16 68.499s-25 27.5 -43 27.5c-20.667 0 -38.334 -8.16699 -53.001 -24.5s-25.667 -36.666 -33 -60.999s-11 -48.5 -11 -72.5
c0 -28 5.16699 -50.667 15.5 -68s23.166 -26 38.499 -26c18.667 0 35.834 7.83301 51.501 23.5zM428.002 726v-136l-144 -92h-85z" />
    <glyph glyph-name="acircumflex" unicode="&#xe2;" horiz-adv-x="505" 
d="M63.5 39c-23.667 34.667 -35.499 78 -35.499 130c0 46.667 8.33301 91 25 133s40.334 75.833 71.001 101.5s65.334 38.5 104.001 38.5c27.333 0 50.666 -6.83301 69.999 -20.5s32.333 -32.834 39 -57.501l11 60h128l-49 -284c-2.66699 -14 -4 -26 -4 -36
c0 -11.333 1.66699 -18.666 5 -21.999s8.66602 -5 15.999 -5c6.66699 0 13 0.666992 19 2l16 -68c-38 -16 -71.333 -24 -100 -24c-22 0 -41.333 5.5 -58 16.5s-26.334 28.833 -29.001 53.5c-15.333 -22.667 -34.166 -40 -56.499 -52s-45.5 -18 -69.5 -18
c-44.667 0 -78.834 17.333 -102.501 52zM266.501 113.5c15.667 15.667 28.001 35.667 37.001 60s13.5 48.5 13.5 72.5c0 27.333 -5.33301 50.166 -16 68.499s-25 27.5 -43 27.5c-20.667 0 -38.334 -8.16699 -53.001 -24.5s-25.667 -36.666 -33 -60.999s-11 -48.5 -11 -72.5
c0 -28 5.16699 -50.667 15.5 -68s23.166 -26 38.499 -26c18.667 0 35.834 7.83301 51.501 23.5zM438.002 498h-75l-73 63l-81 -63h-92l163 161h46z" />
    <glyph glyph-name="atilde" unicode="&#xe3;" horiz-adv-x="505" 
d="M63.5 39c-23.667 34.667 -35.499 78 -35.499 130c0 46.667 8.33301 91 25 133s40.334 75.833 71.001 101.5s65.334 38.5 104.001 38.5c27.333 0 50.666 -6.83301 69.999 -20.5s32.333 -32.834 39 -57.501l11 60h128l-49 -284c-2.66699 -14 -4 -26 -4 -36
c0 -11.333 1.66699 -18.666 5 -21.999s8.66602 -5 15.999 -5c6.66699 0 13 0.666992 19 2l16 -68c-38 -16 -71.333 -24 -100 -24c-22 0 -41.333 5.5 -58 16.5s-26.334 28.833 -29.001 53.5c-15.333 -22.667 -34.166 -40 -56.499 -52s-45.5 -18 -69.5 -18
c-44.667 0 -78.834 17.333 -102.501 52zM266.501 113.5c15.667 15.667 28.001 35.667 37.001 60s13.5 48.5 13.5 72.5c0 27.333 -5.33301 50.166 -16 68.499s-25 27.5 -43 27.5c-20.667 0 -38.334 -8.16699 -53.001 -24.5s-25.667 -36.666 -33 -60.999s-11 -48.5 -11 -72.5
c0 -28 5.16699 -50.667 15.5 -68s23.166 -26 38.499 -26c18.667 0 35.834 7.83301 51.501 23.5zM137.002 565c40 61.333 82.002 92 126.002 92c12.667 0 24 -2.33301 34 -7s21.667 -11.667 35 -21c11.333 -8 21 -14 29 -18s16.333 -6 25 -6c10 0 21.667 6 35 18
s23.333 26 30 42l34 -69c-38.667 -55.333 -79 -83 -121 -83c-14 0 -26.5 2.5 -37.5 7.5s-23.167 12.167 -36.5 21.5c-10 7.33301 -18.5 12.833 -25.5 16.5s-14.5 5.5 -22.5 5.5c-10.667 0 -22.334 -5.83301 -35.001 -17.5s-22.334 -26.167 -29.001 -43.5z" />
    <glyph glyph-name="adieresis" unicode="&#xe4;" horiz-adv-x="505" 
d="M63.5 39c-23.667 34.667 -35.499 78 -35.499 130c0 46.667 8.33301 91 25 133s40.334 75.833 71.001 101.5s65.334 38.5 104.001 38.5c27.333 0 50.666 -6.83301 69.999 -20.5s32.333 -32.834 39 -57.501l11 60h128l-49 -284c-2.66699 -14 -4 -26 -4 -36
c0 -11.333 1.66699 -18.666 5 -21.999s8.66602 -5 15.999 -5c6.66699 0 13 0.666992 19 2l16 -68c-38 -16 -71.333 -24 -100 -24c-22 0 -41.333 5.5 -58 16.5s-26.334 28.833 -29.001 53.5c-15.333 -22.667 -34.166 -40 -56.499 -52s-45.5 -18 -69.5 -18
c-44.667 0 -78.834 17.333 -102.501 52zM266.501 113.5c15.667 15.667 28.001 35.667 37.001 60s13.5 48.5 13.5 72.5c0 27.333 -5.33301 50.166 -16 68.499s-25 27.5 -43 27.5c-20.667 0 -38.334 -8.16699 -53.001 -24.5s-25.667 -36.666 -33 -60.999s-11 -48.5 -11 -72.5
c0 -28 5.16699 -50.667 15.5 -68s23.166 -26 38.499 -26c18.667 0 35.834 7.83301 51.501 23.5zM177.502 539.5c-11 11 -16.5 24.832 -16.5 41.499c0 20.667 7.66699 38.834 23 54.501s33 23.5 53 23.5c16 0 29.5 -5.5 40.5 -16.5s16.5 -24.833 16.5 -41.5
c0 -20 -7.83301 -38 -23.5 -54s-33.167 -24 -52.5 -24c-16 0 -29.5 5.5 -40.5 16.5zM351.002 539.499c-10.667 11 -15.999 25.168 -15.999 42.501c0 20 7.83301 37.833 23.5 53.5s33.5 23.5 53.5 23.5c16 0 29.333 -5.5 40 -16.5s16 -24.833 16 -41.5
c0 -20.667 -7.66699 -38.834 -23 -54.501s-33 -23.5 -53 -23.5c-16.667 0 -30.334 5.5 -41.001 16.5z" />
    <glyph glyph-name="aring" unicode="&#xe5;" horiz-adv-x="505" 
d="M63.5 39c-23.667 34.667 -35.499 78 -35.499 130c0 46.667 8.33301 91 25 133s40.334 75.833 71.001 101.5s65.334 38.5 104.001 38.5c27.333 0 50.666 -6.83301 69.999 -20.5s32.333 -32.834 39 -57.501l11 60h128l-49 -284c-2.66699 -14 -4 -26 -4 -36
c0 -11.333 1.66699 -18.666 5 -21.999s8.66602 -5 15.999 -5c6.66699 0 13 0.666992 19 2l16 -68c-38 -16 -71.333 -24 -100 -24c-22 0 -41.333 5.5 -58 16.5s-26.334 28.833 -29.001 53.5c-15.333 -22.667 -34.166 -40 -56.499 -52s-45.5 -18 -69.5 -18
c-44.667 0 -78.834 17.333 -102.501 52zM266.501 113.5c15.667 15.667 28.001 35.667 37.001 60s13.5 48.5 13.5 72.5c0 27.333 -5.33301 50.166 -16 68.499s-25 27.5 -43 27.5c-20.667 0 -38.334 -8.16699 -53.001 -24.5s-25.667 -36.666 -33 -60.999s-11 -48.5 -11 -72.5
c0 -28 5.16699 -50.667 15.5 -68s23.166 -26 38.499 -26c18.667 0 35.834 7.83301 51.501 23.5zM240.502 531c-20.333 18.667 -30.499 41.666 -30.499 68.999c0 18.667 5.16699 36.334 15.5 53.001s24.333 30.167 42 40.5s36.5 15.5 56.5 15.5c26 0 49.333 -9.33301 70 -28
s31 -41.667 31 -69c0 -19.333 -5.33301 -37.333 -16 -54s-24.834 -30 -42.501 -40s-36.5 -15 -56.5 -15c-26 0 -49.167 9.33301 -69.5 28zM345.503 576.499c9 9.66699 13.5 21.167 13.5 34.5c0 11.333 -3.5 20.833 -10.5 28.5s-15.833 11.5 -26.5 11.5
c-13.333 0 -24.333 -4.66699 -33 -14s-13 -21 -13 -35c0 -11.333 3.5 -20.833 10.5 -28.5s15.833 -11.5 26.5 -11.5c12.667 0 23.5 4.83301 32.5 14.5z" />
    <glyph glyph-name="ae" unicode="&#xe6;" horiz-adv-x="737" 
d="M523.5 182c-15.667 2 -32.4971 6.00195 -50.4971 12.002v-2c0 -34 10.667 -60.333 32 -79s52.666 -28 93.999 -28c16 0 29.333 1.16699 40 3.5s23.667 6.83301 39 13.5l-18 -97c-30 -12 -66 -18 -108 -18c-62.667 0 -110.334 18.333 -143.001 55l-7 -42h-128l9 52
c-15.333 -21.333 -33.166 -37.5 -53.499 -48.5s-41.5 -16.5 -63.5 -16.5c-44.667 0 -78.834 17.333 -102.501 52s-35.5 78 -35.5 130c0 24 1.66699 44.333 5 61c10 58.667 32.333 108.667 67 150s77.334 62 128.001 62c27.333 0 50.666 -6.83301 69.999 -20.5
s32.333 -32.834 39 -57.501l11 60h128l-4 -20c34 25.333 71.667 38 113 38c29.333 0 54.666 -6.33301 75.999 -19s37.666 -29.334 48.999 -50.001s17 -42.667 17 -66c0 -35.333 -13.167 -65.5 -39.5 -90.5s-64.166 -37.5 -113.499 -37.5c-18 0 -34.833 1 -50.5 3z
M516.003 327.502c-13.333 -15.667 -24 -35.834 -32 -60.501c18.667 -7.33301 36 -11 52 -11c22.667 0 40.667 4.5 54 13.5s20 22.167 20 39.5c0 10.667 -4 20.334 -12 29.001s-19.667 13 -35 13c-18 0 -33.667 -7.83301 -47 -23.5zM317.003 246.002
c0 27.333 -5.33105 50.167 -15.998 68.5s-25 27.5 -43 27.5c-23.333 0 -43.333 -10.833 -60 -32.5s-28 -51.5 -34 -89.5c-2 -12.667 -3 -24.667 -3 -36c0 -28 5.16699 -50.667 15.5 -68s23.166 -26 38.499 -26c22 0 42.667 12 62 36s31.666 52 36.999 84c2 12 3 24 3 36z
" />
    <glyph glyph-name="ccedilla" unicode="&#xe7;" horiz-adv-x="404" 
d="M192 301c-22.667 -27.333 -34.001 -61.334 -34.001 -102.001c0 -33.333 10.5 -60.333 31.5 -81s46.167 -31 75.5 -31c18 0 33.167 1.16699 45.5 3.5s26.5 6.83301 42.5 13.5l-17 -98c-23.333 -8.66699 -49.333 -14.667 -78 -18l-45 -39h2
c14 0 27.833 -5.16699 41.5 -15.5s20.5 -26.833 20.5 -49.5c0 -26 -11 -48.5 -33 -67.5s-47.333 -28.5 -76 -28.5c-24.667 0 -49 7.66699 -73 23l26 33c17.333 -7.33301 32.333 -11 45 -11s23.167 5 31.5 15s12.5 20.333 12.5 31c0 8.66699 -2.33301 16.334 -7 23.001
s-11.667 10 -21 10c-10.667 0 -20 -2 -28 -6l-18 24l63 58c-50 5.33301 -91.167 26.333 -123.5 63s-48.5 83 -48.5 139c0 48 10.333 91.167 31 129.5s49.334 68.333 86.001 90s78.667 32.5 126 32.5c42 0 81 -7.33301 117 -22l-17 -97c-29.333 12.667 -57.333 19 -84 19
c-40 0 -71.333 -13.667 -94 -41z" />
    <glyph glyph-name="egrave" unicode="&#xe8;" horiz-adv-x="418" 
d="M154 197l0.00195312 -5c0 -34 10.667 -60.333 32 -79s52.666 -28 93.999 -28c16 0 29.333 1.16699 40 3.5s23.667 6.83301 39 13.5l-18 -97c-30 -12 -66 -18 -108 -18c-61.333 0 -110.833 18.167 -148.5 54.5s-56.5 85.5 -56.5 147.5
c0 46.667 8.83301 89.334 26.5 128.001s43 69.167 76 91.5s71.5 33.5 115.5 33.5c34.667 0 64.167 -6.33301 88.5 -19s42.666 -29.334 54.999 -50.001s18.5 -42.667 18.5 -66c0 -35.333 -13.167 -65.5 -39.5 -90.5s-64.166 -37.5 -113.499 -37.5
c-30.667 0 -64.334 6 -101.001 18zM197.002 327.5c-13.333 -15.667 -24 -35.834 -32 -60.501c18.667 -7.33301 36 -11 52 -11c22.667 0 40.667 4.5 54 13.5s20 22.167 20 39.5c0 10.667 -4 20.334 -12 29.001s-19.667 13 -35 13c-18 0 -33.667 -7.83301 -47 -23.5z
M88.002 590v136l229 -228h-85z" />
    <glyph glyph-name="eacute" unicode="&#xe9;" horiz-adv-x="418" 
d="M154 197l0.00195312 -5c0 -34 10.667 -60.333 32 -79s52.666 -28 93.999 -28c16 0 29.333 1.16699 40 3.5s23.667 6.83301 39 13.5l-18 -97c-30 -12 -66 -18 -108 -18c-61.333 0 -110.833 18.167 -148.5 54.5s-56.5 85.5 -56.5 147.5
c0 46.667 8.83301 89.334 26.5 128.001s43 69.167 76 91.5s71.5 33.5 115.5 33.5c34.667 0 64.167 -6.33301 88.5 -19s42.666 -29.334 54.999 -50.001s18.5 -42.667 18.5 -66c0 -35.333 -13.167 -65.5 -39.5 -90.5s-64.166 -37.5 -113.499 -37.5
c-30.667 0 -64.334 6 -101.001 18zM197.002 327.5c-13.333 -15.667 -24 -35.834 -32 -60.501c18.667 -7.33301 36 -11 52 -11c22.667 0 40.667 4.5 54 13.5s20 22.167 20 39.5c0 10.667 -4 20.334 -12 29.001s-19.667 13 -35 13c-18 0 -33.667 -7.83301 -47 -23.5z
M374.002 726v-136l-144 -92h-85z" />
    <glyph glyph-name="ecircumflex" unicode="&#xea;" horiz-adv-x="418" 
d="M154 197l0.00195312 -5c0 -34 10.667 -60.333 32 -79s52.666 -28 93.999 -28c16 0 29.333 1.16699 40 3.5s23.667 6.83301 39 13.5l-18 -97c-30 -12 -66 -18 -108 -18c-61.333 0 -110.833 18.167 -148.5 54.5s-56.5 85.5 -56.5 147.5
c0 46.667 8.83301 89.334 26.5 128.001s43 69.167 76 91.5s71.5 33.5 115.5 33.5c34.667 0 64.167 -6.33301 88.5 -19s42.666 -29.334 54.999 -50.001s18.5 -42.667 18.5 -66c0 -35.333 -13.167 -65.5 -39.5 -90.5s-64.166 -37.5 -113.499 -37.5
c-30.667 0 -64.334 6 -101.001 18zM197.002 327.5c-13.333 -15.667 -24 -35.834 -32 -60.501c18.667 -7.33301 36 -11 52 -11c22.667 0 40.667 4.5 54 13.5s20 22.167 20 39.5c0 10.667 -4 20.334 -12 29.001s-19.667 13 -35 13c-18 0 -33.667 -7.83301 -47 -23.5z
M384.002 498h-75l-73 63l-81 -63h-92l163 161h46z" />
    <glyph glyph-name="edieresis" unicode="&#xeb;" horiz-adv-x="418" 
d="M154 197l0.00195312 -5c0 -34 10.667 -60.333 32 -79s52.666 -28 93.999 -28c16 0 29.333 1.16699 40 3.5s23.667 6.83301 39 13.5l-18 -97c-30 -12 -66 -18 -108 -18c-61.333 0 -110.833 18.167 -148.5 54.5s-56.5 85.5 -56.5 147.5
c0 46.667 8.83301 89.334 26.5 128.001s43 69.167 76 91.5s71.5 33.5 115.5 33.5c34.667 0 64.167 -6.33301 88.5 -19s42.666 -29.334 54.999 -50.001s18.5 -42.667 18.5 -66c0 -35.333 -13.167 -65.5 -39.5 -90.5s-64.166 -37.5 -113.499 -37.5
c-30.667 0 -64.334 6 -101.001 18zM197.002 327.5c-13.333 -15.667 -24 -35.834 -32 -60.501c18.667 -7.33301 36 -11 52 -11c22.667 0 40.667 4.5 54 13.5s20 22.167 20 39.5c0 10.667 -4 20.334 -12 29.001s-19.667 13 -35 13c-18 0 -33.667 -7.83301 -47 -23.5z
M123.502 539.5c-11 11 -16.5 24.832 -16.5 41.499c0 20.667 7.66699 38.834 23 54.501s33 23.5 53 23.5c16 0 29.5 -5.5 40.5 -16.5s16.5 -24.833 16.5 -41.5c0 -20 -7.83301 -38 -23.5 -54s-33.167 -24 -52.5 -24c-16 0 -29.5 5.5 -40.5 16.5zM297.002 539.499
c-10.667 11 -15.999 25.168 -15.999 42.501c0 20 7.83301 37.833 23.5 53.5s33.5 23.5 53.5 23.5c16 0 29.333 -5.5 40 -16.5s16 -24.833 16 -41.5c0 -20.667 -7.66699 -38.834 -23 -54.501s-33 -23.5 -53 -23.5c-16.667 0 -30.334 5.5 -41.001 16.5z" />
    <glyph glyph-name="igrave" unicode="&#xec;" horiz-adv-x="316" 
d="M130 424h130l-74 -424h-130zM52 590v136l229 -228h-85z" />
    <glyph glyph-name="iacute" unicode="&#xed;" horiz-adv-x="316" 
d="M130 424h130l-74 -424h-130zM338 726v-136l-144 -92h-85z" />
    <glyph glyph-name="icircumflex" unicode="&#xee;" horiz-adv-x="316" 
d="M130 424h130l-74 -424h-130zM348 498h-75l-73 63l-81 -63h-92l163 161h46z" />
    <glyph glyph-name="idieresis" unicode="&#xef;" horiz-adv-x="316" 
d="M130 424h130l-74 -424h-130zM87.5 539.5c-11 11 -16.5 24.832 -16.5 41.499c0 20.667 7.66699 38.834 23 54.501s33 23.5 53 23.5c16 0 29.5 -5.5 40.5 -16.5s16.5 -24.833 16.5 -41.5c0 -20 -7.83301 -38 -23.5 -54s-33.167 -24 -52.5 -24c-16 0 -29.5 5.5 -40.5 16.5z
M261 539.499c-10.667 11 -15.999 25.168 -15.999 42.501c0 20 7.83301 37.833 23.5 53.5s33.5 23.5 53.5 23.5c16 0 29.333 -5.5 40 -16.5s16 -24.833 16 -41.5c0 -20.667 -7.66699 -38.834 -23 -54.501s-33 -23.5 -53 -23.5c-16.667 0 -30.334 5.5 -41.001 16.5z" />
    <glyph glyph-name="eth" unicode="&#xf0;" horiz-adv-x="735" 
d="M83 13.5c-6.66699 9 -9.00098 19.832 -7.00098 32.499l101 578c2.66699 12.667 8.83398 23.334 18.501 32.001s20.834 13 33.501 13h394c10.667 0 19.5 -3.5 26.5 -10.5s10.5 -15.5 10.5 -25.5c0 -4 -0.333008 -7 -1 -9l-101 -578c-2 -12.667 -8.16699 -23.5 -18.5 -32.5
s-21.5 -13.5 -33.5 -13.5h-394c-12.667 0 -22.334 4.5 -29.001 13.5zM581.999 617.999h-328l120 -248zM342.999 334.999l-122 256l-89 -511zM604.999 589.999l-214 -255l125 -256zM480.999 50.999l-119 248l-207 -248h326z" />
    <glyph glyph-name="ntilde" unicode="&#xf1;" horiz-adv-x="509" 
d="M320.5 9.5c-17 15 -25.501 35.5 -25.501 61.5c0 12.667 2.66699 31.334 8 56.001l24 111c4 19.333 6 34.666 6 45.999c0 19.333 -3.5 32.833 -10.5 40.5s-15.167 11.5 -24.5 11.5c-28.667 0 -54.667 -19.667 -78 -59s-40.666 -91.666 -51.999 -156.999l-20 -120h-129
l74 424h129l-12 -64c48 54.667 98 82 150 82c36.667 0 63.834 -10.833 81.501 -32.5s26.5 -50.167 26.5 -85.5c0 -21.333 -2.33301 -41.333 -7 -60l-29 -125c-2.66699 -13.333 -4 -25 -4 -35c0 -11.333 2 -18.833 6 -22.5s9.66699 -5.5 17 -5.5l20 2l15 -67
c-20.667 -8.66699 -38.834 -14.834 -54.501 -18.501s-32.167 -5.5 -49.5 -5.5c-24 0 -44.5 7.5 -61.5 22.5zM162.999 565c40 61.333 82.002 92 126.002 92c12.667 0 24 -2.33301 34 -7s21.667 -11.667 35 -21c11.333 -8 21 -14 29 -18s16.333 -6 25 -6c10 0 21.667 6 35 18
s23.333 26 30 42l34 -69c-38.667 -55.333 -79 -83 -121 -83c-14 0 -26.5 2.5 -37.5 7.5s-23.167 12.167 -36.5 21.5c-10 7.33301 -18.5 12.833 -25.5 16.5s-14.5 5.5 -22.5 5.5c-10.667 0 -22.334 -5.83301 -35.001 -17.5s-22.334 -26.167 -29.001 -43.5z" />
    <glyph glyph-name="ograve" unicode="&#xf2;" horiz-adv-x="472" 
d="M69 39c-30 34.667 -44.998 79.333 -44.998 134c0 49.333 10.5 94.5 31.5 135.5s50.167 73.5 87.5 97.5s80 36 128 36c36.667 0 68.167 -8.5 94.5 -25.5s46.5 -40 60.5 -69s21 -61.167 21 -96.5c0 -50 -10.333 -95 -31 -135s-49.834 -71.5 -87.501 -94.5
s-80.834 -34.5 -129.501 -34.5c-56.667 0 -100 17.333 -130 52zM266.002 110.999c14.667 21.333 25.833 47.166 33.5 77.499s11.5 58.5 11.5 84.5c0 25.333 -4.16699 44.5 -12.5 57.5s-20.833 19.5 -37.5 19.5c-20.667 0 -38.5 -9.66699 -53.5 -29
s-26.333 -43.666 -34 -72.999s-11.5 -58 -11.5 -86c0 -27.333 4.5 -48 13.5 -62s21.833 -21 38.5 -21c20 0 37.333 10.667 52 32zM129.001 589.999v136l229 -228h-85z" />
    <glyph glyph-name="oacute" unicode="&#xf3;" horiz-adv-x="472" 
d="M69 39c-30 34.667 -44.998 79.333 -44.998 134c0 49.333 10.5 94.5 31.5 135.5s50.167 73.5 87.5 97.5s80 36 128 36c36.667 0 68.167 -8.5 94.5 -25.5s46.5 -40 60.5 -69s21 -61.167 21 -96.5c0 -50 -10.333 -95 -31 -135s-49.834 -71.5 -87.501 -94.5
s-80.834 -34.5 -129.501 -34.5c-56.667 0 -100 17.333 -130 52zM266.002 110.999c14.667 21.333 25.833 47.166 33.5 77.499s11.5 58.5 11.5 84.5c0 25.333 -4.16699 44.5 -12.5 57.5s-20.833 19.5 -37.5 19.5c-20.667 0 -38.5 -9.66699 -53.5 -29
s-26.333 -43.666 -34 -72.999s-11.5 -58 -11.5 -86c0 -27.333 4.5 -48 13.5 -62s21.833 -21 38.5 -21c20 0 37.333 10.667 52 32zM415.001 725.999v-136l-144 -92h-85z" />
    <glyph glyph-name="ocircumflex" unicode="&#xf4;" horiz-adv-x="472" 
d="M69 39c-30 34.667 -44.998 79.333 -44.998 134c0 49.333 10.5 94.5 31.5 135.5s50.167 73.5 87.5 97.5s80 36 128 36c36.667 0 68.167 -8.5 94.5 -25.5s46.5 -40 60.5 -69s21 -61.167 21 -96.5c0 -50 -10.333 -95 -31 -135s-49.834 -71.5 -87.501 -94.5
s-80.834 -34.5 -129.501 -34.5c-56.667 0 -100 17.333 -130 52zM266.002 110.999c14.667 21.333 25.833 47.166 33.5 77.499s11.5 58.5 11.5 84.5c0 25.333 -4.16699 44.5 -12.5 57.5s-20.833 19.5 -37.5 19.5c-20.667 0 -38.5 -9.66699 -53.5 -29
s-26.333 -43.666 -34 -72.999s-11.5 -58 -11.5 -86c0 -27.333 4.5 -48 13.5 -62s21.833 -21 38.5 -21c20 0 37.333 10.667 52 32zM425.001 497.999h-75l-73 63l-81 -63h-92l163 161h46z" />
    <glyph glyph-name="otilde" unicode="&#xf5;" horiz-adv-x="472" 
d="M69 39c-30 34.667 -44.998 79.333 -44.998 134c0 49.333 10.5 94.5 31.5 135.5s50.167 73.5 87.5 97.5s80 36 128 36c36.667 0 68.167 -8.5 94.5 -25.5s46.5 -40 60.5 -69s21 -61.167 21 -96.5c0 -50 -10.333 -95 -31 -135s-49.834 -71.5 -87.501 -94.5
s-80.834 -34.5 -129.501 -34.5c-56.667 0 -100 17.333 -130 52zM266.002 110.999c14.667 21.333 25.833 47.166 33.5 77.499s11.5 58.5 11.5 84.5c0 25.333 -4.16699 44.5 -12.5 57.5s-20.833 19.5 -37.5 19.5c-20.667 0 -38.5 -9.66699 -53.5 -29
s-26.333 -43.666 -34 -72.999s-11.5 -58 -11.5 -86c0 -27.333 4.5 -48 13.5 -62s21.833 -21 38.5 -21c20 0 37.333 10.667 52 32zM124.001 564.999c40 61.333 82.002 92 126.002 92c12.667 0 24 -2.33301 34 -7s21.667 -11.667 35 -21c11.333 -8 21 -14 29 -18
s16.333 -6 25 -6c10 0 21.667 6 35 18s23.333 26 30 42l34 -69c-38.667 -55.333 -79 -83 -121 -83c-14 0 -26.5 2.5 -37.5 7.5s-23.167 12.167 -36.5 21.5c-10 7.33301 -18.5 12.833 -25.5 16.5s-14.5 5.5 -22.5 5.5c-10.667 0 -22.334 -5.83301 -35.001 -17.5
s-22.334 -26.167 -29.001 -43.5z" />
    <glyph glyph-name="odieresis" unicode="&#xf6;" horiz-adv-x="472" 
d="M69 39c-30 34.667 -44.998 79.333 -44.998 134c0 49.333 10.5 94.5 31.5 135.5s50.167 73.5 87.5 97.5s80 36 128 36c36.667 0 68.167 -8.5 94.5 -25.5s46.5 -40 60.5 -69s21 -61.167 21 -96.5c0 -50 -10.333 -95 -31 -135s-49.834 -71.5 -87.501 -94.5
s-80.834 -34.5 -129.501 -34.5c-56.667 0 -100 17.333 -130 52zM266.002 110.999c14.667 21.333 25.833 47.166 33.5 77.499s11.5 58.5 11.5 84.5c0 25.333 -4.16699 44.5 -12.5 57.5s-20.833 19.5 -37.5 19.5c-20.667 0 -38.5 -9.66699 -53.5 -29
s-26.333 -43.666 -34 -72.999s-11.5 -58 -11.5 -86c0 -27.333 4.5 -48 13.5 -62s21.833 -21 38.5 -21c20 0 37.333 10.667 52 32zM164.501 539.499c-11 11 -16.5 24.832 -16.5 41.499c0 20.667 7.66699 38.834 23 54.501s33 23.5 53 23.5c16 0 29.5 -5.5 40.5 -16.5
s16.5 -24.833 16.5 -41.5c0 -20 -7.83301 -38 -23.5 -54s-33.167 -24 -52.5 -24c-16 0 -29.5 5.5 -40.5 16.5zM338.001 539.498c-10.667 11 -15.999 25.168 -15.999 42.501c0 20 7.83301 37.833 23.5 53.5s33.5 23.5 53.5 23.5c16 0 29.333 -5.5 40 -16.5
s16 -24.833 16 -41.5c0 -20.667 -7.66699 -38.834 -23 -54.501s-33 -23.5 -53 -23.5c-16.667 0 -30.334 5.5 -41.001 16.5z" />
    <glyph glyph-name="divide" unicode="&#xf7;" horiz-adv-x="457" 
d="M213 299c-8 8 -12 17.999 -12 29.999c0 14.667 5.83301 27.834 17.5 39.501s24.834 17.5 39.501 17.5c12 0 21.667 -3.83301 29 -11.5s11 -17.167 11 -28.5c0 -15.333 -5.83301 -29 -17.5 -41s-24.834 -18 -39.501 -18c-10.667 0 -20 4 -28 12zM33 251.999h403l-7 -46
h-404zM175.5 84.499c-7.66699 7.66699 -11.5 17.166 -11.5 28.499c0 15.333 5.83301 28.833 17.5 40.5s24.834 17.5 39.501 17.5c11.333 0 20.833 -4 28.5 -12s11.5 -17.667 11.5 -29c0 -15.333 -6.16699 -28.666 -18.5 -39.999s-25.5 -17 -39.5 -17
c-10.667 0 -19.834 3.83301 -27.501 11.5z" />
    <glyph glyph-name="oslash" unicode="&#xf8;" horiz-adv-x="472" 
d="M447 251c0 -50 -10.3311 -95.002 -30.998 -135.002s-49.834 -71.5 -87.501 -94.5s-80.834 -34.5 -129.501 -34.5c-54 0 -96 16 -126 48l-54 -53v53l31 31c-17.333 28.667 -26 64.334 -26 107.001c0 49.333 10.5 94.5 31.5 135.5s50.167 73.5 87.5 97.5s80 36 128 36
c46.667 0 85.667 -14 117 -42l43 42v-52l-19 -18c23.333 -33.333 35 -73.666 35 -120.999zM191.002 296.498c-17.333 -35.667 -27.001 -75.5 -29.001 -119.5l143 140c-8 22 -22.667 33 -44 33c-29.333 0 -52.666 -17.833 -69.999 -53.5zM265.001 110.498
c14.667 21 25.833 46.5 33.5 76.5s11.834 58 12.501 84l-146 -144c7.33301 -32 23.666 -48 48.999 -48c19.333 0 36.333 10.5 51 31.5z" />
    <glyph glyph-name="ugrave" unicode="&#xf9;" horiz-adv-x="503" 
d="M324 1c-16 10 -26.334 24.998 -31.001 44.998c-14 -17.333 -33.333 -31.5 -58 -42.5s-49 -16.5 -73 -16.5c-41.333 0 -72.333 10.333 -93 31s-31 47.334 -31 80.001c0 24 2.66699 50 8 78l43 248h129l-45 -261c-2 -10 -3 -19.667 -3 -29c0 -18 3.5 -30.333 10.5 -37
s17.167 -10 30.5 -10c24 0 44.833 13.667 62.5 41s32.167 73 43.5 137l28 159h130l-50 -284c-2.66699 -14 -4 -26 -4 -36c0 -11.333 1.83301 -18.666 5.5 -21.999s8.83398 -5 15.501 -5c7.33301 0 14 0.666992 20 2l15 -68c-36 -16.667 -69 -25 -99 -25c-20 0 -38 5 -54 15z
M136.999 589.998v136l229 -228h-85z" />
    <glyph glyph-name="uacute" unicode="&#xfa;" horiz-adv-x="503" 
d="M324 1c-16 10 -26.334 24.998 -31.001 44.998c-14 -17.333 -33.333 -31.5 -58 -42.5s-49 -16.5 -73 -16.5c-41.333 0 -72.333 10.333 -93 31s-31 47.334 -31 80.001c0 24 2.66699 50 8 78l43 248h129l-45 -261c-2 -10 -3 -19.667 -3 -29c0 -18 3.5 -30.333 10.5 -37
s17.167 -10 30.5 -10c24 0 44.833 13.667 62.5 41s32.167 73 43.5 137l28 159h130l-50 -284c-2.66699 -14 -4 -26 -4 -36c0 -11.333 1.83301 -18.666 5.5 -21.999s8.83398 -5 15.501 -5c7.33301 0 14 0.666992 20 2l15 -68c-36 -16.667 -69 -25 -99 -25c-20 0 -38 5 -54 15z
M422.999 725.998v-136l-144 -92h-85z" />
    <glyph glyph-name="ucircumflex" unicode="&#xfb;" horiz-adv-x="503" 
d="M324 1c-16 10 -26.334 24.998 -31.001 44.998c-14 -17.333 -33.333 -31.5 -58 -42.5s-49 -16.5 -73 -16.5c-41.333 0 -72.333 10.333 -93 31s-31 47.334 -31 80.001c0 24 2.66699 50 8 78l43 248h129l-45 -261c-2 -10 -3 -19.667 -3 -29c0 -18 3.5 -30.333 10.5 -37
s17.167 -10 30.5 -10c24 0 44.833 13.667 62.5 41s32.167 73 43.5 137l28 159h130l-50 -284c-2.66699 -14 -4 -26 -4 -36c0 -11.333 1.83301 -18.666 5.5 -21.999s8.83398 -5 15.501 -5c7.33301 0 14 0.666992 20 2l15 -68c-36 -16.667 -69 -25 -99 -25c-20 0 -38 5 -54 15z
M432.999 497.998h-75l-73 63l-81 -63h-92l163 161h46z" />
    <glyph glyph-name="udieresis" unicode="&#xfc;" horiz-adv-x="503" 
d="M324 1c-16 10 -26.334 24.998 -31.001 44.998c-14 -17.333 -33.333 -31.5 -58 -42.5s-49 -16.5 -73 -16.5c-41.333 0 -72.333 10.333 -93 31s-31 47.334 -31 80.001c0 24 2.66699 50 8 78l43 248h129l-45 -261c-2 -10 -3 -19.667 -3 -29c0 -18 3.5 -30.333 10.5 -37
s17.167 -10 30.5 -10c24 0 44.833 13.667 62.5 41s32.167 73 43.5 137l28 159h130l-50 -284c-2.66699 -14 -4 -26 -4 -36c0 -11.333 1.83301 -18.666 5.5 -21.999s8.83398 -5 15.501 -5c7.33301 0 14 0.666992 20 2l15 -68c-36 -16.667 -69 -25 -99 -25c-20 0 -38 5 -54 15z
M172.499 539.498c-11 11 -16.5 24.832 -16.5 41.499c0 20.667 7.66699 38.834 23 54.501s33 23.5 53 23.5c16 0 29.5 -5.5 40.5 -16.5s16.5 -24.833 16.5 -41.5c0 -20 -7.83301 -38 -23.5 -54s-33.167 -24 -52.5 -24c-16 0 -29.5 5.5 -40.5 16.5zM345.999 539.497
c-10.667 11 -15.999 25.168 -15.999 42.501c0 20 7.83301 37.833 23.5 53.5s33.5 23.5 53.5 23.5c16 0 29.333 -5.5 40 -16.5s16 -24.833 16 -41.5c0 -20.667 -7.66699 -38.834 -23 -54.501s-33 -23.5 -53 -23.5c-16.667 0 -30.334 5.5 -41.001 16.5z" />
    <glyph glyph-name="yacute" unicode="&#xfd;" horiz-adv-x="467" 
d="M433 308c0 -82 -13.834 -160.498 -41.501 -235.498s-69.167 -139 -124.5 -192s-122.666 -87.5 -201.999 -103.5l-42 96c84.667 23.333 151 65.666 199 126.999h-77l-117 424h129l96 -379c36 65.333 54 142 54 230c0 35.333 -1 62 -3 80s-5.33301 41 -10 69h127
c8 -36.667 12 -75.334 12 -116.001zM369.999 726.002v-136l-144 -92h-85z" />
    <glyph glyph-name="thorn" unicode="&#xfe;" horiz-adv-x="735" 
d="M83 13.5c-6.66699 9 -9.00098 19.832 -7.00098 32.499l101 578c2.66699 12.667 8.83398 23.334 18.501 32.001s20.834 13 33.501 13h394c10.667 0 19.5 -3.5 26.5 -10.5s10.5 -15.5 10.5 -25.5c0 -4 -0.333008 -7 -1 -9l-101 -578c-2 -12.667 -8.16699 -23.5 -18.5 -32.5
s-21.5 -13.5 -33.5 -13.5h-394c-12.667 0 -22.334 4.5 -29.001 13.5zM581.999 617.999h-328l120 -248zM342.999 334.999l-122 256l-89 -511zM604.999 589.999l-214 -255l125 -256zM480.999 50.999l-119 248l-207 -248h326z" />
    <glyph glyph-name="ydieresis" unicode="&#xff;" horiz-adv-x="467" 
d="M433 308c0 -82 -13.834 -160.498 -41.501 -235.498s-69.167 -139 -124.5 -192s-122.666 -87.5 -201.999 -103.5l-42 96c84.667 23.333 151 65.666 199 126.999h-77l-117 424h129l96 -379c36 65.333 54 142 54 230c0 35.333 -1 62 -3 80s-5.33301 41 -10 69h127
c8 -36.667 12 -75.334 12 -116.001zM119.499 539.502c-11 11 -16.5 24.832 -16.5 41.499c0 20.667 7.66699 38.834 23 54.501s33 23.5 53 23.5c16 0 29.5 -5.5 40.5 -16.5s16.5 -24.833 16.5 -41.5c0 -20 -7.83301 -38 -23.5 -54s-33.167 -24 -52.5 -24
c-16 0 -29.5 5.5 -40.5 16.5zM292.999 539.501c-10.667 11 -15.999 25.168 -15.999 42.501c0 20 7.83301 37.833 23.5 53.5s33.5 23.5 53.5 23.5c16 0 29.333 -5.5 40 -16.5s16 -24.833 16 -41.5c0 -20.667 -7.66699 -38.834 -23 -54.501s-33 -23.5 -53 -23.5
c-16.667 0 -30.334 5.5 -41.001 16.5z" />
    <glyph glyph-name="Amacron" unicode="&#x100;" horiz-adv-x="573" 
d="M372 157h-188l-67 -157h-147l308 669h174l77 -669h-146zM366 249l-19 280h-5l-119 -280h143zM257 849h268l-12 -74h-268z" />
    <glyph glyph-name="amacron" unicode="&#x101;" horiz-adv-x="505" 
d="M63.5 39c-23.667 34.667 -35.499 78 -35.499 130c0 46.667 8.33301 91 25 133s40.334 75.833 71.001 101.5s65.334 38.5 104.001 38.5c27.333 0 50.666 -6.83301 69.999 -20.5s32.333 -32.834 39 -57.501l11 60h128l-49 -284c-2.66699 -14 -4 -26 -4 -36
c0 -11.333 1.66699 -18.666 5 -21.999s8.66602 -5 15.999 -5c6.66699 0 13 0.666992 19 2l16 -68c-38 -16 -71.333 -24 -100 -24c-22 0 -41.333 5.5 -58 16.5s-26.334 28.833 -29.001 53.5c-15.333 -22.667 -34.166 -40 -56.499 -52s-45.5 -18 -69.5 -18
c-44.667 0 -78.834 17.333 -102.501 52zM266.501 113.5c15.667 15.667 28.001 35.667 37.001 60s13.5 48.5 13.5 72.5c0 27.333 -5.33301 50.166 -16 68.499s-25 27.5 -43 27.5c-20.667 0 -38.334 -8.16699 -53.001 -24.5s-25.667 -36.666 -33 -60.999s-11 -48.5 -11 -72.5
c0 -28 5.16699 -50.667 15.5 -68s23.166 -26 38.499 -26c18.667 0 35.834 7.83301 51.501 23.5zM182.002 604h268l-12 -74h-268z" />
    <glyph glyph-name="Abreve" unicode="&#x102;" horiz-adv-x="573" 
d="M372 157h-188l-67 -157h-147l308 669h174l77 -669h-146zM366 249l-19 280h-5l-119 -280h143zM277.5 764.5c-19 25 -30.501 52.833 -34.501 83.5l46 20c7.33301 -18 19 -33.167 35 -45.5s35.667 -18.5 59 -18.5c22.667 0 44.334 6.16699 65.001 18.5s38 27.5 52 45.5
l36 -20c-10.667 -28 -30.167 -55.167 -58.5 -81.5s-63.833 -39.5 -106.5 -39.5c-43.333 0 -74.5 12.5 -93.5 37.5z" />
    <glyph glyph-name="abreve" unicode="&#x103;" horiz-adv-x="505" 
d="M63.5 39c-23.667 34.667 -35.499 78 -35.499 130c0 46.667 8.33301 91 25 133s40.334 75.833 71.001 101.5s65.334 38.5 104.001 38.5c27.333 0 50.666 -6.83301 69.999 -20.5s32.333 -32.834 39 -57.501l11 60h128l-49 -284c-2.66699 -14 -4 -26 -4 -36
c0 -11.333 1.66699 -18.666 5 -21.999s8.66602 -5 15.999 -5c6.66699 0 13 0.666992 19 2l16 -68c-38 -16 -71.333 -24 -100 -24c-22 0 -41.333 5.5 -58 16.5s-26.334 28.833 -29.001 53.5c-15.333 -22.667 -34.166 -40 -56.499 -52s-45.5 -18 -69.5 -18
c-44.667 0 -78.834 17.333 -102.501 52zM266.501 113.5c15.667 15.667 28.001 35.667 37.001 60s13.5 48.5 13.5 72.5c0 27.333 -5.33301 50.166 -16 68.499s-25 27.5 -43 27.5c-20.667 0 -38.334 -8.16699 -53.001 -24.5s-25.667 -36.666 -33 -60.999s-11 -48.5 -11 -72.5
c0 -28 5.16699 -50.667 15.5 -68s23.166 -26 38.499 -26c18.667 0 35.834 7.83301 51.501 23.5zM208.502 555.5c-19 25 -30.501 52.833 -34.501 83.5l46 20c7.33301 -18 19 -33.167 35 -45.5s35.667 -18.5 59 -18.5c22.667 0 44.334 6.16699 65.001 18.5s38 27.5 52 45.5
l36 -20c-10.667 -28 -30.167 -55.167 -58.5 -81.5s-63.833 -39.5 -106.5 -39.5c-43.333 0 -74.5 12.5 -93.5 37.5z" />
    <glyph glyph-name="Aogonek" unicode="&#x104;" horiz-adv-x="573" 
d="M466.5 -101.5c6.33301 -8.33301 15.833 -13.498 28.5 -15.498l-36 -64c-19.333 4 -35.666 12.667 -48.999 26s-20 29.666 -20 48.999c0 23.333 7.33301 44.166 22 62.499s33.667 32.833 57 43.5h-86l-11 157h-188l-67 -157h-147l308 669h174l77 -669
c-18.667 -2 -35.334 -9.5 -50.001 -22.5s-22 -29.167 -22 -48.5c0 -12 3.16699 -22.167 9.5 -30.5zM366 249.002l-19 280h-5l-119 -280h143z" />
    <glyph glyph-name="aogonek" unicode="&#x105;" horiz-adv-x="505" 
d="M381.5 -101.5c6.33301 -8.33301 15.833 -13.5 28.5 -15.5l-36 -64c-19.333 4 -35.666 12.667 -48.999 26s-20 29.666 -20 48.999s5.16699 37 15.5 53s24.166 29.667 41.499 41c-18.667 2.66699 -34.5 9.5 -47.5 20.5s-20.5 27.167 -22.5 48.5
c-15.333 -22.667 -34.166 -40 -56.499 -52s-45.5 -18 -69.5 -18c-44.667 0 -78.834 17.333 -102.501 52s-35.5 78 -35.5 130c0 46.667 8.33301 91 25 133s40.334 75.833 71.001 101.5s65.334 38.5 104.001 38.5c27.333 0 50.666 -6.83301 69.999 -20.5
s32.333 -32.834 39 -57.501l11 60h128l-49 -284c-2.66699 -14 -4 -26 -4 -36c0 -11.333 1.66699 -18.666 5 -21.999s8.66602 -5 15.999 -5c6.66699 0 13 0.666992 19 2l16 -68c-26 -10.667 -48.333 -17.667 -67 -21c-12 -6.66699 -21.667 -15.167 -29 -25.5
s-11 -22.166 -11 -35.499c0 -12 3.16699 -22.167 9.5 -30.5zM266.5 113.5c15.667 15.667 28.001 35.667 37.001 60s13.5 48.5 13.5 72.5c0 27.333 -5.33301 50.166 -16 68.499s-25 27.5 -43 27.5c-20.667 0 -38.334 -8.16699 -53.001 -24.5s-25.667 -36.666 -33 -60.999
s-11 -48.5 -11 -72.5c0 -28 5.16699 -50.667 15.5 -68s23.166 -26 38.499 -26c18.667 0 35.834 7.83301 51.501 23.5z" />
    <glyph glyph-name="Cacute" unicode="&#x106;" horiz-adv-x="570" 
d="M192.5 27.5c-43.667 26.333 -76.5 62.667 -98.5 109s-33 99.166 -33 158.499c0 76 13.5 143.167 40.5 201.5s66.5 103.833 118.5 136.5s114 49 186 49c28.667 0 59.167 -3.83301 91.5 -11.5s59.5 -17.5 81.5 -29.5l-19 -109c-21.333 12.667 -45.833 22.834 -73.5 30.501
s-54.167 11.5 -79.5 11.5c-66 0 -115 -27.5 -147 -82.5s-48 -122.5 -48 -202.5c0 -62 15.333 -109 46 -141s71 -48 121 -48c26 0 48.833 1.66699 68.5 5s40.167 9 61.5 17l-18 -113c-37.333 -14 -83.666 -21 -138.999 -21c-62.667 0 -115.834 13.167 -159.501 39.5z
M541 971.001v-136l-144 -92h-85z" />
    <glyph glyph-name="cacute" unicode="&#x107;" horiz-adv-x="404" 
d="M124 12.5c-30 17 -53.6689 40.833 -71.002 71.5s-26 66 -26 106c0 48 10.333 91.167 31 129.5s49.334 68.333 86.001 90s78.667 32.5 126 32.5c42 0 81 -7.33301 117 -22l-17 -97c-29.333 12.667 -57.333 19 -84 19c-40 0 -71.333 -13.667 -94 -41s-34 -61.333 -34 -102
c0 -33.333 10.5 -60.333 31.5 -81s46.167 -31 75.5 -31c18 0 33.167 1.16699 45.5 3.5s26.5 6.83301 42.5 13.5l-17 -98c-31.333 -12.667 -68.666 -19 -111.999 -19c-36.667 0 -70 8.5 -100 25.5zM379.998 726v-136l-144 -92h-85z" />
    <glyph glyph-name="Ccircumflex" unicode="&#x108;" horiz-adv-x="570" 
d="M192.5 27.5c-43.667 26.333 -76.5 62.667 -98.5 109s-33 99.166 -33 158.499c0 76 13.5 143.167 40.5 201.5s66.5 103.833 118.5 136.5s114 49 186 49c28.667 0 59.167 -3.83301 91.5 -11.5s59.5 -17.5 81.5 -29.5l-19 -109c-21.333 12.667 -45.833 22.834 -73.5 30.501
s-54.167 11.5 -79.5 11.5c-66 0 -115 -27.5 -147 -82.5s-48 -122.5 -48 -202.5c0 -62 15.333 -109 46 -141s71 -48 121 -48c26 0 48.833 1.66699 68.5 5s40.167 9 61.5 17l-18 -113c-37.333 -14 -83.666 -21 -138.999 -21c-62.667 0 -115.834 13.167 -159.501 39.5z
M555 713.001h-75l-73 63l-81 -63h-92l163 161h46z" />
    <glyph glyph-name="ccircumflex" unicode="&#x109;" horiz-adv-x="404" 
d="M124 12.5c-30 17 -53.6689 40.833 -71.002 71.5s-26 66 -26 106c0 48 10.333 91.167 31 129.5s49.334 68.333 86.001 90s78.667 32.5 126 32.5c42 0 81 -7.33301 117 -22l-17 -97c-29.333 12.667 -57.333 19 -84 19c-40 0 -71.333 -13.667 -94 -41s-34 -61.333 -34 -102
c0 -33.333 10.5 -60.333 31.5 -81s46.167 -31 75.5 -31c18 0 33.167 1.16699 45.5 3.5s26.5 6.83301 42.5 13.5l-17 -98c-31.333 -12.667 -68.666 -19 -111.999 -19c-36.667 0 -70 8.5 -100 25.5zM389.998 498h-75l-73 63l-81 -63h-92l163 161h46z" />
    <glyph glyph-name="Cdotaccent" unicode="&#x10a;" horiz-adv-x="570" 
d="M192.5 27.5c-43.667 26.333 -76.5 62.667 -98.5 109s-33 99.166 -33 158.499c0 76 13.5 143.167 40.5 201.5s66.5 103.833 118.5 136.5s114 49 186 49c28.667 0 59.167 -3.83301 91.5 -11.5s59.5 -17.5 81.5 -29.5l-19 -109c-21.333 12.667 -45.833 22.834 -73.5 30.501
s-54.167 11.5 -79.5 11.5c-66 0 -115 -27.5 -147 -82.5s-48 -122.5 -48 -202.5c0 -62 15.333 -109 46 -141s71 -48 121 -48c26 0 48.833 1.66699 68.5 5s40.167 9 61.5 17l-18 -113c-37.333 -14 -83.666 -21 -138.999 -21c-62.667 0 -115.834 13.167 -159.501 39.5z
M372 756.501c-10.667 11 -15.999 25.168 -15.999 42.501c0 20 7.83301 37.833 23.5 53.5s33.5 23.5 53.5 23.5c16 0 29.333 -5.5 40 -16.5s16 -24.833 16 -41.5c0 -20.667 -7.66699 -38.834 -23 -54.501s-33 -23.5 -53 -23.5c-16.667 0 -30.334 5.5 -41.001 16.5z" />
    <glyph glyph-name="cdotaccent" unicode="&#x10b;" horiz-adv-x="404" 
d="M124 12.5c-30 17 -53.6689 40.833 -71.002 71.5s-26 66 -26 106c0 48 10.333 91.167 31 129.5s49.334 68.333 86.001 90s78.667 32.5 126 32.5c42 0 81 -7.33301 117 -22l-17 -97c-29.333 12.667 -57.333 19 -84 19c-40 0 -71.333 -13.667 -94 -41s-34 -61.333 -34 -102
c0 -33.333 10.5 -60.333 31.5 -81s46.167 -31 75.5 -31c18 0 33.167 1.16699 45.5 3.5s26.5 6.83301 42.5 13.5l-17 -98c-31.333 -12.667 -68.666 -19 -111.999 -19c-36.667 0 -70 8.5 -100 25.5zM215.998 539.5c-10.667 11 -15.999 25.168 -15.999 42.501
c0 20 7.83301 37.833 23.5 53.5s33.5 23.5 53.5 23.5c16 0 29.333 -5.5 40 -16.5s16 -24.833 16 -41.5c0 -20.667 -7.66699 -38.834 -23 -54.501s-33 -23.5 -53 -23.5c-16.667 0 -30.334 5.5 -41.001 16.5z" />
    <glyph glyph-name="Ccaron" unicode="&#x10c;" horiz-adv-x="570" 
d="M192.5 27.5c-43.667 26.333 -76.5 62.667 -98.5 109s-33 99.166 -33 158.499c0 76 13.5 143.167 40.5 201.5s66.5 103.833 118.5 136.5s114 49 186 49c28.667 0 59.167 -3.83301 91.5 -11.5s59.5 -17.5 81.5 -29.5l-19 -109c-21.333 12.667 -45.833 22.834 -73.5 30.501
s-54.167 11.5 -79.5 11.5c-66 0 -115 -27.5 -147 -82.5s-48 -122.5 -48 -202.5c0 -62 15.333 -109 46 -141s71 -48 121 -48c26 0 48.833 1.66699 68.5 5s40.167 9 61.5 17l-18 -113c-37.333 -14 -83.666 -21 -138.999 -21c-62.667 0 -115.834 13.167 -159.501 39.5z
M262 872.001h75l73 -63l81 63h92l-163 -161h-46z" />
    <glyph glyph-name="ccaron" unicode="&#x10d;" horiz-adv-x="404" 
d="M124 12.5c-30 17 -53.6689 40.833 -71.002 71.5s-26 66 -26 106c0 48 10.333 91.167 31 129.5s49.334 68.333 86.001 90s78.667 32.5 126 32.5c42 0 81 -7.33301 117 -22l-17 -97c-29.333 12.667 -57.333 19 -84 19c-40 0 -71.333 -13.667 -94 -41s-34 -61.333 -34 -102
c0 -33.333 10.5 -60.333 31.5 -81s46.167 -31 75.5 -31c18 0 33.167 1.16699 45.5 3.5s26.5 6.83301 42.5 13.5l-17 -98c-31.333 -12.667 -68.666 -19 -111.999 -19c-36.667 0 -70 8.5 -100 25.5zM106.998 659h75l73 -63l81 63h92l-163 -161h-46z" />
    <glyph glyph-name="Dcaron" unicode="&#x10e;" 
d="M167 669h158c68 0 124.833 -12.667 170.5 -38s79.667 -59.833 102 -103.5s33.5 -93.167 33.5 -148.5c0 -122 -35 -215.667 -105 -281s-170 -98 -300 -98h-176zM258 105c74.667 0 131.5 26.168 170.5 78.501s58.5 121.166 58.5 206.499c0 122.667 -58 184 -174 184h-18
l-82 -469h45zM224 872.001h75l73 -63l81 63h92l-163 -161h-46z" />
    <glyph glyph-name="dcaron" unicode="&#x10f;" horiz-adv-x="504" 
d="M63 39c-23.333 34.667 -34.9961 78 -34.9961 130c0 46 8.33301 90 25 132s40.167 76 70.5 102s64.833 39 103.5 39c27.333 0 50.666 -6.83301 69.999 -20.5s32.333 -32.834 39 -57.501l54 305h128l-92 -529c-2.66699 -14 -4 -26 -4 -36
c0 -11.333 1.66699 -18.666 5 -21.999s8.66602 -5 15.999 -5s13.666 0.666992 18.999 2l16 -68c-36.667 -16 -69.667 -24 -99 -24c-22 0 -41.5 6 -58.5 18s-26.833 29.333 -29.5 52c-14.667 -22.667 -33.334 -40 -56.001 -52s-46 -18 -70 -18
c-44.667 0 -78.667 17.333 -102 52zM277.004 126c19.333 24 31.668 51.999 37.001 83.999c2 12 3 23.667 3 35c0 28 -5.5 51.167 -16.5 69.5s-25.5 27.5 -43.5 27.5c-20 0 -37.333 -8.16699 -52 -24.5s-25.667 -36.666 -33 -60.999s-11 -48.5 -11 -72.5
c0 -28 5.16699 -50.667 15.5 -68s23.166 -26 38.499 -26c22 0 42.667 12 62 36zM563.006 668.999h90l-69 -217h-65z" />
    <glyph glyph-name="Dcroat" unicode="&#x110;" horiz-adv-x="735" 
d="M83 13.5c-6.66699 9 -9.00098 19.832 -7.00098 32.499l101 578c2.66699 12.667 8.83398 23.334 18.501 32.001s20.834 13 33.501 13h394c10.667 0 19.5 -3.5 26.5 -10.5s10.5 -15.5 10.5 -25.5c0 -4 -0.333008 -7 -1 -9l-101 -578c-2 -12.667 -8.16699 -23.5 -18.5 -32.5
s-21.5 -13.5 -33.5 -13.5h-394c-12.667 0 -22.334 4.5 -29.001 13.5zM581.999 617.999h-328l120 -248zM342.999 334.999l-122 256l-89 -511zM604.999 589.999l-214 -255l125 -256zM480.999 50.999l-119 248l-207 -248h326z" />
    <glyph glyph-name="dcroat" unicode="&#x111;" horiz-adv-x="504" 
d="M426 140c-2.66699 -14 -3.99609 -26 -3.99609 -36c0 -11.333 1.66699 -18.666 5 -21.999s8.66602 -5 15.999 -5s13.666 0.666992 18.999 2l16 -68c-36.667 -16 -69.667 -24 -99 -24c-22 0 -41.5 6 -58.5 18s-26.833 29.333 -29.5 52
c-14.667 -22.667 -33.334 -40 -56.001 -52s-46 -18 -70 -18c-44.667 0 -78.667 17.333 -102 52s-35 78 -35 130c0 46 8.33301 90 25 132s40.167 76 70.5 102s64.833 39 103.5 39c27.333 0 50.666 -6.83301 69.999 -20.5s32.333 -32.834 39 -57.501l29 165h-55l6 41h56l18 99
h128l-17 -99h83l-31 -41h-59zM317.004 245c0 28 -5.49805 51.166 -16.498 69.499s-25.5 27.5 -43.5 27.5c-20 0 -37.333 -8.16699 -52 -24.5s-25.667 -36.666 -33 -60.999s-11 -48.5 -11 -72.5c0 -28 5.16699 -50.667 15.5 -68s23.166 -26 38.499 -26c22 0 42.667 12 62 36
s31.666 52 36.999 84c2 12 3 23.667 3 35z" />
    <glyph glyph-name="Emacron" unicode="&#x112;" horiz-adv-x="551" 
d="M294 574l-31 -179h198l-15 -92h-199l-35 -198h285l-20 -105h-427l117 669h415l-17 -95h-271zM267 849h268l-12 -74h-268z" />
    <glyph glyph-name="emacron" unicode="&#x113;" horiz-adv-x="418" 
d="M154 197l0.00195312 -5c0 -34 10.667 -60.333 32 -79s52.666 -28 93.999 -28c16 0 29.333 1.16699 40 3.5s23.667 6.83301 39 13.5l-18 -97c-30 -12 -66 -18 -108 -18c-61.333 0 -110.833 18.167 -148.5 54.5s-56.5 85.5 -56.5 147.5
c0 46.667 8.83301 89.334 26.5 128.001s43 69.167 76 91.5s71.5 33.5 115.5 33.5c34.667 0 64.167 -6.33301 88.5 -19s42.666 -29.334 54.999 -50.001s18.5 -42.667 18.5 -66c0 -35.333 -13.167 -65.5 -39.5 -90.5s-64.166 -37.5 -113.499 -37.5
c-30.667 0 -64.334 6 -101.001 18zM197.002 327.5c-13.333 -15.667 -24 -35.834 -32 -60.501c18.667 -7.33301 36 -11 52 -11c22.667 0 40.667 4.5 54 13.5s20 22.167 20 39.5c0 10.667 -4 20.334 -12 29.001s-19.667 13 -35 13c-18 0 -33.667 -7.83301 -47 -23.5z
M128.002 604h268l-12 -74h-268z" />
    <glyph glyph-name="Ebreve" unicode="&#x114;" horiz-adv-x="551" 
d="M294 574l-31 -179h198l-15 -92h-199l-35 -198h285l-20 -105h-427l117 669h415l-17 -95h-271zM287.5 764.5c-19 25 -30.501 52.833 -34.501 83.5l46 20c7.33301 -18 19 -33.167 35 -45.5s35.667 -18.5 59 -18.5c22.667 0 44.334 6.16699 65.001 18.5s38 27.5 52 45.5
l36 -20c-10.667 -28 -30.167 -55.167 -58.5 -81.5s-63.833 -39.5 -106.5 -39.5c-43.333 0 -74.5 12.5 -93.5 37.5z" />
    <glyph glyph-name="ebreve" unicode="&#x115;" horiz-adv-x="418" 
d="M154 197l0.00195312 -5c0 -34 10.667 -60.333 32 -79s52.666 -28 93.999 -28c16 0 29.333 1.16699 40 3.5s23.667 6.83301 39 13.5l-18 -97c-30 -12 -66 -18 -108 -18c-61.333 0 -110.833 18.167 -148.5 54.5s-56.5 85.5 -56.5 147.5
c0 46.667 8.83301 89.334 26.5 128.001s43 69.167 76 91.5s71.5 33.5 115.5 33.5c34.667 0 64.167 -6.33301 88.5 -19s42.666 -29.334 54.999 -50.001s18.5 -42.667 18.5 -66c0 -35.333 -13.167 -65.5 -39.5 -90.5s-64.166 -37.5 -113.499 -37.5
c-30.667 0 -64.334 6 -101.001 18zM197.002 327.5c-13.333 -15.667 -24 -35.834 -32 -60.501c18.667 -7.33301 36 -11 52 -11c22.667 0 40.667 4.5 54 13.5s20 22.167 20 39.5c0 10.667 -4 20.334 -12 29.001s-19.667 13 -35 13c-18 0 -33.667 -7.83301 -47 -23.5z
M154.502 555.5c-19 25 -30.501 52.833 -34.501 83.5l46 20c7.33301 -18 19 -33.167 35 -45.5s35.667 -18.5 59 -18.5c22.667 0 44.334 6.16699 65.001 18.5s38 27.5 52 45.5l36 -20c-10.667 -28 -30.167 -55.167 -58.5 -81.5s-63.833 -39.5 -106.5 -39.5
c-43.333 0 -74.5 12.5 -93.5 37.5z" />
    <glyph glyph-name="Edotaccent" unicode="&#x116;" horiz-adv-x="551" 
d="M294 574l-31 -179h198l-15 -92h-199l-35 -198h285l-20 -105h-427l117 669h415l-17 -95h-271zM344 756.5c-10.667 11 -15.999 25.168 -15.999 42.501c0 20 7.83301 37.833 23.5 53.5s33.5 23.5 53.5 23.5c16 0 29.333 -5.5 40 -16.5s16 -24.833 16 -41.5
c0 -20.667 -7.66699 -38.834 -23 -54.501s-33 -23.5 -53 -23.5c-16.667 0 -30.334 5.5 -41.001 16.5z" />
    <glyph glyph-name="edotaccent" unicode="&#x117;" horiz-adv-x="418" 
d="M154 197l0.00195312 -5c0 -34 10.667 -60.333 32 -79s52.666 -28 93.999 -28c16 0 29.333 1.16699 40 3.5s23.667 6.83301 39 13.5l-18 -97c-30 -12 -66 -18 -108 -18c-61.333 0 -110.833 18.167 -148.5 54.5s-56.5 85.5 -56.5 147.5
c0 46.667 8.83301 89.334 26.5 128.001s43 69.167 76 91.5s71.5 33.5 115.5 33.5c34.667 0 64.167 -6.33301 88.5 -19s42.666 -29.334 54.999 -50.001s18.5 -42.667 18.5 -66c0 -35.333 -13.167 -65.5 -39.5 -90.5s-64.166 -37.5 -113.499 -37.5
c-30.667 0 -64.334 6 -101.001 18zM197.002 327.5c-13.333 -15.667 -24 -35.834 -32 -60.501c18.667 -7.33301 36 -11 52 -11c22.667 0 40.667 4.5 54 13.5s20 22.167 20 39.5c0 10.667 -4 20.334 -12 29.001s-19.667 13 -35 13c-18 0 -33.667 -7.83301 -47 -23.5z
M210.002 539.5c-10.667 11 -15.999 25.168 -15.999 42.501c0 20 7.83301 37.833 23.5 53.5s33.5 23.5 53.5 23.5c16 0 29.333 -5.5 40 -16.5s16 -24.833 16 -41.5c0 -20.667 -7.66699 -38.834 -23 -54.501s-33 -23.5 -53 -23.5c-16.667 0 -30.334 5.5 -41.001 16.5z" />
    <glyph glyph-name="Eogonek" unicode="&#x118;" horiz-adv-x="551" 
d="M294 574l-31 -178.998h198l-15 -92h-199l-35 -198h285l-20 -105c-18.667 -2 -35.334 -9.5 -50.001 -22.5s-22 -29.167 -22 -48.5c0 -12 3.16699 -22.167 9.5 -30.5s15.833 -13.5 28.5 -15.5l-36 -64c-19.333 4 -35.666 12.667 -48.999 26s-20 29.666 -20 48.999
c0 23.333 7.33301 44.166 22 62.499s33.667 32.833 57 43.5h-367l117 669h415l-17 -95h-271z" />
    <glyph glyph-name="eogonek" unicode="&#x119;" horiz-adv-x="421" 
d="M154 197v-4.99512c0 -34 10.667 -60.333 32 -79s52.666 -28 93.999 -28c16 0 29.333 1.16699 40 3.5s23.667 6.83301 39 13.5l-18 -97c-30 -12 -66 -18 -108 -18h-11c-10.667 -6.66699 -19.167 -14.834 -25.5 -24.501s-9.5 -20.834 -9.5 -33.501
c0 -12 3.16699 -22.167 9.5 -30.5s15.833 -13.5 28.5 -15.5l-36 -64c-19.333 4 -35.666 12.667 -48.999 26s-20 29.666 -20 48.999c0 20 5.83301 38.5 17.5 55.5s26.834 31.167 45.501 42.5c-48 9.33301 -85.833 31.166 -113.5 65.499s-41.5 78.166 -41.5 131.499
c0 46.667 8.83301 89.334 26.5 128.001s43 69.167 76 91.5s71.5 33.5 115.5 33.5c34.667 0 64.167 -6.33301 88.5 -19s42.666 -29.334 54.999 -50.001s18.5 -42.667 18.5 -66c0 -35.333 -13.167 -65.5 -39.5 -90.5s-64.166 -37.5 -113.499 -37.5
c-30.667 0 -64.334 6 -101.001 18zM197 327.505c-13.333 -15.667 -24 -35.834 -32 -60.501c18.667 -7.33301 36 -11 52 -11c22.667 0 40.667 4.5 54 13.5s20 22.167 20 39.5c0 10.667 -4 20.334 -12 29.001s-19.667 13 -35 13c-18 0 -33.667 -7.83301 -47 -23.5z" />
    <glyph glyph-name="Ecaron" unicode="&#x11a;" horiz-adv-x="551" 
d="M294 574l-31 -179h198l-15 -92h-199l-35 -198h285l-20 -105h-427l117 669h415l-17 -95h-271zM234 872h75l73 -63l81 63h92l-163 -161h-46z" />
    <glyph glyph-name="ecaron" unicode="&#x11b;" horiz-adv-x="418" 
d="M154 197l0.00195312 -5c0 -34 10.667 -60.333 32 -79s52.666 -28 93.999 -28c16 0 29.333 1.16699 40 3.5s23.667 6.83301 39 13.5l-18 -97c-30 -12 -66 -18 -108 -18c-61.333 0 -110.833 18.167 -148.5 54.5s-56.5 85.5 -56.5 147.5
c0 46.667 8.83301 89.334 26.5 128.001s43 69.167 76 91.5s71.5 33.5 115.5 33.5c34.667 0 64.167 -6.33301 88.5 -19s42.666 -29.334 54.999 -50.001s18.5 -42.667 18.5 -66c0 -35.333 -13.167 -65.5 -39.5 -90.5s-64.166 -37.5 -113.499 -37.5
c-30.667 0 -64.334 6 -101.001 18zM197.002 327.5c-13.333 -15.667 -24 -35.834 -32 -60.501c18.667 -7.33301 36 -11 52 -11c22.667 0 40.667 4.5 54 13.5s20 22.167 20 39.5c0 10.667 -4 20.334 -12 29.001s-19.667 13 -35 13c-18 0 -33.667 -7.83301 -47 -23.5z
M101.002 659h75l73 -63l81 63h92l-163 -161h-46z" />
    <glyph glyph-name="Gcircumflex" unicode="&#x11c;" horiz-adv-x="650" 
d="M184.5 26c-41 25.333 -72.001 60.332 -93.001 104.999s-31.5 96 -31.5 154c0 77.333 13.5 146 40.5 206s66.5 106.833 118.5 140.5s114.333 50.5 187 50.5c28.667 0 59.167 -3.83301 91.5 -11.5s59.5 -17.5 81.5 -29.5l-19 -109c-21.333 12.667 -46 22.834 -74 30.501
s-54.667 11.5 -80 11.5c-67.333 0 -117.333 -28.333 -150 -85s-49 -126 -49 -208c0 -60 13.5 -105.167 40.5 -135.5s60.833 -45.5 101.5 -45.5c18 0 33.833 2.33301 47.5 7s24.834 11 33.501 19l28 157h-75l16 91h214l-56 -313c-58.667 -48.667 -133.667 -73 -225 -73
c-57.333 0 -106.5 12.667 -147.5 38zM523.999 712.999h-75l-73 63l-81 -63h-92l163 161h46z" />
    <glyph glyph-name="gcircumflex" unicode="&#x11d;" horiz-adv-x="436" 
d="M459 424l-0.998047 -60.001c-25.333 2 -43.666 -2.66699 -54.999 -14c8 -16 12 -34.333 12 -55c0 -34 -9.5 -63.833 -28.5 -89.5s-44.667 -45.5 -77 -59.5s-67.5 -21 -105.5 -21c-14.667 0 -28.334 1 -41.001 3c-22 -3.33301 -33 -12.666 -33 -27.999
c0 -8.66699 4.5 -15.667 13.5 -21s23.167 -9.33301 42.5 -12l74 -10c42.667 -6 75.667 -20 99 -42s35 -49.333 35 -82c0 -52.667 -19.833 -92.167 -59.5 -118.5s-92.167 -39.5 -157.5 -39.5c-33.333 0 -67.333 4.5 -102 13.5s-67 21.833 -97 38.5l23 91
c23.333 -11.333 51.5 -21.166 84.5 -29.499s62.167 -12.5 87.5 -12.5c26 0 48 4.5 66 13.5s27 20.167 27 33.5c0 15.333 -14.667 25.333 -44 30l-101 17c-38.667 6.66699 -67.834 17.667 -87.501 33s-29.5 36.666 -29.5 63.999c0 18.667 6.83301 36.667 20.5 54
s32.5 32 56.5 44c-15.333 12.667 -27.333 28 -36 46s-13 37.667 -13 59c0 31.333 9.66699 60 29 86s44.666 46.333 75.999 61s64.333 22 99 22c32 0 60 -5 84 -15h139zM250.002 216.999c12.667 12 22.333 27 29 45s10 35.333 10 52c0 34 -17.333 51 -52 51
c-24.667 0 -44 -11.667 -58 -35s-21 -49.333 -21 -78c0 -35.333 16.333 -53 49 -53c16 0 30.333 6 43 18zM404.001 497.999h-75l-73 63l-81 -63h-92l163 161h46z" />
    <glyph glyph-name="Gbreve" unicode="&#x11e;" horiz-adv-x="650" 
d="M184.5 26c-41 25.333 -72.001 60.332 -93.001 104.999s-31.5 96 -31.5 154c0 77.333 13.5 146 40.5 206s66.5 106.833 118.5 140.5s114.333 50.5 187 50.5c28.667 0 59.167 -3.83301 91.5 -11.5s59.5 -17.5 81.5 -29.5l-19 -109c-21.333 12.667 -46 22.834 -74 30.501
s-54.667 11.5 -80 11.5c-67.333 0 -117.333 -28.333 -150 -85s-49 -126 -49 -208c0 -60 13.5 -105.167 40.5 -135.5s60.833 -45.5 101.5 -45.5c18 0 33.833 2.33301 47.5 7s24.834 11 33.501 19l28 157h-75l16 91h214l-56 -313c-58.667 -48.667 -133.667 -73 -225 -73
c-57.333 0 -106.5 12.667 -147.5 38zM284.499 764.499c-19 25 -30.501 52.833 -34.501 83.5l46 20c7.33301 -18 19 -33.167 35 -45.5s35.667 -18.5 59 -18.5c22.667 0 44.334 6.16699 65.001 18.5s38 27.5 52 45.5l36 -20c-10.667 -28 -30.167 -55.167 -58.5 -81.5
s-63.833 -39.5 -106.5 -39.5c-43.333 0 -74.5 12.5 -93.5 37.5z" />
    <glyph glyph-name="gbreve" unicode="&#x11f;" horiz-adv-x="436" 
d="M459 424l-0.998047 -60.001c-25.333 2 -43.666 -2.66699 -54.999 -14c8 -16 12 -34.333 12 -55c0 -34 -9.5 -63.833 -28.5 -89.5s-44.667 -45.5 -77 -59.5s-67.5 -21 -105.5 -21c-14.667 0 -28.334 1 -41.001 3c-22 -3.33301 -33 -12.666 -33 -27.999
c0 -8.66699 4.5 -15.667 13.5 -21s23.167 -9.33301 42.5 -12l74 -10c42.667 -6 75.667 -20 99 -42s35 -49.333 35 -82c0 -52.667 -19.833 -92.167 -59.5 -118.5s-92.167 -39.5 -157.5 -39.5c-33.333 0 -67.333 4.5 -102 13.5s-67 21.833 -97 38.5l23 91
c23.333 -11.333 51.5 -21.166 84.5 -29.499s62.167 -12.5 87.5 -12.5c26 0 48 4.5 66 13.5s27 20.167 27 33.5c0 15.333 -14.667 25.333 -44 30l-101 17c-38.667 6.66699 -67.834 17.667 -87.501 33s-29.5 36.666 -29.5 63.999c0 18.667 6.83301 36.667 20.5 54
s32.5 32 56.5 44c-15.333 12.667 -27.333 28 -36 46s-13 37.667 -13 59c0 31.333 9.66699 60 29 86s44.666 46.333 75.999 61s64.333 22 99 22c32 0 60 -5 84 -15h139zM250.002 216.999c12.667 12 22.333 27 29 45s10 35.333 10 52c0 34 -17.333 51 -52 51
c-24.667 0 -44 -11.667 -58 -35s-21 -49.333 -21 -78c0 -35.333 16.333 -53 49 -53c16 0 30.333 6 43 18zM174.501 555.499c-19 25 -30.501 52.833 -34.501 83.5l46 20c7.33301 -18 19 -33.167 35 -45.5s35.667 -18.5 59 -18.5c22.667 0 44.334 6.16699 65.001 18.5
s38 27.5 52 45.5l36 -20c-10.667 -28 -30.167 -55.167 -58.5 -81.5s-63.833 -39.5 -106.5 -39.5c-43.333 0 -74.5 12.5 -93.5 37.5z" />
    <glyph glyph-name="Gdotaccent" unicode="&#x120;" horiz-adv-x="650" 
d="M184.5 26c-41 25.333 -72.001 60.332 -93.001 104.999s-31.5 96 -31.5 154c0 77.333 13.5 146 40.5 206s66.5 106.833 118.5 140.5s114.333 50.5 187 50.5c28.667 0 59.167 -3.83301 91.5 -11.5s59.5 -17.5 81.5 -29.5l-19 -109c-21.333 12.667 -46 22.834 -74 30.501
s-54.667 11.5 -80 11.5c-67.333 0 -117.333 -28.333 -150 -85s-49 -126 -49 -208c0 -60 13.5 -105.167 40.5 -135.5s60.833 -45.5 101.5 -45.5c18 0 33.833 2.33301 47.5 7s24.834 11 33.501 19l28 157h-75l16 91h214l-56 -313c-58.667 -48.667 -133.667 -73 -225 -73
c-57.333 0 -106.5 12.667 -147.5 38zM340.999 756.499c-10.667 11 -15.999 25.168 -15.999 42.501c0 20 7.83301 37.833 23.5 53.5s33.5 23.5 53.5 23.5c16 0 29.333 -5.5 40 -16.5s16 -24.833 16 -41.5c0 -20.667 -7.66699 -38.834 -23 -54.501s-33 -23.5 -53 -23.5
c-16.667 0 -30.334 5.5 -41.001 16.5z" />
    <glyph glyph-name="gdotaccent" unicode="&#x121;" horiz-adv-x="436" 
d="M459 424l-0.998047 -60.001c-25.333 2 -43.666 -2.66699 -54.999 -14c8 -16 12 -34.333 12 -55c0 -34 -9.5 -63.833 -28.5 -89.5s-44.667 -45.5 -77 -59.5s-67.5 -21 -105.5 -21c-14.667 0 -28.334 1 -41.001 3c-22 -3.33301 -33 -12.666 -33 -27.999
c0 -8.66699 4.5 -15.667 13.5 -21s23.167 -9.33301 42.5 -12l74 -10c42.667 -6 75.667 -20 99 -42s35 -49.333 35 -82c0 -52.667 -19.833 -92.167 -59.5 -118.5s-92.167 -39.5 -157.5 -39.5c-33.333 0 -67.333 4.5 -102 13.5s-67 21.833 -97 38.5l23 91
c23.333 -11.333 51.5 -21.166 84.5 -29.499s62.167 -12.5 87.5 -12.5c26 0 48 4.5 66 13.5s27 20.167 27 33.5c0 15.333 -14.667 25.333 -44 30l-101 17c-38.667 6.66699 -67.834 17.667 -87.501 33s-29.5 36.666 -29.5 63.999c0 18.667 6.83301 36.667 20.5 54
s32.5 32 56.5 44c-15.333 12.667 -27.333 28 -36 46s-13 37.667 -13 59c0 31.333 9.66699 60 29 86s44.666 46.333 75.999 61s64.333 22 99 22c32 0 60 -5 84 -15h139zM250.002 216.999c12.667 12 22.333 27 29 45s10 35.333 10 52c0 34 -17.333 51 -52 51
c-24.667 0 -44 -11.667 -58 -35s-21 -49.333 -21 -78c0 -35.333 16.333 -53 49 -53c16 0 30.333 6 43 18zM230.001 539.499c-10.667 11 -15.999 25.168 -15.999 42.501c0 20 7.83301 37.833 23.5 53.5s33.5 23.5 53.5 23.5c16 0 29.333 -5.5 40 -16.5s16 -24.833 16 -41.5
c0 -20.667 -7.66699 -38.834 -23 -54.501s-33 -23.5 -53 -23.5c-16.667 0 -30.334 5.5 -41.001 16.5z" />
    <glyph glyph-name="uni0122" unicode="&#x122;" horiz-adv-x="650" 
d="M184.5 26c-41 25.333 -72.001 60.332 -93.001 104.999s-31.5 96 -31.5 154c0 77.333 13.5 146 40.5 206s66.5 106.833 118.5 140.5s114.333 50.5 187 50.5c28.667 0 59.167 -3.83301 91.5 -11.5s59.5 -17.5 81.5 -29.5l-19 -109c-21.333 12.667 -46 22.834 -74 30.501
s-54.667 11.5 -80 11.5c-67.333 0 -117.333 -28.333 -150 -85s-49 -126 -49 -208c0 -60 13.5 -105.167 40.5 -135.5s60.833 -45.5 101.5 -45.5c18 0 33.833 2.33301 47.5 7s24.834 11 33.501 19l28 157h-75l16 91h214l-56 -313c-58.667 -48.667 -133.667 -73 -225 -73
c-57.333 0 -106.5 12.667 -147.5 38zM245.999 -203.001c19.333 6 36.167 14.5 50.5 25.5s24.5 24.167 30.5 39.5c-5.33301 -2 -11.333 -3 -18 -3c-13.333 0 -24.333 5.33301 -33 16s-13 22.667 -13 36c0 15.333 5.83301 28.166 17.5 38.499s24.834 15.5 39.501 15.5
c18 0 32.5 -6.83301 43.5 -20.5s16.5 -29.5 16.5 -47.5c0 -32.667 -11.833 -60.667 -35.5 -84s-51.834 -39.666 -84.501 -48.999z" />
    <glyph glyph-name="uni0123" unicode="&#x123;" horiz-adv-x="436" 
d="M327.5 493.5c-11 13.667 -16.501 29.5 -16.501 47.5c0 32.667 11.833 60.667 35.5 84s51.834 39.666 84.501 48.999l14 -33c-19.333 -6 -36.166 -14.5 -50.499 -25.5s-24.5 -24.167 -30.5 -39.5c5.33301 2 11.333 3 18 3c13.333 0 24.333 -5.33301 33 -16
s13 -22.667 13 -36c0 -15.333 -5.83301 -28.166 -17.5 -38.499s-24.834 -15.5 -39.501 -15.5c-18 0 -32.5 6.83301 -43.5 20.5zM458.999 424l-0.998047 -60.001c-25.333 2 -43.666 -2.66699 -54.999 -14c8 -16 12 -34.333 12 -55c0 -34 -9.5 -63.833 -28.5 -89.5
s-44.667 -45.5 -77 -59.5s-67.5 -21 -105.5 -21c-14.667 0 -28.334 1 -41.001 3c-22 -3.33301 -33 -12.666 -33 -27.999c0 -8.66699 4.5 -15.667 13.5 -21s23.167 -9.33301 42.5 -12l74 -10c42.667 -6 75.667 -20 99 -42s35 -49.333 35 -82
c0 -52.667 -19.833 -92.167 -59.5 -118.5s-92.167 -39.5 -157.5 -39.5c-33.333 0 -67.333 4.5 -102 13.5s-67 21.833 -97 38.5l23 91c23.333 -11.333 51.5 -21.166 84.5 -29.499s62.167 -12.5 87.5 -12.5c26 0 48 4.5 66 13.5s27 20.167 27 33.5
c0 15.333 -14.667 25.333 -44 30l-101 17c-38.667 6.66699 -67.834 17.667 -87.501 33s-29.5 36.666 -29.5 63.999c0 18.667 6.83301 36.667 20.5 54s32.5 32 56.5 44c-15.333 12.667 -27.333 28 -36 46s-13 37.667 -13 59c0 31.333 9.66699 60 29 86
s44.666 46.333 75.999 61s64.333 22 99 22c32 0 60 -5 84 -15h139zM250.001 216.999c12.667 12 22.333 27 29 45s10 35.333 10 52c0 34 -17.333 51 -52 51c-24.667 0 -44 -11.667 -58 -35s-21 -49.333 -21 -78c0 -35.333 16.333 -53 49 -53c16 0 30.333 6 43 18z" />
    <glyph glyph-name="Itilde" unicode="&#x128;" horiz-adv-x="318" 
d="M167 669h144l-117 -669h-144zM91 810c40 61.333 82.002 92 126.002 92c12.667 0 24 -2.33301 34 -7s21.667 -11.667 35 -21c11.333 -8 21 -14 29 -18s16.333 -6 25 -6c10 0 21.667 6 35 18s23.333 26 30 42l34 -69c-38.667 -55.333 -79 -83 -121 -83
c-14 0 -26.5 2.5 -37.5 7.5s-23.167 12.167 -36.5 21.5c-10 7.33301 -18.5 12.833 -25.5 16.5s-14.5 5.5 -22.5 5.5c-10.667 0 -22.334 -5.83301 -35.001 -17.5s-22.334 -26.167 -29.001 -43.5z" />
    <glyph glyph-name="itilde" unicode="&#x129;" horiz-adv-x="316" 
d="M130 424h130l-74 -424h-130zM47 565c40 61.333 82.002 92 126.002 92c12.667 0 24 -2.33301 34 -7s21.667 -11.667 35 -21c11.333 -8 21 -14 29 -18s16.333 -6 25 -6c10 0 21.667 6 35 18s23.333 26 30 42l34 -69c-38.667 -55.333 -79 -83 -121 -83
c-14 0 -26.5 2.5 -37.5 7.5s-23.167 12.167 -36.5 21.5c-10 7.33301 -18.5 12.833 -25.5 16.5s-14.5 5.5 -22.5 5.5c-10.667 0 -22.334 -5.83301 -35.001 -17.5s-22.334 -26.167 -29.001 -43.5z" />
    <glyph glyph-name="Imacron" unicode="&#x12a;" horiz-adv-x="318" 
d="M167 669h144l-117 -669h-144zM136 849h268l-12 -74h-268z" />
    <glyph glyph-name="imacron" unicode="&#x12b;" horiz-adv-x="316" 
d="M130 424h130l-74 -424h-130zM92 604h268l-12 -74h-268z" />
    <glyph glyph-name="Ibreve" unicode="&#x12c;" horiz-adv-x="318" 
d="M167 669h144l-117 -669h-144zM156.5 764.5c-19 25 -30.501 52.833 -34.501 83.5l46 20c7.33301 -18 19 -33.167 35 -45.5s35.667 -18.5 59 -18.5c22.667 0 44.334 6.16699 65.001 18.5s38 27.5 52 45.5l36 -20c-10.667 -28 -30.167 -55.167 -58.5 -81.5
s-63.833 -39.5 -106.5 -39.5c-43.333 0 -74.5 12.5 -93.5 37.5z" />
    <glyph glyph-name="ibreve" unicode="&#x12d;" horiz-adv-x="316" 
d="M130 424h130l-74 -424h-130zM118.5 555.5c-19 25 -30.501 52.833 -34.501 83.5l46 20c7.33301 -18 19 -33.167 35 -45.5s35.667 -18.5 59 -18.5c22.667 0 44.334 6.16699 65.001 18.5s38 27.5 52 45.5l36 -20c-10.667 -28 -30.167 -55.167 -58.5 -81.5
s-63.833 -39.5 -106.5 -39.5c-43.333 0 -74.5 12.5 -93.5 37.5z" />
    <glyph glyph-name="Iogonek" unicode="&#x12e;" horiz-adv-x="318" 
d="M144 -22.5c-14.667 -13 -22 -29.165 -22 -48.498c0 -12 3.16699 -22.167 9.5 -30.5s15.833 -13.5 28.5 -15.5l-36 -64c-19.333 4 -35.666 12.667 -48.999 26s-20 29.666 -20 48.999c0 23.333 7.33301 44.166 22 62.499s33.667 32.833 57 43.5h-84l117 669h144l-117 -669
c-18.667 -2 -35.334 -9.5 -50.001 -22.5z" />
    <glyph glyph-name="iogonek" unicode="&#x12f;" horiz-adv-x="316" 
d="M275 642.5c10.667 -11 16.001 -24.832 16.001 -41.499c0 -20.667 -7.66699 -38.834 -23 -54.501s-33 -23.5 -53 -23.5c-16.667 0 -30.334 5.5 -41.001 16.5s-16 25.167 -16 42.5c0 20 7.83301 37.833 23.5 53.5s33.5 23.5 53.5 23.5c16 0 29.333 -5.5 40 -16.5z
M130.001 424.001l130 0.00195312l-74 -424h-1c-18.667 -2 -35.334 -9.5 -50.001 -22.5s-22 -29.167 -22 -48.5c0 -12 3.16699 -22.167 9.5 -30.5s15.833 -13.5 28.5 -15.5l-36 -64c-19.333 4 -35.666 12.667 -48.999 26s-20 29.666 -20 48.999
c0 23.333 7.33301 44.166 22 62.499s33.667 32.833 57 43.5h-69z" />
    <glyph glyph-name="uni0130" unicode="&#x130;" horiz-adv-x="318" 
d="M167 669h144l-117 -669h-144zM213 756.5c-10.667 11 -15.999 25.168 -15.999 42.501c0 20 7.83301 37.833 23.5 53.5s33.5 23.5 53.5 23.5c16 0 29.333 -5.5 40 -16.5s16 -24.833 16 -41.5c0 -20.667 -7.66699 -38.834 -23 -54.501s-33 -23.5 -53 -23.5
c-16.667 0 -30.334 5.5 -41.001 16.5z" />
    <glyph glyph-name="dotlessi" unicode="&#x131;" horiz-adv-x="316" 
d="M130 424h130l-74 -424h-130z" />
    <glyph glyph-name="IJ" unicode="&#x132;" horiz-adv-x="721" 
d="M167 669h144l-117 -669h-144zM295 16l17.999 109.999c16.667 -9.33301 32 -16.333 46 -21s30 -7 48 -7c22 0 40 6.83301 54 20.5s24 37.834 30 72.501l81 478h144l-87 -498c-11.333 -63.333 -35.666 -109.833 -72.999 -139.5s-80 -44.5 -128 -44.5
c-48.667 0 -93 9.66699 -133 29z" />
    <glyph glyph-name="ij" unicode="&#x133;" horiz-adv-x="485" 
d="M134.5 553c-11 13.333 -16.5 29.332 -16.5 47.999c0 21.333 6.66699 40 20 56s31.666 24 54.999 24c20.667 0 36.5 -6.5 47.5 -19.5s16.5 -28.833 16.5 -47.5c0 -21.333 -6.66699 -40.166 -20 -56.499s-31.666 -24.5 -54.999 -24.5c-20.667 0 -36.5 6.66699 -47.5 20z
M93 423.999h129l-74 -424h-129zM380 552.999c-11.333 13.333 -16.999 29.334 -16.999 48.001c0 21.333 6.66699 40 20 56s31.666 24 54.999 24c21.333 0 37.333 -6.83301 48 -20.5s16 -29.834 16 -48.501c0 -21.333 -6.66699 -39.833 -20 -55.5s-31.333 -23.5 -54 -23.5
c-20.667 0 -36.667 6.66699 -48 20zM113.001 -211l14.999 90c18 -6 34.667 -9 50 -9c23.333 0 40.333 6.83301 51 20.5s19 38.167 25 73.5l81 460h131l-77 -443c-24 -137.333 -91.667 -206 -203 -206c-25.333 0 -49.666 4.66699 -72.999 14z" />
    <glyph glyph-name="uni0136" unicode="&#x136;" horiz-adv-x="619" 
d="M403 350l179 -350h-153l-173 346l-60 -346h-144l115 669h145l-51 -299l227 299h163zM236 -203c19.333 6 36.167 14.5 50.5 25.5s24.5 24.167 30.5 39.5c-5.33301 -2 -11.333 -3 -18 -3c-13.333 0 -24.333 5.33301 -33 16s-13 22.667 -13 36
c0 15.333 5.83301 28.166 17.5 38.499s24.834 15.5 39.501 15.5c18 0 32.5 -6.83301 43.5 -20.5s16.5 -29.5 16.5 -47.5c0 -32.667 -11.833 -60.667 -35.5 -84s-51.834 -39.666 -84.501 -48.999z" />
    <glyph glyph-name="uni0137" unicode="&#x137;" horiz-adv-x="502" 
d="M478 72l17 -71c-21.333 -9.33301 -44.333 -14 -69 -14c-38 0 -71 10.167 -99 30.5s-56.667 54.5 -86 102.5l-58 94l-37 -214h-127l117 669h127l-72 -411l155 166h151l-183 -195h-2l59 -92c14 -22 28.167 -38.5 42.5 -49.5s32.5 -16.5 54.5 -16.5
c4 0 7.33301 0.333008 10 1zM168 -203c19.333 6 36.167 14.5 50.5 25.5s24.5 24.167 30.5 39.5c-5.33301 -2 -11.333 -3 -18 -3c-13.333 0 -24.333 5.33301 -33 16s-13 22.667 -13 36c0 15.333 5.83301 28.166 17.5 38.499s24.834 15.5 39.501 15.5
c18 0 32.5 -6.83301 43.5 -20.5s16.5 -29.5 16.5 -47.5c0 -32.667 -11.833 -60.667 -35.5 -84s-51.834 -39.666 -84.501 -48.999z" />
    <glyph glyph-name="Lacute" unicode="&#x139;" horiz-adv-x="507" 
d="M460 105l-19 -105h-391l117 669h144l-99 -564h248zM382 971v-136l-144 -92h-85z" />
    <glyph glyph-name="lacute" unicode="&#x13a;" horiz-adv-x="244" 
d="M54 9c-16 14.667 -24 35.332 -24 61.999c0 14.667 2 33.334 6 56.001l95 542h129l-94 -530c-3.33301 -16.667 -5 -29 -5 -37c0 -10.667 1.83301 -17.667 5.5 -21s9.16699 -5 16.5 -5c6.66699 0 12.667 0.666992 18 2l13 -67c-28 -16 -60.333 -24 -97 -24
c-26 0 -47 7.33301 -63 22zM337 970.998v-136l-144 -92h-85z" />
    <glyph glyph-name="uni013B" unicode="&#x13b;" horiz-adv-x="507" 
d="M460 105l-19 -105h-391l117 669h144l-99 -564h248zM159 -203c19.333 6 36.167 14.5 50.5 25.5s24.5 24.167 30.5 39.5c-5.33301 -2 -11.333 -3 -18 -3c-13.333 0 -24.333 5.33301 -33 16s-13 22.667 -13 36c0 15.333 5.83301 28.166 17.5 38.499s24.834 15.5 39.501 15.5
c18 0 32.5 -6.83301 43.5 -20.5s16.5 -29.5 16.5 -47.5c0 -32.667 -11.833 -60.667 -35.5 -84s-51.834 -39.666 -84.501 -48.999z" />
    <glyph glyph-name="uni013C" unicode="&#x13c;" horiz-adv-x="244" 
d="M54 9c-16 14.667 -24 35.332 -24 61.999c0 14.667 2 33.334 6 56.001l95 542h129l-94 -530c-3.33301 -16.667 -5 -29 -5 -37c0 -10.667 1.83301 -17.667 5.5 -21s9.16699 -5 16.5 -5c6.66699 0 12.667 0.666992 18 2l13 -67c-28 -16 -60.333 -24 -97 -24
c-26 0 -47 7.33301 -63 22zM32 -203.002c19.333 6 36.167 14.5 50.5 25.5s24.5 24.167 30.5 39.5c-5.33301 -2 -11.333 -3 -18 -3c-13.333 0 -24.333 5.33301 -33 16s-13 22.667 -13 36c0 15.333 5.83301 28.166 17.5 38.499s24.834 15.5 39.501 15.5
c18 0 32.5 -6.83301 43.5 -20.5s16.5 -29.5 16.5 -47.5c0 -32.667 -11.833 -60.667 -35.5 -84s-51.834 -39.666 -84.501 -48.999z" />
    <glyph glyph-name="Ldot" unicode="&#x13f;" horiz-adv-x="527" 
d="M460 105l-19 -105h-391l117 669h144l-99 -564h248zM357.5 315c-13 13.333 -19.5 28.666 -19.5 45.999s6.5 32.5 19.5 45.5s28.167 19.5 45.5 19.5s32.5 -6.5 45.5 -19.5s19.5 -28.167 19.5 -45.5s-6.5 -32.666 -19.5 -45.999s-28.167 -20 -45.5 -20
s-32.5 6.66699 -45.5 20z" />
    <glyph glyph-name="ldot" unicode="&#x140;" horiz-adv-x="401" 
d="M54 9c-16 14.667 -24 35.332 -24 61.999c0 14.667 2 33.334 6 56.001l95 542h129l-94 -530c-3.33301 -16.667 -5 -29 -5 -37c0 -10.667 1.83301 -17.667 5.5 -21s9.16699 -5 16.5 -5c6.66699 0 12.667 0.666992 18 2l13 -67c-28 -16 -60.333 -24 -97 -24
c-26 0 -47 7.33301 -63 22zM276.5 247.998c-13 13.333 -19.5 28.666 -19.5 45.999s6.5 32.5 19.5 45.5s28.167 19.5 45.5 19.5s32.5 -6.5 45.5 -19.5s19.5 -28.167 19.5 -45.5s-6.5 -32.666 -19.5 -45.999s-28.167 -20 -45.5 -20s-32.5 6.66699 -45.5 20z" />
    <glyph glyph-name="Lslash" unicode="&#x141;" horiz-adv-x="507" 
d="M460 105l-19 -105h-391l38 217l-76 -65l-1 62l90 76l66 379h144l-41 -235l87 74v-61l-100 -85l-45 -257h248z" />
    <glyph glyph-name="lslash" unicode="&#x142;" horiz-adv-x="244" 
d="M166 139c-3.33301 -16.667 -5 -29.002 -5 -37.002c0 -10.667 1.83301 -17.667 5.5 -21s9.16699 -5 16.5 -5c6.66699 0 12.667 0.666992 18 2l13 -67c-28 -16 -60.333 -24 -97 -24c-26 0 -47 7.33301 -63 22s-24 35.334 -24 62.001c0 14.667 2 33.334 6 56.001l13 73
l-45 -45v51l56 56l71 407h129l-44 -249l54 55v-51l-65 -66z" />
    <glyph glyph-name="Nacute" unicode="&#x143;" horiz-adv-x="683" 
d="M676 669l-118 -669h-170l-120 498l-88 -498h-130l117 669h170l123 -491l85 491h131zM562 971v-136l-144 -92h-85z" />
    <glyph glyph-name="nacute" unicode="&#x144;" horiz-adv-x="509" 
d="M320.5 9.5c-17 15 -25.501 35.5 -25.501 61.5c0 12.667 2.66699 31.334 8 56.001l24 111c4 19.333 6 34.666 6 45.999c0 19.333 -3.5 32.833 -10.5 40.5s-15.167 11.5 -24.5 11.5c-28.667 0 -54.667 -19.667 -78 -59s-40.666 -91.666 -51.999 -156.999l-20 -120h-129
l74 424h129l-12 -64c48 54.667 98 82 150 82c36.667 0 63.834 -10.833 81.501 -32.5s26.5 -50.167 26.5 -85.5c0 -21.333 -2.33301 -41.333 -7 -60l-29 -125c-2.66699 -13.333 -4 -25 -4 -35c0 -11.333 2 -18.833 6 -22.5s9.66699 -5.5 17 -5.5l20 2l15 -67
c-20.667 -8.66699 -38.834 -14.834 -54.501 -18.501s-32.167 -5.5 -49.5 -5.5c-24 0 -44.5 7.5 -61.5 22.5zM453.999 726v-136l-144 -92h-85z" />
    <glyph glyph-name="uni0145" unicode="&#x145;" horiz-adv-x="683" 
d="M676 669l-118 -669h-170l-120 498l-88 -498h-130l117 669h170l123 -491l85 491h131zM204 -203c19.333 6 36.167 14.5 50.5 25.5s24.5 24.167 30.5 39.5c-5.33301 -2 -11.333 -3 -18 -3c-13.333 0 -24.333 5.33301 -33 16s-13 22.667 -13 36
c0 15.333 5.83301 28.166 17.5 38.499s24.834 15.5 39.501 15.5c18 0 32.5 -6.83301 43.5 -20.5s16.5 -29.5 16.5 -47.5c0 -32.667 -11.833 -60.667 -35.5 -84s-51.834 -39.666 -84.501 -48.999z" />
    <glyph glyph-name="uni0146" unicode="&#x146;" horiz-adv-x="509" 
d="M320.5 9.5c-17 15 -25.501 35.5 -25.501 61.5c0 12.667 2.66699 31.334 8 56.001l24 111c4 19.333 6 34.666 6 45.999c0 19.333 -3.5 32.833 -10.5 40.5s-15.167 11.5 -24.5 11.5c-28.667 0 -54.667 -19.667 -78 -59s-40.666 -91.666 -51.999 -156.999l-20 -120h-129
l74 424h129l-12 -64c48 54.667 98 82 150 82c36.667 0 63.834 -10.833 81.501 -32.5s26.5 -50.167 26.5 -85.5c0 -21.333 -2.33301 -41.333 -7 -60l-29 -125c-2.66699 -13.333 -4 -25 -4 -35c0 -11.333 2 -18.833 6 -22.5s9.66699 -5.5 17 -5.5l20 2l15 -67
c-20.667 -8.66699 -38.834 -14.834 -54.501 -18.501s-32.167 -5.5 -49.5 -5.5c-24 0 -44.5 7.5 -61.5 22.5zM147.999 -203c19.333 6 36.167 14.5 50.5 25.5s24.5 24.167 30.5 39.5c-5.33301 -2 -11.333 -3 -18 -3c-13.333 0 -24.333 5.33301 -33 16s-13 22.667 -13 36
c0 15.333 5.83301 28.166 17.5 38.499s24.834 15.5 39.501 15.5c18 0 32.5 -6.83301 43.5 -20.5s16.5 -29.5 16.5 -47.5c0 -32.667 -11.833 -60.667 -35.5 -84s-51.834 -39.666 -84.501 -48.999z" />
    <glyph glyph-name="Ncaron" unicode="&#x147;" horiz-adv-x="683" 
d="M676 669l-118 -669h-170l-120 498l-88 -498h-130l117 669h170l123 -491l85 491h131zM283 872h75l73 -63l81 63h92l-163 -161h-46z" />
    <glyph glyph-name="ncaron" unicode="&#x148;" horiz-adv-x="509" 
d="M320.5 9.5c-17 15 -25.501 35.5 -25.501 61.5c0 12.667 2.66699 31.334 8 56.001l24 111c4 19.333 6 34.666 6 45.999c0 19.333 -3.5 32.833 -10.5 40.5s-15.167 11.5 -24.5 11.5c-28.667 0 -54.667 -19.667 -78 -59s-40.666 -91.666 -51.999 -156.999l-20 -120h-129
l74 424h129l-12 -64c48 54.667 98 82 150 82c36.667 0 63.834 -10.833 81.501 -32.5s26.5 -50.167 26.5 -85.5c0 -21.333 -2.33301 -41.333 -7 -60l-29 -125c-2.66699 -13.333 -4 -25 -4 -35c0 -11.333 2 -18.833 6 -22.5s9.66699 -5.5 17 -5.5l20 2l15 -67
c-20.667 -8.66699 -38.834 -14.834 -54.501 -18.501s-32.167 -5.5 -49.5 -5.5c-24 0 -44.5 7.5 -61.5 22.5zM180.999 659h75l73 -63l81 63h92l-163 -161h-46z" />
    <glyph glyph-name="Omacron" unicode="&#x14c;" 
d="M119.5 62.5c-41.667 50.333 -62.502 116.834 -62.502 199.501c0 73.333 13.333 142.166 40 206.499s64.834 116 114.501 155s107.834 58.5 174.501 58.5c80 0 141.333 -24.833 184 -74.5s64 -115.834 64 -198.501c0 -75.333 -13.5 -145.166 -40.5 -209.499
s-66 -115.833 -117 -154.5s-110.5 -58 -178.5 -58c-77.333 0 -136.833 25.167 -178.5 75.5zM406.498 148.001c27.667 34 48.3311 77.332 61.998 129.999s20.5 106.667 20.5 162c0 44.667 -8.5 78.334 -25.5 101.001s-43.833 34 -80.5 34
c-39.333 0 -72.666 -17.333 -99.999 -52s-47.666 -78.5 -60.999 -131.5s-20 -106.5 -20 -160.5c0 -44.667 8.16699 -78.167 24.5 -100.5s42.166 -33.5 77.499 -33.5c40.667 0 74.834 17 102.501 51zM300.995 849h268l-12 -74h-268z" />
    <glyph glyph-name="omacron" unicode="&#x14d;" horiz-adv-x="472" 
d="M69 39c-30 34.667 -44.998 79.333 -44.998 134c0 49.333 10.5 94.5 31.5 135.5s50.167 73.5 87.5 97.5s80 36 128 36c36.667 0 68.167 -8.5 94.5 -25.5s46.5 -40 60.5 -69s21 -61.167 21 -96.5c0 -50 -10.333 -95 -31 -135s-49.834 -71.5 -87.501 -94.5
s-80.834 -34.5 -129.501 -34.5c-56.667 0 -100 17.333 -130 52zM266.002 110.999c14.667 21.333 25.833 47.166 33.5 77.499s11.5 58.5 11.5 84.5c0 25.333 -4.16699 44.5 -12.5 57.5s-20.833 19.5 -37.5 19.5c-20.667 0 -38.5 -9.66699 -53.5 -29
s-26.333 -43.666 -34 -72.999s-11.5 -58 -11.5 -86c0 -27.333 4.5 -48 13.5 -62s21.833 -21 38.5 -21c20 0 37.333 10.667 52 32zM169.001 603.999h268l-12 -74h-268z" />
    <glyph glyph-name="Obreve" unicode="&#x14e;" 
d="M119.5 62.5c-41.667 50.333 -62.502 116.834 -62.502 199.501c0 73.333 13.333 142.166 40 206.499s64.834 116 114.501 155s107.834 58.5 174.501 58.5c80 0 141.333 -24.833 184 -74.5s64 -115.834 64 -198.501c0 -75.333 -13.5 -145.166 -40.5 -209.499
s-66 -115.833 -117 -154.5s-110.5 -58 -178.5 -58c-77.333 0 -136.833 25.167 -178.5 75.5zM406.498 148.001c27.667 34 48.3311 77.332 61.998 129.999s20.5 106.667 20.5 162c0 44.667 -8.5 78.334 -25.5 101.001s-43.833 34 -80.5 34
c-39.333 0 -72.666 -17.333 -99.999 -52s-47.666 -78.5 -60.999 -131.5s-20 -106.5 -20 -160.5c0 -44.667 8.16699 -78.167 24.5 -100.5s42.166 -33.5 77.499 -33.5c40.667 0 74.834 17 102.501 51zM321.495 764.5c-19 25 -30.501 52.833 -34.501 83.5l46 20
c7.33301 -18 19 -33.167 35 -45.5s35.667 -18.5 59 -18.5c22.667 0 44.334 6.16699 65.001 18.5s38 27.5 52 45.5l36 -20c-10.667 -28 -30.167 -55.167 -58.5 -81.5s-63.833 -39.5 -106.5 -39.5c-43.333 0 -74.5 12.5 -93.5 37.5z" />
    <glyph glyph-name="obreve" unicode="&#x14f;" horiz-adv-x="472" 
d="M69 39c-30 34.667 -44.998 79.333 -44.998 134c0 49.333 10.5 94.5 31.5 135.5s50.167 73.5 87.5 97.5s80 36 128 36c36.667 0 68.167 -8.5 94.5 -25.5s46.5 -40 60.5 -69s21 -61.167 21 -96.5c0 -50 -10.333 -95 -31 -135s-49.834 -71.5 -87.501 -94.5
s-80.834 -34.5 -129.501 -34.5c-56.667 0 -100 17.333 -130 52zM266.002 110.999c14.667 21.333 25.833 47.166 33.5 77.499s11.5 58.5 11.5 84.5c0 25.333 -4.16699 44.5 -12.5 57.5s-20.833 19.5 -37.5 19.5c-20.667 0 -38.5 -9.66699 -53.5 -29
s-26.333 -43.666 -34 -72.999s-11.5 -58 -11.5 -86c0 -27.333 4.5 -48 13.5 -62s21.833 -21 38.5 -21c20 0 37.333 10.667 52 32zM195.501 555.499c-19 25 -30.501 52.833 -34.501 83.5l46 20c7.33301 -18 19 -33.167 35 -45.5s35.667 -18.5 59 -18.5
c22.667 0 44.334 6.16699 65.001 18.5s38 27.5 52 45.5l36 -20c-10.667 -28 -30.167 -55.167 -58.5 -81.5s-63.833 -39.5 -106.5 -39.5c-43.333 0 -74.5 12.5 -93.5 37.5z" />
    <glyph glyph-name="Ohungarumlaut" unicode="&#x150;" 
d="M119.5 62.5c-41.667 50.333 -62.502 116.834 -62.502 199.501c0 73.333 13.333 142.166 40 206.499s64.834 116 114.501 155s107.834 58.5 174.501 58.5c80 0 141.333 -24.833 184 -74.5s64 -115.834 64 -198.501c0 -75.333 -13.5 -145.166 -40.5 -209.499
s-66 -115.833 -117 -154.5s-110.5 -58 -178.5 -58c-77.333 0 -136.833 25.167 -178.5 75.5zM406.498 148.001c27.667 34 48.3311 77.332 61.998 129.999s20.5 106.667 20.5 162c0 44.667 -8.5 78.334 -25.5 101.001s-43.833 34 -80.5 34
c-39.333 0 -72.666 -17.333 -99.999 -52s-47.666 -78.5 -60.999 -131.5s-20 -106.5 -20 -160.5c0 -44.667 8.16699 -78.167 24.5 -100.5s42.166 -33.5 77.499 -33.5c40.667 0 74.834 17 102.501 51zM443.995 903v-109l-137 -81h-64zM603.995 903v-109l-137 -81h-65z" />
    <glyph glyph-name="ohungarumlaut" unicode="&#x151;" horiz-adv-x="472" 
d="M69 39c-30 34.667 -44.998 79.333 -44.998 134c0 49.333 10.5 94.5 31.5 135.5s50.167 73.5 87.5 97.5s80 36 128 36c36.667 0 68.167 -8.5 94.5 -25.5s46.5 -40 60.5 -69s21 -61.167 21 -96.5c0 -50 -10.333 -95 -31 -135s-49.834 -71.5 -87.501 -94.5
s-80.834 -34.5 -129.501 -34.5c-56.667 0 -100 17.333 -130 52zM266.002 110.999c14.667 21.333 25.833 47.166 33.5 77.499s11.5 58.5 11.5 84.5c0 25.333 -4.16699 44.5 -12.5 57.5s-20.833 19.5 -37.5 19.5c-20.667 0 -38.5 -9.66699 -53.5 -29
s-26.333 -43.666 -34 -72.999s-11.5 -58 -11.5 -86c0 -27.333 4.5 -48 13.5 -62s21.833 -21 38.5 -21c20 0 37.333 10.667 52 32zM303.001 698.999v-109l-137 -92h-65zM462.001 698.999v-109l-137 -92h-64z" />
    <glyph glyph-name="OE" unicode="&#x152;" horiz-adv-x="986" 
d="M729 574l-31.0029 -178.999h198l-15 -92h-199l-35 -198h285l-20 -105h-427l11 60c-56 -48.667 -122 -73 -198 -73c-77.333 0 -136.833 25.167 -178.5 75.5s-62.5 116.833 -62.5 199.5c0 73.333 13.333 142.166 40 206.499s64.834 116 114.501 155
s107.834 58.5 174.501 58.5c46 0 85.833 -8.33301 119.5 -25s60.834 -40.667 81.501 -72l15 84h415l-17 -95h-271zM406.497 148.001c27.667 34 48.3311 77.332 61.998 129.999s20.5 106.667 20.5 162c0 44.667 -8.5 78.334 -25.5 101.001s-43.833 34 -80.5 34
c-39.333 0 -72.666 -17.333 -99.999 -52s-47.666 -78.5 -60.999 -131.5s-20 -106.5 -20 -160.5c0 -44.667 8.16699 -78.167 24.5 -100.5s42.166 -33.5 77.499 -33.5c40.667 0 74.834 17 102.501 51z" />
    <glyph glyph-name="oe" unicode="&#x153;" horiz-adv-x="725" 
d="M461 197l0.00292969 -4.99805c0 -34 10.667 -60.333 32 -79s52.666 -28 93.999 -28c16 0 29.333 1.16699 40 3.5s23.667 6.83301 39 13.5l-18 -97c-30 -12 -66 -18 -108 -18c-34.667 0 -66.167 6.16699 -94.5 18.5s-51.5 30.166 -69.5 53.499
c-22 -22.667 -48 -40.334 -78 -53.001s-63 -19 -99 -19c-56.667 0 -100 17.333 -130 52s-45 79.334 -45 134.001c0 49.333 10.5 94.5 31.5 135.5s50.167 73.5 87.5 97.5s80 36 128 36c57.333 0 102 -20.333 134 -61c39.333 40.667 88.666 61 147.999 61
c34.667 0 64.167 -6.33301 88.5 -19s42.666 -29.334 54.999 -50.001s18.5 -42.667 18.5 -66c0 -35.333 -13.167 -65.5 -39.5 -90.5s-64.166 -37.5 -113.499 -37.5c-30.667 0 -64.334 6 -101.001 18zM504.003 327.502c-13.333 -15.667 -24 -35.834 -32 -60.501
c18.667 -7.33301 36 -11 52 -11c22.667 0 40.667 4.5 54 13.5s20 22.167 20 39.5c0 10.667 -4 20.334 -12 29.001s-19.667 13 -35 13c-18 0 -33.667 -7.83301 -47 -23.5zM266.003 111.002c14.667 21.333 25.833 47.166 33.5 77.499s11.5 58.5 11.5 84.5
c0 25.333 -4.16699 44.5 -12.5 57.5s-20.833 19.5 -37.5 19.5c-20.667 0 -38.5 -9.66699 -53.5 -29s-26.333 -43.666 -34 -72.999s-11.5 -58 -11.5 -86c0 -27.333 4.5 -48 13.5 -62s21.833 -21 38.5 -21c20 0 37.333 10.667 52 32z" />
    <glyph glyph-name="Racute" unicode="&#x154;" horiz-adv-x="588" 
d="M167 669h185c50 0 92 -7.66699 126 -23s59.333 -36 76 -62s25 -55 25 -87c0 -48.667 -16.5 -91.167 -49.5 -127.5s-75.167 -60.833 -126.5 -73.5l144 -296h-159l-120 278h-27l-47 -278h-144zM307 370c40 0 70.999 11.167 92.999 33.5s33 53.166 33 92.499
c0 24.667 -7.66699 43.834 -23 57.501s-40.666 20.5 -75.999 20.5h-40l-36 -204h49zM502.999 971v-136l-144 -92h-85z" />
    <glyph glyph-name="racute" unicode="&#x155;" horiz-adv-x="337" 
d="M93 424h130.002l-14 -84c13.333 34 31.666 59 54.999 75s47.333 24 72 24c20 0 37 -3.33301 51 -10l-21 -112c-13.333 8.66699 -30 13 -50 13c-72.667 0 -123.334 -81.667 -152.001 -245l-15 -85h-130zM359.002 726v-136l-144 -92h-85z" />
    <glyph glyph-name="uni0156" unicode="&#x156;" horiz-adv-x="588" 
d="M167 669h185c50 0 92 -7.66699 126 -23s59.333 -36 76 -62s25 -55 25 -87c0 -48.667 -16.5 -91.167 -49.5 -127.5s-75.167 -60.833 -126.5 -73.5l144 -296h-159l-120 278h-27l-47 -278h-144zM307 370c40 0 70.999 11.167 92.999 33.5s33 53.166 33 92.499
c0 24.667 -7.66699 43.834 -23 57.501s-40.666 20.5 -75.999 20.5h-40l-36 -204h49zM207.999 -203c19.333 6 36.167 14.5 50.5 25.5s24.5 24.167 30.5 39.5c-5.33301 -2 -11.333 -3 -18 -3c-13.333 0 -24.333 5.33301 -33 16s-13 22.667 -13 36
c0 15.333 5.83301 28.166 17.5 38.499s24.834 15.5 39.501 15.5c18 0 32.5 -6.83301 43.5 -20.5s16.5 -29.5 16.5 -47.5c0 -32.667 -11.833 -60.667 -35.5 -84s-51.834 -39.666 -84.501 -48.999z" />
    <glyph glyph-name="uni0157" unicode="&#x157;" horiz-adv-x="337" 
d="M93 424h130.002l-14 -84c13.333 34 31.666 59 54.999 75s47.333 24 72 24c20 0 37 -3.33301 51 -10l-21 -112c-13.333 8.66699 -30 13 -50 13c-72.667 0 -123.334 -81.667 -152.001 -245l-15 -85h-130zM-6.99805 -203c19.333 6 36.167 14.5 50.5 25.5
s24.5 24.167 30.5 39.5c-5.33301 -2 -11.333 -3 -18 -3c-13.333 0 -24.333 5.33301 -33 16s-13 22.667 -13 36c0 15.333 5.83301 28.166 17.5 38.499s24.834 15.5 39.501 15.5c18 0 32.5 -6.83301 43.5 -20.5s16.5 -29.5 16.5 -47.5c0 -32.667 -11.833 -60.667 -35.5 -84
s-51.834 -39.666 -84.501 -48.999z" />
    <glyph glyph-name="Rcaron" unicode="&#x158;" horiz-adv-x="588" 
d="M167 669h185c50 0 92 -7.66699 126 -23s59.333 -36 76 -62s25 -55 25 -87c0 -48.667 -16.5 -91.167 -49.5 -127.5s-75.167 -60.833 -126.5 -73.5l144 -296h-159l-120 278h-27l-47 -278h-144zM307 370c40 0 70.999 11.167 92.999 33.5s33 53.166 33 92.499
c0 24.667 -7.66699 43.834 -23 57.501s-40.666 20.5 -75.999 20.5h-40l-36 -204h49zM223.999 872h75l73 -63l81 63h92l-163 -161h-46z" />
    <glyph glyph-name="rcaron" unicode="&#x159;" horiz-adv-x="337" 
d="M93 424h130.002l-14 -84c13.333 34 31.666 59 54.999 75s47.333 24 72 24c20 0 37 -3.33301 51 -10l-21 -112c-13.333 8.66699 -30 13 -50 13c-72.667 0 -123.334 -81.667 -152.001 -245l-15 -85h-130zM86.002 659h75l73 -63l81 63h92l-163 -161h-46z" />
    <glyph glyph-name="Sacute" unicode="&#x15a;" horiz-adv-x="531" 
d="M27 43l19.998 112.002c25.333 -20 53.833 -34.833 85.5 -44.5s62.167 -14.5 91.5 -14.5c74 0 111 26 111 78c0 24 -8.5 45 -25.5 63s-42.833 39.333 -77.5 64c-30 21.333 -54 40.166 -72 56.499s-33.5 36.166 -46.5 59.499s-19.5 50 -19.5 80
c0 40 10.5 73.833 31.5 101.5s49.167 48.5 84.5 62.5s74 21 116 21c66.667 0 127.334 -16 182.001 -48l-18 -99c-18 13.333 -41.333 24.333 -70 33s-56 13 -82 13c-28.667 0 -53.167 -7 -73.5 -21s-30.5 -33.667 -30.5 -59c0 -20 8.33301 -38.167 25 -54.5
s42.334 -36.5 77.001 -60.5c32.667 -22.667 58.834 -42.5 78.501 -59.5s36.667 -37.5 51 -61.5s21.5 -51 21.5 -81c0 -64.667 -24 -113.667 -72 -147s-109.667 -50 -185 -50c-72.667 0 -140.334 18.667 -203.001 56zM500.998 971.002v-136l-144 -92h-85z" />
    <glyph glyph-name="sacute" unicode="&#x15b;" horiz-adv-x="379" 
d="M7 22l17.0029 92.001c20 -8 41.5 -14.833 64.5 -20.5s43.833 -8.5 62.5 -8.5c16 0 29.5 3 40.5 9s16.5 14.667 16.5 26s-5 21.5 -15 30.5s-26 21.167 -48 36.5c-32 22 -56.5 42.167 -73.5 60.5s-25.5 41.166 -25.5 68.499c0 42 18.167 73.5 54.5 94.5
s78.833 31.5 127.5 31.5c46 0 88 -10 126 -30l-17 -87c-14 6.66699 -31.167 12.667 -51.5 18s-38.5 8 -54.5 8c-16.667 0 -30.834 -2.83301 -42.501 -8.5s-17.5 -15.167 -17.5 -28.5c0 -12 5.16699 -22.5 15.5 -31.5s27.166 -20.167 50.499 -33.5
c33.333 -19.333 59.166 -38.333 77.499 -57s27.5 -43 27.5 -73c0 -42 -17.667 -74.5 -53 -97.5s-77.333 -34.5 -126 -34.5c-61.333 0 -113.333 11.667 -156 35zM352.003 726.001v-136l-144 -92h-85z" />
    <glyph glyph-name="Scedilla" unicode="&#x15e;" horiz-adv-x="531" 
d="M264.5 560c-20.333 -14 -30.5029 -33.666 -30.5029 -58.999c0 -20 8.33301 -38.167 25 -54.5s42.334 -36.5 77.001 -60.5c32.667 -22.667 58.834 -42.5 78.501 -59.5s36.667 -37.5 51 -61.5s21.5 -51 21.5 -81c0 -59.333 -20.333 -105.5 -61 -138.5
s-94 -52.167 -160 -57.5l-45 -39h2c14 0 27.833 -5.16699 41.5 -15.5s20.5 -26.833 20.5 -49.5c0 -26 -11 -48.5 -33 -67.5s-47.333 -28.5 -76 -28.5c-24.667 0 -49 7.66699 -73 23l26 33c17.333 -7.33301 32.333 -11 45 -11s23.167 5 31.5 15s12.5 20.333 12.5 31
c0 8.66699 -2.33301 16.334 -7 23.001s-11.667 10 -21 10c-10.667 0 -20 -2 -28 -6l-18 24l63 58c-64 2.66699 -124 21 -180 55l20 112c25.333 -20 53.833 -34.833 85.5 -44.5s62.167 -14.5 91.5 -14.5c74 0 111 26 111 78c0 24 -8.5 45 -25.5 63s-42.833 39.333 -77.5 64
c-30 21.333 -54 40.166 -72 56.499s-33.5 36.166 -46.5 59.499s-19.5 50 -19.5 80c0 40 10.5 73.833 31.5 101.5s49.167 48.5 84.5 62.5s74 21 116 21c66.667 0 127.334 -16 182.001 -48l-18 -99c-18 13.333 -41.333 24.333 -70 33s-56 13 -82 13
c-28.667 0 -53.167 -7 -73.5 -21z" />
    <glyph glyph-name="scedilla" unicode="&#x15f;" horiz-adv-x="379" 
d="M186.5 282.5c10.333 -9 27.1689 -20.1641 50.502 -33.4971c33.333 -19.333 59.166 -38.333 77.499 -57s27.5 -43 27.5 -73c0 -36.667 -14 -66.334 -42 -89.001s-63 -36.334 -105 -41.001l-45 -40h2c14 0 27.833 -5.16699 41.5 -15.5s20.5 -26.833 20.5 -49.5
c0 -26 -11 -48.5 -33 -67.5s-47.333 -28.5 -76 -28.5c-24.667 0 -49 7.66699 -73 23l26 33c17.333 -7.33301 32.333 -11 45 -11s23.167 5 31.5 15s12.5 20.333 12.5 31c0 8.66699 -2.33301 16.334 -7 23.001s-11.667 10 -21 10c-10.667 0 -20 -2 -28 -6l-18 24l63 58
c-50 3.33301 -93 14.666 -129 33.999l17 92c20 -8 41.5 -14.833 64.5 -20.5s43.833 -8.5 62.5 -8.5c16 0 29.5 3 40.5 9s16.5 14.667 16.5 26s-5 21.5 -15 30.5s-26 21.167 -48 36.5c-32 22 -56.5 42.167 -73.5 60.5s-25.5 41.166 -25.5 68.499c0 42 18.167 73.5 54.5 94.5
s78.833 31.5 127.5 31.5c46 0 88 -10 126 -30l-17 -87c-14 6.66699 -31.167 12.667 -51.5 18s-38.5 8 -54.5 8c-16.667 0 -30.834 -2.83301 -42.501 -8.5s-17.5 -15.167 -17.5 -28.5c0 -12 5.16699 -22.5 15.5 -31.5z" />
    <glyph glyph-name="Scaron" unicode="&#x160;" horiz-adv-x="531" 
d="M27 43l19.998 112.002c25.333 -20 53.833 -34.833 85.5 -44.5s62.167 -14.5 91.5 -14.5c74 0 111 26 111 78c0 24 -8.5 45 -25.5 63s-42.833 39.333 -77.5 64c-30 21.333 -54 40.166 -72 56.499s-33.5 36.166 -46.5 59.499s-19.5 50 -19.5 80
c0 40 10.5 73.833 31.5 101.5s49.167 48.5 84.5 62.5s74 21 116 21c66.667 0 127.334 -16 182.001 -48l-18 -99c-18 13.333 -41.333 24.333 -70 33s-56 13 -82 13c-28.667 0 -53.167 -7 -73.5 -21s-30.5 -33.667 -30.5 -59c0 -20 8.33301 -38.167 25 -54.5
s42.334 -36.5 77.001 -60.5c32.667 -22.667 58.834 -42.5 78.501 -59.5s36.667 -37.5 51 -61.5s21.5 -51 21.5 -81c0 -64.667 -24 -113.667 -72 -147s-109.667 -50 -185 -50c-72.667 0 -140.334 18.667 -203.001 56zM221.998 872.002h75l73 -63l81 63h92l-163 -161h-46z" />
    <glyph glyph-name="scaron" unicode="&#x161;" horiz-adv-x="379" 
d="M7 22l17.0029 92.001c20 -8 41.5 -14.833 64.5 -20.5s43.833 -8.5 62.5 -8.5c16 0 29.5 3 40.5 9s16.5 14.667 16.5 26s-5 21.5 -15 30.5s-26 21.167 -48 36.5c-32 22 -56.5 42.167 -73.5 60.5s-25.5 41.166 -25.5 68.499c0 42 18.167 73.5 54.5 94.5
s78.833 31.5 127.5 31.5c46 0 88 -10 126 -30l-17 -87c-14 6.66699 -31.167 12.667 -51.5 18s-38.5 8 -54.5 8c-16.667 0 -30.834 -2.83301 -42.501 -8.5s-17.5 -15.167 -17.5 -28.5c0 -12 5.16699 -22.5 15.5 -31.5s27.166 -20.167 50.499 -33.5
c33.333 -19.333 59.166 -38.333 77.499 -57s27.5 -43 27.5 -73c0 -42 -17.667 -74.5 -53 -97.5s-77.333 -34.5 -126 -34.5c-61.333 0 -113.333 11.667 -156 35zM79.0029 659.001h75l73 -63l81 63h92l-163 -161h-46z" />
    <glyph glyph-name="uni0162" unicode="&#x162;" horiz-adv-x="530" 
d="M582 561h-183l-100 -561h-145l100 561h-184l19 108h512zM88 -189l26 32.999c17.333 -7.33301 32.333 -11 45 -11s23.167 5 31.5 15s12.5 20.333 12.5 31c0 8.66699 -2.33301 16.334 -7 23.001s-11.667 10 -21 10c-10.667 0 -20 -2 -28 -6l-18 24l76 70h59l-58 -51h2
c14 0 27.833 -5.16699 41.5 -15.5s20.5 -26.833 20.5 -49.5c0 -26 -11 -48.5 -33 -67.5s-47.333 -28.5 -76 -28.5c-24.667 0 -49 7.66699 -73 23z" />
    <glyph glyph-name="uni0163" unicode="&#x163;" horiz-adv-x="282" 
d="M174 149c-0.666992 -5.33301 -2 -12.668 -4 -22.001s-3 -17.333 -3 -24c0 -16.667 9.66699 -25 29 -25c10 0 24.333 1.66699 43 5l15 -69c-24.667 -11.333 -49 -19 -73 -23l-48 -42h2c14 0 27.833 -5.16699 41.5 -15.5s20.5 -26.833 20.5 -49.5
c0 -26 -11 -48.5 -33 -67.5s-47.333 -28.5 -76 -28.5c-24.667 0 -49 7.66699 -73 23l26 33c17.333 -7.33301 32.333 -11 45 -11s23.167 5 31.5 15s12.5 20.333 12.5 31c0 8.66699 -2.33301 16.334 -7 23.001s-11.667 10 -21 10c-10.667 0 -20 -2 -28 -6l-18 24l64 59
c-53.333 7.33301 -80 40.333 -80 99c0 12.667 1.66699 29 5 49l37 217h-53l12 70h53l22 127h129l-22 -127h75l-12 -70h-76z" />
    <glyph glyph-name="Tcaron" unicode="&#x164;" horiz-adv-x="530" 
d="M582 561h-183l-100 -561h-145l100 561h-184l19 108h512zM209 872h75l73 -63l81 63h92l-163 -161h-46z" />
    <glyph glyph-name="tcaron" unicode="&#x165;" horiz-adv-x="282" 
d="M174 149c-0.666992 -5.33301 -2 -12.667 -4 -22s-3 -17.333 -3 -24c0 -16.667 9.66699 -25 29 -25c10 0 24.333 1.66699 43 5l15 -69c-38.667 -17.333 -76 -26 -112 -26c-68 0 -102 33.333 -102 100c0 12.667 1.66699 29 5 49l37 217h-53l12 70h53l22 127h129l-22 -127
h75l-12 -70h-76zM311 668.999h90l-69 -217h-65z" />
    <glyph glyph-name="Utilde" unicode="&#x168;" horiz-adv-x="657" 
d="M81 184c0 22 2.66602 48.333 7.99902 79l72 406h143l-74 -421c-0.666992 -3.33301 -2.16699 -12.166 -4.5 -26.499s-3.5 -28.833 -3.5 -43.5c0 -20.667 7 -38.834 21 -54.501s38 -23.5 72 -23.5c38.667 0 68.834 14 90.501 42s36.167 62.333 43.5 103l73 424h135
l-77 -440c-14 -78 -43.667 -137.833 -89 -179.5s-107 -62.5 -185 -62.5c-150 0 -225 65.667 -225 197zM258.999 810c40 61.333 82.002 92 126.002 92c12.667 0 24 -2.33301 34 -7s21.667 -11.667 35 -21c11.333 -8 21 -14 29 -18s16.333 -6 25 -6c10 0 21.667 6 35 18
s23.333 26 30 42l34 -69c-38.667 -55.333 -79 -83 -121 -83c-14 0 -26.5 2.5 -37.5 7.5s-23.167 12.167 -36.5 21.5c-10 7.33301 -18.5 12.833 -25.5 16.5s-14.5 5.5 -22.5 5.5c-10.667 0 -22.334 -5.83301 -35.001 -17.5s-22.334 -26.167 -29.001 -43.5z" />
    <glyph glyph-name="utilde" unicode="&#x169;" horiz-adv-x="503" 
d="M324 1c-16 10 -26.334 24.998 -31.001 44.998c-14 -17.333 -33.333 -31.5 -58 -42.5s-49 -16.5 -73 -16.5c-41.333 0 -72.333 10.333 -93 31s-31 47.334 -31 80.001c0 24 2.66699 50 8 78l43 248h129l-45 -261c-2 -10 -3 -19.667 -3 -29c0 -18 3.5 -30.333 10.5 -37
s17.167 -10 30.5 -10c24 0 44.833 13.667 62.5 41s32.167 73 43.5 137l28 159h130l-50 -284c-2.66699 -14 -4 -26 -4 -36c0 -11.333 1.83301 -18.666 5.5 -21.999s8.83398 -5 15.501 -5c7.33301 0 14 0.666992 20 2l15 -68c-36 -16.667 -69 -25 -99 -25c-20 0 -38 5 -54 15z
M131.999 564.998c40 61.333 82.002 92 126.002 92c12.667 0 24 -2.33301 34 -7s21.667 -11.667 35 -21c11.333 -8 21 -14 29 -18s16.333 -6 25 -6c10 0 21.667 6 35 18s23.333 26 30 42l34 -69c-38.667 -55.333 -79 -83 -121 -83c-14 0 -26.5 2.5 -37.5 7.5
s-23.167 12.167 -36.5 21.5c-10 7.33301 -18.5 12.833 -25.5 16.5s-14.5 5.5 -22.5 5.5c-10.667 0 -22.334 -5.83301 -35.001 -17.5s-22.334 -26.167 -29.001 -43.5z" />
    <glyph glyph-name="Umacron" unicode="&#x16a;" horiz-adv-x="657" 
d="M81 184c0 22 2.66602 48.333 7.99902 79l72 406h143l-74 -421c-0.666992 -3.33301 -2.16699 -12.166 -4.5 -26.499s-3.5 -28.833 -3.5 -43.5c0 -20.667 7 -38.834 21 -54.501s38 -23.5 72 -23.5c38.667 0 68.834 14 90.501 42s36.167 62.333 43.5 103l73 424h135
l-77 -440c-14 -78 -43.667 -137.833 -89 -179.5s-107 -62.5 -185 -62.5c-150 0 -225 65.667 -225 197zM303.999 849h268l-12 -74h-268z" />
    <glyph glyph-name="umacron" unicode="&#x16b;" horiz-adv-x="503" 
d="M324 1c-16 10 -26.334 24.998 -31.001 44.998c-14 -17.333 -33.333 -31.5 -58 -42.5s-49 -16.5 -73 -16.5c-41.333 0 -72.333 10.333 -93 31s-31 47.334 -31 80.001c0 24 2.66699 50 8 78l43 248h129l-45 -261c-2 -10 -3 -19.667 -3 -29c0 -18 3.5 -30.333 10.5 -37
s17.167 -10 30.5 -10c24 0 44.833 13.667 62.5 41s32.167 73 43.5 137l28 159h130l-50 -284c-2.66699 -14 -4 -26 -4 -36c0 -11.333 1.83301 -18.666 5.5 -21.999s8.83398 -5 15.501 -5c7.33301 0 14 0.666992 20 2l15 -68c-36 -16.667 -69 -25 -99 -25c-20 0 -38 5 -54 15z
M176.999 603.998h268l-12 -74h-268z" />
    <glyph glyph-name="Ubreve" unicode="&#x16c;" horiz-adv-x="657" 
d="M81 184c0 22 2.66602 48.333 7.99902 79l72 406h143l-74 -421c-0.666992 -3.33301 -2.16699 -12.166 -4.5 -26.499s-3.5 -28.833 -3.5 -43.5c0 -20.667 7 -38.834 21 -54.501s38 -23.5 72 -23.5c38.667 0 68.834 14 90.501 42s36.167 62.333 43.5 103l73 424h135
l-77 -440c-14 -78 -43.667 -137.833 -89 -179.5s-107 -62.5 -185 -62.5c-150 0 -225 65.667 -225 197zM324.499 764.5c-19 25 -30.501 52.833 -34.501 83.5l46 20c7.33301 -18 19 -33.167 35 -45.5s35.667 -18.5 59 -18.5c22.667 0 44.334 6.16699 65.001 18.5
s38 27.5 52 45.5l36 -20c-10.667 -28 -30.167 -55.167 -58.5 -81.5s-63.833 -39.5 -106.5 -39.5c-43.333 0 -74.5 12.5 -93.5 37.5z" />
    <glyph glyph-name="ubreve" unicode="&#x16d;" horiz-adv-x="503" 
d="M324 1c-16 10 -26.334 24.998 -31.001 44.998c-14 -17.333 -33.333 -31.5 -58 -42.5s-49 -16.5 -73 -16.5c-41.333 0 -72.333 10.333 -93 31s-31 47.334 -31 80.001c0 24 2.66699 50 8 78l43 248h129l-45 -261c-2 -10 -3 -19.667 -3 -29c0 -18 3.5 -30.333 10.5 -37
s17.167 -10 30.5 -10c24 0 44.833 13.667 62.5 41s32.167 73 43.5 137l28 159h130l-50 -284c-2.66699 -14 -4 -26 -4 -36c0 -11.333 1.83301 -18.666 5.5 -21.999s8.83398 -5 15.501 -5c7.33301 0 14 0.666992 20 2l15 -68c-36 -16.667 -69 -25 -99 -25c-20 0 -38 5 -54 15z
M203.499 555.498c-19 25 -30.501 52.833 -34.501 83.5l46 20c7.33301 -18 19 -33.167 35 -45.5s35.667 -18.5 59 -18.5c22.667 0 44.334 6.16699 65.001 18.5s38 27.5 52 45.5l36 -20c-10.667 -28 -30.167 -55.167 -58.5 -81.5s-63.833 -39.5 -106.5 -39.5
c-43.333 0 -74.5 12.5 -93.5 37.5z" />
    <glyph glyph-name="Uring" unicode="&#x16e;" horiz-adv-x="657" 
d="M81 184c0 22 2.66602 48.333 7.99902 79l72 406h143l-74 -421c-0.666992 -3.33301 -2.16699 -12.166 -4.5 -26.499s-3.5 -28.833 -3.5 -43.5c0 -20.667 7 -38.834 21 -54.501s38 -23.5 72 -23.5c38.667 0 68.834 14 90.501 42s36.167 62.333 43.5 103l73 424h135
l-77 -440c-14 -78 -43.667 -137.833 -89 -179.5s-107 -62.5 -185 -62.5c-150 0 -225 65.667 -225 197zM355.499 736c-20.333 18.667 -30.499 41.666 -30.499 68.999c0 18.667 5.16699 36.334 15.5 53.001s24.333 30.167 42 40.5s36.5 15.5 56.5 15.5
c26 0 49.333 -9.33301 70 -28s31 -41.667 31 -69c0 -19.333 -5.33301 -37.333 -16 -54s-24.834 -30 -42.501 -40s-36.5 -15 -56.5 -15c-26 0 -49.167 9.33301 -69.5 28zM460.5 781.499c9 9.66699 13.5 21.167 13.5 34.5c0 11.333 -3.5 20.833 -10.5 28.5
s-15.833 11.5 -26.5 11.5c-13.333 0 -24.333 -4.66699 -33 -14s-13 -21 -13 -35c0 -11.333 3.5 -20.833 10.5 -28.5s15.833 -11.5 26.5 -11.5c12.667 0 23.5 4.83301 32.5 14.5z" />
    <glyph glyph-name="uring" unicode="&#x16f;" horiz-adv-x="503" 
d="M324 1c-16 10 -26.334 24.998 -31.001 44.998c-14 -17.333 -33.333 -31.5 -58 -42.5s-49 -16.5 -73 -16.5c-41.333 0 -72.333 10.333 -93 31s-31 47.334 -31 80.001c0 24 2.66699 50 8 78l43 248h129l-45 -261c-2 -10 -3 -19.667 -3 -29c0 -18 3.5 -30.333 10.5 -37
s17.167 -10 30.5 -10c24 0 44.833 13.667 62.5 41s32.167 73 43.5 137l28 159h130l-50 -284c-2.66699 -14 -4 -26 -4 -36c0 -11.333 1.83301 -18.666 5.5 -21.999s8.83398 -5 15.501 -5c7.33301 0 14 0.666992 20 2l15 -68c-36 -16.667 -69 -25 -99 -25c-20 0 -38 5 -54 15z
M235.499 530.998c-20.333 18.667 -30.499 41.666 -30.499 68.999c0 18.667 5.16699 36.334 15.5 53.001s24.333 30.167 42 40.5s36.5 15.5 56.5 15.5c26 0 49.333 -9.33301 70 -28s31 -41.667 31 -69c0 -19.333 -5.33301 -37.333 -16 -54s-24.834 -30 -42.501 -40
s-36.5 -15 -56.5 -15c-26 0 -49.167 9.33301 -69.5 28zM340.5 576.497c9 9.66699 13.5 21.167 13.5 34.5c0 11.333 -3.5 20.833 -10.5 28.5s-15.833 11.5 -26.5 11.5c-13.333 0 -24.333 -4.66699 -33 -14s-13 -21 -13 -35c0 -11.333 3.5 -20.833 10.5 -28.5
s15.833 -11.5 26.5 -11.5c12.667 0 23.5 4.83301 32.5 14.5z" />
    <glyph glyph-name="Uhungarumlaut" unicode="&#x170;" horiz-adv-x="657" 
d="M81 184c0 22 2.66602 48.333 7.99902 79l72 406h143l-74 -421c-0.666992 -3.33301 -2.16699 -12.166 -4.5 -26.499s-3.5 -28.833 -3.5 -43.5c0 -20.667 7 -38.834 21 -54.501s38 -23.5 72 -23.5c38.667 0 68.834 14 90.501 42s36.167 62.333 43.5 103l73 424h135
l-77 -440c-14 -78 -43.667 -137.833 -89 -179.5s-107 -62.5 -185 -62.5c-150 0 -225 65.667 -225 197zM446.999 903v-109l-137 -81h-64zM606.999 903v-109l-137 -81h-65z" />
    <glyph glyph-name="uhungarumlaut" unicode="&#x171;" horiz-adv-x="503" 
d="M324 1c-16 10 -26.334 24.998 -31.001 44.998c-14 -17.333 -33.333 -31.5 -58 -42.5s-49 -16.5 -73 -16.5c-41.333 0 -72.333 10.333 -93 31s-31 47.334 -31 80.001c0 24 2.66699 50 8 78l43 248h129l-45 -261c-2 -10 -3 -19.667 -3 -29c0 -18 3.5 -30.333 10.5 -37
s17.167 -10 30.5 -10c24 0 44.833 13.667 62.5 41s32.167 73 43.5 137l28 159h130l-50 -284c-2.66699 -14 -4 -26 -4 -36c0 -11.333 1.83301 -18.666 5.5 -21.999s8.83398 -5 15.501 -5c7.33301 0 14 0.666992 20 2l15 -68c-36 -16.667 -69 -25 -99 -25c-20 0 -38 5 -54 15z
M310.999 698.998v-109l-137 -92h-65zM469.999 698.998v-109l-137 -92h-64z" />
    <glyph glyph-name="Uogonek" unicode="&#x172;" horiz-adv-x="657" 
d="M657 669l-77.001 -439.996c-13.333 -75.333 -41.5 -133.833 -84.5 -175.5s-100.833 -63.834 -173.5 -66.501c-10.667 -6.66699 -19.167 -14.834 -25.5 -24.501s-9.5 -20.834 -9.5 -33.501c0 -12 3.16699 -22.167 9.5 -30.5s15.833 -13.5 28.5 -15.5l-36 -64
c-19.333 4 -35.666 12.667 -48.999 26s-20 29.666 -20 48.999s5.16699 37 15.5 53s24.166 29.667 41.499 41c-130.667 8.66699 -196 74 -196 196c0 22 2.66699 48.333 8 79l72 406h143l-74 -421c-0.666992 -3.33301 -2.16699 -12.166 -4.5 -26.499s-3.5 -28.833 -3.5 -43.5
c0 -20.667 7 -38.834 21 -54.501s38 -23.5 72 -23.5c38.667 0 68.834 14 90.501 42s36.167 62.333 43.5 103l73 424h135z" />
    <glyph glyph-name="uogonek" unicode="&#x173;" horiz-adv-x="503" 
d="M405.5 -91.5c6.33301 -8.33301 15.8311 -13.5 28.498 -15.5l-36 -64c-19.333 4 -35.666 12.667 -48.999 26s-20 29.666 -20 48.999c0 32 13.667 59.333 41 82c-18.667 1.33301 -35.167 7 -49.5 17s-23.5 24.333 -27.5 43c-14 -17.333 -33.333 -31.5 -58 -42.5
s-49 -16.5 -73 -16.5c-41.333 0 -72.333 10.333 -93 31s-31 47.334 -31 80.001c0 24 2.66699 50 8 78l43 248h129l-45 -261c-2 -10 -3 -19.667 -3 -29c0 -18 3.5 -30.333 10.5 -37s17.167 -10 30.5 -10c24 0 44.833 13.667 62.5 41s32.167 73 43.5 137l28 159h130l-50 -284
c-2.66699 -14 -4 -26 -4 -36c0 -11.333 1.83301 -18.666 5.5 -21.999s8.83398 -5 15.501 -5c7.33301 0 14 0.666992 20 2l15 -68c-17.333 -8.66699 -35.333 -15 -54 -19c-18 -14.667 -27 -32.334 -27 -53.001c0 -12 3.16699 -22.167 9.5 -30.5z" />
    <glyph glyph-name="Wcircumflex" unicode="&#x174;" horiz-adv-x="893" 
d="M966 669l-302 -669h-166l-30 303l-145 -303h-168l-68 669h143l39 -509h5l172 365l-14 144h146l28 -504h6l206 504h148zM664 713h-75l-73 63l-81 -63h-92l163 161h46z" />
    <glyph glyph-name="wcircumflex" unicode="&#x175;" horiz-adv-x="723" 
d="M711 336c0 -67.333 -13.167 -127.333 -39.5 -180s-64.166 -94 -113.499 -124s-107 -45 -173 -45c-43.333 0 -74.333 15.667 -93 47c-52.667 -31.333 -105.334 -47 -158.001 -47c-26 0 -48.667 3.5 -68 10.5s-33.333 16.833 -42 29.5l69 397h130l-57 -319
c7.33301 -4.66699 20.333 -7 39 -7c27.333 0 59 16.667 95 50l49 276h130l-58 -323c4 -2 9.33301 -3 16 -3c50 0 86.5 25.667 109.5 77s34.5 115.333 34.5 192c0 19.333 -1 38.333 -3 57h124c6 -28.667 9 -58 9 -88zM552 498h-75l-73 63l-81 -63h-92l163 161h46z" />
    <glyph glyph-name="Ycircumflex" unicode="&#x176;" horiz-adv-x="549" 
d="M346 220l-39 -220h-141l39 227l-115 442h143l67 -297l169 297h150zM517 713h-75l-73 63l-81 -63h-92l163 161h46z" />
    <glyph glyph-name="ycircumflex" unicode="&#x177;" horiz-adv-x="467" 
d="M433 308c0 -82 -13.834 -160.498 -41.501 -235.498s-69.167 -139 -124.5 -192s-122.666 -87.5 -201.999 -103.5l-42 96c84.667 23.333 151 65.666 199 126.999h-77l-117 424h129l96 -379c36 65.333 54 142 54 230c0 35.333 -1 62 -3 80s-5.33301 41 -10 69h127
c8 -36.667 12 -75.334 12 -116.001zM379.999 498.002h-75l-73 63l-81 -63h-92l163 161h46z" />
    <glyph glyph-name="Ydieresis" unicode="&#x178;" horiz-adv-x="549" 
d="M346 220l-39 -220h-141l39 227l-115 442h143l67 -297l169 297h150zM247.5 756.5c-11 11 -16.5 24.832 -16.5 41.499c0 20.667 7.66699 38.834 23 54.501s33 23.5 53 23.5c16 0 29.5 -5.5 40.5 -16.5s16.5 -24.833 16.5 -41.5c0 -20 -7.83301 -38 -23.5 -54
s-33.167 -24 -52.5 -24c-16 0 -29.5 5.5 -40.5 16.5zM421 756.499c-10.667 11 -15.999 25.168 -15.999 42.501c0 20 7.83301 37.833 23.5 53.5s33.5 23.5 53.5 23.5c16 0 29.333 -5.5 40 -16.5s16 -24.833 16 -41.5c0 -20.667 -7.66699 -38.834 -23 -54.501
s-33 -23.5 -53 -23.5c-16.667 0 -30.334 5.5 -41.001 16.5z" />
    <glyph glyph-name="Zacute" unicode="&#x179;" horiz-adv-x="557" 
d="M0 69l383 501h-273l17 99h471l-12 -66l-383 -498h296l-18 -105h-493zM503 971v-136l-144 -92h-85z" />
    <glyph glyph-name="zacute" unicode="&#x17a;" horiz-adv-x="412" 
d="M410 371l-235 -280h196l-17 -91h-371l7 54l240 284h-180l14 86h355zM364 726v-136l-144 -92h-85z" />
    <glyph glyph-name="Zdotaccent" unicode="&#x17b;" horiz-adv-x="557" 
d="M0 69l383 501h-273l17 99h471l-12 -66l-383 -498h296l-18 -105h-493zM334 756.5c-10.667 11 -15.999 25.168 -15.999 42.501c0 20 7.83301 37.833 23.5 53.5s33.5 23.5 53.5 23.5c16 0 29.333 -5.5 40 -16.5s16 -24.833 16 -41.5c0 -20.667 -7.66699 -38.834 -23 -54.501
s-33 -23.5 -53 -23.5c-16.667 0 -30.334 5.5 -41.001 16.5z" />
    <glyph glyph-name="zdotaccent" unicode="&#x17c;" horiz-adv-x="412" 
d="M410 371l-235 -280h196l-17 -91h-371l7 54l240 284h-180l14 86h355zM200 539.5c-10.667 11 -15.999 25.168 -15.999 42.501c0 20 7.83301 37.833 23.5 53.5s33.5 23.5 53.5 23.5c16 0 29.333 -5.5 40 -16.5s16 -24.833 16 -41.5c0 -20.667 -7.66699 -38.834 -23 -54.501
s-33 -23.5 -53 -23.5c-16.667 0 -30.334 5.5 -41.001 16.5z" />
    <glyph glyph-name="Zcaron" unicode="&#x17d;" horiz-adv-x="557" 
d="M0 69l383 501h-273l17 99h471l-12 -66l-383 -498h296l-18 -105h-493zM224 872h75l73 -63l81 63h92l-163 -161h-46z" />
    <glyph glyph-name="zcaron" unicode="&#x17e;" horiz-adv-x="412" 
d="M410 371l-235 -280h196l-17 -91h-371l7 54l240 284h-180l14 86h355zM91 659h75l73 -63l81 63h92l-163 -161h-46z" />
    <glyph glyph-name="florin" unicode="&#x192;" horiz-adv-x="656" 
d="M65 13.5c-6.66699 9 -9.00098 19.832 -7.00098 32.499l101 578c2.66699 12.667 8.83398 23.334 18.501 32.001s20.834 13 33.501 13h394c10.667 0 19.5 -3.5 26.5 -10.5s10.5 -15.5 10.5 -25.5c0 -4 -0.333008 -7 -1 -9l-101 -578c-2 -12.667 -8.16699 -23.5 -18.5 -32.5
s-21.5 -13.5 -33.5 -13.5h-394c-12.667 0 -22.334 4.5 -29.001 13.5zM563.999 617.999h-328l120 -248zM324.999 334.999l-122 256l-89 -511zM586.999 589.999l-214 -255l125 -256zM462.999 50.999l-119 248l-207 -248h326z" />
    <glyph glyph-name="AEacute" unicode="&#x1fc;" horiz-adv-x="899" 
d="M642 574l-31 -179h198l-15 -92h-199l-35 -198h285l-20 -105h-427l27 157h-158l-93 -157h-165l426 669h495l-17 -95h-271zM442 249l50 290l-171 -290h121zM700 971v-136l-144 -92h-85z" />
    <glyph glyph-name="aeacute" unicode="&#x1fd;" horiz-adv-x="737" 
d="M523.5 182c-15.667 2 -32.4971 6.00195 -50.4971 12.002v-2c0 -34 10.667 -60.333 32 -79s52.666 -28 93.999 -28c16 0 29.333 1.16699 40 3.5s23.667 6.83301 39 13.5l-18 -97c-30 -12 -66 -18 -108 -18c-62.667 0 -110.334 18.333 -143.001 55l-7 -42h-128l9 52
c-15.333 -21.333 -33.166 -37.5 -53.499 -48.5s-41.5 -16.5 -63.5 -16.5c-44.667 0 -78.834 17.333 -102.501 52s-35.5 78 -35.5 130c0 24 1.66699 44.333 5 61c10 58.667 32.333 108.667 67 150s77.334 62 128.001 62c27.333 0 50.666 -6.83301 69.999 -20.5
s32.333 -32.834 39 -57.501l11 60h128l-4 -20c34 25.333 71.667 38 113 38c29.333 0 54.666 -6.33301 75.999 -19s37.666 -29.334 48.999 -50.001s17 -42.667 17 -66c0 -35.333 -13.167 -65.5 -39.5 -90.5s-64.166 -37.5 -113.499 -37.5c-18 0 -34.833 1 -50.5 3z
M516.003 327.502c-13.333 -15.667 -24 -35.834 -32 -60.501c18.667 -7.33301 36 -11 52 -11c22.667 0 40.667 4.5 54 13.5s20 22.167 20 39.5c0 10.667 -4 20.334 -12 29.001s-19.667 13 -35 13c-18 0 -33.667 -7.83301 -47 -23.5zM317.003 246.002
c0 27.333 -5.33105 50.167 -15.998 68.5s-25 27.5 -43 27.5c-23.333 0 -43.333 -10.833 -60 -32.5s-28 -51.5 -34 -89.5c-2 -12.667 -3 -24.667 -3 -36c0 -28 5.16699 -50.667 15.5 -68s23.166 -26 38.499 -26c22 0 42.667 12 62 36s31.666 52 36.999 84c2 12 3 24 3 36z
M463.005 726.003v-136l-144 -92h-85z" />
    <glyph glyph-name="uni0218" unicode="&#x218;" horiz-adv-x="531" 
d="M27 43l19.998 112.002c25.333 -20 53.833 -34.833 85.5 -44.5s62.167 -14.5 91.5 -14.5c74 0 111 26 111 78c0 24 -8.5 45 -25.5 63s-42.833 39.333 -77.5 64c-30 21.333 -54 40.166 -72 56.499s-33.5 36.166 -46.5 59.499s-19.5 50 -19.5 80
c0 40 10.5 73.833 31.5 101.5s49.167 48.5 84.5 62.5s74 21 116 21c66.667 0 127.334 -16 182.001 -48l-18 -99c-18 13.333 -41.333 24.333 -70 33s-56 13 -82 13c-28.667 0 -53.167 -7 -73.5 -21s-30.5 -33.667 -30.5 -59c0 -20 8.33301 -38.167 25 -54.5
s42.334 -36.5 77.001 -60.5c32.667 -22.667 58.834 -42.5 78.501 -59.5s36.667 -37.5 51 -61.5s21.5 -51 21.5 -81c0 -64.667 -24 -113.667 -72 -147s-109.667 -50 -185 -50c-72.667 0 -140.334 18.667 -203.001 56zM151.998 -202.998c19.333 6 36.167 14.5 50.5 25.5
s24.5 24.167 30.5 39.5c-5.33301 -2 -11.333 -3 -18 -3c-13.333 0 -24.333 5.33301 -33 16s-13 22.667 -13 36c0 15.333 5.83301 28.166 17.5 38.499s24.834 15.5 39.501 15.5c18 0 32.5 -6.83301 43.5 -20.5s16.5 -29.5 16.5 -47.5c0 -32.667 -11.833 -60.667 -35.5 -84
s-51.834 -39.666 -84.501 -48.999z" />
    <glyph glyph-name="uni0219" unicode="&#x219;" horiz-adv-x="379" 
d="M7 22l17.0029 92.001c20 -8 41.5 -14.833 64.5 -20.5s43.833 -8.5 62.5 -8.5c16 0 29.5 3 40.5 9s16.5 14.667 16.5 26s-5 21.5 -15 30.5s-26 21.167 -48 36.5c-32 22 -56.5 42.167 -73.5 60.5s-25.5 41.166 -25.5 68.499c0 42 18.167 73.5 54.5 94.5
s78.833 31.5 127.5 31.5c46 0 88 -10 126 -30l-17 -87c-14 6.66699 -31.167 12.667 -51.5 18s-38.5 8 -54.5 8c-16.667 0 -30.834 -2.83301 -42.501 -8.5s-17.5 -15.167 -17.5 -28.5c0 -12 5.16699 -22.5 15.5 -31.5s27.166 -20.167 50.499 -33.5
c33.333 -19.333 59.166 -38.333 77.499 -57s27.5 -43 27.5 -73c0 -42 -17.667 -74.5 -53 -97.5s-77.333 -34.5 -126 -34.5c-61.333 0 -113.333 11.667 -156 35zM81.0029 -202.999c19.333 6 36.167 14.5 50.5 25.5s24.5 24.167 30.5 39.5c-5.33301 -2 -11.333 -3 -18 -3
c-13.333 0 -24.333 5.33301 -33 16s-13 22.667 -13 36c0 15.333 5.83301 28.166 17.5 38.499s24.834 15.5 39.501 15.5c18 0 32.5 -6.83301 43.5 -20.5s16.5 -29.5 16.5 -47.5c0 -32.667 -11.833 -60.667 -35.5 -84s-51.834 -39.666 -84.501 -48.999z" />
    <glyph glyph-name="uni021A" unicode="&#x21a;" horiz-adv-x="530" 
d="M582 561h-183l-100 -561h-145l100 561h-184l19 108h512zM137 -203c19.333 6 36.167 14.5 50.5 25.5s24.5 24.167 30.5 39.5c-5.33301 -2 -11.333 -3 -18 -3c-13.333 0 -24.333 5.33301 -33 16s-13 22.667 -13 36c0 15.333 5.83301 28.166 17.5 38.499
s24.834 15.5 39.501 15.5c18 0 32.5 -6.83301 43.5 -20.5s16.5 -29.5 16.5 -47.5c0 -32.667 -11.833 -60.667 -35.5 -84s-51.834 -39.666 -84.501 -48.999z" />
    <glyph glyph-name="uni021B" unicode="&#x21b;" horiz-adv-x="282" 
d="M174 149c-0.666992 -5.33301 -2 -12.667 -4 -22s-3 -17.333 -3 -24c0 -16.667 9.66699 -25 29 -25c10 0 24.333 1.66699 43 5l15 -69c-38.667 -17.333 -76 -26 -112 -26c-68 0 -102 33.333 -102 100c0 12.667 1.66699 29 5 49l37 217h-53l12 70h53l22 127h129l-22 -127
h75l-12 -70h-76zM64 -203.001c19.333 6 36.167 14.5 50.5 25.5s24.5 24.167 30.5 39.5c-5.33301 -2 -11.333 -3 -18 -3c-13.333 0 -24.333 5.33301 -33 16s-13 22.667 -13 36c0 15.333 5.83301 28.166 17.5 38.499s24.834 15.5 39.501 15.5c18 0 32.5 -6.83301 43.5 -20.5
s16.5 -29.5 16.5 -47.5c0 -32.667 -11.833 -60.667 -35.5 -84s-51.834 -39.666 -84.501 -48.999z" />
    <glyph glyph-name="circumflex" unicode="&#x2c6;" horiz-adv-x="374" 
d="M397 498h-75l-73 63l-81 -63h-92l163 161h46z" />
    <glyph glyph-name="caron" unicode="&#x2c7;" horiz-adv-x="374" 
d="M104 659h75l73 -63l81 63h92l-163 -161h-46z" />
    <glyph glyph-name="breve" unicode="&#x2d8;" horiz-adv-x="346" 
d="M135.5 555.5c-19 25 -30.501 52.833 -34.501 83.5l46 20c7.33301 -18 19 -33.167 35 -45.5s35.667 -18.5 59 -18.5c22.667 0 44.334 6.16699 65.001 18.5s38 27.5 52 45.5l36 -20c-10.667 -28 -30.167 -55.167 -58.5 -81.5s-63.833 -39.5 -106.5 -39.5
c-43.333 0 -74.5 12.5 -93.5 37.5z" />
    <glyph glyph-name="dotaccent" unicode="&#x2d9;" horiz-adv-x="185" 
d="M108 539.5c-10.667 11 -15.999 25.168 -15.999 42.501c0 20 7.83301 37.833 23.5 53.5s33.5 23.5 53.5 23.5c16 0 29.333 -5.5 40 -16.5s16 -24.833 16 -41.5c0 -20.667 -7.66699 -38.834 -23 -54.501s-33 -23.5 -53 -23.5c-16.667 0 -30.334 5.5 -41.001 16.5z" />
    <glyph glyph-name="ring" unicode="&#x2da;" horiz-adv-x="269" 
d="M126.5 531c-20.333 18.667 -30.499 41.666 -30.499 68.999c0 18.667 5.16699 36.334 15.5 53.001s24.333 30.167 42 40.5s36.5 15.5 56.5 15.5c26 0 49.333 -9.33301 70 -28s31 -41.667 31 -69c0 -19.333 -5.33301 -37.333 -16 -54s-24.834 -30 -42.501 -40
s-36.5 -15 -56.5 -15c-26 0 -49.167 9.33301 -69.5 28zM231.501 576.499c9 9.66699 13.5 21.167 13.5 34.5c0 11.333 -3.5 20.833 -10.5 28.5s-15.833 11.5 -26.5 11.5c-13.333 0 -24.333 -4.66699 -33 -14s-13 -21 -13 -35c0 -11.333 3.5 -20.833 10.5 -28.5
s15.833 -11.5 26.5 -11.5c12.667 0 23.5 4.83301 32.5 14.5z" />
    <glyph glyph-name="ogonek" unicode="&#x2db;" horiz-adv-x="175" 
d="M-8 -155c-13.333 13.333 -20 29.667 -20 49c0 26 9.16699 49 27.5 69s41.5 34.667 69.5 44h28l14 -7c-18.667 -2 -35.334 -9.5 -50.001 -22.5s-22 -29.167 -22 -48.5c0 -12 3.16699 -22.167 9.5 -30.5s15.833 -13.5 28.5 -15.5l-36 -64
c-19.333 4 -35.666 12.667 -48.999 26z" />
    <glyph glyph-name="tilde" unicode="&#x2dc;" horiz-adv-x="396" 
d="M88 565c40 61.333 82.002 92 126.002 92c12.667 0 24 -2.33301 34 -7s21.667 -11.667 35 -21c11.333 -8 21 -14 29 -18s16.333 -6 25 -6c10 0 21.667 6 35 18s23.333 26 30 42l34 -69c-38.667 -55.333 -79 -83 -121 -83c-14 0 -26.5 2.5 -37.5 7.5
s-23.167 12.167 -36.5 21.5c-10 7.33301 -18.5 12.833 -25.5 16.5s-14.5 5.5 -22.5 5.5c-10.667 0 -22.334 -5.83301 -35.001 -17.5s-22.334 -26.167 -29.001 -43.5z" />
    <glyph glyph-name="hungarumlaut" unicode="&#x2dd;" horiz-adv-x="398" 
d="M278 699v-109l-137 -92h-65zM437 699v-109l-137 -92h-64z" />
    <glyph glyph-name="uni0326" unicode="&#x326;" horiz-adv-x="0" 
d="M-218 -203c19.333 6 36.167 14.5 50.5 25.5s24.5 24.167 30.5 39.5c-5.33301 -2 -11.333 -3 -18 -3c-13.333 0 -24.333 5.33301 -33 16s-13 22.667 -13 36c0 15.333 5.83301 28.166 17.5 38.499s24.834 15.5 39.501 15.5c18 0 32.5 -6.83301 43.5 -20.5
s16.5 -29.5 16.5 -47.5c0 -32.667 -11.833 -60.667 -35.5 -84s-51.834 -39.666 -84.501 -48.999z" />
    <glyph glyph-name="uni0335" unicode="&#x335;" horiz-adv-x="0" 
d="M-232 570h268l-31 -41h-243z" />
    <glyph glyph-name="uni0337" unicode="&#x337;" horiz-adv-x="0" 
d="M-256 206l266 269v-51l-266 -269v51z" />
    <glyph glyph-name="uni0338" unicode="&#x338;" horiz-adv-x="0" 
d="M-408 35l412 407v-52l-412 -408v53z" />
    <glyph glyph-name="uni03A9" unicode="&#x3a9;" horiz-adv-x="738" 
d="M20 96l158.998 -0.00195312c-24 28.667 -44.667 63.5 -62 104.5s-26 84.833 -26 131.5c0 21.333 1.66699 40.333 5 57c14.667 86 51.834 156.5 111.501 211.5s141.5 82.5 245.5 82.5c87.333 0 152.333 -21.167 195 -63.5s64 -97.833 64 -166.5c0 -20.667 -2 -42 -6 -64
c-10.667 -58.667 -35 -114 -73 -166s-79.667 -94.333 -125 -127h170l-17 -96h-303l18 98c48.667 45.333 87.5 93.333 116.5 144s47.5 99 55.5 145c3.33301 21.333 5 39 5 53c0 43.333 -10.667 77 -32 101s-51.666 36 -90.999 36c-45.333 0 -84 -16 -116 -48
s-52.667 -75.333 -62 -130c-3.33301 -23.333 -5 -44.666 -5 -63.999c0 -46 7.16699 -90.667 21.5 -134s33.833 -77.666 58.5 -102.999l-18 -98h-306z" />
    <glyph glyph-name="uni03A9" unicode="&#x3c9;" horiz-adv-x="738" 
d="M20 96l158.998 -0.00195312c-24 28.667 -44.667 63.5 -62 104.5s-26 84.833 -26 131.5c0 21.333 1.66699 40.333 5 57c14.667 86 51.834 156.5 111.501 211.5s141.5 82.5 245.5 82.5c87.333 0 152.333 -21.167 195 -63.5s64 -97.833 64 -166.5c0 -20.667 -2 -42 -6 -64
c-10.667 -58.667 -35 -114 -73 -166s-79.667 -94.333 -125 -127h170l-17 -96h-303l18 98c48.667 45.333 87.5 93.333 116.5 144s47.5 99 55.5 145c3.33301 21.333 5 39 5 53c0 43.333 -10.667 77 -32 101s-51.666 36 -90.999 36c-45.333 0 -84 -16 -116 -48
s-52.667 -75.333 -62 -130c-3.33301 -23.333 -5 -44.666 -5 -63.999c0 -46 7.16699 -90.667 21.5 -134s33.833 -77.666 58.5 -102.999l-18 -98h-306z" />
    <glyph glyph-name="uni03BC" unicode="&#x3bc;" horiz-adv-x="473" 
d="M434 74.5c3.33301 -4.33301 9.33496 -6.5 18.002 -6.5h5l-13 -73c-13.333 -4 -28.333 -6 -45 -6c-29.333 0 -51.666 4.83301 -66.999 14.5s-25 25.834 -29 48.501c-14.667 -19.333 -35.334 -34.833 -62.001 -46.5s-54 -17.5 -82 -17.5h-14l-29 -163h-127l52 297
c3.33301 23.333 5.66602 37.666 6.99902 42.999l46 259h127l-24 -137l-19 -111c-1.33301 -6 -2 -14.333 -2 -25c0 -24 4.5 -40.5 13.5 -49.5s19.5 -13.5 31.5 -13.5c51.333 0 87.666 59.333 108.999 178v-2l28 160h127l-49 -280c-4.66699 -23.333 -7 -40 -7 -50
c0 -8.66699 1.66699 -15.167 5 -19.5z" />
    <glyph glyph-name="pi" unicode="&#x3c0;" horiz-adv-x="561" 
d="M450 109c-2.66699 -20 -4 -32.001 -4 -36.001c0 -14 2.5 -23.667 7.5 -29s12.833 -8 23.5 -8c3.33301 0 6 0.333008 8 1l-9 -49c-5.33301 -0.666992 -24.333 -1 -57 -1c-28 0 -51.833 7.33301 -71.5 22s-29.5 38.334 -29.5 71.001c0 9.33301 1 19.333 3 30l41 233h-116
l-61 -343h-127l61 343h-92l15 81h563l-15 -81h-98z" />
    <glyph glyph-name="Wgrave" unicode="&#x1e80;" horiz-adv-x="893" 
d="M966 669l-302 -669h-166l-30 303l-145 -303h-168l-68 669h143l39 -509h5l172 365l-14 144h146l28 -504h6l206 504h148zM364 835v136l229 -228h-85z" />
    <glyph glyph-name="wgrave" unicode="&#x1e81;" horiz-adv-x="723" 
d="M711 336c0 -67.333 -13.167 -127.333 -39.5 -180s-64.166 -94 -113.499 -124s-107 -45 -173 -45c-43.333 0 -74.333 15.667 -93 47c-52.667 -31.333 -105.334 -47 -158.001 -47c-26 0 -48.667 3.5 -68 10.5s-33.333 16.833 -42 29.5l69 397h130l-57 -319
c7.33301 -4.66699 20.333 -7 39 -7c27.333 0 59 16.667 95 50l49 276h130l-58 -323c4 -2 9.33301 -3 16 -3c50 0 86.5 25.667 109.5 77s34.5 115.333 34.5 192c0 19.333 -1 38.333 -3 57h124c6 -28.667 9 -58 9 -88zM256 590v136l229 -228h-85z" />
    <glyph glyph-name="Wacute" unicode="&#x1e82;" horiz-adv-x="893" 
d="M966 669l-302 -669h-166l-30 303l-145 -303h-168l-68 669h143l39 -509h5l172 365l-14 144h146l28 -504h6l206 504h148zM650 971v-136l-144 -92h-85z" />
    <glyph glyph-name="wacute" unicode="&#x1e83;" horiz-adv-x="723" 
d="M711 336c0 -67.333 -13.167 -127.333 -39.5 -180s-64.166 -94 -113.499 -124s-107 -45 -173 -45c-43.333 0 -74.333 15.667 -93 47c-52.667 -31.333 -105.334 -47 -158.001 -47c-26 0 -48.667 3.5 -68 10.5s-33.333 16.833 -42 29.5l69 397h130l-57 -319
c7.33301 -4.66699 20.333 -7 39 -7c27.333 0 59 16.667 95 50l49 276h130l-58 -323c4 -2 9.33301 -3 16 -3c50 0 86.5 25.667 109.5 77s34.5 115.333 34.5 192c0 19.333 -1 38.333 -3 57h124c6 -28.667 9 -58 9 -88zM542 726v-136l-144 -92h-85z" />
    <glyph glyph-name="Wdieresis" unicode="&#x1e84;" horiz-adv-x="893" 
d="M966 669l-302 -669h-166l-30 303l-145 -303h-168l-68 669h143l39 -509h5l172 365l-14 144h146l28 -504h6l206 504h148zM394.5 756.5c-11 11 -16.5 24.832 -16.5 41.499c0 20.667 7.66699 38.834 23 54.501s33 23.5 53 23.5c16 0 29.5 -5.5 40.5 -16.5
s16.5 -24.833 16.5 -41.5c0 -20 -7.83301 -38 -23.5 -54s-33.167 -24 -52.5 -24c-16 0 -29.5 5.5 -40.5 16.5zM568 756.499c-10.667 11 -15.999 25.168 -15.999 42.501c0 20 7.83301 37.833 23.5 53.5s33.5 23.5 53.5 23.5c16 0 29.333 -5.5 40 -16.5s16 -24.833 16 -41.5
c0 -20.667 -7.66699 -38.834 -23 -54.501s-33 -23.5 -53 -23.5c-16.667 0 -30.334 5.5 -41.001 16.5z" />
    <glyph glyph-name="wdieresis" unicode="&#x1e85;" horiz-adv-x="723" 
d="M711 336c0 -67.333 -13.167 -127.333 -39.5 -180s-64.166 -94 -113.499 -124s-107 -45 -173 -45c-43.333 0 -74.333 15.667 -93 47c-52.667 -31.333 -105.334 -47 -158.001 -47c-26 0 -48.667 3.5 -68 10.5s-33.333 16.833 -42 29.5l69 397h130l-57 -319
c7.33301 -4.66699 20.333 -7 39 -7c27.333 0 59 16.667 95 50l49 276h130l-58 -323c4 -2 9.33301 -3 16 -3c50 0 86.5 25.667 109.5 77s34.5 115.333 34.5 192c0 19.333 -1 38.333 -3 57h124c6 -28.667 9 -58 9 -88zM291.5 539.5c-11 11 -16.5 24.832 -16.5 41.499
c0 20.667 7.66699 38.834 23 54.501s33 23.5 53 23.5c16 0 29.5 -5.5 40.5 -16.5s16.5 -24.833 16.5 -41.5c0 -20 -7.83301 -38 -23.5 -54s-33.167 -24 -52.5 -24c-16 0 -29.5 5.5 -40.5 16.5zM465 539.499c-10.667 11 -15.999 25.168 -15.999 42.501
c0 20 7.83301 37.833 23.5 53.5s33.5 23.5 53.5 23.5c16 0 29.333 -5.5 40 -16.5s16 -24.833 16 -41.5c0 -20.667 -7.66699 -38.834 -23 -54.501s-33 -23.5 -53 -23.5c-16.667 0 -30.334 5.5 -41.001 16.5z" />
    <glyph glyph-name="uni1E9E" unicode="&#x1e9e;" horiz-adv-x="632" 
d="M258 16l16.9941 96.0029c34.667 -27.333 69.667 -41 105 -41c20.667 0 38.167 5.66699 52.5 17s23.5 26.666 27.5 45.999c0.666992 2 1 5 1 9c0 14 -4.66699 27.167 -14 39.5s-23.666 27.5 -42.999 45.5c-23.333 22 -41.166 41.667 -53.499 59s-18.5 37.333 -18.5 60
c0 26.667 7.16699 48.167 21.5 64.5s34.833 33.5 61.5 51.5c18.667 12.667 32.834 23.334 42.501 32.001s15.5 19 17.5 31c0.666992 3.33301 1 7.66602 1 12.999c0 20 -8.33301 35 -25 45s-37 15 -61 15c-31.333 0 -59.166 -10.5 -83.499 -31.5
s-40.166 -52.833 -47.499 -95.5l-83 -472h-126l85 480c12 69.333 41.833 119.833 89.5 151.5s103.5 47.5 167.5 47.5c66 0 116.5 -11 151.5 -33s52.5 -53.667 52.5 -95c0 -9.33301 -1 -19 -3 -29c-3.33301 -22.667 -11.5 -40.834 -24.5 -54.501
s-31.167 -28.834 -54.5 -45.501c-17.333 -12 -30.166 -22 -38.499 -30s-13.5 -17.667 -15.5 -29c-2 -10.667 1 -21.167 9 -31.5s20.667 -23.5 38 -39.5c26 -24 46.5 -47 61.5 -69s22.5 -47.667 22.5 -77c0 -26.667 -6.83301 -52 -20.5 -76s-35.167 -43.667 -64.5 -59
s-66 -23 -110 -23c-52 0 -98 9.33301 -138 28z" />
    <glyph glyph-name="Ygrave" unicode="&#x1ef2;" horiz-adv-x="549" 
d="M346 220l-39 -220h-141l39 227l-115 442h143l67 -297l169 297h150zM217 835v136l229 -228h-85z" />
    <glyph glyph-name="ygrave" unicode="&#x1ef3;" horiz-adv-x="467" 
d="M433 308c0 -82 -13.834 -160.498 -41.501 -235.498s-69.167 -139 -124.5 -192s-122.666 -87.5 -201.999 -103.5l-42 96c84.667 23.333 151 65.666 199 126.999h-77l-117 424h129l96 -379c36 65.333 54 142 54 230c0 35.333 -1 62 -3 80s-5.33301 41 -10 69h127
c8 -36.667 12 -75.334 12 -116.001zM83.999 590.002v136l229 -228h-85z" />
    <glyph glyph-name="uni2009" unicode="&#x2009;" horiz-adv-x="73" 
 />
    <glyph glyph-name="endash" unicode="&#x2013;" horiz-adv-x="394" 
d="M35 266h341l-10 -58h-341z" />
    <glyph glyph-name="emdash" unicode="&#x2014;" horiz-adv-x="549" 
d="M35 266h496l-10 -58h-496z" />
    <glyph glyph-name="quoteleft" unicode="&#x2018;" horiz-adv-x="235" 
d="M264 630c-27.333 -12.667 -51.3359 -30 -72.0029 -52s-32.334 -42.667 -35.001 -62c6.66699 4 15 6 25 6c16.667 0 30.334 -6 41.001 -18s16 -27.333 16 -46c0 -22.667 -8.16699 -42 -24.5 -58s-35.5 -24 -57.5 -24c-25.333 0 -45.666 9 -60.999 27s-23 41.333 -23 70
s8.33301 57 25 85s38.334 53 65.001 75s54.334 38 83.001 48z" />
    <glyph glyph-name="quoteright" unicode="&#x2019;" horiz-adv-x="235" 
d="M82 427c27.333 12.667 51.3359 30 72.0029 52s32.334 42.667 35.001 62c-6.66699 -4 -15 -6 -25 -6c-16.667 0 -30.334 6 -41.001 18s-16 27.333 -16 46c0 22.667 8.16699 42 24.5 58s35.5 24 57.5 24c25.333 0 45.666 -9 60.999 -27s23 -41.333 23 -70
s-8.33301 -57 -25 -85s-38.334 -53 -65.001 -75s-54.334 -38 -83.001 -48z" />
    <glyph glyph-name="quotesinglbase" unicode="&#x201a;" horiz-adv-x="235" 
d="M-14 -123c27.333 12.667 51.3359 30 72.0029 52s32.334 42.667 35.001 62c-6.66699 -4 -15 -6 -25 -6c-16.667 0 -30.334 6 -41.001 18s-16 27.333 -16 46c0 22.667 8.16699 42 24.5 58s35.5 24 57.5 24c25.333 0 45.666 -9 60.999 -27s23 -41.333 23 -70
s-8.33301 -57 -25 -85s-38.334 -53 -65.001 -75s-54.334 -38 -83.001 -48z" />
    <glyph glyph-name="quotedblleft" unicode="&#x201c;" horiz-adv-x="445" 
d="M264 630c-27.333 -12.667 -51.3359 -30 -72.0029 -52s-32.334 -42.667 -35.001 -62c6.66699 4 15 6 25 6c16.667 0 30.334 -6 41.001 -18s16 -27.333 16 -46c0 -22.667 -8.16699 -42 -24.5 -58s-35.5 -24 -57.5 -24c-25.333 0 -45.666 9 -60.999 27s-23 41.333 -23 70
s8.33301 57 25 85s38.334 53 65.001 75s54.334 38 83.001 48zM473.997 630c-27.333 -12.667 -51.3359 -30 -72.0029 -52s-32.334 -42.667 -35.001 -62c6.66699 4 15 6 25 6c16.667 0 30.334 -6 41.001 -18s16 -27.333 16 -46c0 -22.667 -8.16699 -42 -24.5 -58
s-35.5 -24 -57.5 -24c-25.333 0 -45.666 9 -60.999 27s-23 41.333 -23 70s8.33301 57 25 85s38.334 53 65.001 75s54.334 38 83.001 48z" />
    <glyph glyph-name="quotedblright" unicode="&#x201d;" horiz-adv-x="445" 
d="M292 427c27.333 12.667 51.3359 30 72.0029 52s32.334 42.667 35.001 62c-6.66699 -4 -15 -6 -25 -6c-16.667 0 -30.334 6 -41.001 18s-16 27.333 -16 46c0 22.667 8.16699 42 24.5 58s35.5 24 57.5 24c25.333 0 45.666 -9 60.999 -27s23 -41.333 23 -70
s-8.33301 -57 -25 -85s-38.334 -53 -65.001 -75s-54.334 -38 -83.001 -48zM82.0029 427c27.333 12.667 51.3359 30 72.0029 52s32.334 42.667 35.001 62c-6.66699 -4 -15 -6 -25 -6c-16.667 0 -30.334 6 -41.001 18s-16 27.333 -16 46c0 22.667 8.16699 42 24.5 58
s35.5 24 57.5 24c25.333 0 45.666 -9 60.999 -27s23 -41.333 23 -70s-8.33301 -57 -25 -85s-38.334 -53 -65.001 -75s-54.334 -38 -83.001 -48z" />
    <glyph glyph-name="quotedblbase" unicode="&#x201e;" horiz-adv-x="445" 
d="M196 -123c27.333 12.667 51.3359 30 72.0029 52s32.334 42.667 35.001 62c-6.66699 -4 -15 -6 -25 -6c-16.667 0 -30.334 6 -41.001 18s-16 27.333 -16 46c0 22.667 8.16699 42 24.5 58s35.5 24 57.5 24c25.333 0 45.666 -9 60.999 -27s23 -41.333 23 -70
s-8.33301 -57 -25 -85s-38.334 -53 -65.001 -75s-54.334 -38 -83.001 -48zM-13.9971 -123c27.333 12.667 51.3359 30 72.0029 52s32.334 42.667 35.001 62c-6.66699 -4 -15 -6 -25 -6c-16.667 0 -30.334 6 -41.001 18s-16 27.333 -16 46c0 22.667 8.16699 42 24.5 58
s35.5 24 57.5 24c25.333 0 45.666 -9 60.999 -27s23 -41.333 23 -70s-8.33301 -57 -25 -85s-38.334 -53 -65.001 -75s-54.334 -38 -83.001 -48z" />
    <glyph glyph-name="dagger" unicode="&#x2020;" horiz-adv-x="384" 
d="M196 420l-150 1l9 53l150 -1l35 196h70l-35 -196h145l-9 -53h-145l-74 -420h-70z" />
    <glyph glyph-name="daggerdbl" unicode="&#x2021;" horiz-adv-x="458" 
d="M200 230h-151l9 53h151l24 137l-150 1l9 53l150 -1l35 196h70l-35 -196h145l-9 -53h-145l-24 -137h145l-9 -53h-145l-41 -230h-70z" />
    <glyph glyph-name="bullet" unicode="&#x2022;" horiz-adv-x="304" 
d="M86.5 227.5c-23 24.333 -34.5 53.5 -34.5 87.5c0 34.667 11.333 63.834 34 87.501s50.667 35.5 84 35.5c20.667 0 40.167 -5.5 58.5 -16.5s32.833 -25.833 43.5 -44.5s16 -39.334 16 -62.001c0 -22 -5.5 -42.5 -16.5 -61.5s-25.5 -34.167 -43.5 -45.5
s-37.333 -17 -58 -17c-32.667 0 -60.5 12.167 -83.5 36.5z" />
    <glyph glyph-name="ellipsis" unicode="&#x2026;" horiz-adv-x="664" 
d="M253 6c-12.667 14 -18.999 31.333 -18.999 52c0 23.333 7.5 43 22.5 59s33.5 24 55.5 24c18.667 0 34.167 -7 46.5 -21s18.5 -31.333 18.5 -52c0 -23.333 -7.5 -43 -22.5 -59s-33.167 -24 -54.5 -24c-18.667 0 -34.334 7 -47.001 21zM473.001 6
c-12.667 14 -18.999 31.333 -18.999 52c0 23.333 7.5 43 22.5 59s33.5 24 55.5 24c18.667 0 34.167 -7 46.5 -21s18.5 -31.333 18.5 -52c0 -23.333 -7.5 -43 -22.5 -59s-33.167 -24 -54.5 -24c-18.667 0 -34.334 7 -47.001 21zM33.002 6
c-12.667 14 -18.999 31.333 -18.999 52c0 23.333 7.5 43 22.5 59s33.5 24 55.5 24c18.667 0 34.167 -7 46.5 -21s18.5 -31.333 18.5 -52c0 -23.333 -7.5 -43 -22.5 -59s-33.167 -24 -54.5 -24c-18.667 0 -34.334 7 -47.001 21z" />
    <glyph glyph-name="perthousand" unicode="&#x2030;" horiz-adv-x="1133" 
d="M677 704h45l-627 -749h-45zM101 327c-21.333 25.333 -32.001 59.667 -32.001 103c0 15.333 1.66699 33 5 53c10 57.333 31.5 104 64.5 140s74.5 54 124.5 54c42.667 0 74.667 -13 96 -39s32 -60.333 32 -103c0 -14.667 -1.66699 -32 -5 -52
c-10 -56.667 -31.833 -103.167 -65.5 -139.5s-75.5 -54.5 -125.5 -54.5c-41.333 0 -72.666 12.667 -93.999 38zM252.999 389.501c12 17 21.998 48.167 29.998 93.5c4.66699 26 7 48.333 7 67c0 20 -3.16699 34 -9.5 42s-16.5 12 -30.5 12
c-19.333 0 -34.666 -8.5 -45.999 -25.5s-21 -48.833 -29 -95.5c-4 -24 -6 -44 -6 -60c0 -20.667 3.33301 -35.667 10 -45s16.334 -14 29.001 -14c18 0 33 8.5 45 25.5zM818.997 47.001c-21.333 25.333 -32.001 59.667 -32.001 103c0 15.333 1.66699 33 5 53
c10 57.333 31.5 104 64.5 140s74.5 54 124.5 54c42.667 0 74.667 -13 96 -39s32 -60.333 32 -103c0 -14.667 -1.66699 -32 -5 -52c-10 -56.667 -31.833 -103.167 -65.5 -139.5s-75.5 -54.5 -125.5 -54.5c-41.333 0 -72.666 12.667 -93.999 38zM454.496 38.502
c-21 25 -31.499 59.167 -31.499 102.5c0 14.667 1.66699 32.667 5 54c10 57.333 31.5 104 64.5 140s74.5 54 124.5 54c42 0 73.833 -13 95.5 -39s32.5 -60.667 32.5 -104c0 -14 -1.66699 -31 -5 -51c-10.667 -56.667 -32.834 -103.167 -66.501 -139.5
s-75.5 -54.5 -125.5 -54.5c-41.333 0 -72.5 12.5 -93.5 37.5zM970.997 109.502c12 17 21.998 48.167 29.998 93.5c4.66699 26 7 48.333 7 67c0 20 -3.16699 34 -9.5 42s-16.5 12 -30.5 12c-19.333 0 -34.666 -8.5 -45.999 -25.5s-21 -48.833 -29 -95.5c-4 -24 -6 -44 -6 -60
c0 -20.667 3.33301 -35.667 10 -45s16.334 -14 29.001 -14c18 0 33 8.5 45 25.5zM606.995 101.502c12 17 21.998 48.167 29.998 93.5c4.66699 26 7 48.333 7 67c0 20 -3.16699 34 -9.5 42s-16.5 12 -30.5 12c-19.333 0 -34.666 -8.66699 -45.999 -26s-21 -49 -29 -95
c-4 -24 -6 -44 -6 -60c0 -20.667 3.33301 -35.667 10 -45s16.334 -14 29.001 -14c18 0 33 8.5 45 25.5z" />
    <glyph glyph-name="guilsinglleft" unicode="&#x2039;" horiz-adv-x="274" 
d="M22 231l178 180l31 -30l-153 -155l111 -180l-38 -24z" />
    <glyph glyph-name="guilsinglright" unicode="&#x203a;" horiz-adv-x="274" 
d="M44 48l153 155l-111 180l38 24l129 -209l-178 -180z" />
    <glyph glyph-name="fraction" unicode="&#x2044;" horiz-adv-x="132" 
d="M383 704h45l-628 -749h-45z" />
    <glyph glyph-name="Euro" unicode="&#x20ac;" horiz-adv-x="580" 
d="M291.5 521c-31 -35.333 -51.499 -82.001 -61.499 -140.001h184l-58 -100h-134c1.33301 -59.333 17.166 -104.333 47.499 -135s70.166 -46 119.499 -46c26 0 48.833 1.66699 68.5 5s40.167 9 61.5 17l-18 -113c-37.333 -14 -83.666 -21 -138.999 -21
c-61.333 0 -113.5 12.5 -156.5 37.5s-75.667 59.5 -98 103.5s-34.5 94.667 -36.5 152h-79l18 100h67c14.667 92 51.5 165.167 110.5 219.5s135.167 81.5 228.5 81.5c28.667 0 59.167 -3.83301 91.5 -11.5s59.5 -17.5 81.5 -29.5l-19 -109
c-21.333 12.667 -45.833 22.834 -73.5 30.501s-54.167 11.5 -79.5 11.5c-52.667 0 -94.5 -17.667 -125.5 -53z" />
    <glyph glyph-name="trademark" unicode="&#x2122;" horiz-adv-x="725" 
d="M260 607l-48 -274h-88l48 274h-98l11 62h285l-11 -62h-99zM761 669l-60 -337h-76l49 275l-112 -275h-65l-19 269l-48 -269h-77l60 337h120l16 -232l94 232h118z" />
    <glyph glyph-name="uni2126" unicode="&#x2126;" horiz-adv-x="738" 
d="M20 96l158.998 -0.00195312c-24 28.667 -44.667 63.5 -62 104.5s-26 84.833 -26 131.5c0 21.333 1.66699 40.333 5 57c14.667 86 51.834 156.5 111.501 211.5s141.5 82.5 245.5 82.5c87.333 0 152.333 -21.167 195 -63.5s64 -97.833 64 -166.5c0 -20.667 -2 -42 -6 -64
c-10.667 -58.667 -35 -114 -73 -166s-79.667 -94.333 -125 -127h170l-17 -96h-303l18 98c48.667 45.333 87.5 93.333 116.5 144s47.5 99 55.5 145c3.33301 21.333 5 39 5 53c0 43.333 -10.667 77 -32 101s-51.666 36 -90.999 36c-45.333 0 -84 -16 -116 -48
s-52.667 -75.333 -62 -130c-3.33301 -23.333 -5 -44.666 -5 -63.999c0 -46 7.16699 -90.667 21.5 -134s33.833 -77.666 58.5 -102.999l-18 -98h-306z" />
    <glyph glyph-name="estimated" unicode="&#x212e;" horiz-adv-x="785" 
d="M242.5 33c-53 27.333 -95.333 66.832 -127 118.499s-47.5 112.167 -47.5 181.5s15 129.666 45 180.999s71.333 90.833 124 118.5s112.334 41.5 179.001 41.5c66 0 124.833 -12.833 176.5 -38.5s92.834 -65.167 123.501 -118.5s46.667 -119.666 48 -198.999h-555v-197
c27.333 -28.667 58.833 -51.167 94.5 -67.5s73.167 -24.5 112.5 -24.5c44 0 82.5 8.33301 115.5 25s64.5 42.334 94.5 77.001h74c-14 -30.667 -37.333 -56.5 -70 -77.5s-68.334 -36.5 -107.001 -46.5s-74.334 -15 -107.001 -15c-62.667 0 -120.5 13.667 -173.5 41z
M629 352.999l0.000976562 175c-20 37.333 -48.833 65 -86.5 83s-79.834 27 -126.501 27c-40.667 0 -76.667 -7.5 -108 -22.5s-64.333 -40.167 -99 -75.5v-187h420z" />
    <glyph glyph-name="arrowleft" unicode="&#x2190;" horiz-adv-x="609" 
d="M44 314l244 219l32 -34l-184 -164l467 -1l-9 -47h-465l61 -74l88 -106l-38 -33z" />
    <glyph glyph-name="arrowup" unicode="&#x2191;" horiz-adv-x="515" 
d="M281 510l-193 -140l-28 37l256 186l195 -248l-38 -29l-144 186l-65 -459h-48z" />
    <glyph glyph-name="arrowright" unicode="&#x2192;" horiz-adv-x="609" 
d="M323 120l183 164l-467 1l10 48h464l-148 180l37 32l196 -240l-243 -219z" />
    <glyph glyph-name="arrowdown" unicode="&#x2193;" horiz-adv-x="515" 
d="M40 291l38 29l144 -187l65 459h48l-65 -467l193 141l28 -38l-257 -186z" />
    <glyph glyph-name="partialdiff" unicode="&#x2202;" horiz-adv-x="561" 
d="M76.5 38c-35.667 32.667 -53.5 77.002 -53.5 133.002c0 16.667 1.33301 32.667 4 48c13.333 77.333 43.833 139.166 91.5 185.499s105.5 69.5 173.5 69.5c40.667 0 73 -6.5 97 -19.5s43 -33.167 57 -60.5c1.33301 6 2 14.667 2 26c0 30 -8.66699 56.5 -26 79.5
s-40.5 41 -69.5 54s-60.167 19.5 -93.5 19.5l20 114c88 -6 157.667 -30.5 209 -73.5s77 -106.167 77 -189.5c0 -23.333 -2.66699 -50.333 -8 -81c-21.333 -122.667 -61.666 -212.334 -120.999 -269.001s-130 -85 -212 -85c-62.667 0 -111.834 16.333 -147.501 49z
M326.5 125.002c25 32.667 41.502 72.333 49.502 119c2 12 3 23.333 3 34c0 32.667 -7.83301 59 -23.5 79s-34.834 30 -57.501 30c-32.667 0 -61.334 -15.333 -86.001 -46s-41.334 -70.667 -50.001 -120c-2.66699 -13.333 -4 -27.333 -4 -42c0 -32 7.33301 -57.167 22 -75.5
s35.334 -27.5 62.001 -27.5c31.333 0 59.5 16.333 84.5 49z" />
    <glyph glyph-name="uni2206" unicode="&#x2206;" horiz-adv-x="647" 
d="M380 669h48l155 -669h-594zM432 98l-71 341l-195 -341h266z" />
    <glyph glyph-name="product" unicode="&#x220f;" horiz-adv-x="717" 
d="M167 669h543l-140 -798h-128l123 705h-286l-123 -705h-129z" />
    <glyph glyph-name="summation" unicode="&#x2211;" horiz-adv-x="535" 
d="M-20 -49l294 367l-174 317l6 34h482l-15 -86h-281l138 -265l-247 -313h288l-15 -88h-482z" />
    <glyph glyph-name="minus" unicode="&#x2212;" horiz-adv-x="457" 
d="M33 252h404l-8 -46h-403z" />
    <glyph glyph-name="radical" unicode="&#x221a;" horiz-adv-x="664" 
d="M64 144l-79 -35l-21 67l187 82l114 -274l347 726h111l-411 -862h-111z" />
    </font>
</defs>
</svg>
