<?xml version="1.0" standalone="no"?>
<!DOCTYPE svg PUBLIC "-//W3C//DTD SVG 1.1//EN" "http://www.w3.org/Graphics/SVG/1.1/DTD/svg11.dtd" >
<svg>
<metadata>
Created by FontForge 20090914 at Tue Jan 29 11:51:21 2019
 By www-data
Copyright \(c\) 2018 by Pace/RML Types. All rights reserved.
</metadata>
<defs>
<font id="LuissSans-Regular" horiz-adv-x="654" >
  <font-face 
    font-family="Luiss Sans"
    font-weight="400"
    font-stretch="normal"
    units-per-em="1000"
    panose-1="0 0 0 0 0 0 0 0 0 0"
    ascent="740"
    descent="-260"
    x-height="423.999"
    cap-height="669"
    bbox="-615 -244.001 1045 894"
    underline-thickness="50"
    underline-position="-50"
    unicode-range="U+000D-U+FB02"
  />
<missing-glyph horiz-adv-x="647" 
d="M88.5 13.5c-9 9 -13.5 19.833 -13.5 32.5v578c0 12.667 4.5 23.334 13.5 32.001s19.833 13 32.5 13h406c12.667 0 23.334 -4.33301 32.001 -13s13 -19.334 13 -32.001v-578c0 -12.667 -4.33301 -23.5 -13 -32.5s-19.334 -13.5 -32.001 -13.5h-406
c-12.667 0 -23.5 4.5 -32.5 13.5zM493 618h-338l169 -248zM299 335l-173 256v-511zM522 590l-174 -255l174 -256v511zM492 51l-168 248l-169 -248h337z" />
    <glyph glyph-name="fi" unicode="fi" horiz-adv-x="479" 
d="M166 600c-11.333 -14.667 -17 -39.667 -17 -75v-101h95v-44h-95v-380h-70v351c0 12 -2 20.167 -6 24.5s-11.333 6.5 -22 6.5h-26v42h54v94c0 54.667 11 94.667 33 120s52.333 38 91 38c22 0 43.667 -4 65 -12v-52c-18 6.66699 -36 10 -54 10
c-20.667 0 -36.667 -7.33301 -48 -22zM340.5 588c-8.33301 8.66699 -12.5 18.667 -12.5 30c0 12.667 4.16699 23.667 12.5 33s18.166 14 29.499 14c10.667 0 20.167 -4.66699 28.5 -14s12.5 -20.333 12.5 -33c0 -11.333 -4.16699 -21.333 -12.5 -30s-17.833 -13 -28.5 -13
c-11.333 0 -21.166 4.33301 -29.499 13zM335 424h70v-424h-70v424z" />
    <glyph glyph-name="fl" unicode="fl" horiz-adv-x="478" 
d="M166 600c-11.333 -14.667 -17 -39.667 -17 -75v-101h95v-44h-95v-380h-70v351c0 12 -2 20.167 -6 24.5s-11.333 6.5 -22 6.5h-26v42h54v94c0 54.667 11 94.667 33 120s52.333 38 91 38c22 0 43.667 -4 65 -12v-52c-18 6.66699 -36 10 -54 10
c-20.667 0 -36.667 -7.33301 -48 -22zM353.5 14.5c-15.667 18.333 -23.499 50.1689 -23.499 95.502v559h70v-560c0 -28.667 3 -47.834 9 -57.501s16 -14.834 30 -15.501c3.33301 0 6 0.333008 8 1v-49c-5.33301 -0.666992 -14.333 -1 -27 -1
c-28.667 0 -50.834 9.16699 -66.501 27.5z" />
    <glyph glyph-name="f_f" unicode="ff" horiz-adv-x="501" 
d="M166 600c-11.333 -14.667 -17 -39.667 -17 -75v-101h95v-44h-95v-380h-70v351c0 12 -2 20.167 -6 24.5s-11.333 6.5 -22 6.5h-26v42h54v94c0 54.667 11 94.667 33 120s52.333 38 91 38c22 0 43.667 -4 65 -12v-52c-18 6.66699 -36 10 -54 10
c-20.667 0 -36.667 -7.33301 -48 -22zM419 600c-11.333 -14.667 -17 -39.667 -17 -75v-101h95v-44h-95v-380h-70v351c0 12 -2 20.167 -6 24.5s-11.333 6.5 -22 6.5h-26v42h54v94c0 54.667 11 94.667 33 120s52.333 38 91 38c22 0 43.667 -4 65 -12v-52
c-18 6.66699 -36 10 -54 10c-20.667 0 -36.667 -7.33301 -48 -22z" />
    <glyph glyph-name="r_f.liga" unicode="rf" horiz-adv-x="558" 
d="M74 424l69.998 -0.000976562v-57c10.667 22.667 25.834 40.334 45.501 53.001s41.834 19 66.501 19c18 0 33 -2 45 -6v-59c-16 5.33301 -31 8 -45 8c-36.667 0 -64.5 -14.167 -83.5 -42.5s-28.5 -69.5 -28.5 -123.5v-216h-70v424zM475.998 599.999
c-11.333 -14.667 -17 -39.667 -17 -75v-101h95v-44h-95v-380h-70v351c0 12 -2 20.167 -6 24.5s-11.333 6.5 -22 6.5h-26v42h54v94c0 54.667 11 94.667 33 120s52.333 38 91 38c22 0 43.667 -4 65 -12v-52c-18 6.66699 -36 10 -54 10c-20.667 0 -36.667 -7.33301 -48 -22z
" />
    <glyph glyph-name="r_t.liga" unicode="rt" horiz-adv-x="590" 
d="M74 424l69.998 -0.000976562v-57c10.667 22.667 25.834 40.334 45.501 53.001s41.834 19 66.501 19c18 0 33 -2 45 -6v-59c-16 5.33301 -31 8 -45 8c-36.667 0 -64.5 -14.167 -83.5 -42.5s-28.5 -69.5 -28.5 -123.5v-216h-70v424zM557.998 0.999023
c-18.667 -8 -38.334 -12 -59.001 -12c-29.333 0 -52.166 8 -68.499 24s-24.5 40 -24.5 72v295h-55v44h55v127h70v-127h77v-44h-77v-274c0 -23.333 3 -39.833 9 -49.5s17.333 -14.5 34 -14.5c10 0 22 2 36 6z" />
    <glyph glyph-name=".notdef" horiz-adv-x="647" 
d="M88.5 13.5c-9 9 -13.5 19.833 -13.5 32.5v578c0 12.667 4.5 23.334 13.5 32.001s19.833 13 32.5 13h406c12.667 0 23.334 -4.33301 32.001 -13s13 -19.334 13 -32.001v-578c0 -12.667 -4.33301 -23.5 -13 -32.5s-19.334 -13.5 -32.001 -13.5h-406
c-12.667 0 -23.5 4.5 -32.5 13.5zM493 618h-338l169 -248zM299 335l-173 256v-511zM522 590l-174 -255l174 -256v511zM492 51l-168 248l-169 -248h337z" />
    <glyph glyph-name="nonmarkingreturn" unicode="&#xd;" horiz-adv-x="175" 
 />
    <glyph glyph-name="space" unicode=" " horiz-adv-x="200" 
 />
    <glyph glyph-name="exclam" unicode="!" horiz-adv-x="230" 
d="M91 214c0 43.333 -1.50098 89.8311 -4.50098 139.498s-6.16699 95.5 -9.5 137.5c-5.33301 73.333 -8 118 -8 134c0 14.667 4.16699 27.334 12.5 38.001s19.5 16 33.5 16c14.667 0 26 -5.16699 34 -15.5s12 -23.166 12 -38.499c0 -16.667 -2.66699 -66.334 -8 -149.001
c-7.33301 -113.333 -11.666 -200.666 -12.999 -261.999v-20h-49v20zM82.499 -1.00195c-9 9.33301 -13.5 20.333 -13.5 33s4.5 23.5 13.5 32.5s19.833 13.5 32.5 13.5s23.5 -4.5 32.5 -13.5s13.5 -19.833 13.5 -32.5s-4.5 -23.667 -13.5 -33s-19.833 -14 -32.5 -14
s-23.5 4.66699 -32.5 14z" />
    <glyph glyph-name="quotedbl" unicode="&#x22;" horiz-adv-x="231" 
d="M27 669h64l-39 -245h-34zM147 669h64l-39 -245h-34z" />
    <glyph glyph-name="numbersign" unicode="#" horiz-adv-x="616" 
d="M189 213h-125l5 31h124l28 184h-125l4 31h126l27 181h34l-27 -181h142l27 181h34l-27 -181h116l-5 -31h-116l-28 -184h117l-4 -31h-117l-27 -181h-34l27 181h-142l-27 -181h-34zM369 244l28 184h-142l-28 -184h142z" />
    <glyph glyph-name="dollar" unicode="$" horiz-adv-x="507" 
d="M412 51c-30 -31.333 -70.001 -51.332 -120.001 -59.999v-161h-71v157c-62.667 3.33301 -119.667 17.333 -171 42v69c59.333 -32 122.666 -48 189.999 -48c41.333 0 74.5 9.5 99.5 28.5s37.5 48.5 37.5 88.5c0 22 -6.16699 41.167 -18.5 57.5s-27.5 30.5 -45.5 42.5
s-43.333 26.667 -76 44c-37.333 19.333 -67.666 37 -90.999 53s-43 36.167 -59 60.5s-24 53.166 -24 86.499c0 48 14.667 86.667 44 116s67.333 47 114 53v170l71 -20v-149c42 -4 83 -15.333 123 -34v-64c-21.333 12.667 -45.5 22.5 -72.5 29.5s-53.833 10.5 -80.5 10.5
c-36 0 -65.5 -8.83301 -88.5 -26.5s-34.5 -43.167 -34.5 -76.5c0 -23.333 6.33301 -43.833 19 -61.5s28.334 -32.834 47.001 -45.501s44.667 -28 78 -46c38 -20.667 68.5 -39 91.5 -55s42.5 -36.333 58.5 -61s24 -54 24 -88c0 -43.333 -15 -80.666 -45 -111.999z" />
    <glyph glyph-name="percent" unicode="%" horiz-adv-x="768" 
d="M606 704h45l-495 -749h-45zM78 345c-22 36.667 -33 84 -33 142c0 56 11.5 101.5 34.5 136.5s56.167 52.5 99.5 52.5c44 0 77.667 -17.5 101 -52.5s35 -82.167 35 -141.5c0 -56 -11.333 -102 -34 -138s-56.667 -54 -102 -54s-79 18.333 -101 55zM235.5 375
c13 26 19.499 61.668 19.499 107.001c0 44.667 -6.16699 80.667 -18.5 108s-32.166 41 -59.499 41c-24.667 0 -43.167 -13.833 -55.5 -41.5s-18.5 -64.834 -18.5 -111.501c0 -47.333 7 -82.833 21 -106.5s31.667 -35.5 53 -35.5c26 0 45.5 13 58.5 39zM485.999 47.001
c-22 36.667 -33 84 -33 142c0 56 11.5 101.5 34.5 136.5s56.167 52.5 99.5 52.5c44 0 77.667 -17.5 101 -52.5s35 -82.167 35 -141.5c0 -56 -11.333 -102 -34 -138s-56.667 -54 -102 -54s-79 18.333 -101 55zM643.499 77.001c13 26 19.499 61.668 19.499 107.001
c0 44.667 -6.16699 80.667 -18.5 108s-32.166 41 -59.499 41c-24.667 0 -43.167 -13.833 -55.5 -41.5s-18.5 -64.834 -18.5 -111.501c0 -47.333 7 -82.833 21 -106.5s31.667 -35.5 53 -35.5c26 0 45.5 13 58.5 39z" />
    <glyph glyph-name="ampersand" unicode="&#x26;" horiz-adv-x="582" 
d="M573 343c-3.33301 -18.667 -9.67188 -33.334 -19.0049 -44.001s-21.333 -19.334 -36 -26.001c-20 -10 -43.333 -16.667 -70 -20c12.667 -21.333 19 -47.666 19 -78.999c0 -39.333 -9.66699 -72.833 -29 -100.5s-45.166 -48.667 -77.499 -63s-67.833 -21.5 -106.5 -21.5
c-36 0 -70 6.83301 -102 20.5s-57.833 34.334 -77.5 62.001s-29.5 60.834 -29.5 99.501c0 40 11.5 75.5 34.5 106.5s54.5 50.5 94.5 58.5c-28.667 9.33301 -52.667 27.666 -72 54.999s-29 57 -29 89c0 40.667 14.667 75.167 44 103.5s73.333 42.5 132 42.5
c52.667 0 104 -12 154 -36v-62c-48 25.333 -96.333 38 -145 38c-37.333 0 -65.666 -8.33301 -84.999 -25s-29 -37.667 -29 -63c0 -32.667 12 -59.834 36 -81.501s52 -32.834 84 -33.501v-57c-21.333 0 -43.333 -5.83301 -66 -17.5s-41.5 -27.5 -56.5 -47.5
s-22.5 -42 -22.5 -66c0 -26.667 6.83301 -49.5 20.5 -68.5s31.334 -33.5 53.001 -43.5s44.834 -15 69.501 -15c36.667 0 68.5 11.5 95.5 34.5s40.5 55.5 40.5 97.5c0 24 -5.33301 44.333 -16 61c-20 -5.33301 -38.333 -13.333 -55 -24c-30 -18.667 -48.667 -39 -56 -61
l-28 58c4 9.33301 11.833 19.5 23.5 30.5s23.167 20.167 34.5 27.5c16.667 10.667 32.5 17.834 47.5 21.501s32.5 6.5 52.5 8.5c18 2 33.333 4.33301 46 7s26.334 7.33398 41.001 14.001c30 14 48.333 38.667 55 74z" />
    <glyph glyph-name="quotesingle" unicode="'" horiz-adv-x="111" 
d="M27 669h64l-39 -245h-34z" />
    <glyph glyph-name="parenleft" unicode="(" horiz-adv-x="238" 
d="M134 -149.5c-22 39.667 -43 92.665 -63 158.998s-30 138.833 -30 217.5s10 151.167 30 217.5s41 119.333 63 159s40.333 68.834 55 87.501l24 -14c-48 -70.667 -83 -143 -105 -217s-33 -151.667 -33 -233c0 -80.667 11 -158.167 33 -232.5s57 -146.833 105 -217.5
l-24 -14c-14.667 18.667 -33 47.834 -55 87.501z" />
    <glyph glyph-name="parenright" unicode=")" horiz-adv-x="238" 
d="M104 608.5c22 -39.667 43 -92.665 63 -158.998s30 -138.833 30 -217.5s-10 -151.167 -30 -217.5s-41 -119.333 -63 -159s-40.333 -68.834 -55 -87.501l-24 14c48 70.667 83 143 105 217s33 151.667 33 233c0 80.667 -11 158.167 -33 232.5s-57 146.833 -105 217.5l24 14
c14.667 -18.667 33 -47.834 55 -87.501z" />
    <glyph glyph-name="asterisk" unicode="*" horiz-adv-x="411" 
d="M106.5 401c-8.33301 8 -12.501 17.666 -12.501 28.999c0 10 3 19.667 9 29c4.66699 6.66699 9.5 11.5 14.5 14.5s11.5 6.16699 19.5 9.5c10.667 5.33301 20.167 10.666 28.5 15.999s17.166 13.333 26.499 24c-14.667 3.33301 -26 5 -34 5
c-11.333 0 -22.666 -1.66699 -33.999 -5c-2.66699 -0.666992 -5.83398 -1.33398 -9.50098 -2.00098s-8.16699 -1 -13.5 -1c-12.667 0 -24.334 4 -35.001 12s-16 18.333 -16 31c0 12 4.16699 22.333 12.5 31s18.5 13 30.5 13c11.333 0 20.333 -2.16699 27 -6.5
s14 -11.166 22 -20.499c7.33301 -9.33301 15 -17.333 23 -24s18.667 -12.334 32 -17.001c-2 24 -9 45.333 -21 64c-4.66699 8.66699 -8 15.834 -10 21.501s-3 12.167 -3 19.5c0 11.333 3.66699 21.666 11 30.999s18 14 32 14s24.5 -4.66699 31.5 -14
s10.5 -19.666 10.5 -30.999c0 -8 -1.16699 -14.833 -3.5 -20.5s-5.83301 -12.5 -10.5 -20.5c-6 -10 -10.667 -19.5 -14 -28.5s-5.66602 -20.833 -6.99902 -35.5c14 4.66699 25.167 10.334 33.5 17.001s16.5 15 24.5 25c7.33301 8.66699 14.333 15.167 21 19.5
s15.334 6.5 26.001 6.5c12 0 22.167 -4.16699 30.5 -12.5s12.5 -18.833 12.5 -31.5c0 -12 -5.16699 -22.167 -15.5 -30.5s-22.166 -12.5 -35.499 -12.5c-5.33301 0 -9.83301 0.333008 -13.5 1s-6.83398 1.33398 -9.50098 2.00098c-11.333 3.33301 -22.666 5 -33.999 5
c-7.33301 0 -18.666 -1.66699 -33.999 -5c10 -11.333 19 -19.666 27 -24.999s17.333 -10.333 28 -15c8.66699 -4 15.5 -7.66699 20.5 -11s9.83301 -8 14.5 -14c6 -8.66699 9 -18 9 -28c0 -10.667 -4.16699 -20.167 -12.5 -28.5s-18.166 -12.5 -29.499 -12.5
c-6.66699 0 -13.334 1.83301 -20.001 5.5s-12 8.16699 -16 13.5c-4.66699 6 -7.83398 12 -9.50098 18s-2.83398 13.667 -3.50098 23c-1.33301 12 -3.33301 22.833 -6 32.5s-7.66699 20.5 -15 32.5c-8 -12.667 -13.333 -23.834 -16 -33.501s-4.66699 -20.5 -6 -32.5
c-1.33301 -16 -5.33301 -29.333 -12 -40c-11.333 -12.667 -23.333 -19 -36 -19c-11.333 0 -21.166 4 -29.499 12z" />
    <glyph glyph-name="plus" unicode="+" horiz-adv-x="526" 
d="M240 206h-195v47h195v194h48v-194h193v-47h-193v-195h-48v195z" />
    <glyph glyph-name="comma" unicode="," horiz-adv-x="181" 
d="M13 -144c25.333 13.333 47 31.834 65 55.501s28.333 49.834 31 78.501c-3.33301 -3.33301 -10 -5 -20 -5c-12.667 0 -23 4.66699 -31 14s-12 20 -12 32c0 13.333 4.5 24.666 13.5 33.999s21.167 14 36.5 14c19.333 0 34 -7.33301 44 -22s15 -30.334 15 -47.001
c0 -41.333 -12.5 -78.5 -37.5 -111.5s-54.833 -56.833 -89.5 -71.5z" />
    <glyph glyph-name="hyphen" unicode="-" horiz-adv-x="301" 
d="M45 266h211v-63h-211v63z" />
    <glyph glyph-name="period" unicode="." horiz-adv-x="192" 
d="M63.5 4c-9 9.33301 -13.5 20.333 -13.5 33s4.5 23.5 13.5 32.5s19.833 13.5 32.5 13.5s23.5 -4.5 32.5 -13.5s13.5 -19.833 13.5 -32.5s-4.5 -23.667 -13.5 -33s-19.833 -14 -32.5 -14s-23.5 4.66699 -32.5 14z" />
    <glyph glyph-name="slash" unicode="/" horiz-adv-x="373" 
d="M316 704h35l-283 -749h-35z" />
    <glyph glyph-name="zero" unicode="0" horiz-adv-x="527" 
d="M110.5 77c-33.667 60 -50.5 136.667 -50.5 230c0 94.667 17.167 171.5 51.5 230.5s84.833 88.5 151.5 88.5c66 0 116.5 -29 151.5 -87s52.5 -135.667 52.5 -233c0 -93.333 -17 -169.833 -51 -229.5s-85 -89.5 -153 -89.5s-118.833 30 -152.5 90zM391 306
c0 173.333 -43.333 260 -130 260s-130 -86.667 -130 -260c0 -172 43.333 -258 130 -258s130 86 130 258z" />
    <glyph glyph-name="one" unicode="1" horiz-adv-x="284" 
d="M115 555l-130 -7v43l203 28v-618h-73v554z" />
    <glyph glyph-name="two" unicode="2" horiz-adv-x="434" 
d="M25 66c72.667 71.333 127.17 127.167 163.503 167.5s64.166 78 83.499 113s29 70.167 29 105.5c0 39.333 -10.833 68.833 -32.5 88.5s-49.834 29.5 -84.501 29.5c-42.667 0 -88.334 -13.333 -137.001 -40v66c49.333 22.667 98.333 34 147 34
c54.667 0 98.667 -15.667 132 -47s50 -74.666 50 -129.999c0 -40 -11.833 -81.333 -35.5 -124s-53.167 -83.834 -88.5 -123.501s-81 -87.167 -137 -142.5h279v-63h-369v66z" />
    <glyph glyph-name="three" unicode="3" horiz-adv-x="452" 
d="M33 22l0.000976562 70.001c23.333 -12.667 47.333 -22.334 72 -29.001s47.667 -10 69 -10c48 0 84.833 11.333 110.5 34s38.5 52.667 38.5 90s-14.833 67.666 -44.5 90.999s-69.834 36 -120.501 38h-7v57h7c39.333 0.666992 72.5 11.834 99.5 33.501
s40.5 49.167 40.5 82.5c0 25.333 -9.66699 46.333 -29 63s-47.666 25 -84.999 25c-48.667 0 -97 -12.667 -145 -38v63c50 24 101.333 36 154 36c58.667 0 102.667 -14.167 132 -42.5s44 -62.833 44 -103.5c0 -32 -9.66699 -62.167 -29 -90.5s-43.333 -46.833 -72 -55.5
c40 -8 71.5 -27.167 94.5 -57.5s34.5 -65.5 34.5 -105.5c0.666992 -32 -6.83301 -61.833 -22.5 -89.5s-39.334 -50 -71.001 -67s-70.167 -25.5 -115.5 -25.5c-51.333 0 -103 10.333 -155 31z" />
    <glyph glyph-name="four" unicode="4" horiz-adv-x="498" 
d="M337 156l-307 1v35l168 425h73l-162 -402h228v221l71 27v-463h-71v156z" />
    <glyph glyph-name="five" unicode="5" horiz-adv-x="456" 
d="M50 17l0.000976562 70.002c53.333 -24.667 99.666 -37 138.999 -37c34 0 62.5 7 85.5 21s40.167 32 51.5 54s17 45.333 17 70c0 39.333 -12.5 72.5 -37.5 99.5s-61.833 40.5 -110.5 40.5c-33.333 1.33301 -70.666 -6.33398 -111.999 -23.001l-29 19l32 285h310v-62
l-248 1l-20 -175c30.667 8 59 12 85 12c39.333 0 74.333 -8.66699 105 -26s54.667 -40.833 72 -70.5s26 -62.5 26 -98.5c0 -42.667 -9 -79.834 -27 -111.501s-43.5 -56 -76.5 -73s-70.833 -25.5 -113.5 -25.5c-52.667 0 -102.334 10 -149.001 30z" />
    <glyph glyph-name="six" unicode="6" horiz-adv-x="465" 
d="M93.5 59c-32.333 48 -48.5 109.333 -48.5 184c0 65.333 11.667 126.833 35 184.5s57.833 105.667 103.5 144s101.167 61.5 166.5 69.5v-65c-60 -7.33301 -110.333 -33.333 -151 -78s-65.334 -99.334 -74.001 -164.001c12.667 21.333 30.834 38.166 54.501 50.499
s47.834 18.5 72.501 18.5c34 0 64.5 -8.66699 91.5 -26s48.167 -41.666 63.5 -72.999s23 -67.333 23 -108c0 -35.333 -7.5 -69.166 -22.5 -101.499s-36.833 -58.333 -65.5 -78s-62.334 -29.5 -101.001 -29.5c-66 0 -115.167 24 -147.5 72zM305 67.5
c18 15 31.501 34.333 40.501 58s13.5 48.5 13.5 74.5c-0.666992 42 -11 77.167 -31 105.5s-49 42.5 -87 42.5c-35.333 0 -64.5 -14.667 -87.5 -44s-34.5 -64.333 -34.5 -105c0 -25.333 4.83301 -49.833 14.5 -73.5s23.667 -43 42 -58s40.166 -22.5 65.499 -22.5
c24.667 0 46 7.5 64 22.5z" />
    <glyph glyph-name="seven" unicode="7" horiz-adv-x="377" 
d="M274 553h-279l3 63h359v-34l-224 -581h-81z" />
    <glyph glyph-name="eight" unicode="8" horiz-adv-x="461" 
d="M91.5 32.5c-37.667 30.333 -56.499 72.502 -56.499 126.502c0 40.667 12.667 76.167 38 106.5s58.666 53.166 99.999 68.499c-32.667 15.333 -59 36.166 -79 62.499s-30 54.833 -30 85.5s8.16699 57 24.5 79s37.5 38.5 63.5 49.5s53.667 16.5 83 16.5
c30 0 58 -5.5 84 -16.5s47 -27.5 63 -49.5s24 -48.333 24 -79c0 -34.667 -10.333 -64.167 -31 -88.5s-49.667 -44.833 -87 -61.5c92 -40 138 -99 138 -177c0 -32 -8.33301 -60.667 -25 -86s-39.5 -45.333 -68.5 -60s-61.5 -22 -97.5 -22c-58 0 -105.833 15.167 -143.5 45.5z
M314.001 406.002c16.667 18 25 40.667 25 68c0 31.333 -10 56 -30 74s-44.667 27 -74 27c-28.667 0 -52.167 -8.83301 -70.5 -26.5s-27.5 -41.834 -27.5 -72.501c0 -25.333 9.33301 -48.166 28 -68.499s44 -36.5 76 -48.5c32 13.333 56.333 29 73 47zM318.001 73.502
c21.333 21.667 32.001 50.834 32.001 87.501c0 34.667 -12.167 63.667 -36.5 87s-55.5 42 -93.5 56c-34 -12 -61 -29.667 -81 -53s-30 -51.333 -30 -84c0 -38.667 12.167 -69.334 36.5 -92.001s53.5 -34 87.5 -34c35.333 0 63.666 10.833 84.999 32.5z" />
    <glyph glyph-name="nine" unicode="9" horiz-adv-x="467" 
d="M115 40c62 8 113.167 32.1709 153.5 72.5039s64.833 93.166 73.5 158.499c-12 -18.667 -30.167 -32.834 -54.5 -42.501s-49.833 -14.5 -76.5 -14.5c-33.333 0 -63.5 8.83301 -90.5 26.5s-48 42.167 -63 73.5s-22.5 67 -22.5 107c0 35.333 7.5 68.833 22.5 100.5
s36.833 57.167 65.5 76.5s62.667 29 102 29c66 0 115.333 -23.667 148 -71s49 -107.333 49 -180c0 -66.667 -11.5 -129.334 -34.5 -188.001s-57.5 -107.334 -103.5 -146.001s-102.333 -61 -169 -67v65zM288 288.504c18.667 13.667 33.332 32.002 43.999 55.002
s16 47.5 16 73.5c0 25.333 -4.83301 49.666 -14.5 72.999s-23.834 42.5 -42.501 57.5s-40.667 22.5 -66 22.5c-37.333 0 -66.666 -15.333 -87.999 -46s-32 -66.334 -32 -107.001c0 -42.667 10.333 -78.167 31 -106.5s50.334 -42.5 89.001 -42.5
c23.333 0 44.333 6.83301 63 20.5z" />
    <glyph glyph-name="colon" unicode=":" horiz-adv-x="221" 
d="M78.5 4c-9 9.33301 -13.5 20.333 -13.5 33s4.5 23.5 13.5 32.5s19.833 13.5 32.5 13.5s23.5 -4.5 32.5 -13.5s13.5 -19.833 13.5 -32.5s-4.5 -23.667 -13.5 -33s-19.833 -14 -32.5 -14s-23.5 4.66699 -32.5 14zM77.5 350c-9 9.33301 -13.5 20.333 -13.5 33
s4.5 23.5 13.5 32.5s19.833 13.5 32.5 13.5s23.5 -4.5 32.5 -13.5s13.5 -19.833 13.5 -32.5s-4.5 -23.667 -13.5 -33s-19.833 -14 -32.5 -14s-23.5 4.66699 -32.5 14z" />
    <glyph glyph-name="semicolon" unicode=";" horiz-adv-x="181" 
d="M65.5 351c-9 9.33301 -13.5 20.333 -13.5 33s4.5 23.5 13.5 32.5s19.833 13.5 32.5 13.5s23.5 -4.5 32.5 -13.5s13.5 -19.833 13.5 -32.5s-4.5 -23.667 -13.5 -33s-19.833 -14 -32.5 -14s-23.5 4.66699 -32.5 14zM13 -144c25.333 13.333 47 31.834 65 55.501
s28.333 49.834 31 78.501c-3.33301 -3.33301 -10 -5 -20 -5c-12.667 0 -23 4.66699 -31 14s-12 20 -12 32c0 13.333 4.5 24.666 13.5 33.999s21.167 14 36.5 14c19.333 0 34 -7.33301 44 -22s15 -30.334 15 -47.001c0 -41.333 -12.5 -78.5 -37.5 -111.5
s-54.833 -56.833 -89.5 -71.5z" />
    <glyph glyph-name="less" unicode="&#x3c;" horiz-adv-x="429" 
d="M62 202c-11.333 8 -17 17.333 -17 28s5.66699 20 17 28l294 203l28 -40l-276 -191l274 -192l-28 -41z" />
    <glyph glyph-name="equal" unicode="=" horiz-adv-x="506" 
d="M45 312h416v-46h-416v46zM45 192h416v-46h-416v46z" />
    <glyph glyph-name="greater" unicode="&#x3e;" horiz-adv-x="429" 
d="M47 38l274 192l-276 191l28 40l294 -203c11.333 -8 17 -17.333 17 -28s-5.66699 -20 -17 -28l-292 -205z" />
    <glyph glyph-name="question" unicode="?" horiz-adv-x="396" 
d="M121 208c0 31.333 4.00098 58.668 12.001 82.001s17.5 42.666 28.5 57.999s25.5 33 43.5 53c22 24 38.333 45 49 63s16 40.333 16 67c0 28.667 -10.167 51.334 -30.5 68.001s-45.5 25 -75.5 25c-42 0 -84.667 -12.333 -128 -37v59c43.333 24 90 36 140 36
c48.667 0 89.5 -12.833 122.5 -38.5s49.5 -62.834 49.5 -111.501c0 -33.333 -6.33301 -61 -19 -83s-31.334 -46 -56.001 -72c-22.667 -23.333 -39.667 -42 -51 -56s-21 -31.333 -29 -52s-12 -45.667 -12 -75h-60v14zM125.501 -0.998047c-9 9.33301 -13.5 20.333 -13.5 33
s4.5 23.5 13.5 32.5s19.833 13.5 32.5 13.5s23.5 -4.5 32.5 -13.5s13.5 -19.833 13.5 -32.5s-4.5 -23.667 -13.5 -33s-19.833 -14 -32.5 -14s-23.5 4.66699 -32.5 14z" />
    <glyph glyph-name="at" unicode="@" horiz-adv-x="776" 
d="M223.5 33.5c-50.333 31 -90.1631 72.999 -119.496 125.999s-44 110.5 -44 172.5s14.667 119.5 44 172.5s69.166 95 119.499 126s105.166 46.5 164.499 46.5s114.166 -15.5 164.499 -46.5s90.166 -73 119.499 -126s44 -110.5 44 -172.5c0 -64.667 -14.5 -118 -43.5 -160
s-69.5 -63 -121.5 -63c-19.333 0 -35 5.83301 -47 17.5s-18.333 29.5 -19 53.5c-14 -25.333 -33.167 -43.833 -57.5 -55.5s-50.833 -17.5 -79.5 -17.5c-38 0 -69.5 10.667 -94.5 32s-37.5 50 -37.5 86c0 56.667 26.833 96.667 80.5 120s114.834 35.666 183.501 36.999v29
c0 63.333 -34 95 -102 95c-20.667 0 -42.167 -3.66699 -64.5 -11s-43.5 -17.333 -63.5 -30v57c46 26.667 94 40 144 40c47.333 0 85.166 -12.5 113.499 -37.5s42.5 -62.167 42.5 -111.5v-198c0 -22 2 -38.167 6 -48.5s11 -15.5 21 -15.5
c23.333 0.666992 42.833 10.834 58.5 30.501s27 43.334 34 71.001s10.5 54.167 10.5 79.5c0 56 -13.167 107.667 -39.5 155s-61.833 84.833 -106.5 112.5s-93.334 41.5 -146.001 41.5s-101.334 -13.833 -146.001 -41.5s-80 -65.167 -106 -112.5s-39 -99 -39 -155
s13 -107.667 39 -155s61.333 -84.833 106 -112.5s93.334 -41.5 146.001 -41.5v-36c-59.333 0 -114.166 15.5 -164.499 46.5zM446.503 192.499c22.333 22.333 33.501 52.8311 33.501 91.498v50c-61.333 -0.666992 -109 -10.167 -143 -28.5s-51 -44.166 -51 -77.499
c0 -21.333 7.5 -38.166 22.5 -50.499s34.167 -18.5 57.5 -18.5c31.333 0 58.166 11.167 80.499 33.5z" />
    <glyph glyph-name="A" unicode="A" horiz-adv-x="578" 
d="M405 196h-236l-57 -196h-77l206 669h94l208 -669h-81zM389 249l-100 345h-4l-100 -345h204z" />
    <glyph glyph-name="B" unicode="B" horiz-adv-x="568" 
d="M105 669l146 0.000976562c154.667 0 232 -56.333 232 -169c0 -33.333 -10.167 -62.833 -30.5 -88.5s-46.166 -44.5 -77.499 -56.5v-2c43.333 -8.66699 77.666 -28.5 102.999 -59.5s38 -68.833 38 -113.5c0 -58.667 -19.833 -103.334 -59.5 -134.001s-97.5 -46 -173.5 -46
h-178v669zM265 379.001c46.667 0 81.667 10.5 105 31.5s35 48.5 35 82.5c0 81.333 -49 122 -147 122h-76v-236h83zM276 59.001c108 0 162 43.667 162 131c0 39.333 -14 71.833 -42 97.5s-71.667 38.5 -131 38.5h-83v-267h94z" />
    <glyph glyph-name="C" unicode="C" horiz-adv-x="549" 
d="M193.5 33.5c-43.667 29.667 -76.3291 70.168 -97.9961 121.501s-32.5 110.333 -32.5 177c0 66 10.333 125.167 31 177.5s52.667 94 96 125s97.666 46.5 162.999 46.5c23.333 0 48.166 -2.66699 74.499 -8s48.833 -12.333 67.5 -21v-66c-19.333 10.667 -41.333 19 -66 25
s-48.334 9 -71.001 9c-64 0 -115.667 -22.333 -155 -67s-59 -117.334 -59 -218.001c0 -102 19.833 -175 59.5 -219s91.834 -66 156.501 -66c22 0 45.167 3.16699 69.5 9.5s46.166 14.5 65.499 24.5v-66c-18.667 -8 -41 -14.833 -67 -20.5s-50 -8.5 -72 -8.5
c-64.667 0 -118.834 14.833 -162.501 44.5z" />
    <glyph glyph-name="D" unicode="D" horiz-adv-x="630" 
d="M105 669h150.002c97.333 0 173.666 -28.5 228.999 -85.5s83 -136.833 83 -239.5c0 -109.333 -24.333 -194 -73 -254s-124.334 -90 -227.001 -90h-162v669zM250.002 59c83.333 0 143.5 23.168 180.5 69.501s55.5 115.166 55.5 206.499c0 186.667 -84.667 280 -254 280h-50
v-556h68z" />
    <glyph glyph-name="E" unicode="E" horiz-adv-x="521" 
d="M476 59v-59h-371v669h359v-54h-283v-236h211v-53h-211v-267h295z" />
    <glyph glyph-name="F" unicode="F" horiz-adv-x="480" 
d="M182 615v-238h211v-54h-211v-323h-77v669h350v-54h-273z" />
    <glyph glyph-name="G" unicode="G" horiz-adv-x="627" 
d="M194 30c-41.333 26.667 -73.5 65.999 -96.5 117.999s-34.5 114.333 -34.5 187c0 68.667 11.5 129.167 34.5 181.5s56.333 92.833 100 121.5s95.5 43 155.5 43c22.667 0 47.167 -2.66699 73.5 -8s48.833 -12.333 67.5 -21v-66c-20 10.667 -42.5 19 -67.5 25
s-48.833 9 -71.5 9c-62.667 0 -113.334 -22.333 -152.001 -67s-58 -116.667 -58 -216c0 -102 18.667 -175.333 56 -220s85 -67 143 -67c27.333 0 53 4.5 77 13.5s42.667 21.833 56 38.5v205h-113v53h188v-289c-26.667 -26.667 -59.167 -47 -97.5 -61
s-77.166 -21 -116.499 -21c-54.667 0.666992 -102.667 14.334 -144 41.001z" />
    <glyph glyph-name="H" unicode="H" horiz-adv-x="659" 
d="M554 669v-669h-76v323h-297v-323h-76v669h76v-293h297v293h76z" />
    <glyph glyph-name="I" unicode="I" horiz-adv-x="286" 
d="M105 669h76v-669h-76v669z" />
    <glyph glyph-name="J" unicode="J" horiz-adv-x="335" 
d="M0 2l0.000976562 64c27.333 -12 52.333 -18 75 -18c28 0 48.5 8.33301 61.5 25s19.5 45 19.5 85v511h77v-517c0 -56 -12.833 -97.5 -38.5 -124.5s-61.834 -40.5 -108.501 -40.5c-31.333 0 -60 5 -86 15z" />
    <glyph glyph-name="K" unicode="K" horiz-adv-x="585" 
d="M553 0h-93l-278 346v-346h-77v669h77v-310l242 310h85l-246 -310z" />
    <glyph glyph-name="L" unicode="L" horiz-adv-x="481" 
d="M444 59v-59h-339v669h76v-610h263z" />
    <glyph glyph-name="M" unicode="M" horiz-adv-x="786" 
d="M681 669v-669h-73v600l-183 -601h-61l-190 594v-593h-69v669h116l175 -559l169 559h116z" />
    <glyph glyph-name="N" unicode="N" 
d="M105 669h85l290 -561v561h69v-669h-87l-288 553v-553h-69v669z" />
    <glyph glyph-name="O" unicode="O" 
d="M184.5 30c-40.333 28.667 -71.166 69.167 -92.499 121.5s-32 113.5 -32 183.5s10.667 131 32 183s52.166 92.333 92.499 121s87.833 43 142.5 43s102.167 -14.333 142.5 -43s71.166 -69 92.499 -121s32 -113 32 -183s-10.667 -131.167 -32 -183.5
s-52.166 -92.833 -92.499 -121.5s-87.833 -43 -142.5 -43s-102.167 14.333 -142.5 43zM464.5 123.5c32.333 50.333 48.5 120.833 48.5 211.5s-16.167 161.167 -48.5 211.5s-78.166 75.5 -137.499 75.5s-105.166 -25.333 -137.499 -76s-48.5 -121 -48.5 -211
s16.167 -160.333 48.5 -211s78.166 -76 137.499 -76s105.166 25.167 137.499 75.5z" />
    <glyph glyph-name="P" unicode="P" horiz-adv-x="522" 
d="M431.5 617.5c38.333 -34.333 57.5 -81.499 57.5 -141.499c0 -58.667 -22.167 -105.334 -66.5 -140.001s-105.5 -52 -183.5 -52h-58v-284h-76v669h155c76 0 133.167 -17.167 171.5 -51.5zM365 373.501c30 24.333 45 58.5 45 102.5c0 44.667 -13.667 79 -41 103
s-68.333 36 -123 36h-65v-278h48c60.667 0 106 12.167 136 36.5z" />
    <glyph glyph-name="Q" unicode="Q" 
d="M184.5 30c-40.333 28.667 -71.166 69.167 -92.499 121.5s-32 113.5 -32 183.5s10.667 131 32 183s52.166 92.333 92.499 121s87.833 43 142.5 43s102.167 -14.333 142.5 -43s71.166 -69 92.499 -121s32 -113 32 -183s-10.667 -131.167 -32 -183.5
s-52.166 -92.833 -92.499 -121.5s-87.833 -43 -142.5 -43s-102.167 14.333 -142.5 43zM464.5 123.5c32.333 50.333 48.5 120.833 48.5 211.5s-16.167 161.167 -48.5 211.5s-78.166 75.5 -137.499 75.5s-105.166 -25.333 -137.499 -76s-48.5 -121 -48.5 -211
s16.167 -160.333 48.5 -211s78.166 -76 137.499 -76s105.166 25.167 137.499 75.5zM306 -54h246l-53 -58h-193v58z" />
    <glyph glyph-name="R" unicode="R" horiz-adv-x="577" 
d="M105 669l148 -0.000976562c78.667 0 137.667 -15.167 177 -45.5s59 -74.166 59 -131.499c0 -46.667 -14.333 -86 -43 -118s-66 -53.333 -112 -64l210 -310h-90l-197 300h-76v-300h-76v669zM259 353.999c46.667 0 83.5 12 110.5 36s40.5 56 40.5 96
c0 86 -51.667 129 -155 129h-74v-261h78z" />
    <glyph glyph-name="S" unicode="S" horiz-adv-x="507" 
d="M50 29v69.002c59.333 -32 122.666 -48 189.999 -48c41.333 0 74.5 9.5 99.5 28.5s37.5 48.5 37.5 88.5c0 22 -6.16699 41.167 -18.5 57.5s-27.5 30.5 -45.5 42.5s-43.333 26.667 -76 44c-37.333 19.333 -67.666 37 -90.999 53s-43 36.167 -59 60.5s-24 53.166 -24 86.499
c0 36 8.66699 66.833 26 92.5s40.666 45.167 69.999 58.5s62 20 98 20c57.333 0 110 -11.667 158 -35v-64c-21.333 12.667 -45.5 22.5 -72.5 29.5s-53.833 10.5 -80.5 10.5c-36 0 -65.5 -8.83301 -88.5 -26.5s-34.5 -43.167 -34.5 -76.5c0 -23.333 6.33301 -43.833 19 -61.5
s28.334 -32.834 47.001 -45.501s44.667 -28 78 -46c38 -20.667 68.5 -39 91.5 -55s42.5 -36.333 58.5 -61s24 -54 24 -88c0 -33.333 -9 -63.333 -27 -90s-43.5 -47.667 -76.5 -63s-70.5 -23 -112.5 -23c-69.333 0 -133 14 -191 42z" />
    <glyph glyph-name="T" unicode="T" horiz-adv-x="496" 
d="M491 609h-206v-609h-76v609h-204v60h486v-60z" />
    <glyph glyph-name="U" unicode="U" horiz-adv-x="664" 
d="M158.5 52c-39 43.333 -58.501 106.333 -58.501 189v428h76v-420c0 -64.667 12.667 -114 38 -148s66 -51 122 -51c54.667 0 94.334 16.667 119.001 50s37 81.333 37 144v425h72v-432c0 -82 -19.5 -144.167 -58.5 -186.5s-96.5 -63.5 -172.5 -63.5
c-77.333 0 -135.5 21.667 -174.5 65z" />
    <glyph glyph-name="V" unicode="V" horiz-adv-x="591" 
d="M556 669l-215 -670h-87l-219 670h80l181 -584h4l179 584h77z" />
    <glyph glyph-name="W" unicode="W" horiz-adv-x="905" 
d="M870 669l-197 -670h-87l-125 408l-137 -408h-84l-205 670h77l171 -578h7l139 421l-48 157h77l168 -576h6l161 576h77z" />
    <glyph glyph-name="X" unicode="X" horiz-adv-x="549" 
d="M444 0l-169 289l-176 -289h-79l219 351l-190 318h84l150 -255l156 255h78l-197 -317l209 -352h-85z" />
    <glyph glyph-name="Y" unicode="Y" horiz-adv-x="503" 
d="M290 244v-244h-76v241l-199 428h83l156 -346l157 346h77z" />
    <glyph glyph-name="Z" unicode="Z" horiz-adv-x="530" 
d="M30 39l362 574h-337v56h438v-38l-361 -572h360v-59h-462v39z" />
    <glyph glyph-name="bracketleft" unicode="[" horiz-adv-x="260" 
d="M105 682h125v-26h-94v-856h94v-26h-125v908z" />
    <glyph glyph-name="backslash" unicode="\" horiz-adv-x="373" 
d="M22 704h35l283 -749h-35z" />
    <glyph glyph-name="bracketright" unicode="]" horiz-adv-x="260" 
d="M30 -200h93v856h-93v26h125v-908h-125v26z" />
    <glyph glyph-name="asciicircum" unicode="^" horiz-adv-x="707" 
d="M118.5 13.5c-9 9 -13.5 19.833 -13.5 32.5v578c0 12.667 4.5 23.334 13.5 32.001s19.833 13 32.5 13h406c12.667 0 23.334 -4.33301 32.001 -13s13 -19.334 13 -32.001v-578c0 -12.667 -4.33301 -23.5 -13 -32.5s-19.334 -13.5 -32.001 -13.5h-406
c-12.667 0 -23.5 4.5 -32.5 13.5zM523 618h-338l169 -248zM329 335l-173 256v-511zM552 590l-174 -255l174 -256v511zM522 51l-168 248l-169 -248h337z" />
    <glyph glyph-name="underscore" unicode="_" horiz-adv-x="443" 
d="M-3 -65h449v-34h-449v34z" />
    <glyph glyph-name="grave" unicode="`" horiz-adv-x="263" 
d="M45 598v88l173 -173h-49z" />
    <glyph glyph-name="a" unicode="a" horiz-adv-x="446" 
d="M414 42l0.000976562 -44.999c-14.667 -5.33301 -28.334 -8 -41.001 -8c-19.333 0 -35 5.83301 -47 17.5s-18.333 29.5 -19 53.5c-14 -25.333 -33.167 -43.833 -57.5 -55.5s-50.833 -17.5 -79.5 -17.5c-38 0 -69.5 10.667 -94.5 32s-37.5 50 -37.5 86
c0 56.667 26.833 96.667 80.5 120s114.834 35.666 183.501 36.999v29c0 63.333 -34 95 -102 95c-20.667 0 -42.167 -3.66699 -64.5 -11s-43.5 -17.333 -63.5 -30v57c46 26.667 94 40 144 40c47.333 0 85.166 -12.5 113.499 -37.5s42.5 -62.167 42.5 -111.5v-189
c0 -22.667 2 -39 6 -49s11.667 -15 23 -15c2 0 6.33301 0.666992 13 2zM302.001 214.001c-61.333 -0.666992 -108.999 -10.1689 -142.999 -28.502s-51 -44.166 -51 -77.499c0 -21.333 7.5 -38.166 22.5 -50.499s34.167 -18.5 57.5 -18.5c31.333 0 58.166 11.167 80.499 33.5
s33.5 52.833 33.5 91.5v50z" />
    <glyph glyph-name="b" unicode="b" horiz-adv-x="479" 
d="M131 0l-57 0.000976562v669h70v-303c12.667 24.667 30.167 43.5 52.5 56.5s45.833 19.5 70.5 19.5c34 0 63.5 -10.5 88.5 -31.5s44 -49 57 -84s19.5 -72.5 19.5 -112.5c0 -70.667 -17.5 -126.834 -52.5 -168.501s-83.833 -62.5 -146.5 -62.5
c-30.667 0 -64.667 5.66699 -102 17zM325.5 80.501c22.333 31 33.502 76.5 33.502 136.5c0 46 -10 85.5 -30 118.5s-46.333 49.5 -79 49.5c-18.667 0 -36.334 -6.33301 -53.001 -19s-30 -30.5 -40 -53.5s-15 -49.833 -15 -80.5v-176c24 -14.667 52.333 -22 85 -22
c43.333 0 76.166 15.5 98.499 46.5z" />
    <glyph glyph-name="c" unicode="c" horiz-adv-x="391" 
d="M144.5 13.5c-31.667 17.667 -56.4971 43.667 -74.4971 78s-27 75.5 -27 123.5c0 46.667 9 87.167 27 121.5s42 60.5 72 78.5s63.333 27 100 27c39.333 0 75.666 -7 108.999 -21v-55c-32 12.667 -62.667 19 -92 19c-42 0 -76.167 -15.5 -102.5 -46.5
s-39.5 -73.167 -39.5 -126.5c0 -54 13.667 -95.5 41 -124.5s63 -43.5 107 -43.5c31.333 0 62.666 5.33301 93.999 16v-56c-13.333 -5.33301 -29.833 -9.5 -49.5 -12.5s-38.5 -4.5 -56.5 -4.5c-40.667 0 -76.834 8.83301 -108.501 26.5z" />
    <glyph glyph-name="d" unicode="d" horiz-adv-x="492" 
d="M129 15c-25.333 18.667 -45.332 45.166 -59.999 79.499s-22 73.833 -22 118.5c0 40.667 6.5 78.334 19.5 113.001s32.167 62.667 57.5 84s56 32 92 32c26 0 50.833 -6.66699 74.5 -20s41.5 -32 53.5 -56v303h70v-565c0 -22.667 2 -39 6 -49s11.667 -15 23 -15
c2.66699 0 6.66699 0.666992 12 2v-45c-14.667 -5.33301 -28.334 -8 -41.001 -8c-18.667 0 -34 5.83301 -46 17.5s-19.333 29.167 -22 52.5v16c-14.667 -29.333 -33.5 -51.333 -56.5 -66s-47.833 -22 -74.5 -22c-32 0 -60.667 9.33301 -86 28zM288.001 65.999
c17.333 14 31.333 34.667 42 62s16 59.333 16 96c0 33.333 -5.33301 62.166 -16 86.499s-24.5 42.833 -41.5 55.5s-35.5 19 -55.5 19c-34 0 -61.333 -17 -82 -51s-31 -74.667 -31 -122c0 -34 5 -63.667 15 -89s23.5 -44.666 40.5 -57.999s35.5 -20 55.5 -20
c20.667 0 39.667 7 57 21z" />
    <glyph glyph-name="e" unicode="e" horiz-adv-x="428" 
d="M347.5 374c29 -45.333 42.4971 -103 40.4971 -173h-275c2.66699 -50.667 17.834 -89.667 45.501 -117s62.5 -41 104.5 -41c20.667 0 38.5 1.83301 53.5 5.5s30.167 9.16699 45.5 16.5l-1 -54c-29.333 -16 -65.666 -24 -108.999 -24
c-63.333 0 -114.166 20.5 -152.499 61.5s-57.5 97.167 -57.5 168.5c0 43.333 7.33301 82 22 116s35.5 60.667 62.5 80s58.5 29 94.5 29c55.333 0 97.5 -22.667 126.5 -68zM148.997 352c-19.333 -24.667 -31.001 -60.332 -35.001 -106.999h205
c-1.33301 43.333 -10.5 78.166 -27.5 104.499s-40.167 39.5 -69.5 39.5s-53.666 -12.333 -72.999 -37z" />
    <glyph glyph-name="f" unicode="f" horiz-adv-x="248" 
d="M166 600c-11.333 -14.667 -17 -39.667 -17 -75v-101h95v-44h-95v-380h-70v351c0 12 -2 20.167 -6 24.5s-11.333 6.5 -22 6.5h-26v42h54v94c0 54.667 11 94.667 33 120s52.333 38 91 38c22 0 43.667 -4 65 -12v-52c-18 6.66699 -36 10 -54 10
c-20.667 0 -36.667 -7.33301 -48 -22z" />
    <glyph glyph-name="g" unicode="g" horiz-adv-x="479" 
d="M88 -199v59.001c35.333 -16.667 74.333 -25 117 -25c40 0 71.667 9.83301 95 29.5s35 55.167 35 106.5v83c-12.667 -22.667 -29.834 -40 -51.501 -52s-44.5 -18 -68.5 -18c-36 0 -66.833 10.333 -92.5 31s-45 48 -58 82s-19.5 71.333 -19.5 112c0 46 8.5 86.667 25.5 122
s40.833 62.666 71.5 81.999s66.334 29 107.001 29c30.667 0 63.667 -6 99 -18h57v-457c0 -68 -17.667 -117 -53 -147s-80.666 -45 -135.999 -45c-48.667 0 -91.334 8.66699 -128.001 26zM283.5 59.501c16.333 11.667 29.333 28.167 39 49.5s14.5 46.333 14.5 75v183
c-20.667 14.667 -48 22 -82 22c-42.667 0 -76.167 -15.833 -100.5 -47.5s-36.5 -76.167 -36.5 -133.5c0 -46.667 10 -86 30 -118s48 -48 84 -48c18 0 35.167 5.83301 51.5 17.5z" />
    <glyph glyph-name="h" unicode="h" horiz-adv-x="491" 
d="M74 669h70.002v-305c13.333 24 32.166 43 56.499 57s50.5 21 78.5 21c46 0 81.333 -14.333 106 -43s37 -72.667 37 -132v-267h-70v262c0 82 -29.333 123 -88 123c-34.667 0 -63.334 -14.667 -86.001 -44s-34 -69 -34 -119v-222h-70v669z" />
    <glyph glyph-name="i" unicode="i" horiz-adv-x="218" 
d="M79.5 588c-8.33301 8.66699 -12.5 18.667 -12.5 30c0 12.667 4.16699 23.667 12.5 33s18.166 14 29.499 14c10.667 0 20.167 -4.66699 28.5 -14s12.5 -20.333 12.5 -33c0 -11.333 -4.16699 -21.333 -12.5 -30s-17.833 -13 -28.5 -13
c-11.333 0 -21.166 4.33301 -29.499 13zM74 424h70v-424h-70v424z" />
    <glyph glyph-name="j" unicode="j" horiz-adv-x="231" 
d="M85.5 588c-8.33301 8.66699 -12.5 18.667 -12.5 30c0 12.667 4.16699 23.667 12.5 33s18.166 14 29.499 14s21.166 -4.66699 29.499 -14s12.5 -20.333 12.5 -33c0 -11.333 -4.16699 -21.333 -12.5 -30s-18.166 -13 -29.499 -13s-21.166 4.33301 -29.499 13zM-31 -214v52
c18 -6 35.333 -9 52 -9c20 0 35 6.83301 45 20.5s15 37.5 15 71.5v503h70v-496c0 -102 -39.667 -153 -119 -153c-22 0 -43 3.66699 -63 11z" />
    <glyph glyph-name="k" unicode="k" horiz-adv-x="425" 
d="M380 58c15.333 -12.667 29.667 -19.333 43 -20v-51c-30 0 -56.5 7.33301 -79.5 22s-52.167 43 -87.5 85l-112 131v-225h-70v669h70v-422l171 177h82l-181 -185l108 -124c22 -25.333 40.667 -44.333 56 -57z" />
    <glyph glyph-name="l" unicode="l" horiz-adv-x="220" 
d="M95.5 14.5c-15.667 18.333 -23.499 50.1689 -23.499 95.502v559h70v-560c0 -28.667 3 -47.834 9 -57.501s16 -14.834 30 -15.501c3.33301 0 6 0.333008 8 1v-49c-5.33301 -0.666992 -14.333 -1 -27 -1c-28.667 0 -50.834 9.16699 -66.501 27.5z" />
    <glyph glyph-name="m" unicode="m" horiz-adv-x="727" 
d="M624 399c22.667 -28.667 34.001 -72.668 34.001 -132.001v-267h-70v252c0 88.667 -28 133 -84 133c-18.667 0 -35.834 -6.83301 -51.501 -20.5s-28.167 -33.667 -37.5 -60s-14 -57.5 -14 -93.5v-211h-70v252c0 88.667 -28 133 -84 133
c-29.333 0 -53.833 -15.667 -73.5 -47s-29.5 -73.666 -29.5 -126.999v-211h-70v424h70v-66c10 26 26.5 46.5 49.5 61.5s48.167 22.5 75.5 22.5c30.667 0 56.667 -7.83301 78 -23.5s36.333 -39.167 45 -70.5c11.333 31.333 29.333 54.833 54 70.5s51 23.5 79 23.5
c43.333 0 76.333 -14.333 99 -43z" />
    <glyph glyph-name="n" unicode="n" horiz-adv-x="491" 
d="M74 424l70 -0.000976562v-66c12.667 26 31.5 46.5 56.5 61.5s52.167 22.5 81.5 22.5c45.333 0 80 -14.333 104 -43s36 -72.667 36 -132v-267h-70v252c0 48 -8.5 82.167 -25.5 102.5s-39.167 30.5 -66.5 30.5c-21.333 0 -40.833 -7 -58.5 -21s-31.667 -34.167 -42 -60.5
s-15.5 -57.166 -15.5 -92.499v-211h-70v424z" />
    <glyph glyph-name="o" unicode="o" horiz-adv-x="463" 
d="M134 15c-28 18.667 -49.8301 45.334 -65.4971 80.001s-23.5 75.334 -23.5 122.001c0 45.333 8 85.166 24 119.499s38.167 60.666 66.5 78.999s60.166 27.5 95.499 27.5s67.166 -9.16699 95.499 -27.5s50.666 -44.666 66.999 -78.999s24.5 -74.166 24.5 -119.499
c0 -46.667 -7.83301 -87.334 -23.5 -122.001s-37.667 -61.334 -66 -80.001s-60.833 -28 -97.5 -28s-69 9.33301 -97 28zM311.003 85.5c20.667 30.333 31 74.166 31 131.499c0 55.333 -10.333 97.833 -31 127.5s-47 44.5 -79 44.5c-32.667 0 -59.5 -14.833 -80.5 -44.5
s-31.5 -72.167 -31.5 -127.5c0 -57.333 10.5 -101.166 31.5 -131.499s47.833 -45.5 80.5 -45.5c32 0 58.333 15.167 79 45.5z" />
    <glyph glyph-name="p" unicode="p" horiz-adv-x="487" 
d="M74 424l69.002 0.00195312v-66c13.333 27.333 31.666 48.166 54.999 62.499s48 21.5 74 21.5c32.667 0 61.667 -9.33301 87 -28s45.166 -45.167 59.499 -79.5s21.5 -73.833 21.5 -118.5c0 -40 -6.5 -77.5 -19.5 -112.5s-32.167 -63.167 -57.5 -84.5s-56 -32 -92 -32
c-26 0 -50.5 6.66699 -73.5 20s-40.833 32.666 -53.5 57.999v-276h-70v635zM336.002 94.502c20.667 33 31.001 72.498 31.001 118.498c0 34.667 -5 65 -15 91s-23.5 46 -40.5 60s-35.5 21 -55.5 21s-38.833 -7.16699 -56.5 -21.5s-31.834 -35.166 -42.501 -62.499
s-16 -59.666 -16 -96.999c0 -32.667 5.33301 -61 16 -85s24.5 -42.333 41.5 -55s35.5 -19 55.5 -19c34 0 61.333 16.5 82 49.5z" />
    <glyph glyph-name="q" unicode="q" horiz-adv-x="479" 
d="M335 54c-12.667 -23.333 -29.8311 -40.833 -51.498 -52.5s-44.834 -17.5 -69.501 -17.5c-34.667 0 -64.667 10.5 -90 31.5s-44.5 48.667 -57.5 83s-19.5 71.5 -19.5 111.5c0 70 18.167 126.167 54.5 168.5s85.166 63.5 146.499 63.5c30.667 0 63.667 -6 99 -18h58v-635
h-70v265zM283.003 59.5c16 11.667 28.833 28.166 38.5 49.499s14.5 46.333 14.5 75v183c-20.667 14.667 -48 22 -82 22c-42 0 -74.833 -15.667 -98.5 -47s-35.5 -76.333 -35.5 -135c0 -45.333 10.333 -84.166 31 -116.499s47.667 -48.5 81 -48.5c18 0 35 5.83301 51 17.5z
" />
    <glyph glyph-name="r" unicode="r" horiz-adv-x="310" 
d="M74 424l69.998 -0.000976562v-57c10.667 22.667 25.834 40.334 45.501 53.001s41.834 19 66.501 19c18 0 33 -2 45 -6v-59c-16 5.33301 -31 8 -45 8c-36.667 0 -64.5 -14.167 -83.5 -42.5s-28.5 -69.5 -28.5 -123.5v-216h-70v424z" />
    <glyph glyph-name="s" unicode="s" horiz-adv-x="364" 
d="M40 17l0.000976562 58.999c20 -10 42 -18.167 66 -24.5s46.667 -9.5 68 -9.5c25.333 0 45.333 5.33301 60 16s22 25.667 22 45c0 18.667 -7.66699 34.5 -23 47.5s-39 27.833 -71 44.5c-26 14 -47.167 26.5 -63.5 37.5s-30.166 24.5 -41.499 40.5s-17 35 -17 57
c0 34.667 14.667 62 44 82s63.333 30 102 30c43.333 0 82 -8 116 -24v-53c-16 7.33301 -33.833 13.333 -53.5 18s-38.5 7 -56.5 7c-22.667 0 -41.834 -5 -57.501 -15s-23.5 -24.333 -23.5 -43s7.5 -34.167 22.5 -46.5s38.833 -27.166 71.5 -44.499
c27.333 -14 49.166 -26.5 65.499 -37.5s30.333 -24.667 42 -41s17.5 -35.833 17.5 -58.5c0 -34 -13.667 -62 -41 -84s-63 -33 -107 -33c-52 0 -99.333 10 -142 30z" />
    <glyph glyph-name="t" unicode="t" horiz-adv-x="270" 
d="M238 1c-18.667 -8 -38.334 -12 -59.001 -12c-29.333 0 -52.166 8 -68.499 24s-24.5 40 -24.5 72v295h-55v44h55v127h70v-127h77v-44h-77v-274c0 -23.333 3 -39.833 9 -49.5s17.333 -14.5 34 -14.5c10 0 22 2 36 6z" />
    <glyph glyph-name="u" unicode="u" horiz-adv-x="488" 
d="M453 37l-0.000976562 -45.001c-6.66699 -2 -15.667 -3 -27 -3c-24 0 -42.667 5.83301 -56 17.5s-22.333 31.167 -27 58.5c-12.667 -24 -31.667 -43 -57 -57s-52.333 -21 -81 -21c-44 0 -77.667 14.333 -101 43s-35 72 -35 130v264h70v-250c0 -46.667 8 -80 24 -100
s37 -30 63 -30c32.667 0 59.834 15 81.501 45s32.5 72.333 32.5 127v208h70v-321c0 -23.333 2.66699 -40.166 8 -50.499s14 -15.5 26 -15.5h9z" />
    <glyph glyph-name="v" unicode="v" horiz-adv-x="409" 
d="M396 424l-154 -424h-75l-154 424h74l119 -348l120 348h70z" />
    <glyph glyph-name="w" unicode="w" horiz-adv-x="632" 
d="M619 424l-132 -424h-75l-93 271l-98 -271h-74l-134 424h73l100 -347l101 289l-20 58h68l115 -349l99 349h70z" />
    <glyph glyph-name="x" unicode="x" horiz-adv-x="391" 
d="M303 0l-110 170l-110 -170h-73l149 223l-131 201h77l95 -145l93 145h73l-131 -198l146 -226h-78z" />
    <glyph glyph-name="y" unicode="y" horiz-adv-x="412" 
d="M397 424l-164 -514.999c-14.667 -44 -32.167 -77.333 -52.5 -100s-46.833 -34 -79.5 -34c-24 0 -47 4.33301 -69 13v54c21.333 -8 41 -12 59 -12c20 0 36.667 7.16699 50 21.5s24.333 36.166 33 65.499l25 83h-43l-142 424h72l124 -389l117 389h70z" />
    <glyph glyph-name="z" unicode="z" horiz-adv-x="386" 
d="M368 52v-52h-358v32l259 341h-238v51h335v-31l-260 -341h262z" />
    <glyph glyph-name="braceleft" unicode="{" horiz-adv-x="244" 
d="M135 -195c-20.667 20 -31 52.332 -31 96.999v208c0 32.667 -6 58 -18 76s-29.667 27 -53 27v31c23.333 0 41 9 53 27s18 43.333 18 76v208c0 44.667 10.333 77 31 97s47.334 30 80.001 30h25v-31h-25c-23.333 0 -42.5 -7.5 -57.5 -22.5s-22.5 -39.5 -22.5 -73.5v-208
c0 -28.667 -4.33301 -53.167 -13 -73.5s-20.667 -35.166 -36 -44.499c15.333 -10 27.333 -25.333 36 -46s13 -45 13 -73v-208c0 -34 7.5 -58.5 22.5 -73.5s34.167 -22.5 57.5 -22.5h25v-31h-25c-32.667 0 -59.334 10 -80.001 30z" />
    <glyph glyph-name="bar" unicode="|" horiz-adv-x="252" 
d="M105 669h42v-894h-42v894z" />
    <glyph glyph-name="braceright" unicode="}" horiz-adv-x="244" 
d="M4 -194l25 0.000976562c23.333 0 42.5 7.5 57.5 22.5s22.5 39.5 22.5 73.5v208c0 28 4.33301 52.333 13 73s20.667 36 36 46c-15.333 9.33301 -27.333 24.166 -36 44.499s-13 44.833 -13 73.5v208c0 34 -7.5 58.5 -22.5 73.5s-34.167 22.5 -57.5 22.5h-25v31h25
c32.667 0 59.334 -10 80.001 -30s31 -52.333 31 -97v-208c0 -32.667 6 -58 18 -76s29.667 -27 53 -27v-31c-23.333 0 -41 -9 -53 -27s-18 -43.333 -18 -76v-208c0 -44.667 -10.333 -77 -31 -97s-47.334 -30 -80.001 -30h-25v31z" />
    <glyph glyph-name="asciitilde" unicode="~" horiz-adv-x="707" 
d="M118.5 13.5c-9 9 -13.5 19.833 -13.5 32.5v578c0 12.667 4.5 23.334 13.5 32.001s19.833 13 32.5 13h406c12.667 0 23.334 -4.33301 32.001 -13s13 -19.334 13 -32.001v-578c0 -12.667 -4.33301 -23.5 -13 -32.5s-19.334 -13.5 -32.001 -13.5h-406
c-12.667 0 -23.5 4.5 -32.5 13.5zM523 618h-338l169 -248zM329 335l-173 256v-511zM552 590l-174 -255l174 -256v511zM522 51l-168 248l-169 -248h337z" />
    <glyph glyph-name="exclamdown" unicode="&#xa1;" horiz-adv-x="230" 
d="M147.5 665c9 -9.33301 13.5 -20.333 13.5 -33s-4.5 -23.5 -13.5 -32.5s-19.833 -13.5 -32.5 -13.5s-23.5 4.5 -32.5 13.5s-13.5 19.833 -13.5 32.5s4.5 23.667 13.5 33s19.833 14 32.5 14s23.5 -4.66699 32.5 -14zM139 450c0 -43.333 1.50098 -89.8311 4.50098 -139.498
s6.16699 -95.5 9.5 -137.5c5.33301 -73.333 8 -118 8 -134c0 -14.667 -4.16699 -27.334 -12.5 -38.001s-19.5 -16 -33.5 -16c-14.667 0 -26 5.16699 -34 15.5s-12 23.166 -12 38.499c0 16.667 2.66699 66.334 8 149.001c7.33301 113.333 11.666 200.666 12.999 261.999v20
h49v-20z" />
    <glyph glyph-name="cent" unicode="&#xa2;" horiz-adv-x="391" 
d="M359 4c-20 -8 -46.665 -13.333 -79.998 -16v-147h-65v149c-52 8 -93.5 31.5 -124.5 70.5s-46.5 90.5 -46.5 154.5c0 63.333 16.167 115 48.5 155s73.166 63.333 122.499 70v154l65 -20v-134c24.667 -2.66699 48.667 -9 72 -19v-55c-32 12.667 -62.667 19 -92 19
c-42 0 -76.167 -15.5 -102.5 -46.5s-39.5 -73.167 -39.5 -126.5c0 -54 13.667 -95.5 41 -124.5s63 -43.5 107 -43.5c31.333 0 62.666 5.33301 93.999 16v-56z" />
    <glyph glyph-name="sterling" unicode="&#xa3;" horiz-adv-x="522" 
d="M485 59v-59h-339v310h-115v60h115v299h76v-299h180l-20 -60h-160v-251h263z" />
    <glyph glyph-name="yen" unicode="&#xa5;" horiz-adv-x="503" 
d="M314 296h130l-20 -60h-134v-236h-76v236h-141v60h115l-173 373h83l156 -346l157 346h77z" />
    <glyph glyph-name="brokenbar" unicode="&#xa6;" horiz-adv-x="252" 
d="M105 669h42v-420h-42v420zM105 195h42v-420h-42v420z" />
    <glyph glyph-name="section" unicode="&#xa7;" horiz-adv-x="507" 
d="M443 22c12.667 -21.333 19 -43.333 19 -66c0 -42.667 -16.5 -78.167 -49.5 -106.5s-80.167 -42.5 -141.5 -42.5c-27.333 0 -56.333 3.66699 -87 11v64c32.667 -8.66699 64.334 -13 95.001 -13c34 0 59.833 7 77.5 21s26.5 31.667 26.5 53c0 18 -4 33 -12 45
s-24.333 24.667 -49 38l-182 97c-36 18.667 -60.833 40 -74.5 64s-20.5 50.667 -20.5 80c0 27.333 6.83301 53.5 20.5 78.5s32.5 45.833 56.5 62.5c-26 16.667 -45.333 35.667 -58 57s-19 43.333 -19 66c0 42.667 16.5 78.167 49.5 106.5s80.167 42.5 141.5 42.5
c27.333 0 56.333 -3.66699 87 -11v-64c-32.667 8.66699 -64.334 13 -95.001 13c-34 0 -59.833 -7 -77.5 -21s-26.5 -31.667 -26.5 -53c0 -18 4 -33 12 -45s24.333 -24.667 49 -38l182 -97c36 -18.667 60.833 -40 74.5 -64s20.5 -50.667 20.5 -80
c0 -27.333 -6.83301 -53.5 -20.5 -78.5s-32.5 -45.833 -56.5 -62.5c26 -16.667 45.333 -35.667 58 -57zM132 232.5c8.66699 -14.333 26.334 -28.833 53.001 -43.5l146 -80c17.333 12.667 31.166 27.167 41.499 43.5s15.5 33.166 15.5 50.499c0 20 -4.33301 37.167 -13 51.5
s-26.334 28.833 -53.001 43.5l-146 80c-17.333 -12.667 -31.166 -27.167 -41.499 -43.5s-15.5 -33.166 -15.5 -50.499c0 -20 4.33301 -37.167 13 -51.5z" />
    <glyph glyph-name="dieresis" unicode="&#xa8;" horiz-adv-x="343" 
d="M59 574.5c-9.33301 9.66699 -14 21.167 -14 34.5s4.66699 24.833 14 34.5s20.333 14.5 33 14.5s23.667 -4.83301 33 -14.5s14 -21.167 14 -34.5s-4.66699 -24.833 -14 -34.5s-20.333 -14.5 -33 -14.5s-23.667 4.83301 -33 14.5zM218 574.5
c-9.33301 9.66699 -14 21.167 -14 34.5s4.66699 24.833 14 34.5s20.333 14.5 33 14.5s23.667 -4.83301 33 -14.5s14 -21.167 14 -34.5s-4.66699 -24.833 -14 -34.5s-20.333 -14.5 -33 -14.5s-23.667 4.83301 -33 14.5z" />
    <glyph glyph-name="copyright" unicode="&#xa9;" horiz-adv-x="809" 
d="M232 36.5c-52.667 31 -94.5 73 -125.5 126s-46.5 110.5 -46.5 172.5s15.5 119.333 46.5 172s72.833 94.5 125.5 125.5s110 46.5 172 46.5s119.5 -15.5 172.5 -46.5s95 -72.833 126 -125.5s46.5 -110 46.5 -172s-15.5 -119.5 -46.5 -172.5s-73 -95 -126 -126
s-110.5 -46.5 -172.5 -46.5s-119.333 15.5 -172 46.5zM559.5 66.5c47.667 27.667 85.334 65.167 113.001 112.5s41.5 99.333 41.5 156c0 56 -13.833 107.667 -41.5 155s-65.334 84.833 -113.001 112.5s-99.5 41.5 -155.5 41.5s-107.667 -13.833 -155 -41.5
s-84.833 -65.167 -112.5 -112.5s-41.5 -99 -41.5 -155c0 -56.667 13.833 -108.667 41.5 -156s65.167 -84.833 112.5 -112.5s99 -41.5 155 -41.5s107.833 13.833 155.5 41.5zM313 144c-30 16.667 -53.6689 41.1689 -71.002 73.502s-26 71.166 -26 116.499
c0 44.667 8.5 83.5 25.5 116.5s39.833 58.167 68.5 75.5s60.667 26 96 26c36 0 70.333 -6.66699 103 -20v-52c-31.333 12 -60.333 18 -87 18c-40 0 -72.5 -14.833 -97.5 -44.5s-37.5 -69.834 -37.5 -120.501c0 -51.333 13 -90.833 39 -118.5s60 -41.5 102 -41.5
c29.333 0 59 5 89 15v-53c-13.333 -5.33301 -29.166 -9.33301 -47.499 -12s-36.166 -4 -53.499 -4c-38.667 0 -73 8.33301 -103 25z" />
    <glyph glyph-name="ordfeminine" unicode="&#xaa;" horiz-adv-x="315" 
d="M299 394v-37.001c-13.333 -4 -23.333 -6 -30 -6c-15.333 0 -29 3.66699 -41 11s-19 19.333 -21 36c-8 -16.667 -20.5 -29 -37.5 -37s-35.833 -12 -56.5 -12c-26 0 -48.167 7.5 -66.5 22.5s-27.5 35.833 -27.5 62.5c0 40.667 18.667 69.334 56 86.001
s80.333 25.334 129 26.001v21c0 19.333 -6 33.666 -18 42.999s-28 14 -48 14c-15.333 0 -31.5 -2.83301 -48.5 -8.5s-33.5 -13.834 -49.5 -24.501v55c32.667 19.333 67 29 103 29c40 0 71 -8.83301 93 -26.5s33 -44.5 33 -80.5v-131c0 -15.333 1.5 -26.666 4.5 -33.999
s8.5 -11 16.5 -11c2 0 5 0.666992 9 2zM204 507.999c-42.667 -0.666992 -72.333 -6.16797 -89 -16.501s-25 -27.833 -25 -52.5c0 -13.333 3.83301 -23.666 11.5 -30.999s17.167 -11 28.5 -11c18.667 0 35.667 7.66699 51 23s23 36.333 23 63v25z" />
    <glyph glyph-name="guillemotleft" unicode="&#xab;" horiz-adv-x="382" 
d="M19 215l148 191l25 -19l-134 -172l145 -176l-26 -19zM142 215l148 191l25 -19l-135 -172l146 -176l-26 -19z" />
    <glyph glyph-name="logicalnot" unicode="&#xac;" horiz-adv-x="528" 
d="M436 331h-405v47h452v-172h-47v125z" />
    <glyph glyph-name="registered" unicode="&#xae;" horiz-adv-x="809" 
d="M232 36.5c-52.667 31 -94.5 73 -125.5 126s-46.5 110.5 -46.5 172.5s15.5 119.333 46.5 172s72.833 94.5 125.5 125.5s110 46.5 172 46.5s119.5 -15.5 172.5 -46.5s95 -72.833 126 -125.5s46.5 -110 46.5 -172s-15.5 -119.5 -46.5 -172.5s-73 -95 -126 -126
s-110.5 -46.5 -172.5 -46.5s-119.333 15.5 -172 46.5zM559.5 66.5c47.667 27.667 85.334 65.167 113.001 112.5s41.5 99.333 41.5 156c0 56 -13.833 107.667 -41.5 155s-65.334 84.833 -113.001 112.5s-99.5 41.5 -155.5 41.5s-107.667 -13.833 -155 -41.5
s-84.833 -65.167 -112.5 -112.5s-41.5 -99 -41.5 -155c0 -56.667 13.833 -108.667 41.5 -156s65.167 -84.833 112.5 -112.5s99 -41.5 155 -41.5s107.833 13.833 155.5 41.5zM270 557l114 0.000976562c49.333 0 88.333 -10 117 -30s43 -48 43 -84
c0 -30.667 -8 -55.834 -24 -75.501s-38 -33.5 -66 -41.5l135 -200h-87l-116 193h-47v-193h-69v431zM390 371.001c30 0 52.167 6.50098 66.5 19.501s21.5 29.167 21.5 48.5c0 21.333 -8 38.166 -24 50.499s-38.333 18.5 -67 18.5h-48v-137h51z" />
    <glyph glyph-name="macron" unicode="&#xaf;" horiz-adv-x="319" 
d="M54 622h220l-9 -49h-220z" />
    <glyph glyph-name="degree" unicode="&#xb0;" horiz-adv-x="320" 
d="M91.5 426.5c-21 12.333 -37.667 29 -50 50s-18.5 43.833 -18.5 68.5s6.16699 47.5 18.5 68.5s29 37.667 50 50s43.833 18.5 68.5 18.5s47.5 -6.16699 68.5 -18.5s37.667 -29 50 -50s18.5 -43.833 18.5 -68.5s-6.16699 -47.5 -18.5 -68.5s-29 -37.667 -50 -50
s-43.833 -18.5 -68.5 -18.5s-47.5 6.16699 -68.5 18.5zM229 476.5c18.667 19 28 41.833 28 68.5c0 27.333 -9.33301 50.333 -28 69s-41.667 28 -69 28c-26.667 0 -49.5 -9.33301 -68.5 -28s-28.5 -41.667 -28.5 -69c0 -26.667 9.5 -49.5 28.5 -68.5s41.833 -28.5 68.5 -28.5
c27.333 0 50.333 9.5 69 28.5z" />
    <glyph glyph-name="plusminus" unicode="&#xb1;" horiz-adv-x="506" 
d="M230 321h-185v48h185v185h48v-185h183v-48h-183l-1 -183h-47v183zM45 99h416v-46h-416v46z" />
    <glyph glyph-name="uni00B2" unicode="&#xb2;" horiz-adv-x="296" 
d="M23 336c66 56 111.833 99.668 137.5 131.001s38.5 62 38.5 92c0 21.333 -5.83301 38 -17.5 50s-26.834 18 -45.501 18c-31.333 0 -64 -8.33301 -98 -25v52c38.667 14.667 73.667 22 105 22c36.667 0 66.167 -9.33301 88.5 -28s33.5 -44.334 33.5 -77.001
c0 -36 -12.167 -72 -36.5 -108s-60.166 -74.333 -107.499 -115h155v-53h-253v41z" />
    <glyph glyph-name="uni00B3" unicode="&#xb3;" horiz-adv-x="291" 
d="M25 306l-0.00195312 57.001c30.667 -16 62.667 -24 96 -24c23.333 0 42.5 5.33301 57.5 16s22.5 26 22.5 46c0 18.667 -7.66699 34.667 -23 48s-39 20.666 -71 21.999h-4v47h4c24.667 0 43.667 5.66699 57 17s20 24.333 20 39c0 16 -5.83301 28.167 -17.5 36.5
s-26.834 12.5 -45.501 12.5c-30 0 -61 -7.66699 -93 -23v52c32.667 15.333 66.334 23 101.001 23c38.667 0 68 -8.66699 88 -26s30 -37.666 30 -60.999c0 -22 -6.33301 -41.5 -19 -58.5s-29 -27.833 -49 -32.5c26.667 -4.66699 47.834 -16.334 63.501 -35.001
s23.5 -40 23.5 -64c0 -32 -12.167 -58.333 -36.5 -79s-59.166 -31 -104.499 -31c-30.667 0 -64 6 -100 18z" />
    <glyph glyph-name="acute" unicode="&#xb4;" horiz-adv-x="263" 
d="M218 686v-88l-124 -85h-49z" />
    <glyph glyph-name="uni00B5" unicode="&#xb5;" horiz-adv-x="493" 
d="M458 37l-0.000976562 -45.001c-6.66699 -2 -15.667 -3 -27 -3c-24 0 -42.667 5.83301 -56 17.5s-22.333 31.167 -27 58.5c-12.667 -24 -31.667 -43 -57 -57s-52.333 -21 -81 -21c-24 0 -46 4.66699 -66 14v-213h-70v636h70v-250c0 -46.667 8 -80 24 -100s37 -30 63 -30
c32.667 0 59.834 15 81.501 45s32.5 72.333 32.5 127v208h70v-321c0 -23.333 2.66699 -40.166 8 -50.499s14 -15.5 26 -15.5h9z" />
    <glyph glyph-name="paragraph" unicode="&#xb6;" horiz-adv-x="582" 
d="M295 -197c32 8 59.5 28.666 82.5 61.999s34.5 77 34.5 131v644h-58v-588c0 -51.333 -4.33301 -91.5 -13 -120.5s-24 -51.833 -46 -68.5l3 361h-15c-44 0 -85 8.33301 -123 25s-68.667 41.834 -92 75.501s-35 74.5 -35 122.5s11.667 88.667 35 122s54 58.333 92 75
s79 25 123 25h197v-612c0 -45.333 -3.16699 -83.333 -9.5 -114s-19.5 -58.5 -39.5 -83.5s-50 -45.833 -90 -62.5c-18.667 -7.33301 -34 -12.333 -46 -15v21z" />
    <glyph glyph-name="periodcentered" unicode="&#xb7;" horiz-adv-x="204" 
d="M65 178.5c-10 10.333 -15 23.168 -15 38.501s5 28.333 15 39s22.333 16 37 16c14 0 26.167 -5.33301 36.5 -16s15.5 -23.667 15.5 -39c0 -14.667 -5.16699 -27.334 -15.5 -38.001s-22.5 -16 -36.5 -16c-14.667 0 -27 5.16699 -37 15.5z" />
    <glyph glyph-name="cedilla" unicode="&#xb8;" horiz-adv-x="245" 
d="M45 -181l17.001 27.999c16.667 -11.333 32 -17 46 -17s24.833 4.16699 32.5 12.5s11.5 18.5 11.5 30.5c0 11.333 -3.16699 21.5 -9.5 30.5s-15.833 13.5 -28.5 13.5c-7.33301 0 -17 -3 -29 -9l-19 25l63 67h31l-52 -54c7.33301 2 14.666 3 21.999 3
c14.667 0 30 -5.66699 46 -17s24 -30.333 24 -57c0 -23.333 -8.5 -42.666 -25.5 -57.999s-37.833 -23 -62.5 -23c-22.667 0 -45 8.33301 -67 25z" />
    <glyph glyph-name="uni00B9" unicode="&#xb9;" horiz-adv-x="186" 
d="M91 625l-78 -3v33l143 17v-374h-65v327z" />
    <glyph glyph-name="ordmasculine" unicode="&#xba;" horiz-adv-x="340" 
d="M63.5 396c-27 29.333 -40.501 68.666 -40.501 117.999c0 48.667 13.5 87.5 40.5 116.5s62.167 43.5 105.5 43.5c42.667 0 77.834 -14.5 105.501 -43.5s41.834 -67.833 42.501 -116.5c-0.666992 -49.333 -14.334 -88.666 -41.001 -117.999s-62 -44 -106 -44
s-79.5 14.667 -106.5 44zM224.999 428c14.667 19.333 21.999 48 21.999 86c0 36.667 -7.33301 64.5 -22 83.5s-33 28.5 -55 28.5c-23.333 0 -42.166 -9.5 -56.499 -28.5s-21.5 -46.833 -21.5 -83.5c0 -37.333 7 -65.833 21 -85.5s32.333 -29.5 55 -29.5
c23.333 0 42.333 9.66699 57 29z" />
    <glyph glyph-name="guillemotright" unicode="&#xbb;" horiz-adv-x="382" 
d="M56 39l145 176l-134 172l25 19l148 -191l-158 -195zM179 39l145 176l-135 172l25 19l149 -191l-159 -195z" />
    <glyph glyph-name="onequarter" unicode="&#xbc;" horiz-adv-x="611" 
d="M516 704h45l-496 -749h-45zM125 623l-78 -3v33l143 17v-374h-65v327zM493 91h-188v27l116 257h63l-109 -240h118v130l62 17v-282h-62v91z" />
    <glyph glyph-name="onehalf" unicode="&#xbd;" horiz-adv-x="656" 
d="M516 704h45l-496 -749h-45zM125 623l-78 -3v33l143 17v-374h-65v327zM363 41c48 42 83.667 74.668 107 98.001s41.333 45.166 54 65.499s19 40.5 19 60.5c0 22 -5 38 -15 48s-26 15 -48 15c-29.333 0 -61 -8.33301 -95 -25v56c38.667 14.667 72.667 22 102 22
c36.667 0 66.167 -9.33301 88.5 -28s33.5 -44.334 33.5 -77.001c0 -36.667 -11.5 -72.667 -34.5 -108s-57.833 -72.666 -104.5 -111.999h155v-56h-262v41z" />
    <glyph glyph-name="threequarters" unicode="&#xbe;" horiz-adv-x="678" 
d="M586 704h45l-496 -749h-45zM40 307l-0.00195312 59.001c30.667 -16 62.667 -24 96 -24c24 0 43.333 5 58 15s22 25 22 45c0 18.667 -7.66699 34.667 -23 48s-39 20.666 -71 21.999h-4v47h4c24.667 0 43.667 5.66699 57 17s20 24.333 20 39
c0 16 -5.83301 27.833 -17.5 35.5s-26.834 11.5 -45.501 11.5c-30 0 -61 -7.66699 -93 -23v54c32.667 15.333 66.334 23 101.001 23c38.667 0 68 -8.66699 88 -26s30 -37.666 30 -60.999c0 -22 -6.33301 -41.5 -19 -58.5s-29 -27.833 -49 -32.5
c26.667 -4.66699 47.834 -16.334 63.501 -35.001s23.5 -40 23.5 -64c0 -32 -12.167 -58.333 -36.5 -79s-59.166 -31 -104.499 -31c-30.667 0 -64 6 -100 18zM568.998 91.001h-188v27l116 257h63l-109 -240h118v130l62 17v-282h-62v91z" />
    <glyph glyph-name="questiondown" unicode="&#xbf;" horiz-adv-x="396" 
d="M270.5 668c9 -9.33301 13.5 -20.333 13.5 -33s-4.5 -23.5 -13.5 -32.5s-19.833 -13.5 -32.5 -13.5s-23.5 4.5 -32.5 13.5s-13.5 19.833 -13.5 32.5s4.5 23.667 13.5 33s19.833 14 32.5 14s23.5 -4.66699 32.5 -14zM275 459c0 -31.333 -4.00098 -58.668 -12.001 -82.001
s-17.5 -42.666 -28.5 -57.999s-25.5 -33 -43.5 -53c-22 -24 -38.333 -45 -49 -63s-16 -40.333 -16 -67c0 -28.667 10.167 -51.334 30.5 -68.001s45.5 -25 75.5 -25c42 0 84.667 12.333 128 37v-59c-43.333 -24 -90 -36 -140 -36c-48.667 0 -89.5 12.833 -122.5 38.5
s-49.5 62.834 -49.5 111.501c0 33.333 6.33301 61 19 83s31.334 46 56.001 72c22.667 23.333 39.667 42 51 56s21 31.333 29 52s12 45.667 12 75h60v-14z" />
    <glyph glyph-name="Agrave" unicode="&#xc0;" horiz-adv-x="578" 
d="M405 196h-236l-57 -196h-77l206 669h94l208 -669h-81zM389 249l-100 345h-4l-100 -345h204zM181 798v88l174 -173h-49z" />
    <glyph glyph-name="Aacute" unicode="&#xc1;" horiz-adv-x="578" 
d="M405 196h-236l-57 -196h-77l206 669h94l208 -669h-81zM389 249l-100 345h-4l-100 -345h204zM398 886v-88l-125 -85h-49z" />
    <glyph glyph-name="Acircumflex" unicode="&#xc2;" horiz-adv-x="578" 
d="M405 196h-236l-57 -196h-77l206 669h94l208 -669h-81zM389 249l-100 345h-4l-100 -345h204zM269 859h39l124 -146h-49l-94 85l-95 -85h-49z" />
    <glyph glyph-name="Atilde" unicode="&#xc3;" horiz-adv-x="578" 
d="M405 196h-236l-57 -196h-77l206 669h94l208 -669h-81zM389 249l-100 345h-4l-100 -345h204zM139 769c9.33301 22 22.1641 39.833 38.4971 53.5s35.833 20.5 58.5 20.5c12.667 0 24.5 -2.16699 35.5 -6.5s24.833 -10.833 41.5 -19.5c12 -7.33301 22.333 -12.833 31 -16.5
s17.667 -5.5 27 -5.5c12.667 0 23.667 4.16699 33 12.5s16 18.833 20 31.5l14 -31c-21.333 -44 -52.666 -66 -93.999 -66c-12 0 -23.167 1.83301 -33.5 5.5s-19.666 7.66699 -27.999 12l-16.5 8.5c-24 14 -43 21 -57 21c-13.333 0 -24.666 -4.33301 -33.999 -13
s-16 -20 -20 -34z" />
    <glyph glyph-name="Adieresis" unicode="&#xc4;" horiz-adv-x="578" 
d="M405 196h-236l-57 -196h-77l206 669h94l208 -669h-81zM389 249l-100 345h-4l-100 -345h204zM177 774.5c-9.33301 9.66699 -14 21.167 -14 34.5s4.66699 24.833 14 34.5s20.333 14.5 33 14.5s23.667 -4.83301 33 -14.5s14 -21.167 14 -34.5s-4.66699 -24.833 -14 -34.5
s-20.333 -14.5 -33 -14.5s-23.667 4.83301 -33 14.5zM336 774.5c-9.33301 9.66699 -14 21.167 -14 34.5s4.66699 24.833 14 34.5s20.333 14.5 33 14.5s23.667 -4.83301 33 -14.5s14 -21.167 14 -34.5s-4.66699 -24.833 -14 -34.5s-20.333 -14.5 -33 -14.5
s-23.667 4.83301 -33 14.5z" />
    <glyph glyph-name="Aring" unicode="&#xc5;" horiz-adv-x="578" 
d="M405 196h-236l-57 -196h-77l206 669h94l208 -669h-81zM389 249l-100 345h-4l-100 -345h204zM224 743.5c-18 17 -27 37.833 -27 62.5c0 24 9 44.667 27 62s39.667 26 65 26s47 -8.66699 65 -26s27 -38 27 -62c0 -24.667 -9 -45.5 -27 -62.5s-39.667 -25.5 -65 -25.5
s-47 8.5 -65 25.5zM320.5 767c8.33301 10.667 12.5 23.667 12.5 39s-4.16699 28.333 -12.5 39s-18.833 16 -31.5 16s-23.167 -5.33301 -31.5 -16s-12.5 -23.667 -12.5 -39s4.16699 -28.333 12.5 -39s18.833 -16 31.5 -16s23.167 5.33301 31.5 16z" />
    <glyph glyph-name="AE" unicode="&#xc6;" horiz-adv-x="880" 
d="M835 59v-59h-371v196h-234l-118 -196h-77l411 669h377v-54h-283l1 -236h210v-53h-209l1 -267h292zM464 249v327h-4l-198 -327h202z" />
    <glyph glyph-name="Ccedilla" unicode="&#xc7;" horiz-adv-x="549" 
d="M203 553c-39.333 -44.667 -58.9971 -117.333 -58.9971 -218c0 -102 19.833 -175 59.5 -219s91.834 -66 156.501 -66c22 0 45.167 3.16699 69.5 9.5s46.166 14.5 65.499 24.5v-66c-16.667 -7.33301 -36.834 -13.833 -60.501 -19.5s-46.167 -8.83398 -67.5 -9.50098
l-42 -43c6.66699 2 14 3 22 3c14.667 0 30 -5.66699 46 -17s24 -30.333 24 -57c0 -23.333 -8.5 -42.666 -25.5 -57.999s-37.833 -23 -62.5 -23c-22.667 0 -45 8.33301 -67 25l17 28c16.667 -11.333 32 -17 46 -17s24.833 4.16699 32.5 12.5s11.5 18.5 11.5 30.5
c0 11.333 -3.16699 21.5 -9.5 30.5s-15.833 13.5 -28.5 13.5c-7.33301 0 -17 -3 -29 -9l-19 25l53 57c-89.333 4 -157.166 37.5 -203.499 100.5s-69.5 143.5 -69.5 241.5c0 66 10.333 125.167 31 177.5s52.667 94 96 125s97.666 46.5 162.999 46.5
c23.333 0 48.166 -2.66699 74.499 -8s48.833 -12.333 67.5 -21v-66c-19.333 10.667 -41.333 19 -66 25s-48.334 9 -71.001 9c-64 0 -115.667 -22.333 -155 -67z" />
    <glyph glyph-name="Egrave" unicode="&#xc8;" horiz-adv-x="521" 
d="M476 59v-59h-371v669h359v-54h-283v-236h211v-53h-211v-267h295zM174 798v88l174 -173h-49z" />
    <glyph glyph-name="Eacute" unicode="&#xc9;" horiz-adv-x="521" 
d="M476 59v-59h-371v669h359v-54h-283v-236h211v-53h-211v-267h295zM391 886v-88l-125 -85h-49z" />
    <glyph glyph-name="Ecircumflex" unicode="&#xca;" horiz-adv-x="521" 
d="M476 59v-59h-371v669h359v-54h-283v-236h211v-53h-211v-267h295zM262 859h39l124 -146h-49l-94 85l-95 -85h-49z" />
    <glyph glyph-name="Edieresis" unicode="&#xcb;" horiz-adv-x="521" 
d="M476 59v-59h-371v669h359v-54h-283v-236h211v-53h-211v-267h295zM170 774.5c-9.33301 9.66699 -14 21.167 -14 34.5s4.66699 24.833 14 34.5s20.333 14.5 33 14.5s23.667 -4.83301 33 -14.5s14 -21.167 14 -34.5s-4.66699 -24.833 -14 -34.5s-20.333 -14.5 -33 -14.5
s-23.667 4.83301 -33 14.5zM329 774.5c-9.33301 9.66699 -14 21.167 -14 34.5s4.66699 24.833 14 34.5s20.333 14.5 33 14.5s23.667 -4.83301 33 -14.5s14 -21.167 14 -34.5s-4.66699 -24.833 -14 -34.5s-20.333 -14.5 -33 -14.5s-23.667 4.83301 -33 14.5z" />
    <glyph glyph-name="Igrave" unicode="&#xcc;" horiz-adv-x="286" 
d="M105 669h76v-669h-76v669zM35 798v88l174 -173h-49z" />
    <glyph glyph-name="Iacute" unicode="&#xcd;" horiz-adv-x="286" 
d="M105 669h76v-669h-76v669zM252 886v-88l-125 -85h-49z" />
    <glyph glyph-name="Icircumflex" unicode="&#xce;" horiz-adv-x="286" 
d="M105 669h76v-669h-76v669zM123 859h39l124 -146h-49l-94 85l-95 -85h-49z" />
    <glyph glyph-name="Idieresis" unicode="&#xcf;" horiz-adv-x="286" 
d="M105 669h76v-669h-76v669zM31 774.5c-9.33301 9.66699 -14 21.167 -14 34.5s4.66699 24.833 14 34.5s20.333 14.5 33 14.5s23.667 -4.83301 33 -14.5s14 -21.167 14 -34.5s-4.66699 -24.833 -14 -34.5s-20.333 -14.5 -33 -14.5s-23.667 4.83301 -33 14.5zM190 774.5
c-9.33301 9.66699 -14 21.167 -14 34.5s4.66699 24.833 14 34.5s20.333 14.5 33 14.5s23.667 -4.83301 33 -14.5s14 -21.167 14 -34.5s-4.66699 -24.833 -14 -34.5s-20.333 -14.5 -33 -14.5s-23.667 4.83301 -33 14.5z" />
    <glyph glyph-name="Eth" unicode="&#xd0;" horiz-adv-x="647" 
d="M88.5 13.5c-9 9 -13.5 19.833 -13.5 32.5v578c0 12.667 4.5 23.334 13.5 32.001s19.833 13 32.5 13h406c12.667 0 23.334 -4.33301 32.001 -13s13 -19.334 13 -32.001v-578c0 -12.667 -4.33301 -23.5 -13 -32.5s-19.334 -13.5 -32.001 -13.5h-406
c-12.667 0 -23.5 4.5 -32.5 13.5zM493 618h-338l169 -248zM299 335l-173 256v-511zM522 590l-174 -255l174 -256v511zM492 51l-168 248l-169 -248h337z" />
    <glyph glyph-name="Ntilde" unicode="&#xd1;" 
d="M105 669h85l290 -561v561h69v-669h-87l-288 553v-553h-69v669zM183 769c9.33301 22 22.1641 39.833 38.4971 53.5s35.833 20.5 58.5 20.5c12.667 0 24.5 -2.16699 35.5 -6.5s24.833 -10.833 41.5 -19.5c12 -7.33301 22.333 -12.833 31 -16.5s17.667 -5.5 27 -5.5
c12.667 0 23.667 4.16699 33 12.5s16 18.833 20 31.5l14 -31c-21.333 -44 -52.666 -66 -93.999 -66c-12 0 -23.167 1.83301 -33.5 5.5s-19.666 7.66699 -27.999 12l-16.5 8.5c-24 14 -43 21 -57 21c-13.333 0 -24.666 -4.33301 -33.999 -13s-16 -20 -20 -34z" />
    <glyph glyph-name="Ograve" unicode="&#xd2;" 
d="M184.5 30c-40.333 28.667 -71.166 69.167 -92.499 121.5s-32 113.5 -32 183.5s10.667 131 32 183s52.166 92.333 92.499 121s87.833 43 142.5 43s102.167 -14.333 142.5 -43s71.166 -69 92.499 -121s32 -113 32 -183s-10.667 -131.167 -32 -183.5
s-52.166 -92.833 -92.499 -121.5s-87.833 -43 -142.5 -43s-102.167 14.333 -142.5 43zM464.5 123.5c32.333 50.333 48.5 120.833 48.5 211.5s-16.167 161.167 -48.5 211.5s-78.166 75.5 -137.499 75.5s-105.166 -25.333 -137.499 -76s-48.5 -121 -48.5 -211
s16.167 -160.333 48.5 -211s78.166 -76 137.499 -76s105.166 25.167 137.499 75.5zM219 798v88l174 -173h-49z" />
    <glyph glyph-name="Oacute" unicode="&#xd3;" 
d="M184.5 30c-40.333 28.667 -71.166 69.167 -92.499 121.5s-32 113.5 -32 183.5s10.667 131 32 183s52.166 92.333 92.499 121s87.833 43 142.5 43s102.167 -14.333 142.5 -43s71.166 -69 92.499 -121s32 -113 32 -183s-10.667 -131.167 -32 -183.5
s-52.166 -92.833 -92.499 -121.5s-87.833 -43 -142.5 -43s-102.167 14.333 -142.5 43zM464.5 123.5c32.333 50.333 48.5 120.833 48.5 211.5s-16.167 161.167 -48.5 211.5s-78.166 75.5 -137.499 75.5s-105.166 -25.333 -137.499 -76s-48.5 -121 -48.5 -211
s16.167 -160.333 48.5 -211s78.166 -76 137.499 -76s105.166 25.167 137.499 75.5zM436 886v-88l-125 -85h-49z" />
    <glyph glyph-name="Ocircumflex" unicode="&#xd4;" 
d="M184.5 30c-40.333 28.667 -71.166 69.167 -92.499 121.5s-32 113.5 -32 183.5s10.667 131 32 183s52.166 92.333 92.499 121s87.833 43 142.5 43s102.167 -14.333 142.5 -43s71.166 -69 92.499 -121s32 -113 32 -183s-10.667 -131.167 -32 -183.5
s-52.166 -92.833 -92.499 -121.5s-87.833 -43 -142.5 -43s-102.167 14.333 -142.5 43zM464.5 123.5c32.333 50.333 48.5 120.833 48.5 211.5s-16.167 161.167 -48.5 211.5s-78.166 75.5 -137.499 75.5s-105.166 -25.333 -137.499 -76s-48.5 -121 -48.5 -211
s16.167 -160.333 48.5 -211s78.166 -76 137.499 -76s105.166 25.167 137.499 75.5zM307 859h39l124 -146h-49l-94 85l-95 -85h-49z" />
    <glyph glyph-name="Otilde" unicode="&#xd5;" 
d="M184.5 30c-40.333 28.667 -71.166 69.167 -92.499 121.5s-32 113.5 -32 183.5s10.667 131 32 183s52.166 92.333 92.499 121s87.833 43 142.5 43s102.167 -14.333 142.5 -43s71.166 -69 92.499 -121s32 -113 32 -183s-10.667 -131.167 -32 -183.5
s-52.166 -92.833 -92.499 -121.5s-87.833 -43 -142.5 -43s-102.167 14.333 -142.5 43zM464.5 123.5c32.333 50.333 48.5 120.833 48.5 211.5s-16.167 161.167 -48.5 211.5s-78.166 75.5 -137.499 75.5s-105.166 -25.333 -137.499 -76s-48.5 -121 -48.5 -211
s16.167 -160.333 48.5 -211s78.166 -76 137.499 -76s105.166 25.167 137.499 75.5zM177 769c9.33301 22 22.1641 39.833 38.4971 53.5s35.833 20.5 58.5 20.5c12.667 0 24.5 -2.16699 35.5 -6.5s24.833 -10.833 41.5 -19.5c12 -7.33301 22.333 -12.833 31 -16.5
s17.667 -5.5 27 -5.5c12.667 0 23.667 4.16699 33 12.5s16 18.833 20 31.5l14 -31c-21.333 -44 -52.666 -66 -93.999 -66c-12 0 -23.167 1.83301 -33.5 5.5s-19.666 7.66699 -27.999 12l-16.5 8.5c-24 14 -43 21 -57 21c-13.333 0 -24.666 -4.33301 -33.999 -13
s-16 -20 -20 -34z" />
    <glyph glyph-name="Odieresis" unicode="&#xd6;" 
d="M184.5 30c-40.333 28.667 -71.166 69.167 -92.499 121.5s-32 113.5 -32 183.5s10.667 131 32 183s52.166 92.333 92.499 121s87.833 43 142.5 43s102.167 -14.333 142.5 -43s71.166 -69 92.499 -121s32 -113 32 -183s-10.667 -131.167 -32 -183.5
s-52.166 -92.833 -92.499 -121.5s-87.833 -43 -142.5 -43s-102.167 14.333 -142.5 43zM464.5 123.5c32.333 50.333 48.5 120.833 48.5 211.5s-16.167 161.167 -48.5 211.5s-78.166 75.5 -137.499 75.5s-105.166 -25.333 -137.499 -76s-48.5 -121 -48.5 -211
s16.167 -160.333 48.5 -211s78.166 -76 137.499 -76s105.166 25.167 137.499 75.5zM215 774.5c-9.33301 9.66699 -14 21.167 -14 34.5s4.66699 24.833 14 34.5s20.333 14.5 33 14.5s23.667 -4.83301 33 -14.5s14 -21.167 14 -34.5s-4.66699 -24.833 -14 -34.5
s-20.333 -14.5 -33 -14.5s-23.667 4.83301 -33 14.5zM374 774.5c-9.33301 9.66699 -14 21.167 -14 34.5s4.66699 24.833 14 34.5s20.333 14.5 33 14.5s23.667 -4.83301 33 -14.5s14 -21.167 14 -34.5s-4.66699 -24.833 -14 -34.5s-20.333 -14.5 -33 -14.5
s-23.667 4.83301 -33 14.5z" />
    <glyph glyph-name="multiply" unicode="&#xd7;" horiz-adv-x="454" 
d="M45 81l148 148l-147 148l34 35l148 -149l148 147l33 -33l-147 -148l147 -148l-34 -34l-148 147l-148 -147z" />
    <glyph glyph-name="Oslash" unicode="&#xd8;" 
d="M612 642l-70.999 -82c35.333 -58.667 53 -133.667 53 -225c0 -70 -10.667 -131.167 -32 -183.5s-52.166 -92.833 -92.499 -121.5s-87.833 -43 -142.5 -43c-41.333 0 -78.833 8.5 -112.5 25.5s-62.167 41.167 -85.5 72.5l-87 -100v43l71 82c-35.333 60 -53 135 -53 225
c0 70 10.667 131 32 183s52.166 92.333 92.499 121s87.833 43 142.5 43c42 0 79.667 -8.33301 113 -25s61.666 -40.667 84.999 -72l87 100v-43zM166.001 171l310 357c-32.667 62.667 -82.334 94 -149.001 94c-59.333 0 -105.166 -25.333 -137.499 -76s-48.5 -121 -48.5 -211
c0 -63.333 8.33301 -118 25 -164zM488.001 499l-308.999 -357c16 -30.667 36.333 -54 61 -70s53.667 -24 87 -24c59.333 0 105.166 25.167 137.499 75.5s48.5 120.833 48.5 211.5c0 63.333 -8.33301 118 -25 164z" />
    <glyph glyph-name="Ugrave" unicode="&#xd9;" horiz-adv-x="664" 
d="M158.5 52c-39 43.333 -58.501 106.333 -58.501 189v428h76v-420c0 -64.667 12.667 -114 38 -148s66 -51 122 -51c54.667 0 94.334 16.667 119.001 50s37 81.333 37 144v425h72v-432c0 -82 -19.5 -144.167 -58.5 -186.5s-96.5 -63.5 -172.5 -63.5
c-77.333 0 -135.5 21.667 -174.5 65zM224.999 798v88l174 -173h-49z" />
    <glyph glyph-name="Uacute" unicode="&#xda;" horiz-adv-x="664" 
d="M158.5 52c-39 43.333 -58.501 106.333 -58.501 189v428h76v-420c0 -64.667 12.667 -114 38 -148s66 -51 122 -51c54.667 0 94.334 16.667 119.001 50s37 81.333 37 144v425h72v-432c0 -82 -19.5 -144.167 -58.5 -186.5s-96.5 -63.5 -172.5 -63.5
c-77.333 0 -135.5 21.667 -174.5 65zM441.999 886v-88l-125 -85h-49z" />
    <glyph glyph-name="Ucircumflex" unicode="&#xdb;" horiz-adv-x="664" 
d="M158.5 52c-39 43.333 -58.501 106.333 -58.501 189v428h76v-420c0 -64.667 12.667 -114 38 -148s66 -51 122 -51c54.667 0 94.334 16.667 119.001 50s37 81.333 37 144v425h72v-432c0 -82 -19.5 -144.167 -58.5 -186.5s-96.5 -63.5 -172.5 -63.5
c-77.333 0 -135.5 21.667 -174.5 65zM312.999 859h39l124 -146h-49l-94 85l-95 -85h-49z" />
    <glyph glyph-name="Udieresis" unicode="&#xdc;" horiz-adv-x="664" 
d="M158.5 52c-39 43.333 -58.501 106.333 -58.501 189v428h76v-420c0 -64.667 12.667 -114 38 -148s66 -51 122 -51c54.667 0 94.334 16.667 119.001 50s37 81.333 37 144v425h72v-432c0 -82 -19.5 -144.167 -58.5 -186.5s-96.5 -63.5 -172.5 -63.5
c-77.333 0 -135.5 21.667 -174.5 65zM220.999 774.5c-9.33301 9.66699 -14 21.167 -14 34.5s4.66699 24.833 14 34.5s20.333 14.5 33 14.5s23.667 -4.83301 33 -14.5s14 -21.167 14 -34.5s-4.66699 -24.833 -14 -34.5s-20.333 -14.5 -33 -14.5s-23.667 4.83301 -33 14.5z
M379.999 774.5c-9.33301 9.66699 -14 21.167 -14 34.5s4.66699 24.833 14 34.5s20.333 14.5 33 14.5s23.667 -4.83301 33 -14.5s14 -21.167 14 -34.5s-4.66699 -24.833 -14 -34.5s-20.333 -14.5 -33 -14.5s-23.667 4.83301 -33 14.5z" />
    <glyph glyph-name="Yacute" unicode="&#xdd;" horiz-adv-x="503" 
d="M290 244v-244h-76v241l-199 428h83l156 -346l157 346h77zM365 886v-88l-125 -85h-49z" />
    <glyph glyph-name="Thorn" unicode="&#xde;" horiz-adv-x="647" 
d="M88.5 13.5c-9 9 -13.5 19.833 -13.5 32.5v578c0 12.667 4.5 23.334 13.5 32.001s19.833 13 32.5 13h406c12.667 0 23.334 -4.33301 32.001 -13s13 -19.334 13 -32.001v-578c0 -12.667 -4.33301 -23.5 -13 -32.5s-19.334 -13.5 -32.001 -13.5h-406
c-12.667 0 -23.5 4.5 -32.5 13.5zM493 618h-338l169 -248zM299 335l-173 256v-511zM522 590l-174 -255l174 -256v511zM492 51l-168 248l-169 -248h337z" />
    <glyph glyph-name="germandbls" unicode="&#xdf;" horiz-adv-x="490" 
d="M244 -5c-21.333 4.66699 -39.667 11.334 -55 20.001v58c35.333 -22 69.333 -33 102 -33c26 0 47.333 6.66699 64 20s25 33.666 25 60.999c0 26.667 -7.66699 49.167 -23 67.5s-38 38.5 -68 60.5c-28.667 21.333 -50.167 40.333 -64.5 57s-21.5 36.667 -21.5 60
c0 20.667 5 37.667 15 51s24.667 28 44 44c18 15.333 31.333 28.833 40 40.5s13 25.834 13 42.501c0 26 -7.66699 46.333 -23 61s-34 22 -56 22c-32.667 0 -56 -8.66699 -70 -26s-21 -44.333 -21 -81v-520h-71v540c0 43.333 14.667 77.333 44 102s68 37 116 37
c42 0 77 -11.5 105 -34.5s42 -53.833 42 -92.5c0 -28 -6.16699 -50.833 -18.5 -68.5s-29.5 -35.834 -51.5 -54.501c-14 -12 -24 -21.667 -30 -29s-9 -15.333 -9 -24c0 -12 4 -24 12 -36s19 -23 33 -33l54 -38c56 -40 84 -88 84 -144c0 -44 -13.833 -77.833 -41.5 -101.5
s-63.5 -35.5 -107.5 -35.5c-20 0 -40.667 2.33301 -62 7z" />
    <glyph glyph-name="agrave" unicode="&#xe0;" horiz-adv-x="446" 
d="M414 42l0.000976562 -44.999c-14.667 -5.33301 -28.334 -8 -41.001 -8c-19.333 0 -35 5.83301 -47 17.5s-18.333 29.5 -19 53.5c-14 -25.333 -33.167 -43.833 -57.5 -55.5s-50.833 -17.5 -79.5 -17.5c-38 0 -69.5 10.667 -94.5 32s-37.5 50 -37.5 86
c0 56.667 26.833 96.667 80.5 120s114.834 35.666 183.501 36.999v29c0 63.333 -34 95 -102 95c-20.667 0 -42.167 -3.66699 -64.5 -11s-43.5 -17.333 -63.5 -30v57c46 26.667 94 40 144 40c47.333 0 85.166 -12.5 113.499 -37.5s42.5 -62.167 42.5 -111.5v-189
c0 -22.667 2 -39 6 -49s11.667 -15 23 -15c2 0 6.33301 0.666992 13 2zM302.001 214.001c-61.333 -0.666992 -108.999 -10.1689 -142.999 -28.502s-51 -44.166 -51 -77.499c0 -21.333 7.5 -38.166 22.5 -50.499s34.167 -18.5 57.5 -18.5c31.333 0 58.166 11.167 80.499 33.5
s33.5 52.833 33.5 91.5v50zM112.002 597.999v88l173 -173h-49z" />
    <glyph glyph-name="aacute" unicode="&#xe1;" horiz-adv-x="446" 
d="M414 42l0.000976562 -44.999c-14.667 -5.33301 -28.334 -8 -41.001 -8c-19.333 0 -35 5.83301 -47 17.5s-18.333 29.5 -19 53.5c-14 -25.333 -33.167 -43.833 -57.5 -55.5s-50.833 -17.5 -79.5 -17.5c-38 0 -69.5 10.667 -94.5 32s-37.5 50 -37.5 86
c0 56.667 26.833 96.667 80.5 120s114.834 35.666 183.501 36.999v29c0 63.333 -34 95 -102 95c-20.667 0 -42.167 -3.66699 -64.5 -11s-43.5 -17.333 -63.5 -30v57c46 26.667 94 40 144 40c47.333 0 85.166 -12.5 113.499 -37.5s42.5 -62.167 42.5 -111.5v-189
c0 -22.667 2 -39 6 -49s11.667 -15 23 -15c2 0 6.33301 0.666992 13 2zM302.001 214.001c-61.333 -0.666992 -108.999 -10.1689 -142.999 -28.502s-51 -44.166 -51 -77.499c0 -21.333 7.5 -38.166 22.5 -50.499s34.167 -18.5 57.5 -18.5c31.333 0 58.166 11.167 80.499 33.5
s33.5 52.833 33.5 91.5v50zM303.002 685.999v-88l-124 -85h-49z" />
    <glyph glyph-name="acircumflex" unicode="&#xe2;" horiz-adv-x="446" 
d="M414 42l0.000976562 -44.999c-14.667 -5.33301 -28.334 -8 -41.001 -8c-19.333 0 -35 5.83301 -47 17.5s-18.333 29.5 -19 53.5c-14 -25.333 -33.167 -43.833 -57.5 -55.5s-50.833 -17.5 -79.5 -17.5c-38 0 -69.5 10.667 -94.5 32s-37.5 50 -37.5 86
c0 56.667 26.833 96.667 80.5 120s114.834 35.666 183.501 36.999v29c0 63.333 -34 95 -102 95c-20.667 0 -42.167 -3.66699 -64.5 -11s-43.5 -17.333 -63.5 -30v57c46 26.667 94 40 144 40c47.333 0 85.166 -12.5 113.499 -37.5s42.5 -62.167 42.5 -111.5v-189
c0 -22.667 2 -39 6 -49s11.667 -15 23 -15c2 0 6.33301 0.666992 13 2zM302.001 214.001c-61.333 -0.666992 -108.999 -10.1689 -142.999 -28.502s-51 -44.166 -51 -77.499c0 -21.333 7.5 -38.166 22.5 -50.499s34.167 -18.5 57.5 -18.5c31.333 0 58.166 11.167 80.499 33.5
s33.5 52.833 33.5 91.5v50zM193.002 658.999h38l125 -146h-49l-95 85l-94 -85h-49z" />
    <glyph glyph-name="atilde" unicode="&#xe3;" horiz-adv-x="446" 
d="M414 42l0.000976562 -44.999c-14.667 -5.33301 -28.334 -8 -41.001 -8c-19.333 0 -35 5.83301 -47 17.5s-18.333 29.5 -19 53.5c-14 -25.333 -33.167 -43.833 -57.5 -55.5s-50.833 -17.5 -79.5 -17.5c-38 0 -69.5 10.667 -94.5 32s-37.5 50 -37.5 86
c0 56.667 26.833 96.667 80.5 120s114.834 35.666 183.501 36.999v29c0 63.333 -34 95 -102 95c-20.667 0 -42.167 -3.66699 -64.5 -11s-43.5 -17.333 -63.5 -30v57c46 26.667 94 40 144 40c47.333 0 85.166 -12.5 113.499 -37.5s42.5 -62.167 42.5 -111.5v-189
c0 -22.667 2 -39 6 -49s11.667 -15 23 -15c2 0 6.33301 0.666992 13 2zM302.001 214.001c-61.333 -0.666992 -108.999 -10.1689 -142.999 -28.502s-51 -44.166 -51 -77.499c0 -21.333 7.5 -38.166 22.5 -50.499s34.167 -18.5 57.5 -18.5c31.333 0 58.166 11.167 80.499 33.5
s33.5 52.833 33.5 91.5v50zM73.002 568.999c20.667 49.333 52.6689 73.999 96.002 73.999c12.667 0 24.5 -2.16699 35.5 -6.5s24.833 -10.833 41.5 -19.5c12 -7.33301 22.5 -12.833 31.5 -16.5s18.167 -5.5 27.5 -5.5c12 0 22.667 4.16699 32 12.5s16.333 18.833 21 31.5
l14 -31c-21.333 -44 -52.666 -66 -93.999 -66c-13.333 0 -26 2.33301 -38 7s-25.333 11 -40 19c-12.667 6.66699 -23.334 11.834 -32.001 15.501s-17.334 5.5 -26.001 5.5c-12.667 0 -23.834 -4.33301 -33.501 -13s-16.5 -20 -20.5 -34z" />
    <glyph glyph-name="adieresis" unicode="&#xe4;" horiz-adv-x="446" 
d="M414 42l0.000976562 -44.999c-14.667 -5.33301 -28.334 -8 -41.001 -8c-19.333 0 -35 5.83301 -47 17.5s-18.333 29.5 -19 53.5c-14 -25.333 -33.167 -43.833 -57.5 -55.5s-50.833 -17.5 -79.5 -17.5c-38 0 -69.5 10.667 -94.5 32s-37.5 50 -37.5 86
c0 56.667 26.833 96.667 80.5 120s114.834 35.666 183.501 36.999v29c0 63.333 -34 95 -102 95c-20.667 0 -42.167 -3.66699 -64.5 -11s-43.5 -17.333 -63.5 -30v57c46 26.667 94 40 144 40c47.333 0 85.166 -12.5 113.499 -37.5s42.5 -62.167 42.5 -111.5v-189
c0 -22.667 2 -39 6 -49s11.667 -15 23 -15c2 0 6.33301 0.666992 13 2zM302.001 214.001c-61.333 -0.666992 -108.999 -10.1689 -142.999 -28.502s-51 -44.166 -51 -77.499c0 -21.333 7.5 -38.166 22.5 -50.499s34.167 -18.5 57.5 -18.5c31.333 0 58.166 11.167 80.499 33.5
s33.5 52.833 33.5 91.5v50zM100.002 574.499c-9.33301 9.66699 -14 21.167 -14 34.5s4.66699 24.833 14 34.5s20.333 14.5 33 14.5s23.667 -4.83301 33 -14.5s14 -21.167 14 -34.5s-4.66699 -24.833 -14 -34.5s-20.333 -14.5 -33 -14.5s-23.667 4.83301 -33 14.5z
M259.002 574.499c-9.33301 9.66699 -14 21.167 -14 34.5s4.66699 24.833 14 34.5s20.333 14.5 33 14.5s23.667 -4.83301 33 -14.5s14 -21.167 14 -34.5s-4.66699 -24.833 -14 -34.5s-20.333 -14.5 -33 -14.5s-23.667 4.83301 -33 14.5z" />
    <glyph glyph-name="aring" unicode="&#xe5;" horiz-adv-x="446" 
d="M414 42l0.000976562 -44.999c-14.667 -5.33301 -28.334 -8 -41.001 -8c-19.333 0 -35 5.83301 -47 17.5s-18.333 29.5 -19 53.5c-14 -25.333 -33.167 -43.833 -57.5 -55.5s-50.833 -17.5 -79.5 -17.5c-38 0 -69.5 10.667 -94.5 32s-37.5 50 -37.5 86
c0 56.667 26.833 96.667 80.5 120s114.834 35.666 183.501 36.999v29c0 63.333 -34 95 -102 95c-20.667 0 -42.167 -3.66699 -64.5 -11s-43.5 -17.333 -63.5 -30v57c46 26.667 94 40 144 40c47.333 0 85.166 -12.5 113.499 -37.5s42.5 -62.167 42.5 -111.5v-189
c0 -22.667 2 -39 6 -49s11.667 -15 23 -15c2 0 6.33301 0.666992 13 2zM302.001 214.001c-61.333 -0.666992 -108.999 -10.1689 -142.999 -28.502s-51 -44.166 -51 -77.499c0 -21.333 7.5 -38.166 22.5 -50.499s34.167 -18.5 57.5 -18.5c31.333 0 58.166 11.167 80.499 33.5
s33.5 52.833 33.5 91.5v50zM146.502 543.499c-17.667 17 -26.5 37.833 -26.5 62.5s8.83301 45.5 26.5 62.5s39.5 25.5 65.5 25.5s48 -8.5 66 -25.5s27 -37.833 27 -62.5s-9 -45.5 -27 -62.5s-40 -25.5 -66 -25.5s-47.833 8.5 -65.5 25.5zM243.502 570.499
c8.33301 9.66699 12.5 21.5 12.5 35.5s-4.16699 25.833 -12.5 35.5s-18.833 14.5 -31.5 14.5s-23.167 -4.83301 -31.5 -14.5s-12.5 -21.5 -12.5 -35.5s4.16699 -25.833 12.5 -35.5s18.833 -14.5 31.5 -14.5s23.167 4.83301 31.5 14.5z" />
    <glyph glyph-name="ae" unicode="&#xe6;" horiz-adv-x="686" 
d="M372 201l-0.00390625 -13.999c4.66699 -46 20.834 -81.5 48.501 -106.5s61.167 -37.5 100.5 -37.5c20.667 0 38.5 1.83301 53.5 5.5s30.167 9.16699 45.5 16.5l-1 -54c-29.333 -16 -65.666 -24 -108.999 -24c-37.333 0 -70.666 7.33301 -99.999 22s-53.333 36 -72 64
c-37.333 -57.333 -93.333 -86 -168 -86c-38 0 -69.5 10.667 -94.5 32s-37.5 50 -37.5 86c0 56.667 26.833 96.667 80.5 120s114.834 35.666 183.501 36.999v29c0 63.333 -34 95 -102 95c-20.667 0 -42.167 -3.66699 -64.5 -11s-43.5 -17.333 -63.5 -30v57
c46 26.667 94 40 144 40c30 0 56.5 -5.16699 79.5 -15.5s41.167 -25.833 54.5 -46.5c32.667 41.333 75.667 62 129 62c55.333 0 97.5 -22.667 126.5 -68s42.5 -103 40.5 -173h-274zM406.996 352.001c-19.333 -24.667 -31.001 -60.332 -35.001 -106.999h205
c-1.33301 43.333 -10.5 78.166 -27.5 104.499s-40.167 39.5 -69.5 39.5s-53.666 -12.333 -72.999 -37zM301.995 180.003c-1.33301 14.667 -1.99805 25.999 -1.99805 33.999c-60.667 -0.666992 -107.834 -10 -141.501 -28s-50.5 -44 -50.5 -78
c0 -21.333 7.5 -38.166 22.5 -50.499s34.167 -18.5 57.5 -18.5c31.333 0 58.166 11.167 80.499 33.5s33.5 52.833 33.5 91.5v16z" />
    <glyph glyph-name="ccedilla" unicode="&#xe7;" horiz-adv-x="391" 
d="M259 -13l-39.9971 -41.002c7.33301 2 14.666 3 21.999 3c14.667 0 30 -5.66699 46 -17s24 -30.333 24 -57c0 -23.333 -8.5 -42.666 -25.5 -57.999s-37.833 -23 -62.5 -23c-22.667 0 -45 8.33301 -67 25l17 28c16.667 -11.333 32 -17 46 -17s24.833 4.16699 32.5 12.5
s11.5 18.5 11.5 30.5c0 11.333 -3.16699 21.5 -9.5 30.5s-15.833 13.5 -28.5 13.5c-7.33301 0 -17 -3 -29 -9l-19 25l52 55c-56 5.33301 -101 27.833 -135 67.5s-51 92.834 -51 159.501c0 46.667 9 87.167 27 121.5s42 60.5 72 78.5s63.333 27 100 27
c39.333 0 75.666 -7 108.999 -21v-55c-32 12.667 -62.667 19 -92 19c-42 0 -76.167 -15.5 -102.5 -46.5s-39.5 -73.167 -39.5 -126.5c0 -54 13.667 -95.5 41 -124.5s63 -43.5 107 -43.5c31.333 0 62.666 5.33301 93.999 16v-56c-24.667 -10 -58 -15.667 -100 -17z" />
    <glyph glyph-name="egrave" unicode="&#xe8;" horiz-adv-x="428" 
d="M347.5 374c29 -45.333 42.4971 -103 40.4971 -173h-275c2.66699 -50.667 17.834 -89.667 45.501 -117s62.5 -41 104.5 -41c20.667 0 38.5 1.83301 53.5 5.5s30.167 9.16699 45.5 16.5l-1 -54c-29.333 -16 -65.666 -24 -108.999 -24
c-63.333 0 -114.166 20.5 -152.499 61.5s-57.5 97.167 -57.5 168.5c0 43.333 7.33301 82 22 116s35.5 60.667 62.5 80s58.5 29 94.5 29c55.333 0 97.5 -22.667 126.5 -68zM148.997 352c-19.333 -24.667 -31.001 -60.332 -35.001 -106.999h205
c-1.33301 43.333 -10.5 78.166 -27.5 104.499s-40.167 39.5 -69.5 39.5s-53.666 -12.333 -72.999 -37zM113.996 598.002v88l173 -173h-49z" />
    <glyph glyph-name="eacute" unicode="&#xe9;" horiz-adv-x="428" 
d="M347.5 374c29 -45.333 42.4971 -103 40.4971 -173h-275c2.66699 -50.667 17.834 -89.667 45.501 -117s62.5 -41 104.5 -41c20.667 0 38.5 1.83301 53.5 5.5s30.167 9.16699 45.5 16.5l-1 -54c-29.333 -16 -65.666 -24 -108.999 -24
c-63.333 0 -114.166 20.5 -152.499 61.5s-57.5 97.167 -57.5 168.5c0 43.333 7.33301 82 22 116s35.5 60.667 62.5 80s58.5 29 94.5 29c55.333 0 97.5 -22.667 126.5 -68zM148.997 352c-19.333 -24.667 -31.001 -60.332 -35.001 -106.999h205
c-1.33301 43.333 -10.5 78.166 -27.5 104.499s-40.167 39.5 -69.5 39.5s-53.666 -12.333 -72.999 -37zM304.996 686.002v-88l-124 -85h-49z" />
    <glyph glyph-name="ecircumflex" unicode="&#xea;" horiz-adv-x="428" 
d="M347.5 374c29 -45.333 42.4971 -103 40.4971 -173h-275c2.66699 -50.667 17.834 -89.667 45.501 -117s62.5 -41 104.5 -41c20.667 0 38.5 1.83301 53.5 5.5s30.167 9.16699 45.5 16.5l-1 -54c-29.333 -16 -65.666 -24 -108.999 -24
c-63.333 0 -114.166 20.5 -152.499 61.5s-57.5 97.167 -57.5 168.5c0 43.333 7.33301 82 22 116s35.5 60.667 62.5 80s58.5 29 94.5 29c55.333 0 97.5 -22.667 126.5 -68zM148.997 352c-19.333 -24.667 -31.001 -60.332 -35.001 -106.999h205
c-1.33301 43.333 -10.5 78.166 -27.5 104.499s-40.167 39.5 -69.5 39.5s-53.666 -12.333 -72.999 -37zM194.996 659.002h38l125 -146h-49l-95 85l-94 -85h-49z" />
    <glyph glyph-name="edieresis" unicode="&#xeb;" horiz-adv-x="428" 
d="M347.5 374c29 -45.333 42.4971 -103 40.4971 -173h-275c2.66699 -50.667 17.834 -89.667 45.501 -117s62.5 -41 104.5 -41c20.667 0 38.5 1.83301 53.5 5.5s30.167 9.16699 45.5 16.5l-1 -54c-29.333 -16 -65.666 -24 -108.999 -24
c-63.333 0 -114.166 20.5 -152.499 61.5s-57.5 97.167 -57.5 168.5c0 43.333 7.33301 82 22 116s35.5 60.667 62.5 80s58.5 29 94.5 29c55.333 0 97.5 -22.667 126.5 -68zM148.997 352c-19.333 -24.667 -31.001 -60.332 -35.001 -106.999h205
c-1.33301 43.333 -10.5 78.166 -27.5 104.499s-40.167 39.5 -69.5 39.5s-53.666 -12.333 -72.999 -37zM101.996 574.502c-9.33301 9.66699 -14 21.167 -14 34.5s4.66699 24.833 14 34.5s20.333 14.5 33 14.5s23.667 -4.83301 33 -14.5s14 -21.167 14 -34.5
s-4.66699 -24.833 -14 -34.5s-20.333 -14.5 -33 -14.5s-23.667 4.83301 -33 14.5zM260.996 574.502c-9.33301 9.66699 -14 21.167 -14 34.5s4.66699 24.833 14 34.5s20.333 14.5 33 14.5s23.667 -4.83301 33 -14.5s14 -21.167 14 -34.5s-4.66699 -24.833 -14 -34.5
s-20.333 -14.5 -33 -14.5s-23.667 4.83301 -33 14.5z" />
    <glyph glyph-name="igrave" unicode="&#xec;" horiz-adv-x="240" 
d="M85 424h70v-424h-70v424zM20 598v88l173 -173h-49z" />
    <glyph glyph-name="iacute" unicode="&#xed;" horiz-adv-x="240" 
d="M85 424h70v-424h-70v424zM211 686v-88l-124 -85h-49z" />
    <glyph glyph-name="icircumflex" unicode="&#xee;" horiz-adv-x="240" 
d="M85 424h70v-424h-70v424zM101 659h38l125 -146h-49l-95 85l-94 -85h-49z" />
    <glyph glyph-name="idieresis" unicode="&#xef;" horiz-adv-x="240" 
d="M85 424h70v-424h-70v424zM8 574.5c-9.33301 9.66699 -14 21.167 -14 34.5s4.66699 24.833 14 34.5s20.333 14.5 33 14.5s23.667 -4.83301 33 -14.5s14 -21.167 14 -34.5s-4.66699 -24.833 -14 -34.5s-20.333 -14.5 -33 -14.5s-23.667 4.83301 -33 14.5zM167 574.5
c-9.33301 9.66699 -14 21.167 -14 34.5s4.66699 24.833 14 34.5s20.333 14.5 33 14.5s23.667 -4.83301 33 -14.5s14 -21.167 14 -34.5s-4.66699 -24.833 -14 -34.5s-20.333 -14.5 -33 -14.5s-23.667 4.83301 -33 14.5z" />
    <glyph glyph-name="eth" unicode="&#xf0;" horiz-adv-x="647" 
d="M88.5 13.5c-9 9 -13.5 19.833 -13.5 32.5v578c0 12.667 4.5 23.334 13.5 32.001s19.833 13 32.5 13h406c12.667 0 23.334 -4.33301 32.001 -13s13 -19.334 13 -32.001v-578c0 -12.667 -4.33301 -23.5 -13 -32.5s-19.334 -13.5 -32.001 -13.5h-406
c-12.667 0 -23.5 4.5 -32.5 13.5zM493 618h-338l169 -248zM299 335l-173 256v-511zM522 590l-174 -255l174 -256v511zM492 51l-168 248l-169 -248h337z" />
    <glyph glyph-name="ntilde" unicode="&#xf1;" horiz-adv-x="491" 
d="M74 424l70 -0.000976562v-66c12.667 26 31.5 46.5 56.5 61.5s52.167 22.5 81.5 22.5c45.333 0 80 -14.333 104 -43s36 -72.667 36 -132v-267h-70v252c0 48 -8.5 82.167 -25.5 102.5s-39.167 30.5 -66.5 30.5c-21.333 0 -40.833 -7 -58.5 -21s-31.667 -34.167 -42 -60.5
s-15.5 -57.166 -15.5 -92.499v-211h-70v424zM115 568.999c20.667 49.333 52.6689 73.999 96.002 73.999c12.667 0 24.5 -2.16699 35.5 -6.5s24.833 -10.833 41.5 -19.5c12 -7.33301 22.5 -12.833 31.5 -16.5s18.167 -5.5 27.5 -5.5c12 0 22.667 4.16699 32 12.5
s16.333 18.833 21 31.5l14 -31c-21.333 -44 -52.666 -66 -93.999 -66c-13.333 0 -26 2.33301 -38 7s-25.333 11 -40 19c-12.667 6.66699 -23.334 11.834 -32.001 15.501s-17.334 5.5 -26.001 5.5c-12.667 0 -23.834 -4.33301 -33.501 -13s-16.5 -20 -20.5 -34z" />
    <glyph glyph-name="ograve" unicode="&#xf2;" horiz-adv-x="463" 
d="M134 15c-28 18.667 -49.8301 45.334 -65.4971 80.001s-23.5 75.334 -23.5 122.001c0 45.333 8 85.166 24 119.499s38.167 60.666 66.5 78.999s60.166 27.5 95.499 27.5s67.166 -9.16699 95.499 -27.5s50.666 -44.666 66.999 -78.999s24.5 -74.166 24.5 -119.499
c0 -46.667 -7.83301 -87.334 -23.5 -122.001s-37.667 -61.334 -66 -80.001s-60.833 -28 -97.5 -28s-69 9.33301 -97 28zM311.003 85.5c20.667 30.333 31 74.166 31 131.499c0 55.333 -10.333 97.833 -31 127.5s-47 44.5 -79 44.5c-32.667 0 -59.5 -14.833 -80.5 -44.5
s-31.5 -72.167 -31.5 -127.5c0 -57.333 10.5 -101.166 31.5 -131.499s47.833 -45.5 80.5 -45.5c32 0 58.333 15.167 79 45.5zM132.003 598v88l173 -173h-49z" />
    <glyph glyph-name="oacute" unicode="&#xf3;" horiz-adv-x="463" 
d="M134 15c-28 18.667 -49.8301 45.334 -65.4971 80.001s-23.5 75.334 -23.5 122.001c0 45.333 8 85.166 24 119.499s38.167 60.666 66.5 78.999s60.166 27.5 95.499 27.5s67.166 -9.16699 95.499 -27.5s50.666 -44.666 66.999 -78.999s24.5 -74.166 24.5 -119.499
c0 -46.667 -7.83301 -87.334 -23.5 -122.001s-37.667 -61.334 -66 -80.001s-60.833 -28 -97.5 -28s-69 9.33301 -97 28zM311.003 85.5c20.667 30.333 31 74.166 31 131.499c0 55.333 -10.333 97.833 -31 127.5s-47 44.5 -79 44.5c-32.667 0 -59.5 -14.833 -80.5 -44.5
s-31.5 -72.167 -31.5 -127.5c0 -57.333 10.5 -101.166 31.5 -131.499s47.833 -45.5 80.5 -45.5c32 0 58.333 15.167 79 45.5zM323.003 686v-88l-124 -85h-49z" />
    <glyph glyph-name="ocircumflex" unicode="&#xf4;" horiz-adv-x="463" 
d="M134 15c-28 18.667 -49.8301 45.334 -65.4971 80.001s-23.5 75.334 -23.5 122.001c0 45.333 8 85.166 24 119.499s38.167 60.666 66.5 78.999s60.166 27.5 95.499 27.5s67.166 -9.16699 95.499 -27.5s50.666 -44.666 66.999 -78.999s24.5 -74.166 24.5 -119.499
c0 -46.667 -7.83301 -87.334 -23.5 -122.001s-37.667 -61.334 -66 -80.001s-60.833 -28 -97.5 -28s-69 9.33301 -97 28zM311.003 85.5c20.667 30.333 31 74.166 31 131.499c0 55.333 -10.333 97.833 -31 127.5s-47 44.5 -79 44.5c-32.667 0 -59.5 -14.833 -80.5 -44.5
s-31.5 -72.167 -31.5 -127.5c0 -57.333 10.5 -101.166 31.5 -131.499s47.833 -45.5 80.5 -45.5c32 0 58.333 15.167 79 45.5zM213.003 659h38l125 -146h-49l-95 85l-94 -85h-49z" />
    <glyph glyph-name="otilde" unicode="&#xf5;" horiz-adv-x="463" 
d="M134 15c-28 18.667 -49.8301 45.334 -65.4971 80.001s-23.5 75.334 -23.5 122.001c0 45.333 8 85.166 24 119.499s38.167 60.666 66.5 78.999s60.166 27.5 95.499 27.5s67.166 -9.16699 95.499 -27.5s50.666 -44.666 66.999 -78.999s24.5 -74.166 24.5 -119.499
c0 -46.667 -7.83301 -87.334 -23.5 -122.001s-37.667 -61.334 -66 -80.001s-60.833 -28 -97.5 -28s-69 9.33301 -97 28zM311.003 85.5c20.667 30.333 31 74.166 31 131.499c0 55.333 -10.333 97.833 -31 127.5s-47 44.5 -79 44.5c-32.667 0 -59.5 -14.833 -80.5 -44.5
s-31.5 -72.167 -31.5 -127.5c0 -57.333 10.5 -101.166 31.5 -131.499s47.833 -45.5 80.5 -45.5c32 0 58.333 15.167 79 45.5zM93.0029 569c20.667 49.333 52.6689 73.999 96.002 73.999c12.667 0 24.5 -2.16699 35.5 -6.5s24.833 -10.833 41.5 -19.5
c12 -7.33301 22.5 -12.833 31.5 -16.5s18.167 -5.5 27.5 -5.5c12 0 22.667 4.16699 32 12.5s16.333 18.833 21 31.5l14 -31c-21.333 -44 -52.666 -66 -93.999 -66c-13.333 0 -26 2.33301 -38 7s-25.333 11 -40 19c-12.667 6.66699 -23.334 11.834 -32.001 15.501
s-17.334 5.5 -26.001 5.5c-12.667 0 -23.834 -4.33301 -33.501 -13s-16.5 -20 -20.5 -34z" />
    <glyph glyph-name="odieresis" unicode="&#xf6;" horiz-adv-x="463" 
d="M134 15c-28 18.667 -49.8301 45.334 -65.4971 80.001s-23.5 75.334 -23.5 122.001c0 45.333 8 85.166 24 119.499s38.167 60.666 66.5 78.999s60.166 27.5 95.499 27.5s67.166 -9.16699 95.499 -27.5s50.666 -44.666 66.999 -78.999s24.5 -74.166 24.5 -119.499
c0 -46.667 -7.83301 -87.334 -23.5 -122.001s-37.667 -61.334 -66 -80.001s-60.833 -28 -97.5 -28s-69 9.33301 -97 28zM311.003 85.5c20.667 30.333 31 74.166 31 131.499c0 55.333 -10.333 97.833 -31 127.5s-47 44.5 -79 44.5c-32.667 0 -59.5 -14.833 -80.5 -44.5
s-31.5 -72.167 -31.5 -127.5c0 -57.333 10.5 -101.166 31.5 -131.499s47.833 -45.5 80.5 -45.5c32 0 58.333 15.167 79 45.5zM120.003 574.5c-9.33301 9.66699 -14 21.167 -14 34.5s4.66699 24.833 14 34.5s20.333 14.5 33 14.5s23.667 -4.83301 33 -14.5
s14 -21.167 14 -34.5s-4.66699 -24.833 -14 -34.5s-20.333 -14.5 -33 -14.5s-23.667 4.83301 -33 14.5zM279.003 574.5c-9.33301 9.66699 -14 21.167 -14 34.5s4.66699 24.833 14 34.5s20.333 14.5 33 14.5s23.667 -4.83301 33 -14.5s14 -21.167 14 -34.5
s-4.66699 -24.833 -14 -34.5s-20.333 -14.5 -33 -14.5s-23.667 4.83301 -33 14.5z" />
    <glyph glyph-name="divide" unicode="&#xf7;" horiz-adv-x="506" 
d="M219 302c-10 10 -15 21.667 -15 35s4.83301 24.833 14.5 34.5s21.167 14.5 34.5 14.5s24.833 -4.83301 34.5 -14.5s14.5 -21.167 14.5 -34.5s-4.83301 -25 -14.5 -35s-21.167 -15 -34.5 -15c-12.667 0 -24 5 -34 15zM45 252h416v-46h-416v46zM219 87.5
c-10 9.66699 -15 21.167 -15 34.5s4.83301 24.833 14.5 34.5s21.167 14.5 34.5 14.5s24.833 -4.83301 34.5 -14.5s14.5 -21.167 14.5 -34.5s-4.83301 -24.833 -14.5 -34.5s-21.167 -14.5 -34.5 -14.5c-12.667 0 -24 4.83301 -34 14.5z" />
    <glyph glyph-name="oslash" unicode="&#xf8;" horiz-adv-x="463" 
d="M421 400l-38.999 -42.9971c24 -37.333 36 -84 36 -140c0 -46.667 -7.83301 -87.334 -23.5 -122.001s-37.667 -61.334 -66 -80.001s-60.833 -28 -97.5 -28c-54.667 0 -99 20 -133 60l-59 -65v43l42 46c-24 38.667 -36 87.334 -36 146.001c0 45.333 8 85.166 24 119.499
s38.167 60.666 66.5 78.999s60.166 27.5 95.499 27.5c26.667 0 51.5 -5.33301 74.5 -16s42.833 -26 59.5 -46l56 61v-42zM132.001 127.003l187 204c-10 19.333 -22.5 33.833 -37.5 43.5s-31.5 14.5 -49.5 14.5c-32.667 0 -59.5 -14.833 -80.5 -44.5
s-31.5 -72.167 -31.5 -127.5c0 -34.667 4 -64.667 12 -90zM331.001 301.003l-186 -203.998c10 -18.667 22.5 -32.834 37.5 -42.501s31.5 -14.5 49.5 -14.5c32 0 58.333 15.167 79 45.5s31 74.166 31 131.499c0 32 -3.66699 60 -11 84z" />
    <glyph glyph-name="ugrave" unicode="&#xf9;" horiz-adv-x="488" 
d="M453 37l-0.000976562 -45.001c-6.66699 -2 -15.667 -3 -27 -3c-24 0 -42.667 5.83301 -56 17.5s-22.333 31.167 -27 58.5c-12.667 -24 -31.667 -43 -57 -57s-52.333 -21 -81 -21c-44 0 -77.667 14.333 -101 43s-35 72 -35 130v264h70v-250c0 -46.667 8 -80 24 -100
s37 -30 63 -30c32.667 0 59.834 15 81.501 45s32.5 72.333 32.5 127v208h70v-321c0 -23.333 2.66699 -40.166 8 -50.499s14 -15.5 26 -15.5h9zM140.999 597.999v88l173 -173h-49z" />
    <glyph glyph-name="uacute" unicode="&#xfa;" horiz-adv-x="488" 
d="M453 37l-0.000976562 -45.001c-6.66699 -2 -15.667 -3 -27 -3c-24 0 -42.667 5.83301 -56 17.5s-22.333 31.167 -27 58.5c-12.667 -24 -31.667 -43 -57 -57s-52.333 -21 -81 -21c-44 0 -77.667 14.333 -101 43s-35 72 -35 130v264h70v-250c0 -46.667 8 -80 24 -100
s37 -30 63 -30c32.667 0 59.834 15 81.501 45s32.5 72.333 32.5 127v208h70v-321c0 -23.333 2.66699 -40.166 8 -50.499s14 -15.5 26 -15.5h9zM331.999 685.999v-88l-124 -85h-49z" />
    <glyph glyph-name="ucircumflex" unicode="&#xfb;" horiz-adv-x="488" 
d="M453 37l-0.000976562 -45.001c-6.66699 -2 -15.667 -3 -27 -3c-24 0 -42.667 5.83301 -56 17.5s-22.333 31.167 -27 58.5c-12.667 -24 -31.667 -43 -57 -57s-52.333 -21 -81 -21c-44 0 -77.667 14.333 -101 43s-35 72 -35 130v264h70v-250c0 -46.667 8 -80 24 -100
s37 -30 63 -30c32.667 0 59.834 15 81.501 45s32.5 72.333 32.5 127v208h70v-321c0 -23.333 2.66699 -40.166 8 -50.499s14 -15.5 26 -15.5h9zM221.999 658.999h38l125 -146h-49l-95 85l-94 -85h-49z" />
    <glyph glyph-name="udieresis" unicode="&#xfc;" horiz-adv-x="488" 
d="M453 37l-0.000976562 -45.001c-6.66699 -2 -15.667 -3 -27 -3c-24 0 -42.667 5.83301 -56 17.5s-22.333 31.167 -27 58.5c-12.667 -24 -31.667 -43 -57 -57s-52.333 -21 -81 -21c-44 0 -77.667 14.333 -101 43s-35 72 -35 130v264h70v-250c0 -46.667 8 -80 24 -100
s37 -30 63 -30c32.667 0 59.834 15 81.501 45s32.5 72.333 32.5 127v208h70v-321c0 -23.333 2.66699 -40.166 8 -50.499s14 -15.5 26 -15.5h9zM128.999 574.499c-9.33301 9.66699 -14 21.167 -14 34.5s4.66699 24.833 14 34.5s20.333 14.5 33 14.5s23.667 -4.83301 33 -14.5
s14 -21.167 14 -34.5s-4.66699 -24.833 -14 -34.5s-20.333 -14.5 -33 -14.5s-23.667 4.83301 -33 14.5zM287.999 574.499c-9.33301 9.66699 -14 21.167 -14 34.5s4.66699 24.833 14 34.5s20.333 14.5 33 14.5s23.667 -4.83301 33 -14.5s14 -21.167 14 -34.5
s-4.66699 -24.833 -14 -34.5s-20.333 -14.5 -33 -14.5s-23.667 4.83301 -33 14.5z" />
    <glyph glyph-name="yacute" unicode="&#xfd;" horiz-adv-x="412" 
d="M397 424l-164 -514.999c-14.667 -44 -32.167 -77.333 -52.5 -100s-46.833 -34 -79.5 -34c-24 0 -47 4.33301 -69 13v54c21.333 -8 41 -12 59 -12c20 0 36.667 7.16699 50 21.5s24.333 36.166 33 65.499l25 83h-43l-142 424h72l124 -389l117 389h70zM298 686.001v-88
l-124 -85h-49z" />
    <glyph glyph-name="thorn" unicode="&#xfe;" horiz-adv-x="647" 
d="M88.5 13.5c-9 9 -13.5 19.833 -13.5 32.5v578c0 12.667 4.5 23.334 13.5 32.001s19.833 13 32.5 13h406c12.667 0 23.334 -4.33301 32.001 -13s13 -19.334 13 -32.001v-578c0 -12.667 -4.33301 -23.5 -13 -32.5s-19.334 -13.5 -32.001 -13.5h-406
c-12.667 0 -23.5 4.5 -32.5 13.5zM493 618h-338l169 -248zM299 335l-173 256v-511zM522 590l-174 -255l174 -256v511zM492 51l-168 248l-169 -248h337z" />
    <glyph glyph-name="ydieresis" unicode="&#xff;" horiz-adv-x="412" 
d="M397 424l-164 -514.999c-14.667 -44 -32.167 -77.333 -52.5 -100s-46.833 -34 -79.5 -34c-24 0 -47 4.33301 -69 13v54c21.333 -8 41 -12 59 -12c20 0 36.667 7.16699 50 21.5s24.333 36.166 33 65.499l25 83h-43l-142 424h72l124 -389l117 389h70zM95 574.501
c-9.33301 9.66699 -14 21.167 -14 34.5s4.66699 24.833 14 34.5s20.333 14.5 33 14.5s23.667 -4.83301 33 -14.5s14 -21.167 14 -34.5s-4.66699 -24.833 -14 -34.5s-20.333 -14.5 -33 -14.5s-23.667 4.83301 -33 14.5zM254 574.501c-9.33301 9.66699 -14 21.167 -14 34.5
s4.66699 24.833 14 34.5s20.333 14.5 33 14.5s23.667 -4.83301 33 -14.5s14 -21.167 14 -34.5s-4.66699 -24.833 -14 -34.5s-20.333 -14.5 -33 -14.5s-23.667 4.83301 -33 14.5z" />
    <glyph glyph-name="Amacron" unicode="&#x100;" horiz-adv-x="578" 
d="M405 196h-236l-57 -196h-77l206 669h94l208 -669h-81zM389 249l-100 345h-4l-100 -345h204zM174 844h240l-11 -53h-240z" />
    <glyph glyph-name="amacron" unicode="&#x101;" horiz-adv-x="446" 
d="M414 42l0.000976562 -44.999c-14.667 -5.33301 -28.334 -8 -41.001 -8c-19.333 0 -35 5.83301 -47 17.5s-18.333 29.5 -19 53.5c-14 -25.333 -33.167 -43.833 -57.5 -55.5s-50.833 -17.5 -79.5 -17.5c-38 0 -69.5 10.667 -94.5 32s-37.5 50 -37.5 86
c0 56.667 26.833 96.667 80.5 120s114.834 35.666 183.501 36.999v29c0 63.333 -34 95 -102 95c-20.667 0 -42.167 -3.66699 -64.5 -11s-43.5 -17.333 -63.5 -30v57c46 26.667 94 40 144 40c47.333 0 85.166 -12.5 113.499 -37.5s42.5 -62.167 42.5 -111.5v-189
c0 -22.667 2 -39 6 -49s11.667 -15 23 -15c2 0 6.33301 0.666992 13 2zM302.001 214.001c-61.333 -0.666992 -108.999 -10.1689 -142.999 -28.502s-51 -44.166 -51 -77.499c0 -21.333 7.5 -38.166 22.5 -50.499s34.167 -18.5 57.5 -18.5c31.333 0 58.166 11.167 80.499 33.5
s33.5 52.833 33.5 91.5v50zM106.002 621.999h220l-9 -49h-220z" />
    <glyph glyph-name="Abreve" unicode="&#x102;" horiz-adv-x="578" 
d="M405 196h-236l-57 -196h-77l206 669h94l208 -669h-81zM389 249l-100 345h-4l-100 -345h204zM193 760.5c-22.667 25 -37.001 50.833 -43.001 77.5l31 14c10 -22 24.333 -40.5 43 -55.5s40.334 -22.5 65.001 -22.5s46.5 7.5 65.5 22.5s33.833 33.5 44.5 55.5l29 -14
c-6 -26.667 -20.333 -52.5 -43 -77.5s-54.667 -37.5 -96 -37.5s-73.333 12.5 -96 37.5z" />
    <glyph glyph-name="abreve" unicode="&#x103;" horiz-adv-x="446" 
d="M414 42l0.000976562 -44.999c-14.667 -5.33301 -28.334 -8 -41.001 -8c-19.333 0 -35 5.83301 -47 17.5s-18.333 29.5 -19 53.5c-14 -25.333 -33.167 -43.833 -57.5 -55.5s-50.833 -17.5 -79.5 -17.5c-38 0 -69.5 10.667 -94.5 32s-37.5 50 -37.5 86
c0 56.667 26.833 96.667 80.5 120s114.834 35.666 183.501 36.999v29c0 63.333 -34 95 -102 95c-20.667 0 -42.167 -3.66699 -64.5 -11s-43.5 -17.333 -63.5 -30v57c46 26.667 94 40 144 40c47.333 0 85.166 -12.5 113.499 -37.5s42.5 -62.167 42.5 -111.5v-189
c0 -22.667 2 -39 6 -49s11.667 -15 23 -15c2 0 6.33301 0.666992 13 2zM302.001 214.001c-61.333 -0.666992 -108.999 -10.1689 -142.999 -28.502s-51 -44.166 -51 -77.499c0 -21.333 7.5 -38.166 22.5 -50.499s34.167 -18.5 57.5 -18.5c31.333 0 58.166 11.167 80.499 33.5
s33.5 52.833 33.5 91.5v50zM116.002 560.499c-22.667 25 -37.001 50.833 -43.001 77.5l31 14c10 -22 24.333 -40.5 43 -55.5s40.334 -22.5 65.001 -22.5s46.5 7.5 65.5 22.5s33.833 33.5 44.5 55.5l29 -14c-6 -26.667 -20.333 -52.5 -43 -77.5s-54.667 -37.5 -96 -37.5
s-73.333 12.5 -96 37.5z" />
    <glyph glyph-name="Aogonek" unicode="&#x104;" horiz-adv-x="578" 
d="M405 196h-236l-57 -196h-77l206 669h94l208 -669h-81zM389 249l-100 345h-4l-100 -345h204zM442.5 -151.5c-12.333 15 -18.502 32.502 -18.502 52.502c0 23.333 7.83301 43.666 23.5 60.999s35.834 30 60.501 38h35c-25.333 -6.66699 -44.166 -15.667 -56.499 -27
s-18.5 -26.333 -18.5 -45c0 -13.333 4 -25.333 12 -36s18.667 -17.334 32 -20.001l-23 -52c-18.667 4 -34.167 13.5 -46.5 28.5z" />
    <glyph glyph-name="aogonek" unicode="&#x105;" horiz-adv-x="446" 
d="M347 -35.5c-7.33301 -9.66699 -11.001 -21.8291 -11.001 -36.4961c0 -13.333 4 -25.333 12 -36s18.667 -17.334 32 -20.001l-23 -52c-18.667 4 -34.167 13.5 -46.5 28.5s-18.5 32.5 -18.5 52.5c0 19.333 5.66699 36.833 17 52.5s26.333 28.167 45 37.5
c-29.333 8 -45 31 -47 69c-14 -25.333 -33.167 -43.833 -57.5 -55.5s-50.833 -17.5 -79.5 -17.5c-38 0 -69.5 10.667 -94.5 32s-37.5 50 -37.5 86c0 56.667 26.833 96.667 80.5 120s114.834 35.666 183.501 36.999v29c0 63.333 -34 95 -102 95
c-20.667 0 -42.167 -3.66699 -64.5 -11s-43.5 -17.333 -63.5 -30v57c46 26.667 94 40 144 40c47.333 0 85.166 -12.5 113.499 -37.5s42.5 -62.167 42.5 -111.5v-189c0 -22.667 2 -39 6 -49s11.667 -15 23 -15c2 0 6.33301 0.666992 13 2v-45
c-13.333 -4.66699 -24.666 -7.33398 -33.999 -8.00098c-14.667 -6.66699 -25.667 -14.834 -33 -24.501zM301.999 214.005c-61.333 -0.666992 -108.999 -10.1689 -142.999 -28.502s-51 -44.166 -51 -77.499c0 -21.333 7.5 -38.166 22.5 -50.499s34.167 -18.5 57.5 -18.5
c31.333 0 58.166 11.167 80.499 33.5s33.5 52.833 33.5 91.5v50z" />
    <glyph glyph-name="Cacute" unicode="&#x106;" horiz-adv-x="549" 
d="M193.5 33.5c-43.667 29.667 -76.3291 70.168 -97.9961 121.501s-32.5 110.333 -32.5 177c0 66 10.333 125.167 31 177.5s52.667 94 96 125s97.666 46.5 162.999 46.5c23.333 0 48.166 -2.66699 74.499 -8s48.833 -12.333 67.5 -21v-66c-19.333 10.667 -41.333 19 -66 25
s-48.334 9 -71.001 9c-64 0 -115.667 -22.333 -155 -67s-59 -117.334 -59 -218.001c0 -102 19.833 -175 59.5 -219s91.834 -66 156.501 -66c22 0 45.167 3.16699 69.5 9.5s46.166 14.5 65.499 24.5v-66c-18.667 -8 -41 -14.833 -67 -20.5s-50 -8.5 -72 -8.5
c-64.667 0 -118.834 14.833 -162.501 44.5zM433.005 886.001v-88l-125 -85h-49z" />
    <glyph glyph-name="cacute" unicode="&#x107;" horiz-adv-x="391" 
d="M144.5 13.5c-31.667 17.667 -56.4971 43.667 -74.4971 78s-27 75.5 -27 123.5c0 46.667 9 87.167 27 121.5s42 60.5 72 78.5s63.333 27 100 27c39.333 0 75.666 -7 108.999 -21v-55c-32 12.667 -62.667 19 -92 19c-42 0 -76.167 -15.5 -102.5 -46.5
s-39.5 -73.167 -39.5 -126.5c0 -54 13.667 -95.5 41 -124.5s63 -43.5 107 -43.5c31.333 0 62.666 5.33301 93.999 16v-56c-13.333 -5.33301 -29.833 -9.5 -49.5 -12.5s-38.5 -4.5 -56.5 -4.5c-40.667 0 -76.834 8.83301 -108.501 26.5zM313.003 686v-88l-124 -85h-49z" />
    <glyph glyph-name="Ccircumflex" unicode="&#x108;" horiz-adv-x="549" 
d="M193.5 33.5c-43.667 29.667 -76.3291 70.168 -97.9961 121.501s-32.5 110.333 -32.5 177c0 66 10.333 125.167 31 177.5s52.667 94 96 125s97.666 46.5 162.999 46.5c23.333 0 48.166 -2.66699 74.499 -8s48.833 -12.333 67.5 -21v-66c-19.333 10.667 -41.333 19 -66 25
s-48.334 9 -71.001 9c-64 0 -115.667 -22.333 -155 -67s-59 -117.334 -59 -218.001c0 -102 19.833 -175 59.5 -219s91.834 -66 156.501 -66c22 0 45.167 3.16699 69.5 9.5s46.166 14.5 65.499 24.5v-66c-18.667 -8 -41 -14.833 -67 -20.5s-50 -8.5 -72 -8.5
c-64.667 0 -118.834 14.833 -162.501 44.5zM304.005 859.001h39l124 -146h-49l-94 85l-95 -85h-49z" />
    <glyph glyph-name="ccircumflex" unicode="&#x109;" horiz-adv-x="391" 
d="M144.5 13.5c-31.667 17.667 -56.4971 43.667 -74.4971 78s-27 75.5 -27 123.5c0 46.667 9 87.167 27 121.5s42 60.5 72 78.5s63.333 27 100 27c39.333 0 75.666 -7 108.999 -21v-55c-32 12.667 -62.667 19 -92 19c-42 0 -76.167 -15.5 -102.5 -46.5
s-39.5 -73.167 -39.5 -126.5c0 -54 13.667 -95.5 41 -124.5s63 -43.5 107 -43.5c31.333 0 62.666 5.33301 93.999 16v-56c-13.333 -5.33301 -29.833 -9.5 -49.5 -12.5s-38.5 -4.5 -56.5 -4.5c-40.667 0 -76.834 8.83301 -108.501 26.5zM203.003 659h38l125 -146h-49l-95 85
l-94 -85h-49z" />
    <glyph glyph-name="Cdotaccent" unicode="&#x10a;" horiz-adv-x="549" 
d="M193.5 33.5c-43.667 29.667 -76.3291 70.168 -97.9961 121.501s-32.5 110.333 -32.5 177c0 66 10.333 125.167 31 177.5s52.667 94 96 125s97.666 46.5 162.999 46.5c23.333 0 48.166 -2.66699 74.499 -8s48.833 -12.333 67.5 -21v-66c-19.333 10.667 -41.333 19 -66 25
s-48.334 9 -71.001 9c-64 0 -115.667 -22.333 -155 -67s-59 -117.334 -59 -218.001c0 -102 19.833 -175 59.5 -219s91.834 -66 156.501 -66c22 0 45.167 3.16699 69.5 9.5s46.166 14.5 65.499 24.5v-66c-18.667 -8 -41 -14.833 -67 -20.5s-50 -8.5 -72 -8.5
c-64.667 0 -118.834 14.833 -162.501 44.5zM289.005 762.001c-10 10 -15 22.333 -15 37s5 26.834 15 36.501s21.667 14.5 35 14.5c14 0 25.833 -4.83301 35.5 -14.5s14.5 -21.834 14.5 -36.501s-5 -27 -15 -37s-21.667 -15 -35 -15s-25 5 -35 15z" />
    <glyph glyph-name="cdotaccent" unicode="&#x10b;" horiz-adv-x="391" 
d="M144.5 13.5c-31.667 17.667 -56.4971 43.667 -74.4971 78s-27 75.5 -27 123.5c0 46.667 9 87.167 27 121.5s42 60.5 72 78.5s63.333 27 100 27c39.333 0 75.666 -7 108.999 -21v-55c-32 12.667 -62.667 19 -92 19c-42 0 -76.167 -15.5 -102.5 -46.5
s-39.5 -73.167 -39.5 -126.5c0 -54 13.667 -95.5 41 -124.5s63 -43.5 107 -43.5c31.333 0 62.666 5.33301 93.999 16v-56c-13.333 -5.33301 -29.833 -9.5 -49.5 -12.5s-38.5 -4.5 -56.5 -4.5c-40.667 0 -76.834 8.83301 -108.501 26.5zM188.003 564.5
c-9.33301 9.66699 -14 21.167 -14 34.5s4.66699 24.833 14 34.5s20.666 14.5 33.999 14.5c12.667 0 23.667 -4.83301 33 -14.5s14 -21.167 14 -34.5s-4.66699 -24.833 -14 -34.5s-20.333 -14.5 -33 -14.5c-13.333 0 -24.666 4.83301 -33.999 14.5z" />
    <glyph glyph-name="Ccaron" unicode="&#x10c;" horiz-adv-x="549" 
d="M193.5 33.5c-43.667 29.667 -76.3291 70.168 -97.9961 121.501s-32.5 110.333 -32.5 177c0 66 10.333 125.167 31 177.5s52.667 94 96 125s97.666 46.5 162.999 46.5c23.333 0 48.166 -2.66699 74.499 -8s48.833 -12.333 67.5 -21v-66c-19.333 10.667 -41.333 19 -66 25
s-48.334 9 -71.001 9c-64 0 -115.667 -22.333 -155 -67s-59 -117.334 -59 -218.001c0 -102 19.833 -175 59.5 -219s91.834 -66 156.501 -66c22 0 45.167 3.16699 69.5 9.5s46.166 14.5 65.499 24.5v-66c-18.667 -8 -41 -14.833 -67 -20.5s-50 -8.5 -72 -8.5
c-64.667 0 -118.834 14.833 -162.501 44.5zM180.005 859.001h49l95 -85l94 85h49l-124 -146h-39z" />
    <glyph glyph-name="ccaron" unicode="&#x10d;" horiz-adv-x="391" 
d="M144.5 13.5c-31.667 17.667 -56.4971 43.667 -74.4971 78s-27 75.5 -27 123.5c0 46.667 9 87.167 27 121.5s42 60.5 72 78.5s63.333 27 100 27c39.333 0 75.666 -7 108.999 -21v-55c-32 12.667 -62.667 19 -92 19c-42 0 -76.167 -15.5 -102.5 -46.5
s-39.5 -73.167 -39.5 -126.5c0 -54 13.667 -95.5 41 -124.5s63 -43.5 107 -43.5c31.333 0 62.666 5.33301 93.999 16v-56c-13.333 -5.33301 -29.833 -9.5 -49.5 -12.5s-38.5 -4.5 -56.5 -4.5c-40.667 0 -76.834 8.83301 -108.501 26.5zM79.0029 659h49l94 -85l95 85h49
l-125 -146h-38z" />
    <glyph glyph-name="Dcaron" unicode="&#x10e;" horiz-adv-x="630" 
d="M105 669h150.002c97.333 0 173.666 -28.5 228.999 -85.5s83 -136.833 83 -239.5c0 -109.333 -24.333 -194 -73 -254s-124.334 -90 -227.001 -90h-162v669zM250.002 59c83.333 0 143.5 23.168 180.5 69.501s55.5 115.166 55.5 206.499c0 186.667 -84.667 280 -254 280h-50
v-556h68zM111.002 859.001h49l95 -85l94 85h49l-124 -146h-39z" />
    <glyph glyph-name="dcaron" unicode="&#x10f;" horiz-adv-x="505" 
d="M129 15c-25.333 18.667 -45.332 45.166 -59.999 79.499s-22 73.833 -22 118.5c0 40.667 6.5 78.334 19.5 113.001s32.167 62.667 57.5 84s56 32 92 32c26 0 50.833 -6.66699 74.5 -20s41.5 -32 53.5 -56v303h70v-565c0 -22.667 2 -39 6 -49s11.667 -15 23 -15
c2.66699 0 6.66699 0.666992 12 2v-45c-14.667 -5.33301 -28.334 -8 -41.001 -8c-18.667 0 -34 5.83301 -46 17.5s-19.333 29.167 -22 52.5v16c-14.667 -29.333 -33.5 -51.333 -56.5 -66s-47.833 -22 -74.5 -22c-32 0 -60.667 9.33301 -86 28zM288.001 65.999
c17.333 14 31.333 34.667 42 62s16 59.333 16 96c0 33.333 -5.33301 62.166 -16 86.499s-24.5 42.833 -41.5 55.5s-35.5 19 -55.5 19c-34 0 -61.333 -17 -82 -51s-31 -74.667 -31 -122c0 -34 5 -63.667 15 -89s23.5 -44.666 40.5 -57.999s35.5 -20 55.5 -20
c20.667 0 39.667 7 57 21zM497.001 668.999h64l-37 -217h-34z" />
    <glyph glyph-name="Dcroat" unicode="&#x110;" horiz-adv-x="647" 
d="M88.5 13.5c-9 9 -13.5 19.833 -13.5 32.5v578c0 12.667 4.5 23.334 13.5 32.001s19.833 13 32.5 13h406c12.667 0 23.334 -4.33301 32.001 -13s13 -19.334 13 -32.001v-578c0 -12.667 -4.33301 -23.5 -13 -32.5s-19.334 -13.5 -32.001 -13.5h-406
c-12.667 0 -23.5 4.5 -32.5 13.5zM493 618h-338l169 -248zM299 335l-173 256v-511zM522 590l-174 -255l174 -256v511zM492 51l-168 248l-169 -248h337z" />
    <glyph glyph-name="dcroat" unicode="&#x111;" horiz-adv-x="492" 
d="M414 530l0.000976562 -426.001c0 -22.667 2 -39 6 -49s11.667 -15 23 -15c2.66699 0 6.66699 0.666992 12 2v-45c-14.667 -5.33301 -28.334 -8 -41.001 -8c-18.667 0 -34 5.83301 -46 17.5s-19.333 29.167 -22 52.5v16c-14.667 -29.333 -33.5 -51.333 -56.5 -66
s-47.833 -22 -74.5 -22c-32 0 -60.667 9.33301 -86 28s-45.333 45.167 -60 79.5s-22 73.833 -22 118.5c0 40.667 6.5 78.334 19.5 113.001s32.167 62.667 57.5 84s56 32 92 32c26 0 50.833 -6.66699 74.5 -20s41.5 -32 53.5 -56v164h-89v31h89v108h70v-108h101l-31 -31h-70z
M288.001 65.999c17.333 14 31.333 34.667 42 62s16 59.333 16 96c0 33.333 -5.33301 62.166 -16 86.499s-24.5 42.833 -41.5 55.5s-35.5 19 -55.5 19c-34 0 -61.333 -17 -82 -51s-31 -74.667 -31 -122c0 -34 5 -63.667 15 -89s23.5 -44.666 40.5 -57.999s35.5 -20 55.5 -20
c20.667 0 39.667 7 57 21z" />
    <glyph glyph-name="Emacron" unicode="&#x112;" horiz-adv-x="521" 
d="M476 59v-59h-371v669h359v-54h-283v-236h211v-53h-211v-267h295zM167 844h240l-11 -53h-240z" />
    <glyph glyph-name="emacron" unicode="&#x113;" horiz-adv-x="428" 
d="M347.5 374c29 -45.333 42.4971 -103 40.4971 -173h-275c2.66699 -50.667 17.834 -89.667 45.501 -117s62.5 -41 104.5 -41c20.667 0 38.5 1.83301 53.5 5.5s30.167 9.16699 45.5 16.5l-1 -54c-29.333 -16 -65.666 -24 -108.999 -24
c-63.333 0 -114.166 20.5 -152.499 61.5s-57.5 97.167 -57.5 168.5c0 43.333 7.33301 82 22 116s35.5 60.667 62.5 80s58.5 29 94.5 29c55.333 0 97.5 -22.667 126.5 -68zM148.997 352c-19.333 -24.667 -31.001 -60.332 -35.001 -106.999h205
c-1.33301 43.333 -10.5 78.166 -27.5 104.499s-40.167 39.5 -69.5 39.5s-53.666 -12.333 -72.999 -37zM107.996 622.002h220l-9 -49h-220z" />
    <glyph glyph-name="Ebreve" unicode="&#x114;" horiz-adv-x="521" 
d="M476 59v-59h-371v669h359v-54h-283v-236h211v-53h-211v-267h295zM186 760.5c-22.667 25 -37.001 50.833 -43.001 77.5l31 14c10 -22 24.333 -40.5 43 -55.5s40.334 -22.5 65.001 -22.5s46.5 7.5 65.5 22.5s33.833 33.5 44.5 55.5l29 -14
c-6 -26.667 -20.333 -52.5 -43 -77.5s-54.667 -37.5 -96 -37.5s-73.333 12.5 -96 37.5z" />
    <glyph glyph-name="ebreve" unicode="&#x115;" horiz-adv-x="428" 
d="M347.5 374c29 -45.333 42.4971 -103 40.4971 -173h-275c2.66699 -50.667 17.834 -89.667 45.501 -117s62.5 -41 104.5 -41c20.667 0 38.5 1.83301 53.5 5.5s30.167 9.16699 45.5 16.5l-1 -54c-29.333 -16 -65.666 -24 -108.999 -24
c-63.333 0 -114.166 20.5 -152.499 61.5s-57.5 97.167 -57.5 168.5c0 43.333 7.33301 82 22 116s35.5 60.667 62.5 80s58.5 29 94.5 29c55.333 0 97.5 -22.667 126.5 -68zM148.997 352c-19.333 -24.667 -31.001 -60.332 -35.001 -106.999h205
c-1.33301 43.333 -10.5 78.166 -27.5 104.499s-40.167 39.5 -69.5 39.5s-53.666 -12.333 -72.999 -37zM117.996 560.502c-22.667 25 -37.001 50.833 -43.001 77.5l31 14c10 -22 24.333 -40.5 43 -55.5s40.334 -22.5 65.001 -22.5s46.5 7.5 65.5 22.5s33.833 33.5 44.5 55.5
l29 -14c-6 -26.667 -20.333 -52.5 -43 -77.5s-54.667 -37.5 -96 -37.5s-73.333 12.5 -96 37.5z" />
    <glyph glyph-name="Edotaccent" unicode="&#x116;" horiz-adv-x="521" 
d="M476 59v-59h-371v669h359v-54h-283v-236h211v-53h-211v-267h295zM247 762c-10 10 -15 22.333 -15 37s5 26.834 15 36.501s21.667 14.5 35 14.5c14 0 25.833 -4.83301 35.5 -14.5s14.5 -21.834 14.5 -36.501s-5 -27 -15 -37s-21.667 -15 -35 -15s-25 5 -35 15z" />
    <glyph glyph-name="edotaccent" unicode="&#x117;" horiz-adv-x="428" 
d="M347.5 374c29 -45.333 42.4971 -103 40.4971 -173h-275c2.66699 -50.667 17.834 -89.667 45.501 -117s62.5 -41 104.5 -41c20.667 0 38.5 1.83301 53.5 5.5s30.167 9.16699 45.5 16.5l-1 -54c-29.333 -16 -65.666 -24 -108.999 -24
c-63.333 0 -114.166 20.5 -152.499 61.5s-57.5 97.167 -57.5 168.5c0 43.333 7.33301 82 22 116s35.5 60.667 62.5 80s58.5 29 94.5 29c55.333 0 97.5 -22.667 126.5 -68zM148.997 352c-19.333 -24.667 -31.001 -60.332 -35.001 -106.999h205
c-1.33301 43.333 -10.5 78.166 -27.5 104.499s-40.167 39.5 -69.5 39.5s-53.666 -12.333 -72.999 -37zM179.996 564.502c-9.33301 9.66699 -14 21.167 -14 34.5s4.66699 24.833 14 34.5s20.666 14.5 33.999 14.5c12.667 0 23.667 -4.83301 33 -14.5s14 -21.167 14 -34.5
s-4.66699 -24.833 -14 -34.5s-20.333 -14.5 -33 -14.5c-13.333 0 -24.666 4.83301 -33.999 14.5z" />
    <glyph glyph-name="Eogonek" unicode="&#x118;" horiz-adv-x="521" 
d="M476 59v-59h-371v669h359v-54h-283v-236h211v-53h-211v-267h295zM375.5 -151.5c-12.333 15 -18.502 32.502 -18.502 52.502c0 23.333 7.83301 43.666 23.5 60.999s35.834 30 60.501 38h35c-25.333 -6.66699 -44.166 -15.667 -56.499 -27s-18.5 -26.333 -18.5 -45
c0 -13.333 4 -25.333 12 -36s18.667 -17.334 32 -20.001l-23 -52c-18.667 4 -34.167 13.5 -46.5 28.5z" />
    <glyph glyph-name="eogonek" unicode="&#x119;" horiz-adv-x="428" 
d="M347.5 374c29 -45.333 42.499 -102.999 40.499 -172.999h-275c2.66699 -50.667 17.834 -89.667 45.501 -117s62.5 -41 104.5 -41c20.667 0 38.5 1.83301 53.5 5.5s30.167 9.16699 45.5 16.5l-1 -54c-27.333 -14.667 -61 -22.667 -101 -24c-26 -13.333 -39 -33 -39 -59
c0 -13.333 4 -25.333 12 -36s18.667 -17.334 32 -20.001l-23 -52c-18.667 4 -34.167 13.5 -46.5 28.5s-18.5 32.5 -18.5 52.5c0 36.667 18.667 65.667 56 87c-58 4 -104.333 26.333 -139 67s-52 94.667 -52 162c0 43.333 7.33301 82 22 116s35.5 60.667 62.5 80
s58.5 29 94.5 29c55.333 0 97.5 -22.667 126.5 -68zM148.999 352.001c-19.333 -24.667 -31.001 -60.332 -35.001 -106.999h205c-1.33301 43.333 -10.5 78.166 -27.5 104.499s-40.167 39.5 -69.5 39.5s-53.666 -12.333 -72.999 -37z" />
    <glyph glyph-name="Ecaron" unicode="&#x11a;" horiz-adv-x="521" 
d="M476 59v-59h-371v669h359v-54h-283v-236h211v-53h-211v-267h295zM138 859h49l95 -85l94 85h49l-124 -146h-39z" />
    <glyph glyph-name="ecaron" unicode="&#x11b;" horiz-adv-x="428" 
d="M347.5 374c29 -45.333 42.4971 -103 40.4971 -173h-275c2.66699 -50.667 17.834 -89.667 45.501 -117s62.5 -41 104.5 -41c20.667 0 38.5 1.83301 53.5 5.5s30.167 9.16699 45.5 16.5l-1 -54c-29.333 -16 -65.666 -24 -108.999 -24
c-63.333 0 -114.166 20.5 -152.499 61.5s-57.5 97.167 -57.5 168.5c0 43.333 7.33301 82 22 116s35.5 60.667 62.5 80s58.5 29 94.5 29c55.333 0 97.5 -22.667 126.5 -68zM148.997 352c-19.333 -24.667 -31.001 -60.332 -35.001 -106.999h205
c-1.33301 43.333 -10.5 78.166 -27.5 104.499s-40.167 39.5 -69.5 39.5s-53.666 -12.333 -72.999 -37zM70.9961 659.002h49l94 -85l95 85h49l-125 -146h-38z" />
    <glyph glyph-name="Gcircumflex" unicode="&#x11c;" horiz-adv-x="627" 
d="M194 30c-41.333 26.667 -73.5 65.999 -96.5 117.999s-34.5 114.333 -34.5 187c0 68.667 11.5 129.167 34.5 181.5s56.333 92.833 100 121.5s95.5 43 155.5 43c22.667 0 47.167 -2.66699 73.5 -8s48.833 -12.333 67.5 -21v-66c-20 10.667 -42.5 19 -67.5 25
s-48.833 9 -71.5 9c-62.667 0 -113.334 -22.333 -152.001 -67s-58 -116.667 -58 -216c0 -102 18.667 -175.333 56 -220s85 -67 143 -67c27.333 0 53 4.5 77 13.5s42.667 21.833 56 38.5v205h-113v53h188v-289c-26.667 -26.667 -59.167 -47 -97.5 -61
s-77.166 -21 -116.499 -21c-54.667 0.666992 -102.667 14.334 -144 41.001zM291 858.999h39l124 -146h-49l-94 85l-95 -85h-49z" />
    <glyph glyph-name="gcircumflex" unicode="&#x11d;" horiz-adv-x="479" 
d="M88 -199v59.001c35.333 -16.667 74.333 -25 117 -25c40 0 71.667 9.83301 95 29.5s35 55.167 35 106.5v83c-12.667 -22.667 -29.834 -40 -51.501 -52s-44.5 -18 -68.5 -18c-36 0 -66.833 10.333 -92.5 31s-45 48 -58 82s-19.5 71.333 -19.5 112c0 46 8.5 86.667 25.5 122
s40.833 62.666 71.5 81.999s66.334 29 107.001 29c30.667 0 63.667 -6 99 -18h57v-457c0 -68 -17.667 -117 -53 -147s-80.666 -45 -135.999 -45c-48.667 0 -91.334 8.66699 -128.001 26zM283.5 59.501c16.333 11.667 29.333 28.167 39 49.5s14.5 46.333 14.5 75v183
c-20.667 14.667 -48 22 -82 22c-42.667 0 -76.167 -15.833 -100.5 -47.5s-36.5 -76.167 -36.5 -133.5c0 -46.667 10 -86 30 -118s48 -48 84 -48c18 0 35.167 5.83301 51.5 17.5zM228 659.001h38l125 -146h-49l-95 85l-94 -85h-49z" />
    <glyph glyph-name="Gbreve" unicode="&#x11e;" horiz-adv-x="627" 
d="M194 30c-41.333 26.667 -73.5 65.999 -96.5 117.999s-34.5 114.333 -34.5 187c0 68.667 11.5 129.167 34.5 181.5s56.333 92.833 100 121.5s95.5 43 155.5 43c22.667 0 47.167 -2.66699 73.5 -8s48.833 -12.333 67.5 -21v-66c-20 10.667 -42.5 19 -67.5 25
s-48.833 9 -71.5 9c-62.667 0 -113.334 -22.333 -152.001 -67s-58 -116.667 -58 -216c0 -102 18.667 -175.333 56 -220s85 -67 143 -67c27.333 0 53 4.5 77 13.5s42.667 21.833 56 38.5v205h-113v53h188v-289c-26.667 -26.667 -59.167 -47 -97.5 -61
s-77.166 -21 -116.499 -21c-54.667 0.666992 -102.667 14.334 -144 41.001zM215 760.499c-22.667 25 -37.001 50.833 -43.001 77.5l31 14c10 -22 24.333 -40.5 43 -55.5s40.334 -22.5 65.001 -22.5s46.5 7.5 65.5 22.5s33.833 33.5 44.5 55.5l29 -14
c-6 -26.667 -20.333 -52.5 -43 -77.5s-54.667 -37.5 -96 -37.5s-73.333 12.5 -96 37.5z" />
    <glyph glyph-name="gbreve" unicode="&#x11f;" horiz-adv-x="479" 
d="M88 -199v59.001c35.333 -16.667 74.333 -25 117 -25c40 0 71.667 9.83301 95 29.5s35 55.167 35 106.5v83c-12.667 -22.667 -29.834 -40 -51.501 -52s-44.5 -18 -68.5 -18c-36 0 -66.833 10.333 -92.5 31s-45 48 -58 82s-19.5 71.333 -19.5 112c0 46 8.5 86.667 25.5 122
s40.833 62.666 71.5 81.999s66.334 29 107.001 29c30.667 0 63.667 -6 99 -18h57v-457c0 -68 -17.667 -117 -53 -147s-80.666 -45 -135.999 -45c-48.667 0 -91.334 8.66699 -128.001 26zM283.5 59.501c16.333 11.667 29.333 28.167 39 49.5s14.5 46.333 14.5 75v183
c-20.667 14.667 -48 22 -82 22c-42.667 0 -76.167 -15.833 -100.5 -47.5s-36.5 -76.167 -36.5 -133.5c0 -46.667 10 -86 30 -118s48 -48 84 -48c18 0 35.167 5.83301 51.5 17.5zM151 560.501c-22.667 25 -37.001 50.833 -43.001 77.5l31 14c10 -22 24.333 -40.5 43 -55.5
s40.334 -22.5 65.001 -22.5s46.5 7.5 65.5 22.5s33.833 33.5 44.5 55.5l29 -14c-6 -26.667 -20.333 -52.5 -43 -77.5s-54.667 -37.5 -96 -37.5s-73.333 12.5 -96 37.5z" />
    <glyph glyph-name="Gdotaccent" unicode="&#x120;" horiz-adv-x="627" 
d="M194 30c-41.333 26.667 -73.5 65.999 -96.5 117.999s-34.5 114.333 -34.5 187c0 68.667 11.5 129.167 34.5 181.5s56.333 92.833 100 121.5s95.5 43 155.5 43c22.667 0 47.167 -2.66699 73.5 -8s48.833 -12.333 67.5 -21v-66c-20 10.667 -42.5 19 -67.5 25
s-48.833 9 -71.5 9c-62.667 0 -113.334 -22.333 -152.001 -67s-58 -116.667 -58 -216c0 -102 18.667 -175.333 56 -220s85 -67 143 -67c27.333 0 53 4.5 77 13.5s42.667 21.833 56 38.5v205h-113v53h188v-289c-26.667 -26.667 -59.167 -47 -97.5 -61
s-77.166 -21 -116.499 -21c-54.667 0.666992 -102.667 14.334 -144 41.001zM276 761.999c-10 10 -15 22.333 -15 37s5 26.834 15 36.501s21.667 14.5 35 14.5c14 0 25.833 -4.83301 35.5 -14.5s14.5 -21.834 14.5 -36.501s-5 -27 -15 -37s-21.667 -15 -35 -15s-25 5 -35 15z
" />
    <glyph glyph-name="gdotaccent" unicode="&#x121;" horiz-adv-x="479" 
d="M88 -199v59.001c35.333 -16.667 74.333 -25 117 -25c40 0 71.667 9.83301 95 29.5s35 55.167 35 106.5v83c-12.667 -22.667 -29.834 -40 -51.501 -52s-44.5 -18 -68.5 -18c-36 0 -66.833 10.333 -92.5 31s-45 48 -58 82s-19.5 71.333 -19.5 112c0 46 8.5 86.667 25.5 122
s40.833 62.666 71.5 81.999s66.334 29 107.001 29c30.667 0 63.667 -6 99 -18h57v-457c0 -68 -17.667 -117 -53 -147s-80.666 -45 -135.999 -45c-48.667 0 -91.334 8.66699 -128.001 26zM283.5 59.501c16.333 11.667 29.333 28.167 39 49.5s14.5 46.333 14.5 75v183
c-20.667 14.667 -48 22 -82 22c-42.667 0 -76.167 -15.833 -100.5 -47.5s-36.5 -76.167 -36.5 -133.5c0 -46.667 10 -86 30 -118s48 -48 84 -48c18 0 35.167 5.83301 51.5 17.5zM213 564.501c-9.33301 9.66699 -14 21.167 -14 34.5s4.66699 24.833 14 34.5
s20.666 14.5 33.999 14.5c12.667 0 23.667 -4.83301 33 -14.5s14 -21.167 14 -34.5s-4.66699 -24.833 -14 -34.5s-20.333 -14.5 -33 -14.5c-13.333 0 -24.666 4.83301 -33.999 14.5z" />
    <glyph glyph-name="uni0122" unicode="&#x122;" horiz-adv-x="627" 
d="M194 30c-41.333 26.667 -73.5 65.999 -96.5 117.999s-34.5 114.333 -34.5 187c0 68.667 11.5 129.167 34.5 181.5s56.333 92.833 100 121.5s95.5 43 155.5 43c22.667 0 47.167 -2.66699 73.5 -8s48.833 -12.333 67.5 -21v-66c-20 10.667 -42.5 19 -67.5 25
s-48.833 9 -71.5 9c-62.667 0 -113.334 -22.333 -152.001 -67s-58 -116.667 -58 -216c0 -102 18.667 -175.333 56 -220s85 -67 143 -67c27.333 0 53 4.5 77 13.5s42.667 21.833 56 38.5v205h-113v53h188v-289c-26.667 -26.667 -59.167 -47 -97.5 -61
s-77.166 -21 -116.499 -21c-54.667 0.666992 -102.667 14.334 -144 41.001zM289 -224.001c23.333 12 43.168 27.333 59.501 46s24.5 39 24.5 61c0 2 -0.666992 6.33301 -2 13c-4 -10.667 -9.66699 -18.5 -17 -23.5s-15 -7.5 -23 -7.5
c-12.667 0 -23.334 4.83301 -32.001 14.5s-13 20.167 -13 31.5c0 13.333 5.16699 24.666 15.5 33.999s21.833 14 34.5 14c18.667 0 33.5 -7.16699 44.5 -21.5s16.5 -31.166 16.5 -50.499c0 -28 -9.16699 -53.5 -27.5 -76.5s-41.5 -41.167 -69.5 -54.5z" />
    <glyph glyph-name="uni0123" unicode="&#x123;" horiz-adv-x="479" 
d="M300 662c-23.333 -12 -43.168 -27.333 -59.501 -46s-24.5 -39 -24.5 -61c0 -2 0.666992 -6.33301 2 -13c4 10.667 9.66699 18.5 17 23.5s15 7.5 23 7.5c12.667 0 23.334 -4.83301 32.001 -14.5s13 -20.167 13 -31.5c0 -13.333 -5.16699 -24.666 -15.5 -33.999
s-21.833 -14 -34.5 -14c-18.667 0 -33.5 7.16699 -44.5 21.5s-16.5 31.166 -16.5 50.499c0 28 9.16699 53.5 27.5 76.5s41.5 41.167 69.5 54.5zM87.998 -199v59.001c35.333 -16.667 74.333 -25 117 -25c40 0 71.667 9.83301 95 29.5s35 55.167 35 106.5v83
c-12.667 -22.667 -29.834 -40 -51.501 -52s-44.5 -18 -68.5 -18c-36 0 -66.833 10.333 -92.5 31s-45 48 -58 82s-19.5 71.333 -19.5 112c0 46 8.5 86.667 25.5 122s40.833 62.666 71.5 81.999s66.334 29 107.001 29c30.667 0 63.667 -6 99 -18h57v-457
c0 -68 -17.667 -117 -53 -147s-80.666 -45 -135.999 -45c-48.667 0 -91.334 8.66699 -128.001 26zM283.498 59.501c16.333 11.667 29.333 28.167 39 49.5s14.5 46.333 14.5 75v183c-20.667 14.667 -48 22 -82 22c-42.667 0 -76.167 -15.833 -100.5 -47.5
s-36.5 -76.167 -36.5 -133.5c0 -46.667 10 -86 30 -118s48 -48 84 -48c18 0 35.167 5.83301 51.5 17.5z" />
    <glyph glyph-name="Itilde" unicode="&#x128;" horiz-adv-x="286" 
d="M105 669h76v-669h-76v669zM-7 769c9.33301 22 22.1641 39.833 38.4971 53.5s35.833 20.5 58.5 20.5c12.667 0 24.5 -2.16699 35.5 -6.5s24.833 -10.833 41.5 -19.5c12 -7.33301 22.333 -12.833 31 -16.5s17.667 -5.5 27 -5.5c12.667 0 23.667 4.16699 33 12.5
s16 18.833 20 31.5l14 -31c-21.333 -44 -52.666 -66 -93.999 -66c-12 0 -23.167 1.83301 -33.5 5.5s-19.666 7.66699 -27.999 12l-16.5 8.5c-24 14 -43 21 -57 21c-13.333 0 -24.666 -4.33301 -33.999 -13s-16 -20 -20 -34z" />
    <glyph glyph-name="itilde" unicode="&#x129;" horiz-adv-x="240" 
d="M85 424h70v-424h-70v424zM-19 569c20.667 49.333 52.6689 73.999 96.002 73.999c12.667 0 24.5 -2.16699 35.5 -6.5s24.833 -10.833 41.5 -19.5c12 -7.33301 22.5 -12.833 31.5 -16.5s18.167 -5.5 27.5 -5.5c12 0 22.667 4.16699 32 12.5s16.333 18.833 21 31.5l14 -31
c-21.333 -44 -52.666 -66 -93.999 -66c-13.333 0 -26 2.33301 -38 7s-25.333 11 -40 19c-12.667 6.66699 -23.334 11.834 -32.001 15.501s-17.334 5.5 -26.001 5.5c-12.667 0 -23.834 -4.33301 -33.501 -13s-16.5 -20 -20.5 -34z" />
    <glyph glyph-name="Imacron" unicode="&#x12a;" horiz-adv-x="286" 
d="M105 669h76v-669h-76v669zM28 844h240l-11 -53h-240z" />
    <glyph glyph-name="imacron" unicode="&#x12b;" horiz-adv-x="240" 
d="M85 424h70v-424h-70v424zM14 622h220l-9 -49h-220z" />
    <glyph glyph-name="Ibreve" unicode="&#x12c;" horiz-adv-x="286" 
d="M105 669h76v-669h-76v669zM47 760.5c-22.667 25 -37.001 50.833 -43.001 77.5l31 14c10 -22 24.333 -40.5 43 -55.5s40.334 -22.5 65.001 -22.5s46.5 7.5 65.5 22.5s33.833 33.5 44.5 55.5l29 -14c-6 -26.667 -20.333 -52.5 -43 -77.5s-54.667 -37.5 -96 -37.5
s-73.333 12.5 -96 37.5z" />
    <glyph glyph-name="ibreve" unicode="&#x12d;" horiz-adv-x="240" 
d="M85 424h70v-424h-70v424zM24 560.5c-22.667 25 -37.001 50.833 -43.001 77.5l31 14c10 -22 24.333 -40.5 43 -55.5s40.334 -22.5 65.001 -22.5s46.5 7.5 65.5 22.5s33.833 33.5 44.5 55.5l29 -14c-6 -26.667 -20.333 -52.5 -43 -77.5s-54.667 -37.5 -96 -37.5
s-73.333 12.5 -96 37.5z" />
    <glyph glyph-name="Iogonek" unicode="&#x12e;" horiz-adv-x="286" 
d="M105 669h76v-669h-76v669zM80.5 -151.5c-12.333 15 -18.502 32.502 -18.502 52.502c0 23.333 7.83301 43.666 23.5 60.999s35.834 30 60.501 38h35c-25.333 -6.66699 -44.166 -15.667 -56.499 -27s-18.5 -26.333 -18.5 -45c0 -13.333 4 -25.333 12 -36
s18.667 -17.334 32 -20.001l-23 -52c-18.667 4 -34.167 13.5 -46.5 28.5z" />
    <glyph glyph-name="iogonek" unicode="&#x12f;" horiz-adv-x="240" 
d="M85 424h70v-424h-70v424zM86 564.5c-9.33301 9.66699 -14 21.167 -14 34.5s4.66699 24.833 14 34.5s20.666 14.5 33.999 14.5c12.667 0 23.667 -4.83301 33 -14.5s14 -21.167 14 -34.5s-4.66699 -24.833 -14 -34.5s-20.333 -14.5 -33 -14.5
c-13.333 0 -24.666 4.83301 -33.999 14.5zM54.5 -151.5c-12.333 15 -18.502 32.502 -18.502 52.502c0 23.333 7.83301 43.666 23.5 60.999s35.834 30 60.501 38h35c-25.333 -6.66699 -44.166 -15.667 -56.499 -27s-18.5 -26.333 -18.5 -45c0 -13.333 4 -25.333 12 -36
s18.667 -17.334 32 -20.001l-23 -52c-18.667 4 -34.167 13.5 -46.5 28.5z" />
    <glyph glyph-name="uni0130" unicode="&#x130;" horiz-adv-x="286" 
d="M105 669h76v-669h-76v669zM108 762c-10 10 -15 22.333 -15 37s5 26.834 15 36.501s21.667 14.5 35 14.5c14 0 25.833 -4.83301 35.5 -14.5s14.5 -21.834 14.5 -36.501s-5 -27 -15 -37s-21.667 -15 -35 -15s-25 5 -35 15z" />
    <glyph glyph-name="dotlessi" unicode="&#x131;" horiz-adv-x="240" 
d="M85 424h70v-424h-70v424z" />
    <glyph glyph-name="IJ" unicode="&#x132;" horiz-adv-x="621" 
d="M105 669h76v-669h-76v669zM286 2l0.000976562 64c27.333 -12 52.333 -18 75 -18c28 0 48.5 8.33301 61.5 25s19.5 45 19.5 85v511h77v-517c0 -56 -12.833 -97.5 -38.5 -124.5s-61.834 -40.5 -108.501 -40.5c-31.333 0 -60 5 -86 15z" />
    <glyph glyph-name="ij" unicode="&#x133;" horiz-adv-x="449" 
d="M79.5 588c-8.33301 8.66699 -12.5 18.667 -12.5 30c0 12.667 4.16699 23.667 12.5 33s18.166 14 29.499 14c10.667 0 20.167 -4.66699 28.5 -14s12.5 -20.333 12.5 -33c0 -11.333 -4.16699 -21.333 -12.5 -30s-17.833 -13 -28.5 -13
c-11.333 0 -21.166 4.33301 -29.499 13zM74 424h70v-424h-70v424zM303.5 588c-8.33301 8.66699 -12.5 18.667 -12.5 30c0 12.667 4.16699 23.667 12.5 33s18.166 14 29.499 14s21.166 -4.66699 29.499 -14s12.5 -20.333 12.5 -33c0 -11.333 -4.16699 -21.333 -12.5 -30
s-18.166 -13 -29.499 -13s-21.166 4.33301 -29.499 13zM187 -214v52c18 -6 35.333 -9 52 -9c20 0 35 6.83301 45 20.5s15 37.5 15 71.5v503h70v-496c0 -102 -39.667 -153 -119 -153c-22 0 -43 3.66699 -63 11z" />
    <glyph glyph-name="uni0136" unicode="&#x136;" horiz-adv-x="585" 
d="M553 0h-93l-278 346v-346h-77v669h77v-310l242 310h85l-246 -310zM249 -224c23.333 12 43.168 27.333 59.501 46s24.5 39 24.5 61c0 2 -0.666992 6.33301 -2 13c-4 -10.667 -9.66699 -18.5 -17 -23.5s-15 -7.5 -23 -7.5c-12.667 0 -23.334 4.83301 -32.001 14.5
s-13 20.167 -13 31.5c0 13.333 5.16699 24.666 15.5 33.999s21.833 14 34.5 14c18.667 0 33.5 -7.16699 44.5 -21.5s16.5 -31.166 16.5 -50.499c0 -28 -9.16699 -53.5 -27.5 -76.5s-41.5 -41.167 -69.5 -54.5z" />
    <glyph glyph-name="uni0137" unicode="&#x137;" horiz-adv-x="425" 
d="M380 58c15.333 -12.667 29.667 -19.333 43 -20v-51c-30 0 -56.5 7.33301 -79.5 22s-52.167 43 -87.5 85l-112 131v-225h-70v669h70v-422l171 177h82l-181 -185l108 -124c22 -25.333 40.667 -44.333 56 -57zM209.001 -223.999c23.333 12 43.168 27.333 59.501 46
s24.5 39 24.5 61c0 2 -0.666992 6.33301 -2 13c-4 -10.667 -9.66699 -18.5 -17 -23.5s-15 -7.5 -23 -7.5c-12.667 0 -23.334 4.83301 -32.001 14.5s-13 20.167 -13 31.5c0 13.333 5.16699 24.666 15.5 33.999s21.833 14 34.5 14c18.667 0 33.5 -7.16699 44.5 -21.5
s16.5 -31.166 16.5 -50.499c0 -28 -9.16699 -53.5 -27.5 -76.5s-41.5 -41.167 -69.5 -54.5z" />
    <glyph glyph-name="Lacute" unicode="&#x139;" horiz-adv-x="481" 
d="M444 59v-59h-339v669h76v-610h263zM250 886v-88l-125 -85h-49z" />
    <glyph glyph-name="lacute" unicode="&#x13a;" horiz-adv-x="220" 
d="M95.5 14.5c-15.667 18.333 -23.499 50.1689 -23.499 95.502v559h70v-560c0 -28.667 3 -47.834 9 -57.501s16 -14.834 30 -15.501c3.33301 0 6 0.333008 8 1v-49c-5.33301 -0.666992 -14.333 -1 -27 -1c-28.667 0 -50.834 9.16699 -66.501 27.5zM214.001 886.003v-88
l-125 -85h-49z" />
    <glyph glyph-name="uni013B" unicode="&#x13b;" horiz-adv-x="481" 
d="M444 59v-59h-339v669h76v-610h263zM214 -224c23.333 12 43.168 27.333 59.501 46s24.5 39 24.5 61c0 2 -0.666992 6.33301 -2 13c-4 -10.667 -9.66699 -18.5 -17 -23.5s-15 -7.5 -23 -7.5c-12.667 0 -23.334 4.83301 -32.001 14.5s-13 20.167 -13 31.5
c0 13.333 5.16699 24.666 15.5 33.999s21.833 14 34.5 14c18.667 0 33.5 -7.16699 44.5 -21.5s16.5 -31.166 16.5 -50.499c0 -28 -9.16699 -53.5 -27.5 -76.5s-41.5 -41.167 -69.5 -54.5z" />
    <glyph glyph-name="uni013C" unicode="&#x13c;" horiz-adv-x="220" 
d="M95.5 14.5c-15.667 18.333 -23.499 50.1689 -23.499 95.502v559h70v-560c0 -28.667 3 -47.834 9 -57.501s16 -14.834 30 -15.501c3.33301 0 6 0.333008 8 1v-49c-5.33301 -0.666992 -14.333 -1 -27 -1c-28.667 0 -50.834 9.16699 -66.501 27.5zM97.001 -223.997
c23.333 12 43.168 27.333 59.501 46s24.5 39 24.5 61c0 2 -0.666992 6.33301 -2 13c-4 -10.667 -9.66699 -18.5 -17 -23.5s-15 -7.5 -23 -7.5c-12.667 0 -23.334 4.83301 -32.001 14.5s-13 20.167 -13 31.5c0 13.333 5.16699 24.666 15.5 33.999s21.833 14 34.5 14
c18.667 0 33.5 -7.16699 44.5 -21.5s16.5 -31.166 16.5 -50.499c0 -28 -9.16699 -53.5 -27.5 -76.5s-41.5 -41.167 -69.5 -54.5z" />
    <glyph glyph-name="Ldot" unicode="&#x13f;" horiz-adv-x="501" 
d="M444 59v-59h-339v669h76v-610h263zM330 298.5c-10 10.333 -15 23.168 -15 38.501s5 28.333 15 39s22.333 16 37 16c14 0 26.167 -5.33301 36.5 -16s15.5 -23.667 15.5 -39c0 -14.667 -5.16699 -27.334 -15.5 -38.001s-22.5 -16 -36.5 -16c-14.667 0 -27 5.16699 -37 15.5
z" />
    <glyph glyph-name="ldot" unicode="&#x140;" horiz-adv-x="375" 
d="M95.5 14.5c-15.667 18.333 -23.499 50.1689 -23.499 95.502v559h70v-560c0 -28.667 3 -47.834 9 -57.501s16 -14.834 30 -15.501c3.33301 0 6 0.333008 8 1v-49c-5.33301 -0.666992 -14.333 -1 -27 -1c-28.667 0 -50.834 9.16699 -66.501 27.5zM241.001 232.503
c-10 10.333 -15 23.168 -15 38.501s5 28.333 15 39s22.333 16 37 16c14 0 26.167 -5.33301 36.5 -16s15.5 -23.667 15.5 -39c0 -14.667 -5.16699 -27.334 -15.5 -38.001s-22.5 -16 -36.5 -16c-14.667 0 -27 5.16699 -37 15.5z" />
    <glyph glyph-name="Lslash" unicode="&#x141;" horiz-adv-x="481" 
d="M444 59v-59h-339v271l-94 -96l-1 43l95 97v354h76v-277l91 93v-43l-91 -93v-290h263z" />
    <glyph glyph-name="lslash" unicode="&#x142;" horiz-adv-x="220" 
d="M142 323l0.000976562 -213.997c0 -28.667 3 -47.834 9 -57.501s16 -14.834 30 -15.501c3.33301 0 6 0.333008 8 1v-49c-5.33301 -0.666992 -14.333 -1 -27 -1c-28.667 0 -50.834 9.16699 -66.501 27.5s-23.5 50.166 -23.5 95.499v142l-74 -75l-1 42l75 76v374h70v-303
l74 75v-43z" />
    <glyph glyph-name="Nacute" unicode="&#x143;" 
d="M105 669h85l290 -561v561h69v-669h-87l-288 553v-553h-69v669zM442 886v-88l-125 -85h-49z" />
    <glyph glyph-name="nacute" unicode="&#x144;" horiz-adv-x="491" 
d="M74 424l70 -0.000976562v-66c12.667 26 31.5 46.5 56.5 61.5s52.167 22.5 81.5 22.5c45.333 0 80 -14.333 104 -43s36 -72.667 36 -132v-267h-70v252c0 48 -8.5 82.167 -25.5 102.5s-39.167 30.5 -66.5 30.5c-21.333 0 -40.833 -7 -58.5 -21s-31.667 -34.167 -42 -60.5
s-15.5 -57.166 -15.5 -92.499v-211h-70v424zM345 685.999v-88l-124 -85h-49z" />
    <glyph glyph-name="uni0145" unicode="&#x145;" 
d="M105 669h85l290 -561v561h69v-669h-87l-288 553v-553h-69v669zM265 -224c23.333 12 43.168 27.333 59.501 46s24.5 39 24.5 61c0 2 -0.666992 6.33301 -2 13c-4 -10.667 -9.66699 -18.5 -17 -23.5s-15 -7.5 -23 -7.5c-12.667 0 -23.334 4.83301 -32.001 14.5
s-13 20.167 -13 31.5c0 13.333 5.16699 24.666 15.5 33.999s21.833 14 34.5 14c18.667 0 33.5 -7.16699 44.5 -21.5s16.5 -31.166 16.5 -50.499c0 -28 -9.16699 -53.5 -27.5 -76.5s-41.5 -41.167 -69.5 -54.5z" />
    <glyph glyph-name="uni0146" unicode="&#x146;" horiz-adv-x="491" 
d="M74 424l70 -0.000976562v-66c12.667 26 31.5 46.5 56.5 61.5s52.167 22.5 81.5 22.5c45.333 0 80 -14.333 104 -43s36 -72.667 36 -132v-267h-70v252c0 48 -8.5 82.167 -25.5 102.5s-39.167 30.5 -66.5 30.5c-21.333 0 -40.833 -7 -58.5 -21s-31.667 -34.167 -42 -60.5
s-15.5 -57.166 -15.5 -92.499v-211h-70v424zM193 -224.001c23.333 12 43.168 27.333 59.501 46s24.5 39 24.5 61c0 2 -0.666992 6.33301 -2 13c-4 -10.667 -9.66699 -18.5 -17 -23.5s-15 -7.5 -23 -7.5c-12.667 0 -23.334 4.83301 -32.001 14.5s-13 20.167 -13 31.5
c0 13.333 5.16699 24.666 15.5 33.999s21.833 14 34.5 14c18.667 0 33.5 -7.16699 44.5 -21.5s16.5 -31.166 16.5 -50.499c0 -28 -9.16699 -53.5 -27.5 -76.5s-41.5 -41.167 -69.5 -54.5z" />
    <glyph glyph-name="Ncaron" unicode="&#x147;" 
d="M105 669h85l290 -561v561h69v-669h-87l-288 553v-553h-69v669zM189 859h49l95 -85l94 85h49l-124 -146h-39z" />
    <glyph glyph-name="ncaron" unicode="&#x148;" horiz-adv-x="491" 
d="M74 424l70 -0.000976562v-66c12.667 26 31.5 46.5 56.5 61.5s52.167 22.5 81.5 22.5c45.333 0 80 -14.333 104 -43s36 -72.667 36 -132v-267h-70v252c0 48 -8.5 82.167 -25.5 102.5s-39.167 30.5 -66.5 30.5c-21.333 0 -40.833 -7 -58.5 -21s-31.667 -34.167 -42 -60.5
s-15.5 -57.166 -15.5 -92.499v-211h-70v424zM111 658.999h49l94 -85l95 85h49l-125 -146h-38z" />
    <glyph glyph-name="Omacron" unicode="&#x14c;" 
d="M184.5 30c-40.333 28.667 -71.166 69.167 -92.499 121.5s-32 113.5 -32 183.5s10.667 131 32 183s52.166 92.333 92.499 121s87.833 43 142.5 43s102.167 -14.333 142.5 -43s71.166 -69 92.499 -121s32 -113 32 -183s-10.667 -131.167 -32 -183.5
s-52.166 -92.833 -92.499 -121.5s-87.833 -43 -142.5 -43s-102.167 14.333 -142.5 43zM464.5 123.5c32.333 50.333 48.5 120.833 48.5 211.5s-16.167 161.167 -48.5 211.5s-78.166 75.5 -137.499 75.5s-105.166 -25.333 -137.499 -76s-48.5 -121 -48.5 -211
s16.167 -160.333 48.5 -211s78.166 -76 137.499 -76s105.166 25.167 137.499 75.5zM212 844h240l-11 -53h-240z" />
    <glyph glyph-name="omacron" unicode="&#x14d;" horiz-adv-x="463" 
d="M134 15c-28 18.667 -49.8301 45.334 -65.4971 80.001s-23.5 75.334 -23.5 122.001c0 45.333 8 85.166 24 119.499s38.167 60.666 66.5 78.999s60.166 27.5 95.499 27.5s67.166 -9.16699 95.499 -27.5s50.666 -44.666 66.999 -78.999s24.5 -74.166 24.5 -119.499
c0 -46.667 -7.83301 -87.334 -23.5 -122.001s-37.667 -61.334 -66 -80.001s-60.833 -28 -97.5 -28s-69 9.33301 -97 28zM311.003 85.5c20.667 30.333 31 74.166 31 131.499c0 55.333 -10.333 97.833 -31 127.5s-47 44.5 -79 44.5c-32.667 0 -59.5 -14.833 -80.5 -44.5
s-31.5 -72.167 -31.5 -127.5c0 -57.333 10.5 -101.166 31.5 -131.499s47.833 -45.5 80.5 -45.5c32 0 58.333 15.167 79 45.5zM126.003 622h220l-9 -49h-220z" />
    <glyph glyph-name="Obreve" unicode="&#x14e;" 
d="M184.5 30c-40.333 28.667 -71.166 69.167 -92.499 121.5s-32 113.5 -32 183.5s10.667 131 32 183s52.166 92.333 92.499 121s87.833 43 142.5 43s102.167 -14.333 142.5 -43s71.166 -69 92.499 -121s32 -113 32 -183s-10.667 -131.167 -32 -183.5
s-52.166 -92.833 -92.499 -121.5s-87.833 -43 -142.5 -43s-102.167 14.333 -142.5 43zM464.5 123.5c32.333 50.333 48.5 120.833 48.5 211.5s-16.167 161.167 -48.5 211.5s-78.166 75.5 -137.499 75.5s-105.166 -25.333 -137.499 -76s-48.5 -121 -48.5 -211
s16.167 -160.333 48.5 -211s78.166 -76 137.499 -76s105.166 25.167 137.499 75.5zM231 760.5c-22.667 25 -37.001 50.833 -43.001 77.5l31 14c10 -22 24.333 -40.5 43 -55.5s40.334 -22.5 65.001 -22.5s46.5 7.5 65.5 22.5s33.833 33.5 44.5 55.5l29 -14
c-6 -26.667 -20.333 -52.5 -43 -77.5s-54.667 -37.5 -96 -37.5s-73.333 12.5 -96 37.5z" />
    <glyph glyph-name="obreve" unicode="&#x14f;" horiz-adv-x="463" 
d="M134 15c-28 18.667 -49.8301 45.334 -65.4971 80.001s-23.5 75.334 -23.5 122.001c0 45.333 8 85.166 24 119.499s38.167 60.666 66.5 78.999s60.166 27.5 95.499 27.5s67.166 -9.16699 95.499 -27.5s50.666 -44.666 66.999 -78.999s24.5 -74.166 24.5 -119.499
c0 -46.667 -7.83301 -87.334 -23.5 -122.001s-37.667 -61.334 -66 -80.001s-60.833 -28 -97.5 -28s-69 9.33301 -97 28zM311.003 85.5c20.667 30.333 31 74.166 31 131.499c0 55.333 -10.333 97.833 -31 127.5s-47 44.5 -79 44.5c-32.667 0 -59.5 -14.833 -80.5 -44.5
s-31.5 -72.167 -31.5 -127.5c0 -57.333 10.5 -101.166 31.5 -131.499s47.833 -45.5 80.5 -45.5c32 0 58.333 15.167 79 45.5zM136.003 560.5c-22.667 25 -37.001 50.833 -43.001 77.5l31 14c10 -22 24.333 -40.5 43 -55.5s40.334 -22.5 65.001 -22.5s46.5 7.5 65.5 22.5
s33.833 33.5 44.5 55.5l29 -14c-6 -26.667 -20.333 -52.5 -43 -77.5s-54.667 -37.5 -96 -37.5s-73.333 12.5 -96 37.5z" />
    <glyph glyph-name="Ohungarumlaut" unicode="&#x150;" 
d="M184.5 30c-40.333 28.667 -71.166 69.167 -92.499 121.5s-32 113.5 -32 183.5s10.667 131 32 183s52.166 92.333 92.499 121s87.833 43 142.5 43s102.167 -14.333 142.5 -43s71.166 -69 92.499 -121s32 -113 32 -183s-10.667 -131.167 -32 -183.5
s-52.166 -92.833 -92.499 -121.5s-87.833 -43 -142.5 -43s-102.167 14.333 -142.5 43zM464.5 123.5c32.333 50.333 48.5 120.833 48.5 211.5s-16.167 161.167 -48.5 211.5s-78.166 75.5 -137.499 75.5s-105.166 -25.333 -137.499 -76s-48.5 -121 -48.5 -211
s16.167 -160.333 48.5 -211s78.166 -76 137.499 -76s105.166 25.167 137.499 75.5zM395 886v-88l-124 -85h-49zM539 886v-88l-125 -85h-49z" />
    <glyph glyph-name="ohungarumlaut" unicode="&#x151;" horiz-adv-x="463" 
d="M134 15c-28 18.667 -49.8301 45.334 -65.4971 80.001s-23.5 75.334 -23.5 122.001c0 45.333 8 85.166 24 119.499s38.167 60.666 66.5 78.999s60.166 27.5 95.499 27.5s67.166 -9.16699 95.499 -27.5s50.666 -44.666 66.999 -78.999s24.5 -74.166 24.5 -119.499
c0 -46.667 -7.83301 -87.334 -23.5 -122.001s-37.667 -61.334 -66 -80.001s-60.833 -28 -97.5 -28s-69 9.33301 -97 28zM311.003 85.5c20.667 30.333 31 74.166 31 131.499c0 55.333 -10.333 97.833 -31 127.5s-47 44.5 -79 44.5c-32.667 0 -59.5 -14.833 -80.5 -44.5
s-31.5 -72.167 -31.5 -127.5c0 -57.333 10.5 -101.166 31.5 -131.499s47.833 -45.5 80.5 -45.5c32 0 58.333 15.167 79 45.5zM235.003 686v-88l-125 -85h-49zM378.003 686v-88l-124 -85h-49z" />
    <glyph glyph-name="OE" unicode="&#x152;" horiz-adv-x="892" 
d="M847 0h-436.998c-24 -8.66699 -51.667 -13 -83 -13c-54.667 0 -102.167 14.333 -142.5 43s-71.166 69.167 -92.499 121.5s-32 113.5 -32 183.5s10.667 131 32 183s52.166 92.333 92.499 121s87.833 43 142.5 43c30.667 0 58.667 -4.33301 84 -13h424v-54h-336
c54.667 -54 85.667 -132.667 93 -236h191v-53h-189c-0.666992 -57.333 -8.83398 -108.833 -24.501 -154.5s-37.834 -83.167 -66.501 -112.5h344v-59zM189.502 124c32.333 -50.667 78.166 -76 137.499 -76s105.166 25.167 137.499 75.5s48.5 120.833 48.5 211.5
s-16.167 161.167 -48.5 211.5s-78.166 75.5 -137.499 75.5s-105.166 -25.333 -137.499 -76s-48.5 -121 -48.5 -211s16.167 -160.333 48.5 -211z" />
    <glyph glyph-name="oe" unicode="&#x153;" horiz-adv-x="734" 
d="M653.5 374c29 -45.333 42.502 -103 40.502 -173h-275c2.66699 -50.667 17.834 -89.667 45.501 -117s62.5 -41 104.5 -41c20.667 0 38.5 1.83301 53.5 5.5s30.167 9.16699 45.5 16.5l-1 -54c-29.333 -16 -65.666 -24 -108.999 -24c-38 0 -71.833 7.66699 -101.5 23
s-53.5 37 -71.5 65c-16.667 -28 -38.334 -49.667 -65.001 -65s-56.334 -23 -89.001 -23c-36.667 0 -69 9.33301 -97 28s-49.833 45.334 -65.5 80.001s-23.5 75.334 -23.5 122.001c0 45.333 8 85.166 24 119.499s38.167 60.666 66.5 78.999s60.166 27.5 95.499 27.5
c31.333 0 60.166 -7.5 86.499 -22.5s47.833 -36.167 64.5 -63.5c16 27.333 36.333 48.333 61 63s52.667 22 84 22c55.333 0 97.5 -22.667 126.5 -68zM311.002 85.5c20.667 30.333 31 74.166 31 131.499c0 55.333 -10.333 97.833 -31 127.5s-47 44.5 -79 44.5
c-32.667 0 -59.5 -14.833 -80.5 -44.5s-31.5 -72.167 -31.5 -127.5c0 -57.333 10.5 -101.166 31.5 -131.499s47.833 -45.5 80.5 -45.5c32 0 58.333 15.167 79 45.5zM625.002 245c-1.33301 43.333 -10.501 78.168 -27.501 104.501s-40.167 39.5 -69.5 39.5
s-53.666 -12.333 -72.999 -37s-31 -60.334 -35 -107.001h205z" />
    <glyph glyph-name="Racute" unicode="&#x154;" horiz-adv-x="577" 
d="M105 669l148 -0.000976562c78.667 0 137.667 -15.167 177 -45.5s59 -74.166 59 -131.499c0 -46.667 -14.333 -86 -43 -118s-66 -53.333 -112 -64l210 -310h-90l-197 300h-76v-300h-76v669zM259 353.999c46.667 0 83.5 12 110.5 36s40.5 56 40.5 96
c0 86 -51.667 129 -155 129h-74v-261h78zM384 885.999v-88l-125 -85h-49z" />
    <glyph glyph-name="racute" unicode="&#x155;" horiz-adv-x="310" 
d="M74 424l69.998 -0.000976562v-57c10.667 22.667 25.834 40.334 45.501 53.001s41.834 19 66.501 19c18 0 33 -2 45 -6v-59c-16 5.33301 -31 8 -45 8c-36.667 0 -64.5 -14.167 -83.5 -42.5s-28.5 -69.5 -28.5 -123.5v-216h-70v424zM274.998 685.999v-88l-124 -85h-49z" />
    <glyph glyph-name="uni0156" unicode="&#x156;" horiz-adv-x="577" 
d="M105 669l148 -0.000976562c78.667 0 137.667 -15.167 177 -45.5s59 -74.166 59 -131.499c0 -46.667 -14.333 -86 -43 -118s-66 -53.333 -112 -64l210 -310h-90l-197 300h-76v-300h-76v669zM259 353.999c46.667 0 83.5 12 110.5 36s40.5 56 40.5 96
c0 86 -51.667 129 -155 129h-74v-261h78zM271 -224.001c23.333 12 43.168 27.333 59.501 46s24.5 39 24.5 61c0 2 -0.666992 6.33301 -2 13c-4 -10.667 -9.66699 -18.5 -17 -23.5s-15 -7.5 -23 -7.5c-12.667 0 -23.334 4.83301 -32.001 14.5s-13 20.167 -13 31.5
c0 13.333 5.16699 24.666 15.5 33.999s21.833 14 34.5 14c18.667 0 33.5 -7.16699 44.5 -21.5s16.5 -31.166 16.5 -50.499c0 -28 -9.16699 -53.5 -27.5 -76.5s-41.5 -41.167 -69.5 -54.5z" />
    <glyph glyph-name="uni0157" unicode="&#x157;" horiz-adv-x="310" 
d="M74 424l69.998 -0.000976562v-57c10.667 22.667 25.834 40.334 45.501 53.001s41.834 19 66.501 19c18 0 33 -2 45 -6v-59c-16 5.33301 -31 8 -45 8c-36.667 0 -64.5 -14.167 -83.5 -42.5s-28.5 -69.5 -28.5 -123.5v-216h-70v424zM59.998 -224.001
c23.333 12 43.168 27.333 59.501 46s24.5 39 24.5 61c0 2 -0.666992 6.33301 -2 13c-4 -10.667 -9.66699 -18.5 -17 -23.5s-15 -7.5 -23 -7.5c-12.667 0 -23.334 4.83301 -32.001 14.5s-13 20.167 -13 31.5c0 13.333 5.16699 24.666 15.5 33.999s21.833 14 34.5 14
c18.667 0 33.5 -7.16699 44.5 -21.5s16.5 -31.166 16.5 -50.499c0 -28 -9.16699 -53.5 -27.5 -76.5s-41.5 -41.167 -69.5 -54.5z" />
    <glyph glyph-name="Rcaron" unicode="&#x158;" horiz-adv-x="577" 
d="M105 669l148 -0.000976562c78.667 0 137.667 -15.167 177 -45.5s59 -74.166 59 -131.499c0 -46.667 -14.333 -86 -43 -118s-66 -53.333 -112 -64l210 -310h-90l-197 300h-76v-300h-76v669zM259 353.999c46.667 0 83.5 12 110.5 36s40.5 56 40.5 96
c0 86 -51.667 129 -155 129h-74v-261h78zM131 858.999h49l95 -85l94 85h49l-124 -146h-39z" />
    <glyph glyph-name="rcaron" unicode="&#x159;" horiz-adv-x="310" 
d="M74 424l69.998 -0.000976562v-57c10.667 22.667 25.834 40.334 45.501 53.001s41.834 19 66.501 19c18 0 33 -2 45 -6v-59c-16 5.33301 -31 8 -45 8c-36.667 0 -64.5 -14.167 -83.5 -42.5s-28.5 -69.5 -28.5 -123.5v-216h-70v424zM40.998 658.999h49l94 -85l95 85h49
l-125 -146h-38z" />
    <glyph glyph-name="Sacute" unicode="&#x15a;" horiz-adv-x="507" 
d="M50 29v69.002c59.333 -32 122.666 -48 189.999 -48c41.333 0 74.5 9.5 99.5 28.5s37.5 48.5 37.5 88.5c0 22 -6.16699 41.167 -18.5 57.5s-27.5 30.5 -45.5 42.5s-43.333 26.667 -76 44c-37.333 19.333 -67.666 37 -90.999 53s-43 36.167 -59 60.5s-24 53.166 -24 86.499
c0 36 8.66699 66.833 26 92.5s40.666 45.167 69.999 58.5s62 20 98 20c57.333 0 110 -11.667 158 -35v-64c-21.333 12.667 -45.5 22.5 -72.5 29.5s-53.833 10.5 -80.5 10.5c-36 0 -65.5 -8.83301 -88.5 -26.5s-34.5 -43.167 -34.5 -76.5c0 -23.333 6.33301 -43.833 19 -61.5
s28.334 -32.834 47.001 -45.501s44.667 -28 78 -46c38 -20.667 68.5 -39 91.5 -55s42.5 -36.333 58.5 -61s24 -54 24 -88c0 -33.333 -9 -63.333 -27 -90s-43.5 -47.667 -76.5 -63s-70.5 -23 -112.5 -23c-69.333 0 -133 14 -191 42zM365 886.002v-88l-125 -85h-49z" />
    <glyph glyph-name="sacute" unicode="&#x15b;" horiz-adv-x="364" 
d="M40 17l0.000976562 58.999c20 -10 42 -18.167 66 -24.5s46.667 -9.5 68 -9.5c25.333 0 45.333 5.33301 60 16s22 25.667 22 45c0 18.667 -7.66699 34.5 -23 47.5s-39 27.833 -71 44.5c-26 14 -47.167 26.5 -63.5 37.5s-30.166 24.5 -41.499 40.5s-17 35 -17 57
c0 34.667 14.667 62 44 82s63.333 30 102 30c43.333 0 82 -8 116 -24v-53c-16 7.33301 -33.833 13.333 -53.5 18s-38.5 7 -56.5 7c-22.667 0 -41.834 -5 -57.501 -15s-23.5 -24.333 -23.5 -43s7.5 -34.167 22.5 -46.5s38.833 -27.166 71.5 -44.499
c27.333 -14 49.166 -26.5 65.499 -37.5s30.333 -24.667 42 -41s17.5 -35.833 17.5 -58.5c0 -34 -13.667 -62 -41 -84s-63 -33 -107 -33c-52 0 -99.333 10 -142 30zM271.001 685.999v-88l-124 -85h-49z" />
    <glyph glyph-name="Scedilla" unicode="&#x15e;" horiz-adv-x="507" 
d="M404 42.5c-35.333 -32.333 -81.999 -50.499 -139.999 -54.499l-40 -42c7.33301 2 14.666 3 21.999 3c14.667 0 30 -5.66699 46 -17s24 -30.333 24 -57c0 -23.333 -8.5 -42.666 -25.5 -57.999s-37.833 -23 -62.5 -23c-22.667 0 -45 8.33301 -67 25l17 28
c16.667 -11.333 32 -17 46 -17s24.833 4.16699 32.5 12.5s11.5 18.5 11.5 30.5c0 11.333 -3.16699 21.5 -9.5 30.5s-15.833 13.5 -28.5 13.5c-7.33301 0 -17 -3 -29 -9l-19 25l51 54c-67.333 1.33301 -128.333 15.333 -183 42v69c59.333 -32 122.666 -48 189.999 -48
c41.333 0 74.5 9.5 99.5 28.5s37.5 48.5 37.5 88.5c0 22 -6.16699 41.167 -18.5 57.5s-27.5 30.5 -45.5 42.5s-43.333 26.667 -76 44c-37.333 19.333 -67.666 37 -90.999 53s-43 36.167 -59 60.5s-24 53.166 -24 86.499c0 36 8.66699 66.833 26 92.5
s40.666 45.167 69.999 58.5s62 20 98 20c57.333 0 110 -11.667 158 -35v-64c-21.333 12.667 -45.5 22.5 -72.5 29.5s-53.833 10.5 -80.5 10.5c-36 0 -65.5 -8.83301 -88.5 -26.5s-34.5 -43.167 -34.5 -76.5c0 -23.333 6.33301 -43.833 19 -61.5
s28.334 -32.834 47.001 -45.501s44.667 -28 78 -46c38 -20.667 68.5 -39 91.5 -55s42.5 -36.333 58.5 -61s24 -54 24 -88c0 -48 -17.667 -88.167 -53 -120.5z" />
    <glyph glyph-name="scedilla" unicode="&#x15f;" horiz-adv-x="364" 
d="M293 23.5c-24.667 -21.667 -56.998 -33.835 -96.998 -36.502l-40 -41c7.33301 2 14.666 3 21.999 3c14.667 0 30 -5.66699 46 -17s24 -30.333 24 -57c0 -23.333 -8.5 -42.666 -25.5 -57.999s-37.833 -23 -62.5 -23c-22.667 0 -45 8.33301 -67 25l17 28
c16.667 -11.333 32 -17 46 -17s24.833 4.16699 32.5 12.5s11.5 18.5 11.5 30.5c0 11.333 -3.16699 21.5 -9.5 30.5s-15.833 13.5 -28.5 13.5c-7.33301 0 -17 -3 -29 -9l-19 25l51 54c-46 2 -87.667 12 -125 30v59c20 -10 42 -18.167 66 -24.5s46.667 -9.5 68 -9.5
c25.333 0 45.333 5.33301 60 16s22 25.667 22 45c0 18.667 -7.66699 34.5 -23 47.5s-39 27.833 -71 44.5c-26 14 -47.167 26.5 -63.5 37.5s-30.166 24.5 -41.499 40.5s-17 35 -17 57c0 34.667 14.667 62 44 82s63.333 30 102 30c43.333 0 82 -8 116 -24v-53
c-16 7.33301 -33.833 13.333 -53.5 18s-38.5 7 -56.5 7c-22.667 0 -41.834 -5 -57.501 -15s-23.5 -24.333 -23.5 -43s7.5 -34.167 22.5 -46.5s38.833 -27.166 71.5 -44.499c27.333 -14 49.166 -26.5 65.499 -37.5s30.333 -24.667 42 -41s17.5 -35.833 17.5 -58.5
c0 -32 -12.333 -58.833 -37 -80.5z" />
    <glyph glyph-name="Scaron" unicode="&#x160;" horiz-adv-x="507" 
d="M50 29v69.002c59.333 -32 122.666 -48 189.999 -48c41.333 0 74.5 9.5 99.5 28.5s37.5 48.5 37.5 88.5c0 22 -6.16699 41.167 -18.5 57.5s-27.5 30.5 -45.5 42.5s-43.333 26.667 -76 44c-37.333 19.333 -67.666 37 -90.999 53s-43 36.167 -59 60.5s-24 53.166 -24 86.499
c0 36 8.66699 66.833 26 92.5s40.666 45.167 69.999 58.5s62 20 98 20c57.333 0 110 -11.667 158 -35v-64c-21.333 12.667 -45.5 22.5 -72.5 29.5s-53.833 10.5 -80.5 10.5c-36 0 -65.5 -8.83301 -88.5 -26.5s-34.5 -43.167 -34.5 -76.5c0 -23.333 6.33301 -43.833 19 -61.5
s28.334 -32.834 47.001 -45.501s44.667 -28 78 -46c38 -20.667 68.5 -39 91.5 -55s42.5 -36.333 58.5 -61s24 -54 24 -88c0 -33.333 -9 -63.333 -27 -90s-43.5 -47.667 -76.5 -63s-70.5 -23 -112.5 -23c-69.333 0 -133 14 -191 42zM112 859.002h49l95 -85l94 85h49
l-124 -146h-39z" />
    <glyph glyph-name="scaron" unicode="&#x161;" horiz-adv-x="364" 
d="M40 17l0.000976562 58.999c20 -10 42 -18.167 66 -24.5s46.667 -9.5 68 -9.5c25.333 0 45.333 5.33301 60 16s22 25.667 22 45c0 18.667 -7.66699 34.5 -23 47.5s-39 27.833 -71 44.5c-26 14 -47.167 26.5 -63.5 37.5s-30.166 24.5 -41.499 40.5s-17 35 -17 57
c0 34.667 14.667 62 44 82s63.333 30 102 30c43.333 0 82 -8 116 -24v-53c-16 7.33301 -33.833 13.333 -53.5 18s-38.5 7 -56.5 7c-22.667 0 -41.834 -5 -57.501 -15s-23.5 -24.333 -23.5 -43s7.5 -34.167 22.5 -46.5s38.833 -27.166 71.5 -44.499
c27.333 -14 49.166 -26.5 65.499 -37.5s30.333 -24.667 42 -41s17.5 -35.833 17.5 -58.5c0 -34 -13.667 -62 -41 -84s-63 -33 -107 -33c-52 0 -99.333 10 -142 30zM37.001 658.999h49l94 -85l95 85h49l-125 -146h-38z" />
    <glyph glyph-name="uni0162" unicode="&#x162;" horiz-adv-x="496" 
d="M491 609h-206v-609h-76v609h-204v60h486v-60zM152 -181l17.001 27.999c16.667 -11.333 32 -17 46 -17s24.833 4.16699 32.5 12.5s11.5 18.5 11.5 30.5c0 11.333 -3.16699 21.5 -9.5 30.5s-15.833 13.5 -28.5 13.5c-7.33301 0 -17 -3 -29 -9l-19 25l63 67h31l-52 -54
c7.33301 2 14.666 3 21.999 3c14.667 0 30 -5.66699 46 -17s24 -30.333 24 -57c0 -23.333 -8.5 -42.666 -25.5 -57.999s-37.833 -23 -62.5 -23c-22.667 0 -45 8.33301 -67 25z" />
    <glyph glyph-name="uni0163" unicode="&#x163;" horiz-adv-x="270" 
d="M219 -68c16 -11.333 24.001 -30.334 24.001 -57.001c0 -23.333 -8.5 -42.666 -25.5 -57.999s-37.833 -23 -62.5 -23c-22.667 0 -45 8.33301 -67 25l17 28c16.667 -11.333 32 -17 46 -17s24.833 4.16699 32.5 12.5s11.5 18.5 11.5 30.5c0 11.333 -3.16699 21.5 -9.5 30.5
s-15.833 13.5 -28.5 13.5c-7.33301 0 -17 -3 -29 -9l-19 25l54 57c-24.667 2.66699 -43.667 12 -57 28s-20 38.333 -20 67v295h-55v44h55v127h70v-127h77v-44h-77v-274c0 -23.333 3 -39.833 9 -49.5s17.333 -14.5 34 -14.5c10 0 22 2 36 6l3 -47
c-14.667 -6 -29.667 -9.66699 -45 -11l-42 -44c7.33301 2 14.666 3 21.999 3c14.667 0 30 -5.66699 46 -17z" />
    <glyph glyph-name="Tcaron" unicode="&#x164;" horiz-adv-x="496" 
d="M491 609h-206v-609h-76v609h-204v60h486v-60zM103 859h49l95 -85l94 85h49l-124 -146h-39z" />
    <glyph glyph-name="tcaron" unicode="&#x165;" horiz-adv-x="270" 
d="M238 1c-18.667 -8 -38.334 -12 -59.001 -12c-29.333 0 -52.166 8 -68.499 24s-24.5 40 -24.5 72v295h-55v44h55v127h70v-127h77v-44h-77v-274c0 -23.333 3 -39.833 9 -49.5s17.333 -14.5 34 -14.5c10 0 22 2 36 6zM199 669h64l-37 -217h-34z" />
    <glyph glyph-name="Utilde" unicode="&#x168;" horiz-adv-x="664" 
d="M158.5 52c-39 43.333 -58.501 106.333 -58.501 189v428h76v-420c0 -64.667 12.667 -114 38 -148s66 -51 122 -51c54.667 0 94.334 16.667 119.001 50s37 81.333 37 144v425h72v-432c0 -82 -19.5 -144.167 -58.5 -186.5s-96.5 -63.5 -172.5 -63.5
c-77.333 0 -135.5 21.667 -174.5 65zM182.999 769c9.33301 22 22.1641 39.833 38.4971 53.5s35.833 20.5 58.5 20.5c12.667 0 24.5 -2.16699 35.5 -6.5s24.833 -10.833 41.5 -19.5c12 -7.33301 22.333 -12.833 31 -16.5s17.667 -5.5 27 -5.5
c12.667 0 23.667 4.16699 33 12.5s16 18.833 20 31.5l14 -31c-21.333 -44 -52.666 -66 -93.999 -66c-12 0 -23.167 1.83301 -33.5 5.5s-19.666 7.66699 -27.999 12l-16.5 8.5c-24 14 -43 21 -57 21c-13.333 0 -24.666 -4.33301 -33.999 -13s-16 -20 -20 -34z" />
    <glyph glyph-name="utilde" unicode="&#x169;" horiz-adv-x="488" 
d="M453 37l-0.000976562 -45.001c-6.66699 -2 -15.667 -3 -27 -3c-24 0 -42.667 5.83301 -56 17.5s-22.333 31.167 -27 58.5c-12.667 -24 -31.667 -43 -57 -57s-52.333 -21 -81 -21c-44 0 -77.667 14.333 -101 43s-35 72 -35 130v264h70v-250c0 -46.667 8 -80 24 -100
s37 -30 63 -30c32.667 0 59.834 15 81.501 45s32.5 72.333 32.5 127v208h70v-321c0 -23.333 2.66699 -40.166 8 -50.499s14 -15.5 26 -15.5h9zM101.999 568.999c20.667 49.333 52.6689 73.999 96.002 73.999c12.667 0 24.5 -2.16699 35.5 -6.5s24.833 -10.833 41.5 -19.5
c12 -7.33301 22.5 -12.833 31.5 -16.5s18.167 -5.5 27.5 -5.5c12 0 22.667 4.16699 32 12.5s16.333 18.833 21 31.5l14 -31c-21.333 -44 -52.666 -66 -93.999 -66c-13.333 0 -26 2.33301 -38 7s-25.333 11 -40 19c-12.667 6.66699 -23.334 11.834 -32.001 15.501
s-17.334 5.5 -26.001 5.5c-12.667 0 -23.834 -4.33301 -33.501 -13s-16.5 -20 -20.5 -34z" />
    <glyph glyph-name="Umacron" unicode="&#x16a;" horiz-adv-x="664" 
d="M158.5 52c-39 43.333 -58.501 106.333 -58.501 189v428h76v-420c0 -64.667 12.667 -114 38 -148s66 -51 122 -51c54.667 0 94.334 16.667 119.001 50s37 81.333 37 144v425h72v-432c0 -82 -19.5 -144.167 -58.5 -186.5s-96.5 -63.5 -172.5 -63.5
c-77.333 0 -135.5 21.667 -174.5 65zM217.999 844h240l-11 -53h-240z" />
    <glyph glyph-name="umacron" unicode="&#x16b;" horiz-adv-x="488" 
d="M453 37l-0.000976562 -45.001c-6.66699 -2 -15.667 -3 -27 -3c-24 0 -42.667 5.83301 -56 17.5s-22.333 31.167 -27 58.5c-12.667 -24 -31.667 -43 -57 -57s-52.333 -21 -81 -21c-44 0 -77.667 14.333 -101 43s-35 72 -35 130v264h70v-250c0 -46.667 8 -80 24 -100
s37 -30 63 -30c32.667 0 59.834 15 81.501 45s32.5 72.333 32.5 127v208h70v-321c0 -23.333 2.66699 -40.166 8 -50.499s14 -15.5 26 -15.5h9zM134.999 621.999h220l-9 -49h-220z" />
    <glyph glyph-name="Ubreve" unicode="&#x16c;" horiz-adv-x="664" 
d="M158.5 52c-39 43.333 -58.501 106.333 -58.501 189v428h76v-420c0 -64.667 12.667 -114 38 -148s66 -51 122 -51c54.667 0 94.334 16.667 119.001 50s37 81.333 37 144v425h72v-432c0 -82 -19.5 -144.167 -58.5 -186.5s-96.5 -63.5 -172.5 -63.5
c-77.333 0 -135.5 21.667 -174.5 65zM236.999 760.5c-22.667 25 -37.001 50.833 -43.001 77.5l31 14c10 -22 24.333 -40.5 43 -55.5s40.334 -22.5 65.001 -22.5s46.5 7.5 65.5 22.5s33.833 33.5 44.5 55.5l29 -14c-6 -26.667 -20.333 -52.5 -43 -77.5
s-54.667 -37.5 -96 -37.5s-73.333 12.5 -96 37.5z" />
    <glyph glyph-name="ubreve" unicode="&#x16d;" horiz-adv-x="488" 
d="M453 37l-0.000976562 -45.001c-6.66699 -2 -15.667 -3 -27 -3c-24 0 -42.667 5.83301 -56 17.5s-22.333 31.167 -27 58.5c-12.667 -24 -31.667 -43 -57 -57s-52.333 -21 -81 -21c-44 0 -77.667 14.333 -101 43s-35 72 -35 130v264h70v-250c0 -46.667 8 -80 24 -100
s37 -30 63 -30c32.667 0 59.834 15 81.501 45s32.5 72.333 32.5 127v208h70v-321c0 -23.333 2.66699 -40.166 8 -50.499s14 -15.5 26 -15.5h9zM144.999 560.499c-22.667 25 -37.001 50.833 -43.001 77.5l31 14c10 -22 24.333 -40.5 43 -55.5s40.334 -22.5 65.001 -22.5
s46.5 7.5 65.5 22.5s33.833 33.5 44.5 55.5l29 -14c-6 -26.667 -20.333 -52.5 -43 -77.5s-54.667 -37.5 -96 -37.5s-73.333 12.5 -96 37.5z" />
    <glyph glyph-name="Uring" unicode="&#x16e;" horiz-adv-x="664" 
d="M158.5 52c-39 43.333 -58.501 106.333 -58.501 189v428h76v-420c0 -64.667 12.667 -114 38 -148s66 -51 122 -51c54.667 0 94.334 16.667 119.001 50s37 81.333 37 144v425h72v-432c0 -82 -19.5 -144.167 -58.5 -186.5s-96.5 -63.5 -172.5 -63.5
c-77.333 0 -135.5 21.667 -174.5 65zM267.999 743.5c-18 17 -27 37.833 -27 62.5c0 24 9 44.667 27 62s39.667 26 65 26s47 -8.66699 65 -26s27 -38 27 -62c0 -24.667 -9 -45.5 -27 -62.5s-39.667 -25.5 -65 -25.5s-47 8.5 -65 25.5zM364.499 767
c8.33301 10.667 12.5 23.667 12.5 39s-4.16699 28.333 -12.5 39s-18.833 16 -31.5 16s-23.167 -5.33301 -31.5 -16s-12.5 -23.667 -12.5 -39s4.16699 -28.333 12.5 -39s18.833 -16 31.5 -16s23.167 5.33301 31.5 16z" />
    <glyph glyph-name="uring" unicode="&#x16f;" horiz-adv-x="488" 
d="M453 37l-0.000976562 -45.001c-6.66699 -2 -15.667 -3 -27 -3c-24 0 -42.667 5.83301 -56 17.5s-22.333 31.167 -27 58.5c-12.667 -24 -31.667 -43 -57 -57s-52.333 -21 -81 -21c-44 0 -77.667 14.333 -101 43s-35 72 -35 130v264h70v-250c0 -46.667 8 -80 24 -100
s37 -30 63 -30c32.667 0 59.834 15 81.501 45s32.5 72.333 32.5 127v208h70v-321c0 -23.333 2.66699 -40.166 8 -50.499s14 -15.5 26 -15.5h9zM175.499 543.499c-17.667 17 -26.5 37.833 -26.5 62.5s8.83301 45.5 26.5 62.5s39.5 25.5 65.5 25.5s48 -8.5 66 -25.5
s27 -37.833 27 -62.5s-9 -45.5 -27 -62.5s-40 -25.5 -66 -25.5s-47.833 8.5 -65.5 25.5zM272.499 570.499c8.33301 9.66699 12.5 21.5 12.5 35.5s-4.16699 25.833 -12.5 35.5s-18.833 14.5 -31.5 14.5s-23.167 -4.83301 -31.5 -14.5s-12.5 -21.5 -12.5 -35.5
s4.16699 -25.833 12.5 -35.5s18.833 -14.5 31.5 -14.5s23.167 4.83301 31.5 14.5z" />
    <glyph glyph-name="Uhungarumlaut" unicode="&#x170;" horiz-adv-x="664" 
d="M158.5 52c-39 43.333 -58.501 106.333 -58.501 189v428h76v-420c0 -64.667 12.667 -114 38 -148s66 -51 122 -51c54.667 0 94.334 16.667 119.001 50s37 81.333 37 144v425h72v-432c0 -82 -19.5 -144.167 -58.5 -186.5s-96.5 -63.5 -172.5 -63.5
c-77.333 0 -135.5 21.667 -174.5 65zM400.999 886v-88l-124 -85h-49zM544.999 886v-88l-125 -85h-49z" />
    <glyph glyph-name="uhungarumlaut" unicode="&#x171;" horiz-adv-x="488" 
d="M453 37l-0.000976562 -45.001c-6.66699 -2 -15.667 -3 -27 -3c-24 0 -42.667 5.83301 -56 17.5s-22.333 31.167 -27 58.5c-12.667 -24 -31.667 -43 -57 -57s-52.333 -21 -81 -21c-44 0 -77.667 14.333 -101 43s-35 72 -35 130v264h70v-250c0 -46.667 8 -80 24 -100
s37 -30 63 -30c32.667 0 59.834 15 81.501 45s32.5 72.333 32.5 127v208h70v-321c0 -23.333 2.66699 -40.166 8 -50.499s14 -15.5 26 -15.5h9zM243.999 685.999v-88l-125 -85h-49zM386.999 685.999v-88l-124 -85h-49z" />
    <glyph glyph-name="Uogonek" unicode="&#x172;" horiz-adv-x="664" 
d="M564 669l-0.00195312 -432c0 -78.667 -18 -139.167 -54 -181.5s-89 -65.166 -159 -68.499c-26.667 -12 -40 -31.667 -40 -59c0 -13.333 4 -25.333 12 -36s18.667 -17.334 32 -20.001l-23 -52c-18.667 4 -34.167 13.5 -46.5 28.5s-18.5 32.5 -18.5 52.5
c0 18 5 34.5 15 49.5s23.333 27.167 40 36.5c-73.333 2 -128.666 24.5 -165.999 67.5s-56 105.167 -56 186.5v428h76v-420c0 -64.667 12.667 -114 38 -148s66 -51 122 -51c54.667 0 94.334 16.667 119.001 50s37 81.333 37 144v425h72z" />
    <glyph glyph-name="uogonek" unicode="&#x173;" horiz-adv-x="488" 
d="M453 37l-0.000976562 -44.998c-6.66699 -2 -15.667 -3 -27 -3h-6c-14.667 -6.66699 -25.5 -14.834 -32.5 -24.501s-10.5 -21.834 -10.5 -36.501c0 -13.333 4 -25.333 12 -36s18.667 -17.334 32 -20.001l-23 -52c-18.667 4 -34.167 13.5 -46.5 28.5s-18.5 32.5 -18.5 52.5
s6 38 18 54s27.667 28.333 47 37c-15.333 4 -27.5 11.833 -36.5 23.5s-15.167 28.167 -18.5 49.5c-12.667 -24 -31.667 -43 -57 -57s-52.333 -21 -81 -21c-44 0 -77.667 14.333 -101 43s-35 72 -35 130v264h70v-250c0 -46.667 8 -80 24 -100s37 -30 63 -30
c32.667 0 59.834 15 81.501 45s32.5 72.333 32.5 127v208h70v-321c0 -23.333 2.66699 -40.166 8 -50.499s14 -15.5 26 -15.5h9z" />
    <glyph glyph-name="Wcircumflex" unicode="&#x174;" horiz-adv-x="905" 
d="M870 669l-197 -670h-87l-125 408l-137 -408h-84l-205 670h77l171 -578h7l139 421l-48 157h77l168 -576h6l161 576h77zM416 859h39l124 -146h-49l-94 85l-95 -85h-49z" />
    <glyph glyph-name="wcircumflex" unicode="&#x175;" horiz-adv-x="632" 
d="M619 424l-132 -424h-75l-93 271l-98 -271h-74l-134 424h73l100 -347l101 289l-20 58h68l115 -349l99 349h70zM279 659h38l125 -146h-49l-95 85l-94 -85h-49z" />
    <glyph glyph-name="Ycircumflex" unicode="&#x176;" horiz-adv-x="503" 
d="M290 244v-244h-76v241l-199 428h83l156 -346l157 346h77zM236 859h39l124 -146h-49l-94 85l-95 -85h-49z" />
    <glyph glyph-name="ycircumflex" unicode="&#x177;" horiz-adv-x="412" 
d="M397 424l-164 -514.999c-14.667 -44 -32.167 -77.333 -52.5 -100s-46.833 -34 -79.5 -34c-24 0 -47 4.33301 -69 13v54c21.333 -8 41 -12 59 -12c20 0 36.667 7.16699 50 21.5s24.333 36.166 33 65.499l25 83h-43l-142 424h72l124 -389l117 389h70zM188 659.001h38
l125 -146h-49l-95 85l-94 -85h-49z" />
    <glyph glyph-name="Ydieresis" unicode="&#x178;" horiz-adv-x="503" 
d="M290 244v-244h-76v241l-199 428h83l156 -346l157 346h77zM144 774.5c-9.33301 9.66699 -14 21.167 -14 34.5s4.66699 24.833 14 34.5s20.333 14.5 33 14.5s23.667 -4.83301 33 -14.5s14 -21.167 14 -34.5s-4.66699 -24.833 -14 -34.5s-20.333 -14.5 -33 -14.5
s-23.667 4.83301 -33 14.5zM303 774.5c-9.33301 9.66699 -14 21.167 -14 34.5s4.66699 24.833 14 34.5s20.333 14.5 33 14.5s23.667 -4.83301 33 -14.5s14 -21.167 14 -34.5s-4.66699 -24.833 -14 -34.5s-20.333 -14.5 -33 -14.5s-23.667 4.83301 -33 14.5z" />
    <glyph glyph-name="Zacute" unicode="&#x179;" horiz-adv-x="530" 
d="M30 39l362 574h-337v56h438v-38l-361 -572h360v-59h-462v39zM375 886v-88l-125 -85h-49z" />
    <glyph glyph-name="zacute" unicode="&#x17a;" horiz-adv-x="386" 
d="M368 52v-52h-358v32l259 341h-238v51h335v-31l-260 -341h262zM283 686v-88l-124 -85h-49z" />
    <glyph glyph-name="Zdotaccent" unicode="&#x17b;" horiz-adv-x="530" 
d="M30 39l362 574h-337v56h438v-38l-361 -572h360v-59h-462v39zM231 762c-10 10 -15 22.333 -15 37s5 26.834 15 36.501s21.667 14.5 35 14.5c14 0 25.833 -4.83301 35.5 -14.5s14.5 -21.834 14.5 -36.501s-5 -27 -15 -37s-21.667 -15 -35 -15s-25 5 -35 15z" />
    <glyph glyph-name="zdotaccent" unicode="&#x17c;" horiz-adv-x="386" 
d="M368 52v-52h-358v32l259 341h-238v51h335v-31l-260 -341h262zM158 564.5c-9.33301 9.66699 -14 21.167 -14 34.5s4.66699 24.833 14 34.5s20.666 14.5 33.999 14.5c12.667 0 23.667 -4.83301 33 -14.5s14 -21.167 14 -34.5s-4.66699 -24.833 -14 -34.5
s-20.333 -14.5 -33 -14.5c-13.333 0 -24.666 4.83301 -33.999 14.5z" />
    <glyph glyph-name="Zcaron" unicode="&#x17d;" horiz-adv-x="530" 
d="M30 39l362 574h-337v56h438v-38l-361 -572h360v-59h-462v39zM122 859h49l95 -85l94 85h49l-124 -146h-39z" />
    <glyph glyph-name="zcaron" unicode="&#x17e;" horiz-adv-x="386" 
d="M368 52v-52h-358v32l259 341h-238v51h335v-31l-260 -341h262zM49 659h49l94 -85l95 85h49l-125 -146h-38z" />
    <glyph glyph-name="florin" unicode="&#x192;" horiz-adv-x="707" 
d="M118.5 13.5c-9 9 -13.5 19.833 -13.5 32.5v578c0 12.667 4.5 23.334 13.5 32.001s19.833 13 32.5 13h406c12.667 0 23.334 -4.33301 32.001 -13s13 -19.334 13 -32.001v-578c0 -12.667 -4.33301 -23.5 -13 -32.5s-19.334 -13.5 -32.001 -13.5h-406
c-12.667 0 -23.5 4.5 -32.5 13.5zM523 618h-338l169 -248zM329 335l-173 256v-511zM552 590l-174 -255l174 -256v511zM522 51l-168 248l-169 -248h337z" />
    <glyph glyph-name="AEacute" unicode="&#x1fc;" horiz-adv-x="860" 
d="M835 59v-59h-371v196h-234l-118 -196h-77l411 669h377v-54h-283l1 -236h210v-53h-209l1 -267h292zM464 249v327h-4l-198 -327h202zM656 886v-88l-125 -85h-49z" />
    <glyph glyph-name="aeacute" unicode="&#x1fd;" horiz-adv-x="672" 
d="M372 201l-0.00390625 -13.999c4.66699 -46 20.834 -81.5 48.501 -106.5s61.167 -37.5 100.5 -37.5c20.667 0 38.5 1.83301 53.5 5.5s30.167 9.16699 45.5 16.5l-1 -54c-29.333 -16 -65.666 -24 -108.999 -24c-37.333 0 -70.666 7.33301 -99.999 22s-53.333 36 -72 64
c-37.333 -57.333 -93.333 -86 -168 -86c-38 0 -69.5 10.667 -94.5 32s-37.5 50 -37.5 86c0 56.667 26.833 96.667 80.5 120s114.834 35.666 183.501 36.999v29c0 63.333 -34 95 -102 95c-20.667 0 -42.167 -3.66699 -64.5 -11s-43.5 -17.333 -63.5 -30v57
c46 26.667 94 40 144 40c30 0 56.5 -5.16699 79.5 -15.5s41.167 -25.833 54.5 -46.5c32.667 41.333 75.667 62 129 62c55.333 0 97.5 -22.667 126.5 -68s42.5 -103 40.5 -173h-274zM406.996 352.001c-19.333 -24.667 -31.001 -60.332 -35.001 -106.999h205
c-1.33301 43.333 -10.5 78.166 -27.5 104.499s-40.167 39.5 -69.5 39.5s-53.666 -12.333 -72.999 -37zM301.995 180.003c-1.33301 14.667 -1.99805 25.999 -1.99805 33.999c-60.667 -0.666992 -107.834 -10 -141.501 -28s-50.5 -44 -50.5 -78
c0 -21.333 7.5 -38.166 22.5 -50.499s34.167 -18.5 57.5 -18.5c31.333 0 58.166 11.167 80.499 33.5s33.5 52.833 33.5 91.5v16zM465.997 686.002v-88l-124 -85h-49z" />
    <glyph glyph-name="uni0218" unicode="&#x218;" horiz-adv-x="507" 
d="M50 29v69.002c59.333 -32 122.666 -48 189.999 -48c41.333 0 74.5 9.5 99.5 28.5s37.5 48.5 37.5 88.5c0 22 -6.16699 41.167 -18.5 57.5s-27.5 30.5 -45.5 42.5s-43.333 26.667 -76 44c-37.333 19.333 -67.666 37 -90.999 53s-43 36.167 -59 60.5s-24 53.166 -24 86.499
c0 36 8.66699 66.833 26 92.5s40.666 45.167 69.999 58.5s62 20 98 20c57.333 0 110 -11.667 158 -35v-64c-21.333 12.667 -45.5 22.5 -72.5 29.5s-53.833 10.5 -80.5 10.5c-36 0 -65.5 -8.83301 -88.5 -26.5s-34.5 -43.167 -34.5 -76.5c0 -23.333 6.33301 -43.833 19 -61.5
s28.334 -32.834 47.001 -45.501s44.667 -28 78 -46c38 -20.667 68.5 -39 91.5 -55s42.5 -36.333 58.5 -61s24 -54 24 -88c0 -33.333 -9 -63.333 -27 -90s-43.5 -47.667 -76.5 -63s-70.5 -23 -112.5 -23c-69.333 0 -133 14 -191 42zM204 -223.998
c23.333 12 43.168 27.333 59.501 46s24.5 39 24.5 61c0 2 -0.666992 6.33301 -2 13c-4 -10.667 -9.66699 -18.5 -17 -23.5s-15 -7.5 -23 -7.5c-12.667 0 -23.334 4.83301 -32.001 14.5s-13 20.167 -13 31.5c0 13.333 5.16699 24.666 15.5 33.999s21.833 14 34.5 14
c18.667 0 33.5 -7.16699 44.5 -21.5s16.5 -31.166 16.5 -50.499c0 -28 -9.16699 -53.5 -27.5 -76.5s-41.5 -41.167 -69.5 -54.5z" />
    <glyph glyph-name="uni0219" unicode="&#x219;" horiz-adv-x="364" 
d="M40 17l0.000976562 58.999c20 -10 42 -18.167 66 -24.5s46.667 -9.5 68 -9.5c25.333 0 45.333 5.33301 60 16s22 25.667 22 45c0 18.667 -7.66699 34.5 -23 47.5s-39 27.833 -71 44.5c-26 14 -47.167 26.5 -63.5 37.5s-30.166 24.5 -41.499 40.5s-17 35 -17 57
c0 34.667 14.667 62 44 82s63.333 30 102 30c43.333 0 82 -8 116 -24v-53c-16 7.33301 -33.833 13.333 -53.5 18s-38.5 7 -56.5 7c-22.667 0 -41.834 -5 -57.501 -15s-23.5 -24.333 -23.5 -43s7.5 -34.167 22.5 -46.5s38.833 -27.166 71.5 -44.499
c27.333 -14 49.166 -26.5 65.499 -37.5s30.333 -24.667 42 -41s17.5 -35.833 17.5 -58.5c0 -34 -13.667 -62 -41 -84s-63 -33 -107 -33c-52 0 -99.333 10 -142 30zM136.001 -224.001c23.333 12 43.168 27.333 59.501 46s24.5 39 24.5 61c0 2 -0.666992 6.33301 -2 13
c-4 -10.667 -9.66699 -18.5 -17 -23.5s-15 -7.5 -23 -7.5c-12.667 0 -23.334 4.83301 -32.001 14.5s-13 20.167 -13 31.5c0 13.333 5.16699 24.666 15.5 33.999s21.833 14 34.5 14c18.667 0 33.5 -7.16699 44.5 -21.5s16.5 -31.166 16.5 -50.499
c0 -28 -9.16699 -53.5 -27.5 -76.5s-41.5 -41.167 -69.5 -54.5z" />
    <glyph glyph-name="uni021A" unicode="&#x21a;" horiz-adv-x="496" 
d="M491 609h-206v-609h-76v609h-204v60h486v-60zM195 -224c23.333 12 43.168 27.333 59.501 46s24.5 39 24.5 61c0 2 -0.666992 6.33301 -2 13c-4 -10.667 -9.66699 -18.5 -17 -23.5s-15 -7.5 -23 -7.5c-12.667 0 -23.334 4.83301 -32.001 14.5s-13 20.167 -13 31.5
c0 13.333 5.16699 24.666 15.5 33.999s21.833 14 34.5 14c18.667 0 33.5 -7.16699 44.5 -21.5s16.5 -31.166 16.5 -50.499c0 -28 -9.16699 -53.5 -27.5 -76.5s-41.5 -41.167 -69.5 -54.5z" />
    <glyph glyph-name="uni021B" unicode="&#x21b;" horiz-adv-x="270" 
d="M238 1c-18.667 -8 -38.334 -12 -59.001 -12c-29.333 0 -52.166 8 -68.499 24s-24.5 40 -24.5 72v295h-55v44h55v127h70v-127h77v-44h-77v-274c0 -23.333 3 -39.833 9 -49.5s17.333 -14.5 34 -14.5c10 0 22 2 36 6zM131 -224c23.333 12 43.168 27.333 59.501 46
s24.5 39 24.5 61c0 2 -0.666992 6.33301 -2 13c-4 -10.667 -9.66699 -18.5 -17 -23.5s-15 -7.5 -23 -7.5c-12.667 0 -23.334 4.83301 -32.001 14.5s-13 20.167 -13 31.5c0 13.333 5.16699 24.666 15.5 33.999s21.833 14 34.5 14c18.667 0 33.5 -7.16699 44.5 -21.5
s16.5 -31.166 16.5 -50.499c0 -28 -9.16699 -53.5 -27.5 -76.5s-41.5 -41.167 -69.5 -54.5z" />
    <glyph glyph-name="circumflex" unicode="&#x2c6;" horiz-adv-x="377" 
d="M169 659h38l125 -146h-49l-95 85l-94 -85h-49z" />
    <glyph glyph-name="caron" unicode="&#x2c7;" horiz-adv-x="377" 
d="M45 659h49l94 -85l95 85h49l-125 -146h-38z" />
    <glyph glyph-name="breve" unicode="&#x2d8;" horiz-adv-x="368" 
d="M88 560.5c-22.667 25 -37.001 50.833 -43.001 77.5l31 14c10 -22 24.333 -40.5 43 -55.5s40.334 -22.5 65.001 -22.5s46.5 7.5 65.5 22.5s33.833 33.5 44.5 55.5l29 -14c-6 -26.667 -20.333 -52.5 -43 -77.5s-54.667 -37.5 -96 -37.5s-73.333 12.5 -96 37.5z" />
    <glyph glyph-name="dotaccent" unicode="&#x2d9;" horiz-adv-x="185" 
d="M59 564.5c-9.33301 9.66699 -14 21.167 -14 34.5s4.66699 24.833 14 34.5s20.666 14.5 33.999 14.5c12.667 0 23.667 -4.83301 33 -14.5s14 -21.167 14 -34.5s-4.66699 -24.833 -14 -34.5s-20.333 -14.5 -33 -14.5c-13.333 0 -24.666 4.83301 -33.999 14.5z" />
    <glyph glyph-name="ring" unicode="&#x2da;" horiz-adv-x="275" 
d="M71.5 543.5c-17.667 17 -26.5 37.833 -26.5 62.5s8.83301 45.5 26.5 62.5s39.5 25.5 65.5 25.5s48 -8.5 66 -25.5s27 -37.833 27 -62.5s-9 -45.5 -27 -62.5s-40 -25.5 -66 -25.5s-47.833 8.5 -65.5 25.5zM168.5 570.5c8.33301 9.66699 12.5 21.5 12.5 35.5
s-4.16699 25.833 -12.5 35.5s-18.833 14.5 -31.5 14.5s-23.167 -4.83301 -31.5 -14.5s-12.5 -21.5 -12.5 -35.5s4.16699 -25.833 12.5 -35.5s18.833 -14.5 31.5 -14.5s23.167 4.83301 31.5 14.5z" />
    <glyph glyph-name="ogonek" unicode="&#x2db;" horiz-adv-x="209" 
d="M63.5 -151.5c-12.333 15 -18.502 32.502 -18.502 52.502c0 23.333 7.83301 43.666 23.5 60.999s35.834 30 60.501 38h35c-25.333 -6.66699 -44.166 -15.667 -56.499 -27s-18.5 -26.333 -18.5 -45c0 -13.333 4 -25.333 12 -36s18.667 -17.334 32 -20.001l-23 -52
c-18.667 4 -34.167 13.5 -46.5 28.5z" />
    <glyph glyph-name="tilde" unicode="&#x2dc;" horiz-adv-x="389" 
d="M45 569c20.667 49.333 52.6689 73.999 96.002 73.999c12.667 0 24.5 -2.16699 35.5 -6.5s24.833 -10.833 41.5 -19.5c12 -7.33301 22.5 -12.833 31.5 -16.5s18.167 -5.5 27.5 -5.5c12 0 22.667 4.16699 32 12.5s16.333 18.833 21 31.5l14 -31
c-21.333 -44 -52.666 -66 -93.999 -66c-13.333 0 -26 2.33301 -38 7s-25.333 11 -40 19c-12.667 6.66699 -23.334 11.834 -32.001 15.501s-17.334 5.5 -26.001 5.5c-12.667 0 -23.834 -4.33301 -33.501 -13s-16.5 -20 -20.5 -34z" />
    <glyph glyph-name="hungarumlaut" unicode="&#x2dd;" horiz-adv-x="407" 
d="M219 686v-88l-125 -85h-49zM362 686v-88l-124 -85h-49z" />
    <glyph glyph-name="uni0326" unicode="&#x326;" horiz-adv-x="0" 
d="M-153 -224c23.333 12 43.168 27.333 59.501 46s24.5 39 24.5 61c0 2 -0.666992 6.33301 -2 13c-4 -10.667 -9.66699 -18.5 -17 -23.5s-15 -7.5 -23 -7.5c-12.667 0 -23.334 4.83301 -32.001 14.5s-13 20.167 -13 31.5c0 13.333 5.16699 24.666 15.5 33.999
s21.833 14 34.5 14c18.667 0 33.5 -7.16699 44.5 -21.5s16.5 -31.166 16.5 -50.499c0 -28 -9.16699 -53.5 -27.5 -76.5s-41.5 -41.167 -69.5 -54.5z" />
    <glyph glyph-name="uni0335" unicode="&#x335;" horiz-adv-x="0" 
d="M-305 565h260l-31 -31h-229v31z" />
    <glyph glyph-name="uni0337" unicode="&#x337;" horiz-adv-x="0" 
d="M-264 219l219 222v-43l-218 -221z" />
    <glyph glyph-name="uni0338" unicode="&#x338;" horiz-adv-x="0" 
d="M-427 25l382 417v-42l-382 -418v43z" />
    <glyph glyph-name="uni03A9" unicode="&#x3a9;" horiz-adv-x="729" 
d="M60 66h161.002v2c-100.667 102 -151 208 -151 318c0 96.667 26.667 170.334 80 221.001s124.666 76 213.999 76s160.833 -25.333 214.5 -76s80.5 -124.334 80.5 -221.001c0 -110 -50.333 -216 -151 -318v-2h161v-66h-248v68c106.667 110.667 160 218 160 322
c0 48.667 -9.66699 90.167 -29 124.5s-45.333 60.333 -78 78s-69.334 26.5 -110.001 26.5s-77.167 -8.83301 -109.5 -26.5s-58 -43.667 -77 -78s-28.5 -75.833 -28.5 -124.5c0 -104.667 53 -212 159 -322v-68h-248v66z" />
    <glyph glyph-name="uni03A9" unicode="&#x3c9;" horiz-adv-x="729" 
d="M60 66h161.002v2c-100.667 102 -151 208 -151 318c0 96.667 26.667 170.334 80 221.001s124.666 76 213.999 76s160.833 -25.333 214.5 -76s80.5 -124.334 80.5 -221.001c0 -110 -50.333 -216 -151 -318v-2h161v-66h-248v68c106.667 110.667 160 218 160 322
c0 48.667 -9.66699 90.167 -29 124.5s-45.333 60.333 -78 78s-69.334 26.5 -110.001 26.5s-77.167 -8.83301 -109.5 -26.5s-58 -43.667 -77 -78s-28.5 -75.833 -28.5 -124.5c0 -104.667 53 -212 159 -322v-68h-248v66z" />
    <glyph glyph-name="uni03BC" unicode="&#x3bc;" horiz-adv-x="493" 
d="M458 37l-0.000976562 -45.001c-6.66699 -2 -15.667 -3 -27 -3c-24 0 -42.667 5.83301 -56 17.5s-22.333 31.167 -27 58.5c-12.667 -24 -31.667 -43 -57 -57s-52.333 -21 -81 -21c-24 0 -46 4.66699 -66 14v-213h-70v636h70v-250c0 -46.667 8 -80 24 -100s37 -30 63 -30
c32.667 0 59.834 15 81.501 45s32.5 72.333 32.5 127v208h70v-321c0 -23.333 2.66699 -40.166 8 -50.499s14 -15.5 26 -15.5h9z" />
    <glyph glyph-name="pi" unicode="&#x3c0;" horiz-adv-x="547" 
d="M421 366l0.00195312 -256.999c0 -28.667 3.16699 -48 9.5 -58s16.166 -15 29.499 -15c3.33301 0 6 0.333008 8 1v-49c-5.33301 -0.666992 -14.333 -1 -27 -1c-28.667 0 -50.834 9.16699 -66.501 27.5s-23.5 50.166 -23.5 95.499v256h-150v-366h-70v366h-100v58h484v-58
h-94z" />
    <glyph glyph-name="Wgrave" unicode="&#x1e80;" horiz-adv-x="905" 
d="M870 669l-197 -670h-87l-125 408l-137 -408h-84l-205 670h77l171 -578h7l139 421l-48 157h77l168 -576h6l161 576h77zM328 798v88l174 -173h-49z" />
    <glyph glyph-name="wgrave" unicode="&#x1e81;" horiz-adv-x="632" 
d="M619 424l-132 -424h-75l-93 271l-98 -271h-74l-134 424h73l100 -347l101 289l-20 58h68l115 -349l99 349h70zM198 598v88l173 -173h-49z" />
    <glyph glyph-name="Wacute" unicode="&#x1e82;" horiz-adv-x="905" 
d="M870 669l-197 -670h-87l-125 408l-137 -408h-84l-205 670h77l171 -578h7l139 421l-48 157h77l168 -576h6l161 576h77zM545 886v-88l-125 -85h-49z" />
    <glyph glyph-name="wacute" unicode="&#x1e83;" horiz-adv-x="632" 
d="M619 424l-132 -424h-75l-93 271l-98 -271h-74l-134 424h73l100 -347l101 289l-20 58h68l115 -349l99 349h70zM389 686v-88l-124 -85h-49z" />
    <glyph glyph-name="Wdieresis" unicode="&#x1e84;" horiz-adv-x="905" 
d="M870 669l-197 -670h-87l-125 408l-137 -408h-84l-205 670h77l171 -578h7l139 421l-48 157h77l168 -576h6l161 576h77zM324 774.5c-9.33301 9.66699 -14 21.167 -14 34.5s4.66699 24.833 14 34.5s20.333 14.5 33 14.5s23.667 -4.83301 33 -14.5s14 -21.167 14 -34.5
s-4.66699 -24.833 -14 -34.5s-20.333 -14.5 -33 -14.5s-23.667 4.83301 -33 14.5zM483 774.5c-9.33301 9.66699 -14 21.167 -14 34.5s4.66699 24.833 14 34.5s20.333 14.5 33 14.5s23.667 -4.83301 33 -14.5s14 -21.167 14 -34.5s-4.66699 -24.833 -14 -34.5
s-20.333 -14.5 -33 -14.5s-23.667 4.83301 -33 14.5z" />
    <glyph glyph-name="wdieresis" unicode="&#x1e85;" horiz-adv-x="632" 
d="M619 424l-132 -424h-75l-93 271l-98 -271h-74l-134 424h73l100 -347l101 289l-20 58h68l115 -349l99 349h70zM186 574.5c-9.33301 9.66699 -14 21.167 -14 34.5s4.66699 24.833 14 34.5s20.333 14.5 33 14.5s23.667 -4.83301 33 -14.5s14 -21.167 14 -34.5
s-4.66699 -24.833 -14 -34.5s-20.333 -14.5 -33 -14.5s-23.667 4.83301 -33 14.5zM345 574.5c-9.33301 9.66699 -14 21.167 -14 34.5s4.66699 24.833 14 34.5s20.333 14.5 33 14.5s23.667 -4.83301 33 -14.5s14 -21.167 14 -34.5s-4.66699 -24.833 -14 -34.5
s-20.333 -14.5 -33 -14.5s-23.667 4.83301 -33 14.5z" />
    <glyph glyph-name="uni1E9E" unicode="&#x1e9e;" horiz-adv-x="650" 
d="M385 -5c-21.333 4.66699 -39.668 11.335 -55.001 20.002v58c35.333 -22 69.333 -33 102 -33c26 0 47.333 6.66699 64 20s25 33.666 25 60.999c0 26.667 -7.66699 49.167 -23 67.5s-38 38.5 -68 60.5c-28.667 21.333 -50.167 40.333 -64.5 57s-21.5 36.667 -21.5 60
c0 20.667 5 37.667 15 51s24.667 28 44 44c18 15.333 31.333 28.833 40 40.5s13 25.834 13 42.501c0 27.333 -11.167 48 -33.5 62s-54.166 21 -95.499 21c-49.333 0 -86.833 -11 -112.5 -33s-38.5 -53.333 -38.5 -94v-500h-71v520c0 49.333 19.667 88.166 59 116.499
s93 42.5 161 42.5c34.667 0 67 -5.16699 97 -15.5s54.167 -25 72.5 -44s27.5 -41.5 27.5 -67.5c0 -28 -6.16699 -50.833 -18.5 -68.5s-29.5 -35.834 -51.5 -54.501c-14 -12 -24 -21.667 -30 -29s-9 -15.333 -9 -24c0 -12 4 -24 12 -36s19 -23 33 -33l54 -38
c56 -40 84 -88 84 -144c0 -44 -13.833 -77.833 -41.5 -101.5s-63.5 -35.5 -107.5 -35.5c-20 0 -40.667 2.33301 -62 7z" />
    <glyph glyph-name="Ygrave" unicode="&#x1ef2;" horiz-adv-x="503" 
d="M290 244v-244h-76v241l-199 428h83l156 -346l157 346h77zM148 798v88l174 -173h-49z" />
    <glyph glyph-name="ygrave" unicode="&#x1ef3;" horiz-adv-x="412" 
d="M397 424l-164 -514.999c-14.667 -44 -32.167 -77.333 -52.5 -100s-46.833 -34 -79.5 -34c-24 0 -47 4.33301 -69 13v54c21.333 -8 41 -12 59 -12c20 0 36.667 7.16699 50 21.5s24.333 36.166 33 65.499l25 83h-43l-142 424h72l124 -389l117 389h70zM107 598.001v88
l173 -173h-49z" />
    <glyph glyph-name="uni2009" unicode="&#x2009;" horiz-adv-x="75" 
 />
    <glyph glyph-name="endash" unicode="&#x2013;" horiz-adv-x="431" 
d="M45 261h341v-48h-341v48z" />
    <glyph glyph-name="emdash" unicode="&#x2014;" horiz-adv-x="586" 
d="M45 261h496v-48h-496v48z" />
    <glyph glyph-name="quoteleft" unicode="&#x2018;" horiz-adv-x="181" 
d="M168 651c-25.333 -13.333 -47 -31.834 -65 -55.501s-28.333 -49.834 -31 -78.501c3.33301 3.33301 10 5 20 5c12.667 0 23 -4.66699 31 -14s12 -20 12 -32c0 -13.333 -4.5 -24.666 -13.5 -33.999s-21.167 -14 -36.5 -14c-19.333 0 -34 7.33301 -44 22
s-15 30.334 -15 47.001c0 41.333 12.5 78.5 37.5 111.5s54.833 56.833 89.5 71.5z" />
    <glyph glyph-name="quoteright" unicode="&#x2019;" horiz-adv-x="181" 
d="M13 457c25.333 13.333 47 31.834 65 55.501s28.333 49.834 31 78.501c-3.33301 -3.33301 -10 -5 -20 -5c-12.667 0 -23 4.66699 -31 14s-12 20 -12 32c0 13.333 4.5 24.666 13.5 33.999s21.167 14 36.5 14c19.333 0 34 -7.33301 44 -22s15 -30.334 15 -47.001
c0 -41.333 -12.5 -78.5 -37.5 -111.5s-54.833 -56.833 -89.5 -71.5z" />
    <glyph glyph-name="quotesinglbase" unicode="&#x201a;" horiz-adv-x="181" 
d="M13 -144c25.333 13.333 47 31.834 65 55.501s28.333 49.834 31 78.501c-3.33301 -3.33301 -10 -5 -20 -5c-12.667 0 -23 4.66699 -31 14s-12 20 -12 32c0 13.333 4.5 24.666 13.5 33.999s21.167 14 36.5 14c19.333 0 34 -7.33301 44 -22s15 -30.334 15 -47.001
c0 -41.333 -12.5 -78.5 -37.5 -111.5s-54.833 -56.833 -89.5 -71.5z" />
    <glyph glyph-name="quotedblleft" unicode="&#x201c;" horiz-adv-x="351" 
d="M168 651c-25.333 -13.333 -47 -31.834 -65 -55.501s-28.333 -49.834 -31 -78.501c3.33301 3.33301 10 5 20 5c12.667 0 23 -4.66699 31 -14s12 -20 12 -32c0 -13.333 -4.5 -24.666 -13.5 -33.999s-21.167 -14 -36.5 -14c-19.333 0 -34 7.33301 -44 22
s-15 30.334 -15 47.001c0 41.333 12.5 78.5 37.5 111.5s54.833 56.833 89.5 71.5zM338 650.999c-25.333 -13.333 -47 -31.834 -65 -55.501s-28.333 -49.834 -31 -78.501c3.33301 3.33301 10 5 20 5c12.667 0 23 -4.66699 31 -14s12 -20 12 -32
c0 -13.333 -4.5 -24.666 -13.5 -33.999s-21.167 -14 -36.5 -14c-19.333 0 -34 7.33301 -44 22s-15 30.334 -15 47.001c0 41.333 12.5 78.5 37.5 111.5s54.833 56.833 89.5 71.5z" />
    <glyph glyph-name="quotedblright" unicode="&#x201d;" horiz-adv-x="351" 
d="M183 455c25.333 13.333 47 31.834 65 55.501s28.333 49.834 31 78.501c-3.33301 -3.33301 -10 -5 -20 -5c-12.667 0 -23 4.66699 -31 14s-12 20 -12 32c0 13.333 4.5 24.666 13.5 33.999s21.167 14 36.5 14c19.333 0 34 -7.33301 44 -22s15 -30.334 15 -47.001
c0 -41.333 -12.5 -78.5 -37.5 -111.5s-54.833 -56.833 -89.5 -71.5zM13 455.001c25.333 13.333 47 31.834 65 55.501s28.333 49.834 31 78.501c-3.33301 -3.33301 -10 -5 -20 -5c-12.667 0 -23 4.66699 -31 14s-12 20 -12 32c0 13.333 4.5 24.666 13.5 33.999
s21.167 14 36.5 14c19.333 0 34 -7.33301 44 -22s15 -30.334 15 -47.001c0 -41.333 -12.5 -78.5 -37.5 -111.5s-54.833 -56.833 -89.5 -71.5z" />
    <glyph glyph-name="quotedblbase" unicode="&#x201e;" horiz-adv-x="355" 
d="M187 -144c25.333 13.333 47 31.834 65 55.501s28.333 49.834 31 78.501c-3.33301 -3.33301 -10 -5 -20 -5c-12.667 0 -23 4.66699 -31 14s-12 20 -12 32c0 13.333 4.5 24.666 13.5 33.999s21.167 14 36.5 14c19.333 0 34 -7.33301 44 -22s15 -30.334 15 -47.001
c0 -41.333 -12.5 -78.5 -37.5 -111.5s-54.833 -56.833 -89.5 -71.5zM13 -143.999c25.333 13.333 47 31.834 65 55.501s28.333 49.834 31 78.501c-3.33301 -3.33301 -10 -5 -20 -5c-12.667 0 -23 4.66699 -31 14s-12 20 -12 32c0 13.333 4.5 24.666 13.5 33.999
s21.167 14 36.5 14c19.333 0 34 -7.33301 44 -22s15 -30.334 15 -47.001c0 -41.333 -12.5 -78.5 -37.5 -111.5s-54.833 -56.833 -89.5 -71.5z" />
    <glyph glyph-name="dagger" unicode="&#x2020;" horiz-adv-x="375" 
d="M155 420l-150 1v53l150 -1v196h70v-196h145v-53h-145v-420h-70v420z" />
    <glyph glyph-name="daggerdbl" unicode="&#x2021;" horiz-adv-x="494" 
d="M215 230h-151v53h151v137l-150 1v53l150 -1v196h70v-196h145v-53h-145v-137h145v-53h-145v-230h-70v230z" />
    <glyph glyph-name="bullet" unicode="&#x2022;" horiz-adv-x="300" 
d="M82.5 235c-18.333 19.333 -27.5 42.666 -27.5 69.999s9.16699 50.5 27.5 69.5s40.833 28.5 67.5 28.5c26 0 48.333 -9.5 67 -28.5s28 -42.167 28 -69.5s-9.33301 -50.666 -28 -69.999s-41 -29 -67 -29c-26.667 0 -49.167 9.66699 -67.5 29z" />
    <glyph glyph-name="ellipsis" unicode="&#x2026;" horiz-adv-x="592" 
d="M263.5 4c-9 9.33301 -13.5 20.333 -13.5 33s4.5 23.5 13.5 32.5s19.833 13.5 32.5 13.5s23.5 -4.5 32.5 -13.5s13.5 -19.833 13.5 -32.5s-4.5 -23.667 -13.5 -33s-19.833 -14 -32.5 -14s-23.5 4.66699 -32.5 14zM463.5 4c-9 9.33301 -13.5 20.333 -13.5 33
s4.5 23.5 13.5 32.5s19.833 13.5 32.5 13.5s23.5 -4.5 32.5 -13.5s13.5 -19.833 13.5 -32.5s-4.5 -23.667 -13.5 -33s-19.833 -14 -32.5 -14s-23.5 4.66699 -32.5 14zM63.5 4c-9 9.33301 -13.5 20.333 -13.5 33s4.5 23.5 13.5 32.5s19.833 13.5 32.5 13.5
s23.5 -4.5 32.5 -13.5s13.5 -19.833 13.5 -32.5s-4.5 -23.667 -13.5 -33s-19.833 -14 -32.5 -14s-23.5 4.66699 -32.5 14z" />
    <glyph glyph-name="perthousand" unicode="&#x2030;" horiz-adv-x="1090" 
d="M612 704h45l-495 -749h-45zM78 345c-22 36.667 -33 84 -33 142c0 56 11.5 101.5 34.5 136.5s56.167 52.5 99.5 52.5c44 0 77.667 -17.5 101 -52.5s35 -82.167 35 -141.5c0 -56 -11.333 -102 -34 -138s-56.667 -54 -102 -54s-79 18.333 -101 55zM234.5 376
c13 26 19.5 61.332 19.5 105.999c0 44 -6.16699 79.667 -18.5 107s-31.833 41 -58.5 41c-24.667 0 -43 -13.833 -55 -41.5s-18 -64.5 -18 -110.5c0 -47.333 6.83301 -82.666 20.5 -105.999s31.167 -35 52.5 -35c25.333 0 44.5 13 57.5 39zM492 46.999
c-22 36.667 -33 84 -33 142c0 56 11.5 101.5 34.5 136.5s56.167 52.5 99.5 52.5c44 0 77.667 -17.5 101 -52.5s35 -82.167 35 -141.5c0 -56 -11.333 -102 -34 -138s-56.667 -54 -102 -54s-79 18.333 -101 55zM808 46.999c-22 36.667 -33 84 -33 142
c0 56 11.5 101.5 34.5 136.5s56.167 52.5 99.5 52.5c44 0 77.667 -17.5 101 -52.5s35 -82.167 35 -141.5c0 -56 -11.333 -102 -34 -138s-56.667 -54 -102 -54s-79 18.333 -101 55zM649.5 76.999c13 26 19.499 61.668 19.499 107.001c0 44.667 -6.16699 80.667 -18.5 108
s-32.166 41 -59.499 41c-24.667 0 -43.167 -13.833 -55.5 -41.5s-18.5 -64.834 -18.5 -111.501c0 -47.333 7 -82.833 21 -106.5s31.667 -35.5 53 -35.5c26 0 45.5 13 58.5 39zM965.499 77c13 26 19.499 61.668 19.499 107.001c0 44.667 -6.16699 80.667 -18.5 108
s-32.166 41 -59.499 41c-24.667 0 -43.167 -13.833 -55.5 -41.5s-18.5 -64.834 -18.5 -111.501c0 -47.333 7 -82.833 21 -106.5s31.667 -35.5 53 -35.5c26 0 45.5 13 58.5 39z" />
    <glyph glyph-name="guilsinglleft" unicode="&#x2039;" horiz-adv-x="259" 
d="M19 215l148 191l25 -19l-135 -172l146 -176l-26 -19z" />
    <glyph glyph-name="guilsinglright" unicode="&#x203a;" horiz-adv-x="259" 
d="M56 39l145 176l-134 172l25 19l148 -191l-158 -195z" />
    <glyph glyph-name="fraction" unicode="&#x2044;" horiz-adv-x="131" 
d="M296 704h45l-496 -749h-45z" />
    <glyph glyph-name="Euro" unicode="&#x20ac;" horiz-adv-x="549" 
d="M210 561c-38.667 -39.333 -60.3301 -103 -64.9971 -191h216l-20 -60h-197c4 -92.667 25.5 -159.167 64.5 -199.5s89.5 -60.5 151.5 -60.5c22 0 45.167 3.16699 69.5 9.5s46.166 14.5 65.499 24.5v-66c-18.667 -8 -41 -14.833 -67 -20.5s-50 -8.5 -72 -8.5
c-92 0 -162.833 29.5 -212.5 88.5s-76.5 136.5 -80.5 232.5h-73v60h74c6 92 33.167 166.833 81.5 224.5s117.5 86.5 207.5 86.5c23.333 0 48.166 -2.66699 74.499 -8s48.833 -12.333 67.5 -21v-66c-19.333 10.667 -41.333 19 -66 25s-48.334 9 -71.001 9
c-60 0 -109.333 -19.667 -148 -59z" />
    <glyph glyph-name="trademark" unicode="&#x2122;" horiz-adv-x="694" 
d="M3 668h263v-38h-103v-297h-58v297h-102v38zM641 668v-335h-56v300l-89 -300h-35l-93 296v-296h-54v335h93l72 -239l70 239h92z" />
    <glyph glyph-name="uni2126" unicode="&#x2126;" horiz-adv-x="729" 
d="M60 66h161.002v2c-100.667 102 -151 208 -151 318c0 96.667 26.667 170.334 80 221.001s124.666 76 213.999 76s160.833 -25.333 214.5 -76s80.5 -124.334 80.5 -221.001c0 -110 -50.333 -216 -151 -318v-2h161v-66h-248v68c106.667 110.667 160 218 160 322
c0 48.667 -9.66699 90.167 -29 124.5s-45.333 60.333 -78 78s-69.334 26.5 -110.001 26.5s-77.167 -8.83301 -109.5 -26.5s-58 -43.667 -77 -78s-28.5 -75.833 -28.5 -124.5c0 -104.667 53 -212 159 -322v-68h-248v66z" />
    <glyph glyph-name="estimated" unicode="&#x212e;" horiz-adv-x="776" 
d="M214.5 33c-53 27.333 -95.333 66.832 -127 118.499s-47.5 112.167 -47.5 181.5s15 129.666 45 180.999s71.333 90.833 124 118.5s112.334 41.5 179.001 41.5c66 0 124.833 -12.833 176.5 -38.5s92.834 -65.167 123.501 -118.5s46.667 -119.666 48 -198.999h-555v-197
c27.333 -28.667 58.833 -51.167 94.5 -67.5s73.167 -24.5 112.5 -24.5c44 0 82.5 8.33301 115.5 25s64.5 42.334 94.5 77.001h74c-14 -30.667 -37.333 -56.5 -70 -77.5s-68.334 -36.5 -107.001 -46.5s-74.334 -15 -107.001 -15c-62.667 0 -120.5 13.667 -173.5 41z
M601 352.999l0.000976562 175c-20 37.333 -48.833 65 -86.5 83s-79.834 27 -126.501 27c-40.667 0 -76.667 -7.5 -108 -22.5s-64.333 -40.167 -99 -75.5v-187h420z" />
    <glyph glyph-name="arrowleft" unicode="&#x2190;" horiz-adv-x="651" 
d="M45 317l239 246l34 -33l-184 -190h472v-47h-472l184 -190l-34 -32z" />
    <glyph glyph-name="arrowup" unicode="&#x2191;" horiz-adv-x="583" 
d="M268 511l-190 -184l-33 34l247 239l246 -239l-29 -34l-194 184v-472h-47v472z" />
    <glyph glyph-name="arrowright" unicode="&#x2192;" horiz-adv-x="651" 
d="M333 103l185 190h-473v47h473l-185 190l34 33l239 -246l-239 -246z" />
    <glyph glyph-name="arrowdown" unicode="&#x2193;" horiz-adv-x="583" 
d="M45 275l33 34l190 -185v473h47v-473l194 185l29 -34l-246 -239z" />
    <glyph glyph-name="partialdiff" unicode="&#x2202;" horiz-adv-x="552" 
d="M148 17.5c-32.667 19 -57.9971 45.832 -75.9971 80.499s-27 75 -27 121c0 48 9 91.333 27 130s43.667 69.167 77 91.5s72.333 33.5 117 33.5c40 0 75 -9.33301 105 -28s52 -42 66 -70c-0.666992 40 -11.334 77.833 -32.001 113.5s-49.334 65.334 -86.001 89.001
s-78 38.5 -124 44.5v64c60.667 -7.33301 114.667 -26.333 162 -57s84.166 -71 110.499 -121s39.5 -107 39.5 -171c0 -122 -22.667 -210.667 -68 -266s-104 -83 -176 -83c-44 0 -82.333 9.5 -115 28.5zM346.003 75.999c24 18 42.501 42.001 55.501 72.001
s19.5 62.667 19.5 98c0 32 -7.33301 60.833 -22 86.5s-33.834 45.667 -57.501 60s-48.5 21.5 -74.5 21.5c-48 0 -84.667 -17.833 -110 -53.5s-38 -82.834 -38 -141.501c0 -52.667 12.333 -94.167 37 -124.5s60.667 -45.5 108 -45.5c30.667 0 58 9 82 27z" />
    <glyph glyph-name="uni2206" unicode="&#x2206;" horiz-adv-x="684" 
d="M318 669h48l273 -669h-594zM541 61l-197 513l-205 -513h402z" />
    <glyph glyph-name="product" unicode="&#x220f;" horiz-adv-x="693" 
d="M105 669h483v-798h-78v745h-326v-745h-79v798z" />
    <glyph glyph-name="summation" unicode="&#x2211;" horiz-adv-x="502" 
d="M45 -49l230 367l-230 317v34h412v-56h-310l214 -295l-212 -343h308v-58h-412v34z" />
    <glyph glyph-name="minus" unicode="&#x2212;" horiz-adv-x="506" 
d="M45 252h416v-46h-416v46z" />
    <glyph glyph-name="radical" unicode="&#x221a;" horiz-adv-x="597" 
d="M116 175l-74 -36l-29 58l140 64l130 -302l209 710h70l-244 -821h-57z" />
    <glyph glyph-name="infinity" unicode="&#x221e;" horiz-adv-x="740" 
d="M126 88c-24.667 14.667 -44.3379 34.333 -59.0049 59s-22 51.667 -22 81s7.33301 56.333 22 81s34.334 44.334 59.001 59.001s51.667 22 81 22c38.667 0 70.334 -10 95.001 -30s47.334 -48 68.001 -84c21.333 34.667 44.833 62.334 70.5 83.001s56.5 31 92.5 31
c29.333 0 56.333 -7.33301 81 -22s44.334 -34.334 59.001 -59.001s22 -51.667 22 -81s-7.16699 -56.333 -21.5 -81s-34 -44.334 -59 -59.001s-52.167 -22 -81.5 -22c-36 0 -66.833 10.167 -92.5 30.5s-49.167 47.833 -70.5 82.5c-21.333 -36 -44.166 -63.833 -68.499 -83.5
s-55.833 -29.5 -94.5 -29.5c-29.333 0 -56.333 7.33301 -81 22zM281.996 142.999c19.333 19.333 39.667 47.6641 61 84.9971c-20 36.667 -40 64.834 -60 84.501s-45.333 29.5 -76 29.5c-31.333 0 -58.166 -11.167 -80.499 -33.5s-33.5 -49.166 -33.5 -80.499
s11.167 -58.166 33.5 -80.499s49.166 -33.5 80.499 -33.5c30.667 0 55.667 9.66699 75 29zM613.997 147.497c22 22.333 32.999 49.1699 32.999 80.5029s-11.167 58.166 -33.5 80.499s-49.166 33.5 -80.499 33.5c-30.667 0 -56 -9.83301 -76 -29.5s-40 -47.834 -60 -84.501
c20 -36.667 40 -64.834 60 -84.501s45.333 -29.5 76 -29.5c32 0 59 11.167 81 33.5z" />
    <glyph glyph-name="integral" unicode="&#x222b;" horiz-adv-x="404" 
d="M213 -116.5c-23.333 23 -35 50.833 -35 83.5v593c0 20 -6.83301 37.667 -20.5 53s-30.167 23 -49.5 23c-20 0 -38 -8 -54 -24l-31 33c24.667 24.667 53 37 85 37c32.667 0 60.5 -11.5 83.5 -34.5s34.5 -50.5 34.5 -82.5v-594c0 -20 7 -37.667 21 -53s30.667 -23 50 -23
c8.66699 0 18 2.33301 28 7s18.667 10.667 26 18l30 -34c-24.667 -24.667 -52.667 -37 -84 -37c-32.667 0 -60.667 11.5 -84 34.5z" />
    <glyph glyph-name="approxequal" unicode="&#x2248;" 
d="M336 275l-36.002 17.001c-44 20 -79.667 30 -107 30c-20 0 -39 -3.33301 -57 -10s-38 -21.667 -60 -45l-31 31c23.333 28 47.5 46.667 72.5 56s49.833 14 74.5 14c19.333 0 38.333 -2.5 57 -7.5s47 -15.833 85 -32.5l41 -18c23.333 -10 40.333 -16.667 51 -20
s21 -5 31 -5c18.667 0 37.5 5.66699 56.5 17s40.167 29.666 63.5 54.999l31 -33c-26.667 -30.667 -52.167 -52.5 -76.5 -65.5s-50.166 -19.5 -77.499 -19.5s-66.666 12 -117.999 36zM404.998 115.501c-18.667 5 -46.998 15.832 -84.998 32.499l-41 18
c-23.333 10 -40.333 16.667 -51 20s-21 5 -31 5c-18.667 0 -37.5 -5.66699 -56.5 -17s-40.167 -29.666 -63.5 -54.999l-31 33c26.667 30.667 52.167 52.5 76.5 65.5s50.166 19.5 77.499 19.5s66.666 -12 117.999 -36l36 -17c44 -20 79.667 -30 107 -30
c20 0 39 3.33301 57 10s38 21.667 60 45l31 -31c-23.333 -28 -47.5 -46.667 -72.5 -56s-49.833 -14 -74.5 -14c-19.333 0 -38.333 2.5 -57 7.5z" />
    <glyph glyph-name="notequal" unicode="&#x2260;" horiz-adv-x="506" 
d="M70 82l64 64h-89v47h137l72 73h-209v46h256l100 99l33 -33l-65 -66h92v-46h-139l-74 -74h213v-46h-259l-98 -98z" />
    <glyph glyph-name="lessequal" unicode="&#x2264;" horiz-adv-x="427" 
d="M62 313c-11.333 7.33301 -17 16.667 -17 28c0 10.667 6 20 18 28l293 177l26 -42l-274 -163l273 -165l-26 -42zM46 99.001h330v-46h-330v46z" />
    <glyph glyph-name="greaterequal" unicode="&#x2265;" horiz-adv-x="427" 
d="M47 176l273 164.998l-275 163l26 42l294 -177c11.333 -7.33301 17 -16.666 17 -27.999s-5.66699 -20.666 -17 -27.999l-292 -179zM51 98.998h331v-46h-331v46z" />
    <glyph glyph-name="lozenge" unicode="&#x25ca;" horiz-adv-x="561" 
d="M45 322v25l223 336h25l223 -336v-25l-223 -336h-25zM466 335l-185 282l-186 -282l186 -283z" />
    <glyph glyph-name="uniF8FF" unicode="&#xf8ff;" horiz-adv-x="713" 
d="M317 25c2 15.333 5.66406 29.501 10.9971 42.501s13 22.167 23 27.5c12.667 7.33301 21 14.333 25 21s7.33301 17.334 10 32.001c-23.333 17.333 -35 37.666 -35 60.999c0 13.333 5.16699 25.166 15.5 35.499s22.5 15.5 36.5 15.5c6.66699 0 12.5 -1.5 17.5 -4.5
s7.5 -7.83301 7.5 -14.5c0 -2 -1 -4.33301 -3 -7s-4 -4 -6 -4c-1.33301 0 -3.66602 1.5 -6.99902 4.5s-6 4.5 -8 4.5c-5.33301 0 -11.166 -2 -17.499 -6s-9.5 -12 -9.5 -24c0 -9.33301 3.33301 -18.333 10 -27s14.667 -13 24 -13c4 0 8.5 1 13.5 3s9.83301 3 14.5 3
c5.33301 0 12.333 -2.66699 21 -8c10.667 -5.33301 20.5 -9.5 29.5 -12.5s19.5 -4.5 31.5 -4.5c9.33301 0 16.166 2.83301 20.499 8.5s8.5 14.5 12.5 26.5c1.33301 2.66699 3 6.66699 5 12s4.33301 10 7 14c2 2.66699 5 5.83398 9 9.50098s7.33301 7.5 10 11.5
s4 8.33301 4 13c0 6 -1.33301 12.333 -4 19s-6.66699 10 -12 10c-1.33301 0 -3.16602 -0.833008 -5.49902 -2.5s-3.5 -3.5 -3.5 -5.5s1.5 -4.66699 4.5 -8s4.5 -6.33301 4.5 -9s-1 -5 -3 -7s-4.33301 -3 -7 -3c-2 0 -4 1 -6 3
c-3.33301 3.33301 -7.16602 11.166 -11.499 23.499s-7.83301 23.333 -10.5 33l-6 21.5c0.666992 -2.66699 -2.66602 9.33301 -9.99902 36c-10 31.333 -19.833 58 -29.5 80s-19.834 33 -30.501 33c-7.33301 0 -15.333 -13.333 -24 -40s-19.334 -64.667 -32.001 -114
c-30.667 -15.333 -60.667 -23 -90 -23c-22.667 0 -38.167 13.333 -46.5 40s-12.5 58.667 -12.5 96h-5l-9 17c-20 8 -44.333 15.833 -73 23.5s-55.667 11.5 -81 11.5c-15.333 0 -25.666 -6 -30.999 -18s-9 -28.667 -11 -50c-0.666992 -10.667 -5.33398 -16 -14.001 -16
c-10 0 -15 8.66699 -15 26c0 24.667 5.83301 46 17.5 64s29.167 27 52.5 27c24.667 0 51.834 -3.83301 81.501 -11.5s63.167 -17.834 100.5 -30.501c50.667 9.33301 104 20.833 160 34.5s106.333 28.5 151 44.5c-42.667 24.667 -81 45.5 -115 62.5s-56 25.5 -66 25.5
c-7.33301 0 -12.833 -4.16699 -16.5 -12.5s-5.83398 -17.5 -6.50098 -27.5c0 -4 -1.16699 -7 -3.5 -9s-5.16602 -3 -8.49902 -3c-4 0 -7.33301 1.16699 -10 3.5s-4 5.5 -4 9.5c0 20 4.83301 36.667 14.5 50s21.167 20 34.5 20c12 0 39.5 -10.833 82.5 -32.5
s91.5 -48.167 145.5 -79.5v-28l-6 -4l1 -43c0 -36.667 -6.5 -64 -19.5 -82s-31.5 -32.333 -55.5 -43l24 -54c12.667 -8.66699 22 -16.834 28 -24.501s9 -18.167 9 -31.5c0 -9.33301 -1.66699 -17 -5 -23s-7.5 -11.5 -12.5 -16.5l-9.5 -9.5c22 -22 47.333 -39.667 76 -53
c9.33301 -4 17.5 -9.66699 24.5 -17s11.5 -15 13.5 -23c3.33301 -18 5 -30 5 -36l-1 -38l-19 8l-11 -13v14c0 30.667 -6.66699 52.667 -20 66l-19 7l14 -19l-40 19l11 -38l-43 40l6 -58l-22 27l-12 -29l-14 37l-8 -45l-17 25l-16 -32l-13 39l-22 -38l-4 37l-26 -36l-4 24
l-43 -23l9 33c-4 0 -8.66699 -4.33301 -14 -13c-4.66699 -6.66699 -8.66699 -15 -12 -25s-6.33301 -19.667 -9 -29c-2 -9.33301 -3.66699 -23.666 -5 -42.999l-15 14l-14 -17c0 22.667 0.666992 43.334 2 62.001zM572.497 405.501c7 7 12.332 17 15.999 30
s5.5 32.167 5.5 57.5c0 10 -0.333008 18 -1 24c-26.667 0 -65.334 -9.66699 -116.001 -29c4.66699 -1.33301 11.334 -7 20.001 -17s16.834 -22.833 24.501 -38.5s13.167 -32.5 16.5 -50.5c16 8.66699 27.5 16.5 34.5 23.5zM354.496 327.001
c11.667 4 20.5 6.66602 26.5 7.99902c12 55.333 26 101.333 42 138c-30.667 -1.33301 -78 -12.666 -142 -33.999v-30c0 -22 3 -42.167 9 -60.5s17 -27.5 33 -27.5c9.33301 0 19.833 2 31.5 6z" />
    <glyph glyph-name="NULL" horiz-adv-x="0" 
 />
    <glyph glyph-name="f_f.dlig" horiz-adv-x="510" 
d="M149 424h95v-44h-95v-380h-70v351c0 12 -2 20.167 -6 24.5s-11.333 6.5 -22 6.5h-26v42h54v94c0 54.667 11 94.667 33 120s52.333 38 91 38c22 0 43.667 -4 65 -12v-52c-18 6.66699 -36 10 -54 10c-20.667 0 -36.667 -7.33301 -48 -22s-17 -39.667 -17 -75v-101zM428 600
c-11.333 -14.667 -17.001 -39.667 -17.001 -75v-101h95v-44h-95v-380h-70v349c0 12 -2 20.167 -6 24.5s-11.333 6.5 -22 6.5h-65v44h93v94c0 54.667 11 94.667 33 120s52.333 38 91 38c22.667 0 44.334 -4 65.001 -12v-52c-18 6.66699 -36 10 -54 10
c-20.667 0 -36.667 -7.33301 -48 -22z" />
    <glyph glyph-name="f_t" horiz-adv-x="518" 
d="M166 600c-11.333 -14.667 -17 -39.667 -17 -75v-101h95v-44h-95v-380h-70v351c0 12 -2 20.167 -6 24.5s-11.333 6.5 -22 6.5h-26v42h54v94c0 54.667 11 94.667 33 120s52.333 38 91 38c22 0 43.667 -4 65 -12v-52c-18 6.66699 -36 10 -54 10
c-20.667 0 -36.667 -7.33301 -48 -22zM486 1c-18.667 -8 -38.334 -12 -59.001 -12c-29.333 0 -52.166 8 -68.499 24s-24.5 40 -24.5 72v295h-55v44h55v127h70v-127h77v-44h-77v-274c0 -23.333 3 -39.833 9 -49.5s17.333 -14.5 34 -14.5c10 0 22 2 36 6z" />
    <glyph glyph-name="r_f.dlig" horiz-adv-x="568" 
d="M486 600c-11.333 -14.667 -17.001 -39.667 -17.001 -75v-101h95v-44h-95v-380h-70v518c0 54.667 11 94.667 33 120s52.333 38 91 38c22.667 0 44.334 -4 65.001 -12v-52c-18 6.66699 -36 10 -54 10c-20.667 0 -36.667 -7.33301 -48 -22zM189.499 420
c19.667 12.667 41.832 18.999 66.499 18.999c18 0 33 -2 45 -6v-59c-16 5.33301 -31 8 -45 8c-36.667 0 -64.5 -14.167 -83.5 -42.5s-28.5 -69.5 -28.5 -123.5v-216h-70v424h70v-57c10.667 22.667 25.834 40.334 45.501 53.001z" />
    <glyph glyph-name="r_t.dlig" horiz-adv-x="582" 
d="M550 1c-18.667 -8 -38.334 -12 -59.001 -12c-29.333 0 -52.166 8 -68.499 24s-24.5 40 -24.5 72v466h70v-127h77v-44h-77v-274c0 -23.333 3 -39.833 9 -49.5s17.333 -14.5 34 -14.5c10 0 22 2 36 6zM189.5 420c19.667 12.667 41.832 18.999 66.499 18.999
c18 0 33 -2 45 -6v-59c-16 5.33301 -31 8 -45 8c-36.667 0 -64.5 -14.167 -83.5 -42.5s-28.5 -69.5 -28.5 -123.5v-216h-70v424h70v-57c10.667 22.667 25.834 40.334 45.501 53.001z" />
    <glyph glyph-name="t_t" horiz-adv-x="540" 
d="M238 1c-18.667 -8 -38.334 -12 -59.001 -12c-29.333 0 -52.166 8 -68.499 24s-24.5 40 -24.5 72v295h-55v44h55v127h70v-127h77v-44h-77v-274c0 -23.333 3 -39.833 9 -49.5s17.333 -14.5 34 -14.5c10 0 22 2 36 6zM508 1c-18.667 -8 -38.334 -12 -59.001 -12
c-29.333 0 -52.166 8 -68.499 24s-24.5 40 -24.5 72v295h-55v44h55v127h70v-127h77v-44h-77v-274c0 -23.333 3 -39.833 9 -49.5s17.333 -14.5 34 -14.5c10 0 22 2 36 6z" />
    <glyph glyph-name="zero.lf" horiz-adv-x="572" 
d="M120 85c-36.667 65.333 -55 148.667 -55 250c0 102.667 18.5 186.167 55.5 250.5s92.167 96.5 165.5 96.5c71.333 0 126 -31.5 164 -94.5s57 -147.5 57 -253.5c0 -101.333 -18.5 -184.5 -55.5 -249.5s-92.167 -97.5 -165.5 -97.5c-74 0 -129.333 32.667 -166 98z
M394 125.001c25.333 49.333 38.001 119 38.001 209c0 87.333 -12.167 156.5 -36.5 207.5s-61.833 76.5 -112.5 76.5c-48 0 -84 -24.667 -108 -74s-36 -119.333 -36 -210c0 -100 13.167 -172.167 39.5 -216.5s61.166 -66.5 104.499 -66.5c48.667 0 85.667 24.667 111 74z" />
    <glyph glyph-name="zero.tf" horiz-adv-x="475" 
d="M84.5 77c-33.667 60 -50.5 136.667 -50.5 230c0 94.667 17.167 171.5 51.5 230.5s84.833 88.5 151.5 88.5c66 0 116.5 -29 151.5 -87s52.5 -135.667 52.5 -233c0 -93.333 -17 -169.833 -51 -229.5s-85 -89.5 -153 -89.5s-118.833 30 -152.5 90zM365 306
c0 173.333 -43.333 260 -130 260s-130 -86.667 -130 -260c0 -172 43.333 -258 130 -258s130 86 130 258z" />
    <glyph glyph-name="one.lf" horiz-adv-x="304" 
d="M131 604l-141 -7v43l213 31v-670h-72v603z" />
    <glyph glyph-name="one.tf" horiz-adv-x="475" 
d="M229 555l-130 -7v43l203 28v-618h-73v554z" />
    <glyph glyph-name="two.lf" horiz-adv-x="473" 
d="M30 72l17.002 17c78.667 77.333 136.334 135.833 173.001 175.5s65.167 77.667 85.5 114s30.5 72.833 30.5 109.5c0 44 -12 77.333 -36 100s-54.667 34 -92 34c-24 0 -49.667 -3.33301 -77 -10s-54 -17.334 -80 -32.001v65c53.333 24.667 106.666 37 159.999 37
c59.333 0 107.166 -17.167 143.499 -51.5s54.5 -81.5 54.5 -141.5c0 -43.333 -13.167 -88.166 -39.5 -134.499s-58.333 -90.333 -96 -132s-88.834 -94.5 -153.501 -158.5h308v-64h-398v72z" />
    <glyph glyph-name="two.tf" horiz-adv-x="475" 
d="M46 66c72.667 71.333 127.17 127.167 163.503 167.5s64.166 78 83.499 113s29 70.167 29 105.5c0 39.333 -10.833 68.833 -32.5 88.5s-49.834 29.5 -84.501 29.5c-42.667 0 -88.334 -13.333 -137.001 -40v66c49.333 22.667 98.333 34 147 34
c54.667 0 98.667 -15.667 132 -47s50 -74.666 50 -129.999c0 -40 -11.833 -81.333 -35.5 -124s-53.167 -83.834 -88.5 -123.501s-81 -87.167 -137 -142.5h279v-63h-369v66z" />
    <glyph glyph-name="three.lf" horiz-adv-x="494" 
d="M38 25l-0.00195312 70.0029c25.333 -14 51.5 -24.667 78.5 -32s51.833 -11 74.5 -11c34.667 0 65.167 6.16699 91.5 18.5s46.5 29.166 60.5 50.499s21 45.333 21 72c0 40 -17.667 72.667 -53 98s-81 39 -137 41h-8v62h8c28 0 54.5 5.5 79.5 16.5s45.167 26.167 60.5 45.5
s23 40.666 23 63.999c0 18 -5.33301 34.833 -16 50.5s-26.334 28.5 -47.001 38.5s-44.667 15 -72 15c-50 0 -102.333 -14.333 -157 -43v62c54 26 109.667 39 167 39c64 0 111.833 -15.333 143.5 -46s47.5 -68 47.5 -112c0 -34.667 -10.5 -67.334 -31.5 -98.001
s-47.167 -51 -78.5 -61c44 -8.66699 78.5 -29.5 103.5 -62.5s37.5 -70.833 37.5 -113.5c0.666992 -34.667 -7.66602 -67 -24.999 -97s-43.166 -54.333 -77.499 -73s-76.166 -28 -125.499 -28c-56 0 -112 11.333 -168 34z" />
    <glyph glyph-name="three.tf" horiz-adv-x="475" 
d="M53 22l0.000976562 70.001c23.333 -12.667 47.333 -22.334 72 -29.001s47.667 -10 69 -10c48 0 84.833 11.333 110.5 34s38.5 52.667 38.5 90s-14.833 67.666 -44.5 90.999s-69.834 36 -120.501 38h-7v57h7c39.333 0.666992 72.5 11.834 99.5 33.501
s40.5 49.167 40.5 82.5c0 25.333 -9.66699 46.333 -29 63s-47.666 25 -84.999 25c-48.667 0 -97 -12.667 -145 -38v63c50 24 101.333 36 154 36c58.667 0 102.667 -14.167 132 -42.5s44 -62.833 44 -103.5c0 -32 -9.66699 -62.167 -29 -90.5s-43.333 -46.833 -72 -55.5
c40 -8 71.5 -27.167 94.5 -57.5s34.5 -65.5 34.5 -105.5c0.666992 -32 -6.83301 -61.833 -22.5 -89.5s-39.334 -50 -71.001 -67s-70.167 -25.5 -115.5 -25.5c-51.333 0 -103 10.333 -155 31z" />
    <glyph glyph-name="four.lf" horiz-adv-x="538" 
d="M369 170l-334 1v38l184 461h73l-182 -443h259v247l74 29v-503h-74v170z" />
    <glyph glyph-name="four.tf" horiz-adv-x="475" 
d="M335 156l-307 1v35l168 425h73l-162 -402h228v221l71 27v-463h-71v156z" />
    <glyph glyph-name="five.lf" horiz-adv-x="498" 
d="M55 20l-0.000976562 72.999c60 -27.333 110.333 -41 151 -41c58.667 0 102.334 15.667 131.001 47s43 69.333 43 114c0 42 -14.167 77.833 -42.5 107.5s-68.833 44.5 -121.5 44.5c-39.333 1.33301 -81 -7 -125 -25l-32 21l35 309h337v-63l-277 1l-22 -194
c32 8.66699 65.333 13 100 13c42.667 0 80.834 -9.33301 114.501 -28s59.834 -44.167 78.501 -76.5s28 -68.166 28 -107.499c0 -46 -9.83301 -86.167 -29.5 -120.5s-47.334 -60.833 -83.001 -79.5s-76.834 -28 -123.501 -28c-56.667 0 -110.667 11 -162 33z" />
    <glyph glyph-name="five.tf" horiz-adv-x="475" 
d="M57 17l0.000976562 70.002c53.333 -24.667 99.666 -37 138.999 -37c34 0 62.5 7 85.5 21s40.167 32 51.5 54s17 45.333 17 70c0 39.333 -12.5 72.5 -37.5 99.5s-61.833 40.5 -110.5 40.5c-33.333 1.33301 -70.666 -6.33398 -111.999 -23.001l-29 19l32 285h310v-62
l-248 1l-20 -175c30.667 8 59 12 85 12c39.333 0 74.333 -8.66699 105 -26s54.667 -40.833 72 -70.5s26 -62.5 26 -98.5c0 -42.667 -9 -79.834 -27 -111.501s-43.5 -56 -76.5 -73s-70.833 -25.5 -113.5 -25.5c-52.667 0 -102.334 10 -149.001 30z" />
    <glyph glyph-name="six.lf" horiz-adv-x="509" 
d="M103 66c-35.333 52.667 -53.001 119.335 -53.001 200.002c0 70.667 12.5 135.834 37.5 195.501s62.333 109 112 148s110.167 62.833 181.5 71.5v-62c-65.333 -8 -120.666 -35 -165.999 -81s-75 -104 -89 -174c14.667 23.333 36.167 41.666 64.5 54.999s56.5 20 84.5 20
c37.333 0 70.666 -9.33301 99.999 -28s52.333 -45.167 69 -79.5s25 -73.5 25 -117.5c0 -38.667 -8.16699 -75.334 -24.5 -110.001s-40 -62.834 -71 -84.501s-67.833 -32.5 -110.5 -32.5c-71.333 0 -124.666 26.333 -159.999 79zM333.999 74.501
c20 16.333 35.333 37.501 46 63.501s16 53 16 81c0 33.333 -6.66699 62 -20 86s-30.333 42.167 -51 54.5s-42.334 18.5 -65.001 18.5c-23.333 0 -45.166 -6.33301 -65.499 -19s-36.833 -31.334 -49.5 -56.001s-19 -54 -19 -88c0 -48 12.333 -87.5 37 -118.5
s58 -46.5 100 -46.5c27.333 0 51 8.16699 71 24.5z" />
    <glyph glyph-name="six.tf" horiz-adv-x="475" 
d="M95.5 59c-32.333 48 -48.5 109.333 -48.5 184c0 65.333 11.667 126.833 35 184.5s57.833 105.667 103.5 144s101.167 61.5 166.5 69.5v-65c-60 -7.33301 -110.333 -33.333 -151 -78s-65.334 -99.334 -74.001 -164.001c12.667 21.333 30.834 38.166 54.501 50.499
s47.834 18.5 72.501 18.5c34 0 64.5 -8.66699 91.5 -26s48.167 -41.666 63.5 -72.999s23 -67.333 23 -108c0 -35.333 -7.5 -69.166 -22.5 -101.499s-36.833 -58.333 -65.5 -78s-62.334 -29.5 -101.001 -29.5c-66 0 -115.167 24 -147.5 72zM307 67.5
c18 15 31.501 34.333 40.501 58s13.5 48.5 13.5 74.5c-0.666992 42 -11 77.167 -31 105.5s-49 42.5 -87 42.5c-35.333 0 -64.5 -14.667 -87.5 -44s-34.5 -64.333 -34.5 -105c0 -25.333 4.83301 -49.833 14.5 -73.5s23.667 -43 42 -58s40.166 -22.5 65.499 -22.5
c24.667 0 46 7.5 64 22.5z" />
    <glyph glyph-name="seven.lf" horiz-adv-x="418" 
d="M312 605h-312l3 65h390v-37l-243 -632h-82z" />
    <glyph glyph-name="seven.tf" horiz-adv-x="475" 
d="M331 553h-279l3 63h359v-34l-224 -581h-81z" />
    <glyph glyph-name="eight.lf" horiz-adv-x="505" 
d="M100.5 36.5c-40.333 33 -60.4971 78.835 -60.4971 137.502c0 44 13.667 82.667 41 116s63.666 58 108.999 74c-35.333 17.333 -63.833 40.166 -85.5 68.499s-32.5 58.833 -32.5 91.5c0 32 8.33301 60 25 84s39.167 42.333 67.5 55s59.166 19 92.499 19
s64.166 -6.33301 92.499 -19s51 -31 68 -55s25.5 -52 25.5 -84c0 -38 -11.167 -69.833 -33.5 -95.5s-53.833 -47.834 -94.5 -66.501c100 -44 150 -108 150 -192c0 -34.667 -9 -66 -27 -94s-42.833 -49.833 -74.5 -65.5s-67.167 -23.5 -106.5 -23.5
c-64 0 -116.167 16.5 -156.5 49.5zM343.503 443.002c17.667 18.667 26.501 42.666 26.501 71.999c0 37.333 -10 65.666 -30 84.999s-47 29 -81 29c-32.667 0 -59.834 -9.66699 -81.501 -29s-32.5 -46.666 -32.5 -81.999c0 -27.333 10.833 -51.666 32.5 -72.999
s50.5 -39 86.5 -53c35.333 15.333 61.833 32.333 79.5 51zM349.504 79.501c25.667 23 38.4971 55.168 38.4971 96.501c0 38 -13.667 69 -41 93s-62.666 44 -105.999 60c-38 -13.333 -68.5 -32.333 -91.5 -57s-34.5 -54.334 -34.5 -89.001c0 -44 13.833 -78 41.5 -102
s60.834 -36 99.501 -36c36.667 0 67.834 11.5 93.501 34.5z" />
    <glyph glyph-name="eight.tf" horiz-adv-x="475" 
d="M98.5 32.5c-37.667 30.333 -56.499 72.502 -56.499 126.502c0 40.667 12.667 76.167 38 106.5s58.666 53.166 99.999 68.499c-32.667 15.333 -59 36.166 -79 62.499s-30 54.833 -30 85.5s8.16699 57 24.5 79s37.5 38.5 63.5 49.5s53.667 16.5 83 16.5
c30 0 58 -5.5 84 -16.5s47 -27.5 63 -49.5s24 -48.333 24 -79c0 -34.667 -10.333 -64.167 -31 -88.5s-49.667 -44.833 -87 -61.5c92 -40 138 -99 138 -177c0 -32 -8.33301 -60.667 -25 -86s-39.5 -45.333 -68.5 -60s-61.5 -22 -97.5 -22c-58 0 -105.833 15.167 -143.5 45.5z
M321.001 406.002c16.667 18 25 40.667 25 68c0 31.333 -10 56 -30 74s-44.667 27 -74 27c-28.667 0 -52.167 -8.83301 -70.5 -26.5s-27.5 -41.834 -27.5 -72.501c0 -25.333 9.33301 -48.166 28 -68.499s44 -36.5 76 -48.5c32 13.333 56.333 29 73 47zM325.001 73.502
c21.333 21.667 32.001 50.834 32.001 87.501c0 34.667 -12.167 63.667 -36.5 87s-55.5 42 -93.5 56c-34 -12 -61 -29.667 -81 -53s-30 -51.333 -30 -84c0 -38.667 12.167 -69.334 36.5 -92.001s53.5 -34 87.5 -34c35.333 0 63.666 10.833 84.999 32.5z" />
    <glyph glyph-name="nine.lf" horiz-adv-x="511" 
d="M127 42c66.667 8.66699 123.001 37.167 169.001 85.5s74 108.5 84 180.5c-14 -23.333 -35.167 -41.666 -63.5 -54.999s-56.833 -20 -85.5 -20c-36.667 0 -69.5 9.5 -98.5 28.5s-51.667 45.5 -68 79.5s-24.5 73 -24.5 117c0 38.667 8.16699 75 24.5 109
s40.166 61.667 71.499 83s68.333 32 111 32c72 0 125.667 -25.833 161 -77.5s53 -117.167 53 -196.5c0 -72 -12.5 -139.667 -37.5 -203s-62.667 -115.833 -113 -157.5s-111.5 -65.834 -183.5 -72.501v67zM317.001 313.5c21.333 15 38.333 35 51 60s19 51.833 19 80.5
c0 27.333 -5.83301 54.166 -17.5 80.499s-28.167 47.833 -49.5 64.5s-45.666 25 -72.999 25s-51.333 -8.33301 -72 -25s-36.334 -38.167 -47.001 -64.5s-16 -53.5 -16 -81.5c0 -45.333 11.833 -83.666 35.5 -114.999s56.834 -47 99.501 -47c25.333 0 48.666 7.5 69.999 22.5
z" />
    <glyph glyph-name="nine.tf" horiz-adv-x="475" 
d="M118 40c62 8 113.167 32.1709 153.5 72.5039s64.833 93.166 73.5 158.499c-12 -18.667 -30.167 -32.834 -54.5 -42.501s-49.833 -14.5 -76.5 -14.5c-33.333 0 -63.5 8.83301 -90.5 26.5s-48 42.167 -63 73.5s-22.5 67 -22.5 107c0 35.333 7.5 68.833 22.5 100.5
s36.833 57.167 65.5 76.5s62.667 29 102 29c66 0 115.333 -23.667 148 -71s49 -107.333 49 -180c0 -66.667 -11.5 -129.334 -34.5 -188.001s-57.5 -107.334 -103.5 -146.001s-102.333 -61 -169 -67v65zM291 288.504c18.667 13.667 33.332 32.002 43.999 55.002
s16 47.5 16 73.5c0 25.333 -4.83301 49.666 -14.5 72.999s-23.834 42.5 -42.501 57.5s-40.667 22.5 -66 22.5c-37.333 0 -66.666 -15.333 -87.999 -46s-32 -66.334 -32 -107.001c0 -42.667 10.333 -78.167 31 -106.5s50.334 -42.5 89.001 -42.5
c23.333 0 44.333 6.83301 63 20.5z" />
    <glyph glyph-name="zero.subs" horiz-adv-x="355" 
d="M68 -161.5c-24 43 -36 97.834 -36 164.501c0 68 12.333 123 37 165s60.667 63 108 63s83.5 -20.667 108.5 -62s37.5 -97 37.5 -167c0 -66.667 -12.167 -121.334 -36.5 -164.001s-60.833 -64 -109.5 -64s-85 21.5 -109 64.5zM238 -125.999c13.333 29.333 20 72 20 128
c0 55.333 -6.16699 98.333 -18.5 129s-33.833 46 -64.5 46c-53.333 0 -80 -58.333 -80 -175c0 -114.667 26.667 -172 80 -172c28.667 0 49.667 14.667 63 44z" />
    <glyph glyph-name="one.subs" horiz-adv-x="199" 
d="M83 178l-89 -4v31l155 19v-442h-66v396z" />
    <glyph glyph-name="two.subs" horiz-adv-x="301" 
d="M18 -168c49.333 48.667 86.667 87.1699 112 115.503s44.333 54.666 57 78.999s19 48.833 19 73.5c0 26 -6.33301 45.5 -19 58.5s-31 19.5 -55 19.5c-32 0 -64.667 -9.33301 -98 -28v58c35.333 16 70.333 24 105 24c39.333 0 70.833 -11.333 94.5 -34
s35.5 -53.667 35.5 -93c0 -42.667 -13.833 -84.834 -41.5 -126.501s-68.5 -88.834 -122.5 -141.501h176v-55h-263v50z" />
    </font>
</defs>
</svg>
